%TF.GenerationSoftware,KiCad,Pcbnew,9.0.7*%
%TF.CreationDate,2026-03-13T11:38:06-04:00*%
%TF.ProjectId,Smart_Backpack,536d6172-745f-4426-9163-6b7061636b2e,rev?*%
%TF.SameCoordinates,Original*%
%TF.FileFunction,Paste,Top*%
%TF.FilePolarity,Positive*%
%FSLAX46Y46*%
G04 Gerber Fmt 4.6, Leading zero omitted, Abs format (unit mm)*
G04 Created by KiCad (PCBNEW 9.0.7) date 2026-03-13 11:38:06*
%MOMM*%
%LPD*%
G01*
G04 APERTURE LIST*
G04 Aperture macros list*
%AMRoundRect*
0 Rectangle with rounded corners*
0 $1 Rounding radius*
0 $2 $3 $4 $5 $6 $7 $8 $9 X,Y pos of 4 corners*
0 Add a 4 corners polygon primitive as box body*
4,1,4,$2,$3,$4,$5,$6,$7,$8,$9,$2,$3,0*
0 Add four circle primitives for the rounded corners*
1,1,$1+$1,$2,$3*
1,1,$1+$1,$4,$5*
1,1,$1+$1,$6,$7*
1,1,$1+$1,$8,$9*
0 Add four rect primitives between the rounded corners*
20,1,$1+$1,$2,$3,$4,$5,0*
20,1,$1+$1,$4,$5,$6,$7,0*
20,1,$1+$1,$6,$7,$8,$9,0*
20,1,$1+$1,$8,$9,$2,$3,0*%
%AMFreePoly0*
4,1,6,0.723900,-0.723900,-0.723900,-0.723900,-0.723900,0.114300,-0.114300,0.723900,0.723900,0.723900,0.723900,-0.723900,0.723900,-0.723900,$1*%
G04 Aperture macros list end*
%ADD10RoundRect,0.250000X-0.400000X-0.625000X0.400000X-0.625000X0.400000X0.625000X-0.400000X0.625000X0*%
%ADD11RoundRect,0.250000X0.400000X0.625000X-0.400000X0.625000X-0.400000X-0.625000X0.400000X-0.625000X0*%
%ADD12RoundRect,0.095250X-0.793750X-0.222250X0.793750X-0.222250X0.793750X0.222250X-0.793750X0.222250X0*%
%ADD13RoundRect,0.250000X0.625000X-0.400000X0.625000X0.400000X-0.625000X0.400000X-0.625000X-0.400000X0*%
%ADD14RoundRect,0.250000X-0.412500X-0.650000X0.412500X-0.650000X0.412500X0.650000X-0.412500X0.650000X0*%
%ADD15RoundRect,0.250000X0.412500X0.650000X-0.412500X0.650000X-0.412500X-0.650000X0.412500X-0.650000X0*%
%ADD16R,0.812800X0.406400*%
%ADD17R,0.406400X0.812800*%
%ADD18R,1.447800X1.447800*%
%ADD19R,0.711200X0.711200*%
%ADD20FreePoly0,180.000000*%
%ADD21RoundRect,0.095250X-0.222250X0.793750X-0.222250X-0.793750X0.222250X-0.793750X0.222250X0.793750X0*%
%ADD22R,0.609600X0.254000*%
%ADD23R,0.254000X0.609600*%
%ADD24R,2.743200X2.641600*%
%ADD25RoundRect,0.250000X-0.650000X0.412500X-0.650000X-0.412500X0.650000X-0.412500X0.650000X0.412500X0*%
%ADD26RoundRect,0.160000X0.222500X0.160000X-0.222500X0.160000X-0.222500X-0.160000X0.222500X-0.160000X0*%
%ADD27RoundRect,0.237500X0.237500X-0.287500X0.237500X0.287500X-0.237500X0.287500X-0.237500X-0.287500X0*%
%ADD28RoundRect,0.237500X-0.287500X-0.237500X0.287500X-0.237500X0.287500X0.237500X-0.287500X0.237500X0*%
%ADD29RoundRect,0.250000X-0.625000X0.400000X-0.625000X-0.400000X0.625000X-0.400000X0.625000X0.400000X0*%
%ADD30RoundRect,0.160000X-0.222500X-0.160000X0.222500X-0.160000X0.222500X0.160000X-0.222500X0.160000X0*%
%ADD31RoundRect,0.225000X-0.225000X-0.225000X0.225000X-0.225000X0.225000X0.225000X-0.225000X0.225000X0*%
%ADD32RoundRect,0.062500X-0.337500X-0.062500X0.337500X-0.062500X0.337500X0.062500X-0.337500X0.062500X0*%
%ADD33RoundRect,0.062500X-0.062500X-0.337500X0.062500X-0.337500X0.062500X0.337500X-0.062500X0.337500X0*%
%ADD34RoundRect,0.250000X0.650000X-0.412500X0.650000X0.412500X-0.650000X0.412500X-0.650000X-0.412500X0*%
%ADD35R,1.240000X0.600000*%
%ADD36R,1.240000X0.300000*%
G04 APERTURE END LIST*
D10*
%TO.C,R21*%
X118300000Y-99650000D03*
X121400000Y-99650000D03*
%TD*%
D11*
%TO.C,R2*%
X108622000Y-92739000D03*
X105522000Y-92739000D03*
%TD*%
D12*
%TO.C,SW2*%
X116957957Y-88900000D03*
X123384536Y-88889668D03*
X116906296Y-92960524D03*
X123384536Y-92960524D03*
%TD*%
D13*
%TO.C,R15*%
X88449000Y-104693000D03*
X88449000Y-101593000D03*
%TD*%
D10*
%TO.C,R13*%
X96356000Y-100351000D03*
X99456000Y-100351000D03*
%TD*%
%TO.C,R17*%
X118312000Y-97282000D03*
X121412000Y-97282000D03*
%TD*%
D14*
%TO.C,C11*%
X118325500Y-94742000D03*
X121450500Y-94742000D03*
%TD*%
D15*
%TO.C,C10*%
X108612500Y-100239000D03*
X105487500Y-100239000D03*
%TD*%
D16*
%TO.C,U3*%
X131930000Y-112469999D03*
X131930000Y-111669998D03*
X131930000Y-110869999D03*
X131930000Y-110069998D03*
X131930000Y-109270000D03*
X131930000Y-108469999D03*
X131930000Y-107669998D03*
X131930000Y-106870000D03*
X131930000Y-106069999D03*
X131930000Y-105270000D03*
X131930000Y-104469999D03*
D17*
X130830003Y-103569999D03*
X130030002Y-103569999D03*
X129230001Y-103569999D03*
X128430002Y-103569999D03*
X127630001Y-103569999D03*
X126830003Y-103569999D03*
X126030002Y-103569999D03*
X125230001Y-103569999D03*
X124430003Y-103569999D03*
X123630002Y-103569999D03*
X122830003Y-103569999D03*
X122030002Y-103569999D03*
X121230004Y-103569999D03*
D16*
X120130004Y-104469999D03*
X120130004Y-105270000D03*
X120130004Y-106069999D03*
X120130004Y-106870000D03*
X120130004Y-107669998D03*
X120130004Y-108469999D03*
X120130004Y-109270000D03*
X120130004Y-110069998D03*
X120130004Y-110869999D03*
X120130004Y-111669998D03*
X120130004Y-112469999D03*
D17*
X121230001Y-113369999D03*
X122030002Y-113369999D03*
X122830003Y-113369999D03*
X123630002Y-113369999D03*
X124430003Y-113369999D03*
X125230001Y-113369999D03*
X126030002Y-113369999D03*
X126830003Y-113369999D03*
X127630001Y-113369999D03*
X128430002Y-113369999D03*
X129230001Y-113369999D03*
X130030002Y-113369999D03*
X130830000Y-113369999D03*
D18*
X126030002Y-108469999D03*
D19*
X120080004Y-113419999D03*
X120080004Y-103519999D03*
X131980000Y-103519999D03*
X131980000Y-113419999D03*
D20*
X128005002Y-110444999D03*
D18*
X126030002Y-110444999D03*
X124055002Y-110444999D03*
X124055002Y-108469999D03*
X124055002Y-106494999D03*
X126030002Y-106494999D03*
X128005002Y-106494999D03*
X128005002Y-108469999D03*
%TD*%
D21*
%TO.C,SW1*%
X148818000Y-95113957D03*
X148828332Y-101540536D03*
X144757476Y-95062296D03*
X144757476Y-101540536D03*
%TD*%
D22*
%TO.C,U2*%
X128866900Y-79623285D03*
X128866900Y-80123411D03*
X128866900Y-80623537D03*
X128866900Y-81123663D03*
X128866900Y-81623789D03*
X128866900Y-82123915D03*
D23*
X129559685Y-82816700D03*
X130059811Y-82816700D03*
X130559937Y-82816700D03*
X131060063Y-82816700D03*
X131560189Y-82816700D03*
X132060315Y-82816700D03*
D22*
X132753100Y-82123915D03*
X132753100Y-81623789D03*
X132753100Y-81123663D03*
X132753100Y-80623537D03*
X132753100Y-80123411D03*
X132753100Y-79623285D03*
D23*
X132060315Y-78930500D03*
X131560189Y-78930500D03*
X131060063Y-78930500D03*
X130559937Y-78930500D03*
X130059811Y-78930500D03*
X129559685Y-78930500D03*
D24*
X130810000Y-80873600D03*
%TD*%
D14*
%TO.C,C1*%
X139623000Y-103124000D03*
X142748000Y-103124000D03*
%TD*%
D10*
%TO.C,R7*%
X130555400Y-59131200D03*
X133655400Y-59131200D03*
%TD*%
D25*
%TO.C,C6*%
X133600063Y-84276800D03*
X133600063Y-87401800D03*
%TD*%
D13*
%TO.C,R19*%
X95750000Y-111100000D03*
X95750000Y-108000000D03*
%TD*%
D26*
%TO.C,D5*%
X130874500Y-52070000D03*
X129729500Y-52070000D03*
%TD*%
D14*
%TO.C,C2*%
X139623000Y-105664000D03*
X142748000Y-105664000D03*
%TD*%
D11*
%TO.C,R14*%
X108622000Y-95239000D03*
X105522000Y-95239000D03*
%TD*%
D13*
%TO.C,R20*%
X95504000Y-87148000D03*
X95504000Y-84048000D03*
%TD*%
D25*
%TO.C,C5*%
X131060063Y-84620100D03*
X131060063Y-87745100D03*
%TD*%
D10*
%TO.C,R6*%
X132917600Y-61772800D03*
X136017600Y-61772800D03*
%TD*%
D27*
%TO.C,D2*%
X93218000Y-85711000D03*
X93218000Y-83961000D03*
%TD*%
D28*
%TO.C,D1*%
X94075000Y-106050000D03*
X95825000Y-106050000D03*
%TD*%
D10*
%TO.C,R1*%
X139700000Y-100584000D03*
X142800000Y-100584000D03*
%TD*%
D29*
%TO.C,R4*%
X126935600Y-73146000D03*
X126935600Y-76246000D03*
%TD*%
D10*
%TO.C,R3*%
X105500000Y-97739000D03*
X108600000Y-97739000D03*
%TD*%
D30*
%TO.C,D9*%
X137603500Y-67310000D03*
X138748500Y-67310000D03*
%TD*%
D10*
%TO.C,R16*%
X105500000Y-90239000D03*
X108600000Y-90239000D03*
%TD*%
%TO.C,R8*%
X128193200Y-56489600D03*
X131293200Y-56489600D03*
%TD*%
D31*
%TO.C,U4*%
X97952000Y-93239000D03*
X97952000Y-94359000D03*
X97952000Y-95479000D03*
X99072000Y-93239000D03*
X99072000Y-94359000D03*
X99072000Y-95479000D03*
X100192000Y-93239000D03*
X100192000Y-94359000D03*
X100192000Y-95479000D03*
D32*
X96622000Y-92859000D03*
X96622000Y-93359000D03*
X96622000Y-93859000D03*
X96622000Y-94359000D03*
X96622000Y-94859000D03*
X96622000Y-95359000D03*
X96622000Y-95859000D03*
D33*
X97572000Y-96809000D03*
X98072000Y-96809000D03*
X98572000Y-96809000D03*
X99072000Y-96809000D03*
X99572000Y-96809000D03*
X100072000Y-96809000D03*
X100572000Y-96809000D03*
D32*
X101522000Y-95859000D03*
X101522000Y-95359000D03*
X101522000Y-94859000D03*
X101522000Y-94359000D03*
X101522000Y-93859000D03*
X101522000Y-93359000D03*
X101522000Y-92859000D03*
D33*
X100572000Y-91909000D03*
X100072000Y-91909000D03*
X99572000Y-91909000D03*
X99072000Y-91909000D03*
X98572000Y-91909000D03*
X98072000Y-91909000D03*
X97572000Y-91909000D03*
%TD*%
D34*
%TO.C,C4*%
X132130800Y-76301600D03*
X132130800Y-73176600D03*
%TD*%
D29*
%TO.C,R5*%
X129523200Y-73146000D03*
X129523200Y-76246000D03*
%TD*%
D35*
%TO.C,J9*%
X91900000Y-91817000D03*
X91900000Y-92617000D03*
D36*
X91900000Y-93767000D03*
X91900000Y-94767000D03*
X91900000Y-95267000D03*
X91900000Y-96267000D03*
D35*
X91900000Y-97417000D03*
X91900000Y-98217000D03*
X91900000Y-98217000D03*
X91900000Y-97417000D03*
D36*
X91900000Y-96767000D03*
X91900000Y-95767000D03*
X91900000Y-94267000D03*
X91900000Y-93267000D03*
D35*
X91900000Y-92617000D03*
X91900000Y-91817000D03*
%TD*%
D13*
%TO.C,R12*%
X97790000Y-88952000D03*
X97790000Y-85852000D03*
%TD*%
M02*
