%TF.GenerationSoftware,KiCad,Pcbnew,9.0.7*%
%TF.CreationDate,2026-03-06T14:55:03-05:00*%
%TF.ProjectId,Smart_Backpack,536d6172-745f-4426-9163-6b7061636b2e,rev?*%
%TF.SameCoordinates,Original*%
%TF.FileFunction,Drillmap*%
%TF.FilePolarity,Positive*%
%FSLAX45Y45*%
G04 Gerber Fmt 4.5, Leading zero omitted, Abs format (unit mm)*
G04 Created by KiCad (PCBNEW 9.0.7) date 2026-03-06 14:55:03*
%MOMM*%
%LPD*%
G01*
G04 APERTURE LIST*
%ADD10C,0.100000*%
%ADD11C,0.200000*%
%ADD12C,0.170000*%
G04 APERTURE END LIST*
D10*
X15103240Y-3962000D02*
X15104036Y-10774931D01*
X8528920Y-11405000D02*
X8528920Y-3962000D01*
X13512800Y-10775069D02*
X15104013Y-10774931D01*
X13512800Y-11181870D02*
X13512800Y-11405000D01*
X13512800Y-11181870D02*
X13512800Y-10775069D01*
X8528920Y-3962000D02*
X15103240Y-3962000D01*
X13512800Y-11405000D02*
X8528920Y-11405000D01*
D11*
D10*
X9027000Y-8387000D02*
X9067000Y-8427000D01*
X9067000Y-8387000D02*
X9027000Y-8427000D01*
X9027000Y-8522000D02*
X9067000Y-8562000D01*
X9067000Y-8522000D02*
X9027000Y-8562000D01*
X9027000Y-8657000D02*
X9067000Y-8697000D01*
X9067000Y-8657000D02*
X9027000Y-8697000D01*
X9035100Y-9460000D02*
X9075100Y-9500000D01*
X9075100Y-9460000D02*
X9035100Y-9500000D01*
X9459631Y-9436200D02*
X9499631Y-9476200D01*
X9499631Y-9436200D02*
X9459631Y-9476200D01*
X9465800Y-9576300D02*
X9505800Y-9616300D01*
X9505800Y-9576300D02*
X9465800Y-9616300D01*
X9530400Y-11130600D02*
X9570400Y-11170600D01*
X9570400Y-11130600D02*
X9530400Y-11170600D01*
X9538030Y-9345900D02*
X9578030Y-9385900D01*
X9578030Y-9345900D02*
X9538030Y-9385900D01*
X9618835Y-9060035D02*
X9658835Y-9100035D01*
X9658835Y-9060035D02*
X9618835Y-9100035D01*
X9657400Y-10546400D02*
X9697400Y-10586400D01*
X9697400Y-10546400D02*
X9657400Y-10586400D01*
X9860600Y-10571800D02*
X9900600Y-10611800D01*
X9900600Y-10571800D02*
X9860600Y-10611800D01*
X10241600Y-8870000D02*
X10281600Y-8910000D01*
X10281600Y-8870000D02*
X10241600Y-8910000D01*
X10267000Y-10013000D02*
X10307000Y-10053000D01*
X10307000Y-10013000D02*
X10267000Y-10053000D01*
X10813000Y-5817000D02*
X10853000Y-5857000D01*
X10853000Y-5817000D02*
X10813000Y-5857000D01*
X10906000Y-5900000D02*
X10946000Y-5940000D01*
X10946000Y-5900000D02*
X10906000Y-5940000D01*
X10961400Y-7009000D02*
X11001400Y-7049000D01*
X11001400Y-7009000D02*
X10961400Y-7049000D01*
X10999000Y-5983000D02*
X11039000Y-6023000D01*
X11039000Y-5983000D02*
X10999000Y-6023000D01*
X11014000Y-5610000D02*
X11054000Y-5650000D01*
X11054000Y-5610000D02*
X11014000Y-5650000D01*
X11029000Y-9047800D02*
X11069000Y-9087800D01*
X11069000Y-9047800D02*
X11029000Y-9087800D01*
X11054400Y-7092000D02*
X11094400Y-7132000D01*
X11094400Y-7092000D02*
X11054400Y-7132000D01*
X11105200Y-9327200D02*
X11145200Y-9367200D01*
X11145200Y-9327200D02*
X11105200Y-9367200D01*
X11107000Y-5693000D02*
X11147000Y-5733000D01*
X11147000Y-5693000D02*
X11107000Y-5733000D01*
X11147400Y-7175000D02*
X11187400Y-7215000D01*
X11187400Y-7175000D02*
X11147400Y-7215000D01*
X11156000Y-7701600D02*
X11196000Y-7741600D01*
X11196000Y-7701600D02*
X11156000Y-7741600D01*
X11156000Y-8768400D02*
X11196000Y-8808400D01*
X11196000Y-8768400D02*
X11156000Y-8808400D01*
X11200000Y-5776000D02*
X11240000Y-5816000D01*
X11240000Y-5776000D02*
X11200000Y-5816000D01*
X11244900Y-7803200D02*
X11284900Y-7843200D01*
X11284900Y-7803200D02*
X11244900Y-7843200D01*
X11333800Y-7904800D02*
X11373800Y-7944800D01*
X11373800Y-7904800D02*
X11333800Y-7944800D01*
X11344000Y-10673000D02*
X11384000Y-10713000D01*
X11384000Y-10673000D02*
X11344000Y-10713000D01*
X11344000Y-10808000D02*
X11384000Y-10848000D01*
X11384000Y-10808000D02*
X11344000Y-10848000D01*
X11344000Y-10943000D02*
X11384000Y-10983000D01*
X11384000Y-10943000D02*
X11344000Y-10983000D01*
X11460800Y-8844600D02*
X11500800Y-8884600D01*
X11500800Y-8844600D02*
X11460800Y-8884600D01*
X11520000Y-9540000D02*
X11560000Y-9580000D01*
X11560000Y-9540000D02*
X11520000Y-9580000D01*
X11520000Y-9675000D02*
X11560000Y-9715000D01*
X11560000Y-9675000D02*
X11520000Y-9715000D01*
X11520000Y-9810000D02*
X11560000Y-9850000D01*
X11560000Y-9810000D02*
X11520000Y-9850000D01*
X11791000Y-11050000D02*
X11831000Y-11090000D01*
X11831000Y-11050000D02*
X11791000Y-11090000D01*
X11793600Y-11230000D02*
X11833600Y-11270000D01*
X11833600Y-11230000D02*
X11793600Y-11270000D01*
X11801116Y-10369884D02*
X11841116Y-10409884D01*
X11841116Y-10369884D02*
X11801116Y-10409884D01*
X11833156Y-10706844D02*
X11873156Y-10746844D01*
X11873156Y-10706844D02*
X11833156Y-10746844D01*
X12115000Y-11147200D02*
X12155000Y-11187200D01*
X12155000Y-11147200D02*
X12115000Y-11187200D01*
X12178000Y-9056000D02*
X12218000Y-9096000D01*
X12218000Y-9056000D02*
X12178000Y-9096000D01*
X12218000Y-10507000D02*
X12258000Y-10547000D01*
X12258000Y-10507000D02*
X12218000Y-10547000D01*
X12310000Y-9530000D02*
X12350000Y-9570000D01*
X12350000Y-9530000D02*
X12310000Y-9570000D01*
X12310000Y-9665000D02*
X12350000Y-9705000D01*
X12350000Y-9665000D02*
X12310000Y-9705000D01*
X12310000Y-9800000D02*
X12350000Y-9840000D01*
X12350000Y-9800000D02*
X12310000Y-9840000D01*
X12502200Y-8006400D02*
X12542200Y-8046400D01*
X12542200Y-8006400D02*
X12502200Y-8046400D01*
X12600000Y-10443000D02*
X12640000Y-10483000D01*
X12640000Y-10443000D02*
X12600000Y-10483000D01*
X12609000Y-5944000D02*
X12649000Y-5984000D01*
X12649000Y-5944000D02*
X12609000Y-5984000D01*
X12609000Y-6079000D02*
X12649000Y-6119000D01*
X12649000Y-6079000D02*
X12609000Y-6119000D01*
X12609000Y-6214000D02*
X12649000Y-6254000D01*
X12649000Y-6214000D02*
X12609000Y-6254000D01*
X12649520Y-7762560D02*
X12689520Y-7802560D01*
X12689520Y-7762560D02*
X12649520Y-7802560D01*
X12771000Y-10130250D02*
X12811000Y-10170250D01*
X12811000Y-10130250D02*
X12771000Y-10170250D01*
X12829000Y-5117000D02*
X12869000Y-5157000D01*
X12869000Y-5117000D02*
X12829000Y-5157000D01*
X12829000Y-5252000D02*
X12869000Y-5292000D01*
X12869000Y-5252000D02*
X12829000Y-5292000D01*
X12829000Y-5387000D02*
X12869000Y-5427000D01*
X12869000Y-5387000D02*
X12829000Y-5427000D01*
X12875000Y-8583000D02*
X12915000Y-8623000D01*
X12915000Y-8583000D02*
X12875000Y-8623000D01*
X12918760Y-7747320D02*
X12958760Y-7787320D01*
X12958760Y-7747320D02*
X12918760Y-7787320D01*
X12994000Y-10924000D02*
X13034000Y-10964000D01*
X13034000Y-10924000D02*
X12994000Y-10964000D01*
X12995000Y-10758000D02*
X13035000Y-10798000D01*
X13035000Y-10758000D02*
X12995000Y-10798000D01*
X13010200Y-9472050D02*
X13050200Y-9512050D01*
X13050200Y-9472050D02*
X13010200Y-9512050D01*
X13019878Y-11072185D02*
X13059878Y-11112185D01*
X13059878Y-11072185D02*
X13019878Y-11112185D01*
X13256000Y-10124250D02*
X13296000Y-10164250D01*
X13296000Y-10124250D02*
X13256000Y-10164250D01*
X13365800Y-7320600D02*
X13405800Y-7360600D01*
X13405800Y-7320600D02*
X13365800Y-7360600D01*
X13391200Y-8114869D02*
X13431200Y-8154869D01*
X13431200Y-8114869D02*
X13391200Y-8154869D01*
X13405000Y-5232000D02*
X13445000Y-5272000D01*
X13445000Y-5232000D02*
X13405000Y-5272000D01*
X13405000Y-5367000D02*
X13445000Y-5407000D01*
X13445000Y-5367000D02*
X13405000Y-5407000D01*
X13405000Y-5502000D02*
X13445000Y-5542000D01*
X13445000Y-5502000D02*
X13405000Y-5542000D01*
X13518200Y-6355400D02*
X13558200Y-6395400D01*
X13558200Y-6355400D02*
X13518200Y-6395400D01*
X13543600Y-5949000D02*
X13583600Y-5989000D01*
X13583600Y-5949000D02*
X13543600Y-5989000D01*
X13876000Y-8719000D02*
X13916000Y-8759000D01*
X13916000Y-8719000D02*
X13876000Y-8759000D01*
X13876000Y-8846000D02*
X13916000Y-8886000D01*
X13916000Y-8846000D02*
X13876000Y-8886000D01*
X13876000Y-8973000D02*
X13916000Y-9013000D01*
X13916000Y-8973000D02*
X13876000Y-9013000D01*
X13919000Y-10394000D02*
X13959000Y-10434000D01*
X13959000Y-10394000D02*
X13919000Y-10434000D01*
X14054000Y-10394000D02*
X14094000Y-10434000D01*
X14094000Y-10394000D02*
X14054000Y-10434000D01*
X14153200Y-9352600D02*
X14193200Y-9392600D01*
X14193200Y-9352600D02*
X14153200Y-9392600D01*
X14189000Y-10394000D02*
X14229000Y-10434000D01*
X14229000Y-10394000D02*
X14189000Y-10434000D01*
X14257000Y-6820000D02*
X14297000Y-6860000D01*
X14297000Y-6820000D02*
X14257000Y-6860000D01*
X14590000Y-6823000D02*
X14630000Y-6863000D01*
X14630000Y-6823000D02*
X14590000Y-6863000D01*
X13004500Y-10147500D02*
G75*
G02*
X12948500Y-10147500I-28000J0D01*
G01*
X12948500Y-10147500D02*
G75*
G02*
X13004500Y-10147500I28000J0D01*
G01*
X13131500Y-10147500D02*
G75*
G02*
X13075500Y-10147500I-28000J0D01*
G01*
X13075500Y-10147500D02*
G75*
G02*
X13131500Y-10147500I28000J0D01*
G01*
X8710000Y-9039700D02*
X8710000Y-9099700D01*
X8680000Y-9069700D02*
X8740000Y-9069700D01*
X8750000Y-9039700D02*
X8670000Y-9039700D01*
X8670000Y-9099700D02*
G75*
G02*
X8670000Y-9039700I0J30000D01*
G01*
X8670000Y-9099700D02*
X8750000Y-9099700D01*
X8750000Y-9099700D02*
G75*
G03*
X8750000Y-9039700I0J30000D01*
G01*
X8710000Y-9903700D02*
X8710000Y-9963700D01*
X8680000Y-9933700D02*
X8740000Y-9933700D01*
X8750000Y-9903700D02*
X8670000Y-9903700D01*
X8670000Y-9963700D02*
G75*
G02*
X8670000Y-9903700I0J30000D01*
G01*
X8670000Y-9963700D02*
X8750000Y-9963700D01*
X8750000Y-9963700D02*
G75*
G03*
X8750000Y-9903700I0J30000D01*
G01*
X9130000Y-9039700D02*
X9130000Y-9099700D01*
X9100000Y-9069700D02*
X9160000Y-9069700D01*
X9185000Y-9039700D02*
X9075000Y-9039700D01*
X9075000Y-9099700D02*
G75*
G02*
X9075000Y-9039700I0J30000D01*
G01*
X9075000Y-9099700D02*
X9185000Y-9099700D01*
X9185000Y-9099700D02*
G75*
G03*
X9185000Y-9039700I0J30000D01*
G01*
X9130000Y-9903700D02*
X9130000Y-9963700D01*
X9100000Y-9933700D02*
X9160000Y-9933700D01*
X9185000Y-9903700D02*
X9075000Y-9903700D01*
X9075000Y-9963700D02*
G75*
G02*
X9075000Y-9903700I0J30000D01*
G01*
X9075000Y-9963700D02*
X9185000Y-9963700D01*
X9185000Y-9963700D02*
G75*
G03*
X9185000Y-9903700I0J30000D01*
G01*
X10373156Y-8529116D02*
X10373156Y-8458404D01*
X10302444Y-8458404D01*
X10302444Y-8529116D01*
X10373156Y-8529116D01*
X10627156Y-8529116D02*
X10627156Y-8458404D01*
X10556444Y-8458404D01*
X10556444Y-8529116D01*
X10627156Y-8529116D01*
X10881156Y-8529116D02*
X10881156Y-8458404D01*
X10810444Y-8458404D01*
X10810444Y-8529116D01*
X10881156Y-8529116D01*
X11135156Y-8529116D02*
X11135156Y-8458404D01*
X11064444Y-8458404D01*
X11064444Y-8529116D01*
X11135156Y-8529116D01*
X11389156Y-8529116D02*
X11389156Y-8458404D01*
X11318444Y-8458404D01*
X11318444Y-8529116D01*
X11389156Y-8529116D01*
X11643156Y-8529116D02*
X11643156Y-8458404D01*
X11572444Y-8458404D01*
X11572444Y-8529116D01*
X11643156Y-8529116D01*
X11897156Y-8529116D02*
X11897156Y-8458404D01*
X11826444Y-8458404D01*
X11826444Y-8529116D01*
X11897156Y-8529116D01*
X12151156Y-8529116D02*
X12151156Y-8458404D01*
X12080444Y-8458404D01*
X12080444Y-8529116D01*
X12151156Y-8529116D01*
D12*
X9494520Y-5597040D02*
X9579520Y-5512040D01*
X9494520Y-5427040D01*
X9409520Y-5512040D01*
X9494520Y-5597040D01*
X9494520Y-5993040D02*
X9579520Y-5908040D01*
X9494520Y-5823040D01*
X9409520Y-5908040D01*
X9494520Y-5993040D01*
X9494520Y-6389040D02*
X9579520Y-6304040D01*
X9494520Y-6219040D01*
X9409520Y-6304040D01*
X9494520Y-6389040D01*
X9494520Y-6785040D02*
X9579520Y-6700040D01*
X9494520Y-6615040D01*
X9409520Y-6700040D01*
X9494520Y-6785040D01*
X9494520Y-7181040D02*
X9579520Y-7096040D01*
X9494520Y-7011040D01*
X9409520Y-7096040D01*
X9494520Y-7181040D01*
X9494520Y-7577040D02*
X9579520Y-7492040D01*
X9494520Y-7407040D01*
X9409520Y-7492040D01*
X9494520Y-7577040D01*
X9494520Y-7973040D02*
X9579520Y-7888040D01*
X9494520Y-7803040D01*
X9409520Y-7888040D01*
X9494520Y-7973040D01*
X9679808Y-4941480D02*
X9764808Y-4856480D01*
X9679808Y-4771480D01*
X9594808Y-4856480D01*
X9679808Y-4941480D01*
X10075808Y-4941480D02*
X10160808Y-4856480D01*
X10075808Y-4771480D01*
X9990808Y-4856480D01*
X10075808Y-4941480D01*
X10471808Y-4941480D02*
X10556808Y-4856480D01*
X10471808Y-4771480D01*
X10386808Y-4856480D01*
X10471808Y-4941480D01*
X11098464Y-4941480D02*
X11183464Y-4856480D01*
X11098464Y-4771480D01*
X11013464Y-4856480D01*
X11098464Y-4941480D01*
X11494464Y-4941480D02*
X11579464Y-4856480D01*
X11494464Y-4771480D01*
X11409464Y-4856480D01*
X11494464Y-4941480D01*
X11890464Y-4941480D02*
X11975464Y-4856480D01*
X11890464Y-4771480D01*
X11805464Y-4856480D01*
X11890464Y-4941480D01*
X12517120Y-4941480D02*
X12602120Y-4856480D01*
X12517120Y-4771480D01*
X12432120Y-4856480D01*
X12517120Y-4941480D01*
X12913120Y-4941480D02*
X12998120Y-4856480D01*
X12913120Y-4771480D01*
X12828120Y-4856480D01*
X12913120Y-4941480D01*
X13539776Y-4941480D02*
X13624776Y-4856480D01*
X13539776Y-4771480D01*
X13454776Y-4856480D01*
X13539776Y-4941480D01*
X13935776Y-4941480D02*
X14020776Y-4856480D01*
X13935776Y-4771480D01*
X13850776Y-4856480D01*
X13935776Y-4941480D01*
X14173200Y-5774840D02*
X14258200Y-5689840D01*
X14173200Y-5604840D01*
X14088200Y-5689840D01*
X14173200Y-5774840D01*
X14173200Y-6170840D02*
X14258200Y-6085840D01*
X14173200Y-6000840D01*
X14088200Y-6085840D01*
X14173200Y-6170840D01*
X14173200Y-6566840D02*
X14258200Y-6481840D01*
X14173200Y-6396840D01*
X14088200Y-6481840D01*
X14173200Y-6566840D01*
X14173200Y-7227720D02*
X14258200Y-7142720D01*
X14173200Y-7057720D01*
X14088200Y-7142720D01*
X14173200Y-7227720D01*
X14173200Y-7623720D02*
X14258200Y-7538720D01*
X14173200Y-7453720D01*
X14088200Y-7538720D01*
X14173200Y-7623720D01*
X14173200Y-8019720D02*
X14258200Y-7934720D01*
X14173200Y-7849720D01*
X14088200Y-7934720D01*
X14173200Y-8019720D01*
X14181500Y-8548400D02*
X14266500Y-8463400D01*
X14181500Y-8378400D01*
X14096500Y-8463400D01*
X14181500Y-8548400D01*
X14181500Y-8944400D02*
X14266500Y-8859400D01*
X14181500Y-8774400D01*
X14096500Y-8859400D01*
X14181500Y-8944400D01*
D11*
X8784697Y-11721484D02*
X8784697Y-11521484D01*
X8784697Y-11521484D02*
X8832316Y-11521484D01*
X8832316Y-11521484D02*
X8860887Y-11531008D01*
X8860887Y-11531008D02*
X8879935Y-11550055D01*
X8879935Y-11550055D02*
X8889459Y-11569103D01*
X8889459Y-11569103D02*
X8898983Y-11607198D01*
X8898983Y-11607198D02*
X8898983Y-11635769D01*
X8898983Y-11635769D02*
X8889459Y-11673865D01*
X8889459Y-11673865D02*
X8879935Y-11692912D01*
X8879935Y-11692912D02*
X8860887Y-11711960D01*
X8860887Y-11711960D02*
X8832316Y-11721484D01*
X8832316Y-11721484D02*
X8784697Y-11721484D01*
X8984697Y-11721484D02*
X8984697Y-11588150D01*
X8984697Y-11626246D02*
X8994221Y-11607198D01*
X8994221Y-11607198D02*
X9003744Y-11597674D01*
X9003744Y-11597674D02*
X9022792Y-11588150D01*
X9022792Y-11588150D02*
X9041840Y-11588150D01*
X9108506Y-11721484D02*
X9108506Y-11588150D01*
X9108506Y-11521484D02*
X9098983Y-11531008D01*
X9098983Y-11531008D02*
X9108506Y-11540531D01*
X9108506Y-11540531D02*
X9118030Y-11531008D01*
X9118030Y-11531008D02*
X9108506Y-11521484D01*
X9108506Y-11521484D02*
X9108506Y-11540531D01*
X9232316Y-11721484D02*
X9213268Y-11711960D01*
X9213268Y-11711960D02*
X9203744Y-11692912D01*
X9203744Y-11692912D02*
X9203744Y-11521484D01*
X9337078Y-11721484D02*
X9318030Y-11711960D01*
X9318030Y-11711960D02*
X9308506Y-11692912D01*
X9308506Y-11692912D02*
X9308506Y-11521484D01*
X9565649Y-11721484D02*
X9565649Y-11521484D01*
X9565649Y-11521484D02*
X9632316Y-11664341D01*
X9632316Y-11664341D02*
X9698983Y-11521484D01*
X9698983Y-11521484D02*
X9698983Y-11721484D01*
X9879935Y-11721484D02*
X9879935Y-11616722D01*
X9879935Y-11616722D02*
X9870411Y-11597674D01*
X9870411Y-11597674D02*
X9851364Y-11588150D01*
X9851364Y-11588150D02*
X9813268Y-11588150D01*
X9813268Y-11588150D02*
X9794221Y-11597674D01*
X9879935Y-11711960D02*
X9860887Y-11721484D01*
X9860887Y-11721484D02*
X9813268Y-11721484D01*
X9813268Y-11721484D02*
X9794221Y-11711960D01*
X9794221Y-11711960D02*
X9784697Y-11692912D01*
X9784697Y-11692912D02*
X9784697Y-11673865D01*
X9784697Y-11673865D02*
X9794221Y-11654817D01*
X9794221Y-11654817D02*
X9813268Y-11645293D01*
X9813268Y-11645293D02*
X9860887Y-11645293D01*
X9860887Y-11645293D02*
X9879935Y-11635769D01*
X9975173Y-11588150D02*
X9975173Y-11788150D01*
X9975173Y-11597674D02*
X9994221Y-11588150D01*
X9994221Y-11588150D02*
X10032316Y-11588150D01*
X10032316Y-11588150D02*
X10051364Y-11597674D01*
X10051364Y-11597674D02*
X10060887Y-11607198D01*
X10060887Y-11607198D02*
X10070411Y-11626246D01*
X10070411Y-11626246D02*
X10070411Y-11683388D01*
X10070411Y-11683388D02*
X10060887Y-11702436D01*
X10060887Y-11702436D02*
X10051364Y-11711960D01*
X10051364Y-11711960D02*
X10032316Y-11721484D01*
X10032316Y-11721484D02*
X9994221Y-11721484D01*
X9994221Y-11721484D02*
X9975173Y-11711960D01*
X10156125Y-11702436D02*
X10165649Y-11711960D01*
X10165649Y-11711960D02*
X10156125Y-11721484D01*
X10156125Y-11721484D02*
X10146602Y-11711960D01*
X10146602Y-11711960D02*
X10156125Y-11702436D01*
X10156125Y-11702436D02*
X10156125Y-11721484D01*
X10156125Y-11597674D02*
X10165649Y-11607198D01*
X10165649Y-11607198D02*
X10156125Y-11616722D01*
X10156125Y-11616722D02*
X10146602Y-11607198D01*
X10146602Y-11607198D02*
X10156125Y-11597674D01*
X10156125Y-11597674D02*
X10156125Y-11616722D01*
D10*
X8483920Y-12030000D02*
X8523920Y-12070000D01*
X8523920Y-12030000D02*
X8483920Y-12070000D01*
D11*
X8822792Y-11941484D02*
X8841840Y-11941484D01*
X8841840Y-11941484D02*
X8860887Y-11951008D01*
X8860887Y-11951008D02*
X8870411Y-11960531D01*
X8870411Y-11960531D02*
X8879935Y-11979579D01*
X8879935Y-11979579D02*
X8889459Y-12017674D01*
X8889459Y-12017674D02*
X8889459Y-12065293D01*
X8889459Y-12065293D02*
X8879935Y-12103388D01*
X8879935Y-12103388D02*
X8870411Y-12122436D01*
X8870411Y-12122436D02*
X8860887Y-12131960D01*
X8860887Y-12131960D02*
X8841840Y-12141484D01*
X8841840Y-12141484D02*
X8822792Y-12141484D01*
X8822792Y-12141484D02*
X8803744Y-12131960D01*
X8803744Y-12131960D02*
X8794221Y-12122436D01*
X8794221Y-12122436D02*
X8784697Y-12103388D01*
X8784697Y-12103388D02*
X8775173Y-12065293D01*
X8775173Y-12065293D02*
X8775173Y-12017674D01*
X8775173Y-12017674D02*
X8784697Y-11979579D01*
X8784697Y-11979579D02*
X8794221Y-11960531D01*
X8794221Y-11960531D02*
X8803744Y-11951008D01*
X8803744Y-11951008D02*
X8822792Y-11941484D01*
X8975173Y-12122436D02*
X8984697Y-12131960D01*
X8984697Y-12131960D02*
X8975173Y-12141484D01*
X8975173Y-12141484D02*
X8965649Y-12131960D01*
X8965649Y-12131960D02*
X8975173Y-12122436D01*
X8975173Y-12122436D02*
X8975173Y-12141484D01*
X9156125Y-12008150D02*
X9156125Y-12141484D01*
X9108506Y-11931960D02*
X9060887Y-12074817D01*
X9060887Y-12074817D02*
X9184697Y-12074817D01*
X9298983Y-11941484D02*
X9318030Y-11941484D01*
X9318030Y-11941484D02*
X9337078Y-11951008D01*
X9337078Y-11951008D02*
X9346602Y-11960531D01*
X9346602Y-11960531D02*
X9356125Y-11979579D01*
X9356125Y-11979579D02*
X9365649Y-12017674D01*
X9365649Y-12017674D02*
X9365649Y-12065293D01*
X9365649Y-12065293D02*
X9356125Y-12103388D01*
X9356125Y-12103388D02*
X9346602Y-12122436D01*
X9346602Y-12122436D02*
X9337078Y-12131960D01*
X9337078Y-12131960D02*
X9318030Y-12141484D01*
X9318030Y-12141484D02*
X9298983Y-12141484D01*
X9298983Y-12141484D02*
X9279935Y-12131960D01*
X9279935Y-12131960D02*
X9270411Y-12122436D01*
X9270411Y-12122436D02*
X9260887Y-12103388D01*
X9260887Y-12103388D02*
X9251364Y-12065293D01*
X9251364Y-12065293D02*
X9251364Y-12017674D01*
X9251364Y-12017674D02*
X9260887Y-11979579D01*
X9260887Y-11979579D02*
X9270411Y-11960531D01*
X9270411Y-11960531D02*
X9279935Y-11951008D01*
X9279935Y-11951008D02*
X9298983Y-11941484D01*
X9489459Y-11941484D02*
X9508506Y-11941484D01*
X9508506Y-11941484D02*
X9527554Y-11951008D01*
X9527554Y-11951008D02*
X9537078Y-11960531D01*
X9537078Y-11960531D02*
X9546602Y-11979579D01*
X9546602Y-11979579D02*
X9556125Y-12017674D01*
X9556125Y-12017674D02*
X9556125Y-12065293D01*
X9556125Y-12065293D02*
X9546602Y-12103388D01*
X9546602Y-12103388D02*
X9537078Y-12122436D01*
X9537078Y-12122436D02*
X9527554Y-12131960D01*
X9527554Y-12131960D02*
X9508506Y-12141484D01*
X9508506Y-12141484D02*
X9489459Y-12141484D01*
X9489459Y-12141484D02*
X9470411Y-12131960D01*
X9470411Y-12131960D02*
X9460887Y-12122436D01*
X9460887Y-12122436D02*
X9451364Y-12103388D01*
X9451364Y-12103388D02*
X9441840Y-12065293D01*
X9441840Y-12065293D02*
X9441840Y-12017674D01*
X9441840Y-12017674D02*
X9451364Y-11979579D01*
X9451364Y-11979579D02*
X9460887Y-11960531D01*
X9460887Y-11960531D02*
X9470411Y-11951008D01*
X9470411Y-11951008D02*
X9489459Y-11941484D01*
X9641840Y-12141484D02*
X9641840Y-12008150D01*
X9641840Y-12027198D02*
X9651364Y-12017674D01*
X9651364Y-12017674D02*
X9670411Y-12008150D01*
X9670411Y-12008150D02*
X9698983Y-12008150D01*
X9698983Y-12008150D02*
X9718030Y-12017674D01*
X9718030Y-12017674D02*
X9727554Y-12036722D01*
X9727554Y-12036722D02*
X9727554Y-12141484D01*
X9727554Y-12036722D02*
X9737078Y-12017674D01*
X9737078Y-12017674D02*
X9756125Y-12008150D01*
X9756125Y-12008150D02*
X9784697Y-12008150D01*
X9784697Y-12008150D02*
X9803745Y-12017674D01*
X9803745Y-12017674D02*
X9813268Y-12036722D01*
X9813268Y-12036722D02*
X9813268Y-12141484D01*
X9908506Y-12141484D02*
X9908506Y-12008150D01*
X9908506Y-12027198D02*
X9918030Y-12017674D01*
X9918030Y-12017674D02*
X9937078Y-12008150D01*
X9937078Y-12008150D02*
X9965649Y-12008150D01*
X9965649Y-12008150D02*
X9984697Y-12017674D01*
X9984697Y-12017674D02*
X9994221Y-12036722D01*
X9994221Y-12036722D02*
X9994221Y-12141484D01*
X9994221Y-12036722D02*
X10003745Y-12017674D01*
X10003745Y-12017674D02*
X10022792Y-12008150D01*
X10022792Y-12008150D02*
X10051364Y-12008150D01*
X10051364Y-12008150D02*
X10070411Y-12017674D01*
X10070411Y-12017674D02*
X10079935Y-12036722D01*
X10079935Y-12036722D02*
X10079935Y-12141484D01*
X10470411Y-11931960D02*
X10298983Y-12189103D01*
X10727554Y-11941484D02*
X10746602Y-11941484D01*
X10746602Y-11941484D02*
X10765649Y-11951008D01*
X10765649Y-11951008D02*
X10775173Y-11960531D01*
X10775173Y-11960531D02*
X10784697Y-11979579D01*
X10784697Y-11979579D02*
X10794221Y-12017674D01*
X10794221Y-12017674D02*
X10794221Y-12065293D01*
X10794221Y-12065293D02*
X10784697Y-12103388D01*
X10784697Y-12103388D02*
X10775173Y-12122436D01*
X10775173Y-12122436D02*
X10765649Y-12131960D01*
X10765649Y-12131960D02*
X10746602Y-12141484D01*
X10746602Y-12141484D02*
X10727554Y-12141484D01*
X10727554Y-12141484D02*
X10708507Y-12131960D01*
X10708507Y-12131960D02*
X10698983Y-12122436D01*
X10698983Y-12122436D02*
X10689459Y-12103388D01*
X10689459Y-12103388D02*
X10679935Y-12065293D01*
X10679935Y-12065293D02*
X10679935Y-12017674D01*
X10679935Y-12017674D02*
X10689459Y-11979579D01*
X10689459Y-11979579D02*
X10698983Y-11960531D01*
X10698983Y-11960531D02*
X10708507Y-11951008D01*
X10708507Y-11951008D02*
X10727554Y-11941484D01*
X10879935Y-12122436D02*
X10889459Y-12131960D01*
X10889459Y-12131960D02*
X10879935Y-12141484D01*
X10879935Y-12141484D02*
X10870411Y-12131960D01*
X10870411Y-12131960D02*
X10879935Y-12122436D01*
X10879935Y-12122436D02*
X10879935Y-12141484D01*
X11013268Y-11941484D02*
X11032316Y-11941484D01*
X11032316Y-11941484D02*
X11051364Y-11951008D01*
X11051364Y-11951008D02*
X11060888Y-11960531D01*
X11060888Y-11960531D02*
X11070411Y-11979579D01*
X11070411Y-11979579D02*
X11079935Y-12017674D01*
X11079935Y-12017674D02*
X11079935Y-12065293D01*
X11079935Y-12065293D02*
X11070411Y-12103388D01*
X11070411Y-12103388D02*
X11060888Y-12122436D01*
X11060888Y-12122436D02*
X11051364Y-12131960D01*
X11051364Y-12131960D02*
X11032316Y-12141484D01*
X11032316Y-12141484D02*
X11013268Y-12141484D01*
X11013268Y-12141484D02*
X10994221Y-12131960D01*
X10994221Y-12131960D02*
X10984697Y-12122436D01*
X10984697Y-12122436D02*
X10975173Y-12103388D01*
X10975173Y-12103388D02*
X10965649Y-12065293D01*
X10965649Y-12065293D02*
X10965649Y-12017674D01*
X10965649Y-12017674D02*
X10975173Y-11979579D01*
X10975173Y-11979579D02*
X10984697Y-11960531D01*
X10984697Y-11960531D02*
X10994221Y-11951008D01*
X10994221Y-11951008D02*
X11013268Y-11941484D01*
X11270411Y-12141484D02*
X11156126Y-12141484D01*
X11213268Y-12141484D02*
X11213268Y-11941484D01*
X11213268Y-11941484D02*
X11194221Y-11970055D01*
X11194221Y-11970055D02*
X11175173Y-11989103D01*
X11175173Y-11989103D02*
X11156126Y-11998627D01*
X11451364Y-11941484D02*
X11356126Y-11941484D01*
X11356126Y-11941484D02*
X11346602Y-12036722D01*
X11346602Y-12036722D02*
X11356126Y-12027198D01*
X11356126Y-12027198D02*
X11375173Y-12017674D01*
X11375173Y-12017674D02*
X11422792Y-12017674D01*
X11422792Y-12017674D02*
X11441840Y-12027198D01*
X11441840Y-12027198D02*
X11451364Y-12036722D01*
X11451364Y-12036722D02*
X11460887Y-12055769D01*
X11460887Y-12055769D02*
X11460887Y-12103388D01*
X11460887Y-12103388D02*
X11451364Y-12122436D01*
X11451364Y-12122436D02*
X11441840Y-12131960D01*
X11441840Y-12131960D02*
X11422792Y-12141484D01*
X11422792Y-12141484D02*
X11375173Y-12141484D01*
X11375173Y-12141484D02*
X11356126Y-12131960D01*
X11356126Y-12131960D02*
X11346602Y-12122436D01*
X11527554Y-11941484D02*
X11660887Y-11941484D01*
X11660887Y-11941484D02*
X11575173Y-12141484D01*
X11727554Y-11941484D02*
X11727554Y-11979579D01*
X11803745Y-11941484D02*
X11803745Y-11979579D01*
X12098983Y-12217674D02*
X12089459Y-12208150D01*
X12089459Y-12208150D02*
X12070411Y-12179579D01*
X12070411Y-12179579D02*
X12060888Y-12160531D01*
X12060888Y-12160531D02*
X12051364Y-12131960D01*
X12051364Y-12131960D02*
X12041840Y-12084341D01*
X12041840Y-12084341D02*
X12041840Y-12046246D01*
X12041840Y-12046246D02*
X12051364Y-11998627D01*
X12051364Y-11998627D02*
X12060888Y-11970055D01*
X12060888Y-11970055D02*
X12070411Y-11951008D01*
X12070411Y-11951008D02*
X12089459Y-11922436D01*
X12089459Y-11922436D02*
X12098983Y-11912912D01*
X12156126Y-11941484D02*
X12289459Y-11941484D01*
X12289459Y-11941484D02*
X12203745Y-12141484D01*
X12394221Y-12027198D02*
X12375173Y-12017674D01*
X12375173Y-12017674D02*
X12365649Y-12008150D01*
X12365649Y-12008150D02*
X12356126Y-11989103D01*
X12356126Y-11989103D02*
X12356126Y-11979579D01*
X12356126Y-11979579D02*
X12365649Y-11960531D01*
X12365649Y-11960531D02*
X12375173Y-11951008D01*
X12375173Y-11951008D02*
X12394221Y-11941484D01*
X12394221Y-11941484D02*
X12432316Y-11941484D01*
X12432316Y-11941484D02*
X12451364Y-11951008D01*
X12451364Y-11951008D02*
X12460888Y-11960531D01*
X12460888Y-11960531D02*
X12470411Y-11979579D01*
X12470411Y-11979579D02*
X12470411Y-11989103D01*
X12470411Y-11989103D02*
X12460888Y-12008150D01*
X12460888Y-12008150D02*
X12451364Y-12017674D01*
X12451364Y-12017674D02*
X12432316Y-12027198D01*
X12432316Y-12027198D02*
X12394221Y-12027198D01*
X12394221Y-12027198D02*
X12375173Y-12036722D01*
X12375173Y-12036722D02*
X12365649Y-12046246D01*
X12365649Y-12046246D02*
X12356126Y-12065293D01*
X12356126Y-12065293D02*
X12356126Y-12103388D01*
X12356126Y-12103388D02*
X12365649Y-12122436D01*
X12365649Y-12122436D02*
X12375173Y-12131960D01*
X12375173Y-12131960D02*
X12394221Y-12141484D01*
X12394221Y-12141484D02*
X12432316Y-12141484D01*
X12432316Y-12141484D02*
X12451364Y-12131960D01*
X12451364Y-12131960D02*
X12460888Y-12122436D01*
X12460888Y-12122436D02*
X12470411Y-12103388D01*
X12470411Y-12103388D02*
X12470411Y-12065293D01*
X12470411Y-12065293D02*
X12460888Y-12046246D01*
X12460888Y-12046246D02*
X12451364Y-12036722D01*
X12451364Y-12036722D02*
X12432316Y-12027198D01*
X12708507Y-12141484D02*
X12708507Y-11941484D01*
X12794221Y-12141484D02*
X12794221Y-12036722D01*
X12794221Y-12036722D02*
X12784697Y-12017674D01*
X12784697Y-12017674D02*
X12765650Y-12008150D01*
X12765650Y-12008150D02*
X12737078Y-12008150D01*
X12737078Y-12008150D02*
X12718030Y-12017674D01*
X12718030Y-12017674D02*
X12708507Y-12027198D01*
X12918030Y-12141484D02*
X12898983Y-12131960D01*
X12898983Y-12131960D02*
X12889459Y-12122436D01*
X12889459Y-12122436D02*
X12879935Y-12103388D01*
X12879935Y-12103388D02*
X12879935Y-12046246D01*
X12879935Y-12046246D02*
X12889459Y-12027198D01*
X12889459Y-12027198D02*
X12898983Y-12017674D01*
X12898983Y-12017674D02*
X12918030Y-12008150D01*
X12918030Y-12008150D02*
X12946602Y-12008150D01*
X12946602Y-12008150D02*
X12965650Y-12017674D01*
X12965650Y-12017674D02*
X12975173Y-12027198D01*
X12975173Y-12027198D02*
X12984697Y-12046246D01*
X12984697Y-12046246D02*
X12984697Y-12103388D01*
X12984697Y-12103388D02*
X12975173Y-12122436D01*
X12975173Y-12122436D02*
X12965650Y-12131960D01*
X12965650Y-12131960D02*
X12946602Y-12141484D01*
X12946602Y-12141484D02*
X12918030Y-12141484D01*
X13098983Y-12141484D02*
X13079935Y-12131960D01*
X13079935Y-12131960D02*
X13070411Y-12112912D01*
X13070411Y-12112912D02*
X13070411Y-11941484D01*
X13251364Y-12131960D02*
X13232316Y-12141484D01*
X13232316Y-12141484D02*
X13194221Y-12141484D01*
X13194221Y-12141484D02*
X13175173Y-12131960D01*
X13175173Y-12131960D02*
X13165650Y-12112912D01*
X13165650Y-12112912D02*
X13165650Y-12036722D01*
X13165650Y-12036722D02*
X13175173Y-12017674D01*
X13175173Y-12017674D02*
X13194221Y-12008150D01*
X13194221Y-12008150D02*
X13232316Y-12008150D01*
X13232316Y-12008150D02*
X13251364Y-12017674D01*
X13251364Y-12017674D02*
X13260888Y-12036722D01*
X13260888Y-12036722D02*
X13260888Y-12055769D01*
X13260888Y-12055769D02*
X13165650Y-12074817D01*
X13337078Y-12131960D02*
X13356126Y-12141484D01*
X13356126Y-12141484D02*
X13394221Y-12141484D01*
X13394221Y-12141484D02*
X13413269Y-12131960D01*
X13413269Y-12131960D02*
X13422792Y-12112912D01*
X13422792Y-12112912D02*
X13422792Y-12103388D01*
X13422792Y-12103388D02*
X13413269Y-12084341D01*
X13413269Y-12084341D02*
X13394221Y-12074817D01*
X13394221Y-12074817D02*
X13365650Y-12074817D01*
X13365650Y-12074817D02*
X13346602Y-12065293D01*
X13346602Y-12065293D02*
X13337078Y-12046246D01*
X13337078Y-12046246D02*
X13337078Y-12036722D01*
X13337078Y-12036722D02*
X13346602Y-12017674D01*
X13346602Y-12017674D02*
X13365650Y-12008150D01*
X13365650Y-12008150D02*
X13394221Y-12008150D01*
X13394221Y-12008150D02*
X13413269Y-12017674D01*
X13489459Y-12217674D02*
X13498983Y-12208150D01*
X13498983Y-12208150D02*
X13518031Y-12179579D01*
X13518031Y-12179579D02*
X13527554Y-12160531D01*
X13527554Y-12160531D02*
X13537078Y-12131960D01*
X13537078Y-12131960D02*
X13546602Y-12084341D01*
X13546602Y-12084341D02*
X13546602Y-12046246D01*
X13546602Y-12046246D02*
X13537078Y-11998627D01*
X13537078Y-11998627D02*
X13527554Y-11970055D01*
X13527554Y-11970055D02*
X13518031Y-11951008D01*
X13518031Y-11951008D02*
X13498983Y-11922436D01*
X13498983Y-11922436D02*
X13489459Y-11912912D01*
D10*
X8523920Y-12314000D02*
G75*
G02*
X8467920Y-12314000I-28000J0D01*
G01*
X8467920Y-12314000D02*
G75*
G02*
X8523920Y-12314000I28000J0D01*
G01*
D11*
X8822792Y-12205484D02*
X8841840Y-12205484D01*
X8841840Y-12205484D02*
X8860887Y-12215008D01*
X8860887Y-12215008D02*
X8870411Y-12224531D01*
X8870411Y-12224531D02*
X8879935Y-12243579D01*
X8879935Y-12243579D02*
X8889459Y-12281674D01*
X8889459Y-12281674D02*
X8889459Y-12329293D01*
X8889459Y-12329293D02*
X8879935Y-12367388D01*
X8879935Y-12367388D02*
X8870411Y-12386436D01*
X8870411Y-12386436D02*
X8860887Y-12395960D01*
X8860887Y-12395960D02*
X8841840Y-12405484D01*
X8841840Y-12405484D02*
X8822792Y-12405484D01*
X8822792Y-12405484D02*
X8803744Y-12395960D01*
X8803744Y-12395960D02*
X8794221Y-12386436D01*
X8794221Y-12386436D02*
X8784697Y-12367388D01*
X8784697Y-12367388D02*
X8775173Y-12329293D01*
X8775173Y-12329293D02*
X8775173Y-12281674D01*
X8775173Y-12281674D02*
X8784697Y-12243579D01*
X8784697Y-12243579D02*
X8794221Y-12224531D01*
X8794221Y-12224531D02*
X8803744Y-12215008D01*
X8803744Y-12215008D02*
X8822792Y-12205484D01*
X8975173Y-12386436D02*
X8984697Y-12395960D01*
X8984697Y-12395960D02*
X8975173Y-12405484D01*
X8975173Y-12405484D02*
X8965649Y-12395960D01*
X8965649Y-12395960D02*
X8975173Y-12386436D01*
X8975173Y-12386436D02*
X8975173Y-12405484D01*
X9165649Y-12205484D02*
X9070411Y-12205484D01*
X9070411Y-12205484D02*
X9060887Y-12300722D01*
X9060887Y-12300722D02*
X9070411Y-12291198D01*
X9070411Y-12291198D02*
X9089459Y-12281674D01*
X9089459Y-12281674D02*
X9137078Y-12281674D01*
X9137078Y-12281674D02*
X9156125Y-12291198D01*
X9156125Y-12291198D02*
X9165649Y-12300722D01*
X9165649Y-12300722D02*
X9175173Y-12319769D01*
X9175173Y-12319769D02*
X9175173Y-12367388D01*
X9175173Y-12367388D02*
X9165649Y-12386436D01*
X9165649Y-12386436D02*
X9156125Y-12395960D01*
X9156125Y-12395960D02*
X9137078Y-12405484D01*
X9137078Y-12405484D02*
X9089459Y-12405484D01*
X9089459Y-12405484D02*
X9070411Y-12395960D01*
X9070411Y-12395960D02*
X9060887Y-12386436D01*
X9346602Y-12205484D02*
X9308506Y-12205484D01*
X9308506Y-12205484D02*
X9289459Y-12215008D01*
X9289459Y-12215008D02*
X9279935Y-12224531D01*
X9279935Y-12224531D02*
X9260887Y-12253103D01*
X9260887Y-12253103D02*
X9251364Y-12291198D01*
X9251364Y-12291198D02*
X9251364Y-12367388D01*
X9251364Y-12367388D02*
X9260887Y-12386436D01*
X9260887Y-12386436D02*
X9270411Y-12395960D01*
X9270411Y-12395960D02*
X9289459Y-12405484D01*
X9289459Y-12405484D02*
X9327554Y-12405484D01*
X9327554Y-12405484D02*
X9346602Y-12395960D01*
X9346602Y-12395960D02*
X9356125Y-12386436D01*
X9356125Y-12386436D02*
X9365649Y-12367388D01*
X9365649Y-12367388D02*
X9365649Y-12319769D01*
X9365649Y-12319769D02*
X9356125Y-12300722D01*
X9356125Y-12300722D02*
X9346602Y-12291198D01*
X9346602Y-12291198D02*
X9327554Y-12281674D01*
X9327554Y-12281674D02*
X9289459Y-12281674D01*
X9289459Y-12281674D02*
X9270411Y-12291198D01*
X9270411Y-12291198D02*
X9260887Y-12300722D01*
X9260887Y-12300722D02*
X9251364Y-12319769D01*
X9489459Y-12205484D02*
X9508506Y-12205484D01*
X9508506Y-12205484D02*
X9527554Y-12215008D01*
X9527554Y-12215008D02*
X9537078Y-12224531D01*
X9537078Y-12224531D02*
X9546602Y-12243579D01*
X9546602Y-12243579D02*
X9556125Y-12281674D01*
X9556125Y-12281674D02*
X9556125Y-12329293D01*
X9556125Y-12329293D02*
X9546602Y-12367388D01*
X9546602Y-12367388D02*
X9537078Y-12386436D01*
X9537078Y-12386436D02*
X9527554Y-12395960D01*
X9527554Y-12395960D02*
X9508506Y-12405484D01*
X9508506Y-12405484D02*
X9489459Y-12405484D01*
X9489459Y-12405484D02*
X9470411Y-12395960D01*
X9470411Y-12395960D02*
X9460887Y-12386436D01*
X9460887Y-12386436D02*
X9451364Y-12367388D01*
X9451364Y-12367388D02*
X9441840Y-12329293D01*
X9441840Y-12329293D02*
X9441840Y-12281674D01*
X9441840Y-12281674D02*
X9451364Y-12243579D01*
X9451364Y-12243579D02*
X9460887Y-12224531D01*
X9460887Y-12224531D02*
X9470411Y-12215008D01*
X9470411Y-12215008D02*
X9489459Y-12205484D01*
X9641840Y-12405484D02*
X9641840Y-12272150D01*
X9641840Y-12291198D02*
X9651364Y-12281674D01*
X9651364Y-12281674D02*
X9670411Y-12272150D01*
X9670411Y-12272150D02*
X9698983Y-12272150D01*
X9698983Y-12272150D02*
X9718030Y-12281674D01*
X9718030Y-12281674D02*
X9727554Y-12300722D01*
X9727554Y-12300722D02*
X9727554Y-12405484D01*
X9727554Y-12300722D02*
X9737078Y-12281674D01*
X9737078Y-12281674D02*
X9756125Y-12272150D01*
X9756125Y-12272150D02*
X9784697Y-12272150D01*
X9784697Y-12272150D02*
X9803745Y-12281674D01*
X9803745Y-12281674D02*
X9813268Y-12300722D01*
X9813268Y-12300722D02*
X9813268Y-12405484D01*
X9908506Y-12405484D02*
X9908506Y-12272150D01*
X9908506Y-12291198D02*
X9918030Y-12281674D01*
X9918030Y-12281674D02*
X9937078Y-12272150D01*
X9937078Y-12272150D02*
X9965649Y-12272150D01*
X9965649Y-12272150D02*
X9984697Y-12281674D01*
X9984697Y-12281674D02*
X9994221Y-12300722D01*
X9994221Y-12300722D02*
X9994221Y-12405484D01*
X9994221Y-12300722D02*
X10003745Y-12281674D01*
X10003745Y-12281674D02*
X10022792Y-12272150D01*
X10022792Y-12272150D02*
X10051364Y-12272150D01*
X10051364Y-12272150D02*
X10070411Y-12281674D01*
X10070411Y-12281674D02*
X10079935Y-12300722D01*
X10079935Y-12300722D02*
X10079935Y-12405484D01*
X10470411Y-12195960D02*
X10298983Y-12453103D01*
X10727554Y-12205484D02*
X10746602Y-12205484D01*
X10746602Y-12205484D02*
X10765649Y-12215008D01*
X10765649Y-12215008D02*
X10775173Y-12224531D01*
X10775173Y-12224531D02*
X10784697Y-12243579D01*
X10784697Y-12243579D02*
X10794221Y-12281674D01*
X10794221Y-12281674D02*
X10794221Y-12329293D01*
X10794221Y-12329293D02*
X10784697Y-12367388D01*
X10784697Y-12367388D02*
X10775173Y-12386436D01*
X10775173Y-12386436D02*
X10765649Y-12395960D01*
X10765649Y-12395960D02*
X10746602Y-12405484D01*
X10746602Y-12405484D02*
X10727554Y-12405484D01*
X10727554Y-12405484D02*
X10708507Y-12395960D01*
X10708507Y-12395960D02*
X10698983Y-12386436D01*
X10698983Y-12386436D02*
X10689459Y-12367388D01*
X10689459Y-12367388D02*
X10679935Y-12329293D01*
X10679935Y-12329293D02*
X10679935Y-12281674D01*
X10679935Y-12281674D02*
X10689459Y-12243579D01*
X10689459Y-12243579D02*
X10698983Y-12224531D01*
X10698983Y-12224531D02*
X10708507Y-12215008D01*
X10708507Y-12215008D02*
X10727554Y-12205484D01*
X10879935Y-12386436D02*
X10889459Y-12395960D01*
X10889459Y-12395960D02*
X10879935Y-12405484D01*
X10879935Y-12405484D02*
X10870411Y-12395960D01*
X10870411Y-12395960D02*
X10879935Y-12386436D01*
X10879935Y-12386436D02*
X10879935Y-12405484D01*
X11013268Y-12205484D02*
X11032316Y-12205484D01*
X11032316Y-12205484D02*
X11051364Y-12215008D01*
X11051364Y-12215008D02*
X11060888Y-12224531D01*
X11060888Y-12224531D02*
X11070411Y-12243579D01*
X11070411Y-12243579D02*
X11079935Y-12281674D01*
X11079935Y-12281674D02*
X11079935Y-12329293D01*
X11079935Y-12329293D02*
X11070411Y-12367388D01*
X11070411Y-12367388D02*
X11060888Y-12386436D01*
X11060888Y-12386436D02*
X11051364Y-12395960D01*
X11051364Y-12395960D02*
X11032316Y-12405484D01*
X11032316Y-12405484D02*
X11013268Y-12405484D01*
X11013268Y-12405484D02*
X10994221Y-12395960D01*
X10994221Y-12395960D02*
X10984697Y-12386436D01*
X10984697Y-12386436D02*
X10975173Y-12367388D01*
X10975173Y-12367388D02*
X10965649Y-12329293D01*
X10965649Y-12329293D02*
X10965649Y-12281674D01*
X10965649Y-12281674D02*
X10975173Y-12243579D01*
X10975173Y-12243579D02*
X10984697Y-12224531D01*
X10984697Y-12224531D02*
X10994221Y-12215008D01*
X10994221Y-12215008D02*
X11013268Y-12205484D01*
X11156126Y-12224531D02*
X11165649Y-12215008D01*
X11165649Y-12215008D02*
X11184697Y-12205484D01*
X11184697Y-12205484D02*
X11232316Y-12205484D01*
X11232316Y-12205484D02*
X11251364Y-12215008D01*
X11251364Y-12215008D02*
X11260887Y-12224531D01*
X11260887Y-12224531D02*
X11270411Y-12243579D01*
X11270411Y-12243579D02*
X11270411Y-12262627D01*
X11270411Y-12262627D02*
X11260887Y-12291198D01*
X11260887Y-12291198D02*
X11146602Y-12405484D01*
X11146602Y-12405484D02*
X11270411Y-12405484D01*
X11346602Y-12224531D02*
X11356126Y-12215008D01*
X11356126Y-12215008D02*
X11375173Y-12205484D01*
X11375173Y-12205484D02*
X11422792Y-12205484D01*
X11422792Y-12205484D02*
X11441840Y-12215008D01*
X11441840Y-12215008D02*
X11451364Y-12224531D01*
X11451364Y-12224531D02*
X11460887Y-12243579D01*
X11460887Y-12243579D02*
X11460887Y-12262627D01*
X11460887Y-12262627D02*
X11451364Y-12291198D01*
X11451364Y-12291198D02*
X11337078Y-12405484D01*
X11337078Y-12405484D02*
X11460887Y-12405484D01*
X11584697Y-12205484D02*
X11603745Y-12205484D01*
X11603745Y-12205484D02*
X11622792Y-12215008D01*
X11622792Y-12215008D02*
X11632316Y-12224531D01*
X11632316Y-12224531D02*
X11641840Y-12243579D01*
X11641840Y-12243579D02*
X11651364Y-12281674D01*
X11651364Y-12281674D02*
X11651364Y-12329293D01*
X11651364Y-12329293D02*
X11641840Y-12367388D01*
X11641840Y-12367388D02*
X11632316Y-12386436D01*
X11632316Y-12386436D02*
X11622792Y-12395960D01*
X11622792Y-12395960D02*
X11603745Y-12405484D01*
X11603745Y-12405484D02*
X11584697Y-12405484D01*
X11584697Y-12405484D02*
X11565649Y-12395960D01*
X11565649Y-12395960D02*
X11556126Y-12386436D01*
X11556126Y-12386436D02*
X11546602Y-12367388D01*
X11546602Y-12367388D02*
X11537078Y-12329293D01*
X11537078Y-12329293D02*
X11537078Y-12281674D01*
X11537078Y-12281674D02*
X11546602Y-12243579D01*
X11546602Y-12243579D02*
X11556126Y-12224531D01*
X11556126Y-12224531D02*
X11565649Y-12215008D01*
X11565649Y-12215008D02*
X11584697Y-12205484D01*
X11727554Y-12205484D02*
X11727554Y-12243579D01*
X11803745Y-12205484D02*
X11803745Y-12243579D01*
X12098983Y-12481674D02*
X12089459Y-12472150D01*
X12089459Y-12472150D02*
X12070411Y-12443579D01*
X12070411Y-12443579D02*
X12060888Y-12424531D01*
X12060888Y-12424531D02*
X12051364Y-12395960D01*
X12051364Y-12395960D02*
X12041840Y-12348341D01*
X12041840Y-12348341D02*
X12041840Y-12310246D01*
X12041840Y-12310246D02*
X12051364Y-12262627D01*
X12051364Y-12262627D02*
X12060888Y-12234055D01*
X12060888Y-12234055D02*
X12070411Y-12215008D01*
X12070411Y-12215008D02*
X12089459Y-12186436D01*
X12089459Y-12186436D02*
X12098983Y-12176912D01*
X12165649Y-12224531D02*
X12175173Y-12215008D01*
X12175173Y-12215008D02*
X12194221Y-12205484D01*
X12194221Y-12205484D02*
X12241840Y-12205484D01*
X12241840Y-12205484D02*
X12260888Y-12215008D01*
X12260888Y-12215008D02*
X12270411Y-12224531D01*
X12270411Y-12224531D02*
X12279935Y-12243579D01*
X12279935Y-12243579D02*
X12279935Y-12262627D01*
X12279935Y-12262627D02*
X12270411Y-12291198D01*
X12270411Y-12291198D02*
X12156126Y-12405484D01*
X12156126Y-12405484D02*
X12279935Y-12405484D01*
X12518030Y-12405484D02*
X12518030Y-12205484D01*
X12603745Y-12405484D02*
X12603745Y-12300722D01*
X12603745Y-12300722D02*
X12594221Y-12281674D01*
X12594221Y-12281674D02*
X12575173Y-12272150D01*
X12575173Y-12272150D02*
X12546602Y-12272150D01*
X12546602Y-12272150D02*
X12527554Y-12281674D01*
X12527554Y-12281674D02*
X12518030Y-12291198D01*
X12727554Y-12405484D02*
X12708507Y-12395960D01*
X12708507Y-12395960D02*
X12698983Y-12386436D01*
X12698983Y-12386436D02*
X12689459Y-12367388D01*
X12689459Y-12367388D02*
X12689459Y-12310246D01*
X12689459Y-12310246D02*
X12698983Y-12291198D01*
X12698983Y-12291198D02*
X12708507Y-12281674D01*
X12708507Y-12281674D02*
X12727554Y-12272150D01*
X12727554Y-12272150D02*
X12756126Y-12272150D01*
X12756126Y-12272150D02*
X12775173Y-12281674D01*
X12775173Y-12281674D02*
X12784697Y-12291198D01*
X12784697Y-12291198D02*
X12794221Y-12310246D01*
X12794221Y-12310246D02*
X12794221Y-12367388D01*
X12794221Y-12367388D02*
X12784697Y-12386436D01*
X12784697Y-12386436D02*
X12775173Y-12395960D01*
X12775173Y-12395960D02*
X12756126Y-12405484D01*
X12756126Y-12405484D02*
X12727554Y-12405484D01*
X12908507Y-12405484D02*
X12889459Y-12395960D01*
X12889459Y-12395960D02*
X12879935Y-12376912D01*
X12879935Y-12376912D02*
X12879935Y-12205484D01*
X13060888Y-12395960D02*
X13041840Y-12405484D01*
X13041840Y-12405484D02*
X13003745Y-12405484D01*
X13003745Y-12405484D02*
X12984697Y-12395960D01*
X12984697Y-12395960D02*
X12975173Y-12376912D01*
X12975173Y-12376912D02*
X12975173Y-12300722D01*
X12975173Y-12300722D02*
X12984697Y-12281674D01*
X12984697Y-12281674D02*
X13003745Y-12272150D01*
X13003745Y-12272150D02*
X13041840Y-12272150D01*
X13041840Y-12272150D02*
X13060888Y-12281674D01*
X13060888Y-12281674D02*
X13070411Y-12300722D01*
X13070411Y-12300722D02*
X13070411Y-12319769D01*
X13070411Y-12319769D02*
X12975173Y-12338817D01*
X13146602Y-12395960D02*
X13165650Y-12405484D01*
X13165650Y-12405484D02*
X13203745Y-12405484D01*
X13203745Y-12405484D02*
X13222792Y-12395960D01*
X13222792Y-12395960D02*
X13232316Y-12376912D01*
X13232316Y-12376912D02*
X13232316Y-12367388D01*
X13232316Y-12367388D02*
X13222792Y-12348341D01*
X13222792Y-12348341D02*
X13203745Y-12338817D01*
X13203745Y-12338817D02*
X13175173Y-12338817D01*
X13175173Y-12338817D02*
X13156126Y-12329293D01*
X13156126Y-12329293D02*
X13146602Y-12310246D01*
X13146602Y-12310246D02*
X13146602Y-12300722D01*
X13146602Y-12300722D02*
X13156126Y-12281674D01*
X13156126Y-12281674D02*
X13175173Y-12272150D01*
X13175173Y-12272150D02*
X13203745Y-12272150D01*
X13203745Y-12272150D02*
X13222792Y-12281674D01*
X13298983Y-12481674D02*
X13308507Y-12472150D01*
X13308507Y-12472150D02*
X13327554Y-12443579D01*
X13327554Y-12443579D02*
X13337078Y-12424531D01*
X13337078Y-12424531D02*
X13346602Y-12395960D01*
X13346602Y-12395960D02*
X13356126Y-12348341D01*
X13356126Y-12348341D02*
X13356126Y-12310246D01*
X13356126Y-12310246D02*
X13346602Y-12262627D01*
X13346602Y-12262627D02*
X13337078Y-12234055D01*
X13337078Y-12234055D02*
X13327554Y-12215008D01*
X13327554Y-12215008D02*
X13308507Y-12186436D01*
X13308507Y-12186436D02*
X13298983Y-12176912D01*
D10*
X8493920Y-12548000D02*
X8493920Y-12608000D01*
X8463920Y-12578000D02*
X8523920Y-12578000D01*
D11*
X8822792Y-12469484D02*
X8841840Y-12469484D01*
X8841840Y-12469484D02*
X8860887Y-12479008D01*
X8860887Y-12479008D02*
X8870411Y-12488531D01*
X8870411Y-12488531D02*
X8879935Y-12507579D01*
X8879935Y-12507579D02*
X8889459Y-12545674D01*
X8889459Y-12545674D02*
X8889459Y-12593293D01*
X8889459Y-12593293D02*
X8879935Y-12631388D01*
X8879935Y-12631388D02*
X8870411Y-12650436D01*
X8870411Y-12650436D02*
X8860887Y-12659960D01*
X8860887Y-12659960D02*
X8841840Y-12669484D01*
X8841840Y-12669484D02*
X8822792Y-12669484D01*
X8822792Y-12669484D02*
X8803744Y-12659960D01*
X8803744Y-12659960D02*
X8794221Y-12650436D01*
X8794221Y-12650436D02*
X8784697Y-12631388D01*
X8784697Y-12631388D02*
X8775173Y-12593293D01*
X8775173Y-12593293D02*
X8775173Y-12545674D01*
X8775173Y-12545674D02*
X8784697Y-12507579D01*
X8784697Y-12507579D02*
X8794221Y-12488531D01*
X8794221Y-12488531D02*
X8803744Y-12479008D01*
X8803744Y-12479008D02*
X8822792Y-12469484D01*
X8975173Y-12650436D02*
X8984697Y-12659960D01*
X8984697Y-12659960D02*
X8975173Y-12669484D01*
X8975173Y-12669484D02*
X8965649Y-12659960D01*
X8965649Y-12659960D02*
X8975173Y-12650436D01*
X8975173Y-12650436D02*
X8975173Y-12669484D01*
X9156125Y-12469484D02*
X9118030Y-12469484D01*
X9118030Y-12469484D02*
X9098983Y-12479008D01*
X9098983Y-12479008D02*
X9089459Y-12488531D01*
X9089459Y-12488531D02*
X9070411Y-12517103D01*
X9070411Y-12517103D02*
X9060887Y-12555198D01*
X9060887Y-12555198D02*
X9060887Y-12631388D01*
X9060887Y-12631388D02*
X9070411Y-12650436D01*
X9070411Y-12650436D02*
X9079935Y-12659960D01*
X9079935Y-12659960D02*
X9098983Y-12669484D01*
X9098983Y-12669484D02*
X9137078Y-12669484D01*
X9137078Y-12669484D02*
X9156125Y-12659960D01*
X9156125Y-12659960D02*
X9165649Y-12650436D01*
X9165649Y-12650436D02*
X9175173Y-12631388D01*
X9175173Y-12631388D02*
X9175173Y-12583769D01*
X9175173Y-12583769D02*
X9165649Y-12564722D01*
X9165649Y-12564722D02*
X9156125Y-12555198D01*
X9156125Y-12555198D02*
X9137078Y-12545674D01*
X9137078Y-12545674D02*
X9098983Y-12545674D01*
X9098983Y-12545674D02*
X9079935Y-12555198D01*
X9079935Y-12555198D02*
X9070411Y-12564722D01*
X9070411Y-12564722D02*
X9060887Y-12583769D01*
X9298983Y-12469484D02*
X9318030Y-12469484D01*
X9318030Y-12469484D02*
X9337078Y-12479008D01*
X9337078Y-12479008D02*
X9346602Y-12488531D01*
X9346602Y-12488531D02*
X9356125Y-12507579D01*
X9356125Y-12507579D02*
X9365649Y-12545674D01*
X9365649Y-12545674D02*
X9365649Y-12593293D01*
X9365649Y-12593293D02*
X9356125Y-12631388D01*
X9356125Y-12631388D02*
X9346602Y-12650436D01*
X9346602Y-12650436D02*
X9337078Y-12659960D01*
X9337078Y-12659960D02*
X9318030Y-12669484D01*
X9318030Y-12669484D02*
X9298983Y-12669484D01*
X9298983Y-12669484D02*
X9279935Y-12659960D01*
X9279935Y-12659960D02*
X9270411Y-12650436D01*
X9270411Y-12650436D02*
X9260887Y-12631388D01*
X9260887Y-12631388D02*
X9251364Y-12593293D01*
X9251364Y-12593293D02*
X9251364Y-12545674D01*
X9251364Y-12545674D02*
X9260887Y-12507579D01*
X9260887Y-12507579D02*
X9270411Y-12488531D01*
X9270411Y-12488531D02*
X9279935Y-12479008D01*
X9279935Y-12479008D02*
X9298983Y-12469484D01*
X9489459Y-12469484D02*
X9508506Y-12469484D01*
X9508506Y-12469484D02*
X9527554Y-12479008D01*
X9527554Y-12479008D02*
X9537078Y-12488531D01*
X9537078Y-12488531D02*
X9546602Y-12507579D01*
X9546602Y-12507579D02*
X9556125Y-12545674D01*
X9556125Y-12545674D02*
X9556125Y-12593293D01*
X9556125Y-12593293D02*
X9546602Y-12631388D01*
X9546602Y-12631388D02*
X9537078Y-12650436D01*
X9537078Y-12650436D02*
X9527554Y-12659960D01*
X9527554Y-12659960D02*
X9508506Y-12669484D01*
X9508506Y-12669484D02*
X9489459Y-12669484D01*
X9489459Y-12669484D02*
X9470411Y-12659960D01*
X9470411Y-12659960D02*
X9460887Y-12650436D01*
X9460887Y-12650436D02*
X9451364Y-12631388D01*
X9451364Y-12631388D02*
X9441840Y-12593293D01*
X9441840Y-12593293D02*
X9441840Y-12545674D01*
X9441840Y-12545674D02*
X9451364Y-12507579D01*
X9451364Y-12507579D02*
X9460887Y-12488531D01*
X9460887Y-12488531D02*
X9470411Y-12479008D01*
X9470411Y-12479008D02*
X9489459Y-12469484D01*
X9641840Y-12669484D02*
X9641840Y-12536150D01*
X9641840Y-12555198D02*
X9651364Y-12545674D01*
X9651364Y-12545674D02*
X9670411Y-12536150D01*
X9670411Y-12536150D02*
X9698983Y-12536150D01*
X9698983Y-12536150D02*
X9718030Y-12545674D01*
X9718030Y-12545674D02*
X9727554Y-12564722D01*
X9727554Y-12564722D02*
X9727554Y-12669484D01*
X9727554Y-12564722D02*
X9737078Y-12545674D01*
X9737078Y-12545674D02*
X9756125Y-12536150D01*
X9756125Y-12536150D02*
X9784697Y-12536150D01*
X9784697Y-12536150D02*
X9803745Y-12545674D01*
X9803745Y-12545674D02*
X9813268Y-12564722D01*
X9813268Y-12564722D02*
X9813268Y-12669484D01*
X9908506Y-12669484D02*
X9908506Y-12536150D01*
X9908506Y-12555198D02*
X9918030Y-12545674D01*
X9918030Y-12545674D02*
X9937078Y-12536150D01*
X9937078Y-12536150D02*
X9965649Y-12536150D01*
X9965649Y-12536150D02*
X9984697Y-12545674D01*
X9984697Y-12545674D02*
X9994221Y-12564722D01*
X9994221Y-12564722D02*
X9994221Y-12669484D01*
X9994221Y-12564722D02*
X10003745Y-12545674D01*
X10003745Y-12545674D02*
X10022792Y-12536150D01*
X10022792Y-12536150D02*
X10051364Y-12536150D01*
X10051364Y-12536150D02*
X10070411Y-12545674D01*
X10070411Y-12545674D02*
X10079935Y-12564722D01*
X10079935Y-12564722D02*
X10079935Y-12669484D01*
X10470411Y-12459960D02*
X10298983Y-12717103D01*
X10727554Y-12469484D02*
X10746602Y-12469484D01*
X10746602Y-12469484D02*
X10765649Y-12479008D01*
X10765649Y-12479008D02*
X10775173Y-12488531D01*
X10775173Y-12488531D02*
X10784697Y-12507579D01*
X10784697Y-12507579D02*
X10794221Y-12545674D01*
X10794221Y-12545674D02*
X10794221Y-12593293D01*
X10794221Y-12593293D02*
X10784697Y-12631388D01*
X10784697Y-12631388D02*
X10775173Y-12650436D01*
X10775173Y-12650436D02*
X10765649Y-12659960D01*
X10765649Y-12659960D02*
X10746602Y-12669484D01*
X10746602Y-12669484D02*
X10727554Y-12669484D01*
X10727554Y-12669484D02*
X10708507Y-12659960D01*
X10708507Y-12659960D02*
X10698983Y-12650436D01*
X10698983Y-12650436D02*
X10689459Y-12631388D01*
X10689459Y-12631388D02*
X10679935Y-12593293D01*
X10679935Y-12593293D02*
X10679935Y-12545674D01*
X10679935Y-12545674D02*
X10689459Y-12507579D01*
X10689459Y-12507579D02*
X10698983Y-12488531D01*
X10698983Y-12488531D02*
X10708507Y-12479008D01*
X10708507Y-12479008D02*
X10727554Y-12469484D01*
X10879935Y-12650436D02*
X10889459Y-12659960D01*
X10889459Y-12659960D02*
X10879935Y-12669484D01*
X10879935Y-12669484D02*
X10870411Y-12659960D01*
X10870411Y-12659960D02*
X10879935Y-12650436D01*
X10879935Y-12650436D02*
X10879935Y-12669484D01*
X11013268Y-12469484D02*
X11032316Y-12469484D01*
X11032316Y-12469484D02*
X11051364Y-12479008D01*
X11051364Y-12479008D02*
X11060888Y-12488531D01*
X11060888Y-12488531D02*
X11070411Y-12507579D01*
X11070411Y-12507579D02*
X11079935Y-12545674D01*
X11079935Y-12545674D02*
X11079935Y-12593293D01*
X11079935Y-12593293D02*
X11070411Y-12631388D01*
X11070411Y-12631388D02*
X11060888Y-12650436D01*
X11060888Y-12650436D02*
X11051364Y-12659960D01*
X11051364Y-12659960D02*
X11032316Y-12669484D01*
X11032316Y-12669484D02*
X11013268Y-12669484D01*
X11013268Y-12669484D02*
X10994221Y-12659960D01*
X10994221Y-12659960D02*
X10984697Y-12650436D01*
X10984697Y-12650436D02*
X10975173Y-12631388D01*
X10975173Y-12631388D02*
X10965649Y-12593293D01*
X10965649Y-12593293D02*
X10965649Y-12545674D01*
X10965649Y-12545674D02*
X10975173Y-12507579D01*
X10975173Y-12507579D02*
X10984697Y-12488531D01*
X10984697Y-12488531D02*
X10994221Y-12479008D01*
X10994221Y-12479008D02*
X11013268Y-12469484D01*
X11156126Y-12488531D02*
X11165649Y-12479008D01*
X11165649Y-12479008D02*
X11184697Y-12469484D01*
X11184697Y-12469484D02*
X11232316Y-12469484D01*
X11232316Y-12469484D02*
X11251364Y-12479008D01*
X11251364Y-12479008D02*
X11260887Y-12488531D01*
X11260887Y-12488531D02*
X11270411Y-12507579D01*
X11270411Y-12507579D02*
X11270411Y-12526627D01*
X11270411Y-12526627D02*
X11260887Y-12555198D01*
X11260887Y-12555198D02*
X11146602Y-12669484D01*
X11146602Y-12669484D02*
X11270411Y-12669484D01*
X11337078Y-12469484D02*
X11460887Y-12469484D01*
X11460887Y-12469484D02*
X11394221Y-12545674D01*
X11394221Y-12545674D02*
X11422792Y-12545674D01*
X11422792Y-12545674D02*
X11441840Y-12555198D01*
X11441840Y-12555198D02*
X11451364Y-12564722D01*
X11451364Y-12564722D02*
X11460887Y-12583769D01*
X11460887Y-12583769D02*
X11460887Y-12631388D01*
X11460887Y-12631388D02*
X11451364Y-12650436D01*
X11451364Y-12650436D02*
X11441840Y-12659960D01*
X11441840Y-12659960D02*
X11422792Y-12669484D01*
X11422792Y-12669484D02*
X11365649Y-12669484D01*
X11365649Y-12669484D02*
X11346602Y-12659960D01*
X11346602Y-12659960D02*
X11337078Y-12650436D01*
X11632316Y-12469484D02*
X11594221Y-12469484D01*
X11594221Y-12469484D02*
X11575173Y-12479008D01*
X11575173Y-12479008D02*
X11565649Y-12488531D01*
X11565649Y-12488531D02*
X11546602Y-12517103D01*
X11546602Y-12517103D02*
X11537078Y-12555198D01*
X11537078Y-12555198D02*
X11537078Y-12631388D01*
X11537078Y-12631388D02*
X11546602Y-12650436D01*
X11546602Y-12650436D02*
X11556126Y-12659960D01*
X11556126Y-12659960D02*
X11575173Y-12669484D01*
X11575173Y-12669484D02*
X11613268Y-12669484D01*
X11613268Y-12669484D02*
X11632316Y-12659960D01*
X11632316Y-12659960D02*
X11641840Y-12650436D01*
X11641840Y-12650436D02*
X11651364Y-12631388D01*
X11651364Y-12631388D02*
X11651364Y-12583769D01*
X11651364Y-12583769D02*
X11641840Y-12564722D01*
X11641840Y-12564722D02*
X11632316Y-12555198D01*
X11632316Y-12555198D02*
X11613268Y-12545674D01*
X11613268Y-12545674D02*
X11575173Y-12545674D01*
X11575173Y-12545674D02*
X11556126Y-12555198D01*
X11556126Y-12555198D02*
X11546602Y-12564722D01*
X11546602Y-12564722D02*
X11537078Y-12583769D01*
X11727554Y-12469484D02*
X11727554Y-12507579D01*
X11803745Y-12469484D02*
X11803745Y-12507579D01*
X12098983Y-12745674D02*
X12089459Y-12736150D01*
X12089459Y-12736150D02*
X12070411Y-12707579D01*
X12070411Y-12707579D02*
X12060888Y-12688531D01*
X12060888Y-12688531D02*
X12051364Y-12659960D01*
X12051364Y-12659960D02*
X12041840Y-12612341D01*
X12041840Y-12612341D02*
X12041840Y-12574246D01*
X12041840Y-12574246D02*
X12051364Y-12526627D01*
X12051364Y-12526627D02*
X12060888Y-12498055D01*
X12060888Y-12498055D02*
X12070411Y-12479008D01*
X12070411Y-12479008D02*
X12089459Y-12450436D01*
X12089459Y-12450436D02*
X12098983Y-12440912D01*
X12213268Y-12469484D02*
X12232316Y-12469484D01*
X12232316Y-12469484D02*
X12251364Y-12479008D01*
X12251364Y-12479008D02*
X12260888Y-12488531D01*
X12260888Y-12488531D02*
X12270411Y-12507579D01*
X12270411Y-12507579D02*
X12279935Y-12545674D01*
X12279935Y-12545674D02*
X12279935Y-12593293D01*
X12279935Y-12593293D02*
X12270411Y-12631388D01*
X12270411Y-12631388D02*
X12260888Y-12650436D01*
X12260888Y-12650436D02*
X12251364Y-12659960D01*
X12251364Y-12659960D02*
X12232316Y-12669484D01*
X12232316Y-12669484D02*
X12213268Y-12669484D01*
X12213268Y-12669484D02*
X12194221Y-12659960D01*
X12194221Y-12659960D02*
X12184697Y-12650436D01*
X12184697Y-12650436D02*
X12175173Y-12631388D01*
X12175173Y-12631388D02*
X12165649Y-12593293D01*
X12165649Y-12593293D02*
X12165649Y-12545674D01*
X12165649Y-12545674D02*
X12175173Y-12507579D01*
X12175173Y-12507579D02*
X12184697Y-12488531D01*
X12184697Y-12488531D02*
X12194221Y-12479008D01*
X12194221Y-12479008D02*
X12213268Y-12469484D01*
X12518030Y-12669484D02*
X12518030Y-12469484D01*
X12603745Y-12669484D02*
X12603745Y-12564722D01*
X12603745Y-12564722D02*
X12594221Y-12545674D01*
X12594221Y-12545674D02*
X12575173Y-12536150D01*
X12575173Y-12536150D02*
X12546602Y-12536150D01*
X12546602Y-12536150D02*
X12527554Y-12545674D01*
X12527554Y-12545674D02*
X12518030Y-12555198D01*
X12727554Y-12669484D02*
X12708507Y-12659960D01*
X12708507Y-12659960D02*
X12698983Y-12650436D01*
X12698983Y-12650436D02*
X12689459Y-12631388D01*
X12689459Y-12631388D02*
X12689459Y-12574246D01*
X12689459Y-12574246D02*
X12698983Y-12555198D01*
X12698983Y-12555198D02*
X12708507Y-12545674D01*
X12708507Y-12545674D02*
X12727554Y-12536150D01*
X12727554Y-12536150D02*
X12756126Y-12536150D01*
X12756126Y-12536150D02*
X12775173Y-12545674D01*
X12775173Y-12545674D02*
X12784697Y-12555198D01*
X12784697Y-12555198D02*
X12794221Y-12574246D01*
X12794221Y-12574246D02*
X12794221Y-12631388D01*
X12794221Y-12631388D02*
X12784697Y-12650436D01*
X12784697Y-12650436D02*
X12775173Y-12659960D01*
X12775173Y-12659960D02*
X12756126Y-12669484D01*
X12756126Y-12669484D02*
X12727554Y-12669484D01*
X12908507Y-12669484D02*
X12889459Y-12659960D01*
X12889459Y-12659960D02*
X12879935Y-12640912D01*
X12879935Y-12640912D02*
X12879935Y-12469484D01*
X13060888Y-12659960D02*
X13041840Y-12669484D01*
X13041840Y-12669484D02*
X13003745Y-12669484D01*
X13003745Y-12669484D02*
X12984697Y-12659960D01*
X12984697Y-12659960D02*
X12975173Y-12640912D01*
X12975173Y-12640912D02*
X12975173Y-12564722D01*
X12975173Y-12564722D02*
X12984697Y-12545674D01*
X12984697Y-12545674D02*
X13003745Y-12536150D01*
X13003745Y-12536150D02*
X13041840Y-12536150D01*
X13041840Y-12536150D02*
X13060888Y-12545674D01*
X13060888Y-12545674D02*
X13070411Y-12564722D01*
X13070411Y-12564722D02*
X13070411Y-12583769D01*
X13070411Y-12583769D02*
X12975173Y-12602817D01*
X13146602Y-12659960D02*
X13165650Y-12669484D01*
X13165650Y-12669484D02*
X13203745Y-12669484D01*
X13203745Y-12669484D02*
X13222792Y-12659960D01*
X13222792Y-12659960D02*
X13232316Y-12640912D01*
X13232316Y-12640912D02*
X13232316Y-12631388D01*
X13232316Y-12631388D02*
X13222792Y-12612341D01*
X13222792Y-12612341D02*
X13203745Y-12602817D01*
X13203745Y-12602817D02*
X13175173Y-12602817D01*
X13175173Y-12602817D02*
X13156126Y-12593293D01*
X13156126Y-12593293D02*
X13146602Y-12574246D01*
X13146602Y-12574246D02*
X13146602Y-12564722D01*
X13146602Y-12564722D02*
X13156126Y-12545674D01*
X13156126Y-12545674D02*
X13175173Y-12536150D01*
X13175173Y-12536150D02*
X13203745Y-12536150D01*
X13203745Y-12536150D02*
X13222792Y-12545674D01*
X13470412Y-12593293D02*
X13622793Y-12593293D01*
X13546602Y-12669484D02*
X13546602Y-12517103D01*
X13956126Y-12536150D02*
X13956126Y-12669484D01*
X13908507Y-12459960D02*
X13860888Y-12602817D01*
X13860888Y-12602817D02*
X13984697Y-12602817D01*
X14203745Y-12659960D02*
X14222793Y-12669484D01*
X14222793Y-12669484D02*
X14260888Y-12669484D01*
X14260888Y-12669484D02*
X14279935Y-12659960D01*
X14279935Y-12659960D02*
X14289459Y-12640912D01*
X14289459Y-12640912D02*
X14289459Y-12631388D01*
X14289459Y-12631388D02*
X14279935Y-12612341D01*
X14279935Y-12612341D02*
X14260888Y-12602817D01*
X14260888Y-12602817D02*
X14232316Y-12602817D01*
X14232316Y-12602817D02*
X14213269Y-12593293D01*
X14213269Y-12593293D02*
X14203745Y-12574246D01*
X14203745Y-12574246D02*
X14203745Y-12564722D01*
X14203745Y-12564722D02*
X14213269Y-12545674D01*
X14213269Y-12545674D02*
X14232316Y-12536150D01*
X14232316Y-12536150D02*
X14260888Y-12536150D01*
X14260888Y-12536150D02*
X14279935Y-12545674D01*
X14403745Y-12669484D02*
X14384697Y-12659960D01*
X14384697Y-12659960D02*
X14375174Y-12640912D01*
X14375174Y-12640912D02*
X14375174Y-12469484D01*
X14508507Y-12669484D02*
X14489459Y-12659960D01*
X14489459Y-12659960D02*
X14479935Y-12650436D01*
X14479935Y-12650436D02*
X14470412Y-12631388D01*
X14470412Y-12631388D02*
X14470412Y-12574246D01*
X14470412Y-12574246D02*
X14479935Y-12555198D01*
X14479935Y-12555198D02*
X14489459Y-12545674D01*
X14489459Y-12545674D02*
X14508507Y-12536150D01*
X14508507Y-12536150D02*
X14537078Y-12536150D01*
X14537078Y-12536150D02*
X14556126Y-12545674D01*
X14556126Y-12545674D02*
X14565650Y-12555198D01*
X14565650Y-12555198D02*
X14575174Y-12574246D01*
X14575174Y-12574246D02*
X14575174Y-12631388D01*
X14575174Y-12631388D02*
X14565650Y-12650436D01*
X14565650Y-12650436D02*
X14556126Y-12659960D01*
X14556126Y-12659960D02*
X14537078Y-12669484D01*
X14537078Y-12669484D02*
X14508507Y-12669484D01*
X14632316Y-12536150D02*
X14708507Y-12536150D01*
X14660888Y-12469484D02*
X14660888Y-12640912D01*
X14660888Y-12640912D02*
X14670412Y-12659960D01*
X14670412Y-12659960D02*
X14689459Y-12669484D01*
X14689459Y-12669484D02*
X14708507Y-12669484D01*
X14765650Y-12659960D02*
X14784697Y-12669484D01*
X14784697Y-12669484D02*
X14822793Y-12669484D01*
X14822793Y-12669484D02*
X14841840Y-12659960D01*
X14841840Y-12659960D02*
X14851364Y-12640912D01*
X14851364Y-12640912D02*
X14851364Y-12631388D01*
X14851364Y-12631388D02*
X14841840Y-12612341D01*
X14841840Y-12612341D02*
X14822793Y-12602817D01*
X14822793Y-12602817D02*
X14794221Y-12602817D01*
X14794221Y-12602817D02*
X14775174Y-12593293D01*
X14775174Y-12593293D02*
X14765650Y-12574246D01*
X14765650Y-12574246D02*
X14765650Y-12564722D01*
X14765650Y-12564722D02*
X14775174Y-12545674D01*
X14775174Y-12545674D02*
X14794221Y-12536150D01*
X14794221Y-12536150D02*
X14822793Y-12536150D01*
X14822793Y-12536150D02*
X14841840Y-12545674D01*
X14918031Y-12745674D02*
X14927555Y-12736150D01*
X14927555Y-12736150D02*
X14946602Y-12707579D01*
X14946602Y-12707579D02*
X14956126Y-12688531D01*
X14956126Y-12688531D02*
X14965650Y-12659960D01*
X14965650Y-12659960D02*
X14975174Y-12612341D01*
X14975174Y-12612341D02*
X14975174Y-12574246D01*
X14975174Y-12574246D02*
X14965650Y-12526627D01*
X14965650Y-12526627D02*
X14956126Y-12498055D01*
X14956126Y-12498055D02*
X14946602Y-12479008D01*
X14946602Y-12479008D02*
X14927555Y-12450436D01*
X14927555Y-12450436D02*
X14918031Y-12440912D01*
D10*
X8509276Y-12877356D02*
X8509276Y-12806644D01*
X8438564Y-12806644D01*
X8438564Y-12877356D01*
X8509276Y-12877356D01*
D11*
X8889459Y-12933484D02*
X8775173Y-12933484D01*
X8832316Y-12933484D02*
X8832316Y-12733484D01*
X8832316Y-12733484D02*
X8813268Y-12762055D01*
X8813268Y-12762055D02*
X8794221Y-12781103D01*
X8794221Y-12781103D02*
X8775173Y-12790627D01*
X8975173Y-12914436D02*
X8984697Y-12923960D01*
X8984697Y-12923960D02*
X8975173Y-12933484D01*
X8975173Y-12933484D02*
X8965649Y-12923960D01*
X8965649Y-12923960D02*
X8975173Y-12914436D01*
X8975173Y-12914436D02*
X8975173Y-12933484D01*
X9108506Y-12733484D02*
X9127554Y-12733484D01*
X9127554Y-12733484D02*
X9146602Y-12743008D01*
X9146602Y-12743008D02*
X9156125Y-12752531D01*
X9156125Y-12752531D02*
X9165649Y-12771579D01*
X9165649Y-12771579D02*
X9175173Y-12809674D01*
X9175173Y-12809674D02*
X9175173Y-12857293D01*
X9175173Y-12857293D02*
X9165649Y-12895388D01*
X9165649Y-12895388D02*
X9156125Y-12914436D01*
X9156125Y-12914436D02*
X9146602Y-12923960D01*
X9146602Y-12923960D02*
X9127554Y-12933484D01*
X9127554Y-12933484D02*
X9108506Y-12933484D01*
X9108506Y-12933484D02*
X9089459Y-12923960D01*
X9089459Y-12923960D02*
X9079935Y-12914436D01*
X9079935Y-12914436D02*
X9070411Y-12895388D01*
X9070411Y-12895388D02*
X9060887Y-12857293D01*
X9060887Y-12857293D02*
X9060887Y-12809674D01*
X9060887Y-12809674D02*
X9070411Y-12771579D01*
X9070411Y-12771579D02*
X9079935Y-12752531D01*
X9079935Y-12752531D02*
X9089459Y-12743008D01*
X9089459Y-12743008D02*
X9108506Y-12733484D01*
X9298983Y-12733484D02*
X9318030Y-12733484D01*
X9318030Y-12733484D02*
X9337078Y-12743008D01*
X9337078Y-12743008D02*
X9346602Y-12752531D01*
X9346602Y-12752531D02*
X9356125Y-12771579D01*
X9356125Y-12771579D02*
X9365649Y-12809674D01*
X9365649Y-12809674D02*
X9365649Y-12857293D01*
X9365649Y-12857293D02*
X9356125Y-12895388D01*
X9356125Y-12895388D02*
X9346602Y-12914436D01*
X9346602Y-12914436D02*
X9337078Y-12923960D01*
X9337078Y-12923960D02*
X9318030Y-12933484D01*
X9318030Y-12933484D02*
X9298983Y-12933484D01*
X9298983Y-12933484D02*
X9279935Y-12923960D01*
X9279935Y-12923960D02*
X9270411Y-12914436D01*
X9270411Y-12914436D02*
X9260887Y-12895388D01*
X9260887Y-12895388D02*
X9251364Y-12857293D01*
X9251364Y-12857293D02*
X9251364Y-12809674D01*
X9251364Y-12809674D02*
X9260887Y-12771579D01*
X9260887Y-12771579D02*
X9270411Y-12752531D01*
X9270411Y-12752531D02*
X9279935Y-12743008D01*
X9279935Y-12743008D02*
X9298983Y-12733484D01*
X9489459Y-12733484D02*
X9508506Y-12733484D01*
X9508506Y-12733484D02*
X9527554Y-12743008D01*
X9527554Y-12743008D02*
X9537078Y-12752531D01*
X9537078Y-12752531D02*
X9546602Y-12771579D01*
X9546602Y-12771579D02*
X9556125Y-12809674D01*
X9556125Y-12809674D02*
X9556125Y-12857293D01*
X9556125Y-12857293D02*
X9546602Y-12895388D01*
X9546602Y-12895388D02*
X9537078Y-12914436D01*
X9537078Y-12914436D02*
X9527554Y-12923960D01*
X9527554Y-12923960D02*
X9508506Y-12933484D01*
X9508506Y-12933484D02*
X9489459Y-12933484D01*
X9489459Y-12933484D02*
X9470411Y-12923960D01*
X9470411Y-12923960D02*
X9460887Y-12914436D01*
X9460887Y-12914436D02*
X9451364Y-12895388D01*
X9451364Y-12895388D02*
X9441840Y-12857293D01*
X9441840Y-12857293D02*
X9441840Y-12809674D01*
X9441840Y-12809674D02*
X9451364Y-12771579D01*
X9451364Y-12771579D02*
X9460887Y-12752531D01*
X9460887Y-12752531D02*
X9470411Y-12743008D01*
X9470411Y-12743008D02*
X9489459Y-12733484D01*
X9641840Y-12933484D02*
X9641840Y-12800150D01*
X9641840Y-12819198D02*
X9651364Y-12809674D01*
X9651364Y-12809674D02*
X9670411Y-12800150D01*
X9670411Y-12800150D02*
X9698983Y-12800150D01*
X9698983Y-12800150D02*
X9718030Y-12809674D01*
X9718030Y-12809674D02*
X9727554Y-12828722D01*
X9727554Y-12828722D02*
X9727554Y-12933484D01*
X9727554Y-12828722D02*
X9737078Y-12809674D01*
X9737078Y-12809674D02*
X9756125Y-12800150D01*
X9756125Y-12800150D02*
X9784697Y-12800150D01*
X9784697Y-12800150D02*
X9803745Y-12809674D01*
X9803745Y-12809674D02*
X9813268Y-12828722D01*
X9813268Y-12828722D02*
X9813268Y-12933484D01*
X9908506Y-12933484D02*
X9908506Y-12800150D01*
X9908506Y-12819198D02*
X9918030Y-12809674D01*
X9918030Y-12809674D02*
X9937078Y-12800150D01*
X9937078Y-12800150D02*
X9965649Y-12800150D01*
X9965649Y-12800150D02*
X9984697Y-12809674D01*
X9984697Y-12809674D02*
X9994221Y-12828722D01*
X9994221Y-12828722D02*
X9994221Y-12933484D01*
X9994221Y-12828722D02*
X10003745Y-12809674D01*
X10003745Y-12809674D02*
X10022792Y-12800150D01*
X10022792Y-12800150D02*
X10051364Y-12800150D01*
X10051364Y-12800150D02*
X10070411Y-12809674D01*
X10070411Y-12809674D02*
X10079935Y-12828722D01*
X10079935Y-12828722D02*
X10079935Y-12933484D01*
X10470411Y-12723960D02*
X10298983Y-12981103D01*
X10727554Y-12733484D02*
X10746602Y-12733484D01*
X10746602Y-12733484D02*
X10765649Y-12743008D01*
X10765649Y-12743008D02*
X10775173Y-12752531D01*
X10775173Y-12752531D02*
X10784697Y-12771579D01*
X10784697Y-12771579D02*
X10794221Y-12809674D01*
X10794221Y-12809674D02*
X10794221Y-12857293D01*
X10794221Y-12857293D02*
X10784697Y-12895388D01*
X10784697Y-12895388D02*
X10775173Y-12914436D01*
X10775173Y-12914436D02*
X10765649Y-12923960D01*
X10765649Y-12923960D02*
X10746602Y-12933484D01*
X10746602Y-12933484D02*
X10727554Y-12933484D01*
X10727554Y-12933484D02*
X10708507Y-12923960D01*
X10708507Y-12923960D02*
X10698983Y-12914436D01*
X10698983Y-12914436D02*
X10689459Y-12895388D01*
X10689459Y-12895388D02*
X10679935Y-12857293D01*
X10679935Y-12857293D02*
X10679935Y-12809674D01*
X10679935Y-12809674D02*
X10689459Y-12771579D01*
X10689459Y-12771579D02*
X10698983Y-12752531D01*
X10698983Y-12752531D02*
X10708507Y-12743008D01*
X10708507Y-12743008D02*
X10727554Y-12733484D01*
X10879935Y-12914436D02*
X10889459Y-12923960D01*
X10889459Y-12923960D02*
X10879935Y-12933484D01*
X10879935Y-12933484D02*
X10870411Y-12923960D01*
X10870411Y-12923960D02*
X10879935Y-12914436D01*
X10879935Y-12914436D02*
X10879935Y-12933484D01*
X11013268Y-12733484D02*
X11032316Y-12733484D01*
X11032316Y-12733484D02*
X11051364Y-12743008D01*
X11051364Y-12743008D02*
X11060888Y-12752531D01*
X11060888Y-12752531D02*
X11070411Y-12771579D01*
X11070411Y-12771579D02*
X11079935Y-12809674D01*
X11079935Y-12809674D02*
X11079935Y-12857293D01*
X11079935Y-12857293D02*
X11070411Y-12895388D01*
X11070411Y-12895388D02*
X11060888Y-12914436D01*
X11060888Y-12914436D02*
X11051364Y-12923960D01*
X11051364Y-12923960D02*
X11032316Y-12933484D01*
X11032316Y-12933484D02*
X11013268Y-12933484D01*
X11013268Y-12933484D02*
X10994221Y-12923960D01*
X10994221Y-12923960D02*
X10984697Y-12914436D01*
X10984697Y-12914436D02*
X10975173Y-12895388D01*
X10975173Y-12895388D02*
X10965649Y-12857293D01*
X10965649Y-12857293D02*
X10965649Y-12809674D01*
X10965649Y-12809674D02*
X10975173Y-12771579D01*
X10975173Y-12771579D02*
X10984697Y-12752531D01*
X10984697Y-12752531D02*
X10994221Y-12743008D01*
X10994221Y-12743008D02*
X11013268Y-12733484D01*
X11146602Y-12733484D02*
X11270411Y-12733484D01*
X11270411Y-12733484D02*
X11203745Y-12809674D01*
X11203745Y-12809674D02*
X11232316Y-12809674D01*
X11232316Y-12809674D02*
X11251364Y-12819198D01*
X11251364Y-12819198D02*
X11260887Y-12828722D01*
X11260887Y-12828722D02*
X11270411Y-12847769D01*
X11270411Y-12847769D02*
X11270411Y-12895388D01*
X11270411Y-12895388D02*
X11260887Y-12914436D01*
X11260887Y-12914436D02*
X11251364Y-12923960D01*
X11251364Y-12923960D02*
X11232316Y-12933484D01*
X11232316Y-12933484D02*
X11175173Y-12933484D01*
X11175173Y-12933484D02*
X11156126Y-12923960D01*
X11156126Y-12923960D02*
X11146602Y-12914436D01*
X11365649Y-12933484D02*
X11403745Y-12933484D01*
X11403745Y-12933484D02*
X11422792Y-12923960D01*
X11422792Y-12923960D02*
X11432316Y-12914436D01*
X11432316Y-12914436D02*
X11451364Y-12885865D01*
X11451364Y-12885865D02*
X11460887Y-12847769D01*
X11460887Y-12847769D02*
X11460887Y-12771579D01*
X11460887Y-12771579D02*
X11451364Y-12752531D01*
X11451364Y-12752531D02*
X11441840Y-12743008D01*
X11441840Y-12743008D02*
X11422792Y-12733484D01*
X11422792Y-12733484D02*
X11384697Y-12733484D01*
X11384697Y-12733484D02*
X11365649Y-12743008D01*
X11365649Y-12743008D02*
X11356126Y-12752531D01*
X11356126Y-12752531D02*
X11346602Y-12771579D01*
X11346602Y-12771579D02*
X11346602Y-12819198D01*
X11346602Y-12819198D02*
X11356126Y-12838246D01*
X11356126Y-12838246D02*
X11365649Y-12847769D01*
X11365649Y-12847769D02*
X11384697Y-12857293D01*
X11384697Y-12857293D02*
X11422792Y-12857293D01*
X11422792Y-12857293D02*
X11441840Y-12847769D01*
X11441840Y-12847769D02*
X11451364Y-12838246D01*
X11451364Y-12838246D02*
X11460887Y-12819198D01*
X11632316Y-12800150D02*
X11632316Y-12933484D01*
X11584697Y-12723960D02*
X11537078Y-12866817D01*
X11537078Y-12866817D02*
X11660887Y-12866817D01*
X11727554Y-12733484D02*
X11727554Y-12771579D01*
X11803745Y-12733484D02*
X11803745Y-12771579D01*
X12098983Y-13009674D02*
X12089459Y-13000150D01*
X12089459Y-13000150D02*
X12070411Y-12971579D01*
X12070411Y-12971579D02*
X12060888Y-12952531D01*
X12060888Y-12952531D02*
X12051364Y-12923960D01*
X12051364Y-12923960D02*
X12041840Y-12876341D01*
X12041840Y-12876341D02*
X12041840Y-12838246D01*
X12041840Y-12838246D02*
X12051364Y-12790627D01*
X12051364Y-12790627D02*
X12060888Y-12762055D01*
X12060888Y-12762055D02*
X12070411Y-12743008D01*
X12070411Y-12743008D02*
X12089459Y-12714436D01*
X12089459Y-12714436D02*
X12098983Y-12704912D01*
X12203745Y-12819198D02*
X12184697Y-12809674D01*
X12184697Y-12809674D02*
X12175173Y-12800150D01*
X12175173Y-12800150D02*
X12165649Y-12781103D01*
X12165649Y-12781103D02*
X12165649Y-12771579D01*
X12165649Y-12771579D02*
X12175173Y-12752531D01*
X12175173Y-12752531D02*
X12184697Y-12743008D01*
X12184697Y-12743008D02*
X12203745Y-12733484D01*
X12203745Y-12733484D02*
X12241840Y-12733484D01*
X12241840Y-12733484D02*
X12260888Y-12743008D01*
X12260888Y-12743008D02*
X12270411Y-12752531D01*
X12270411Y-12752531D02*
X12279935Y-12771579D01*
X12279935Y-12771579D02*
X12279935Y-12781103D01*
X12279935Y-12781103D02*
X12270411Y-12800150D01*
X12270411Y-12800150D02*
X12260888Y-12809674D01*
X12260888Y-12809674D02*
X12241840Y-12819198D01*
X12241840Y-12819198D02*
X12203745Y-12819198D01*
X12203745Y-12819198D02*
X12184697Y-12828722D01*
X12184697Y-12828722D02*
X12175173Y-12838246D01*
X12175173Y-12838246D02*
X12165649Y-12857293D01*
X12165649Y-12857293D02*
X12165649Y-12895388D01*
X12165649Y-12895388D02*
X12175173Y-12914436D01*
X12175173Y-12914436D02*
X12184697Y-12923960D01*
X12184697Y-12923960D02*
X12203745Y-12933484D01*
X12203745Y-12933484D02*
X12241840Y-12933484D01*
X12241840Y-12933484D02*
X12260888Y-12923960D01*
X12260888Y-12923960D02*
X12270411Y-12914436D01*
X12270411Y-12914436D02*
X12279935Y-12895388D01*
X12279935Y-12895388D02*
X12279935Y-12857293D01*
X12279935Y-12857293D02*
X12270411Y-12838246D01*
X12270411Y-12838246D02*
X12260888Y-12828722D01*
X12260888Y-12828722D02*
X12241840Y-12819198D01*
X12518030Y-12933484D02*
X12518030Y-12733484D01*
X12603745Y-12933484D02*
X12603745Y-12828722D01*
X12603745Y-12828722D02*
X12594221Y-12809674D01*
X12594221Y-12809674D02*
X12575173Y-12800150D01*
X12575173Y-12800150D02*
X12546602Y-12800150D01*
X12546602Y-12800150D02*
X12527554Y-12809674D01*
X12527554Y-12809674D02*
X12518030Y-12819198D01*
X12727554Y-12933484D02*
X12708507Y-12923960D01*
X12708507Y-12923960D02*
X12698983Y-12914436D01*
X12698983Y-12914436D02*
X12689459Y-12895388D01*
X12689459Y-12895388D02*
X12689459Y-12838246D01*
X12689459Y-12838246D02*
X12698983Y-12819198D01*
X12698983Y-12819198D02*
X12708507Y-12809674D01*
X12708507Y-12809674D02*
X12727554Y-12800150D01*
X12727554Y-12800150D02*
X12756126Y-12800150D01*
X12756126Y-12800150D02*
X12775173Y-12809674D01*
X12775173Y-12809674D02*
X12784697Y-12819198D01*
X12784697Y-12819198D02*
X12794221Y-12838246D01*
X12794221Y-12838246D02*
X12794221Y-12895388D01*
X12794221Y-12895388D02*
X12784697Y-12914436D01*
X12784697Y-12914436D02*
X12775173Y-12923960D01*
X12775173Y-12923960D02*
X12756126Y-12933484D01*
X12756126Y-12933484D02*
X12727554Y-12933484D01*
X12908507Y-12933484D02*
X12889459Y-12923960D01*
X12889459Y-12923960D02*
X12879935Y-12904912D01*
X12879935Y-12904912D02*
X12879935Y-12733484D01*
X13060888Y-12923960D02*
X13041840Y-12933484D01*
X13041840Y-12933484D02*
X13003745Y-12933484D01*
X13003745Y-12933484D02*
X12984697Y-12923960D01*
X12984697Y-12923960D02*
X12975173Y-12904912D01*
X12975173Y-12904912D02*
X12975173Y-12828722D01*
X12975173Y-12828722D02*
X12984697Y-12809674D01*
X12984697Y-12809674D02*
X13003745Y-12800150D01*
X13003745Y-12800150D02*
X13041840Y-12800150D01*
X13041840Y-12800150D02*
X13060888Y-12809674D01*
X13060888Y-12809674D02*
X13070411Y-12828722D01*
X13070411Y-12828722D02*
X13070411Y-12847769D01*
X13070411Y-12847769D02*
X12975173Y-12866817D01*
X13146602Y-12923960D02*
X13165650Y-12933484D01*
X13165650Y-12933484D02*
X13203745Y-12933484D01*
X13203745Y-12933484D02*
X13222792Y-12923960D01*
X13222792Y-12923960D02*
X13232316Y-12904912D01*
X13232316Y-12904912D02*
X13232316Y-12895388D01*
X13232316Y-12895388D02*
X13222792Y-12876341D01*
X13222792Y-12876341D02*
X13203745Y-12866817D01*
X13203745Y-12866817D02*
X13175173Y-12866817D01*
X13175173Y-12866817D02*
X13156126Y-12857293D01*
X13156126Y-12857293D02*
X13146602Y-12838246D01*
X13146602Y-12838246D02*
X13146602Y-12828722D01*
X13146602Y-12828722D02*
X13156126Y-12809674D01*
X13156126Y-12809674D02*
X13175173Y-12800150D01*
X13175173Y-12800150D02*
X13203745Y-12800150D01*
X13203745Y-12800150D02*
X13222792Y-12809674D01*
X13298983Y-13009674D02*
X13308507Y-13000150D01*
X13308507Y-13000150D02*
X13327554Y-12971579D01*
X13327554Y-12971579D02*
X13337078Y-12952531D01*
X13337078Y-12952531D02*
X13346602Y-12923960D01*
X13346602Y-12923960D02*
X13356126Y-12876341D01*
X13356126Y-12876341D02*
X13356126Y-12838246D01*
X13356126Y-12838246D02*
X13346602Y-12790627D01*
X13346602Y-12790627D02*
X13337078Y-12762055D01*
X13337078Y-12762055D02*
X13327554Y-12743008D01*
X13327554Y-12743008D02*
X13308507Y-12714436D01*
X13308507Y-12714436D02*
X13298983Y-12704912D01*
D12*
X8438920Y-13191000D02*
X8523920Y-13106000D01*
X8438920Y-13021000D01*
X8353920Y-13106000D01*
X8438920Y-13191000D01*
D11*
X8889459Y-13197484D02*
X8775173Y-13197484D01*
X8832316Y-13197484D02*
X8832316Y-12997484D01*
X8832316Y-12997484D02*
X8813268Y-13026055D01*
X8813268Y-13026055D02*
X8794221Y-13045103D01*
X8794221Y-13045103D02*
X8775173Y-13054627D01*
X8975173Y-13178436D02*
X8984697Y-13187960D01*
X8984697Y-13187960D02*
X8975173Y-13197484D01*
X8975173Y-13197484D02*
X8965649Y-13187960D01*
X8965649Y-13187960D02*
X8975173Y-13178436D01*
X8975173Y-13178436D02*
X8975173Y-13197484D01*
X9051364Y-12997484D02*
X9184697Y-12997484D01*
X9184697Y-12997484D02*
X9098983Y-13197484D01*
X9298983Y-12997484D02*
X9318030Y-12997484D01*
X9318030Y-12997484D02*
X9337078Y-13007008D01*
X9337078Y-13007008D02*
X9346602Y-13016531D01*
X9346602Y-13016531D02*
X9356125Y-13035579D01*
X9356125Y-13035579D02*
X9365649Y-13073674D01*
X9365649Y-13073674D02*
X9365649Y-13121293D01*
X9365649Y-13121293D02*
X9356125Y-13159388D01*
X9356125Y-13159388D02*
X9346602Y-13178436D01*
X9346602Y-13178436D02*
X9337078Y-13187960D01*
X9337078Y-13187960D02*
X9318030Y-13197484D01*
X9318030Y-13197484D02*
X9298983Y-13197484D01*
X9298983Y-13197484D02*
X9279935Y-13187960D01*
X9279935Y-13187960D02*
X9270411Y-13178436D01*
X9270411Y-13178436D02*
X9260887Y-13159388D01*
X9260887Y-13159388D02*
X9251364Y-13121293D01*
X9251364Y-13121293D02*
X9251364Y-13073674D01*
X9251364Y-13073674D02*
X9260887Y-13035579D01*
X9260887Y-13035579D02*
X9270411Y-13016531D01*
X9270411Y-13016531D02*
X9279935Y-13007008D01*
X9279935Y-13007008D02*
X9298983Y-12997484D01*
X9489459Y-12997484D02*
X9508506Y-12997484D01*
X9508506Y-12997484D02*
X9527554Y-13007008D01*
X9527554Y-13007008D02*
X9537078Y-13016531D01*
X9537078Y-13016531D02*
X9546602Y-13035579D01*
X9546602Y-13035579D02*
X9556125Y-13073674D01*
X9556125Y-13073674D02*
X9556125Y-13121293D01*
X9556125Y-13121293D02*
X9546602Y-13159388D01*
X9546602Y-13159388D02*
X9537078Y-13178436D01*
X9537078Y-13178436D02*
X9527554Y-13187960D01*
X9527554Y-13187960D02*
X9508506Y-13197484D01*
X9508506Y-13197484D02*
X9489459Y-13197484D01*
X9489459Y-13197484D02*
X9470411Y-13187960D01*
X9470411Y-13187960D02*
X9460887Y-13178436D01*
X9460887Y-13178436D02*
X9451364Y-13159388D01*
X9451364Y-13159388D02*
X9441840Y-13121293D01*
X9441840Y-13121293D02*
X9441840Y-13073674D01*
X9441840Y-13073674D02*
X9451364Y-13035579D01*
X9451364Y-13035579D02*
X9460887Y-13016531D01*
X9460887Y-13016531D02*
X9470411Y-13007008D01*
X9470411Y-13007008D02*
X9489459Y-12997484D01*
X9641840Y-13197484D02*
X9641840Y-13064150D01*
X9641840Y-13083198D02*
X9651364Y-13073674D01*
X9651364Y-13073674D02*
X9670411Y-13064150D01*
X9670411Y-13064150D02*
X9698983Y-13064150D01*
X9698983Y-13064150D02*
X9718030Y-13073674D01*
X9718030Y-13073674D02*
X9727554Y-13092722D01*
X9727554Y-13092722D02*
X9727554Y-13197484D01*
X9727554Y-13092722D02*
X9737078Y-13073674D01*
X9737078Y-13073674D02*
X9756125Y-13064150D01*
X9756125Y-13064150D02*
X9784697Y-13064150D01*
X9784697Y-13064150D02*
X9803745Y-13073674D01*
X9803745Y-13073674D02*
X9813268Y-13092722D01*
X9813268Y-13092722D02*
X9813268Y-13197484D01*
X9908506Y-13197484D02*
X9908506Y-13064150D01*
X9908506Y-13083198D02*
X9918030Y-13073674D01*
X9918030Y-13073674D02*
X9937078Y-13064150D01*
X9937078Y-13064150D02*
X9965649Y-13064150D01*
X9965649Y-13064150D02*
X9984697Y-13073674D01*
X9984697Y-13073674D02*
X9994221Y-13092722D01*
X9994221Y-13092722D02*
X9994221Y-13197484D01*
X9994221Y-13092722D02*
X10003745Y-13073674D01*
X10003745Y-13073674D02*
X10022792Y-13064150D01*
X10022792Y-13064150D02*
X10051364Y-13064150D01*
X10051364Y-13064150D02*
X10070411Y-13073674D01*
X10070411Y-13073674D02*
X10079935Y-13092722D01*
X10079935Y-13092722D02*
X10079935Y-13197484D01*
X10470411Y-12987960D02*
X10298983Y-13245103D01*
X10727554Y-12997484D02*
X10746602Y-12997484D01*
X10746602Y-12997484D02*
X10765649Y-13007008D01*
X10765649Y-13007008D02*
X10775173Y-13016531D01*
X10775173Y-13016531D02*
X10784697Y-13035579D01*
X10784697Y-13035579D02*
X10794221Y-13073674D01*
X10794221Y-13073674D02*
X10794221Y-13121293D01*
X10794221Y-13121293D02*
X10784697Y-13159388D01*
X10784697Y-13159388D02*
X10775173Y-13178436D01*
X10775173Y-13178436D02*
X10765649Y-13187960D01*
X10765649Y-13187960D02*
X10746602Y-13197484D01*
X10746602Y-13197484D02*
X10727554Y-13197484D01*
X10727554Y-13197484D02*
X10708507Y-13187960D01*
X10708507Y-13187960D02*
X10698983Y-13178436D01*
X10698983Y-13178436D02*
X10689459Y-13159388D01*
X10689459Y-13159388D02*
X10679935Y-13121293D01*
X10679935Y-13121293D02*
X10679935Y-13073674D01*
X10679935Y-13073674D02*
X10689459Y-13035579D01*
X10689459Y-13035579D02*
X10698983Y-13016531D01*
X10698983Y-13016531D02*
X10708507Y-13007008D01*
X10708507Y-13007008D02*
X10727554Y-12997484D01*
X10879935Y-13178436D02*
X10889459Y-13187960D01*
X10889459Y-13187960D02*
X10879935Y-13197484D01*
X10879935Y-13197484D02*
X10870411Y-13187960D01*
X10870411Y-13187960D02*
X10879935Y-13178436D01*
X10879935Y-13178436D02*
X10879935Y-13197484D01*
X11013268Y-12997484D02*
X11032316Y-12997484D01*
X11032316Y-12997484D02*
X11051364Y-13007008D01*
X11051364Y-13007008D02*
X11060888Y-13016531D01*
X11060888Y-13016531D02*
X11070411Y-13035579D01*
X11070411Y-13035579D02*
X11079935Y-13073674D01*
X11079935Y-13073674D02*
X11079935Y-13121293D01*
X11079935Y-13121293D02*
X11070411Y-13159388D01*
X11070411Y-13159388D02*
X11060888Y-13178436D01*
X11060888Y-13178436D02*
X11051364Y-13187960D01*
X11051364Y-13187960D02*
X11032316Y-13197484D01*
X11032316Y-13197484D02*
X11013268Y-13197484D01*
X11013268Y-13197484D02*
X10994221Y-13187960D01*
X10994221Y-13187960D02*
X10984697Y-13178436D01*
X10984697Y-13178436D02*
X10975173Y-13159388D01*
X10975173Y-13159388D02*
X10965649Y-13121293D01*
X10965649Y-13121293D02*
X10965649Y-13073674D01*
X10965649Y-13073674D02*
X10975173Y-13035579D01*
X10975173Y-13035579D02*
X10984697Y-13016531D01*
X10984697Y-13016531D02*
X10994221Y-13007008D01*
X10994221Y-13007008D02*
X11013268Y-12997484D01*
X11251364Y-12997484D02*
X11213268Y-12997484D01*
X11213268Y-12997484D02*
X11194221Y-13007008D01*
X11194221Y-13007008D02*
X11184697Y-13016531D01*
X11184697Y-13016531D02*
X11165649Y-13045103D01*
X11165649Y-13045103D02*
X11156126Y-13083198D01*
X11156126Y-13083198D02*
X11156126Y-13159388D01*
X11156126Y-13159388D02*
X11165649Y-13178436D01*
X11165649Y-13178436D02*
X11175173Y-13187960D01*
X11175173Y-13187960D02*
X11194221Y-13197484D01*
X11194221Y-13197484D02*
X11232316Y-13197484D01*
X11232316Y-13197484D02*
X11251364Y-13187960D01*
X11251364Y-13187960D02*
X11260887Y-13178436D01*
X11260887Y-13178436D02*
X11270411Y-13159388D01*
X11270411Y-13159388D02*
X11270411Y-13111769D01*
X11270411Y-13111769D02*
X11260887Y-13092722D01*
X11260887Y-13092722D02*
X11251364Y-13083198D01*
X11251364Y-13083198D02*
X11232316Y-13073674D01*
X11232316Y-13073674D02*
X11194221Y-13073674D01*
X11194221Y-13073674D02*
X11175173Y-13083198D01*
X11175173Y-13083198D02*
X11165649Y-13092722D01*
X11165649Y-13092722D02*
X11156126Y-13111769D01*
X11441840Y-12997484D02*
X11403745Y-12997484D01*
X11403745Y-12997484D02*
X11384697Y-13007008D01*
X11384697Y-13007008D02*
X11375173Y-13016531D01*
X11375173Y-13016531D02*
X11356126Y-13045103D01*
X11356126Y-13045103D02*
X11346602Y-13083198D01*
X11346602Y-13083198D02*
X11346602Y-13159388D01*
X11346602Y-13159388D02*
X11356126Y-13178436D01*
X11356126Y-13178436D02*
X11365649Y-13187960D01*
X11365649Y-13187960D02*
X11384697Y-13197484D01*
X11384697Y-13197484D02*
X11422792Y-13197484D01*
X11422792Y-13197484D02*
X11441840Y-13187960D01*
X11441840Y-13187960D02*
X11451364Y-13178436D01*
X11451364Y-13178436D02*
X11460887Y-13159388D01*
X11460887Y-13159388D02*
X11460887Y-13111769D01*
X11460887Y-13111769D02*
X11451364Y-13092722D01*
X11451364Y-13092722D02*
X11441840Y-13083198D01*
X11441840Y-13083198D02*
X11422792Y-13073674D01*
X11422792Y-13073674D02*
X11384697Y-13073674D01*
X11384697Y-13073674D02*
X11365649Y-13083198D01*
X11365649Y-13083198D02*
X11356126Y-13092722D01*
X11356126Y-13092722D02*
X11346602Y-13111769D01*
X11556126Y-13197484D02*
X11594221Y-13197484D01*
X11594221Y-13197484D02*
X11613268Y-13187960D01*
X11613268Y-13187960D02*
X11622792Y-13178436D01*
X11622792Y-13178436D02*
X11641840Y-13149865D01*
X11641840Y-13149865D02*
X11651364Y-13111769D01*
X11651364Y-13111769D02*
X11651364Y-13035579D01*
X11651364Y-13035579D02*
X11641840Y-13016531D01*
X11641840Y-13016531D02*
X11632316Y-13007008D01*
X11632316Y-13007008D02*
X11613268Y-12997484D01*
X11613268Y-12997484D02*
X11575173Y-12997484D01*
X11575173Y-12997484D02*
X11556126Y-13007008D01*
X11556126Y-13007008D02*
X11546602Y-13016531D01*
X11546602Y-13016531D02*
X11537078Y-13035579D01*
X11537078Y-13035579D02*
X11537078Y-13083198D01*
X11537078Y-13083198D02*
X11546602Y-13102246D01*
X11546602Y-13102246D02*
X11556126Y-13111769D01*
X11556126Y-13111769D02*
X11575173Y-13121293D01*
X11575173Y-13121293D02*
X11613268Y-13121293D01*
X11613268Y-13121293D02*
X11632316Y-13111769D01*
X11632316Y-13111769D02*
X11641840Y-13102246D01*
X11641840Y-13102246D02*
X11651364Y-13083198D01*
X11727554Y-12997484D02*
X11727554Y-13035579D01*
X11803745Y-12997484D02*
X11803745Y-13035579D01*
X12098983Y-13273674D02*
X12089459Y-13264150D01*
X12089459Y-13264150D02*
X12070411Y-13235579D01*
X12070411Y-13235579D02*
X12060888Y-13216531D01*
X12060888Y-13216531D02*
X12051364Y-13187960D01*
X12051364Y-13187960D02*
X12041840Y-13140341D01*
X12041840Y-13140341D02*
X12041840Y-13102246D01*
X12041840Y-13102246D02*
X12051364Y-13054627D01*
X12051364Y-13054627D02*
X12060888Y-13026055D01*
X12060888Y-13026055D02*
X12070411Y-13007008D01*
X12070411Y-13007008D02*
X12089459Y-12978436D01*
X12089459Y-12978436D02*
X12098983Y-12968912D01*
X12165649Y-13016531D02*
X12175173Y-13007008D01*
X12175173Y-13007008D02*
X12194221Y-12997484D01*
X12194221Y-12997484D02*
X12241840Y-12997484D01*
X12241840Y-12997484D02*
X12260888Y-13007008D01*
X12260888Y-13007008D02*
X12270411Y-13016531D01*
X12270411Y-13016531D02*
X12279935Y-13035579D01*
X12279935Y-13035579D02*
X12279935Y-13054627D01*
X12279935Y-13054627D02*
X12270411Y-13083198D01*
X12270411Y-13083198D02*
X12156126Y-13197484D01*
X12156126Y-13197484D02*
X12279935Y-13197484D01*
X12460888Y-12997484D02*
X12365649Y-12997484D01*
X12365649Y-12997484D02*
X12356126Y-13092722D01*
X12356126Y-13092722D02*
X12365649Y-13083198D01*
X12365649Y-13083198D02*
X12384697Y-13073674D01*
X12384697Y-13073674D02*
X12432316Y-13073674D01*
X12432316Y-13073674D02*
X12451364Y-13083198D01*
X12451364Y-13083198D02*
X12460888Y-13092722D01*
X12460888Y-13092722D02*
X12470411Y-13111769D01*
X12470411Y-13111769D02*
X12470411Y-13159388D01*
X12470411Y-13159388D02*
X12460888Y-13178436D01*
X12460888Y-13178436D02*
X12451364Y-13187960D01*
X12451364Y-13187960D02*
X12432316Y-13197484D01*
X12432316Y-13197484D02*
X12384697Y-13197484D01*
X12384697Y-13197484D02*
X12365649Y-13187960D01*
X12365649Y-13187960D02*
X12356126Y-13178436D01*
X12708507Y-13197484D02*
X12708507Y-12997484D01*
X12794221Y-13197484D02*
X12794221Y-13092722D01*
X12794221Y-13092722D02*
X12784697Y-13073674D01*
X12784697Y-13073674D02*
X12765650Y-13064150D01*
X12765650Y-13064150D02*
X12737078Y-13064150D01*
X12737078Y-13064150D02*
X12718030Y-13073674D01*
X12718030Y-13073674D02*
X12708507Y-13083198D01*
X12918030Y-13197484D02*
X12898983Y-13187960D01*
X12898983Y-13187960D02*
X12889459Y-13178436D01*
X12889459Y-13178436D02*
X12879935Y-13159388D01*
X12879935Y-13159388D02*
X12879935Y-13102246D01*
X12879935Y-13102246D02*
X12889459Y-13083198D01*
X12889459Y-13083198D02*
X12898983Y-13073674D01*
X12898983Y-13073674D02*
X12918030Y-13064150D01*
X12918030Y-13064150D02*
X12946602Y-13064150D01*
X12946602Y-13064150D02*
X12965650Y-13073674D01*
X12965650Y-13073674D02*
X12975173Y-13083198D01*
X12975173Y-13083198D02*
X12984697Y-13102246D01*
X12984697Y-13102246D02*
X12984697Y-13159388D01*
X12984697Y-13159388D02*
X12975173Y-13178436D01*
X12975173Y-13178436D02*
X12965650Y-13187960D01*
X12965650Y-13187960D02*
X12946602Y-13197484D01*
X12946602Y-13197484D02*
X12918030Y-13197484D01*
X13098983Y-13197484D02*
X13079935Y-13187960D01*
X13079935Y-13187960D02*
X13070411Y-13168912D01*
X13070411Y-13168912D02*
X13070411Y-12997484D01*
X13251364Y-13187960D02*
X13232316Y-13197484D01*
X13232316Y-13197484D02*
X13194221Y-13197484D01*
X13194221Y-13197484D02*
X13175173Y-13187960D01*
X13175173Y-13187960D02*
X13165650Y-13168912D01*
X13165650Y-13168912D02*
X13165650Y-13092722D01*
X13165650Y-13092722D02*
X13175173Y-13073674D01*
X13175173Y-13073674D02*
X13194221Y-13064150D01*
X13194221Y-13064150D02*
X13232316Y-13064150D01*
X13232316Y-13064150D02*
X13251364Y-13073674D01*
X13251364Y-13073674D02*
X13260888Y-13092722D01*
X13260888Y-13092722D02*
X13260888Y-13111769D01*
X13260888Y-13111769D02*
X13165650Y-13130817D01*
X13337078Y-13187960D02*
X13356126Y-13197484D01*
X13356126Y-13197484D02*
X13394221Y-13197484D01*
X13394221Y-13197484D02*
X13413269Y-13187960D01*
X13413269Y-13187960D02*
X13422792Y-13168912D01*
X13422792Y-13168912D02*
X13422792Y-13159388D01*
X13422792Y-13159388D02*
X13413269Y-13140341D01*
X13413269Y-13140341D02*
X13394221Y-13130817D01*
X13394221Y-13130817D02*
X13365650Y-13130817D01*
X13365650Y-13130817D02*
X13346602Y-13121293D01*
X13346602Y-13121293D02*
X13337078Y-13102246D01*
X13337078Y-13102246D02*
X13337078Y-13092722D01*
X13337078Y-13092722D02*
X13346602Y-13073674D01*
X13346602Y-13073674D02*
X13365650Y-13064150D01*
X13365650Y-13064150D02*
X13394221Y-13064150D01*
X13394221Y-13064150D02*
X13413269Y-13073674D01*
X13489459Y-13273674D02*
X13498983Y-13264150D01*
X13498983Y-13264150D02*
X13518031Y-13235579D01*
X13518031Y-13235579D02*
X13527554Y-13216531D01*
X13527554Y-13216531D02*
X13537078Y-13187960D01*
X13537078Y-13187960D02*
X13546602Y-13140341D01*
X13546602Y-13140341D02*
X13546602Y-13102246D01*
X13546602Y-13102246D02*
X13537078Y-13054627D01*
X13537078Y-13054627D02*
X13527554Y-13026055D01*
X13527554Y-13026055D02*
X13518031Y-13007008D01*
X13518031Y-13007008D02*
X13498983Y-12978436D01*
X13498983Y-12978436D02*
X13489459Y-12968912D01*
M02*
