G04 #@! TF.GenerationSoftware,KiCad,Pcbnew,9.0.7*
G04 #@! TF.CreationDate,2026-03-06T14:53:54-05:00*
G04 #@! TF.ProjectId,Smart_Backpack,536d6172-745f-4426-9163-6b7061636b2e,rev?*
G04 #@! TF.SameCoordinates,Original*
G04 #@! TF.FileFunction,Copper,L2,Bot*
G04 #@! TF.FilePolarity,Positive*
%FSLAX46Y46*%
G04 Gerber Fmt 4.6, Leading zero omitted, Abs format (unit mm)*
G04 Created by KiCad (PCBNEW 9.0.7) date 2026-03-06 14:53:54*
%MOMM*%
%LPD*%
G01*
G04 APERTURE LIST*
G04 Aperture macros list*
%AMRoundRect*
0 Rectangle with rounded corners*
0 $1 Rounding radius*
0 $2 $3 $4 $5 $6 $7 $8 $9 X,Y pos of 4 corners*
0 Add a 4 corners polygon primitive as box body*
4,1,4,$2,$3,$4,$5,$6,$7,$8,$9,$2,$3,0*
0 Add four circle primitives for the rounded corners*
1,1,$1+$1,$2,$3*
1,1,$1+$1,$4,$5*
1,1,$1+$1,$6,$7*
1,1,$1+$1,$8,$9*
0 Add four rect primitives between the rounded corners*
20,1,$1+$1,$2,$3,$4,$5,0*
20,1,$1+$1,$4,$5,$6,$7,0*
20,1,$1+$1,$6,$7,$8,$9,0*
20,1,$1+$1,$8,$9,$2,$3,0*%
G04 Aperture macros list end*
G04 #@! TA.AperFunction,ComponentPad*
%ADD10RoundRect,0.250001X1.099999X-1.099999X1.099999X1.099999X-1.099999X1.099999X-1.099999X-1.099999X0*%
G04 #@! TD*
G04 #@! TA.AperFunction,ComponentPad*
%ADD11C,2.700000*%
G04 #@! TD*
G04 #@! TA.AperFunction,ComponentPad*
%ADD12RoundRect,0.250001X1.099999X1.099999X-1.099999X1.099999X-1.099999X-1.099999X1.099999X-1.099999X0*%
G04 #@! TD*
G04 #@! TA.AperFunction,ComponentPad*
%ADD13R,1.700000X1.700000*%
G04 #@! TD*
G04 #@! TA.AperFunction,ComponentPad*
%ADD14C,1.700000*%
G04 #@! TD*
G04 #@! TA.AperFunction,ComponentPad*
%ADD15RoundRect,0.250001X-1.099999X1.099999X-1.099999X-1.099999X1.099999X-1.099999X1.099999X1.099999X0*%
G04 #@! TD*
G04 #@! TA.AperFunction,HeatsinkPad*
%ADD16O,2.100000X1.000000*%
G04 #@! TD*
G04 #@! TA.AperFunction,HeatsinkPad*
%ADD17O,1.800000X1.000000*%
G04 #@! TD*
G04 #@! TA.AperFunction,SMDPad,CuDef*
%ADD18RoundRect,0.250000X-0.412500X-0.650000X0.412500X-0.650000X0.412500X0.650000X-0.412500X0.650000X0*%
G04 #@! TD*
G04 #@! TA.AperFunction,SMDPad,CuDef*
%ADD19R,2.209800X8.001000*%
G04 #@! TD*
G04 #@! TA.AperFunction,SMDPad,CuDef*
%ADD20RoundRect,0.250000X0.412500X0.650000X-0.412500X0.650000X-0.412500X-0.650000X0.412500X-0.650000X0*%
G04 #@! TD*
G04 #@! TA.AperFunction,SMDPad,CuDef*
%ADD21RoundRect,0.160000X-0.160000X0.222500X-0.160000X-0.222500X0.160000X-0.222500X0.160000X0.222500X0*%
G04 #@! TD*
G04 #@! TA.AperFunction,SMDPad,CuDef*
%ADD22RoundRect,0.250000X0.400000X0.625000X-0.400000X0.625000X-0.400000X-0.625000X0.400000X-0.625000X0*%
G04 #@! TD*
G04 #@! TA.AperFunction,SMDPad,CuDef*
%ADD23RoundRect,0.250000X0.650000X-0.412500X0.650000X0.412500X-0.650000X0.412500X-0.650000X-0.412500X0*%
G04 #@! TD*
G04 #@! TA.AperFunction,ComponentPad*
%ADD24C,1.000050*%
G04 #@! TD*
G04 #@! TA.AperFunction,ComponentPad*
%ADD25C,1.000450*%
G04 #@! TD*
G04 #@! TA.AperFunction,SMDPad,CuDef*
%ADD26RoundRect,0.250000X0.625000X-0.400000X0.625000X0.400000X-0.625000X0.400000X-0.625000X-0.400000X0*%
G04 #@! TD*
G04 #@! TA.AperFunction,ViaPad*
%ADD27C,0.800000*%
G04 #@! TD*
G04 #@! TA.AperFunction,Conductor*
%ADD28C,0.250000*%
G04 #@! TD*
G04 #@! TA.AperFunction,Conductor*
%ADD29C,0.200000*%
G04 #@! TD*
G04 APERTURE END LIST*
D10*
X141732000Y-64818400D03*
D11*
X141732000Y-60858400D03*
X141732000Y-56898400D03*
D10*
X141732000Y-79347200D03*
D11*
X141732000Y-75387200D03*
X141732000Y-71427200D03*
D12*
X118904640Y-48564800D03*
D11*
X114944640Y-48564800D03*
X110984640Y-48564800D03*
D13*
X103378000Y-84937600D03*
D14*
X105918000Y-84937600D03*
X108458000Y-84937600D03*
X110998000Y-84937600D03*
X113538000Y-84937600D03*
X116078000Y-84937600D03*
X118618000Y-84937600D03*
X121158000Y-84937600D03*
D12*
X139357760Y-48564800D03*
D11*
X135397760Y-48564800D03*
D12*
X129131200Y-48564800D03*
D11*
X125171200Y-48564800D03*
D12*
X104718080Y-48564800D03*
D11*
X100758080Y-48564800D03*
X96798080Y-48564800D03*
D15*
X94945200Y-55120400D03*
D11*
X94945200Y-59080400D03*
X94945200Y-63040400D03*
X94945200Y-67000400D03*
X94945200Y-70960400D03*
X94945200Y-74920400D03*
X94945200Y-78880400D03*
D10*
X141815000Y-88594000D03*
D11*
X141815000Y-84634000D03*
D16*
X91300000Y-90697000D03*
D17*
X87100000Y-90697000D03*
D16*
X91300000Y-99337000D03*
D17*
X87100000Y-99337000D03*
D18*
X140677500Y-101600000D03*
X143802500Y-101600000D03*
D19*
X100393500Y-106680000D03*
X94678500Y-106680000D03*
D20*
X143802500Y-96266000D03*
X140677500Y-96266000D03*
D18*
X98337500Y-97350000D03*
X101462500Y-97350000D03*
D21*
X89651000Y-94527500D03*
X89651000Y-95672500D03*
D22*
X143751500Y-99060000D03*
X140651500Y-99060000D03*
D23*
X123247106Y-110907897D03*
X123247106Y-107782897D03*
D24*
X129765000Y-101475000D03*
D25*
X131035000Y-101475000D03*
D23*
X125787106Y-110907897D03*
X125787106Y-107782897D03*
D26*
X128327106Y-110895397D03*
X128327106Y-107795397D03*
D21*
X95910000Y-95947500D03*
X95910000Y-97092500D03*
D20*
X101462500Y-94000000D03*
X98337500Y-94000000D03*
D27*
X134250000Y-55220000D03*
X114808000Y-88646000D03*
X115400000Y-95600000D03*
X111270000Y-57130000D03*
X110490000Y-90678000D03*
X102870000Y-100330000D03*
X128490000Y-51370000D03*
X126290000Y-59640000D03*
X138960000Y-88660000D03*
X108330000Y-58370000D03*
X140740000Y-104140000D03*
X134250000Y-52520000D03*
X113640000Y-108280000D03*
X127910000Y-101502500D03*
X133858000Y-73406000D03*
X110190000Y-60030000D03*
X96774000Y-105664000D03*
X113538000Y-79248000D03*
X115400000Y-98300000D03*
X138960000Y-89930000D03*
X111674000Y-71950000D03*
X130140000Y-109440000D03*
X112649000Y-78232000D03*
X139390000Y-104140000D03*
X123300000Y-95500000D03*
X110744000Y-71120000D03*
X142770000Y-68400000D03*
X115400000Y-96950000D03*
X95580304Y-93659001D03*
X146100000Y-68430000D03*
X113640000Y-106930000D03*
X90470000Y-86770000D03*
X138960000Y-87390000D03*
X110340000Y-56300000D03*
X109814000Y-70290000D03*
X112200000Y-57960000D03*
X123300000Y-98200000D03*
X128490000Y-52720000D03*
X113640000Y-109630000D03*
X109260000Y-59200000D03*
X90470000Y-84070000D03*
X111760000Y-77216000D03*
X132760000Y-101442500D03*
X128490000Y-54070000D03*
X123300000Y-96850000D03*
X126290000Y-62340000D03*
X142090000Y-104140000D03*
X134250000Y-53870000D03*
X126290000Y-60990000D03*
X90470000Y-85420000D03*
X130302000Y-94920500D03*
X130398780Y-110921848D03*
X95504000Y-111506000D03*
X134112000Y-81348689D03*
X111252000Y-93472000D03*
X125222000Y-80264000D03*
X135382000Y-63754000D03*
X96388347Y-90800347D03*
X118110000Y-110700000D03*
X141732000Y-93726000D03*
X118135999Y-112500000D03*
X135636000Y-59690000D03*
X130150000Y-107780000D03*
X126200000Y-104630000D03*
X126695200Y-77825600D03*
X121350000Y-111672000D03*
X122380000Y-105270000D03*
X129387600Y-77673200D03*
X98806000Y-105918000D03*
X118211158Y-103898842D03*
X118531558Y-107268442D03*
X128950000Y-86030000D03*
X121980000Y-90760000D03*
X111760000Y-87884000D03*
X102616000Y-88900000D03*
X90551000Y-94800000D03*
X94858000Y-95963000D03*
X94796305Y-94562000D03*
D28*
X133858000Y-73406000D02*
X135836800Y-71427200D01*
X146100000Y-68430000D02*
X146070000Y-68400000D01*
X135836800Y-71427200D02*
X141732000Y-71427200D01*
X98080000Y-97092500D02*
X98337500Y-97350000D01*
X95910000Y-97092500D02*
X98080000Y-97092500D01*
X95440500Y-106680000D02*
X95440500Y-111442500D01*
X125787106Y-110907897D02*
X123247106Y-110907897D01*
X130398780Y-110921848D02*
X128353557Y-110921848D01*
X112623600Y-93472000D02*
X121158000Y-84937600D01*
X136113489Y-79347200D02*
X141732000Y-79347200D01*
X128353557Y-110921848D02*
X128327106Y-110895397D01*
X125799606Y-110895397D02*
X125787106Y-110907897D01*
X128327106Y-110895397D02*
X125799606Y-110895397D01*
X125222000Y-80264000D02*
X125222000Y-80873600D01*
X125222000Y-80873600D02*
X121158000Y-84937600D01*
X134112000Y-81348689D02*
X136113489Y-79347200D01*
X95440500Y-111442500D02*
X95504000Y-111506000D01*
X111252000Y-93472000D02*
X112623600Y-93472000D01*
X98337500Y-94000000D02*
X98337500Y-92749500D01*
X98337500Y-92749500D02*
X96388347Y-90800347D01*
X143751500Y-96532500D02*
X143764000Y-96520000D01*
X143802500Y-96266000D02*
X143802500Y-95796500D01*
X143802500Y-95796500D02*
X141732000Y-93726000D01*
X143751500Y-99060000D02*
X143751500Y-96317000D01*
X143751500Y-96317000D02*
X143802500Y-96266000D01*
X135636000Y-59690000D02*
X139357760Y-55968240D01*
X139357760Y-55968240D02*
X139357760Y-48564800D01*
X130150000Y-106565000D02*
X133965000Y-102750000D01*
X128342503Y-107780000D02*
X128327106Y-107795397D01*
X133965000Y-102750000D02*
X138000000Y-102750000D01*
X130150000Y-107780000D02*
X130150000Y-106565000D01*
X130150000Y-107780000D02*
X128342503Y-107780000D01*
X140677500Y-99086000D02*
X140651500Y-99060000D01*
X139140000Y-101600000D02*
X140677500Y-101600000D01*
X138000000Y-102740000D02*
X139140000Y-101600000D01*
X138000000Y-102750000D02*
X138000000Y-102740000D01*
X140639000Y-99072500D02*
X140651500Y-99060000D01*
X140677500Y-101600000D02*
X140677500Y-99086000D01*
X141545500Y-88848000D02*
X141815000Y-88848000D01*
X130250000Y-105000000D02*
X139000000Y-96250000D01*
X126570000Y-105000000D02*
X130250000Y-105000000D01*
X139000000Y-91393500D02*
X141545500Y-88848000D01*
X139000000Y-96250000D02*
X139000000Y-91393500D01*
X126200000Y-104630000D02*
X126570000Y-105000000D01*
X126180000Y-78340800D02*
X126695200Y-77825600D01*
X126180000Y-82910000D02*
X126180000Y-78340800D01*
X121350000Y-111672000D02*
X121350000Y-107106000D01*
X121600000Y-106856000D02*
X121600000Y-103158282D01*
X119840000Y-89250000D02*
X126180000Y-82910000D01*
X121600000Y-103158282D02*
X119840000Y-101398282D01*
X121350000Y-107106000D02*
X121600000Y-106856000D01*
X119840000Y-101398282D02*
X119840000Y-89250000D01*
X127705000Y-82535000D02*
X127705000Y-79355800D01*
X127705000Y-79355800D02*
X129387600Y-77673200D01*
X120540000Y-89700000D02*
X127705000Y-82535000D01*
X122385000Y-105265000D02*
X122385000Y-103305472D01*
X122385000Y-103305472D02*
X120540000Y-101460472D01*
X120540000Y-101460472D02*
X120540000Y-89700000D01*
X122380000Y-105270000D02*
X122385000Y-105265000D01*
X87100000Y-99337000D02*
X87100000Y-90697000D01*
X87100000Y-90697000D02*
X91300000Y-90697000D01*
X91300000Y-99337000D02*
X87100000Y-99337000D01*
X98806000Y-105918000D02*
X99631500Y-105918000D01*
X100393500Y-101282500D02*
X101462500Y-100213500D01*
X101462500Y-100213500D02*
X101462500Y-97350000D01*
X100393500Y-106680000D02*
X100393500Y-101282500D01*
X99631500Y-105918000D02*
X100393500Y-106680000D01*
X118211158Y-103898842D02*
X118210000Y-103900000D01*
X128950000Y-86030000D02*
X124220000Y-90760000D01*
X118210000Y-103900000D02*
X118210000Y-106946884D01*
X124220000Y-90760000D02*
X121980000Y-90760000D01*
X118210000Y-106946884D02*
X118531558Y-107268442D01*
D29*
X90278500Y-94527500D02*
X90551000Y-94800000D01*
X89651000Y-94527500D02*
X90278500Y-94527500D01*
X94858000Y-95963000D02*
X94858000Y-94623695D01*
X95894500Y-95963000D02*
X95910000Y-95947500D01*
X94858000Y-95963000D02*
X95894500Y-95963000D01*
X94858000Y-94623695D02*
X94796305Y-94562000D01*
G04 #@! TA.AperFunction,Conductor*
G36*
X150774976Y-39840185D02*
G01*
X150820731Y-39892989D01*
X150831937Y-39944486D01*
X150839817Y-107424825D01*
X150820140Y-107491866D01*
X150767342Y-107537627D01*
X150715828Y-107548839D01*
X135122841Y-107550187D01*
X135088113Y-107550187D01*
X135088099Y-107550190D01*
X135050848Y-107565623D01*
X135050765Y-107565658D01*
X135050057Y-107565952D01*
X135014426Y-107580711D01*
X135014419Y-107580717D01*
X135014411Y-107580721D01*
X135013424Y-107581707D01*
X135013423Y-107581708D01*
X134986844Y-107608290D01*
X134986776Y-107608359D01*
X134986212Y-107608924D01*
X134958024Y-107637113D01*
X134958020Y-107637121D01*
X134958014Y-107637128D01*
X134957425Y-107638549D01*
X134957425Y-107638550D01*
X134943256Y-107672767D01*
X134943252Y-107672777D01*
X134927498Y-107710808D01*
X134927496Y-107710816D01*
X134927500Y-107744300D01*
X134927500Y-113725500D01*
X134907815Y-113792539D01*
X134855011Y-113838294D01*
X134803500Y-113849500D01*
X85613700Y-113849500D01*
X85546661Y-113829815D01*
X85500906Y-113777011D01*
X85489700Y-113725500D01*
X85489700Y-109410012D01*
X86739999Y-109410012D01*
X86749999Y-109739991D01*
X86749999Y-109739999D01*
X86750000Y-109740000D01*
X86779705Y-110007349D01*
X86780001Y-110010007D01*
X86859998Y-110369993D01*
X86859999Y-110369999D01*
X86999996Y-110759991D01*
X86999999Y-110759999D01*
X87219998Y-111179997D01*
X87220008Y-111180012D01*
X87439996Y-111479996D01*
X87440000Y-111480000D01*
X87670000Y-111730000D01*
X87950000Y-111970000D01*
X88350000Y-112230000D01*
X88810000Y-112430000D01*
X89220000Y-112540000D01*
X89720000Y-112600000D01*
X89720008Y-112599999D01*
X89720010Y-112600000D01*
X90009979Y-112590001D01*
X90009983Y-112590000D01*
X90010000Y-112590000D01*
X90370000Y-112550000D01*
X90720000Y-112460000D01*
X91090000Y-112320000D01*
X91530000Y-112080000D01*
X91850000Y-111830000D01*
X92190000Y-111480000D01*
X92410000Y-111170000D01*
X92600000Y-110830000D01*
X92690000Y-110620000D01*
X92770000Y-110360000D01*
X92828218Y-110105292D01*
X92862345Y-110044328D01*
X92924017Y-110011489D01*
X92993652Y-110017206D01*
X93049143Y-110059663D01*
X93072870Y-110125380D01*
X93073100Y-110132926D01*
X93073100Y-110728370D01*
X93073101Y-110728376D01*
X93079508Y-110787983D01*
X93129802Y-110922828D01*
X93129806Y-110922835D01*
X93216052Y-111038044D01*
X93216055Y-111038047D01*
X93331264Y-111124293D01*
X93331271Y-111124297D01*
X93466117Y-111174591D01*
X93466116Y-111174591D01*
X93473044Y-111175335D01*
X93525727Y-111181000D01*
X94499410Y-111180999D01*
X94566449Y-111200683D01*
X94612204Y-111253487D01*
X94622148Y-111322646D01*
X94621027Y-111329190D01*
X94603500Y-111417304D01*
X94603500Y-111594695D01*
X94638103Y-111768658D01*
X94638106Y-111768667D01*
X94705983Y-111932540D01*
X94705990Y-111932553D01*
X94804535Y-112080034D01*
X94804538Y-112080038D01*
X94929961Y-112205461D01*
X94929965Y-112205464D01*
X95077446Y-112304009D01*
X95077459Y-112304016D01*
X95116049Y-112320000D01*
X95241334Y-112371894D01*
X95241336Y-112371894D01*
X95241341Y-112371896D01*
X95415304Y-112406499D01*
X95415307Y-112406500D01*
X95415309Y-112406500D01*
X95592693Y-112406500D01*
X95592694Y-112406499D01*
X95650682Y-112394964D01*
X95766658Y-112371896D01*
X95766661Y-112371894D01*
X95766666Y-112371894D01*
X95930547Y-112304013D01*
X96078035Y-112205464D01*
X96203464Y-112080035D01*
X96302013Y-111932547D01*
X96369894Y-111768666D01*
X96371481Y-111760691D01*
X96402250Y-111606002D01*
X96404500Y-111594691D01*
X96404500Y-111417309D01*
X96404500Y-111417306D01*
X96404499Y-111417304D01*
X96369896Y-111243341D01*
X96369893Y-111243332D01*
X96302016Y-111079459D01*
X96302014Y-111079456D01*
X96302013Y-111079453D01*
X96251762Y-111004249D01*
X96230886Y-110937575D01*
X96238683Y-110892032D01*
X96277491Y-110787983D01*
X96283900Y-110728373D01*
X96283899Y-105829304D01*
X97905500Y-105829304D01*
X97905500Y-106006695D01*
X97940103Y-106180658D01*
X97940106Y-106180667D01*
X98007983Y-106344540D01*
X98007990Y-106344553D01*
X98106535Y-106492034D01*
X98106538Y-106492038D01*
X98231961Y-106617461D01*
X98231965Y-106617464D01*
X98379446Y-106716009D01*
X98379459Y-106716016D01*
X98502363Y-106766923D01*
X98543334Y-106783894D01*
X98543336Y-106783894D01*
X98543341Y-106783896D01*
X98663889Y-106807874D01*
X98688292Y-106812728D01*
X98750203Y-106845112D01*
X98784777Y-106905828D01*
X98788101Y-106934345D01*
X98788101Y-110728376D01*
X98794508Y-110787983D01*
X98844802Y-110922828D01*
X98844806Y-110922835D01*
X98931052Y-111038044D01*
X98931055Y-111038047D01*
X99046264Y-111124293D01*
X99046271Y-111124297D01*
X99181117Y-111174591D01*
X99181116Y-111174591D01*
X99188044Y-111175335D01*
X99240727Y-111181000D01*
X101546272Y-111180999D01*
X101605883Y-111174591D01*
X101740731Y-111124296D01*
X101855946Y-111038046D01*
X101942196Y-110922831D01*
X101992491Y-110787983D01*
X101998900Y-110728373D01*
X101998900Y-110611304D01*
X117209500Y-110611304D01*
X117209500Y-110788695D01*
X117244103Y-110962658D01*
X117244106Y-110962667D01*
X117311983Y-111126540D01*
X117311990Y-111126553D01*
X117410535Y-111274034D01*
X117410538Y-111274038D01*
X117535961Y-111399461D01*
X117535965Y-111399464D01*
X117683449Y-111498011D01*
X117685032Y-111498857D01*
X117685706Y-111499519D01*
X117688518Y-111501398D01*
X117688161Y-111501930D01*
X117734881Y-111547815D01*
X117750347Y-111615952D01*
X117726520Y-111681633D01*
X117695480Y-111711322D01*
X117561960Y-111800538D01*
X117436537Y-111925961D01*
X117436534Y-111925965D01*
X117337989Y-112073446D01*
X117337982Y-112073459D01*
X117270105Y-112237332D01*
X117270102Y-112237341D01*
X117235499Y-112411304D01*
X117235499Y-112588695D01*
X117270102Y-112762658D01*
X117270105Y-112762667D01*
X117337982Y-112926540D01*
X117337989Y-112926553D01*
X117436534Y-113074034D01*
X117436537Y-113074038D01*
X117561960Y-113199461D01*
X117561964Y-113199464D01*
X117709445Y-113298009D01*
X117709458Y-113298016D01*
X117832362Y-113348923D01*
X117873333Y-113365894D01*
X117873335Y-113365894D01*
X117873340Y-113365896D01*
X118047303Y-113400499D01*
X118047306Y-113400500D01*
X118047308Y-113400500D01*
X118224692Y-113400500D01*
X118224693Y-113400499D01*
X118282681Y-113388964D01*
X118398657Y-113365896D01*
X118398660Y-113365894D01*
X118398665Y-113365894D01*
X118562546Y-113298013D01*
X118710034Y-113199464D01*
X118835463Y-113074035D01*
X118934012Y-112926547D01*
X119001893Y-112762666D01*
X119036499Y-112588691D01*
X119036499Y-112411309D01*
X119036499Y-112411306D01*
X119036498Y-112411304D01*
X119001895Y-112237341D01*
X119001892Y-112237332D01*
X118998855Y-112230001D01*
X118944409Y-112098553D01*
X118934015Y-112073459D01*
X118934008Y-112073446D01*
X118835463Y-111925965D01*
X118835460Y-111925961D01*
X118710037Y-111800538D01*
X118710033Y-111800535D01*
X118562548Y-111701987D01*
X118560960Y-111701139D01*
X118560283Y-111700474D01*
X118557481Y-111698602D01*
X118557836Y-111698070D01*
X118511114Y-111652178D01*
X118495652Y-111584041D01*
X118519481Y-111518360D01*
X118550519Y-111488677D01*
X118563499Y-111480004D01*
X118684035Y-111399464D01*
X118809464Y-111274035D01*
X118908013Y-111126547D01*
X118975894Y-110962666D01*
X118983819Y-110922828D01*
X119010499Y-110788695D01*
X119010500Y-110788693D01*
X119010500Y-110611306D01*
X119010499Y-110611304D01*
X118975896Y-110437341D01*
X118975893Y-110437332D01*
X118908016Y-110273459D01*
X118908009Y-110273446D01*
X118809464Y-110125965D01*
X118809461Y-110125961D01*
X118684038Y-110000538D01*
X118684034Y-110000535D01*
X118536553Y-109901990D01*
X118536540Y-109901983D01*
X118372667Y-109834106D01*
X118372658Y-109834103D01*
X118198694Y-109799500D01*
X118198691Y-109799500D01*
X118021309Y-109799500D01*
X118021306Y-109799500D01*
X117847341Y-109834103D01*
X117847332Y-109834106D01*
X117683459Y-109901983D01*
X117683446Y-109901990D01*
X117535965Y-110000535D01*
X117535961Y-110000538D01*
X117410538Y-110125961D01*
X117410535Y-110125965D01*
X117311990Y-110273446D01*
X117311983Y-110273459D01*
X117244106Y-110437332D01*
X117244103Y-110437341D01*
X117209500Y-110611304D01*
X101998900Y-110611304D01*
X101998899Y-103810146D01*
X117310658Y-103810146D01*
X117310658Y-103987537D01*
X117345261Y-104161500D01*
X117345264Y-104161509D01*
X117413141Y-104325382D01*
X117413148Y-104325395D01*
X117511693Y-104472876D01*
X117511696Y-104472880D01*
X117548180Y-104509363D01*
X117581666Y-104570685D01*
X117584500Y-104597045D01*
X117584500Y-107008495D01*
X117608534Y-107129327D01*
X117608536Y-107129332D01*
X117608537Y-107129335D01*
X117621619Y-107160919D01*
X117631058Y-107208369D01*
X117631058Y-107357137D01*
X117665661Y-107531100D01*
X117665664Y-107531109D01*
X117733541Y-107694982D01*
X117733548Y-107694995D01*
X117832093Y-107842476D01*
X117832096Y-107842480D01*
X117957519Y-107967903D01*
X117957523Y-107967906D01*
X118105004Y-108066451D01*
X118105017Y-108066458D01*
X118227921Y-108117365D01*
X118268892Y-108134336D01*
X118268894Y-108134336D01*
X118268899Y-108134338D01*
X118442862Y-108168941D01*
X118442865Y-108168942D01*
X118442867Y-108168942D01*
X118620251Y-108168942D01*
X118620252Y-108168941D01*
X118678240Y-108157406D01*
X118794216Y-108134338D01*
X118794219Y-108134336D01*
X118794224Y-108134336D01*
X118958105Y-108066455D01*
X119105593Y-107967906D01*
X119231022Y-107842477D01*
X119329571Y-107694989D01*
X119397452Y-107531108D01*
X119400191Y-107517341D01*
X119432057Y-107357137D01*
X119432058Y-107357135D01*
X119432058Y-107179748D01*
X119432057Y-107179746D01*
X119397454Y-107005783D01*
X119397451Y-107005774D01*
X119329574Y-106841901D01*
X119329567Y-106841888D01*
X119231022Y-106694407D01*
X119231019Y-106694403D01*
X119105596Y-106568980D01*
X119105592Y-106568977D01*
X119007440Y-106503394D01*
X118958105Y-106470429D01*
X118958102Y-106470427D01*
X118958101Y-106470427D01*
X118912045Y-106451349D01*
X118857643Y-106407507D01*
X118835579Y-106341213D01*
X118835500Y-106336789D01*
X118835500Y-104599361D01*
X118855185Y-104532322D01*
X118871820Y-104511679D01*
X118910619Y-104472880D01*
X118910622Y-104472877D01*
X119009171Y-104325389D01*
X119077052Y-104161508D01*
X119111658Y-103987533D01*
X119111658Y-103810151D01*
X119111658Y-103810148D01*
X119111657Y-103810146D01*
X119077054Y-103636183D01*
X119077051Y-103636174D01*
X119009174Y-103472301D01*
X119009167Y-103472288D01*
X118910622Y-103324807D01*
X118910619Y-103324803D01*
X118785196Y-103199380D01*
X118785192Y-103199377D01*
X118637711Y-103100832D01*
X118637698Y-103100825D01*
X118473825Y-103032948D01*
X118473816Y-103032945D01*
X118299852Y-102998342D01*
X118299849Y-102998342D01*
X118122467Y-102998342D01*
X118122464Y-102998342D01*
X117948499Y-103032945D01*
X117948490Y-103032948D01*
X117784617Y-103100825D01*
X117784604Y-103100832D01*
X117637123Y-103199377D01*
X117637119Y-103199380D01*
X117511696Y-103324803D01*
X117511693Y-103324807D01*
X117413148Y-103472288D01*
X117413141Y-103472301D01*
X117345264Y-103636174D01*
X117345261Y-103636183D01*
X117310658Y-103810146D01*
X101998899Y-103810146D01*
X101998899Y-102631628D01*
X101992491Y-102572017D01*
X101991490Y-102569334D01*
X101942197Y-102437171D01*
X101942193Y-102437164D01*
X101855947Y-102321955D01*
X101855944Y-102321952D01*
X101740735Y-102235706D01*
X101740728Y-102235702D01*
X101605882Y-102185408D01*
X101605883Y-102185408D01*
X101546283Y-102179001D01*
X101546281Y-102179000D01*
X101546273Y-102179000D01*
X101546265Y-102179000D01*
X101143000Y-102179000D01*
X101075961Y-102159315D01*
X101030206Y-102106511D01*
X101019000Y-102055000D01*
X101019000Y-101592951D01*
X101038685Y-101525912D01*
X101055315Y-101505274D01*
X101861229Y-100699360D01*
X101861233Y-100699358D01*
X101948358Y-100612233D01*
X102016811Y-100509786D01*
X102063963Y-100395952D01*
X102088000Y-100275106D01*
X102088000Y-98809589D01*
X102107685Y-98742551D01*
X102160489Y-98696796D01*
X102172985Y-98691887D01*
X102194334Y-98684814D01*
X102343656Y-98592712D01*
X102467712Y-98468656D01*
X102559814Y-98319334D01*
X102614999Y-98152797D01*
X102625500Y-98050009D01*
X102625499Y-96649992D01*
X102625370Y-96648733D01*
X102614999Y-96547203D01*
X102614998Y-96547200D01*
X102611629Y-96537034D01*
X102559814Y-96380666D01*
X102467712Y-96231344D01*
X102343656Y-96107288D01*
X102250888Y-96050069D01*
X102194336Y-96015187D01*
X102194331Y-96015185D01*
X102168381Y-96006586D01*
X102027797Y-95960001D01*
X102027795Y-95960000D01*
X101925010Y-95949500D01*
X100999998Y-95949500D01*
X100999980Y-95949501D01*
X100897203Y-95960000D01*
X100897200Y-95960001D01*
X100730668Y-96015185D01*
X100730663Y-96015187D01*
X100581342Y-96107289D01*
X100457289Y-96231342D01*
X100365187Y-96380663D01*
X100365185Y-96380668D01*
X100365115Y-96380880D01*
X100310001Y-96547203D01*
X100310001Y-96547204D01*
X100310000Y-96547204D01*
X100299500Y-96649983D01*
X100299500Y-98050001D01*
X100299501Y-98050018D01*
X100310000Y-98152796D01*
X100310001Y-98152799D01*
X100351749Y-98278784D01*
X100365186Y-98319334D01*
X100457288Y-98468656D01*
X100581344Y-98592712D01*
X100730666Y-98684814D01*
X100752001Y-98691883D01*
X100809446Y-98731653D01*
X100836271Y-98796167D01*
X100837000Y-98809590D01*
X100837000Y-99903047D01*
X100817315Y-99970086D01*
X100800681Y-99990728D01*
X99907644Y-100883764D01*
X99907638Y-100883772D01*
X99839190Y-100986208D01*
X99839188Y-100986213D01*
X99814553Y-101045689D01*
X99792038Y-101100044D01*
X99792035Y-101100056D01*
X99768000Y-101220889D01*
X99768000Y-102055000D01*
X99748315Y-102122039D01*
X99695511Y-102167794D01*
X99644000Y-102179000D01*
X99240729Y-102179000D01*
X99240723Y-102179001D01*
X99181116Y-102185408D01*
X99046271Y-102235702D01*
X99046264Y-102235706D01*
X98931055Y-102321952D01*
X98931052Y-102321955D01*
X98844806Y-102437164D01*
X98844802Y-102437171D01*
X98794508Y-102572017D01*
X98788101Y-102631616D01*
X98788101Y-102631623D01*
X98788100Y-102631635D01*
X98788100Y-104901654D01*
X98768415Y-104968693D01*
X98715611Y-105014448D01*
X98688292Y-105023271D01*
X98543340Y-105052104D01*
X98543332Y-105052106D01*
X98379459Y-105119983D01*
X98379446Y-105119990D01*
X98231965Y-105218535D01*
X98231961Y-105218538D01*
X98106538Y-105343961D01*
X98106535Y-105343965D01*
X98007990Y-105491446D01*
X98007983Y-105491459D01*
X97940106Y-105655332D01*
X97940103Y-105655341D01*
X97905500Y-105829304D01*
X96283899Y-105829304D01*
X96283899Y-102631628D01*
X96277491Y-102572017D01*
X96276490Y-102569334D01*
X96227197Y-102437171D01*
X96227193Y-102437164D01*
X96140947Y-102321955D01*
X96140944Y-102321952D01*
X96025735Y-102235706D01*
X96025728Y-102235702D01*
X95890882Y-102185408D01*
X95890883Y-102185408D01*
X95831283Y-102179001D01*
X95831281Y-102179000D01*
X95831273Y-102179000D01*
X95831264Y-102179000D01*
X93525729Y-102179000D01*
X93525723Y-102179001D01*
X93466116Y-102185408D01*
X93331271Y-102235702D01*
X93331264Y-102235706D01*
X93216055Y-102321952D01*
X93216052Y-102321955D01*
X93129806Y-102437164D01*
X93129802Y-102437171D01*
X93079508Y-102572017D01*
X93073101Y-102631616D01*
X93073101Y-102631623D01*
X93073100Y-102631635D01*
X93073100Y-108914714D01*
X93053415Y-108981753D01*
X93000611Y-109027508D01*
X92931453Y-109037452D01*
X92867897Y-109008427D01*
X92830123Y-108949649D01*
X92826989Y-108936273D01*
X92810000Y-108840000D01*
X92720000Y-108520000D01*
X92590000Y-108200000D01*
X92490000Y-108010000D01*
X92320000Y-107740000D01*
X92110000Y-107480000D01*
X91983446Y-107353446D01*
X91850011Y-107220010D01*
X91850004Y-107220004D01*
X91850000Y-107220000D01*
X91510000Y-106960000D01*
X91509996Y-106959998D01*
X91509992Y-106959995D01*
X91120007Y-106740003D01*
X91120001Y-106740001D01*
X91120000Y-106740000D01*
X90670000Y-106570000D01*
X90669999Y-106569999D01*
X90669997Y-106569999D01*
X90299997Y-106479999D01*
X89780004Y-106449999D01*
X89120005Y-106529999D01*
X89120001Y-106529999D01*
X89120000Y-106530000D01*
X89119997Y-106530000D01*
X89119993Y-106530002D01*
X88529997Y-106730001D01*
X88030004Y-107019997D01*
X88030001Y-107019999D01*
X87669997Y-107320002D01*
X87410001Y-107609998D01*
X87190001Y-107919998D01*
X87189999Y-107920002D01*
X87000002Y-108289994D01*
X86999996Y-108290007D01*
X86870002Y-108629992D01*
X86870000Y-108629998D01*
X86870000Y-108630000D01*
X86788827Y-108981753D01*
X86779999Y-109020006D01*
X86779998Y-109020010D01*
X86740000Y-109409998D01*
X86739999Y-109410012D01*
X85489700Y-109410012D01*
X85489700Y-90617943D01*
X86099500Y-90617943D01*
X86099500Y-90776057D01*
X86134758Y-90907640D01*
X86140423Y-90928783D01*
X86140426Y-90928790D01*
X86219475Y-91065709D01*
X86219479Y-91065714D01*
X86219480Y-91065716D01*
X86331284Y-91177520D01*
X86412501Y-91224410D01*
X86460715Y-91274975D01*
X86474500Y-91331796D01*
X86474500Y-98702202D01*
X86454815Y-98769241D01*
X86412500Y-98809589D01*
X86331287Y-98856477D01*
X86331282Y-98856481D01*
X86219481Y-98968282D01*
X86219475Y-98968290D01*
X86140426Y-99105209D01*
X86140423Y-99105216D01*
X86099500Y-99257943D01*
X86099500Y-99416056D01*
X86140423Y-99568783D01*
X86140426Y-99568790D01*
X86219475Y-99705709D01*
X86219479Y-99705714D01*
X86219480Y-99705716D01*
X86331284Y-99817520D01*
X86331286Y-99817521D01*
X86331290Y-99817524D01*
X86468209Y-99896573D01*
X86468216Y-99896577D01*
X86620943Y-99937500D01*
X86900495Y-99937500D01*
X86924686Y-99939883D01*
X87038389Y-99962499D01*
X87038393Y-99962500D01*
X87038394Y-99962500D01*
X91361607Y-99962500D01*
X91361608Y-99962499D01*
X91417874Y-99951307D01*
X91475314Y-99939883D01*
X91499505Y-99937500D01*
X91929055Y-99937500D01*
X91929057Y-99937500D01*
X92081784Y-99896577D01*
X92218716Y-99817520D01*
X92330520Y-99705716D01*
X92409577Y-99568784D01*
X92450500Y-99416057D01*
X92450500Y-99257943D01*
X92409577Y-99105216D01*
X92409573Y-99105209D01*
X92330524Y-98968290D01*
X92330518Y-98968282D01*
X92218717Y-98856481D01*
X92218709Y-98856475D01*
X92081790Y-98777426D01*
X92081786Y-98777424D01*
X92081784Y-98777423D01*
X91929057Y-98736500D01*
X91929056Y-98736500D01*
X91499505Y-98736500D01*
X91475314Y-98734117D01*
X91361610Y-98711500D01*
X91361606Y-98711500D01*
X91057055Y-98711500D01*
X90990016Y-98691815D01*
X90944261Y-98639011D01*
X90934317Y-98569853D01*
X90963342Y-98506297D01*
X91009604Y-98472938D01*
X91013707Y-98471237D01*
X91013714Y-98471236D01*
X91151786Y-98391521D01*
X91264521Y-98278786D01*
X91344236Y-98140714D01*
X91368547Y-98049986D01*
X97175001Y-98049986D01*
X97185494Y-98152697D01*
X97240641Y-98319119D01*
X97240643Y-98319124D01*
X97332684Y-98468345D01*
X97456654Y-98592315D01*
X97605875Y-98684356D01*
X97605880Y-98684358D01*
X97772302Y-98739505D01*
X97772309Y-98739506D01*
X97875019Y-98749999D01*
X98087499Y-98749999D01*
X98587500Y-98749999D01*
X98799972Y-98749999D01*
X98799986Y-98749998D01*
X98902697Y-98739505D01*
X99069119Y-98684358D01*
X99069124Y-98684356D01*
X99218345Y-98592315D01*
X99342315Y-98468345D01*
X99434356Y-98319124D01*
X99434358Y-98319119D01*
X99489505Y-98152697D01*
X99489506Y-98152690D01*
X99499999Y-98049986D01*
X99500000Y-98049973D01*
X99500000Y-97600000D01*
X98587500Y-97600000D01*
X98587500Y-98749999D01*
X98087499Y-98749999D01*
X98087500Y-98749998D01*
X98087500Y-97600000D01*
X97175001Y-97600000D01*
X97175001Y-98049986D01*
X91368547Y-98049986D01*
X91385500Y-97986716D01*
X91385500Y-97827284D01*
X91344236Y-97673286D01*
X91264521Y-97535214D01*
X91151786Y-97422479D01*
X91151785Y-97422478D01*
X91130800Y-97410363D01*
X91058008Y-97368337D01*
X95090000Y-97368337D01*
X95096043Y-97434843D01*
X95143724Y-97587859D01*
X95143726Y-97587863D01*
X95226639Y-97725019D01*
X95226642Y-97725023D01*
X95339976Y-97838357D01*
X95339980Y-97838360D01*
X95477136Y-97921273D01*
X95477138Y-97921274D01*
X95630155Y-97968956D01*
X95630161Y-97968958D01*
X95659999Y-97971668D01*
X95660000Y-97971668D01*
X96160000Y-97971668D01*
X96189838Y-97968958D01*
X96189844Y-97968956D01*
X96342861Y-97921274D01*
X96342863Y-97921273D01*
X96480019Y-97838360D01*
X96480023Y-97838357D01*
X96593357Y-97725023D01*
X96593360Y-97725019D01*
X96676272Y-97587864D01*
X96699991Y-97511748D01*
X96699992Y-97511746D01*
X96723956Y-97434841D01*
X96730000Y-97368337D01*
X96730000Y-97342500D01*
X96160000Y-97342500D01*
X96160000Y-97971668D01*
X95660000Y-97971668D01*
X95660000Y-97342500D01*
X95090000Y-97342500D01*
X95090000Y-97368337D01*
X91058008Y-97368337D01*
X91013716Y-97342765D01*
X91013715Y-97342764D01*
X90975214Y-97332448D01*
X90859716Y-97301500D01*
X90700284Y-97301500D01*
X90584785Y-97332448D01*
X90546285Y-97342764D01*
X90408215Y-97422478D01*
X90408212Y-97422480D01*
X90295480Y-97535212D01*
X90295478Y-97535215D01*
X90215764Y-97673285D01*
X90214042Y-97679711D01*
X90174500Y-97827284D01*
X90174500Y-97986716D01*
X90215764Y-98140714D01*
X90295479Y-98278786D01*
X90408214Y-98391521D01*
X90546286Y-98471236D01*
X90546290Y-98471237D01*
X90550396Y-98472938D01*
X90604800Y-98516779D01*
X90626866Y-98583073D01*
X90609588Y-98650772D01*
X90558451Y-98698383D01*
X90502945Y-98711500D01*
X87849500Y-98711500D01*
X87782461Y-98691815D01*
X87736706Y-98639011D01*
X87725500Y-98587500D01*
X87725500Y-95948337D01*
X88831000Y-95948337D01*
X88837043Y-96014843D01*
X88884724Y-96167859D01*
X88884726Y-96167863D01*
X88967639Y-96305019D01*
X88967642Y-96305023D01*
X89080976Y-96418357D01*
X89080980Y-96418360D01*
X89218136Y-96501273D01*
X89218138Y-96501274D01*
X89371155Y-96548956D01*
X89371161Y-96548958D01*
X89400999Y-96551668D01*
X89401000Y-96551668D01*
X89401000Y-95922500D01*
X88831000Y-95922500D01*
X88831000Y-95948337D01*
X87725500Y-95948337D01*
X87725500Y-94251621D01*
X88830500Y-94251621D01*
X88830500Y-94803388D01*
X88836546Y-94869926D01*
X88836548Y-94869933D01*
X88884265Y-95023066D01*
X88892287Y-95036336D01*
X88910121Y-95103891D01*
X88892287Y-95164629D01*
X88884726Y-95177136D01*
X88884724Y-95177140D01*
X88837043Y-95330156D01*
X88831000Y-95396662D01*
X88831000Y-95422500D01*
X89527000Y-95422500D01*
X89594039Y-95442185D01*
X89639794Y-95494989D01*
X89651000Y-95546500D01*
X89651000Y-95672500D01*
X89777000Y-95672500D01*
X89844039Y-95692185D01*
X89889794Y-95744989D01*
X89901000Y-95796500D01*
X89901000Y-96551668D01*
X89930838Y-96548958D01*
X89930844Y-96548956D01*
X90083861Y-96501274D01*
X90083863Y-96501273D01*
X90221019Y-96418360D01*
X90221023Y-96418357D01*
X90334357Y-96305023D01*
X90334360Y-96305019D01*
X90417273Y-96167863D01*
X90417275Y-96167859D01*
X90464956Y-96014843D01*
X90471000Y-95948337D01*
X90471000Y-95824500D01*
X90490685Y-95757461D01*
X90543489Y-95711706D01*
X90595000Y-95700500D01*
X90639693Y-95700500D01*
X90639694Y-95700499D01*
X90697682Y-95688964D01*
X90813658Y-95665896D01*
X90813661Y-95665894D01*
X90813666Y-95665894D01*
X90953535Y-95607958D01*
X90977540Y-95598016D01*
X90977540Y-95598015D01*
X90977547Y-95598013D01*
X91125035Y-95499464D01*
X91250464Y-95374035D01*
X91349013Y-95226547D01*
X91416894Y-95062666D01*
X91422132Y-95036336D01*
X91444705Y-94922853D01*
X91451500Y-94888691D01*
X91451500Y-94711309D01*
X91451500Y-94711306D01*
X91451499Y-94711304D01*
X91416896Y-94537341D01*
X91416894Y-94537338D01*
X91416894Y-94537334D01*
X91390372Y-94473304D01*
X93895805Y-94473304D01*
X93895805Y-94650695D01*
X93930408Y-94824658D01*
X93930411Y-94824667D01*
X93998288Y-94988540D01*
X93998295Y-94988553D01*
X94096840Y-95136034D01*
X94096843Y-95136038D01*
X94166471Y-95205666D01*
X94199956Y-95266989D01*
X94194972Y-95336681D01*
X94166475Y-95381025D01*
X94158535Y-95388964D01*
X94158535Y-95388965D01*
X94059990Y-95536446D01*
X94059983Y-95536459D01*
X93992106Y-95700332D01*
X93992103Y-95700341D01*
X93957500Y-95874304D01*
X93957500Y-96051695D01*
X93992103Y-96225658D01*
X93992106Y-96225667D01*
X94059983Y-96389540D01*
X94059990Y-96389553D01*
X94158535Y-96537034D01*
X94158538Y-96537038D01*
X94283961Y-96662461D01*
X94283965Y-96662464D01*
X94431446Y-96761009D01*
X94431459Y-96761016D01*
X94532267Y-96802771D01*
X94595334Y-96828894D01*
X94595336Y-96828894D01*
X94595341Y-96828896D01*
X94769304Y-96863499D01*
X94769307Y-96863500D01*
X94769309Y-96863500D01*
X94946692Y-96863500D01*
X94974365Y-96857995D01*
X95040286Y-96844882D01*
X95064474Y-96842500D01*
X96730000Y-96842500D01*
X96730000Y-96816662D01*
X96723957Y-96750161D01*
X96704231Y-96686857D01*
X96690582Y-96650013D01*
X97175000Y-96650013D01*
X97175000Y-97100000D01*
X98087500Y-97100000D01*
X98587500Y-97100000D01*
X99499999Y-97100000D01*
X99499999Y-96650028D01*
X99499998Y-96650013D01*
X99489505Y-96547302D01*
X99434358Y-96380880D01*
X99434356Y-96380875D01*
X99342315Y-96231654D01*
X99218345Y-96107684D01*
X99069124Y-96015643D01*
X99069119Y-96015641D01*
X98902697Y-95960494D01*
X98902690Y-95960493D01*
X98799986Y-95950000D01*
X98587500Y-95950000D01*
X98587500Y-97100000D01*
X98087500Y-97100000D01*
X98087500Y-95950000D01*
X97875029Y-95950000D01*
X97875012Y-95950001D01*
X97772302Y-95960494D01*
X97605880Y-96015641D01*
X97605875Y-96015643D01*
X97456654Y-96107684D01*
X97332684Y-96231654D01*
X97240643Y-96380875D01*
X97240641Y-96380880D01*
X97185494Y-96547302D01*
X97185493Y-96547309D01*
X97175000Y-96650013D01*
X96690582Y-96650013D01*
X96658554Y-96563559D01*
X96656918Y-96539954D01*
X96650878Y-96517078D01*
X96654481Y-96504804D01*
X96653723Y-96493857D01*
X96662266Y-96478292D01*
X96668715Y-96456332D01*
X96676733Y-96443069D01*
X96724452Y-96289933D01*
X96730500Y-96223381D01*
X96730499Y-95671620D01*
X96730499Y-95671611D01*
X96724453Y-95605073D01*
X96724452Y-95605070D01*
X96724452Y-95605067D01*
X96690150Y-95494989D01*
X96676734Y-95451933D01*
X96676732Y-95451929D01*
X96593757Y-95314670D01*
X96593753Y-95314665D01*
X96480334Y-95201246D01*
X96480329Y-95201242D01*
X96343070Y-95118267D01*
X96343066Y-95118265D01*
X96189933Y-95070548D01*
X96189935Y-95070548D01*
X96163312Y-95068128D01*
X96123381Y-95064500D01*
X96123378Y-95064500D01*
X95748435Y-95064500D01*
X95681396Y-95044815D01*
X95635641Y-94992011D01*
X95625697Y-94922853D01*
X95633872Y-94893053D01*
X95662199Y-94824666D01*
X95666432Y-94803388D01*
X95687002Y-94699973D01*
X95696805Y-94650691D01*
X95696805Y-94473309D01*
X95696805Y-94473306D01*
X95696804Y-94473304D01*
X95662201Y-94299341D01*
X95662198Y-94299332D01*
X95594321Y-94135459D01*
X95594314Y-94135446D01*
X95495769Y-93987965D01*
X95495766Y-93987961D01*
X95370343Y-93862538D01*
X95370339Y-93862535D01*
X95222858Y-93763990D01*
X95222845Y-93763983D01*
X95058972Y-93696106D01*
X95058963Y-93696103D01*
X94884999Y-93661500D01*
X94884996Y-93661500D01*
X94707614Y-93661500D01*
X94707611Y-93661500D01*
X94533646Y-93696103D01*
X94533637Y-93696106D01*
X94369764Y-93763983D01*
X94369751Y-93763990D01*
X94222270Y-93862535D01*
X94222266Y-93862538D01*
X94096843Y-93987961D01*
X94096840Y-93987965D01*
X93998295Y-94135446D01*
X93998288Y-94135459D01*
X93930411Y-94299332D01*
X93930408Y-94299341D01*
X93895805Y-94473304D01*
X91390372Y-94473304D01*
X91386236Y-94463319D01*
X91349016Y-94373459D01*
X91349009Y-94373446D01*
X91250464Y-94225965D01*
X91250461Y-94225961D01*
X91125038Y-94100538D01*
X91125034Y-94100535D01*
X90977553Y-94001990D01*
X90977540Y-94001983D01*
X90813667Y-93934106D01*
X90813658Y-93934103D01*
X90639694Y-93899500D01*
X90639691Y-93899500D01*
X90462309Y-93899500D01*
X90424952Y-93906930D01*
X90355360Y-93900701D01*
X90313082Y-93872994D01*
X90302623Y-93862535D01*
X90221335Y-93781247D01*
X90221332Y-93781245D01*
X90221330Y-93781243D01*
X90221329Y-93781242D01*
X90084070Y-93698267D01*
X90084066Y-93698265D01*
X89930933Y-93650548D01*
X89930935Y-93650548D01*
X89904312Y-93648128D01*
X89864381Y-93644500D01*
X89864378Y-93644500D01*
X89437611Y-93644500D01*
X89371073Y-93650546D01*
X89371066Y-93650548D01*
X89217933Y-93698265D01*
X89217929Y-93698267D01*
X89080670Y-93781242D01*
X89080665Y-93781246D01*
X88967246Y-93894665D01*
X88967242Y-93894670D01*
X88884267Y-94031929D01*
X88884265Y-94031933D01*
X88836548Y-94185065D01*
X88830500Y-94251621D01*
X87725500Y-94251621D01*
X87725500Y-91446500D01*
X87745185Y-91379461D01*
X87797989Y-91333706D01*
X87849500Y-91322500D01*
X90502945Y-91322500D01*
X90569984Y-91342185D01*
X90615739Y-91394989D01*
X90625683Y-91464147D01*
X90596658Y-91527703D01*
X90550396Y-91561062D01*
X90546285Y-91562764D01*
X90408215Y-91642478D01*
X90408212Y-91642480D01*
X90295480Y-91755212D01*
X90295478Y-91755215D01*
X90215764Y-91893285D01*
X90215764Y-91893286D01*
X90174500Y-92047284D01*
X90174500Y-92206716D01*
X90215764Y-92360714D01*
X90295479Y-92498786D01*
X90408214Y-92611521D01*
X90546286Y-92691236D01*
X90700284Y-92732500D01*
X90700287Y-92732500D01*
X90859713Y-92732500D01*
X90859716Y-92732500D01*
X91013714Y-92691236D01*
X91151786Y-92611521D01*
X91264521Y-92498786D01*
X91344236Y-92360714D01*
X91385500Y-92206716D01*
X91385500Y-92047284D01*
X91344236Y-91893286D01*
X91264521Y-91755214D01*
X91151786Y-91642479D01*
X91013714Y-91562764D01*
X91009604Y-91561062D01*
X90955200Y-91517221D01*
X90933134Y-91450927D01*
X90950412Y-91383228D01*
X91001549Y-91335617D01*
X91057055Y-91322500D01*
X91361607Y-91322500D01*
X91361608Y-91322499D01*
X91417874Y-91311307D01*
X91475314Y-91299883D01*
X91499505Y-91297500D01*
X91929055Y-91297500D01*
X91929057Y-91297500D01*
X92081784Y-91256577D01*
X92218716Y-91177520D01*
X92330520Y-91065716D01*
X92409577Y-90928784D01*
X92450500Y-90776057D01*
X92450500Y-90711651D01*
X95487847Y-90711651D01*
X95487847Y-90889042D01*
X95522450Y-91063005D01*
X95522453Y-91063014D01*
X95590330Y-91226887D01*
X95590337Y-91226900D01*
X95688882Y-91374381D01*
X95688885Y-91374385D01*
X95814308Y-91499808D01*
X95814312Y-91499811D01*
X95961793Y-91598356D01*
X95961806Y-91598363D01*
X96054876Y-91636913D01*
X96125681Y-91666241D01*
X96125683Y-91666241D01*
X96125688Y-91666243D01*
X96299651Y-91700846D01*
X96299654Y-91700847D01*
X96299656Y-91700847D01*
X96352895Y-91700847D01*
X96419934Y-91720532D01*
X96440576Y-91737166D01*
X97370839Y-92667430D01*
X97404324Y-92728753D01*
X97399340Y-92798445D01*
X97370840Y-92842791D01*
X97332289Y-92881342D01*
X97240187Y-93030663D01*
X97240185Y-93030668D01*
X97240115Y-93030880D01*
X97185001Y-93197203D01*
X97185001Y-93197204D01*
X97185000Y-93197204D01*
X97174500Y-93299983D01*
X97174500Y-94700001D01*
X97174501Y-94700018D01*
X97185000Y-94802796D01*
X97185001Y-94802799D01*
X97240185Y-94969331D01*
X97240187Y-94969336D01*
X97252040Y-94988553D01*
X97332288Y-95118656D01*
X97456344Y-95242712D01*
X97605666Y-95334814D01*
X97772203Y-95389999D01*
X97874991Y-95400500D01*
X98800008Y-95400499D01*
X98800016Y-95400498D01*
X98800019Y-95400498D01*
X98856302Y-95394748D01*
X98902797Y-95389999D01*
X99069334Y-95334814D01*
X99218656Y-95242712D01*
X99342712Y-95118656D01*
X99434814Y-94969334D01*
X99489999Y-94802797D01*
X99500500Y-94700009D01*
X99500500Y-94699986D01*
X100300001Y-94699986D01*
X100310494Y-94802697D01*
X100365641Y-94969119D01*
X100365643Y-94969124D01*
X100457684Y-95118345D01*
X100581654Y-95242315D01*
X100730875Y-95334356D01*
X100730880Y-95334358D01*
X100897302Y-95389505D01*
X100897309Y-95389506D01*
X101000019Y-95399999D01*
X101212499Y-95399999D01*
X101712500Y-95399999D01*
X101924972Y-95399999D01*
X101924986Y-95399998D01*
X102027697Y-95389505D01*
X102194119Y-95334358D01*
X102194124Y-95334356D01*
X102343345Y-95242315D01*
X102467315Y-95118345D01*
X102559356Y-94969124D01*
X102559358Y-94969119D01*
X102614505Y-94802697D01*
X102614506Y-94802690D01*
X102624999Y-94699986D01*
X102625000Y-94699973D01*
X102625000Y-94250000D01*
X101712500Y-94250000D01*
X101712500Y-95399999D01*
X101212499Y-95399999D01*
X101212500Y-95399998D01*
X101212500Y-94250000D01*
X100300001Y-94250000D01*
X100300001Y-94699986D01*
X99500500Y-94699986D01*
X99500499Y-93992087D01*
X99500499Y-93300013D01*
X100300000Y-93300013D01*
X100300000Y-93750000D01*
X101212500Y-93750000D01*
X101712500Y-93750000D01*
X102624999Y-93750000D01*
X102624999Y-93300028D01*
X102624998Y-93300013D01*
X102614505Y-93197302D01*
X102559358Y-93030880D01*
X102559356Y-93030875D01*
X102467315Y-92881654D01*
X102343345Y-92757684D01*
X102194124Y-92665643D01*
X102194119Y-92665641D01*
X102027697Y-92610494D01*
X102027690Y-92610493D01*
X101924986Y-92600000D01*
X101712500Y-92600000D01*
X101712500Y-93750000D01*
X101212500Y-93750000D01*
X101212500Y-92600000D01*
X101000029Y-92600000D01*
X101000012Y-92600001D01*
X100897302Y-92610494D01*
X100730880Y-92665641D01*
X100730875Y-92665643D01*
X100581654Y-92757684D01*
X100457684Y-92881654D01*
X100365643Y-93030875D01*
X100365641Y-93030880D01*
X100310494Y-93197302D01*
X100310493Y-93197309D01*
X100300000Y-93300013D01*
X99500499Y-93300013D01*
X99500499Y-93299998D01*
X99500498Y-93299981D01*
X99489999Y-93197203D01*
X99489998Y-93197200D01*
X99434814Y-93030666D01*
X99342712Y-92881344D01*
X99218656Y-92757288D01*
X99069334Y-92665186D01*
X99018491Y-92648338D01*
X99018076Y-92648051D01*
X99017576Y-92648030D01*
X98989397Y-92628194D01*
X98961046Y-92608564D01*
X98960715Y-92608003D01*
X98960443Y-92607812D01*
X98959159Y-92605365D01*
X98942630Y-92577342D01*
X98939459Y-92569546D01*
X98938963Y-92567048D01*
X98910688Y-92498786D01*
X98910550Y-92498453D01*
X98910509Y-92498352D01*
X98891815Y-92453221D01*
X98891808Y-92453208D01*
X98823358Y-92350767D01*
X98823355Y-92350763D01*
X97325166Y-90852574D01*
X97291681Y-90791251D01*
X97288847Y-90764893D01*
X97288847Y-90711653D01*
X97288846Y-90711651D01*
X97254243Y-90537688D01*
X97254240Y-90537679D01*
X97186363Y-90373806D01*
X97186356Y-90373793D01*
X97087811Y-90226312D01*
X97087808Y-90226308D01*
X96962385Y-90100885D01*
X96962381Y-90100882D01*
X96814900Y-90002337D01*
X96814887Y-90002330D01*
X96651014Y-89934453D01*
X96651005Y-89934450D01*
X96477041Y-89899847D01*
X96477038Y-89899847D01*
X96299656Y-89899847D01*
X96299653Y-89899847D01*
X96125688Y-89934450D01*
X96125679Y-89934453D01*
X95961806Y-90002330D01*
X95961793Y-90002337D01*
X95814312Y-90100882D01*
X95814308Y-90100885D01*
X95688885Y-90226308D01*
X95688882Y-90226312D01*
X95590337Y-90373793D01*
X95590330Y-90373806D01*
X95522453Y-90537679D01*
X95522450Y-90537688D01*
X95487847Y-90711651D01*
X92450500Y-90711651D01*
X92450500Y-90617943D01*
X92409577Y-90465216D01*
X92391554Y-90433999D01*
X92330524Y-90328290D01*
X92330518Y-90328282D01*
X92218717Y-90216481D01*
X92218709Y-90216475D01*
X92081790Y-90137426D01*
X92081786Y-90137424D01*
X92081784Y-90137423D01*
X91929057Y-90096500D01*
X91929056Y-90096500D01*
X91499505Y-90096500D01*
X91475314Y-90094117D01*
X91361610Y-90071500D01*
X91361606Y-90071500D01*
X87161606Y-90071500D01*
X87038394Y-90071500D01*
X87038389Y-90071500D01*
X86924686Y-90094117D01*
X86900495Y-90096500D01*
X86620943Y-90096500D01*
X86468216Y-90137423D01*
X86468209Y-90137426D01*
X86331290Y-90216475D01*
X86331282Y-90216481D01*
X86219481Y-90328282D01*
X86219475Y-90328290D01*
X86140426Y-90465209D01*
X86140423Y-90465216D01*
X86099500Y-90617943D01*
X85489700Y-90617943D01*
X85489700Y-88811304D01*
X101715500Y-88811304D01*
X101715500Y-88988695D01*
X101750103Y-89162658D01*
X101750106Y-89162667D01*
X101817983Y-89326540D01*
X101817990Y-89326553D01*
X101916535Y-89474034D01*
X101916538Y-89474038D01*
X102041961Y-89599461D01*
X102041965Y-89599464D01*
X102189446Y-89698009D01*
X102189459Y-89698016D01*
X102300481Y-89744002D01*
X102353334Y-89765894D01*
X102353336Y-89765894D01*
X102353341Y-89765896D01*
X102527304Y-89800499D01*
X102527307Y-89800500D01*
X102527309Y-89800500D01*
X102704693Y-89800500D01*
X102704694Y-89800499D01*
X102762682Y-89788964D01*
X102878658Y-89765896D01*
X102878661Y-89765894D01*
X102878666Y-89765894D01*
X103042547Y-89698013D01*
X103190035Y-89599464D01*
X103315464Y-89474035D01*
X103414013Y-89326547D01*
X103481894Y-89162666D01*
X103485551Y-89144285D01*
X103516499Y-88988695D01*
X103516500Y-88988693D01*
X103516500Y-88811306D01*
X103516499Y-88811304D01*
X103481896Y-88637341D01*
X103481893Y-88637332D01*
X103414016Y-88473459D01*
X103414009Y-88473446D01*
X103315464Y-88325965D01*
X103315461Y-88325961D01*
X103190038Y-88200538D01*
X103190034Y-88200535D01*
X103042553Y-88101990D01*
X103042540Y-88101983D01*
X102878667Y-88034106D01*
X102878658Y-88034103D01*
X102704694Y-87999500D01*
X102704691Y-87999500D01*
X102527309Y-87999500D01*
X102527306Y-87999500D01*
X102353341Y-88034103D01*
X102353332Y-88034106D01*
X102189459Y-88101983D01*
X102189446Y-88101990D01*
X102041965Y-88200535D01*
X102041961Y-88200538D01*
X101916538Y-88325961D01*
X101916535Y-88325965D01*
X101817990Y-88473446D01*
X101817983Y-88473459D01*
X101750106Y-88637332D01*
X101750103Y-88637341D01*
X101715500Y-88811304D01*
X85489700Y-88811304D01*
X85489700Y-87795304D01*
X110859500Y-87795304D01*
X110859500Y-87972695D01*
X110894103Y-88146658D01*
X110894106Y-88146667D01*
X110961983Y-88310540D01*
X110961990Y-88310553D01*
X111060535Y-88458034D01*
X111060538Y-88458038D01*
X111185961Y-88583461D01*
X111185965Y-88583464D01*
X111333446Y-88682009D01*
X111333459Y-88682016D01*
X111456363Y-88732923D01*
X111497334Y-88749894D01*
X111497336Y-88749894D01*
X111497341Y-88749896D01*
X111671304Y-88784499D01*
X111671307Y-88784500D01*
X111671309Y-88784500D01*
X111848693Y-88784500D01*
X111848694Y-88784499D01*
X111906682Y-88772964D01*
X112022658Y-88749896D01*
X112022661Y-88749894D01*
X112022666Y-88749894D01*
X112186547Y-88682013D01*
X112334035Y-88583464D01*
X112459464Y-88458035D01*
X112558013Y-88310547D01*
X112625894Y-88146666D01*
X112634782Y-88101987D01*
X112660499Y-87972695D01*
X112660500Y-87972693D01*
X112660500Y-87795306D01*
X112660499Y-87795304D01*
X112625896Y-87621341D01*
X112625893Y-87621332D01*
X112558016Y-87457459D01*
X112558009Y-87457446D01*
X112459464Y-87309965D01*
X112459461Y-87309961D01*
X112334038Y-87184538D01*
X112334034Y-87184535D01*
X112186553Y-87085990D01*
X112186540Y-87085983D01*
X112022667Y-87018106D01*
X112022658Y-87018103D01*
X111848694Y-86983500D01*
X111848691Y-86983500D01*
X111671309Y-86983500D01*
X111671306Y-86983500D01*
X111497341Y-87018103D01*
X111497332Y-87018106D01*
X111333459Y-87085983D01*
X111333446Y-87085990D01*
X111185965Y-87184535D01*
X111185961Y-87184538D01*
X111060538Y-87309961D01*
X111060535Y-87309965D01*
X110961990Y-87457446D01*
X110961983Y-87457459D01*
X110894106Y-87621332D01*
X110894103Y-87621341D01*
X110859500Y-87795304D01*
X85489700Y-87795304D01*
X85489700Y-84039735D01*
X102027500Y-84039735D01*
X102027500Y-85835470D01*
X102027501Y-85835476D01*
X102033908Y-85895083D01*
X102084202Y-86029928D01*
X102084206Y-86029935D01*
X102170452Y-86145144D01*
X102170455Y-86145147D01*
X102285664Y-86231393D01*
X102285671Y-86231397D01*
X102420517Y-86281691D01*
X102420516Y-86281691D01*
X102427444Y-86282435D01*
X102480127Y-86288100D01*
X104275872Y-86288099D01*
X104335483Y-86281691D01*
X104470331Y-86231396D01*
X104585546Y-86145146D01*
X104671796Y-86029931D01*
X104720810Y-85898516D01*
X104762681Y-85842584D01*
X104828145Y-85818166D01*
X104896418Y-85833017D01*
X104924673Y-85854169D01*
X105038213Y-85967709D01*
X105210179Y-86092648D01*
X105210181Y-86092649D01*
X105210184Y-86092651D01*
X105399588Y-86189157D01*
X105601757Y-86254846D01*
X105811713Y-86288100D01*
X105811714Y-86288100D01*
X106024286Y-86288100D01*
X106024287Y-86288100D01*
X106234243Y-86254846D01*
X106436412Y-86189157D01*
X106625816Y-86092651D01*
X106712138Y-86029935D01*
X106797786Y-85967709D01*
X106797788Y-85967706D01*
X106797792Y-85967704D01*
X106948104Y-85817392D01*
X106948106Y-85817388D01*
X106948109Y-85817386D01*
X107073048Y-85645420D01*
X107073047Y-85645420D01*
X107073051Y-85645416D01*
X107077514Y-85636654D01*
X107125488Y-85585859D01*
X107193308Y-85569063D01*
X107259444Y-85591599D01*
X107298486Y-85636656D01*
X107302951Y-85645420D01*
X107427890Y-85817386D01*
X107578213Y-85967709D01*
X107750179Y-86092648D01*
X107750181Y-86092649D01*
X107750184Y-86092651D01*
X107939588Y-86189157D01*
X108141757Y-86254846D01*
X108351713Y-86288100D01*
X108351714Y-86288100D01*
X108564286Y-86288100D01*
X108564287Y-86288100D01*
X108774243Y-86254846D01*
X108976412Y-86189157D01*
X109165816Y-86092651D01*
X109252138Y-86029935D01*
X109337786Y-85967709D01*
X109337788Y-85967706D01*
X109337792Y-85967704D01*
X109488104Y-85817392D01*
X109488106Y-85817388D01*
X109488109Y-85817386D01*
X109613048Y-85645420D01*
X109613047Y-85645420D01*
X109613051Y-85645416D01*
X109617514Y-85636654D01*
X109665488Y-85585859D01*
X109733308Y-85569063D01*
X109799444Y-85591599D01*
X109838486Y-85636656D01*
X109842951Y-85645420D01*
X109967890Y-85817386D01*
X110118213Y-85967709D01*
X110290179Y-86092648D01*
X110290181Y-86092649D01*
X110290184Y-86092651D01*
X110479588Y-86189157D01*
X110681757Y-86254846D01*
X110891713Y-86288100D01*
X110891714Y-86288100D01*
X111104286Y-86288100D01*
X111104287Y-86288100D01*
X111314243Y-86254846D01*
X111516412Y-86189157D01*
X111705816Y-86092651D01*
X111792138Y-86029935D01*
X111877786Y-85967709D01*
X111877788Y-85967706D01*
X111877792Y-85967704D01*
X112028104Y-85817392D01*
X112028106Y-85817388D01*
X112028109Y-85817386D01*
X112153048Y-85645420D01*
X112153047Y-85645420D01*
X112153051Y-85645416D01*
X112157514Y-85636654D01*
X112205488Y-85585859D01*
X112273308Y-85569063D01*
X112339444Y-85591599D01*
X112378486Y-85636656D01*
X112382951Y-85645420D01*
X112507890Y-85817386D01*
X112658213Y-85967709D01*
X112830179Y-86092648D01*
X112830181Y-86092649D01*
X112830184Y-86092651D01*
X113019588Y-86189157D01*
X113221757Y-86254846D01*
X113431713Y-86288100D01*
X113431714Y-86288100D01*
X113644286Y-86288100D01*
X113644287Y-86288100D01*
X113854243Y-86254846D01*
X114056412Y-86189157D01*
X114245816Y-86092651D01*
X114332138Y-86029935D01*
X114417786Y-85967709D01*
X114417788Y-85967706D01*
X114417792Y-85967704D01*
X114568104Y-85817392D01*
X114568106Y-85817388D01*
X114568109Y-85817386D01*
X114693048Y-85645420D01*
X114693047Y-85645420D01*
X114693051Y-85645416D01*
X114697514Y-85636654D01*
X114745488Y-85585859D01*
X114813308Y-85569063D01*
X114879444Y-85591599D01*
X114918486Y-85636656D01*
X114922951Y-85645420D01*
X115047890Y-85817386D01*
X115198213Y-85967709D01*
X115370179Y-86092648D01*
X115370181Y-86092649D01*
X115370184Y-86092651D01*
X115559588Y-86189157D01*
X115761757Y-86254846D01*
X115971713Y-86288100D01*
X115971714Y-86288100D01*
X116184286Y-86288100D01*
X116184287Y-86288100D01*
X116394243Y-86254846D01*
X116596412Y-86189157D01*
X116785816Y-86092651D01*
X116872138Y-86029935D01*
X116957786Y-85967709D01*
X116957788Y-85967706D01*
X116957792Y-85967704D01*
X117108104Y-85817392D01*
X117108106Y-85817388D01*
X117108109Y-85817386D01*
X117175515Y-85724607D01*
X117233051Y-85645416D01*
X117237793Y-85636108D01*
X117285763Y-85585311D01*
X117353583Y-85568511D01*
X117419719Y-85591045D01*
X117458763Y-85636100D01*
X117463373Y-85645147D01*
X117502728Y-85699316D01*
X118135037Y-85067008D01*
X118152075Y-85130593D01*
X118217901Y-85244607D01*
X118310993Y-85337699D01*
X118425007Y-85403525D01*
X118488590Y-85420562D01*
X117856282Y-86052869D01*
X117856282Y-86052870D01*
X117910449Y-86092224D01*
X118099782Y-86188695D01*
X118301870Y-86254357D01*
X118511754Y-86287600D01*
X118624046Y-86287600D01*
X118691085Y-86307285D01*
X118736840Y-86360089D01*
X118746784Y-86429247D01*
X118717759Y-86492803D01*
X118711727Y-86499281D01*
X112400829Y-92810181D01*
X112339506Y-92843666D01*
X112313148Y-92846500D01*
X111951361Y-92846500D01*
X111884322Y-92826815D01*
X111863679Y-92810180D01*
X111826038Y-92772538D01*
X111826034Y-92772535D01*
X111678553Y-92673990D01*
X111678540Y-92673983D01*
X111514667Y-92606106D01*
X111514658Y-92606103D01*
X111340694Y-92571500D01*
X111340691Y-92571500D01*
X111163309Y-92571500D01*
X111163306Y-92571500D01*
X110989341Y-92606103D01*
X110989332Y-92606106D01*
X110825459Y-92673983D01*
X110825446Y-92673990D01*
X110677965Y-92772535D01*
X110677961Y-92772538D01*
X110552538Y-92897961D01*
X110552535Y-92897965D01*
X110453990Y-93045446D01*
X110453983Y-93045459D01*
X110386106Y-93209332D01*
X110386103Y-93209341D01*
X110351500Y-93383304D01*
X110351500Y-93560695D01*
X110386103Y-93734658D01*
X110386106Y-93734667D01*
X110453983Y-93898540D01*
X110453990Y-93898553D01*
X110552535Y-94046034D01*
X110552538Y-94046038D01*
X110677961Y-94171461D01*
X110677965Y-94171464D01*
X110825446Y-94270009D01*
X110825459Y-94270016D01*
X110948363Y-94320923D01*
X110989334Y-94337894D01*
X110989336Y-94337894D01*
X110989341Y-94337896D01*
X111163304Y-94372499D01*
X111163307Y-94372500D01*
X111163309Y-94372500D01*
X111340693Y-94372500D01*
X111340694Y-94372499D01*
X111398682Y-94360964D01*
X111514658Y-94337896D01*
X111514661Y-94337894D01*
X111514666Y-94337894D01*
X111678547Y-94270013D01*
X111826035Y-94171464D01*
X111863679Y-94133820D01*
X111925001Y-94100334D01*
X111951361Y-94097500D01*
X112685207Y-94097500D01*
X112745629Y-94085481D01*
X112806052Y-94073463D01*
X112843839Y-94057811D01*
X112919886Y-94026312D01*
X112971109Y-93992084D01*
X112976237Y-93988658D01*
X112983871Y-93983556D01*
X113022333Y-93957858D01*
X113109458Y-93870733D01*
X113109459Y-93870731D01*
X113116525Y-93863665D01*
X113116528Y-93863661D01*
X120700162Y-86280026D01*
X120761483Y-86246543D01*
X120826162Y-86249779D01*
X120841757Y-86254846D01*
X121051713Y-86288100D01*
X121051714Y-86288100D01*
X121264286Y-86288100D01*
X121264287Y-86288100D01*
X121474243Y-86254846D01*
X121676412Y-86189157D01*
X121676418Y-86189153D01*
X121680625Y-86187412D01*
X121750094Y-86179947D01*
X121812572Y-86211226D01*
X121848221Y-86271317D01*
X121845723Y-86341142D01*
X121815752Y-86389657D01*
X119354144Y-88851264D01*
X119354138Y-88851272D01*
X119285690Y-88953708D01*
X119285688Y-88953713D01*
X119238540Y-89067538D01*
X119238535Y-89067554D01*
X119223273Y-89144286D01*
X119214500Y-89188389D01*
X119214500Y-101459893D01*
X119238535Y-101580726D01*
X119238540Y-101580743D01*
X119285685Y-101694562D01*
X119285687Y-101694565D01*
X119285688Y-101694568D01*
X119319915Y-101745791D01*
X119354142Y-101797015D01*
X119441267Y-101884140D01*
X119441270Y-101884142D01*
X119448554Y-101891426D01*
X120938181Y-103381053D01*
X120971666Y-103442376D01*
X120974500Y-103468734D01*
X120974500Y-106545546D01*
X120954815Y-106612585D01*
X120938181Y-106633227D01*
X120864146Y-106707261D01*
X120864143Y-106707265D01*
X120841196Y-106741608D01*
X120841195Y-106741609D01*
X120795690Y-106809709D01*
X120795685Y-106809718D01*
X120765484Y-106882631D01*
X120765482Y-106882638D01*
X120762347Y-106890207D01*
X120748537Y-106923548D01*
X120740544Y-106963733D01*
X120731642Y-107008490D01*
X120730863Y-107012402D01*
X120730862Y-107012409D01*
X120724500Y-107044393D01*
X120724500Y-110972638D01*
X120704815Y-111039677D01*
X120688181Y-111060319D01*
X120650538Y-111097961D01*
X120650535Y-111097965D01*
X120551990Y-111245446D01*
X120551983Y-111245459D01*
X120484106Y-111409332D01*
X120484103Y-111409341D01*
X120449500Y-111583304D01*
X120449500Y-111760695D01*
X120484103Y-111934658D01*
X120484106Y-111934667D01*
X120551983Y-112098540D01*
X120551990Y-112098553D01*
X120650535Y-112246034D01*
X120650538Y-112246038D01*
X120775961Y-112371461D01*
X120775965Y-112371464D01*
X120923446Y-112470009D01*
X120923459Y-112470016D01*
X121046363Y-112520923D01*
X121087334Y-112537894D01*
X121087336Y-112537894D01*
X121087341Y-112537896D01*
X121261304Y-112572499D01*
X121261307Y-112572500D01*
X121261309Y-112572500D01*
X121438693Y-112572500D01*
X121438694Y-112572499D01*
X121496682Y-112560964D01*
X121612658Y-112537896D01*
X121612661Y-112537894D01*
X121612666Y-112537894D01*
X121776547Y-112470013D01*
X121924035Y-112371464D01*
X122049464Y-112246035D01*
X122148013Y-112098547D01*
X122153546Y-112085187D01*
X122197386Y-112030783D01*
X122263679Y-112008717D01*
X122307104Y-112014930D01*
X122444309Y-112060396D01*
X122547097Y-112070897D01*
X123947114Y-112070896D01*
X124049903Y-112060396D01*
X124216440Y-112005211D01*
X124365762Y-111913109D01*
X124429425Y-111849446D01*
X124490748Y-111815961D01*
X124560440Y-111820945D01*
X124604787Y-111849446D01*
X124668450Y-111913109D01*
X124817772Y-112005211D01*
X124984309Y-112060396D01*
X125087097Y-112070897D01*
X126487114Y-112070896D01*
X126589903Y-112060396D01*
X126756440Y-112005211D01*
X126905762Y-111913109D01*
X126994425Y-111824446D01*
X127055748Y-111790961D01*
X127125440Y-111795945D01*
X127169787Y-111824446D01*
X127233450Y-111888109D01*
X127382772Y-111980211D01*
X127549309Y-112035396D01*
X127652097Y-112045897D01*
X129002114Y-112045896D01*
X129104903Y-112035396D01*
X129271440Y-111980211D01*
X129420762Y-111888109D01*
X129544818Y-111764053D01*
X129623736Y-111636104D01*
X129675681Y-111589382D01*
X129744644Y-111578159D01*
X129808726Y-111606002D01*
X129816954Y-111613522D01*
X129824741Y-111621309D01*
X129824745Y-111621312D01*
X129972226Y-111719857D01*
X129972239Y-111719864D01*
X130078923Y-111764053D01*
X130136114Y-111787742D01*
X130136116Y-111787742D01*
X130136121Y-111787744D01*
X130310084Y-111822347D01*
X130310087Y-111822348D01*
X130310089Y-111822348D01*
X130487473Y-111822348D01*
X130487474Y-111822347D01*
X130597117Y-111800538D01*
X130661438Y-111787744D01*
X130661441Y-111787742D01*
X130661446Y-111787742D01*
X130825327Y-111719861D01*
X130972815Y-111621312D01*
X131098244Y-111495883D01*
X131196793Y-111348395D01*
X131264674Y-111184514D01*
X131265374Y-111180999D01*
X131299279Y-111010543D01*
X131299280Y-111010541D01*
X131299280Y-110833154D01*
X131299279Y-110833152D01*
X131264676Y-110659189D01*
X131264673Y-110659180D01*
X131196796Y-110495307D01*
X131196789Y-110495294D01*
X131098244Y-110347813D01*
X131098241Y-110347809D01*
X130972818Y-110222386D01*
X130972814Y-110222383D01*
X130825333Y-110123838D01*
X130825320Y-110123831D01*
X130661447Y-110055954D01*
X130661438Y-110055951D01*
X130487474Y-110021348D01*
X130487471Y-110021348D01*
X130310089Y-110021348D01*
X130310086Y-110021348D01*
X130136121Y-110055951D01*
X130136112Y-110055954D01*
X129972239Y-110123831D01*
X129972226Y-110123838D01*
X129819680Y-110225768D01*
X129818359Y-110223791D01*
X129763726Y-110246990D01*
X129694859Y-110235194D01*
X129643302Y-110188039D01*
X129636997Y-110176229D01*
X129636922Y-110176070D01*
X129636920Y-110176063D01*
X129544818Y-110026741D01*
X129420762Y-109902685D01*
X129293619Y-109824263D01*
X129271442Y-109810584D01*
X129271437Y-109810582D01*
X129269968Y-109810095D01*
X129104903Y-109755398D01*
X129104901Y-109755397D01*
X129002116Y-109744897D01*
X127652104Y-109744897D01*
X127652087Y-109744898D01*
X127549309Y-109755397D01*
X127549306Y-109755398D01*
X127382774Y-109810582D01*
X127382769Y-109810584D01*
X127233448Y-109902686D01*
X127157287Y-109978848D01*
X127095964Y-110012333D01*
X127026272Y-110007349D01*
X126981925Y-109978848D01*
X126905763Y-109902686D01*
X126905762Y-109902685D01*
X126778619Y-109824263D01*
X126756442Y-109810584D01*
X126756437Y-109810582D01*
X126754968Y-109810095D01*
X126589903Y-109755398D01*
X126589901Y-109755397D01*
X126487116Y-109744897D01*
X125087104Y-109744897D01*
X125087087Y-109744898D01*
X124984309Y-109755397D01*
X124984306Y-109755398D01*
X124817774Y-109810582D01*
X124817769Y-109810584D01*
X124668448Y-109902686D01*
X124604787Y-109966348D01*
X124543464Y-109999833D01*
X124473772Y-109994849D01*
X124429425Y-109966348D01*
X124365763Y-109902686D01*
X124365762Y-109902685D01*
X124238619Y-109824263D01*
X124216442Y-109810584D01*
X124216437Y-109810582D01*
X124214968Y-109810095D01*
X124049903Y-109755398D01*
X124049901Y-109755397D01*
X123947116Y-109744897D01*
X122547104Y-109744897D01*
X122547087Y-109744898D01*
X122444309Y-109755397D01*
X122444306Y-109755398D01*
X122277774Y-109810582D01*
X122277765Y-109810587D01*
X122164596Y-109880389D01*
X122097203Y-109898829D01*
X122030540Y-109877906D01*
X121985771Y-109824263D01*
X121975500Y-109774850D01*
X121975500Y-108915355D01*
X121995185Y-108848316D01*
X122047989Y-108802561D01*
X122117147Y-108792617D01*
X122164597Y-108809817D01*
X122277975Y-108879750D01*
X122277986Y-108879755D01*
X122444408Y-108934902D01*
X122444415Y-108934903D01*
X122547125Y-108945396D01*
X122997105Y-108945396D01*
X123497106Y-108945396D01*
X123947078Y-108945396D01*
X123947092Y-108945395D01*
X124049803Y-108934902D01*
X124216225Y-108879755D01*
X124216230Y-108879753D01*
X124365451Y-108787712D01*
X124429425Y-108723739D01*
X124490748Y-108690254D01*
X124560440Y-108695238D01*
X124604787Y-108723739D01*
X124668760Y-108787712D01*
X124817981Y-108879753D01*
X124817986Y-108879755D01*
X124984408Y-108934902D01*
X124984415Y-108934903D01*
X125087125Y-108945396D01*
X125537105Y-108945396D01*
X125537106Y-108945395D01*
X125537106Y-108032897D01*
X123497106Y-108032897D01*
X123497106Y-108945396D01*
X122997105Y-108945396D01*
X122997106Y-108945395D01*
X122997106Y-107532897D01*
X123497106Y-107532897D01*
X125537106Y-107532897D01*
X125537106Y-106620397D01*
X125087134Y-106620397D01*
X125087118Y-106620398D01*
X124984408Y-106630891D01*
X124817986Y-106686038D01*
X124817981Y-106686040D01*
X124668760Y-106778081D01*
X124604787Y-106842055D01*
X124543464Y-106875540D01*
X124473772Y-106870556D01*
X124429425Y-106842055D01*
X124365451Y-106778081D01*
X124216230Y-106686040D01*
X124216225Y-106686038D01*
X124049803Y-106630891D01*
X124049796Y-106630890D01*
X123947092Y-106620397D01*
X123497106Y-106620397D01*
X123497106Y-107532897D01*
X122997106Y-107532897D01*
X122997106Y-106620397D01*
X122547134Y-106620397D01*
X122547118Y-106620398D01*
X122444408Y-106630891D01*
X122388504Y-106649416D01*
X122360039Y-106650395D01*
X122331853Y-106654448D01*
X122325574Y-106651580D01*
X122318675Y-106651818D01*
X122294201Y-106637253D01*
X122268297Y-106625423D01*
X122264564Y-106619615D01*
X122258634Y-106616086D01*
X122245920Y-106590604D01*
X122230523Y-106566645D01*
X122229128Y-106556947D01*
X122227441Y-106553565D01*
X122225500Y-106531710D01*
X122225500Y-106294500D01*
X122245185Y-106227461D01*
X122297989Y-106181706D01*
X122349500Y-106170500D01*
X122468693Y-106170500D01*
X122468694Y-106170499D01*
X122526682Y-106158964D01*
X122642658Y-106135896D01*
X122642661Y-106135894D01*
X122642666Y-106135894D01*
X122806547Y-106068013D01*
X122954035Y-105969464D01*
X123079464Y-105844035D01*
X123178013Y-105696547D01*
X123245894Y-105532666D01*
X123253209Y-105495894D01*
X123280499Y-105358695D01*
X123280500Y-105358693D01*
X123280500Y-105181306D01*
X123280499Y-105181304D01*
X123245896Y-105007341D01*
X123245893Y-105007332D01*
X123178016Y-104843459D01*
X123178009Y-104843446D01*
X123079464Y-104695965D01*
X123079461Y-104695961D01*
X123046819Y-104663319D01*
X123032115Y-104636391D01*
X123015523Y-104610573D01*
X123014631Y-104604372D01*
X123013334Y-104601996D01*
X123010500Y-104575638D01*
X123010500Y-104541304D01*
X125299500Y-104541304D01*
X125299500Y-104718695D01*
X125334103Y-104892658D01*
X125334106Y-104892667D01*
X125401983Y-105056540D01*
X125401990Y-105056553D01*
X125500535Y-105204034D01*
X125500538Y-105204038D01*
X125625961Y-105329461D01*
X125625965Y-105329464D01*
X125773446Y-105428009D01*
X125773459Y-105428016D01*
X125896363Y-105478923D01*
X125937334Y-105495894D01*
X125937336Y-105495894D01*
X125937341Y-105495896D01*
X126111304Y-105530499D01*
X126111307Y-105530500D01*
X126111309Y-105530500D01*
X126200462Y-105530500D01*
X126242557Y-105537864D01*
X126256781Y-105542997D01*
X126273714Y-105554312D01*
X126350674Y-105586189D01*
X126387548Y-105601463D01*
X126447971Y-105613481D01*
X126508393Y-105625500D01*
X126508394Y-105625500D01*
X129905548Y-105625500D01*
X129972587Y-105645185D01*
X130018342Y-105697989D01*
X130028286Y-105767147D01*
X129999261Y-105830703D01*
X129993229Y-105837181D01*
X129754203Y-106076205D01*
X129754195Y-106076213D01*
X129751270Y-106079139D01*
X129751267Y-106079142D01*
X129664142Y-106166267D01*
X129632057Y-106214286D01*
X129627592Y-106220967D01*
X129627585Y-106220976D01*
X129595690Y-106268708D01*
X129595688Y-106268713D01*
X129573871Y-106321385D01*
X129557576Y-106360725D01*
X129557574Y-106360730D01*
X129553676Y-106370143D01*
X129548537Y-106382549D01*
X129525663Y-106497549D01*
X129525279Y-106499478D01*
X129525275Y-106499496D01*
X129524500Y-106503394D01*
X129524500Y-106644496D01*
X129504815Y-106711535D01*
X129452011Y-106757290D01*
X129382853Y-106767234D01*
X129335405Y-106750035D01*
X129271451Y-106710589D01*
X129271444Y-106710585D01*
X129271440Y-106710583D01*
X129104903Y-106655398D01*
X129104901Y-106655397D01*
X129002116Y-106644897D01*
X127652104Y-106644897D01*
X127652087Y-106644898D01*
X127549309Y-106655397D01*
X127549306Y-106655398D01*
X127382774Y-106710582D01*
X127382769Y-106710584D01*
X127233451Y-106802684D01*
X127169433Y-106866702D01*
X127108109Y-106900186D01*
X127038418Y-106895201D01*
X126994071Y-106866701D01*
X126905451Y-106778081D01*
X126756230Y-106686040D01*
X126756225Y-106686038D01*
X126589803Y-106630891D01*
X126589796Y-106630890D01*
X126487092Y-106620397D01*
X126037106Y-106620397D01*
X126037106Y-108945396D01*
X126487078Y-108945396D01*
X126487092Y-108945395D01*
X126589803Y-108934902D01*
X126756225Y-108879755D01*
X126756230Y-108879753D01*
X126905448Y-108787714D01*
X126981570Y-108711592D01*
X127042893Y-108678107D01*
X127112585Y-108683091D01*
X127156933Y-108711592D01*
X127233450Y-108788109D01*
X127382772Y-108880211D01*
X127549309Y-108935396D01*
X127652097Y-108945897D01*
X129002114Y-108945896D01*
X129104903Y-108935396D01*
X129271440Y-108880211D01*
X129420762Y-108788109D01*
X129544818Y-108664053D01*
X129568005Y-108626460D01*
X129619948Y-108579736D01*
X129688911Y-108568512D01*
X129720995Y-108576995D01*
X129791406Y-108606159D01*
X129887334Y-108645894D01*
X129887336Y-108645894D01*
X129887341Y-108645896D01*
X130061304Y-108680499D01*
X130061307Y-108680500D01*
X130061309Y-108680500D01*
X130238693Y-108680500D01*
X130238694Y-108680499D01*
X130296682Y-108668964D01*
X130412658Y-108645896D01*
X130412661Y-108645894D01*
X130412666Y-108645894D01*
X130576547Y-108578013D01*
X130724035Y-108479464D01*
X130849464Y-108354035D01*
X130948013Y-108206547D01*
X131015894Y-108042666D01*
X131017838Y-108032897D01*
X131050499Y-107868695D01*
X131050500Y-107868693D01*
X131050500Y-107691306D01*
X131050499Y-107691304D01*
X131015896Y-107517341D01*
X131015893Y-107517332D01*
X130948016Y-107353459D01*
X130948009Y-107353446D01*
X130849464Y-107205965D01*
X130849461Y-107205961D01*
X130811819Y-107168319D01*
X130797115Y-107141391D01*
X130780523Y-107115573D01*
X130779631Y-107109372D01*
X130778334Y-107106996D01*
X130775500Y-107080638D01*
X130775500Y-106875452D01*
X130795185Y-106808413D01*
X130811819Y-106787771D01*
X134187771Y-103411819D01*
X134249094Y-103378334D01*
X134275452Y-103375500D01*
X138061607Y-103375500D01*
X138061608Y-103375499D01*
X138182452Y-103351463D01*
X138296286Y-103304311D01*
X138398733Y-103235858D01*
X138485858Y-103148733D01*
X138499213Y-103128744D01*
X138514630Y-103109958D01*
X139312379Y-102312211D01*
X139373701Y-102278727D01*
X139443393Y-102283711D01*
X139499326Y-102325583D01*
X139523417Y-102387291D01*
X139525001Y-102402797D01*
X139525001Y-102402799D01*
X139549167Y-102475725D01*
X139580186Y-102569334D01*
X139672288Y-102718656D01*
X139796344Y-102842712D01*
X139945666Y-102934814D01*
X140112203Y-102989999D01*
X140214991Y-103000500D01*
X141140008Y-103000499D01*
X141140016Y-103000498D01*
X141140019Y-103000498D01*
X141196302Y-102994748D01*
X141242797Y-102989999D01*
X141409334Y-102934814D01*
X141558656Y-102842712D01*
X141682712Y-102718656D01*
X141774814Y-102569334D01*
X141829999Y-102402797D01*
X141840500Y-102300009D01*
X141840500Y-102299986D01*
X142640001Y-102299986D01*
X142650494Y-102402697D01*
X142705641Y-102569119D01*
X142705643Y-102569124D01*
X142797684Y-102718345D01*
X142921654Y-102842315D01*
X143070875Y-102934356D01*
X143070880Y-102934358D01*
X143237302Y-102989505D01*
X143237309Y-102989506D01*
X143340019Y-102999999D01*
X143552499Y-102999999D01*
X144052500Y-102999999D01*
X144264972Y-102999999D01*
X144264986Y-102999998D01*
X144367697Y-102989505D01*
X144534119Y-102934358D01*
X144534124Y-102934356D01*
X144683345Y-102842315D01*
X144807315Y-102718345D01*
X144899356Y-102569124D01*
X144899358Y-102569119D01*
X144954505Y-102402697D01*
X144954506Y-102402690D01*
X144964999Y-102299986D01*
X144965000Y-102299973D01*
X144965000Y-101850000D01*
X144052500Y-101850000D01*
X144052500Y-102999999D01*
X143552499Y-102999999D01*
X143552500Y-102999998D01*
X143552500Y-101850000D01*
X142640001Y-101850000D01*
X142640001Y-102299986D01*
X141840500Y-102299986D01*
X141840499Y-101592951D01*
X141840499Y-100899998D01*
X141840498Y-100899981D01*
X141829999Y-100797203D01*
X141829998Y-100797200D01*
X141797576Y-100699358D01*
X141774814Y-100630666D01*
X141682712Y-100481344D01*
X141587299Y-100385931D01*
X141553814Y-100324608D01*
X141558798Y-100254916D01*
X141587299Y-100210569D01*
X141599447Y-100198421D01*
X141644212Y-100153656D01*
X141736314Y-100004334D01*
X141791499Y-99837797D01*
X141802000Y-99735009D01*
X141801999Y-98384992D01*
X141791499Y-98282203D01*
X141736314Y-98115666D01*
X141644212Y-97966344D01*
X141520156Y-97842288D01*
X141520152Y-97842285D01*
X141439628Y-97792617D01*
X141392903Y-97740669D01*
X141381682Y-97671707D01*
X141409525Y-97607625D01*
X141439629Y-97581540D01*
X141558343Y-97508317D01*
X141682315Y-97384345D01*
X141774356Y-97235124D01*
X141774358Y-97235119D01*
X141829505Y-97068697D01*
X141829506Y-97068690D01*
X141839999Y-96965986D01*
X141840000Y-96965973D01*
X141840000Y-96516000D01*
X140801500Y-96516000D01*
X140734461Y-96496315D01*
X140688706Y-96443511D01*
X140677500Y-96392000D01*
X140677500Y-96266000D01*
X140551500Y-96266000D01*
X140484461Y-96246315D01*
X140438706Y-96193511D01*
X140427500Y-96142000D01*
X140427500Y-96016000D01*
X140927500Y-96016000D01*
X141839999Y-96016000D01*
X141839999Y-95566028D01*
X141839998Y-95566013D01*
X141829505Y-95463302D01*
X141774358Y-95296880D01*
X141774356Y-95296875D01*
X141682315Y-95147654D01*
X141558345Y-95023684D01*
X141409124Y-94931643D01*
X141409119Y-94931641D01*
X141242697Y-94876494D01*
X141242690Y-94876493D01*
X141139986Y-94866000D01*
X140927500Y-94866000D01*
X140927500Y-96016000D01*
X140427500Y-96016000D01*
X140427500Y-94866000D01*
X140215029Y-94866000D01*
X140215012Y-94866001D01*
X140112302Y-94876494D01*
X139945880Y-94931641D01*
X139945875Y-94931643D01*
X139814597Y-95012617D01*
X139747204Y-95031057D01*
X139680541Y-95010134D01*
X139635771Y-94956492D01*
X139625500Y-94907078D01*
X139625500Y-93637304D01*
X140831500Y-93637304D01*
X140831500Y-93814695D01*
X140866103Y-93988658D01*
X140866106Y-93988667D01*
X140933983Y-94152540D01*
X140933990Y-94152553D01*
X141032535Y-94300034D01*
X141032538Y-94300038D01*
X141157961Y-94425461D01*
X141157965Y-94425464D01*
X141305446Y-94524009D01*
X141305459Y-94524016D01*
X141428363Y-94574923D01*
X141469334Y-94591894D01*
X141469336Y-94591894D01*
X141469341Y-94591896D01*
X141643304Y-94626499D01*
X141643307Y-94626500D01*
X141643309Y-94626500D01*
X141696548Y-94626500D01*
X141763587Y-94646185D01*
X141784229Y-94662819D01*
X142603181Y-95481771D01*
X142636666Y-95543094D01*
X142639500Y-95569452D01*
X142639500Y-96966001D01*
X142639501Y-96966018D01*
X142650000Y-97068796D01*
X142650001Y-97068799D01*
X142705115Y-97235119D01*
X142705186Y-97235334D01*
X142797288Y-97384656D01*
X142921344Y-97508712D01*
X143001396Y-97558088D01*
X143048120Y-97610034D01*
X143059343Y-97678997D01*
X143031500Y-97743079D01*
X143001396Y-97769165D01*
X142882842Y-97842289D01*
X142758789Y-97966342D01*
X142666687Y-98115663D01*
X142666685Y-98115668D01*
X142654382Y-98152796D01*
X142611501Y-98282203D01*
X142611501Y-98282204D01*
X142611500Y-98282204D01*
X142601000Y-98384983D01*
X142601000Y-99735001D01*
X142601001Y-99735018D01*
X142611500Y-99837796D01*
X142611501Y-99837799D01*
X142666685Y-100004331D01*
X142666687Y-100004336D01*
X142758789Y-100153657D01*
X142854554Y-100249422D01*
X142888039Y-100310745D01*
X142883055Y-100380437D01*
X142854555Y-100424784D01*
X142797682Y-100481657D01*
X142705643Y-100630875D01*
X142705641Y-100630880D01*
X142650494Y-100797302D01*
X142650493Y-100797309D01*
X142640000Y-100900013D01*
X142640000Y-101350000D01*
X144964999Y-101350000D01*
X144964999Y-100900028D01*
X144964998Y-100900013D01*
X144954505Y-100797302D01*
X144899358Y-100630880D01*
X144899356Y-100630875D01*
X144807315Y-100481654D01*
X144699445Y-100373784D01*
X144665960Y-100312461D01*
X144670944Y-100242769D01*
X144699444Y-100198423D01*
X144744212Y-100153656D01*
X144836314Y-100004334D01*
X144891499Y-99837797D01*
X144902000Y-99735009D01*
X144901999Y-98384992D01*
X144891499Y-98282203D01*
X144836314Y-98115666D01*
X144744212Y-97966344D01*
X144620156Y-97842288D01*
X144552603Y-97800621D01*
X144505880Y-97748674D01*
X144494657Y-97679711D01*
X144522501Y-97615629D01*
X144552603Y-97589545D01*
X144683656Y-97508712D01*
X144807712Y-97384656D01*
X144899814Y-97235334D01*
X144954999Y-97068797D01*
X144965500Y-96966009D01*
X144965499Y-95565992D01*
X144954999Y-95463203D01*
X144899814Y-95296666D01*
X144807712Y-95147344D01*
X144683656Y-95023288D01*
X144534334Y-94931186D01*
X144367797Y-94876001D01*
X144367795Y-94876000D01*
X144265016Y-94865500D01*
X144265009Y-94865500D01*
X143807452Y-94865500D01*
X143740413Y-94845815D01*
X143719771Y-94829181D01*
X142668819Y-93778229D01*
X142635334Y-93716906D01*
X142632500Y-93690548D01*
X142632500Y-93637306D01*
X142632499Y-93637304D01*
X142597896Y-93463341D01*
X142597893Y-93463332D01*
X142530016Y-93299459D01*
X142530009Y-93299446D01*
X142431464Y-93151965D01*
X142431461Y-93151961D01*
X142306038Y-93026538D01*
X142306034Y-93026535D01*
X142158553Y-92927990D01*
X142158540Y-92927983D01*
X141994667Y-92860106D01*
X141994658Y-92860103D01*
X141820694Y-92825500D01*
X141820691Y-92825500D01*
X141643309Y-92825500D01*
X141643306Y-92825500D01*
X141469341Y-92860103D01*
X141469332Y-92860106D01*
X141305459Y-92927983D01*
X141305446Y-92927990D01*
X141157965Y-93026535D01*
X141157961Y-93026538D01*
X141032538Y-93151961D01*
X141032535Y-93151965D01*
X140933990Y-93299446D01*
X140933983Y-93299459D01*
X140866106Y-93463332D01*
X140866103Y-93463341D01*
X140831500Y-93637304D01*
X139625500Y-93637304D01*
X139625500Y-91703952D01*
X139645185Y-91636913D01*
X139661819Y-91616271D01*
X140797272Y-90480819D01*
X140858595Y-90447334D01*
X140884953Y-90444500D01*
X142965003Y-90444500D01*
X142965008Y-90444500D01*
X143067797Y-90433999D01*
X143234334Y-90378814D01*
X143383655Y-90286711D01*
X143507711Y-90162655D01*
X143599814Y-90013334D01*
X143654999Y-89846797D01*
X143665500Y-89744008D01*
X143665500Y-87443992D01*
X143654999Y-87341203D01*
X143599814Y-87174666D01*
X143545113Y-87085983D01*
X143507713Y-87025348D01*
X143507710Y-87025344D01*
X143383655Y-86901289D01*
X143383651Y-86901286D01*
X143234337Y-86809187D01*
X143234335Y-86809186D01*
X143151065Y-86781593D01*
X143067797Y-86754001D01*
X143067795Y-86754000D01*
X142965015Y-86743500D01*
X142965008Y-86743500D01*
X140664992Y-86743500D01*
X140664984Y-86743500D01*
X140562204Y-86754000D01*
X140562203Y-86754001D01*
X140395664Y-86809186D01*
X140395662Y-86809187D01*
X140246348Y-86901286D01*
X140246344Y-86901289D01*
X140122289Y-87025344D01*
X140122286Y-87025348D01*
X140030187Y-87174662D01*
X140030186Y-87174664D01*
X139975001Y-87341203D01*
X139975000Y-87341204D01*
X139964500Y-87443984D01*
X139964500Y-89493047D01*
X139944815Y-89560086D01*
X139928181Y-89580728D01*
X138514144Y-90994764D01*
X138514138Y-90994772D01*
X138479914Y-91045989D01*
X138479915Y-91045990D01*
X138445691Y-91097208D01*
X138445684Y-91097221D01*
X138423225Y-91151444D01*
X138423222Y-91151451D01*
X138420207Y-91158733D01*
X138398537Y-91211048D01*
X138389481Y-91256577D01*
X138376369Y-91322500D01*
X138375533Y-91326700D01*
X138375531Y-91326709D01*
X138375018Y-91329289D01*
X138374500Y-91331894D01*
X138374500Y-91331897D01*
X138374500Y-95939547D01*
X138354815Y-96006586D01*
X138338181Y-96027228D01*
X130027229Y-104338181D01*
X129965906Y-104371666D01*
X129939548Y-104374500D01*
X127151717Y-104374500D01*
X127084678Y-104354815D01*
X127038923Y-104302011D01*
X127037156Y-104297952D01*
X126998016Y-104203459D01*
X126998009Y-104203446D01*
X126899464Y-104055965D01*
X126899461Y-104055961D01*
X126774038Y-103930538D01*
X126774034Y-103930535D01*
X126626553Y-103831990D01*
X126626540Y-103831983D01*
X126462667Y-103764106D01*
X126462658Y-103764103D01*
X126288694Y-103729500D01*
X126288691Y-103729500D01*
X126111309Y-103729500D01*
X126111306Y-103729500D01*
X125937341Y-103764103D01*
X125937332Y-103764106D01*
X125773459Y-103831983D01*
X125773446Y-103831990D01*
X125625965Y-103930535D01*
X125625961Y-103930538D01*
X125500538Y-104055961D01*
X125500535Y-104055965D01*
X125401990Y-104203446D01*
X125401983Y-104203459D01*
X125334106Y-104367332D01*
X125334103Y-104367341D01*
X125299500Y-104541304D01*
X123010500Y-104541304D01*
X123010500Y-103243868D01*
X123001651Y-103199380D01*
X122986463Y-103123020D01*
X122972652Y-103089679D01*
X122939312Y-103009186D01*
X122889617Y-102934814D01*
X122870858Y-102906739D01*
X122870855Y-102906735D01*
X122780637Y-102816517D01*
X122780606Y-102816488D01*
X121537663Y-101573545D01*
X128764474Y-101573545D01*
X128802923Y-101766836D01*
X128802926Y-101766846D01*
X128878343Y-101948921D01*
X128878344Y-101948923D01*
X128987841Y-102112796D01*
X128987844Y-102112800D01*
X129127199Y-102252155D01*
X129127203Y-102252158D01*
X129291074Y-102361654D01*
X129291075Y-102361654D01*
X129291076Y-102361655D01*
X129291078Y-102361656D01*
X129473153Y-102437073D01*
X129473158Y-102437075D01*
X129473162Y-102437075D01*
X129473163Y-102437076D01*
X129666454Y-102475525D01*
X129666457Y-102475525D01*
X129863545Y-102475525D01*
X129993588Y-102449657D01*
X130056842Y-102437075D01*
X130238926Y-102361654D01*
X130330929Y-102300178D01*
X130397604Y-102279300D01*
X130464984Y-102297784D01*
X130468711Y-102300179D01*
X130560970Y-102361826D01*
X130560978Y-102361830D01*
X130560979Y-102361831D01*
X130743099Y-102437268D01*
X130935432Y-102475525D01*
X130936432Y-102475724D01*
X130936436Y-102475725D01*
X130936437Y-102475725D01*
X131133564Y-102475725D01*
X131133565Y-102475724D01*
X131326901Y-102437268D01*
X131509021Y-102361831D01*
X131672925Y-102252314D01*
X131812314Y-102112925D01*
X131921831Y-101949021D01*
X131997268Y-101766901D01*
X132035725Y-101573563D01*
X132035725Y-101376437D01*
X131997268Y-101183099D01*
X131921871Y-101001076D01*
X131921832Y-101000981D01*
X131921827Y-101000972D01*
X131812314Y-100837075D01*
X131812311Y-100837071D01*
X131672928Y-100697688D01*
X131672924Y-100697685D01*
X131509027Y-100588172D01*
X131509018Y-100588167D01*
X131326901Y-100512732D01*
X131326893Y-100512730D01*
X131133567Y-100474275D01*
X131133563Y-100474275D01*
X130936437Y-100474275D01*
X130936432Y-100474275D01*
X130743106Y-100512730D01*
X130743098Y-100512732D01*
X130560980Y-100588168D01*
X130468709Y-100649821D01*
X130402031Y-100670698D01*
X130334651Y-100652213D01*
X130330928Y-100649820D01*
X130238931Y-100588349D01*
X130238919Y-100588342D01*
X130056846Y-100512926D01*
X130056836Y-100512923D01*
X129863545Y-100474475D01*
X129863543Y-100474475D01*
X129666457Y-100474475D01*
X129666455Y-100474475D01*
X129473163Y-100512923D01*
X129473153Y-100512926D01*
X129291078Y-100588343D01*
X129291076Y-100588344D01*
X129127203Y-100697841D01*
X129127199Y-100697844D01*
X128987844Y-100837199D01*
X128987841Y-100837203D01*
X128878344Y-101001076D01*
X128878343Y-101001078D01*
X128802926Y-101183153D01*
X128802923Y-101183163D01*
X128764475Y-101376454D01*
X128764475Y-101376457D01*
X128764475Y-101573543D01*
X128764475Y-101573545D01*
X128764474Y-101573545D01*
X121537663Y-101573545D01*
X121201819Y-101237701D01*
X121168334Y-101176378D01*
X121165500Y-101150020D01*
X121165500Y-91518362D01*
X121185185Y-91451323D01*
X121237989Y-91405568D01*
X121307147Y-91395624D01*
X121370703Y-91424649D01*
X121377181Y-91430681D01*
X121405961Y-91459461D01*
X121405965Y-91459464D01*
X121553446Y-91558009D01*
X121553459Y-91558016D01*
X121676363Y-91608923D01*
X121717334Y-91625894D01*
X121717336Y-91625894D01*
X121717341Y-91625896D01*
X121891304Y-91660499D01*
X121891307Y-91660500D01*
X121891309Y-91660500D01*
X122068693Y-91660500D01*
X122068694Y-91660499D01*
X122126682Y-91648964D01*
X122242658Y-91625896D01*
X122242661Y-91625894D01*
X122242666Y-91625894D01*
X122406547Y-91558013D01*
X122554035Y-91459464D01*
X122591679Y-91421820D01*
X122653001Y-91388334D01*
X122679361Y-91385500D01*
X124281607Y-91385500D01*
X124342029Y-91373481D01*
X124402452Y-91361463D01*
X124443498Y-91344461D01*
X124516286Y-91314312D01*
X124571377Y-91277500D01*
X124618733Y-91245858D01*
X124705858Y-91158733D01*
X124705859Y-91158730D01*
X124712925Y-91151665D01*
X124712927Y-91151661D01*
X128897771Y-86966819D01*
X128959094Y-86933334D01*
X128985452Y-86930500D01*
X129038693Y-86930500D01*
X129038694Y-86930499D01*
X129096682Y-86918964D01*
X129212658Y-86895896D01*
X129212661Y-86895894D01*
X129212666Y-86895894D01*
X129376547Y-86828013D01*
X129524035Y-86729464D01*
X129649464Y-86604035D01*
X129748013Y-86456547D01*
X129815894Y-86292666D01*
X129816803Y-86288100D01*
X129839197Y-86175515D01*
X129850500Y-86118691D01*
X129850500Y-85941309D01*
X129850500Y-85941306D01*
X129850499Y-85941304D01*
X129815896Y-85767341D01*
X129815893Y-85767332D01*
X129748016Y-85603459D01*
X129748009Y-85603446D01*
X129649464Y-85455965D01*
X129649461Y-85455961D01*
X129524038Y-85330538D01*
X129524034Y-85330535D01*
X129376553Y-85231990D01*
X129376540Y-85231983D01*
X129212667Y-85164106D01*
X129212658Y-85164103D01*
X129038694Y-85129500D01*
X129038691Y-85129500D01*
X128861309Y-85129500D01*
X128861306Y-85129500D01*
X128687341Y-85164103D01*
X128687332Y-85164106D01*
X128523459Y-85231983D01*
X128523446Y-85231990D01*
X128375965Y-85330535D01*
X128375961Y-85330538D01*
X128250538Y-85455961D01*
X128250535Y-85455965D01*
X128151990Y-85603446D01*
X128151983Y-85603459D01*
X128084106Y-85767332D01*
X128084103Y-85767341D01*
X128049500Y-85941304D01*
X128049500Y-85994548D01*
X128029815Y-86061587D01*
X128013181Y-86082229D01*
X123997229Y-90098181D01*
X123935906Y-90131666D01*
X123909548Y-90134500D01*
X122679361Y-90134500D01*
X122612322Y-90114815D01*
X122591679Y-90098180D01*
X122554038Y-90060538D01*
X122554034Y-90060535D01*
X122406553Y-89961990D01*
X122406540Y-89961983D01*
X122242667Y-89894106D01*
X122242658Y-89894103D01*
X122068694Y-89859500D01*
X122068691Y-89859500D01*
X121891309Y-89859500D01*
X121891306Y-89859500D01*
X121717341Y-89894103D01*
X121717332Y-89894106D01*
X121553459Y-89961983D01*
X121553446Y-89961990D01*
X121422372Y-90049572D01*
X121355694Y-90070450D01*
X121288314Y-90051965D01*
X121241624Y-89999987D01*
X121230448Y-89931017D01*
X121258334Y-89866953D01*
X121265789Y-89858800D01*
X126611838Y-84512751D01*
X139965000Y-84512751D01*
X139965000Y-84755248D01*
X139965001Y-84755264D01*
X139996653Y-84995687D01*
X140059421Y-85229939D01*
X140152220Y-85453978D01*
X140152227Y-85453992D01*
X140273481Y-85664010D01*
X140342061Y-85753384D01*
X141060884Y-85034560D01*
X141061740Y-85036626D01*
X141154762Y-85175844D01*
X141273156Y-85294238D01*
X141412374Y-85387260D01*
X141414437Y-85388114D01*
X140695614Y-86106936D01*
X140695614Y-86106937D01*
X140784989Y-86175517D01*
X140784996Y-86175522D01*
X140995007Y-86296772D01*
X140995021Y-86296779D01*
X141219060Y-86389578D01*
X141453312Y-86452346D01*
X141693735Y-86483998D01*
X141693752Y-86484000D01*
X141936248Y-86484000D01*
X141936264Y-86483998D01*
X142176687Y-86452346D01*
X142410939Y-86389578D01*
X142634978Y-86296779D01*
X142634992Y-86296772D01*
X142845016Y-86175515D01*
X142934384Y-86106939D01*
X142934384Y-86106936D01*
X142215562Y-85388114D01*
X142217626Y-85387260D01*
X142356844Y-85294238D01*
X142475238Y-85175844D01*
X142568260Y-85036626D01*
X142569114Y-85034562D01*
X143287936Y-85753384D01*
X143287939Y-85753384D01*
X143356515Y-85664016D01*
X143477772Y-85453992D01*
X143477779Y-85453978D01*
X143570578Y-85229939D01*
X143633346Y-84995687D01*
X143664998Y-84755264D01*
X143665000Y-84755248D01*
X143665000Y-84512751D01*
X143664998Y-84512735D01*
X143633346Y-84272312D01*
X143570578Y-84038060D01*
X143477779Y-83814021D01*
X143477772Y-83814007D01*
X143356522Y-83603996D01*
X143356517Y-83603989D01*
X143287937Y-83514614D01*
X143287936Y-83514614D01*
X142569114Y-84233436D01*
X142568260Y-84231374D01*
X142475238Y-84092156D01*
X142356844Y-83973762D01*
X142217626Y-83880740D01*
X142215560Y-83879884D01*
X142934384Y-83161061D01*
X142845010Y-83092481D01*
X142634992Y-82971227D01*
X142634978Y-82971220D01*
X142410939Y-82878421D01*
X142176687Y-82815653D01*
X141936264Y-82784001D01*
X141936248Y-82784000D01*
X141693752Y-82784000D01*
X141693735Y-82784001D01*
X141453312Y-82815653D01*
X141219060Y-82878421D01*
X140995021Y-82971220D01*
X140995006Y-82971227D01*
X140784990Y-83092480D01*
X140695614Y-83161060D01*
X140695614Y-83161061D01*
X141414438Y-83879885D01*
X141412374Y-83880740D01*
X141273156Y-83973762D01*
X141154762Y-84092156D01*
X141061740Y-84231374D01*
X141060885Y-84233438D01*
X140342061Y-83514614D01*
X140342060Y-83514614D01*
X140273480Y-83603990D01*
X140152227Y-83814006D01*
X140152220Y-83814021D01*
X140059421Y-84038060D01*
X139996653Y-84272312D01*
X139965001Y-84512735D01*
X139965000Y-84512751D01*
X126611838Y-84512751D01*
X128103729Y-83020860D01*
X128103733Y-83020858D01*
X128190858Y-82933733D01*
X128259311Y-82831286D01*
X128306463Y-82717452D01*
X128330500Y-82596606D01*
X128330500Y-81259993D01*
X133211500Y-81259993D01*
X133211500Y-81437384D01*
X133246103Y-81611347D01*
X133246106Y-81611356D01*
X133313983Y-81775229D01*
X133313990Y-81775242D01*
X133412535Y-81922723D01*
X133412538Y-81922727D01*
X133537961Y-82048150D01*
X133537965Y-82048153D01*
X133685446Y-82146698D01*
X133685459Y-82146705D01*
X133808363Y-82197612D01*
X133849334Y-82214583D01*
X133849336Y-82214583D01*
X133849341Y-82214585D01*
X134023304Y-82249188D01*
X134023307Y-82249189D01*
X134023309Y-82249189D01*
X134200693Y-82249189D01*
X134200694Y-82249188D01*
X134258682Y-82237653D01*
X134374658Y-82214585D01*
X134374661Y-82214583D01*
X134374666Y-82214583D01*
X134538547Y-82146702D01*
X134686035Y-82048153D01*
X134811464Y-81922724D01*
X134910013Y-81775236D01*
X134977894Y-81611355D01*
X134978389Y-81608869D01*
X135012499Y-81437384D01*
X135012500Y-81437382D01*
X135012500Y-81384141D01*
X135032185Y-81317102D01*
X135048819Y-81296460D01*
X136336260Y-80009019D01*
X136397583Y-79975534D01*
X136423941Y-79972700D01*
X139757500Y-79972700D01*
X139824539Y-79992385D01*
X139870294Y-80045189D01*
X139881500Y-80096700D01*
X139881500Y-80497215D01*
X139892000Y-80599995D01*
X139892001Y-80599996D01*
X139947186Y-80766535D01*
X139947187Y-80766537D01*
X140039286Y-80915851D01*
X140039289Y-80915855D01*
X140163344Y-81039910D01*
X140163348Y-81039913D01*
X140312662Y-81132012D01*
X140312664Y-81132013D01*
X140312666Y-81132014D01*
X140479203Y-81187199D01*
X140581992Y-81197700D01*
X140581997Y-81197700D01*
X142882003Y-81197700D01*
X142882008Y-81197700D01*
X142984797Y-81187199D01*
X143151334Y-81132014D01*
X143300655Y-81039911D01*
X143424711Y-80915855D01*
X143516814Y-80766534D01*
X143571999Y-80599997D01*
X143582500Y-80497208D01*
X143582500Y-78197192D01*
X143571999Y-78094403D01*
X143516814Y-77927866D01*
X143508443Y-77914295D01*
X143424713Y-77778548D01*
X143424710Y-77778544D01*
X143300655Y-77654489D01*
X143300651Y-77654486D01*
X143151337Y-77562387D01*
X143151335Y-77562386D01*
X143068065Y-77534793D01*
X142984797Y-77507201D01*
X142984795Y-77507200D01*
X142882015Y-77496700D01*
X142882008Y-77496700D01*
X140581992Y-77496700D01*
X140581984Y-77496700D01*
X140479204Y-77507200D01*
X140479203Y-77507201D01*
X140312664Y-77562386D01*
X140312662Y-77562387D01*
X140163348Y-77654486D01*
X140163344Y-77654489D01*
X140039289Y-77778544D01*
X140039286Y-77778548D01*
X139947187Y-77927862D01*
X139947186Y-77927864D01*
X139892001Y-78094403D01*
X139892000Y-78094404D01*
X139881500Y-78197184D01*
X139881500Y-78597700D01*
X139861815Y-78664739D01*
X139809011Y-78710494D01*
X139757500Y-78721700D01*
X136051878Y-78721700D01*
X136001024Y-78731815D01*
X136001019Y-78731816D01*
X135991460Y-78733718D01*
X135931037Y-78745737D01*
X135883886Y-78765267D01*
X135817204Y-78792888D01*
X135817203Y-78792889D01*
X135794836Y-78807833D01*
X135794833Y-78807835D01*
X135714757Y-78861340D01*
X135671194Y-78904903D01*
X135627631Y-78948467D01*
X135627628Y-78948470D01*
X134878364Y-79697735D01*
X134164229Y-80411870D01*
X134102906Y-80445355D01*
X134076548Y-80448189D01*
X134023306Y-80448189D01*
X133849341Y-80482792D01*
X133849332Y-80482795D01*
X133685459Y-80550672D01*
X133685446Y-80550679D01*
X133537965Y-80649224D01*
X133537961Y-80649227D01*
X133412538Y-80774650D01*
X133412535Y-80774654D01*
X133313990Y-80922135D01*
X133313983Y-80922148D01*
X133246106Y-81086021D01*
X133246103Y-81086030D01*
X133211500Y-81259993D01*
X128330500Y-81259993D01*
X128330500Y-79666252D01*
X128350185Y-79599213D01*
X128366819Y-79578571D01*
X129335371Y-78610019D01*
X129396694Y-78576534D01*
X129423052Y-78573700D01*
X129476293Y-78573700D01*
X129476294Y-78573699D01*
X129534282Y-78562164D01*
X129650258Y-78539096D01*
X129650261Y-78539094D01*
X129650266Y-78539094D01*
X129814147Y-78471213D01*
X129961635Y-78372664D01*
X130087064Y-78247235D01*
X130185613Y-78099747D01*
X130253494Y-77935866D01*
X130255086Y-77927866D01*
X130288099Y-77761895D01*
X130288100Y-77761893D01*
X130288100Y-77584506D01*
X130288099Y-77584504D01*
X130253496Y-77410541D01*
X130253493Y-77410532D01*
X130248735Y-77399046D01*
X130187646Y-77251561D01*
X130185616Y-77246659D01*
X130185609Y-77246646D01*
X130087064Y-77099165D01*
X130087061Y-77099161D01*
X129961638Y-76973738D01*
X129961634Y-76973735D01*
X129814153Y-76875190D01*
X129814140Y-76875183D01*
X129650267Y-76807306D01*
X129650258Y-76807303D01*
X129476294Y-76772700D01*
X129476291Y-76772700D01*
X129298909Y-76772700D01*
X129298906Y-76772700D01*
X129124941Y-76807303D01*
X129124932Y-76807306D01*
X128961059Y-76875183D01*
X128961046Y-76875190D01*
X128813565Y-76973735D01*
X128813561Y-76973738D01*
X128688138Y-77099161D01*
X128688135Y-77099165D01*
X128589590Y-77246646D01*
X128589583Y-77246659D01*
X128521706Y-77410532D01*
X128521703Y-77410541D01*
X128487100Y-77584504D01*
X128487100Y-77637747D01*
X128467415Y-77704786D01*
X128450781Y-77725428D01*
X127219144Y-78957064D01*
X127219138Y-78957072D01*
X127150692Y-79059505D01*
X127150684Y-79059520D01*
X127117346Y-79140007D01*
X127117347Y-79140008D01*
X127107099Y-79164750D01*
X127107098Y-79164752D01*
X127103539Y-79173343D01*
X127103534Y-79173359D01*
X127081210Y-79285593D01*
X127081211Y-79285594D01*
X127079500Y-79294196D01*
X127079500Y-82224548D01*
X127070855Y-82253988D01*
X127064332Y-82283975D01*
X127060577Y-82288990D01*
X127059815Y-82291587D01*
X127043181Y-82312229D01*
X127017181Y-82338229D01*
X126955858Y-82371714D01*
X126886166Y-82366730D01*
X126830233Y-82324858D01*
X126805816Y-82259394D01*
X126805500Y-82250548D01*
X126805500Y-78823565D01*
X126825185Y-78756526D01*
X126877989Y-78710771D01*
X126905302Y-78701949D01*
X126957866Y-78691494D01*
X127121747Y-78623613D01*
X127269235Y-78525064D01*
X127394664Y-78399635D01*
X127493213Y-78252147D01*
X127561094Y-78088266D01*
X127572605Y-78030400D01*
X127593000Y-77927864D01*
X127595700Y-77914291D01*
X127595700Y-77736909D01*
X127595700Y-77736906D01*
X127595699Y-77736904D01*
X127561096Y-77562941D01*
X127561093Y-77562932D01*
X127493216Y-77399059D01*
X127493209Y-77399046D01*
X127394664Y-77251565D01*
X127394661Y-77251561D01*
X127269238Y-77126138D01*
X127269234Y-77126135D01*
X127121753Y-77027590D01*
X127121740Y-77027583D01*
X126957867Y-76959706D01*
X126957858Y-76959703D01*
X126783894Y-76925100D01*
X126783891Y-76925100D01*
X126606509Y-76925100D01*
X126606506Y-76925100D01*
X126432541Y-76959703D01*
X126432532Y-76959706D01*
X126268659Y-77027583D01*
X126268646Y-77027590D01*
X126121165Y-77126135D01*
X126121161Y-77126138D01*
X125995738Y-77251561D01*
X125995735Y-77251565D01*
X125897190Y-77399046D01*
X125897183Y-77399059D01*
X125829306Y-77562932D01*
X125829303Y-77562941D01*
X125794700Y-77736904D01*
X125794700Y-77790146D01*
X125787059Y-77816166D01*
X125782887Y-77842968D01*
X125776537Y-77851999D01*
X125775015Y-77857185D01*
X125763460Y-77872435D01*
X125760992Y-77875216D01*
X125694142Y-77942067D01*
X125675822Y-77969485D01*
X125671112Y-77976533D01*
X125671110Y-77976536D01*
X125635119Y-78030400D01*
X125625688Y-78044514D01*
X125594528Y-78119742D01*
X125578538Y-78158344D01*
X125578535Y-78158356D01*
X125554500Y-78279189D01*
X125554500Y-79260902D01*
X125534815Y-79327941D01*
X125482011Y-79373696D01*
X125412853Y-79383640D01*
X125406309Y-79382519D01*
X125310694Y-79363500D01*
X125310691Y-79363500D01*
X125133309Y-79363500D01*
X125133306Y-79363500D01*
X124959341Y-79398103D01*
X124959332Y-79398106D01*
X124795459Y-79465983D01*
X124795446Y-79465990D01*
X124647965Y-79564535D01*
X124647961Y-79564538D01*
X124522538Y-79689961D01*
X124522535Y-79689965D01*
X124423990Y-79837446D01*
X124423983Y-79837459D01*
X124356106Y-80001332D01*
X124356103Y-80001341D01*
X124321500Y-80175304D01*
X124321500Y-80352695D01*
X124356103Y-80526658D01*
X124356105Y-80526662D01*
X124356106Y-80526666D01*
X124383626Y-80593107D01*
X124420537Y-80682220D01*
X124428005Y-80751689D01*
X124396729Y-80814168D01*
X124393656Y-80817352D01*
X121615837Y-83595171D01*
X121554514Y-83628656D01*
X121489838Y-83625421D01*
X121482219Y-83622945D01*
X121474241Y-83620353D01*
X121303797Y-83593357D01*
X121264287Y-83587100D01*
X121051713Y-83587100D01*
X121003042Y-83594808D01*
X120841760Y-83620353D01*
X120639585Y-83686044D01*
X120450179Y-83782551D01*
X120278213Y-83907490D01*
X120127890Y-84057813D01*
X120002949Y-84229782D01*
X119998202Y-84239099D01*
X119950227Y-84289893D01*
X119882405Y-84306687D01*
X119816271Y-84284148D01*
X119777234Y-84239095D01*
X119772626Y-84230052D01*
X119733270Y-84175882D01*
X119733269Y-84175882D01*
X119100962Y-84808190D01*
X119083925Y-84744607D01*
X119018099Y-84630593D01*
X118925007Y-84537501D01*
X118810993Y-84471675D01*
X118747409Y-84454637D01*
X119379716Y-83822328D01*
X119325550Y-83782975D01*
X119136217Y-83686504D01*
X118934129Y-83620842D01*
X118724246Y-83587600D01*
X118511754Y-83587600D01*
X118301872Y-83620842D01*
X118301869Y-83620842D01*
X118099782Y-83686504D01*
X117910439Y-83782980D01*
X117856282Y-83822327D01*
X117856282Y-83822328D01*
X118488591Y-84454637D01*
X118425007Y-84471675D01*
X118310993Y-84537501D01*
X118217901Y-84630593D01*
X118152075Y-84744607D01*
X118135037Y-84808191D01*
X117502728Y-84175882D01*
X117502727Y-84175882D01*
X117463380Y-84230040D01*
X117463376Y-84230046D01*
X117458760Y-84239105D01*
X117410781Y-84289897D01*
X117342959Y-84306687D01*
X117276826Y-84284143D01*
X117237794Y-84239093D01*
X117233051Y-84229784D01*
X117233049Y-84229781D01*
X117233048Y-84229779D01*
X117108109Y-84057813D01*
X116957786Y-83907490D01*
X116785820Y-83782551D01*
X116596414Y-83686044D01*
X116596413Y-83686043D01*
X116596412Y-83686043D01*
X116394243Y-83620354D01*
X116394241Y-83620353D01*
X116394240Y-83620353D01*
X116232957Y-83594808D01*
X116184287Y-83587100D01*
X115971713Y-83587100D01*
X115923042Y-83594808D01*
X115761760Y-83620353D01*
X115559585Y-83686044D01*
X115370179Y-83782551D01*
X115198213Y-83907490D01*
X115047890Y-84057813D01*
X114922949Y-84229782D01*
X114918484Y-84238546D01*
X114870509Y-84289342D01*
X114802688Y-84306136D01*
X114736553Y-84283598D01*
X114697516Y-84238546D01*
X114693050Y-84229782D01*
X114568109Y-84057813D01*
X114417786Y-83907490D01*
X114245820Y-83782551D01*
X114056414Y-83686044D01*
X114056413Y-83686043D01*
X114056412Y-83686043D01*
X113854243Y-83620354D01*
X113854241Y-83620353D01*
X113854240Y-83620353D01*
X113692957Y-83594808D01*
X113644287Y-83587100D01*
X113431713Y-83587100D01*
X113383042Y-83594808D01*
X113221760Y-83620353D01*
X113019585Y-83686044D01*
X112830179Y-83782551D01*
X112658213Y-83907490D01*
X112507890Y-84057813D01*
X112382949Y-84229782D01*
X112378484Y-84238546D01*
X112330509Y-84289342D01*
X112262688Y-84306136D01*
X112196553Y-84283598D01*
X112157516Y-84238546D01*
X112153050Y-84229782D01*
X112028109Y-84057813D01*
X111877786Y-83907490D01*
X111705820Y-83782551D01*
X111516414Y-83686044D01*
X111516413Y-83686043D01*
X111516412Y-83686043D01*
X111314243Y-83620354D01*
X111314241Y-83620353D01*
X111314240Y-83620353D01*
X111152957Y-83594808D01*
X111104287Y-83587100D01*
X110891713Y-83587100D01*
X110843042Y-83594808D01*
X110681760Y-83620353D01*
X110479585Y-83686044D01*
X110290179Y-83782551D01*
X110118213Y-83907490D01*
X109967890Y-84057813D01*
X109842949Y-84229782D01*
X109838484Y-84238546D01*
X109790509Y-84289342D01*
X109722688Y-84306136D01*
X109656553Y-84283598D01*
X109617516Y-84238546D01*
X109613050Y-84229782D01*
X109488109Y-84057813D01*
X109337786Y-83907490D01*
X109165820Y-83782551D01*
X108976414Y-83686044D01*
X108976413Y-83686043D01*
X108976412Y-83686043D01*
X108774243Y-83620354D01*
X108774241Y-83620353D01*
X108774240Y-83620353D01*
X108612957Y-83594808D01*
X108564287Y-83587100D01*
X108351713Y-83587100D01*
X108303042Y-83594808D01*
X108141760Y-83620353D01*
X107939585Y-83686044D01*
X107750179Y-83782551D01*
X107578213Y-83907490D01*
X107427890Y-84057813D01*
X107302949Y-84229782D01*
X107298484Y-84238546D01*
X107250509Y-84289342D01*
X107182688Y-84306136D01*
X107116553Y-84283598D01*
X107077516Y-84238546D01*
X107073050Y-84229782D01*
X106948109Y-84057813D01*
X106797786Y-83907490D01*
X106625820Y-83782551D01*
X106436414Y-83686044D01*
X106436413Y-83686043D01*
X106436412Y-83686043D01*
X106234243Y-83620354D01*
X106234241Y-83620353D01*
X106234240Y-83620353D01*
X106072957Y-83594808D01*
X106024287Y-83587100D01*
X105811713Y-83587100D01*
X105763042Y-83594808D01*
X105601760Y-83620353D01*
X105399585Y-83686044D01*
X105210179Y-83782551D01*
X105038215Y-83907489D01*
X104924673Y-84021031D01*
X104863350Y-84054515D01*
X104793658Y-84049531D01*
X104737725Y-84007659D01*
X104720810Y-83976682D01*
X104671797Y-83845271D01*
X104671793Y-83845264D01*
X104585547Y-83730055D01*
X104585544Y-83730052D01*
X104470335Y-83643806D01*
X104470328Y-83643802D01*
X104335482Y-83593508D01*
X104335483Y-83593508D01*
X104275883Y-83587101D01*
X104275881Y-83587100D01*
X104275873Y-83587100D01*
X104275864Y-83587100D01*
X102480129Y-83587100D01*
X102480123Y-83587101D01*
X102420516Y-83593508D01*
X102285671Y-83643802D01*
X102285664Y-83643806D01*
X102170455Y-83730052D01*
X102170452Y-83730055D01*
X102084206Y-83845264D01*
X102084202Y-83845271D01*
X102033908Y-83980117D01*
X102027501Y-84039716D01*
X102027500Y-84039735D01*
X85489700Y-84039735D01*
X85489700Y-78759151D01*
X93095200Y-78759151D01*
X93095200Y-79001648D01*
X93095201Y-79001664D01*
X93126853Y-79242087D01*
X93189621Y-79476339D01*
X93282420Y-79700378D01*
X93282427Y-79700392D01*
X93403681Y-79910410D01*
X93472261Y-79999784D01*
X94191084Y-79280960D01*
X94191940Y-79283026D01*
X94284962Y-79422244D01*
X94403356Y-79540638D01*
X94542574Y-79633660D01*
X94544637Y-79634514D01*
X93825814Y-80353336D01*
X93825814Y-80353337D01*
X93915189Y-80421917D01*
X93915196Y-80421922D01*
X94125207Y-80543172D01*
X94125221Y-80543179D01*
X94349260Y-80635978D01*
X94583512Y-80698746D01*
X94823935Y-80730398D01*
X94823952Y-80730400D01*
X95066448Y-80730400D01*
X95066464Y-80730398D01*
X95306887Y-80698746D01*
X95541139Y-80635978D01*
X95765178Y-80543179D01*
X95765192Y-80543172D01*
X95975216Y-80421915D01*
X96064584Y-80353339D01*
X96064584Y-80353336D01*
X95345762Y-79634514D01*
X95347826Y-79633660D01*
X95487044Y-79540638D01*
X95605438Y-79422244D01*
X95698460Y-79283026D01*
X95699314Y-79280962D01*
X96418136Y-79999784D01*
X96418139Y-79999784D01*
X96486715Y-79910416D01*
X96607972Y-79700392D01*
X96607979Y-79700378D01*
X96700778Y-79476339D01*
X96763546Y-79242087D01*
X96795198Y-79001664D01*
X96795200Y-79001648D01*
X96795200Y-78759151D01*
X96795198Y-78759135D01*
X96763546Y-78518712D01*
X96700778Y-78284460D01*
X96607979Y-78060421D01*
X96607972Y-78060407D01*
X96486722Y-77850396D01*
X96486717Y-77850389D01*
X96418137Y-77761014D01*
X96418136Y-77761014D01*
X95699314Y-78479836D01*
X95698460Y-78477774D01*
X95605438Y-78338556D01*
X95487044Y-78220162D01*
X95347826Y-78127140D01*
X95345760Y-78126284D01*
X96064584Y-77407461D01*
X95975210Y-77338881D01*
X95765192Y-77217627D01*
X95765178Y-77217620D01*
X95541139Y-77124821D01*
X95306887Y-77062053D01*
X95066464Y-77030401D01*
X95066448Y-77030400D01*
X94823952Y-77030400D01*
X94823935Y-77030401D01*
X94583512Y-77062053D01*
X94349260Y-77124821D01*
X94125221Y-77217620D01*
X94125206Y-77217627D01*
X93915190Y-77338880D01*
X93825814Y-77407460D01*
X93825814Y-77407461D01*
X94544638Y-78126285D01*
X94542574Y-78127140D01*
X94403356Y-78220162D01*
X94284962Y-78338556D01*
X94191940Y-78477774D01*
X94191085Y-78479838D01*
X93472261Y-77761014D01*
X93472260Y-77761014D01*
X93403680Y-77850390D01*
X93282427Y-78060406D01*
X93282420Y-78060421D01*
X93189621Y-78284460D01*
X93126853Y-78518712D01*
X93095201Y-78759135D01*
X93095200Y-78759151D01*
X85489700Y-78759151D01*
X85489700Y-74799111D01*
X93094700Y-74799111D01*
X93094700Y-75041688D01*
X93126361Y-75282185D01*
X93189147Y-75516504D01*
X93281973Y-75740605D01*
X93281976Y-75740612D01*
X93403264Y-75950689D01*
X93403266Y-75950692D01*
X93403267Y-75950693D01*
X93550933Y-76143136D01*
X93550939Y-76143143D01*
X93722456Y-76314660D01*
X93722462Y-76314665D01*
X93914911Y-76462336D01*
X94124988Y-76583624D01*
X94349100Y-76676454D01*
X94583411Y-76739238D01*
X94763786Y-76762984D01*
X94823911Y-76770900D01*
X94823912Y-76770900D01*
X95066489Y-76770900D01*
X95114588Y-76764567D01*
X95306989Y-76739238D01*
X95541300Y-76676454D01*
X95765412Y-76583624D01*
X95975489Y-76462336D01*
X96167938Y-76314665D01*
X96339465Y-76143138D01*
X96487136Y-75950689D01*
X96608424Y-75740612D01*
X96701254Y-75516500D01*
X96764038Y-75282189D01*
X96766181Y-75265911D01*
X139881500Y-75265911D01*
X139881500Y-75508488D01*
X139913161Y-75748985D01*
X139975947Y-75983304D01*
X140042152Y-76143136D01*
X140068776Y-76207412D01*
X140190064Y-76417489D01*
X140190066Y-76417492D01*
X140190067Y-76417493D01*
X140337733Y-76609936D01*
X140337739Y-76609943D01*
X140509256Y-76781460D01*
X140509262Y-76781465D01*
X140701711Y-76929136D01*
X140911788Y-77050424D01*
X141135900Y-77143254D01*
X141370211Y-77206038D01*
X141550586Y-77229784D01*
X141610711Y-77237700D01*
X141610712Y-77237700D01*
X141853289Y-77237700D01*
X141901388Y-77231367D01*
X142093789Y-77206038D01*
X142328100Y-77143254D01*
X142552212Y-77050424D01*
X142762289Y-76929136D01*
X142954738Y-76781465D01*
X143126265Y-76609938D01*
X143273936Y-76417489D01*
X143395224Y-76207412D01*
X143488054Y-75983300D01*
X143550838Y-75748989D01*
X143582500Y-75508488D01*
X143582500Y-75265912D01*
X143550838Y-75025411D01*
X143488054Y-74791100D01*
X143395224Y-74566988D01*
X143273936Y-74356911D01*
X143126265Y-74164462D01*
X143126260Y-74164456D01*
X142954743Y-73992939D01*
X142954736Y-73992933D01*
X142762293Y-73845267D01*
X142762292Y-73845266D01*
X142762289Y-73845264D01*
X142552212Y-73723976D01*
X142488687Y-73697663D01*
X142328104Y-73631147D01*
X142093785Y-73568361D01*
X141853289Y-73536700D01*
X141853288Y-73536700D01*
X141610712Y-73536700D01*
X141610711Y-73536700D01*
X141370214Y-73568361D01*
X141135895Y-73631147D01*
X140911794Y-73723973D01*
X140911785Y-73723977D01*
X140701706Y-73845267D01*
X140509263Y-73992933D01*
X140509256Y-73992939D01*
X140337739Y-74164456D01*
X140337733Y-74164463D01*
X140190067Y-74356906D01*
X140068777Y-74566985D01*
X140068773Y-74566994D01*
X139975947Y-74791095D01*
X139913161Y-75025414D01*
X139881500Y-75265911D01*
X96766181Y-75265911D01*
X96795700Y-75041688D01*
X96795700Y-74799112D01*
X96764038Y-74558611D01*
X96701254Y-74324300D01*
X96608424Y-74100188D01*
X96487136Y-73890111D01*
X96359657Y-73723977D01*
X96339466Y-73697663D01*
X96339460Y-73697656D01*
X96167943Y-73526139D01*
X96167936Y-73526133D01*
X95975493Y-73378467D01*
X95975492Y-73378466D01*
X95975489Y-73378464D01*
X95765412Y-73257176D01*
X95737335Y-73245546D01*
X95541304Y-73164347D01*
X95306985Y-73101561D01*
X95066489Y-73069900D01*
X95066488Y-73069900D01*
X94823912Y-73069900D01*
X94823911Y-73069900D01*
X94583414Y-73101561D01*
X94349095Y-73164347D01*
X94124994Y-73257173D01*
X94124985Y-73257177D01*
X93914906Y-73378467D01*
X93722463Y-73526133D01*
X93722456Y-73526139D01*
X93550939Y-73697656D01*
X93550933Y-73697663D01*
X93403267Y-73890106D01*
X93281977Y-74100185D01*
X93281973Y-74100194D01*
X93189147Y-74324295D01*
X93126361Y-74558614D01*
X93094700Y-74799111D01*
X85489700Y-74799111D01*
X85489700Y-70839112D01*
X93094700Y-70839112D01*
X93094700Y-71081688D01*
X93126362Y-71322189D01*
X93154500Y-71427199D01*
X93189147Y-71556504D01*
X93281973Y-71780605D01*
X93281977Y-71780614D01*
X93304174Y-71819061D01*
X93403264Y-71990689D01*
X93403266Y-71990692D01*
X93403267Y-71990693D01*
X93550933Y-72183136D01*
X93550939Y-72183143D01*
X93722456Y-72354660D01*
X93722462Y-72354665D01*
X93914911Y-72502336D01*
X94124988Y-72623624D01*
X94349100Y-72716454D01*
X94583411Y-72779238D01*
X94763786Y-72802984D01*
X94823911Y-72810900D01*
X94823912Y-72810900D01*
X95066489Y-72810900D01*
X95114588Y-72804567D01*
X95306989Y-72779238D01*
X95541300Y-72716454D01*
X95765412Y-72623624D01*
X95975489Y-72502336D01*
X96167938Y-72354665D01*
X96339465Y-72183138D01*
X96487136Y-71990689D01*
X96608424Y-71780612D01*
X96701254Y-71556500D01*
X96764038Y-71322189D01*
X96766176Y-71305951D01*
X139882000Y-71305951D01*
X139882000Y-71548448D01*
X139882001Y-71548464D01*
X139913653Y-71788887D01*
X139976421Y-72023139D01*
X140069220Y-72247178D01*
X140069227Y-72247192D01*
X140190481Y-72457210D01*
X140259061Y-72546584D01*
X140977884Y-71827760D01*
X140978740Y-71829826D01*
X141071762Y-71969044D01*
X141190156Y-72087438D01*
X141329374Y-72180460D01*
X141331437Y-72181314D01*
X140612614Y-72900136D01*
X140612614Y-72900137D01*
X140701989Y-72968717D01*
X140701996Y-72968722D01*
X140912007Y-73089972D01*
X140912021Y-73089979D01*
X141136060Y-73182778D01*
X141370312Y-73245546D01*
X141610735Y-73277198D01*
X141610752Y-73277200D01*
X141853248Y-73277200D01*
X141853264Y-73277198D01*
X142093687Y-73245546D01*
X142327939Y-73182778D01*
X142551978Y-73089979D01*
X142551992Y-73089972D01*
X142762016Y-72968715D01*
X142851384Y-72900139D01*
X142851384Y-72900136D01*
X142132562Y-72181314D01*
X142134626Y-72180460D01*
X142273844Y-72087438D01*
X142392238Y-71969044D01*
X142485260Y-71829826D01*
X142486114Y-71827762D01*
X143204936Y-72546584D01*
X143204939Y-72546584D01*
X143273515Y-72457216D01*
X143394772Y-72247192D01*
X143394779Y-72247178D01*
X143487578Y-72023139D01*
X143550346Y-71788887D01*
X143581998Y-71548464D01*
X143582000Y-71548448D01*
X143582000Y-71305951D01*
X143581998Y-71305935D01*
X143550346Y-71065512D01*
X143487578Y-70831260D01*
X143394779Y-70607221D01*
X143394772Y-70607207D01*
X143273522Y-70397196D01*
X143273517Y-70397189D01*
X143204937Y-70307814D01*
X143204936Y-70307814D01*
X142486114Y-71026636D01*
X142485260Y-71024574D01*
X142392238Y-70885356D01*
X142273844Y-70766962D01*
X142134626Y-70673940D01*
X142132560Y-70673084D01*
X142851384Y-69954261D01*
X142762010Y-69885681D01*
X142551992Y-69764427D01*
X142551978Y-69764420D01*
X142327939Y-69671621D01*
X142093687Y-69608853D01*
X141853264Y-69577201D01*
X141853248Y-69577200D01*
X141610752Y-69577200D01*
X141610735Y-69577201D01*
X141370312Y-69608853D01*
X141136060Y-69671621D01*
X140912021Y-69764420D01*
X140912006Y-69764427D01*
X140701990Y-69885680D01*
X140612614Y-69954260D01*
X140612614Y-69954261D01*
X141331438Y-70673085D01*
X141329374Y-70673940D01*
X141190156Y-70766962D01*
X141071762Y-70885356D01*
X140978740Y-71024574D01*
X140977885Y-71026638D01*
X140259061Y-70307814D01*
X140259060Y-70307814D01*
X140190480Y-70397190D01*
X140069227Y-70607206D01*
X140069220Y-70607221D01*
X139976421Y-70831260D01*
X139913653Y-71065512D01*
X139882001Y-71305935D01*
X139882000Y-71305951D01*
X96766176Y-71305951D01*
X96795700Y-71081688D01*
X96795700Y-70839112D01*
X96764038Y-70598611D01*
X96701254Y-70364300D01*
X96608424Y-70140188D01*
X96487136Y-69930111D01*
X96426218Y-69850721D01*
X96339466Y-69737663D01*
X96339460Y-69737656D01*
X96167943Y-69566139D01*
X96167936Y-69566133D01*
X95975493Y-69418467D01*
X95975492Y-69418466D01*
X95975489Y-69418464D01*
X95765412Y-69297176D01*
X95765405Y-69297173D01*
X95541304Y-69204347D01*
X95306985Y-69141561D01*
X95066489Y-69109900D01*
X95066488Y-69109900D01*
X94823912Y-69109900D01*
X94823911Y-69109900D01*
X94583414Y-69141561D01*
X94349095Y-69204347D01*
X94124994Y-69297173D01*
X94124985Y-69297177D01*
X93914906Y-69418467D01*
X93722463Y-69566133D01*
X93722456Y-69566139D01*
X93550939Y-69737656D01*
X93550933Y-69737663D01*
X93403267Y-69930106D01*
X93281977Y-70140185D01*
X93281973Y-70140194D01*
X93189147Y-70364295D01*
X93126361Y-70598614D01*
X93095734Y-70831260D01*
X93094700Y-70839112D01*
X85489700Y-70839112D01*
X85489700Y-66879111D01*
X93094700Y-66879111D01*
X93094700Y-67121688D01*
X93126361Y-67362185D01*
X93189147Y-67596504D01*
X93281973Y-67820605D01*
X93281976Y-67820612D01*
X93403264Y-68030689D01*
X93403266Y-68030692D01*
X93403267Y-68030693D01*
X93550933Y-68223136D01*
X93550939Y-68223143D01*
X93722456Y-68394660D01*
X93722462Y-68394665D01*
X93914911Y-68542336D01*
X94124988Y-68663624D01*
X94349100Y-68756454D01*
X94583411Y-68819238D01*
X94763786Y-68842984D01*
X94823911Y-68850900D01*
X94823912Y-68850900D01*
X95066489Y-68850900D01*
X95114588Y-68844567D01*
X95306989Y-68819238D01*
X95541300Y-68756454D01*
X95765412Y-68663624D01*
X95975489Y-68542336D01*
X96167938Y-68394665D01*
X96339465Y-68223138D01*
X96487136Y-68030689D01*
X96608424Y-67820612D01*
X96701254Y-67596500D01*
X96764038Y-67362189D01*
X96795700Y-67121688D01*
X96795700Y-66879112D01*
X96764038Y-66638611D01*
X96701254Y-66404300D01*
X96608424Y-66180188D01*
X96487136Y-65970111D01*
X96339465Y-65777662D01*
X96339460Y-65777656D01*
X96167943Y-65606139D01*
X96167936Y-65606133D01*
X95975493Y-65458467D01*
X95975492Y-65458466D01*
X95975489Y-65458464D01*
X95765412Y-65337176D01*
X95765405Y-65337173D01*
X95541304Y-65244347D01*
X95306985Y-65181561D01*
X95066489Y-65149900D01*
X95066488Y-65149900D01*
X94823912Y-65149900D01*
X94823911Y-65149900D01*
X94583414Y-65181561D01*
X94349095Y-65244347D01*
X94124994Y-65337173D01*
X94124985Y-65337177D01*
X93914906Y-65458467D01*
X93722463Y-65606133D01*
X93722456Y-65606139D01*
X93550939Y-65777656D01*
X93550933Y-65777663D01*
X93403267Y-65970106D01*
X93281977Y-66180185D01*
X93281973Y-66180194D01*
X93189147Y-66404295D01*
X93126361Y-66638614D01*
X93094700Y-66879111D01*
X85489700Y-66879111D01*
X85489700Y-62919111D01*
X93094700Y-62919111D01*
X93094700Y-63161688D01*
X93126361Y-63402185D01*
X93189147Y-63636504D01*
X93281973Y-63860605D01*
X93281976Y-63860612D01*
X93403264Y-64070689D01*
X93403266Y-64070692D01*
X93403267Y-64070693D01*
X93550933Y-64263136D01*
X93550939Y-64263143D01*
X93722456Y-64434660D01*
X93722462Y-64434665D01*
X93914911Y-64582336D01*
X94124988Y-64703624D01*
X94349100Y-64796454D01*
X94583411Y-64859238D01*
X94763786Y-64882984D01*
X94823911Y-64890900D01*
X94823912Y-64890900D01*
X95066489Y-64890900D01*
X95114588Y-64884567D01*
X95306989Y-64859238D01*
X95541300Y-64796454D01*
X95765412Y-64703624D01*
X95975489Y-64582336D01*
X96167938Y-64434665D01*
X96339465Y-64263138D01*
X96487136Y-64070689D01*
X96608424Y-63860612D01*
X96689323Y-63665304D01*
X134481500Y-63665304D01*
X134481500Y-63842695D01*
X134516103Y-64016658D01*
X134516106Y-64016667D01*
X134583983Y-64180540D01*
X134583990Y-64180553D01*
X134682535Y-64328034D01*
X134682538Y-64328038D01*
X134807961Y-64453461D01*
X134807965Y-64453464D01*
X134955446Y-64552009D01*
X134955459Y-64552016D01*
X135078363Y-64602923D01*
X135119334Y-64619894D01*
X135119336Y-64619894D01*
X135119341Y-64619896D01*
X135293304Y-64654499D01*
X135293307Y-64654500D01*
X135293309Y-64654500D01*
X135470693Y-64654500D01*
X135470694Y-64654499D01*
X135528682Y-64642964D01*
X135644658Y-64619896D01*
X135644661Y-64619894D01*
X135644666Y-64619894D01*
X135808547Y-64552013D01*
X135956035Y-64453464D01*
X136081464Y-64328035D01*
X136180013Y-64180547D01*
X136247894Y-64016666D01*
X136282500Y-63842691D01*
X136282500Y-63668384D01*
X139881500Y-63668384D01*
X139881500Y-65968415D01*
X139892000Y-66071195D01*
X139892001Y-66071196D01*
X139947186Y-66237735D01*
X139947187Y-66237737D01*
X140039286Y-66387051D01*
X140039289Y-66387055D01*
X140163344Y-66511110D01*
X140163348Y-66511113D01*
X140312662Y-66603212D01*
X140312664Y-66603213D01*
X140312666Y-66603214D01*
X140479203Y-66658399D01*
X140581992Y-66668900D01*
X140581997Y-66668900D01*
X142882003Y-66668900D01*
X142882008Y-66668900D01*
X142984797Y-66658399D01*
X143151334Y-66603214D01*
X143300655Y-66511111D01*
X143424711Y-66387055D01*
X143516814Y-66237734D01*
X143571999Y-66071197D01*
X143582500Y-65968408D01*
X143582500Y-63668392D01*
X143571999Y-63565603D01*
X143516814Y-63399066D01*
X143472642Y-63327453D01*
X143424713Y-63249748D01*
X143424710Y-63249744D01*
X143300655Y-63125689D01*
X143300651Y-63125686D01*
X143151337Y-63033587D01*
X143151335Y-63033586D01*
X143068065Y-63005993D01*
X142984797Y-62978401D01*
X142984795Y-62978400D01*
X142882015Y-62967900D01*
X142882008Y-62967900D01*
X140581992Y-62967900D01*
X140581984Y-62967900D01*
X140479204Y-62978400D01*
X140479203Y-62978401D01*
X140312664Y-63033586D01*
X140312662Y-63033587D01*
X140163348Y-63125686D01*
X140163344Y-63125689D01*
X140039289Y-63249744D01*
X140039286Y-63249748D01*
X139947187Y-63399062D01*
X139947186Y-63399064D01*
X139892001Y-63565603D01*
X139892000Y-63565604D01*
X139881500Y-63668384D01*
X136282500Y-63668384D01*
X136282500Y-63665309D01*
X136282500Y-63665306D01*
X136282499Y-63665304D01*
X136247896Y-63491341D01*
X136247893Y-63491332D01*
X136180016Y-63327459D01*
X136180009Y-63327446D01*
X136081464Y-63179965D01*
X136081461Y-63179961D01*
X135956038Y-63054538D01*
X135956034Y-63054535D01*
X135808553Y-62955990D01*
X135808540Y-62955983D01*
X135644667Y-62888106D01*
X135644658Y-62888103D01*
X135470694Y-62853500D01*
X135470691Y-62853500D01*
X135293309Y-62853500D01*
X135293306Y-62853500D01*
X135119341Y-62888103D01*
X135119332Y-62888106D01*
X134955459Y-62955983D01*
X134955446Y-62955990D01*
X134807965Y-63054535D01*
X134807961Y-63054538D01*
X134682538Y-63179961D01*
X134682535Y-63179965D01*
X134583990Y-63327446D01*
X134583983Y-63327459D01*
X134516106Y-63491332D01*
X134516103Y-63491341D01*
X134481500Y-63665304D01*
X96689323Y-63665304D01*
X96701254Y-63636500D01*
X96764038Y-63402189D01*
X96795700Y-63161688D01*
X96795700Y-62919112D01*
X96764038Y-62678611D01*
X96701254Y-62444300D01*
X96608424Y-62220188D01*
X96487136Y-62010111D01*
X96339465Y-61817662D01*
X96339460Y-61817656D01*
X96167943Y-61646139D01*
X96167936Y-61646133D01*
X95975493Y-61498467D01*
X95975492Y-61498466D01*
X95975489Y-61498464D01*
X95765412Y-61377176D01*
X95765405Y-61377173D01*
X95541304Y-61284347D01*
X95306985Y-61221561D01*
X95066489Y-61189900D01*
X95066488Y-61189900D01*
X94823912Y-61189900D01*
X94823911Y-61189900D01*
X94583414Y-61221561D01*
X94349095Y-61284347D01*
X94124994Y-61377173D01*
X94124985Y-61377177D01*
X93914906Y-61498467D01*
X93722463Y-61646133D01*
X93722456Y-61646139D01*
X93550939Y-61817656D01*
X93550933Y-61817663D01*
X93403267Y-62010106D01*
X93281977Y-62220185D01*
X93281973Y-62220194D01*
X93189147Y-62444295D01*
X93126361Y-62678614D01*
X93094700Y-62919111D01*
X85489700Y-62919111D01*
X85489700Y-58959111D01*
X93094700Y-58959111D01*
X93094700Y-59201688D01*
X93109810Y-59316467D01*
X93126362Y-59442189D01*
X93132244Y-59464139D01*
X93189147Y-59676504D01*
X93231476Y-59778695D01*
X93281976Y-59900612D01*
X93403264Y-60110689D01*
X93403266Y-60110692D01*
X93403267Y-60110693D01*
X93550933Y-60303136D01*
X93550939Y-60303143D01*
X93722456Y-60474660D01*
X93722463Y-60474666D01*
X93828321Y-60555893D01*
X93914911Y-60622336D01*
X94124988Y-60743624D01*
X94349100Y-60836454D01*
X94583411Y-60899238D01*
X94763786Y-60922984D01*
X94823911Y-60930900D01*
X94823912Y-60930900D01*
X95066489Y-60930900D01*
X95114588Y-60924567D01*
X95306989Y-60899238D01*
X95541300Y-60836454D01*
X95765412Y-60743624D01*
X95776693Y-60737111D01*
X139881500Y-60737111D01*
X139881500Y-60979688D01*
X139913161Y-61220185D01*
X139975947Y-61454504D01*
X140055325Y-61646139D01*
X140068776Y-61678612D01*
X140190064Y-61888689D01*
X140190066Y-61888692D01*
X140190067Y-61888693D01*
X140337733Y-62081136D01*
X140337739Y-62081143D01*
X140509256Y-62252660D01*
X140509262Y-62252665D01*
X140701711Y-62400336D01*
X140911788Y-62521624D01*
X141135900Y-62614454D01*
X141370211Y-62677238D01*
X141550586Y-62700984D01*
X141610711Y-62708900D01*
X141610712Y-62708900D01*
X141853289Y-62708900D01*
X141901388Y-62702567D01*
X142093789Y-62677238D01*
X142328100Y-62614454D01*
X142552212Y-62521624D01*
X142762289Y-62400336D01*
X142954738Y-62252665D01*
X143126265Y-62081138D01*
X143273936Y-61888689D01*
X143395224Y-61678612D01*
X143488054Y-61454500D01*
X143550838Y-61220189D01*
X143582500Y-60979688D01*
X143582500Y-60737112D01*
X143550838Y-60496611D01*
X143488054Y-60262300D01*
X143395224Y-60038188D01*
X143273936Y-59828111D01*
X143155752Y-59674090D01*
X143126266Y-59635663D01*
X143126260Y-59635656D01*
X142954743Y-59464139D01*
X142954736Y-59464133D01*
X142762293Y-59316467D01*
X142762292Y-59316466D01*
X142762289Y-59316464D01*
X142552212Y-59195176D01*
X142552205Y-59195173D01*
X142328104Y-59102347D01*
X142093785Y-59039561D01*
X141853289Y-59007900D01*
X141853288Y-59007900D01*
X141610712Y-59007900D01*
X141610711Y-59007900D01*
X141370214Y-59039561D01*
X141135895Y-59102347D01*
X140911794Y-59195173D01*
X140911785Y-59195177D01*
X140701706Y-59316467D01*
X140509263Y-59464133D01*
X140509256Y-59464139D01*
X140337739Y-59635656D01*
X140337733Y-59635663D01*
X140190067Y-59828106D01*
X140068777Y-60038185D01*
X140068773Y-60038194D01*
X139975947Y-60262295D01*
X139913161Y-60496614D01*
X139881500Y-60737111D01*
X95776693Y-60737111D01*
X95975489Y-60622336D01*
X96167938Y-60474665D01*
X96339465Y-60303138D01*
X96487136Y-60110689D01*
X96608424Y-59900612D01*
X96701254Y-59676500D01*
X96721403Y-59601304D01*
X134735500Y-59601304D01*
X134735500Y-59778695D01*
X134770103Y-59952658D01*
X134770106Y-59952667D01*
X134837983Y-60116540D01*
X134837990Y-60116553D01*
X134936535Y-60264034D01*
X134936538Y-60264038D01*
X135061961Y-60389461D01*
X135061965Y-60389464D01*
X135209446Y-60488009D01*
X135209459Y-60488016D01*
X135332363Y-60538923D01*
X135373334Y-60555894D01*
X135373336Y-60555894D01*
X135373341Y-60555896D01*
X135547304Y-60590499D01*
X135547307Y-60590500D01*
X135547309Y-60590500D01*
X135724693Y-60590500D01*
X135724694Y-60590499D01*
X135782682Y-60578964D01*
X135898658Y-60555896D01*
X135898661Y-60555894D01*
X135898666Y-60555894D01*
X136062547Y-60488013D01*
X136210035Y-60389464D01*
X136335464Y-60264035D01*
X136434013Y-60116547D01*
X136436440Y-60110689D01*
X136443958Y-60092535D01*
X136501894Y-59952666D01*
X136536500Y-59778691D01*
X136536500Y-59725452D01*
X136556185Y-59658413D01*
X136572819Y-59637771D01*
X137974887Y-58235703D01*
X138192807Y-58017784D01*
X139691706Y-56518885D01*
X139753029Y-56485400D01*
X139822721Y-56490384D01*
X139878654Y-56532256D01*
X139903071Y-56597720D01*
X139902326Y-56622751D01*
X139882001Y-56777134D01*
X139882000Y-56777151D01*
X139882000Y-57019648D01*
X139882001Y-57019664D01*
X139913653Y-57260087D01*
X139976421Y-57494339D01*
X140069220Y-57718378D01*
X140069227Y-57718392D01*
X140190481Y-57928410D01*
X140259061Y-58017784D01*
X140977884Y-57298960D01*
X140978740Y-57301026D01*
X141071762Y-57440244D01*
X141190156Y-57558638D01*
X141329374Y-57651660D01*
X141331437Y-57652514D01*
X140612614Y-58371336D01*
X140612614Y-58371337D01*
X140701989Y-58439917D01*
X140701996Y-58439922D01*
X140912007Y-58561172D01*
X140912021Y-58561179D01*
X141136060Y-58653978D01*
X141370312Y-58716746D01*
X141610735Y-58748398D01*
X141610752Y-58748400D01*
X141853248Y-58748400D01*
X141853264Y-58748398D01*
X142093687Y-58716746D01*
X142327939Y-58653978D01*
X142551978Y-58561179D01*
X142551992Y-58561172D01*
X142762016Y-58439915D01*
X142851384Y-58371339D01*
X142851384Y-58371336D01*
X142132562Y-57652514D01*
X142134626Y-57651660D01*
X142273844Y-57558638D01*
X142392238Y-57440244D01*
X142485260Y-57301026D01*
X142486114Y-57298962D01*
X143204936Y-58017784D01*
X143204939Y-58017784D01*
X143273515Y-57928416D01*
X143394772Y-57718392D01*
X143394779Y-57718378D01*
X143487578Y-57494339D01*
X143550346Y-57260087D01*
X143581998Y-57019664D01*
X143582000Y-57019648D01*
X143582000Y-56777151D01*
X143581998Y-56777135D01*
X143550346Y-56536712D01*
X143487578Y-56302460D01*
X143394779Y-56078421D01*
X143394772Y-56078407D01*
X143273522Y-55868396D01*
X143273517Y-55868389D01*
X143204937Y-55779014D01*
X143204936Y-55779014D01*
X142486114Y-56497836D01*
X142485260Y-56495774D01*
X142392238Y-56356556D01*
X142273844Y-56238162D01*
X142134626Y-56145140D01*
X142132560Y-56144284D01*
X142851384Y-55425461D01*
X142762010Y-55356881D01*
X142551992Y-55235627D01*
X142551978Y-55235620D01*
X142327939Y-55142821D01*
X142093687Y-55080053D01*
X141853264Y-55048401D01*
X141853248Y-55048400D01*
X141610752Y-55048400D01*
X141610735Y-55048401D01*
X141370312Y-55080053D01*
X141136060Y-55142821D01*
X140912021Y-55235620D01*
X140912006Y-55235627D01*
X140701990Y-55356880D01*
X140612614Y-55425460D01*
X140612614Y-55425461D01*
X141331438Y-56144285D01*
X141329374Y-56145140D01*
X141190156Y-56238162D01*
X141071762Y-56356556D01*
X140978740Y-56495774D01*
X140977885Y-56497838D01*
X140259061Y-55779014D01*
X140259060Y-55779014D01*
X140205636Y-55848639D01*
X140149209Y-55889842D01*
X140079463Y-55893997D01*
X140018542Y-55859785D01*
X139985789Y-55798068D01*
X139983260Y-55773153D01*
X139983260Y-50539300D01*
X140002945Y-50472261D01*
X140055749Y-50426506D01*
X140107260Y-50415300D01*
X140507763Y-50415300D01*
X140507768Y-50415300D01*
X140610557Y-50404799D01*
X140777094Y-50349614D01*
X140926415Y-50257511D01*
X141050471Y-50133455D01*
X141142574Y-49984134D01*
X141197759Y-49817597D01*
X141208260Y-49714808D01*
X141208260Y-47414792D01*
X141197759Y-47312003D01*
X141142574Y-47145466D01*
X141109509Y-47091860D01*
X141050473Y-46996148D01*
X141050470Y-46996144D01*
X140926415Y-46872089D01*
X140926411Y-46872086D01*
X140777097Y-46779987D01*
X140777095Y-46779986D01*
X140675898Y-46746453D01*
X140610557Y-46724801D01*
X140610555Y-46724800D01*
X140507775Y-46714300D01*
X140507768Y-46714300D01*
X138207752Y-46714300D01*
X138207744Y-46714300D01*
X138104964Y-46724800D01*
X138104963Y-46724801D01*
X137938424Y-46779986D01*
X137938422Y-46779987D01*
X137789108Y-46872086D01*
X137789104Y-46872089D01*
X137665049Y-46996144D01*
X137665046Y-46996148D01*
X137572947Y-47145462D01*
X137572946Y-47145464D01*
X137517761Y-47312003D01*
X137517760Y-47312004D01*
X137507260Y-47414784D01*
X137507260Y-49714815D01*
X137517760Y-49817595D01*
X137517761Y-49817596D01*
X137572946Y-49984135D01*
X137572947Y-49984137D01*
X137665046Y-50133451D01*
X137665049Y-50133455D01*
X137789104Y-50257510D01*
X137789108Y-50257513D01*
X137938422Y-50349612D01*
X137938424Y-50349613D01*
X137938426Y-50349614D01*
X138104963Y-50404799D01*
X138207752Y-50415300D01*
X138608260Y-50415300D01*
X138675299Y-50434985D01*
X138721054Y-50487789D01*
X138732260Y-50539300D01*
X138732260Y-55657787D01*
X138712575Y-55724826D01*
X138695941Y-55745468D01*
X135688229Y-58753181D01*
X135626906Y-58786666D01*
X135600548Y-58789500D01*
X135547306Y-58789500D01*
X135373341Y-58824103D01*
X135373332Y-58824106D01*
X135209459Y-58891983D01*
X135209446Y-58891990D01*
X135061965Y-58990535D01*
X135061961Y-58990538D01*
X134936538Y-59115961D01*
X134936535Y-59115965D01*
X134837990Y-59263446D01*
X134837983Y-59263459D01*
X134770106Y-59427332D01*
X134770103Y-59427341D01*
X134735500Y-59601304D01*
X96721403Y-59601304D01*
X96764038Y-59442189D01*
X96795700Y-59201688D01*
X96795700Y-58959112D01*
X96764038Y-58718611D01*
X96701254Y-58484300D01*
X96608424Y-58260188D01*
X96487136Y-58050111D01*
X96339465Y-57857662D01*
X96339460Y-57857656D01*
X96167943Y-57686139D01*
X96167936Y-57686133D01*
X95975493Y-57538467D01*
X95975492Y-57538466D01*
X95975489Y-57538464D01*
X95765412Y-57417176D01*
X95723948Y-57400001D01*
X95541304Y-57324347D01*
X95306985Y-57261561D01*
X95066489Y-57229900D01*
X95066488Y-57229900D01*
X94823912Y-57229900D01*
X94823911Y-57229900D01*
X94583414Y-57261561D01*
X94349095Y-57324347D01*
X94124994Y-57417173D01*
X94124985Y-57417177D01*
X93914906Y-57538467D01*
X93722463Y-57686133D01*
X93722456Y-57686139D01*
X93550939Y-57857656D01*
X93550933Y-57857663D01*
X93403267Y-58050106D01*
X93281977Y-58260185D01*
X93281973Y-58260194D01*
X93189147Y-58484295D01*
X93126361Y-58718614D01*
X93094700Y-58959111D01*
X85489700Y-58959111D01*
X85489700Y-53970384D01*
X93094700Y-53970384D01*
X93094700Y-56270415D01*
X93105200Y-56373195D01*
X93105201Y-56373196D01*
X93160386Y-56539735D01*
X93160387Y-56539737D01*
X93252486Y-56689051D01*
X93252489Y-56689055D01*
X93376544Y-56813110D01*
X93376548Y-56813113D01*
X93525862Y-56905212D01*
X93525864Y-56905213D01*
X93525866Y-56905214D01*
X93692403Y-56960399D01*
X93795192Y-56970900D01*
X93795197Y-56970900D01*
X96095203Y-56970900D01*
X96095208Y-56970900D01*
X96197997Y-56960399D01*
X96364534Y-56905214D01*
X96513855Y-56813111D01*
X96637911Y-56689055D01*
X96730014Y-56539734D01*
X96785199Y-56373197D01*
X96795700Y-56270408D01*
X96795700Y-55050002D01*
X99839999Y-55050002D01*
X99849999Y-55460001D01*
X99879999Y-55659996D01*
X99880002Y-55660011D01*
X99994476Y-56029847D01*
X100010000Y-56080000D01*
X100164742Y-56373195D01*
X100199999Y-56439998D01*
X100200004Y-56440005D01*
X100477640Y-56777135D01*
X100480000Y-56780000D01*
X100780000Y-57050000D01*
X101090000Y-57240000D01*
X101450000Y-57370000D01*
X101830000Y-57460000D01*
X102270000Y-57470000D01*
X102680000Y-57400000D01*
X103020000Y-57280000D01*
X103271603Y-57146336D01*
X103339993Y-57110004D01*
X103339994Y-57110003D01*
X103340000Y-57110000D01*
X103650000Y-56870000D01*
X103880000Y-56630000D01*
X104090000Y-56310000D01*
X104230000Y-56020000D01*
X104330000Y-55710000D01*
X104380000Y-55260000D01*
X104369756Y-55050002D01*
X120149999Y-55050002D01*
X120159999Y-55460001D01*
X120189999Y-55659996D01*
X120190002Y-55660011D01*
X120304476Y-56029847D01*
X120320000Y-56080000D01*
X120474742Y-56373195D01*
X120509999Y-56439998D01*
X120510004Y-56440005D01*
X120787640Y-56777135D01*
X120790000Y-56780000D01*
X121090000Y-57050000D01*
X121400000Y-57240000D01*
X121760000Y-57370000D01*
X122140000Y-57460000D01*
X122580000Y-57470000D01*
X122990000Y-57400000D01*
X123330000Y-57280000D01*
X123581603Y-57146336D01*
X123649993Y-57110004D01*
X123649994Y-57110003D01*
X123650000Y-57110000D01*
X123960000Y-56870000D01*
X124190000Y-56630000D01*
X124400000Y-56310000D01*
X124540000Y-56020000D01*
X124640000Y-55710000D01*
X124690000Y-55260000D01*
X124670000Y-54850000D01*
X124560000Y-54430000D01*
X124559998Y-54429997D01*
X124559998Y-54429993D01*
X124370001Y-54020003D01*
X124370000Y-54020000D01*
X124150000Y-53720000D01*
X123830000Y-53410000D01*
X123726847Y-53340003D01*
X123550000Y-53219999D01*
X123180000Y-53050000D01*
X122940006Y-52980001D01*
X122940001Y-52980000D01*
X122940000Y-52980000D01*
X122400000Y-52920000D01*
X122399999Y-52920000D01*
X122399998Y-52920000D01*
X121859998Y-52990000D01*
X121450001Y-53139998D01*
X121449998Y-53140000D01*
X121089998Y-53340000D01*
X121089995Y-53340003D01*
X120880009Y-53529989D01*
X120880007Y-53529992D01*
X120609998Y-53820001D01*
X120430002Y-54099995D01*
X120429994Y-54100009D01*
X120280001Y-54399997D01*
X120279998Y-54400005D01*
X120210001Y-54659992D01*
X120209998Y-54660005D01*
X120150000Y-55049999D01*
X120149999Y-55050002D01*
X104369756Y-55050002D01*
X104360000Y-54850000D01*
X104250000Y-54430000D01*
X104249998Y-54429997D01*
X104249998Y-54429993D01*
X104060001Y-54020003D01*
X104060000Y-54020000D01*
X103840000Y-53720000D01*
X103520000Y-53410000D01*
X103416847Y-53340003D01*
X103240000Y-53219999D01*
X102870000Y-53050000D01*
X102630006Y-52980001D01*
X102630001Y-52980000D01*
X102630000Y-52980000D01*
X102090000Y-52920000D01*
X102089999Y-52920000D01*
X102089998Y-52920000D01*
X101549998Y-52990000D01*
X101140001Y-53139998D01*
X101139998Y-53140000D01*
X100779998Y-53340000D01*
X100779995Y-53340003D01*
X100570009Y-53529989D01*
X100570007Y-53529992D01*
X100299998Y-53820001D01*
X100120002Y-54099995D01*
X100119994Y-54100009D01*
X99970001Y-54399997D01*
X99969998Y-54400005D01*
X99900001Y-54659992D01*
X99899998Y-54660005D01*
X99840000Y-55049999D01*
X99839999Y-55050002D01*
X96795700Y-55050002D01*
X96795700Y-53970392D01*
X96785199Y-53867603D01*
X96730014Y-53701066D01*
X96637911Y-53551745D01*
X96513855Y-53427689D01*
X96513851Y-53427686D01*
X96364537Y-53335587D01*
X96364535Y-53335586D01*
X96281265Y-53307993D01*
X96197997Y-53280401D01*
X96197995Y-53280400D01*
X96095215Y-53269900D01*
X96095208Y-53269900D01*
X93795192Y-53269900D01*
X93795184Y-53269900D01*
X93692404Y-53280400D01*
X93692403Y-53280401D01*
X93525864Y-53335586D01*
X93525862Y-53335587D01*
X93376548Y-53427686D01*
X93376544Y-53427689D01*
X93252489Y-53551744D01*
X93252486Y-53551748D01*
X93160387Y-53701062D01*
X93160386Y-53701064D01*
X93105201Y-53867603D01*
X93105200Y-53867604D01*
X93094700Y-53970384D01*
X85489700Y-53970384D01*
X85489700Y-48443551D01*
X94948080Y-48443551D01*
X94948080Y-48686048D01*
X94948081Y-48686064D01*
X94979733Y-48926487D01*
X95042501Y-49160739D01*
X95135300Y-49384778D01*
X95135307Y-49384792D01*
X95256561Y-49594810D01*
X95325141Y-49684184D01*
X96043964Y-48965360D01*
X96044820Y-48967426D01*
X96137842Y-49106644D01*
X96256236Y-49225038D01*
X96395454Y-49318060D01*
X96397517Y-49318914D01*
X95678694Y-50037736D01*
X95678694Y-50037737D01*
X95768069Y-50106317D01*
X95768076Y-50106322D01*
X95978087Y-50227572D01*
X95978101Y-50227579D01*
X96202140Y-50320378D01*
X96436392Y-50383146D01*
X96676815Y-50414798D01*
X96676832Y-50414800D01*
X96919328Y-50414800D01*
X96919344Y-50414798D01*
X97159767Y-50383146D01*
X97394019Y-50320378D01*
X97618058Y-50227579D01*
X97618072Y-50227572D01*
X97828096Y-50106315D01*
X97917464Y-50037739D01*
X97917464Y-50037736D01*
X97198642Y-49318914D01*
X97200706Y-49318060D01*
X97339924Y-49225038D01*
X97458318Y-49106644D01*
X97551340Y-48967426D01*
X97552194Y-48965362D01*
X98271016Y-49684184D01*
X98271019Y-49684184D01*
X98339595Y-49594816D01*
X98460852Y-49384792D01*
X98460859Y-49384778D01*
X98553658Y-49160739D01*
X98616426Y-48926487D01*
X98648078Y-48686064D01*
X98648080Y-48686048D01*
X98648080Y-48443543D01*
X98648076Y-48443511D01*
X98907580Y-48443511D01*
X98907580Y-48686088D01*
X98939241Y-48926585D01*
X99002027Y-49160904D01*
X99093664Y-49382135D01*
X99094856Y-49385012D01*
X99216144Y-49595089D01*
X99216146Y-49595092D01*
X99216147Y-49595093D01*
X99363813Y-49787536D01*
X99363819Y-49787543D01*
X99535336Y-49959060D01*
X99535343Y-49959066D01*
X99637868Y-50037736D01*
X99727791Y-50106736D01*
X99937868Y-50228024D01*
X100161980Y-50320854D01*
X100396291Y-50383638D01*
X100557020Y-50404798D01*
X100636791Y-50415300D01*
X100636792Y-50415300D01*
X100879369Y-50415300D01*
X100959132Y-50404799D01*
X101119869Y-50383638D01*
X101354180Y-50320854D01*
X101578292Y-50228024D01*
X101788369Y-50106736D01*
X101980818Y-49959065D01*
X102152345Y-49787538D01*
X102300016Y-49595089D01*
X102421304Y-49385012D01*
X102514134Y-49160900D01*
X102576918Y-48926589D01*
X102608580Y-48686088D01*
X102608580Y-48443512D01*
X102576918Y-48203011D01*
X102514134Y-47968700D01*
X102421304Y-47744588D01*
X102300016Y-47534511D01*
X102263656Y-47487125D01*
X102263653Y-47487121D01*
X102208147Y-47414784D01*
X102867580Y-47414784D01*
X102867580Y-49714815D01*
X102878080Y-49817595D01*
X102878081Y-49817596D01*
X102933266Y-49984135D01*
X102933267Y-49984137D01*
X103025366Y-50133451D01*
X103025369Y-50133455D01*
X103149424Y-50257510D01*
X103149428Y-50257513D01*
X103298742Y-50349612D01*
X103298744Y-50349613D01*
X103298746Y-50349614D01*
X103465283Y-50404799D01*
X103568072Y-50415300D01*
X103568077Y-50415300D01*
X105868083Y-50415300D01*
X105868088Y-50415300D01*
X105970877Y-50404799D01*
X106137414Y-50349614D01*
X106286735Y-50257511D01*
X106410791Y-50133455D01*
X106502894Y-49984134D01*
X106558079Y-49817597D01*
X106568580Y-49714808D01*
X106568580Y-48443551D01*
X109134640Y-48443551D01*
X109134640Y-48686048D01*
X109134641Y-48686064D01*
X109166293Y-48926487D01*
X109229061Y-49160739D01*
X109321860Y-49384778D01*
X109321867Y-49384792D01*
X109443121Y-49594810D01*
X109511701Y-49684184D01*
X110230524Y-48965360D01*
X110231380Y-48967426D01*
X110324402Y-49106644D01*
X110442796Y-49225038D01*
X110582014Y-49318060D01*
X110584077Y-49318914D01*
X109865254Y-50037736D01*
X109865254Y-50037737D01*
X109954629Y-50106317D01*
X109954636Y-50106322D01*
X110164647Y-50227572D01*
X110164661Y-50227579D01*
X110388700Y-50320378D01*
X110622952Y-50383146D01*
X110863375Y-50414798D01*
X110863392Y-50414800D01*
X111105888Y-50414800D01*
X111105904Y-50414798D01*
X111346327Y-50383146D01*
X111580579Y-50320378D01*
X111804618Y-50227579D01*
X111804632Y-50227572D01*
X112014656Y-50106315D01*
X112104024Y-50037739D01*
X112104024Y-50037736D01*
X111385202Y-49318914D01*
X111387266Y-49318060D01*
X111526484Y-49225038D01*
X111644878Y-49106644D01*
X111737900Y-48967426D01*
X111738754Y-48965362D01*
X112457576Y-49684184D01*
X112457579Y-49684184D01*
X112526155Y-49594816D01*
X112647412Y-49384792D01*
X112647419Y-49384778D01*
X112740218Y-49160739D01*
X112802986Y-48926487D01*
X112834638Y-48686064D01*
X112834640Y-48686048D01*
X112834640Y-48443543D01*
X112834636Y-48443511D01*
X113094140Y-48443511D01*
X113094140Y-48686088D01*
X113125801Y-48926585D01*
X113188587Y-49160904D01*
X113280224Y-49382135D01*
X113281416Y-49385012D01*
X113402704Y-49595089D01*
X113402706Y-49595092D01*
X113402707Y-49595093D01*
X113550373Y-49787536D01*
X113550379Y-49787543D01*
X113721896Y-49959060D01*
X113721903Y-49959066D01*
X113824428Y-50037736D01*
X113914351Y-50106736D01*
X114124428Y-50228024D01*
X114348540Y-50320854D01*
X114582851Y-50383638D01*
X114743580Y-50404798D01*
X114823351Y-50415300D01*
X114823352Y-50415300D01*
X115065929Y-50415300D01*
X115145692Y-50404799D01*
X115306429Y-50383638D01*
X115540740Y-50320854D01*
X115764852Y-50228024D01*
X115974929Y-50106736D01*
X116167378Y-49959065D01*
X116338905Y-49787538D01*
X116486576Y-49595089D01*
X116607864Y-49385012D01*
X116700694Y-49160900D01*
X116763478Y-48926589D01*
X116795140Y-48686088D01*
X116795140Y-48443512D01*
X116763478Y-48203011D01*
X116700694Y-47968700D01*
X116607864Y-47744588D01*
X116486576Y-47534511D01*
X116450216Y-47487125D01*
X116450213Y-47487121D01*
X116394707Y-47414784D01*
X117054140Y-47414784D01*
X117054140Y-49714815D01*
X117064640Y-49817595D01*
X117064641Y-49817596D01*
X117119826Y-49984135D01*
X117119827Y-49984137D01*
X117211926Y-50133451D01*
X117211929Y-50133455D01*
X117335984Y-50257510D01*
X117335988Y-50257513D01*
X117485302Y-50349612D01*
X117485304Y-50349613D01*
X117485306Y-50349614D01*
X117651843Y-50404799D01*
X117754632Y-50415300D01*
X117754637Y-50415300D01*
X120054643Y-50415300D01*
X120054648Y-50415300D01*
X120157437Y-50404799D01*
X120323974Y-50349614D01*
X120473295Y-50257511D01*
X120597351Y-50133455D01*
X120689454Y-49984134D01*
X120744639Y-49817597D01*
X120755140Y-49714808D01*
X120755140Y-48443551D01*
X123321200Y-48443551D01*
X123321200Y-48686048D01*
X123321201Y-48686064D01*
X123352853Y-48926487D01*
X123415621Y-49160739D01*
X123508420Y-49384778D01*
X123508427Y-49384792D01*
X123629681Y-49594810D01*
X123698261Y-49684184D01*
X124417084Y-48965360D01*
X124417940Y-48967426D01*
X124510962Y-49106644D01*
X124629356Y-49225038D01*
X124768574Y-49318060D01*
X124770637Y-49318914D01*
X124051814Y-50037736D01*
X124051814Y-50037737D01*
X124141189Y-50106317D01*
X124141196Y-50106322D01*
X124351207Y-50227572D01*
X124351221Y-50227579D01*
X124575260Y-50320378D01*
X124809512Y-50383146D01*
X125049935Y-50414798D01*
X125049952Y-50414800D01*
X125292448Y-50414800D01*
X125292464Y-50414798D01*
X125532887Y-50383146D01*
X125767139Y-50320378D01*
X125991178Y-50227579D01*
X125991192Y-50227572D01*
X126201216Y-50106315D01*
X126290584Y-50037739D01*
X126290584Y-50037736D01*
X125571762Y-49318914D01*
X125573826Y-49318060D01*
X125713044Y-49225038D01*
X125831438Y-49106644D01*
X125924460Y-48967426D01*
X125925314Y-48965362D01*
X126644136Y-49684184D01*
X126644139Y-49684184D01*
X126712715Y-49594816D01*
X126833972Y-49384792D01*
X126833979Y-49384778D01*
X126926778Y-49160739D01*
X126989546Y-48926487D01*
X127021198Y-48686064D01*
X127021200Y-48686048D01*
X127021200Y-48443551D01*
X127021198Y-48443535D01*
X126989546Y-48203112D01*
X126926778Y-47968860D01*
X126833979Y-47744821D01*
X126833972Y-47744807D01*
X126712722Y-47534796D01*
X126712711Y-47534779D01*
X126676144Y-47487125D01*
X126676141Y-47487122D01*
X126644137Y-47445414D01*
X126644136Y-47445414D01*
X125925314Y-48164236D01*
X125924460Y-48162174D01*
X125831438Y-48022956D01*
X125713044Y-47904562D01*
X125573826Y-47811540D01*
X125571760Y-47810684D01*
X125967661Y-47414784D01*
X127280700Y-47414784D01*
X127280700Y-49714815D01*
X127291200Y-49817595D01*
X127291201Y-49817596D01*
X127346386Y-49984135D01*
X127346387Y-49984137D01*
X127438486Y-50133451D01*
X127438489Y-50133455D01*
X127562544Y-50257510D01*
X127562548Y-50257513D01*
X127711862Y-50349612D01*
X127711864Y-50349613D01*
X127711866Y-50349614D01*
X127878403Y-50404799D01*
X127981192Y-50415300D01*
X127981197Y-50415300D01*
X130281203Y-50415300D01*
X130281208Y-50415300D01*
X130383997Y-50404799D01*
X130550534Y-50349614D01*
X130699855Y-50257511D01*
X130823911Y-50133455D01*
X130916014Y-49984134D01*
X130971199Y-49817597D01*
X130981700Y-49714808D01*
X130981700Y-48443551D01*
X133547760Y-48443551D01*
X133547760Y-48686048D01*
X133547761Y-48686064D01*
X133579413Y-48926487D01*
X133642181Y-49160739D01*
X133734980Y-49384778D01*
X133734987Y-49384792D01*
X133856241Y-49594810D01*
X133924821Y-49684184D01*
X134643644Y-48965360D01*
X134644500Y-48967426D01*
X134737522Y-49106644D01*
X134855916Y-49225038D01*
X134995134Y-49318060D01*
X134997197Y-49318914D01*
X134278374Y-50037736D01*
X134278374Y-50037737D01*
X134367749Y-50106317D01*
X134367756Y-50106322D01*
X134577767Y-50227572D01*
X134577781Y-50227579D01*
X134801820Y-50320378D01*
X135036072Y-50383146D01*
X135276495Y-50414798D01*
X135276512Y-50414800D01*
X135519008Y-50414800D01*
X135519024Y-50414798D01*
X135759447Y-50383146D01*
X135993699Y-50320378D01*
X136217738Y-50227579D01*
X136217752Y-50227572D01*
X136427776Y-50106315D01*
X136517144Y-50037739D01*
X136517144Y-50037736D01*
X135798322Y-49318914D01*
X135800386Y-49318060D01*
X135939604Y-49225038D01*
X136057998Y-49106644D01*
X136151020Y-48967426D01*
X136151874Y-48965362D01*
X136870696Y-49684184D01*
X136870699Y-49684184D01*
X136939275Y-49594816D01*
X137060532Y-49384792D01*
X137060539Y-49384778D01*
X137153338Y-49160739D01*
X137216106Y-48926487D01*
X137247758Y-48686064D01*
X137247760Y-48686048D01*
X137247760Y-48443551D01*
X137247758Y-48443535D01*
X137216106Y-48203112D01*
X137153338Y-47968860D01*
X137060539Y-47744821D01*
X137060532Y-47744807D01*
X136939282Y-47534796D01*
X136939277Y-47534789D01*
X136870697Y-47445414D01*
X136870696Y-47445414D01*
X136151874Y-48164236D01*
X136151020Y-48162174D01*
X136057998Y-48022956D01*
X135939604Y-47904562D01*
X135800386Y-47811540D01*
X135798320Y-47810684D01*
X136517144Y-47091861D01*
X136427770Y-47023281D01*
X136217752Y-46902027D01*
X136217738Y-46902020D01*
X135993699Y-46809221D01*
X135759447Y-46746453D01*
X135519024Y-46714801D01*
X135519008Y-46714800D01*
X135276512Y-46714800D01*
X135276495Y-46714801D01*
X135036072Y-46746453D01*
X134801820Y-46809221D01*
X134577781Y-46902020D01*
X134577766Y-46902027D01*
X134367750Y-47023280D01*
X134278374Y-47091860D01*
X134278374Y-47091861D01*
X134997198Y-47810685D01*
X134995134Y-47811540D01*
X134855916Y-47904562D01*
X134737522Y-48022956D01*
X134644500Y-48162174D01*
X134643645Y-48164238D01*
X133924821Y-47445414D01*
X133924820Y-47445414D01*
X133856240Y-47534790D01*
X133734987Y-47744806D01*
X133734980Y-47744821D01*
X133642181Y-47968860D01*
X133579413Y-48203112D01*
X133547761Y-48443535D01*
X133547760Y-48443551D01*
X130981700Y-48443551D01*
X130981700Y-47414792D01*
X130971199Y-47312003D01*
X130916014Y-47145466D01*
X130882949Y-47091860D01*
X130823913Y-46996148D01*
X130823910Y-46996144D01*
X130699855Y-46872089D01*
X130699851Y-46872086D01*
X130550537Y-46779987D01*
X130550535Y-46779986D01*
X130449338Y-46746453D01*
X130383997Y-46724801D01*
X130383995Y-46724800D01*
X130281215Y-46714300D01*
X130281208Y-46714300D01*
X127981192Y-46714300D01*
X127981184Y-46714300D01*
X127878404Y-46724800D01*
X127878403Y-46724801D01*
X127711864Y-46779986D01*
X127711862Y-46779987D01*
X127562548Y-46872086D01*
X127562544Y-46872089D01*
X127438489Y-46996144D01*
X127438486Y-46996148D01*
X127346387Y-47145462D01*
X127346386Y-47145464D01*
X127291201Y-47312003D01*
X127291200Y-47312004D01*
X127280700Y-47414784D01*
X125967661Y-47414784D01*
X126290584Y-47091861D01*
X126201210Y-47023281D01*
X125991192Y-46902027D01*
X125991178Y-46902020D01*
X125767139Y-46809221D01*
X125532887Y-46746453D01*
X125292464Y-46714801D01*
X125292448Y-46714800D01*
X125049952Y-46714800D01*
X125049935Y-46714801D01*
X124809512Y-46746453D01*
X124575260Y-46809221D01*
X124351221Y-46902020D01*
X124351206Y-46902027D01*
X124141190Y-47023280D01*
X124051814Y-47091860D01*
X124051814Y-47091861D01*
X124770638Y-47810685D01*
X124768574Y-47811540D01*
X124629356Y-47904562D01*
X124510962Y-48022956D01*
X124417940Y-48162174D01*
X124417085Y-48164238D01*
X123698261Y-47445414D01*
X123698260Y-47445414D01*
X123629680Y-47534790D01*
X123508427Y-47744806D01*
X123508420Y-47744821D01*
X123415621Y-47968860D01*
X123352853Y-48203112D01*
X123321201Y-48443535D01*
X123321200Y-48443551D01*
X120755140Y-48443551D01*
X120755140Y-47414792D01*
X120744639Y-47312003D01*
X120689454Y-47145466D01*
X120656389Y-47091860D01*
X120597353Y-46996148D01*
X120597350Y-46996144D01*
X120473295Y-46872089D01*
X120473291Y-46872086D01*
X120323977Y-46779987D01*
X120323975Y-46779986D01*
X120222778Y-46746453D01*
X120157437Y-46724801D01*
X120157435Y-46724800D01*
X120054655Y-46714300D01*
X120054648Y-46714300D01*
X117754632Y-46714300D01*
X117754624Y-46714300D01*
X117651844Y-46724800D01*
X117651843Y-46724801D01*
X117485304Y-46779986D01*
X117485302Y-46779987D01*
X117335988Y-46872086D01*
X117335984Y-46872089D01*
X117211929Y-46996144D01*
X117211926Y-46996148D01*
X117119827Y-47145462D01*
X117119826Y-47145464D01*
X117064641Y-47312003D01*
X117064640Y-47312004D01*
X117054140Y-47414784D01*
X116394707Y-47414784D01*
X116338906Y-47342063D01*
X116338900Y-47342056D01*
X116167383Y-47170539D01*
X116167376Y-47170533D01*
X115974933Y-47022867D01*
X115974932Y-47022866D01*
X115974929Y-47022864D01*
X115764852Y-46901576D01*
X115764845Y-46901573D01*
X115540744Y-46808747D01*
X115306425Y-46745961D01*
X115065929Y-46714300D01*
X115065928Y-46714300D01*
X114823352Y-46714300D01*
X114823351Y-46714300D01*
X114582854Y-46745961D01*
X114348535Y-46808747D01*
X114124434Y-46901573D01*
X114124425Y-46901577D01*
X113914346Y-47022867D01*
X113721903Y-47170533D01*
X113721896Y-47170539D01*
X113550379Y-47342056D01*
X113550373Y-47342063D01*
X113402707Y-47534506D01*
X113402704Y-47534510D01*
X113402704Y-47534511D01*
X113386457Y-47562651D01*
X113281417Y-47744585D01*
X113281413Y-47744594D01*
X113188587Y-47968695D01*
X113125801Y-48203014D01*
X113094140Y-48443511D01*
X112834636Y-48443511D01*
X112802986Y-48203112D01*
X112740218Y-47968860D01*
X112647419Y-47744821D01*
X112647412Y-47744807D01*
X112526162Y-47534796D01*
X112526157Y-47534789D01*
X112457577Y-47445414D01*
X112457576Y-47445414D01*
X111738754Y-48164236D01*
X111737900Y-48162174D01*
X111644878Y-48022956D01*
X111526484Y-47904562D01*
X111387266Y-47811540D01*
X111385200Y-47810684D01*
X112104024Y-47091861D01*
X112014650Y-47023281D01*
X111804632Y-46902027D01*
X111804618Y-46902020D01*
X111580579Y-46809221D01*
X111346327Y-46746453D01*
X111105904Y-46714801D01*
X111105888Y-46714800D01*
X110863392Y-46714800D01*
X110863375Y-46714801D01*
X110622952Y-46746453D01*
X110388700Y-46809221D01*
X110164661Y-46902020D01*
X110164646Y-46902027D01*
X109954630Y-47023280D01*
X109865254Y-47091860D01*
X109865254Y-47091861D01*
X110584078Y-47810685D01*
X110582014Y-47811540D01*
X110442796Y-47904562D01*
X110324402Y-48022956D01*
X110231380Y-48162174D01*
X110230525Y-48164238D01*
X109511701Y-47445414D01*
X109511700Y-47445414D01*
X109443120Y-47534790D01*
X109321867Y-47744806D01*
X109321860Y-47744821D01*
X109229061Y-47968860D01*
X109166293Y-48203112D01*
X109134641Y-48443535D01*
X109134640Y-48443551D01*
X106568580Y-48443551D01*
X106568580Y-47414792D01*
X106558079Y-47312003D01*
X106502894Y-47145466D01*
X106469829Y-47091860D01*
X106410793Y-46996148D01*
X106410790Y-46996144D01*
X106286735Y-46872089D01*
X106286731Y-46872086D01*
X106137417Y-46779987D01*
X106137415Y-46779986D01*
X106036218Y-46746453D01*
X105970877Y-46724801D01*
X105970875Y-46724800D01*
X105868095Y-46714300D01*
X105868088Y-46714300D01*
X103568072Y-46714300D01*
X103568064Y-46714300D01*
X103465284Y-46724800D01*
X103465283Y-46724801D01*
X103298744Y-46779986D01*
X103298742Y-46779987D01*
X103149428Y-46872086D01*
X103149424Y-46872089D01*
X103025369Y-46996144D01*
X103025366Y-46996148D01*
X102933267Y-47145462D01*
X102933266Y-47145464D01*
X102878081Y-47312003D01*
X102878080Y-47312004D01*
X102867580Y-47414784D01*
X102208147Y-47414784D01*
X102152346Y-47342063D01*
X102152340Y-47342056D01*
X101980823Y-47170539D01*
X101980816Y-47170533D01*
X101788373Y-47022867D01*
X101788372Y-47022866D01*
X101788369Y-47022864D01*
X101578292Y-46901576D01*
X101578285Y-46901573D01*
X101354184Y-46808747D01*
X101119865Y-46745961D01*
X100879369Y-46714300D01*
X100879368Y-46714300D01*
X100636792Y-46714300D01*
X100636791Y-46714300D01*
X100396294Y-46745961D01*
X100161975Y-46808747D01*
X99937874Y-46901573D01*
X99937865Y-46901577D01*
X99727786Y-47022867D01*
X99535343Y-47170533D01*
X99535336Y-47170539D01*
X99363819Y-47342056D01*
X99363813Y-47342063D01*
X99216147Y-47534506D01*
X99216144Y-47534510D01*
X99216144Y-47534511D01*
X99199897Y-47562651D01*
X99094857Y-47744585D01*
X99094853Y-47744594D01*
X99002027Y-47968695D01*
X98939241Y-48203014D01*
X98907580Y-48443511D01*
X98648076Y-48443511D01*
X98616426Y-48203112D01*
X98553658Y-47968860D01*
X98460859Y-47744821D01*
X98460852Y-47744807D01*
X98339602Y-47534796D01*
X98339597Y-47534789D01*
X98271017Y-47445414D01*
X98271016Y-47445414D01*
X97552194Y-48164236D01*
X97551340Y-48162174D01*
X97458318Y-48022956D01*
X97339924Y-47904562D01*
X97200706Y-47811540D01*
X97198640Y-47810684D01*
X97917464Y-47091861D01*
X97828090Y-47023281D01*
X97618072Y-46902027D01*
X97618058Y-46902020D01*
X97394019Y-46809221D01*
X97159767Y-46746453D01*
X96919344Y-46714801D01*
X96919328Y-46714800D01*
X96676832Y-46714800D01*
X96676815Y-46714801D01*
X96436392Y-46746453D01*
X96202140Y-46809221D01*
X95978101Y-46902020D01*
X95978086Y-46902027D01*
X95768070Y-47023280D01*
X95678694Y-47091860D01*
X95678694Y-47091861D01*
X96397518Y-47810685D01*
X96395454Y-47811540D01*
X96256236Y-47904562D01*
X96137842Y-48022956D01*
X96044820Y-48162174D01*
X96043965Y-48164238D01*
X95325141Y-47445414D01*
X95325140Y-47445414D01*
X95256560Y-47534790D01*
X95135307Y-47744806D01*
X95135300Y-47744821D01*
X95042501Y-47968860D01*
X94979733Y-48203112D01*
X94948081Y-48443535D01*
X94948080Y-48443551D01*
X85489700Y-48443551D01*
X85489700Y-44030012D01*
X86739999Y-44030012D01*
X86749999Y-44359991D01*
X86780001Y-44630007D01*
X86859998Y-44989993D01*
X86859999Y-44989999D01*
X86999996Y-45379991D01*
X86999999Y-45379999D01*
X87219998Y-45799997D01*
X87220008Y-45800012D01*
X87439996Y-46099996D01*
X87440000Y-46100000D01*
X87670000Y-46350000D01*
X87950000Y-46590000D01*
X88350000Y-46850000D01*
X88810000Y-47050000D01*
X89220000Y-47160000D01*
X89720000Y-47220000D01*
X89720008Y-47219999D01*
X89720010Y-47220000D01*
X90009979Y-47210001D01*
X90009983Y-47210000D01*
X90010000Y-47210000D01*
X90370000Y-47170000D01*
X90720000Y-47080000D01*
X90869901Y-47023281D01*
X90941609Y-46996148D01*
X91090000Y-46940000D01*
X91530000Y-46700000D01*
X91850000Y-46450000D01*
X92190000Y-46100000D01*
X92410000Y-45790000D01*
X92600000Y-45450000D01*
X92690000Y-45240000D01*
X92770000Y-44980000D01*
X92770005Y-44979979D01*
X92849996Y-44630021D01*
X92849998Y-44630007D01*
X92850000Y-44630000D01*
X92880000Y-44410000D01*
X92890000Y-44110000D01*
X92884839Y-44030012D01*
X143429999Y-44030012D01*
X143439999Y-44359991D01*
X143470001Y-44630007D01*
X143549998Y-44989993D01*
X143549999Y-44989999D01*
X143689996Y-45379991D01*
X143689999Y-45379999D01*
X143909998Y-45799997D01*
X143910008Y-45800012D01*
X144129996Y-46099996D01*
X144130000Y-46100000D01*
X144360000Y-46350000D01*
X144640000Y-46590000D01*
X145040000Y-46850000D01*
X145500000Y-47050000D01*
X145910000Y-47160000D01*
X146410000Y-47220000D01*
X146410008Y-47219999D01*
X146410010Y-47220000D01*
X146699979Y-47210001D01*
X146699983Y-47210000D01*
X146700000Y-47210000D01*
X147060000Y-47170000D01*
X147410000Y-47080000D01*
X147780000Y-46940000D01*
X148220000Y-46700000D01*
X148540000Y-46450000D01*
X148880000Y-46100000D01*
X149100000Y-45790000D01*
X149290000Y-45450000D01*
X149380000Y-45240000D01*
X149460000Y-44980000D01*
X149460005Y-44979979D01*
X149539996Y-44630021D01*
X149539998Y-44630007D01*
X149540000Y-44630000D01*
X149570000Y-44410000D01*
X149580000Y-44110000D01*
X149560000Y-43800000D01*
X149500000Y-43460000D01*
X149410000Y-43140000D01*
X149280000Y-42820000D01*
X149180000Y-42630000D01*
X149010000Y-42360000D01*
X148800000Y-42100000D01*
X148799997Y-42099997D01*
X148540011Y-41840010D01*
X148540004Y-41840004D01*
X148540000Y-41840000D01*
X148200000Y-41580000D01*
X148199996Y-41579998D01*
X148199992Y-41579995D01*
X147810007Y-41360003D01*
X147810001Y-41360001D01*
X147810000Y-41360000D01*
X147360000Y-41190000D01*
X147359999Y-41189999D01*
X147359997Y-41189999D01*
X146989997Y-41099999D01*
X146470004Y-41069999D01*
X145810005Y-41149999D01*
X145810001Y-41149999D01*
X145810000Y-41150000D01*
X145809997Y-41150000D01*
X145809993Y-41150002D01*
X145219997Y-41350001D01*
X144720004Y-41639997D01*
X144720001Y-41639999D01*
X144359997Y-41940002D01*
X144100001Y-42229998D01*
X143880001Y-42539998D01*
X143879999Y-42540002D01*
X143690002Y-42909994D01*
X143689996Y-42910007D01*
X143560002Y-43249992D01*
X143560000Y-43249998D01*
X143560000Y-43250000D01*
X143511537Y-43460009D01*
X143469999Y-43640006D01*
X143469998Y-43640010D01*
X143430000Y-44029998D01*
X143429999Y-44030012D01*
X92884839Y-44030012D01*
X92870000Y-43800000D01*
X92810000Y-43460000D01*
X92720000Y-43140000D01*
X92590000Y-42820000D01*
X92490000Y-42630000D01*
X92320000Y-42360000D01*
X92110000Y-42100000D01*
X92109997Y-42099997D01*
X91850011Y-41840010D01*
X91850004Y-41840004D01*
X91850000Y-41840000D01*
X91510000Y-41580000D01*
X91509996Y-41579998D01*
X91509992Y-41579995D01*
X91120007Y-41360003D01*
X91120001Y-41360001D01*
X91120000Y-41360000D01*
X90670000Y-41190000D01*
X90669999Y-41189999D01*
X90669997Y-41189999D01*
X90299997Y-41099999D01*
X89780004Y-41069999D01*
X89120005Y-41149999D01*
X89120001Y-41149999D01*
X89120000Y-41150000D01*
X89119997Y-41150000D01*
X89119993Y-41150002D01*
X88529997Y-41350001D01*
X88030004Y-41639997D01*
X88030001Y-41639999D01*
X87669997Y-41940002D01*
X87410001Y-42229998D01*
X87190001Y-42539998D01*
X87189999Y-42540002D01*
X87000002Y-42909994D01*
X86999996Y-42910007D01*
X86870002Y-43249992D01*
X86870000Y-43249998D01*
X86870000Y-43250000D01*
X86821537Y-43460009D01*
X86779999Y-43640006D01*
X86779998Y-43640010D01*
X86740000Y-44029998D01*
X86739999Y-44030012D01*
X85489700Y-44030012D01*
X85489700Y-39944500D01*
X85509385Y-39877461D01*
X85562189Y-39831706D01*
X85613700Y-39820500D01*
X150707937Y-39820500D01*
X150774976Y-39840185D01*
G37*
G04 #@! TD.AperFunction*
M02*
