%TF.GenerationSoftware,KiCad,Pcbnew,9.0.7*%
%TF.CreationDate,2026-03-13T11:38:06-04:00*%
%TF.ProjectId,Smart_Backpack,536d6172-745f-4426-9163-6b7061636b2e,rev?*%
%TF.SameCoordinates,Original*%
%TF.FileFunction,Legend,Top*%
%TF.FilePolarity,Positive*%
%FSLAX46Y46*%
G04 Gerber Fmt 4.6, Leading zero omitted, Abs format (unit mm)*
G04 Created by KiCad (PCBNEW 9.0.7) date 2026-03-13 11:38:06*
%MOMM*%
%LPD*%
G01*
G04 APERTURE LIST*
%ADD10C,0.100000*%
%ADD11C,0.150000*%
%ADD12C,0.200000*%
%ADD13C,0.040000*%
%ADD14C,0.120000*%
%ADD15C,0.101600*%
%ADD16C,0.152400*%
%ADD17C,0.000000*%
%ADD18C,0.127000*%
G04 APERTURE END LIST*
D10*
X99568000Y-52606800D02*
X124968000Y-52606800D01*
X124968000Y-86642800D01*
X99568000Y-86642800D01*
X99568000Y-52606800D01*
D11*
X81686779Y-107263866D02*
X82448684Y-107263866D01*
X82067731Y-107644819D02*
X82067731Y-106882914D01*
D12*
X97224435Y-105542219D02*
X97843482Y-105542219D01*
X97843482Y-105542219D02*
X97510149Y-105923171D01*
X97510149Y-105923171D02*
X97653006Y-105923171D01*
X97653006Y-105923171D02*
X97748244Y-105970790D01*
X97748244Y-105970790D02*
X97795863Y-106018409D01*
X97795863Y-106018409D02*
X97843482Y-106113647D01*
X97843482Y-106113647D02*
X97843482Y-106351742D01*
X97843482Y-106351742D02*
X97795863Y-106446980D01*
X97795863Y-106446980D02*
X97748244Y-106494600D01*
X97748244Y-106494600D02*
X97653006Y-106542219D01*
X97653006Y-106542219D02*
X97367292Y-106542219D01*
X97367292Y-106542219D02*
X97272054Y-106494600D01*
X97272054Y-106494600D02*
X97224435Y-106446980D01*
X98272054Y-106446980D02*
X98319673Y-106494600D01*
X98319673Y-106494600D02*
X98272054Y-106542219D01*
X98272054Y-106542219D02*
X98224435Y-106494600D01*
X98224435Y-106494600D02*
X98272054Y-106446980D01*
X98272054Y-106446980D02*
X98272054Y-106542219D01*
X98653006Y-105542219D02*
X99272053Y-105542219D01*
X99272053Y-105542219D02*
X98938720Y-105923171D01*
X98938720Y-105923171D02*
X99081577Y-105923171D01*
X99081577Y-105923171D02*
X99176815Y-105970790D01*
X99176815Y-105970790D02*
X99224434Y-106018409D01*
X99224434Y-106018409D02*
X99272053Y-106113647D01*
X99272053Y-106113647D02*
X99272053Y-106351742D01*
X99272053Y-106351742D02*
X99224434Y-106446980D01*
X99224434Y-106446980D02*
X99176815Y-106494600D01*
X99176815Y-106494600D02*
X99081577Y-106542219D01*
X99081577Y-106542219D02*
X98795863Y-106542219D01*
X98795863Y-106542219D02*
X98700625Y-106494600D01*
X98700625Y-106494600D02*
X98653006Y-106446980D01*
X99557768Y-105542219D02*
X99891101Y-106542219D01*
X99891101Y-106542219D02*
X100224434Y-105542219D01*
X101795863Y-106542219D02*
X101319673Y-106542219D01*
X101319673Y-106542219D02*
X101319673Y-105542219D01*
X102129197Y-106018409D02*
X102462530Y-106018409D01*
X102605387Y-106542219D02*
X102129197Y-106542219D01*
X102129197Y-106542219D02*
X102129197Y-105542219D01*
X102129197Y-105542219D02*
X102605387Y-105542219D01*
X103033959Y-106542219D02*
X103033959Y-105542219D01*
X103033959Y-105542219D02*
X103272054Y-105542219D01*
X103272054Y-105542219D02*
X103414911Y-105589838D01*
X103414911Y-105589838D02*
X103510149Y-105685076D01*
X103510149Y-105685076D02*
X103557768Y-105780314D01*
X103557768Y-105780314D02*
X103605387Y-105970790D01*
X103605387Y-105970790D02*
X103605387Y-106113647D01*
X103605387Y-106113647D02*
X103557768Y-106304123D01*
X103557768Y-106304123D02*
X103510149Y-106399361D01*
X103510149Y-106399361D02*
X103414911Y-106494600D01*
X103414911Y-106494600D02*
X103272054Y-106542219D01*
X103272054Y-106542219D02*
X103033959Y-106542219D01*
D13*
X102362886Y-89519465D02*
X102229553Y-89519465D01*
X102229553Y-89728989D02*
X102229553Y-89328989D01*
X102229553Y-89328989D02*
X102420029Y-89328989D01*
X102629552Y-89728989D02*
X102591457Y-89709942D01*
X102591457Y-89709942D02*
X102572410Y-89671846D01*
X102572410Y-89671846D02*
X102572410Y-89328989D01*
X102953362Y-89728989D02*
X102953362Y-89519465D01*
X102953362Y-89519465D02*
X102934315Y-89481370D01*
X102934315Y-89481370D02*
X102896219Y-89462322D01*
X102896219Y-89462322D02*
X102820029Y-89462322D01*
X102820029Y-89462322D02*
X102781934Y-89481370D01*
X102953362Y-89709942D02*
X102915267Y-89728989D01*
X102915267Y-89728989D02*
X102820029Y-89728989D01*
X102820029Y-89728989D02*
X102781934Y-89709942D01*
X102781934Y-89709942D02*
X102762886Y-89671846D01*
X102762886Y-89671846D02*
X102762886Y-89633751D01*
X102762886Y-89633751D02*
X102781934Y-89595656D01*
X102781934Y-89595656D02*
X102820029Y-89576608D01*
X102820029Y-89576608D02*
X102915267Y-89576608D01*
X102915267Y-89576608D02*
X102953362Y-89557561D01*
X103124791Y-89709942D02*
X103162886Y-89728989D01*
X103162886Y-89728989D02*
X103239077Y-89728989D01*
X103239077Y-89728989D02*
X103277172Y-89709942D01*
X103277172Y-89709942D02*
X103296220Y-89671846D01*
X103296220Y-89671846D02*
X103296220Y-89652799D01*
X103296220Y-89652799D02*
X103277172Y-89614703D01*
X103277172Y-89614703D02*
X103239077Y-89595656D01*
X103239077Y-89595656D02*
X103181934Y-89595656D01*
X103181934Y-89595656D02*
X103143839Y-89576608D01*
X103143839Y-89576608D02*
X103124791Y-89538513D01*
X103124791Y-89538513D02*
X103124791Y-89519465D01*
X103124791Y-89519465D02*
X103143839Y-89481370D01*
X103143839Y-89481370D02*
X103181934Y-89462322D01*
X103181934Y-89462322D02*
X103239077Y-89462322D01*
X103239077Y-89462322D02*
X103277172Y-89481370D01*
X103467649Y-89728989D02*
X103467649Y-89328989D01*
X103639077Y-89728989D02*
X103639077Y-89519465D01*
X103639077Y-89519465D02*
X103620030Y-89481370D01*
X103620030Y-89481370D02*
X103581934Y-89462322D01*
X103581934Y-89462322D02*
X103524791Y-89462322D01*
X103524791Y-89462322D02*
X103486696Y-89481370D01*
X103486696Y-89481370D02*
X103467649Y-89500418D01*
X102762886Y-90372967D02*
X102629553Y-90182491D01*
X102534315Y-90372967D02*
X102534315Y-89972967D01*
X102534315Y-89972967D02*
X102686696Y-89972967D01*
X102686696Y-89972967D02*
X102724791Y-89992015D01*
X102724791Y-89992015D02*
X102743838Y-90011062D01*
X102743838Y-90011062D02*
X102762886Y-90049158D01*
X102762886Y-90049158D02*
X102762886Y-90106300D01*
X102762886Y-90106300D02*
X102743838Y-90144396D01*
X102743838Y-90144396D02*
X102724791Y-90163443D01*
X102724791Y-90163443D02*
X102686696Y-90182491D01*
X102686696Y-90182491D02*
X102534315Y-90182491D01*
X102896219Y-89972967D02*
X103162886Y-90372967D01*
X103162886Y-89972967D02*
X102896219Y-90372967D01*
X116453553Y-110902967D02*
X116453553Y-110502967D01*
X116720219Y-110502967D02*
X116796410Y-110502967D01*
X116796410Y-110502967D02*
X116834505Y-110522015D01*
X116834505Y-110522015D02*
X116872600Y-110560110D01*
X116872600Y-110560110D02*
X116891648Y-110636300D01*
X116891648Y-110636300D02*
X116891648Y-110769634D01*
X116891648Y-110769634D02*
X116872600Y-110845824D01*
X116872600Y-110845824D02*
X116834505Y-110883920D01*
X116834505Y-110883920D02*
X116796410Y-110902967D01*
X116796410Y-110902967D02*
X116720219Y-110902967D01*
X116720219Y-110902967D02*
X116682124Y-110883920D01*
X116682124Y-110883920D02*
X116644029Y-110845824D01*
X116644029Y-110845824D02*
X116624981Y-110769634D01*
X116624981Y-110769634D02*
X116624981Y-110636300D01*
X116624981Y-110636300D02*
X116644029Y-110560110D01*
X116644029Y-110560110D02*
X116682124Y-110522015D01*
X116682124Y-110522015D02*
X116720219Y-110502967D01*
X117272600Y-110902967D02*
X117044029Y-110902967D01*
X117158315Y-110902967D02*
X117158315Y-110502967D01*
X117158315Y-110502967D02*
X117120219Y-110560110D01*
X117120219Y-110560110D02*
X117082124Y-110598205D01*
X117082124Y-110598205D02*
X117044029Y-110617253D01*
X117463076Y-110902967D02*
X117539267Y-110902967D01*
X117539267Y-110902967D02*
X117577362Y-110883920D01*
X117577362Y-110883920D02*
X117596410Y-110864872D01*
X117596410Y-110864872D02*
X117634505Y-110807729D01*
X117634505Y-110807729D02*
X117653552Y-110731539D01*
X117653552Y-110731539D02*
X117653552Y-110579158D01*
X117653552Y-110579158D02*
X117634505Y-110541062D01*
X117634505Y-110541062D02*
X117615457Y-110522015D01*
X117615457Y-110522015D02*
X117577362Y-110502967D01*
X117577362Y-110502967D02*
X117501171Y-110502967D01*
X117501171Y-110502967D02*
X117463076Y-110522015D01*
X117463076Y-110522015D02*
X117444029Y-110541062D01*
X117444029Y-110541062D02*
X117424981Y-110579158D01*
X117424981Y-110579158D02*
X117424981Y-110674396D01*
X117424981Y-110674396D02*
X117444029Y-110712491D01*
X117444029Y-110712491D02*
X117463076Y-110731539D01*
X117463076Y-110731539D02*
X117501171Y-110750586D01*
X117501171Y-110750586D02*
X117577362Y-110750586D01*
X117577362Y-110750586D02*
X117615457Y-110731539D01*
X117615457Y-110731539D02*
X117634505Y-110712491D01*
X117634505Y-110712491D02*
X117653552Y-110674396D01*
D11*
X103973922Y-61749987D02*
X104545350Y-61749987D01*
X104259636Y-62749987D02*
X104259636Y-61749987D01*
X104878684Y-62749987D02*
X104878684Y-61749987D01*
X105307255Y-62749987D02*
X105307255Y-62226177D01*
X105307255Y-62226177D02*
X105259636Y-62130939D01*
X105259636Y-62130939D02*
X105164398Y-62083320D01*
X105164398Y-62083320D02*
X105021541Y-62083320D01*
X105021541Y-62083320D02*
X104926303Y-62130939D01*
X104926303Y-62130939D02*
X104878684Y-62178558D01*
X105783446Y-62749987D02*
X105783446Y-62083320D01*
X105783446Y-61749987D02*
X105735827Y-61797606D01*
X105735827Y-61797606D02*
X105783446Y-61845225D01*
X105783446Y-61845225D02*
X105831065Y-61797606D01*
X105831065Y-61797606D02*
X105783446Y-61749987D01*
X105783446Y-61749987D02*
X105783446Y-61845225D01*
X106212017Y-62702368D02*
X106307255Y-62749987D01*
X106307255Y-62749987D02*
X106497731Y-62749987D01*
X106497731Y-62749987D02*
X106592969Y-62702368D01*
X106592969Y-62702368D02*
X106640588Y-62607129D01*
X106640588Y-62607129D02*
X106640588Y-62559510D01*
X106640588Y-62559510D02*
X106592969Y-62464272D01*
X106592969Y-62464272D02*
X106497731Y-62416653D01*
X106497731Y-62416653D02*
X106354874Y-62416653D01*
X106354874Y-62416653D02*
X106259636Y-62369034D01*
X106259636Y-62369034D02*
X106212017Y-62273796D01*
X106212017Y-62273796D02*
X106212017Y-62226177D01*
X106212017Y-62226177D02*
X106259636Y-62130939D01*
X106259636Y-62130939D02*
X106354874Y-62083320D01*
X106354874Y-62083320D02*
X106497731Y-62083320D01*
X106497731Y-62083320D02*
X106592969Y-62130939D01*
X108354874Y-61797606D02*
X108259636Y-61749987D01*
X108259636Y-61749987D02*
X108116779Y-61749987D01*
X108116779Y-61749987D02*
X107973922Y-61797606D01*
X107973922Y-61797606D02*
X107878684Y-61892844D01*
X107878684Y-61892844D02*
X107831065Y-61988082D01*
X107831065Y-61988082D02*
X107783446Y-62178558D01*
X107783446Y-62178558D02*
X107783446Y-62321415D01*
X107783446Y-62321415D02*
X107831065Y-62511891D01*
X107831065Y-62511891D02*
X107878684Y-62607129D01*
X107878684Y-62607129D02*
X107973922Y-62702368D01*
X107973922Y-62702368D02*
X108116779Y-62749987D01*
X108116779Y-62749987D02*
X108212017Y-62749987D01*
X108212017Y-62749987D02*
X108354874Y-62702368D01*
X108354874Y-62702368D02*
X108402493Y-62654748D01*
X108402493Y-62654748D02*
X108402493Y-62321415D01*
X108402493Y-62321415D02*
X108212017Y-62321415D01*
X108831065Y-62749987D02*
X108831065Y-61749987D01*
X108831065Y-61749987D02*
X109212017Y-61749987D01*
X109212017Y-61749987D02*
X109307255Y-61797606D01*
X109307255Y-61797606D02*
X109354874Y-61845225D01*
X109354874Y-61845225D02*
X109402493Y-61940463D01*
X109402493Y-61940463D02*
X109402493Y-62083320D01*
X109402493Y-62083320D02*
X109354874Y-62178558D01*
X109354874Y-62178558D02*
X109307255Y-62226177D01*
X109307255Y-62226177D02*
X109212017Y-62273796D01*
X109212017Y-62273796D02*
X108831065Y-62273796D01*
X109783446Y-62702368D02*
X109926303Y-62749987D01*
X109926303Y-62749987D02*
X110164398Y-62749987D01*
X110164398Y-62749987D02*
X110259636Y-62702368D01*
X110259636Y-62702368D02*
X110307255Y-62654748D01*
X110307255Y-62654748D02*
X110354874Y-62559510D01*
X110354874Y-62559510D02*
X110354874Y-62464272D01*
X110354874Y-62464272D02*
X110307255Y-62369034D01*
X110307255Y-62369034D02*
X110259636Y-62321415D01*
X110259636Y-62321415D02*
X110164398Y-62273796D01*
X110164398Y-62273796D02*
X109973922Y-62226177D01*
X109973922Y-62226177D02*
X109878684Y-62178558D01*
X109878684Y-62178558D02*
X109831065Y-62130939D01*
X109831065Y-62130939D02*
X109783446Y-62035701D01*
X109783446Y-62035701D02*
X109783446Y-61940463D01*
X109783446Y-61940463D02*
X109831065Y-61845225D01*
X109831065Y-61845225D02*
X109878684Y-61797606D01*
X109878684Y-61797606D02*
X109973922Y-61749987D01*
X109973922Y-61749987D02*
X110212017Y-61749987D01*
X110212017Y-61749987D02*
X110354874Y-61797606D01*
X111450113Y-62083320D02*
X111640589Y-62749987D01*
X111640589Y-62749987D02*
X111831065Y-62273796D01*
X111831065Y-62273796D02*
X112021541Y-62749987D01*
X112021541Y-62749987D02*
X112212017Y-62083320D01*
X112735827Y-62749987D02*
X112640589Y-62702368D01*
X112640589Y-62702368D02*
X112592970Y-62654748D01*
X112592970Y-62654748D02*
X112545351Y-62559510D01*
X112545351Y-62559510D02*
X112545351Y-62273796D01*
X112545351Y-62273796D02*
X112592970Y-62178558D01*
X112592970Y-62178558D02*
X112640589Y-62130939D01*
X112640589Y-62130939D02*
X112735827Y-62083320D01*
X112735827Y-62083320D02*
X112878684Y-62083320D01*
X112878684Y-62083320D02*
X112973922Y-62130939D01*
X112973922Y-62130939D02*
X113021541Y-62178558D01*
X113021541Y-62178558D02*
X113069160Y-62273796D01*
X113069160Y-62273796D02*
X113069160Y-62559510D01*
X113069160Y-62559510D02*
X113021541Y-62654748D01*
X113021541Y-62654748D02*
X112973922Y-62702368D01*
X112973922Y-62702368D02*
X112878684Y-62749987D01*
X112878684Y-62749987D02*
X112735827Y-62749987D01*
X113497732Y-62749987D02*
X113497732Y-62083320D01*
X113497732Y-62273796D02*
X113545351Y-62178558D01*
X113545351Y-62178558D02*
X113592970Y-62130939D01*
X113592970Y-62130939D02*
X113688208Y-62083320D01*
X113688208Y-62083320D02*
X113783446Y-62083320D01*
X114116780Y-62749987D02*
X114116780Y-61749987D01*
X114212018Y-62369034D02*
X114497732Y-62749987D01*
X114497732Y-62083320D02*
X114116780Y-62464272D01*
X114878685Y-62702368D02*
X114973923Y-62749987D01*
X114973923Y-62749987D02*
X115164399Y-62749987D01*
X115164399Y-62749987D02*
X115259637Y-62702368D01*
X115259637Y-62702368D02*
X115307256Y-62607129D01*
X115307256Y-62607129D02*
X115307256Y-62559510D01*
X115307256Y-62559510D02*
X115259637Y-62464272D01*
X115259637Y-62464272D02*
X115164399Y-62416653D01*
X115164399Y-62416653D02*
X115021542Y-62416653D01*
X115021542Y-62416653D02*
X114926304Y-62369034D01*
X114926304Y-62369034D02*
X114878685Y-62273796D01*
X114878685Y-62273796D02*
X114878685Y-62226177D01*
X114878685Y-62226177D02*
X114926304Y-62130939D01*
X114926304Y-62130939D02*
X115021542Y-62083320D01*
X115021542Y-62083320D02*
X115164399Y-62083320D01*
X115164399Y-62083320D02*
X115259637Y-62130939D01*
X116497733Y-62749987D02*
X116497733Y-61749987D01*
X116497733Y-62130939D02*
X116592971Y-62083320D01*
X116592971Y-62083320D02*
X116783447Y-62083320D01*
X116783447Y-62083320D02*
X116878685Y-62130939D01*
X116878685Y-62130939D02*
X116926304Y-62178558D01*
X116926304Y-62178558D02*
X116973923Y-62273796D01*
X116973923Y-62273796D02*
X116973923Y-62559510D01*
X116973923Y-62559510D02*
X116926304Y-62654748D01*
X116926304Y-62654748D02*
X116878685Y-62702368D01*
X116878685Y-62702368D02*
X116783447Y-62749987D01*
X116783447Y-62749987D02*
X116592971Y-62749987D01*
X116592971Y-62749987D02*
X116497733Y-62702368D01*
X117307257Y-62083320D02*
X117545352Y-62749987D01*
X117783447Y-62083320D02*
X117545352Y-62749987D01*
X117545352Y-62749987D02*
X117450114Y-62988082D01*
X117450114Y-62988082D02*
X117402495Y-63035701D01*
X117402495Y-63035701D02*
X117307257Y-63083320D01*
X104116779Y-64359931D02*
X104116779Y-63693264D01*
X104116779Y-63788502D02*
X104164398Y-63740883D01*
X104164398Y-63740883D02*
X104259636Y-63693264D01*
X104259636Y-63693264D02*
X104402493Y-63693264D01*
X104402493Y-63693264D02*
X104497731Y-63740883D01*
X104497731Y-63740883D02*
X104545350Y-63836121D01*
X104545350Y-63836121D02*
X104545350Y-64359931D01*
X104545350Y-63836121D02*
X104592969Y-63740883D01*
X104592969Y-63740883D02*
X104688207Y-63693264D01*
X104688207Y-63693264D02*
X104831064Y-63693264D01*
X104831064Y-63693264D02*
X104926303Y-63740883D01*
X104926303Y-63740883D02*
X104973922Y-63836121D01*
X104973922Y-63836121D02*
X104973922Y-64359931D01*
X105831064Y-64312312D02*
X105735826Y-64359931D01*
X105735826Y-64359931D02*
X105545350Y-64359931D01*
X105545350Y-64359931D02*
X105450112Y-64312312D01*
X105450112Y-64312312D02*
X105402493Y-64217073D01*
X105402493Y-64217073D02*
X105402493Y-63836121D01*
X105402493Y-63836121D02*
X105450112Y-63740883D01*
X105450112Y-63740883D02*
X105545350Y-63693264D01*
X105545350Y-63693264D02*
X105735826Y-63693264D01*
X105735826Y-63693264D02*
X105831064Y-63740883D01*
X105831064Y-63740883D02*
X105878683Y-63836121D01*
X105878683Y-63836121D02*
X105878683Y-63931359D01*
X105878683Y-63931359D02*
X105402493Y-64026597D01*
X106307255Y-64359931D02*
X106307255Y-63693264D01*
X106307255Y-63788502D02*
X106354874Y-63740883D01*
X106354874Y-63740883D02*
X106450112Y-63693264D01*
X106450112Y-63693264D02*
X106592969Y-63693264D01*
X106592969Y-63693264D02*
X106688207Y-63740883D01*
X106688207Y-63740883D02*
X106735826Y-63836121D01*
X106735826Y-63836121D02*
X106735826Y-64359931D01*
X106735826Y-63836121D02*
X106783445Y-63740883D01*
X106783445Y-63740883D02*
X106878683Y-63693264D01*
X106878683Y-63693264D02*
X107021540Y-63693264D01*
X107021540Y-63693264D02*
X107116779Y-63740883D01*
X107116779Y-63740883D02*
X107164398Y-63836121D01*
X107164398Y-63836121D02*
X107164398Y-64359931D01*
X107783445Y-64359931D02*
X107688207Y-64312312D01*
X107688207Y-64312312D02*
X107640588Y-64264692D01*
X107640588Y-64264692D02*
X107592969Y-64169454D01*
X107592969Y-64169454D02*
X107592969Y-63883740D01*
X107592969Y-63883740D02*
X107640588Y-63788502D01*
X107640588Y-63788502D02*
X107688207Y-63740883D01*
X107688207Y-63740883D02*
X107783445Y-63693264D01*
X107783445Y-63693264D02*
X107926302Y-63693264D01*
X107926302Y-63693264D02*
X108021540Y-63740883D01*
X108021540Y-63740883D02*
X108069159Y-63788502D01*
X108069159Y-63788502D02*
X108116778Y-63883740D01*
X108116778Y-63883740D02*
X108116778Y-64169454D01*
X108116778Y-64169454D02*
X108069159Y-64264692D01*
X108069159Y-64264692D02*
X108021540Y-64312312D01*
X108021540Y-64312312D02*
X107926302Y-64359931D01*
X107926302Y-64359931D02*
X107783445Y-64359931D01*
X108545350Y-64359931D02*
X108545350Y-63693264D01*
X108545350Y-63883740D02*
X108592969Y-63788502D01*
X108592969Y-63788502D02*
X108640588Y-63740883D01*
X108640588Y-63740883D02*
X108735826Y-63693264D01*
X108735826Y-63693264D02*
X108831064Y-63693264D01*
X109164398Y-64359931D02*
X109164398Y-63693264D01*
X109164398Y-63359931D02*
X109116779Y-63407550D01*
X109116779Y-63407550D02*
X109164398Y-63455169D01*
X109164398Y-63455169D02*
X109212017Y-63407550D01*
X109212017Y-63407550D02*
X109164398Y-63359931D01*
X109164398Y-63359931D02*
X109164398Y-63455169D01*
X109545350Y-63693264D02*
X110069159Y-63693264D01*
X110069159Y-63693264D02*
X109545350Y-64359931D01*
X109545350Y-64359931D02*
X110069159Y-64359931D01*
X110450112Y-64359931D02*
X110450112Y-63693264D01*
X110450112Y-63359931D02*
X110402493Y-63407550D01*
X110402493Y-63407550D02*
X110450112Y-63455169D01*
X110450112Y-63455169D02*
X110497731Y-63407550D01*
X110497731Y-63407550D02*
X110450112Y-63359931D01*
X110450112Y-63359931D02*
X110450112Y-63455169D01*
X110926302Y-63693264D02*
X110926302Y-64359931D01*
X110926302Y-63788502D02*
X110973921Y-63740883D01*
X110973921Y-63740883D02*
X111069159Y-63693264D01*
X111069159Y-63693264D02*
X111212016Y-63693264D01*
X111212016Y-63693264D02*
X111307254Y-63740883D01*
X111307254Y-63740883D02*
X111354873Y-63836121D01*
X111354873Y-63836121D02*
X111354873Y-64359931D01*
X112259635Y-63693264D02*
X112259635Y-64502788D01*
X112259635Y-64502788D02*
X112212016Y-64598026D01*
X112212016Y-64598026D02*
X112164397Y-64645645D01*
X112164397Y-64645645D02*
X112069159Y-64693264D01*
X112069159Y-64693264D02*
X111926302Y-64693264D01*
X111926302Y-64693264D02*
X111831064Y-64645645D01*
X112259635Y-64312312D02*
X112164397Y-64359931D01*
X112164397Y-64359931D02*
X111973921Y-64359931D01*
X111973921Y-64359931D02*
X111878683Y-64312312D01*
X111878683Y-64312312D02*
X111831064Y-64264692D01*
X111831064Y-64264692D02*
X111783445Y-64169454D01*
X111783445Y-64169454D02*
X111783445Y-63883740D01*
X111783445Y-63883740D02*
X111831064Y-63788502D01*
X111831064Y-63788502D02*
X111878683Y-63740883D01*
X111878683Y-63740883D02*
X111973921Y-63693264D01*
X111973921Y-63693264D02*
X112164397Y-63693264D01*
X112164397Y-63693264D02*
X112259635Y-63740883D01*
X113497731Y-64359931D02*
X113497731Y-63693264D01*
X113497731Y-63883740D02*
X113545350Y-63788502D01*
X113545350Y-63788502D02*
X113592969Y-63740883D01*
X113592969Y-63740883D02*
X113688207Y-63693264D01*
X113688207Y-63693264D02*
X113783445Y-63693264D01*
X114259636Y-64359931D02*
X114164398Y-64312312D01*
X114164398Y-64312312D02*
X114116779Y-64264692D01*
X114116779Y-64264692D02*
X114069160Y-64169454D01*
X114069160Y-64169454D02*
X114069160Y-63883740D01*
X114069160Y-63883740D02*
X114116779Y-63788502D01*
X114116779Y-63788502D02*
X114164398Y-63740883D01*
X114164398Y-63740883D02*
X114259636Y-63693264D01*
X114259636Y-63693264D02*
X114402493Y-63693264D01*
X114402493Y-63693264D02*
X114497731Y-63740883D01*
X114497731Y-63740883D02*
X114545350Y-63788502D01*
X114545350Y-63788502D02*
X114592969Y-63883740D01*
X114592969Y-63883740D02*
X114592969Y-64169454D01*
X114592969Y-64169454D02*
X114545350Y-64264692D01*
X114545350Y-64264692D02*
X114497731Y-64312312D01*
X114497731Y-64312312D02*
X114402493Y-64359931D01*
X114402493Y-64359931D02*
X114259636Y-64359931D01*
X115450112Y-64359931D02*
X115450112Y-63836121D01*
X115450112Y-63836121D02*
X115402493Y-63740883D01*
X115402493Y-63740883D02*
X115307255Y-63693264D01*
X115307255Y-63693264D02*
X115116779Y-63693264D01*
X115116779Y-63693264D02*
X115021541Y-63740883D01*
X115450112Y-64312312D02*
X115354874Y-64359931D01*
X115354874Y-64359931D02*
X115116779Y-64359931D01*
X115116779Y-64359931D02*
X115021541Y-64312312D01*
X115021541Y-64312312D02*
X114973922Y-64217073D01*
X114973922Y-64217073D02*
X114973922Y-64121835D01*
X114973922Y-64121835D02*
X115021541Y-64026597D01*
X115021541Y-64026597D02*
X115116779Y-63978978D01*
X115116779Y-63978978D02*
X115354874Y-63978978D01*
X115354874Y-63978978D02*
X115450112Y-63931359D01*
X116354874Y-64359931D02*
X116354874Y-63359931D01*
X116354874Y-64312312D02*
X116259636Y-64359931D01*
X116259636Y-64359931D02*
X116069160Y-64359931D01*
X116069160Y-64359931D02*
X115973922Y-64312312D01*
X115973922Y-64312312D02*
X115926303Y-64264692D01*
X115926303Y-64264692D02*
X115878684Y-64169454D01*
X115878684Y-64169454D02*
X115878684Y-63883740D01*
X115878684Y-63883740D02*
X115926303Y-63788502D01*
X115926303Y-63788502D02*
X115973922Y-63740883D01*
X115973922Y-63740883D02*
X116069160Y-63693264D01*
X116069160Y-63693264D02*
X116259636Y-63693264D01*
X116259636Y-63693264D02*
X116354874Y-63740883D01*
X104116779Y-65969875D02*
X104116779Y-65303208D01*
X104116779Y-64969875D02*
X104069160Y-65017494D01*
X104069160Y-65017494D02*
X104116779Y-65065113D01*
X104116779Y-65065113D02*
X104164398Y-65017494D01*
X104164398Y-65017494D02*
X104116779Y-64969875D01*
X104116779Y-64969875D02*
X104116779Y-65065113D01*
X104592969Y-65303208D02*
X104592969Y-65969875D01*
X104592969Y-65398446D02*
X104640588Y-65350827D01*
X104640588Y-65350827D02*
X104735826Y-65303208D01*
X104735826Y-65303208D02*
X104878683Y-65303208D01*
X104878683Y-65303208D02*
X104973921Y-65350827D01*
X104973921Y-65350827D02*
X105021540Y-65446065D01*
X105021540Y-65446065D02*
X105021540Y-65969875D01*
X105354874Y-65303208D02*
X105735826Y-65303208D01*
X105497731Y-65969875D02*
X105497731Y-65112732D01*
X105497731Y-65112732D02*
X105545350Y-65017494D01*
X105545350Y-65017494D02*
X105640588Y-64969875D01*
X105640588Y-64969875D02*
X105735826Y-64969875D01*
X106069160Y-65969875D02*
X106069160Y-65303208D01*
X106069160Y-65493684D02*
X106116779Y-65398446D01*
X106116779Y-65398446D02*
X106164398Y-65350827D01*
X106164398Y-65350827D02*
X106259636Y-65303208D01*
X106259636Y-65303208D02*
X106354874Y-65303208D01*
X107116779Y-65969875D02*
X107116779Y-65446065D01*
X107116779Y-65446065D02*
X107069160Y-65350827D01*
X107069160Y-65350827D02*
X106973922Y-65303208D01*
X106973922Y-65303208D02*
X106783446Y-65303208D01*
X106783446Y-65303208D02*
X106688208Y-65350827D01*
X107116779Y-65922256D02*
X107021541Y-65969875D01*
X107021541Y-65969875D02*
X106783446Y-65969875D01*
X106783446Y-65969875D02*
X106688208Y-65922256D01*
X106688208Y-65922256D02*
X106640589Y-65827017D01*
X106640589Y-65827017D02*
X106640589Y-65731779D01*
X106640589Y-65731779D02*
X106688208Y-65636541D01*
X106688208Y-65636541D02*
X106783446Y-65588922D01*
X106783446Y-65588922D02*
X107021541Y-65588922D01*
X107021541Y-65588922D02*
X107116779Y-65541303D01*
X107545351Y-65922256D02*
X107640589Y-65969875D01*
X107640589Y-65969875D02*
X107831065Y-65969875D01*
X107831065Y-65969875D02*
X107926303Y-65922256D01*
X107926303Y-65922256D02*
X107973922Y-65827017D01*
X107973922Y-65827017D02*
X107973922Y-65779398D01*
X107973922Y-65779398D02*
X107926303Y-65684160D01*
X107926303Y-65684160D02*
X107831065Y-65636541D01*
X107831065Y-65636541D02*
X107688208Y-65636541D01*
X107688208Y-65636541D02*
X107592970Y-65588922D01*
X107592970Y-65588922D02*
X107545351Y-65493684D01*
X107545351Y-65493684D02*
X107545351Y-65446065D01*
X107545351Y-65446065D02*
X107592970Y-65350827D01*
X107592970Y-65350827D02*
X107688208Y-65303208D01*
X107688208Y-65303208D02*
X107831065Y-65303208D01*
X107831065Y-65303208D02*
X107926303Y-65350827D01*
X108259637Y-65303208D02*
X108640589Y-65303208D01*
X108402494Y-64969875D02*
X108402494Y-65827017D01*
X108402494Y-65827017D02*
X108450113Y-65922256D01*
X108450113Y-65922256D02*
X108545351Y-65969875D01*
X108545351Y-65969875D02*
X108640589Y-65969875D01*
X108973923Y-65969875D02*
X108973923Y-65303208D01*
X108973923Y-65493684D02*
X109021542Y-65398446D01*
X109021542Y-65398446D02*
X109069161Y-65350827D01*
X109069161Y-65350827D02*
X109164399Y-65303208D01*
X109164399Y-65303208D02*
X109259637Y-65303208D01*
X110021542Y-65303208D02*
X110021542Y-65969875D01*
X109592971Y-65303208D02*
X109592971Y-65827017D01*
X109592971Y-65827017D02*
X109640590Y-65922256D01*
X109640590Y-65922256D02*
X109735828Y-65969875D01*
X109735828Y-65969875D02*
X109878685Y-65969875D01*
X109878685Y-65969875D02*
X109973923Y-65922256D01*
X109973923Y-65922256D02*
X110021542Y-65874636D01*
X110926304Y-65922256D02*
X110831066Y-65969875D01*
X110831066Y-65969875D02*
X110640590Y-65969875D01*
X110640590Y-65969875D02*
X110545352Y-65922256D01*
X110545352Y-65922256D02*
X110497733Y-65874636D01*
X110497733Y-65874636D02*
X110450114Y-65779398D01*
X110450114Y-65779398D02*
X110450114Y-65493684D01*
X110450114Y-65493684D02*
X110497733Y-65398446D01*
X110497733Y-65398446D02*
X110545352Y-65350827D01*
X110545352Y-65350827D02*
X110640590Y-65303208D01*
X110640590Y-65303208D02*
X110831066Y-65303208D01*
X110831066Y-65303208D02*
X110926304Y-65350827D01*
X111212019Y-65303208D02*
X111592971Y-65303208D01*
X111354876Y-64969875D02*
X111354876Y-65827017D01*
X111354876Y-65827017D02*
X111402495Y-65922256D01*
X111402495Y-65922256D02*
X111497733Y-65969875D01*
X111497733Y-65969875D02*
X111592971Y-65969875D01*
X112354876Y-65303208D02*
X112354876Y-65969875D01*
X111926305Y-65303208D02*
X111926305Y-65827017D01*
X111926305Y-65827017D02*
X111973924Y-65922256D01*
X111973924Y-65922256D02*
X112069162Y-65969875D01*
X112069162Y-65969875D02*
X112212019Y-65969875D01*
X112212019Y-65969875D02*
X112307257Y-65922256D01*
X112307257Y-65922256D02*
X112354876Y-65874636D01*
X112831067Y-65969875D02*
X112831067Y-65303208D01*
X112831067Y-65493684D02*
X112878686Y-65398446D01*
X112878686Y-65398446D02*
X112926305Y-65350827D01*
X112926305Y-65350827D02*
X113021543Y-65303208D01*
X113021543Y-65303208D02*
X113116781Y-65303208D01*
X113831067Y-65922256D02*
X113735829Y-65969875D01*
X113735829Y-65969875D02*
X113545353Y-65969875D01*
X113545353Y-65969875D02*
X113450115Y-65922256D01*
X113450115Y-65922256D02*
X113402496Y-65827017D01*
X113402496Y-65827017D02*
X113402496Y-65446065D01*
X113402496Y-65446065D02*
X113450115Y-65350827D01*
X113450115Y-65350827D02*
X113545353Y-65303208D01*
X113545353Y-65303208D02*
X113735829Y-65303208D01*
X113735829Y-65303208D02*
X113831067Y-65350827D01*
X113831067Y-65350827D02*
X113878686Y-65446065D01*
X113878686Y-65446065D02*
X113878686Y-65541303D01*
X113878686Y-65541303D02*
X113402496Y-65636541D01*
X104545350Y-67579819D02*
X104545350Y-67056009D01*
X104545350Y-67056009D02*
X104497731Y-66960771D01*
X104497731Y-66960771D02*
X104402493Y-66913152D01*
X104402493Y-66913152D02*
X104212017Y-66913152D01*
X104212017Y-66913152D02*
X104116779Y-66960771D01*
X104545350Y-67532200D02*
X104450112Y-67579819D01*
X104450112Y-67579819D02*
X104212017Y-67579819D01*
X104212017Y-67579819D02*
X104116779Y-67532200D01*
X104116779Y-67532200D02*
X104069160Y-67436961D01*
X104069160Y-67436961D02*
X104069160Y-67341723D01*
X104069160Y-67341723D02*
X104116779Y-67246485D01*
X104116779Y-67246485D02*
X104212017Y-67198866D01*
X104212017Y-67198866D02*
X104450112Y-67198866D01*
X104450112Y-67198866D02*
X104545350Y-67151247D01*
X105021541Y-66913152D02*
X105021541Y-67579819D01*
X105021541Y-67008390D02*
X105069160Y-66960771D01*
X105069160Y-66960771D02*
X105164398Y-66913152D01*
X105164398Y-66913152D02*
X105307255Y-66913152D01*
X105307255Y-66913152D02*
X105402493Y-66960771D01*
X105402493Y-66960771D02*
X105450112Y-67056009D01*
X105450112Y-67056009D02*
X105450112Y-67579819D01*
X106354874Y-67579819D02*
X106354874Y-66579819D01*
X106354874Y-67532200D02*
X106259636Y-67579819D01*
X106259636Y-67579819D02*
X106069160Y-67579819D01*
X106069160Y-67579819D02*
X105973922Y-67532200D01*
X105973922Y-67532200D02*
X105926303Y-67484580D01*
X105926303Y-67484580D02*
X105878684Y-67389342D01*
X105878684Y-67389342D02*
X105878684Y-67103628D01*
X105878684Y-67103628D02*
X105926303Y-67008390D01*
X105926303Y-67008390D02*
X105973922Y-66960771D01*
X105973922Y-66960771D02*
X106069160Y-66913152D01*
X106069160Y-66913152D02*
X106259636Y-66913152D01*
X106259636Y-66913152D02*
X106354874Y-66960771D01*
X107735827Y-67579819D02*
X107640589Y-67532200D01*
X107640589Y-67532200D02*
X107592970Y-67436961D01*
X107592970Y-67436961D02*
X107592970Y-66579819D01*
X108497732Y-67532200D02*
X108402494Y-67579819D01*
X108402494Y-67579819D02*
X108212018Y-67579819D01*
X108212018Y-67579819D02*
X108116780Y-67532200D01*
X108116780Y-67532200D02*
X108069161Y-67436961D01*
X108069161Y-67436961D02*
X108069161Y-67056009D01*
X108069161Y-67056009D02*
X108116780Y-66960771D01*
X108116780Y-66960771D02*
X108212018Y-66913152D01*
X108212018Y-66913152D02*
X108402494Y-66913152D01*
X108402494Y-66913152D02*
X108497732Y-66960771D01*
X108497732Y-66960771D02*
X108545351Y-67056009D01*
X108545351Y-67056009D02*
X108545351Y-67151247D01*
X108545351Y-67151247D02*
X108069161Y-67246485D01*
X109402494Y-67579819D02*
X109402494Y-67056009D01*
X109402494Y-67056009D02*
X109354875Y-66960771D01*
X109354875Y-66960771D02*
X109259637Y-66913152D01*
X109259637Y-66913152D02*
X109069161Y-66913152D01*
X109069161Y-66913152D02*
X108973923Y-66960771D01*
X109402494Y-67532200D02*
X109307256Y-67579819D01*
X109307256Y-67579819D02*
X109069161Y-67579819D01*
X109069161Y-67579819D02*
X108973923Y-67532200D01*
X108973923Y-67532200D02*
X108926304Y-67436961D01*
X108926304Y-67436961D02*
X108926304Y-67341723D01*
X108926304Y-67341723D02*
X108973923Y-67246485D01*
X108973923Y-67246485D02*
X109069161Y-67198866D01*
X109069161Y-67198866D02*
X109307256Y-67198866D01*
X109307256Y-67198866D02*
X109402494Y-67151247D01*
X109878685Y-67579819D02*
X109878685Y-66913152D01*
X109878685Y-67103628D02*
X109926304Y-67008390D01*
X109926304Y-67008390D02*
X109973923Y-66960771D01*
X109973923Y-66960771D02*
X110069161Y-66913152D01*
X110069161Y-66913152D02*
X110164399Y-66913152D01*
X110497733Y-66913152D02*
X110497733Y-67579819D01*
X110497733Y-67008390D02*
X110545352Y-66960771D01*
X110545352Y-66960771D02*
X110640590Y-66913152D01*
X110640590Y-66913152D02*
X110783447Y-66913152D01*
X110783447Y-66913152D02*
X110878685Y-66960771D01*
X110878685Y-66960771D02*
X110926304Y-67056009D01*
X110926304Y-67056009D02*
X110926304Y-67579819D01*
X111402495Y-67579819D02*
X111402495Y-66913152D01*
X111402495Y-66579819D02*
X111354876Y-66627438D01*
X111354876Y-66627438D02*
X111402495Y-66675057D01*
X111402495Y-66675057D02*
X111450114Y-66627438D01*
X111450114Y-66627438D02*
X111402495Y-66579819D01*
X111402495Y-66579819D02*
X111402495Y-66675057D01*
X111878685Y-66913152D02*
X111878685Y-67579819D01*
X111878685Y-67008390D02*
X111926304Y-66960771D01*
X111926304Y-66960771D02*
X112021542Y-66913152D01*
X112021542Y-66913152D02*
X112164399Y-66913152D01*
X112164399Y-66913152D02*
X112259637Y-66960771D01*
X112259637Y-66960771D02*
X112307256Y-67056009D01*
X112307256Y-67056009D02*
X112307256Y-67579819D01*
X113212018Y-66913152D02*
X113212018Y-67722676D01*
X113212018Y-67722676D02*
X113164399Y-67817914D01*
X113164399Y-67817914D02*
X113116780Y-67865533D01*
X113116780Y-67865533D02*
X113021542Y-67913152D01*
X113021542Y-67913152D02*
X112878685Y-67913152D01*
X112878685Y-67913152D02*
X112783447Y-67865533D01*
X113212018Y-67532200D02*
X113116780Y-67579819D01*
X113116780Y-67579819D02*
X112926304Y-67579819D01*
X112926304Y-67579819D02*
X112831066Y-67532200D01*
X112831066Y-67532200D02*
X112783447Y-67484580D01*
X112783447Y-67484580D02*
X112735828Y-67389342D01*
X112735828Y-67389342D02*
X112735828Y-67103628D01*
X112735828Y-67103628D02*
X112783447Y-67008390D01*
X112783447Y-67008390D02*
X112831066Y-66960771D01*
X112831066Y-66960771D02*
X112926304Y-66913152D01*
X112926304Y-66913152D02*
X113116780Y-66913152D01*
X113116780Y-66913152D02*
X113212018Y-66960771D01*
X114878685Y-67532200D02*
X114783447Y-67579819D01*
X114783447Y-67579819D02*
X114592971Y-67579819D01*
X114592971Y-67579819D02*
X114497733Y-67532200D01*
X114497733Y-67532200D02*
X114450114Y-67484580D01*
X114450114Y-67484580D02*
X114402495Y-67389342D01*
X114402495Y-67389342D02*
X114402495Y-67103628D01*
X114402495Y-67103628D02*
X114450114Y-67008390D01*
X114450114Y-67008390D02*
X114497733Y-66960771D01*
X114497733Y-66960771D02*
X114592971Y-66913152D01*
X114592971Y-66913152D02*
X114783447Y-66913152D01*
X114783447Y-66913152D02*
X114878685Y-66960771D01*
X115735828Y-67579819D02*
X115735828Y-67056009D01*
X115735828Y-67056009D02*
X115688209Y-66960771D01*
X115688209Y-66960771D02*
X115592971Y-66913152D01*
X115592971Y-66913152D02*
X115402495Y-66913152D01*
X115402495Y-66913152D02*
X115307257Y-66960771D01*
X115735828Y-67532200D02*
X115640590Y-67579819D01*
X115640590Y-67579819D02*
X115402495Y-67579819D01*
X115402495Y-67579819D02*
X115307257Y-67532200D01*
X115307257Y-67532200D02*
X115259638Y-67436961D01*
X115259638Y-67436961D02*
X115259638Y-67341723D01*
X115259638Y-67341723D02*
X115307257Y-67246485D01*
X115307257Y-67246485D02*
X115402495Y-67198866D01*
X115402495Y-67198866D02*
X115640590Y-67198866D01*
X115640590Y-67198866D02*
X115735828Y-67151247D01*
X116212019Y-67579819D02*
X116212019Y-66913152D01*
X116212019Y-67103628D02*
X116259638Y-67008390D01*
X116259638Y-67008390D02*
X116307257Y-66960771D01*
X116307257Y-66960771D02*
X116402495Y-66913152D01*
X116402495Y-66913152D02*
X116497733Y-66913152D01*
X117592972Y-67579819D02*
X117592972Y-66913152D01*
X117592972Y-67008390D02*
X117640591Y-66960771D01*
X117640591Y-66960771D02*
X117735829Y-66913152D01*
X117735829Y-66913152D02*
X117878686Y-66913152D01*
X117878686Y-66913152D02*
X117973924Y-66960771D01*
X117973924Y-66960771D02*
X118021543Y-67056009D01*
X118021543Y-67056009D02*
X118021543Y-67579819D01*
X118021543Y-67056009D02*
X118069162Y-66960771D01*
X118069162Y-66960771D02*
X118164400Y-66913152D01*
X118164400Y-66913152D02*
X118307257Y-66913152D01*
X118307257Y-66913152D02*
X118402496Y-66960771D01*
X118402496Y-66960771D02*
X118450115Y-67056009D01*
X118450115Y-67056009D02*
X118450115Y-67579819D01*
X119307257Y-67532200D02*
X119212019Y-67579819D01*
X119212019Y-67579819D02*
X119021543Y-67579819D01*
X119021543Y-67579819D02*
X118926305Y-67532200D01*
X118926305Y-67532200D02*
X118878686Y-67436961D01*
X118878686Y-67436961D02*
X118878686Y-67056009D01*
X118878686Y-67056009D02*
X118926305Y-66960771D01*
X118926305Y-66960771D02*
X119021543Y-66913152D01*
X119021543Y-66913152D02*
X119212019Y-66913152D01*
X119212019Y-66913152D02*
X119307257Y-66960771D01*
X119307257Y-66960771D02*
X119354876Y-67056009D01*
X119354876Y-67056009D02*
X119354876Y-67151247D01*
X119354876Y-67151247D02*
X118878686Y-67246485D01*
X119640591Y-66913152D02*
X120021543Y-66913152D01*
X119783448Y-66579819D02*
X119783448Y-67436961D01*
X119783448Y-67436961D02*
X119831067Y-67532200D01*
X119831067Y-67532200D02*
X119926305Y-67579819D01*
X119926305Y-67579819D02*
X120021543Y-67579819D01*
X120783448Y-67579819D02*
X120783448Y-67056009D01*
X120783448Y-67056009D02*
X120735829Y-66960771D01*
X120735829Y-66960771D02*
X120640591Y-66913152D01*
X120640591Y-66913152D02*
X120450115Y-66913152D01*
X120450115Y-66913152D02*
X120354877Y-66960771D01*
X120783448Y-67532200D02*
X120688210Y-67579819D01*
X120688210Y-67579819D02*
X120450115Y-67579819D01*
X120450115Y-67579819D02*
X120354877Y-67532200D01*
X120354877Y-67532200D02*
X120307258Y-67436961D01*
X120307258Y-67436961D02*
X120307258Y-67341723D01*
X120307258Y-67341723D02*
X120354877Y-67246485D01*
X120354877Y-67246485D02*
X120450115Y-67198866D01*
X120450115Y-67198866D02*
X120688210Y-67198866D01*
X120688210Y-67198866D02*
X120783448Y-67151247D01*
D13*
X116961553Y-106120967D02*
X116961553Y-105720967D01*
X117228219Y-105720967D02*
X117304410Y-105720967D01*
X117304410Y-105720967D02*
X117342505Y-105740015D01*
X117342505Y-105740015D02*
X117380600Y-105778110D01*
X117380600Y-105778110D02*
X117399648Y-105854300D01*
X117399648Y-105854300D02*
X117399648Y-105987634D01*
X117399648Y-105987634D02*
X117380600Y-106063824D01*
X117380600Y-106063824D02*
X117342505Y-106101920D01*
X117342505Y-106101920D02*
X117304410Y-106120967D01*
X117304410Y-106120967D02*
X117228219Y-106120967D01*
X117228219Y-106120967D02*
X117190124Y-106101920D01*
X117190124Y-106101920D02*
X117152029Y-106063824D01*
X117152029Y-106063824D02*
X117132981Y-105987634D01*
X117132981Y-105987634D02*
X117132981Y-105854300D01*
X117132981Y-105854300D02*
X117152029Y-105778110D01*
X117152029Y-105778110D02*
X117190124Y-105740015D01*
X117190124Y-105740015D02*
X117228219Y-105720967D01*
X117761553Y-105720967D02*
X117571077Y-105720967D01*
X117571077Y-105720967D02*
X117552029Y-105911443D01*
X117552029Y-105911443D02*
X117571077Y-105892396D01*
X117571077Y-105892396D02*
X117609172Y-105873348D01*
X117609172Y-105873348D02*
X117704410Y-105873348D01*
X117704410Y-105873348D02*
X117742505Y-105892396D01*
X117742505Y-105892396D02*
X117761553Y-105911443D01*
X117761553Y-105911443D02*
X117780600Y-105949539D01*
X117780600Y-105949539D02*
X117780600Y-106044777D01*
X117780600Y-106044777D02*
X117761553Y-106082872D01*
X117761553Y-106082872D02*
X117742505Y-106101920D01*
X117742505Y-106101920D02*
X117704410Y-106120967D01*
X117704410Y-106120967D02*
X117609172Y-106120967D01*
X117609172Y-106120967D02*
X117571077Y-106101920D01*
X117571077Y-106101920D02*
X117552029Y-106082872D01*
X116453553Y-112728966D02*
X116453553Y-112328966D01*
X116720219Y-112328966D02*
X116796410Y-112328966D01*
X116796410Y-112328966D02*
X116834505Y-112348014D01*
X116834505Y-112348014D02*
X116872600Y-112386109D01*
X116872600Y-112386109D02*
X116891648Y-112462299D01*
X116891648Y-112462299D02*
X116891648Y-112595633D01*
X116891648Y-112595633D02*
X116872600Y-112671823D01*
X116872600Y-112671823D02*
X116834505Y-112709919D01*
X116834505Y-112709919D02*
X116796410Y-112728966D01*
X116796410Y-112728966D02*
X116720219Y-112728966D01*
X116720219Y-112728966D02*
X116682124Y-112709919D01*
X116682124Y-112709919D02*
X116644029Y-112671823D01*
X116644029Y-112671823D02*
X116624981Y-112595633D01*
X116624981Y-112595633D02*
X116624981Y-112462299D01*
X116624981Y-112462299D02*
X116644029Y-112386109D01*
X116644029Y-112386109D02*
X116682124Y-112348014D01*
X116682124Y-112348014D02*
X116720219Y-112328966D01*
X117044029Y-112367061D02*
X117063077Y-112348014D01*
X117063077Y-112348014D02*
X117101172Y-112328966D01*
X117101172Y-112328966D02*
X117196410Y-112328966D01*
X117196410Y-112328966D02*
X117234505Y-112348014D01*
X117234505Y-112348014D02*
X117253553Y-112367061D01*
X117253553Y-112367061D02*
X117272600Y-112405157D01*
X117272600Y-112405157D02*
X117272600Y-112443252D01*
X117272600Y-112443252D02*
X117253553Y-112500395D01*
X117253553Y-112500395D02*
X117024981Y-112728966D01*
X117024981Y-112728966D02*
X117272600Y-112728966D01*
X117653552Y-112728966D02*
X117424981Y-112728966D01*
X117539267Y-112728966D02*
X117539267Y-112328966D01*
X117539267Y-112328966D02*
X117501171Y-112386109D01*
X117501171Y-112386109D02*
X117463076Y-112424204D01*
X117463076Y-112424204D02*
X117424981Y-112443252D01*
D14*
X91297855Y-86471624D02*
X91297855Y-86852576D01*
X91297855Y-86852576D02*
X91678807Y-86890672D01*
X91678807Y-86890672D02*
X91640712Y-86852576D01*
X91640712Y-86852576D02*
X91602617Y-86776386D01*
X91602617Y-86776386D02*
X91602617Y-86585910D01*
X91602617Y-86585910D02*
X91640712Y-86509719D01*
X91640712Y-86509719D02*
X91678807Y-86471624D01*
X91678807Y-86471624D02*
X91754998Y-86433529D01*
X91754998Y-86433529D02*
X91945474Y-86433529D01*
X91945474Y-86433529D02*
X92021664Y-86471624D01*
X92021664Y-86471624D02*
X92059760Y-86509719D01*
X92059760Y-86509719D02*
X92097855Y-86585910D01*
X92097855Y-86585910D02*
X92097855Y-86776386D01*
X92097855Y-86776386D02*
X92059760Y-86852576D01*
X92059760Y-86852576D02*
X92021664Y-86890672D01*
X91297855Y-86204957D02*
X92097855Y-85938290D01*
X92097855Y-85938290D02*
X91297855Y-85671624D01*
X92097855Y-84414481D02*
X92097855Y-84795433D01*
X92097855Y-84795433D02*
X91297855Y-84795433D01*
X91678807Y-84147814D02*
X91678807Y-83881148D01*
X92097855Y-83766862D02*
X92097855Y-84147814D01*
X92097855Y-84147814D02*
X91297855Y-84147814D01*
X91297855Y-84147814D02*
X91297855Y-83766862D01*
X92097855Y-83424004D02*
X91297855Y-83424004D01*
X91297855Y-83424004D02*
X91297855Y-83233528D01*
X91297855Y-83233528D02*
X91335950Y-83119242D01*
X91335950Y-83119242D02*
X91412140Y-83043052D01*
X91412140Y-83043052D02*
X91488331Y-83004957D01*
X91488331Y-83004957D02*
X91640712Y-82966861D01*
X91640712Y-82966861D02*
X91754998Y-82966861D01*
X91754998Y-82966861D02*
X91907379Y-83004957D01*
X91907379Y-83004957D02*
X91983569Y-83043052D01*
X91983569Y-83043052D02*
X92059760Y-83119242D01*
X92059760Y-83119242D02*
X92097855Y-83233528D01*
X92097855Y-83233528D02*
X92097855Y-83424004D01*
D13*
X110744886Y-87115443D02*
X110611553Y-87115443D01*
X110611553Y-87324967D02*
X110611553Y-86924967D01*
X110611553Y-86924967D02*
X110802029Y-86924967D01*
X111011552Y-87324967D02*
X110973457Y-87305920D01*
X110973457Y-87305920D02*
X110954410Y-87267824D01*
X110954410Y-87267824D02*
X110954410Y-86924967D01*
X111335362Y-87324967D02*
X111335362Y-87115443D01*
X111335362Y-87115443D02*
X111316315Y-87077348D01*
X111316315Y-87077348D02*
X111278219Y-87058300D01*
X111278219Y-87058300D02*
X111202029Y-87058300D01*
X111202029Y-87058300D02*
X111163934Y-87077348D01*
X111335362Y-87305920D02*
X111297267Y-87324967D01*
X111297267Y-87324967D02*
X111202029Y-87324967D01*
X111202029Y-87324967D02*
X111163934Y-87305920D01*
X111163934Y-87305920D02*
X111144886Y-87267824D01*
X111144886Y-87267824D02*
X111144886Y-87229729D01*
X111144886Y-87229729D02*
X111163934Y-87191634D01*
X111163934Y-87191634D02*
X111202029Y-87172586D01*
X111202029Y-87172586D02*
X111297267Y-87172586D01*
X111297267Y-87172586D02*
X111335362Y-87153539D01*
X111506791Y-87305920D02*
X111544886Y-87324967D01*
X111544886Y-87324967D02*
X111621077Y-87324967D01*
X111621077Y-87324967D02*
X111659172Y-87305920D01*
X111659172Y-87305920D02*
X111678220Y-87267824D01*
X111678220Y-87267824D02*
X111678220Y-87248777D01*
X111678220Y-87248777D02*
X111659172Y-87210681D01*
X111659172Y-87210681D02*
X111621077Y-87191634D01*
X111621077Y-87191634D02*
X111563934Y-87191634D01*
X111563934Y-87191634D02*
X111525839Y-87172586D01*
X111525839Y-87172586D02*
X111506791Y-87134491D01*
X111506791Y-87134491D02*
X111506791Y-87115443D01*
X111506791Y-87115443D02*
X111525839Y-87077348D01*
X111525839Y-87077348D02*
X111563934Y-87058300D01*
X111563934Y-87058300D02*
X111621077Y-87058300D01*
X111621077Y-87058300D02*
X111659172Y-87077348D01*
X111849649Y-87324967D02*
X111849649Y-86924967D01*
X112021077Y-87324967D02*
X112021077Y-87115443D01*
X112021077Y-87115443D02*
X112002030Y-87077348D01*
X112002030Y-87077348D02*
X111963934Y-87058300D01*
X111963934Y-87058300D02*
X111906791Y-87058300D01*
X111906791Y-87058300D02*
X111868696Y-87077348D01*
X111868696Y-87077348D02*
X111849649Y-87096396D01*
X112154411Y-86924967D02*
X112382982Y-86924967D01*
X112268696Y-87324967D02*
X112268696Y-86924967D01*
X112478220Y-86924967D02*
X112744887Y-87324967D01*
X112744887Y-86924967D02*
X112478220Y-87324967D01*
D11*
X92538779Y-82546866D02*
X93300684Y-82546866D01*
X92919731Y-82927819D02*
X92919731Y-82165914D01*
X119207142Y-101929819D02*
X118873809Y-101453628D01*
X118635714Y-101929819D02*
X118635714Y-100929819D01*
X118635714Y-100929819D02*
X119016666Y-100929819D01*
X119016666Y-100929819D02*
X119111904Y-100977438D01*
X119111904Y-100977438D02*
X119159523Y-101025057D01*
X119159523Y-101025057D02*
X119207142Y-101120295D01*
X119207142Y-101120295D02*
X119207142Y-101263152D01*
X119207142Y-101263152D02*
X119159523Y-101358390D01*
X119159523Y-101358390D02*
X119111904Y-101406009D01*
X119111904Y-101406009D02*
X119016666Y-101453628D01*
X119016666Y-101453628D02*
X118635714Y-101453628D01*
X119588095Y-101025057D02*
X119635714Y-100977438D01*
X119635714Y-100977438D02*
X119730952Y-100929819D01*
X119730952Y-100929819D02*
X119969047Y-100929819D01*
X119969047Y-100929819D02*
X120064285Y-100977438D01*
X120064285Y-100977438D02*
X120111904Y-101025057D01*
X120111904Y-101025057D02*
X120159523Y-101120295D01*
X120159523Y-101120295D02*
X120159523Y-101215533D01*
X120159523Y-101215533D02*
X120111904Y-101358390D01*
X120111904Y-101358390D02*
X119540476Y-101929819D01*
X119540476Y-101929819D02*
X120159523Y-101929819D01*
X121111904Y-101929819D02*
X120540476Y-101929819D01*
X120826190Y-101929819D02*
X120826190Y-100929819D01*
X120826190Y-100929819D02*
X120730952Y-101072676D01*
X120730952Y-101072676D02*
X120635714Y-101167914D01*
X120635714Y-101167914D02*
X120540476Y-101215533D01*
X138381580Y-56003889D02*
X139381580Y-56003889D01*
X138905390Y-56003889D02*
X138905390Y-56575317D01*
X138381580Y-56575317D02*
X139381580Y-56575317D01*
X138381580Y-57480079D02*
X138905390Y-57480079D01*
X138905390Y-57480079D02*
X139000628Y-57432460D01*
X139000628Y-57432460D02*
X139048247Y-57337222D01*
X139048247Y-57337222D02*
X139048247Y-57146746D01*
X139048247Y-57146746D02*
X139000628Y-57051508D01*
X138429200Y-57480079D02*
X138381580Y-57384841D01*
X138381580Y-57384841D02*
X138381580Y-57146746D01*
X138381580Y-57146746D02*
X138429200Y-57051508D01*
X138429200Y-57051508D02*
X138524438Y-57003889D01*
X138524438Y-57003889D02*
X138619676Y-57003889D01*
X138619676Y-57003889D02*
X138714914Y-57051508D01*
X138714914Y-57051508D02*
X138762533Y-57146746D01*
X138762533Y-57146746D02*
X138762533Y-57384841D01*
X138762533Y-57384841D02*
X138810152Y-57480079D01*
X138381580Y-58099127D02*
X138429200Y-58003889D01*
X138429200Y-58003889D02*
X138524438Y-57956270D01*
X138524438Y-57956270D02*
X139381580Y-57956270D01*
X138381580Y-58622937D02*
X138429200Y-58527699D01*
X138429200Y-58527699D02*
X138524438Y-58480080D01*
X138524438Y-58480080D02*
X139381580Y-58480080D01*
X138429200Y-59718176D02*
X138381580Y-59861033D01*
X138381580Y-59861033D02*
X138381580Y-60099128D01*
X138381580Y-60099128D02*
X138429200Y-60194366D01*
X138429200Y-60194366D02*
X138476819Y-60241985D01*
X138476819Y-60241985D02*
X138572057Y-60289604D01*
X138572057Y-60289604D02*
X138667295Y-60289604D01*
X138667295Y-60289604D02*
X138762533Y-60241985D01*
X138762533Y-60241985D02*
X138810152Y-60194366D01*
X138810152Y-60194366D02*
X138857771Y-60099128D01*
X138857771Y-60099128D02*
X138905390Y-59908652D01*
X138905390Y-59908652D02*
X138953009Y-59813414D01*
X138953009Y-59813414D02*
X139000628Y-59765795D01*
X139000628Y-59765795D02*
X139095866Y-59718176D01*
X139095866Y-59718176D02*
X139191104Y-59718176D01*
X139191104Y-59718176D02*
X139286342Y-59765795D01*
X139286342Y-59765795D02*
X139333961Y-59813414D01*
X139333961Y-59813414D02*
X139381580Y-59908652D01*
X139381580Y-59908652D02*
X139381580Y-60146747D01*
X139381580Y-60146747D02*
X139333961Y-60289604D01*
X138429200Y-61099128D02*
X138381580Y-61003890D01*
X138381580Y-61003890D02*
X138381580Y-60813414D01*
X138381580Y-60813414D02*
X138429200Y-60718176D01*
X138429200Y-60718176D02*
X138524438Y-60670557D01*
X138524438Y-60670557D02*
X138905390Y-60670557D01*
X138905390Y-60670557D02*
X139000628Y-60718176D01*
X139000628Y-60718176D02*
X139048247Y-60813414D01*
X139048247Y-60813414D02*
X139048247Y-61003890D01*
X139048247Y-61003890D02*
X139000628Y-61099128D01*
X139000628Y-61099128D02*
X138905390Y-61146747D01*
X138905390Y-61146747D02*
X138810152Y-61146747D01*
X138810152Y-61146747D02*
X138714914Y-60670557D01*
X139048247Y-61575319D02*
X138381580Y-61575319D01*
X138953009Y-61575319D02*
X139000628Y-61622938D01*
X139000628Y-61622938D02*
X139048247Y-61718176D01*
X139048247Y-61718176D02*
X139048247Y-61861033D01*
X139048247Y-61861033D02*
X139000628Y-61956271D01*
X139000628Y-61956271D02*
X138905390Y-62003890D01*
X138905390Y-62003890D02*
X138381580Y-62003890D01*
X138429200Y-62432462D02*
X138381580Y-62527700D01*
X138381580Y-62527700D02*
X138381580Y-62718176D01*
X138381580Y-62718176D02*
X138429200Y-62813414D01*
X138429200Y-62813414D02*
X138524438Y-62861033D01*
X138524438Y-62861033D02*
X138572057Y-62861033D01*
X138572057Y-62861033D02*
X138667295Y-62813414D01*
X138667295Y-62813414D02*
X138714914Y-62718176D01*
X138714914Y-62718176D02*
X138714914Y-62575319D01*
X138714914Y-62575319D02*
X138762533Y-62480081D01*
X138762533Y-62480081D02*
X138857771Y-62432462D01*
X138857771Y-62432462D02*
X138905390Y-62432462D01*
X138905390Y-62432462D02*
X139000628Y-62480081D01*
X139000628Y-62480081D02*
X139048247Y-62575319D01*
X139048247Y-62575319D02*
X139048247Y-62718176D01*
X139048247Y-62718176D02*
X139000628Y-62813414D01*
X138381580Y-63432462D02*
X138429200Y-63337224D01*
X138429200Y-63337224D02*
X138476819Y-63289605D01*
X138476819Y-63289605D02*
X138572057Y-63241986D01*
X138572057Y-63241986D02*
X138857771Y-63241986D01*
X138857771Y-63241986D02*
X138953009Y-63289605D01*
X138953009Y-63289605D02*
X139000628Y-63337224D01*
X139000628Y-63337224D02*
X139048247Y-63432462D01*
X139048247Y-63432462D02*
X139048247Y-63575319D01*
X139048247Y-63575319D02*
X139000628Y-63670557D01*
X139000628Y-63670557D02*
X138953009Y-63718176D01*
X138953009Y-63718176D02*
X138857771Y-63765795D01*
X138857771Y-63765795D02*
X138572057Y-63765795D01*
X138572057Y-63765795D02*
X138476819Y-63718176D01*
X138476819Y-63718176D02*
X138429200Y-63670557D01*
X138429200Y-63670557D02*
X138381580Y-63575319D01*
X138381580Y-63575319D02*
X138381580Y-63432462D01*
X138381580Y-64194367D02*
X139048247Y-64194367D01*
X138857771Y-64194367D02*
X138953009Y-64241986D01*
X138953009Y-64241986D02*
X139000628Y-64289605D01*
X139000628Y-64289605D02*
X139048247Y-64384843D01*
X139048247Y-64384843D02*
X139048247Y-64480081D01*
X139286342Y-65527701D02*
X139333961Y-65575320D01*
X139333961Y-65575320D02*
X139381580Y-65670558D01*
X139381580Y-65670558D02*
X139381580Y-65908653D01*
X139381580Y-65908653D02*
X139333961Y-66003891D01*
X139333961Y-66003891D02*
X139286342Y-66051510D01*
X139286342Y-66051510D02*
X139191104Y-66099129D01*
X139191104Y-66099129D02*
X139095866Y-66099129D01*
X139095866Y-66099129D02*
X138953009Y-66051510D01*
X138953009Y-66051510D02*
X138381580Y-65480082D01*
X138381580Y-65480082D02*
X138381580Y-66099129D01*
X110944819Y-92876666D02*
X110468628Y-93209999D01*
X110944819Y-93448094D02*
X109944819Y-93448094D01*
X109944819Y-93448094D02*
X109944819Y-93067142D01*
X109944819Y-93067142D02*
X109992438Y-92971904D01*
X109992438Y-92971904D02*
X110040057Y-92924285D01*
X110040057Y-92924285D02*
X110135295Y-92876666D01*
X110135295Y-92876666D02*
X110278152Y-92876666D01*
X110278152Y-92876666D02*
X110373390Y-92924285D01*
X110373390Y-92924285D02*
X110421009Y-92971904D01*
X110421009Y-92971904D02*
X110468628Y-93067142D01*
X110468628Y-93067142D02*
X110468628Y-93448094D01*
X110040057Y-92495713D02*
X109992438Y-92448094D01*
X109992438Y-92448094D02*
X109944819Y-92352856D01*
X109944819Y-92352856D02*
X109944819Y-92114761D01*
X109944819Y-92114761D02*
X109992438Y-92019523D01*
X109992438Y-92019523D02*
X110040057Y-91971904D01*
X110040057Y-91971904D02*
X110135295Y-91924285D01*
X110135295Y-91924285D02*
X110230533Y-91924285D01*
X110230533Y-91924285D02*
X110373390Y-91971904D01*
X110373390Y-91971904D02*
X110944819Y-92543332D01*
X110944819Y-92543332D02*
X110944819Y-91924285D01*
X119732819Y-55959504D02*
X118732819Y-55959504D01*
X119209009Y-55959504D02*
X119209009Y-55388076D01*
X119732819Y-55388076D02*
X118732819Y-55388076D01*
X118828057Y-54959504D02*
X118780438Y-54911885D01*
X118780438Y-54911885D02*
X118732819Y-54816647D01*
X118732819Y-54816647D02*
X118732819Y-54578552D01*
X118732819Y-54578552D02*
X118780438Y-54483314D01*
X118780438Y-54483314D02*
X118828057Y-54435695D01*
X118828057Y-54435695D02*
X118923295Y-54388076D01*
X118923295Y-54388076D02*
X119018533Y-54388076D01*
X119018533Y-54388076D02*
X119161390Y-54435695D01*
X119161390Y-54435695D02*
X119732819Y-55007123D01*
X119732819Y-55007123D02*
X119732819Y-54388076D01*
D10*
X118808667Y-88039800D02*
X118951524Y-88087419D01*
X118951524Y-88087419D02*
X119189619Y-88087419D01*
X119189619Y-88087419D02*
X119284857Y-88039800D01*
X119284857Y-88039800D02*
X119332476Y-87992180D01*
X119332476Y-87992180D02*
X119380095Y-87896942D01*
X119380095Y-87896942D02*
X119380095Y-87801704D01*
X119380095Y-87801704D02*
X119332476Y-87706466D01*
X119332476Y-87706466D02*
X119284857Y-87658847D01*
X119284857Y-87658847D02*
X119189619Y-87611228D01*
X119189619Y-87611228D02*
X118999143Y-87563609D01*
X118999143Y-87563609D02*
X118903905Y-87515990D01*
X118903905Y-87515990D02*
X118856286Y-87468371D01*
X118856286Y-87468371D02*
X118808667Y-87373133D01*
X118808667Y-87373133D02*
X118808667Y-87277895D01*
X118808667Y-87277895D02*
X118856286Y-87182657D01*
X118856286Y-87182657D02*
X118903905Y-87135038D01*
X118903905Y-87135038D02*
X118999143Y-87087419D01*
X118999143Y-87087419D02*
X119237238Y-87087419D01*
X119237238Y-87087419D02*
X119380095Y-87135038D01*
X119713429Y-87087419D02*
X119951524Y-88087419D01*
X119951524Y-88087419D02*
X120142000Y-87373133D01*
X120142000Y-87373133D02*
X120332476Y-88087419D01*
X120332476Y-88087419D02*
X120570572Y-87087419D01*
X120903905Y-87182657D02*
X120951524Y-87135038D01*
X120951524Y-87135038D02*
X121046762Y-87087419D01*
X121046762Y-87087419D02*
X121284857Y-87087419D01*
X121284857Y-87087419D02*
X121380095Y-87135038D01*
X121380095Y-87135038D02*
X121427714Y-87182657D01*
X121427714Y-87182657D02*
X121475333Y-87277895D01*
X121475333Y-87277895D02*
X121475333Y-87373133D01*
X121475333Y-87373133D02*
X121427714Y-87515990D01*
X121427714Y-87515990D02*
X120856286Y-88087419D01*
X120856286Y-88087419D02*
X121475333Y-88087419D01*
D11*
X87073819Y-103785857D02*
X86597628Y-104119190D01*
X87073819Y-104357285D02*
X86073819Y-104357285D01*
X86073819Y-104357285D02*
X86073819Y-103976333D01*
X86073819Y-103976333D02*
X86121438Y-103881095D01*
X86121438Y-103881095D02*
X86169057Y-103833476D01*
X86169057Y-103833476D02*
X86264295Y-103785857D01*
X86264295Y-103785857D02*
X86407152Y-103785857D01*
X86407152Y-103785857D02*
X86502390Y-103833476D01*
X86502390Y-103833476D02*
X86550009Y-103881095D01*
X86550009Y-103881095D02*
X86597628Y-103976333D01*
X86597628Y-103976333D02*
X86597628Y-104357285D01*
X87073819Y-102833476D02*
X87073819Y-103404904D01*
X87073819Y-103119190D02*
X86073819Y-103119190D01*
X86073819Y-103119190D02*
X86216676Y-103214428D01*
X86216676Y-103214428D02*
X86311914Y-103309666D01*
X86311914Y-103309666D02*
X86359533Y-103404904D01*
X86073819Y-101928714D02*
X86073819Y-102404904D01*
X86073819Y-102404904D02*
X86550009Y-102452523D01*
X86550009Y-102452523D02*
X86502390Y-102404904D01*
X86502390Y-102404904D02*
X86454771Y-102309666D01*
X86454771Y-102309666D02*
X86454771Y-102071571D01*
X86454771Y-102071571D02*
X86502390Y-101976333D01*
X86502390Y-101976333D02*
X86550009Y-101928714D01*
X86550009Y-101928714D02*
X86645247Y-101881095D01*
X86645247Y-101881095D02*
X86883342Y-101881095D01*
X86883342Y-101881095D02*
X86978580Y-101928714D01*
X86978580Y-101928714D02*
X87026200Y-101976333D01*
X87026200Y-101976333D02*
X87073819Y-102071571D01*
X87073819Y-102071571D02*
X87073819Y-102309666D01*
X87073819Y-102309666D02*
X87026200Y-102404904D01*
X87026200Y-102404904D02*
X86978580Y-102452523D01*
X101662819Y-100993857D02*
X101186628Y-101327190D01*
X101662819Y-101565285D02*
X100662819Y-101565285D01*
X100662819Y-101565285D02*
X100662819Y-101184333D01*
X100662819Y-101184333D02*
X100710438Y-101089095D01*
X100710438Y-101089095D02*
X100758057Y-101041476D01*
X100758057Y-101041476D02*
X100853295Y-100993857D01*
X100853295Y-100993857D02*
X100996152Y-100993857D01*
X100996152Y-100993857D02*
X101091390Y-101041476D01*
X101091390Y-101041476D02*
X101139009Y-101089095D01*
X101139009Y-101089095D02*
X101186628Y-101184333D01*
X101186628Y-101184333D02*
X101186628Y-101565285D01*
X101662819Y-100041476D02*
X101662819Y-100612904D01*
X101662819Y-100327190D02*
X100662819Y-100327190D01*
X100662819Y-100327190D02*
X100805676Y-100422428D01*
X100805676Y-100422428D02*
X100900914Y-100517666D01*
X100900914Y-100517666D02*
X100948533Y-100612904D01*
X100662819Y-99708142D02*
X100662819Y-99089095D01*
X100662819Y-99089095D02*
X101043771Y-99422428D01*
X101043771Y-99422428D02*
X101043771Y-99279571D01*
X101043771Y-99279571D02*
X101091390Y-99184333D01*
X101091390Y-99184333D02*
X101139009Y-99136714D01*
X101139009Y-99136714D02*
X101234247Y-99089095D01*
X101234247Y-99089095D02*
X101472342Y-99089095D01*
X101472342Y-99089095D02*
X101567580Y-99136714D01*
X101567580Y-99136714D02*
X101615200Y-99184333D01*
X101615200Y-99184333D02*
X101662819Y-99279571D01*
X101662819Y-99279571D02*
X101662819Y-99565285D01*
X101662819Y-99565285D02*
X101615200Y-99660523D01*
X101615200Y-99660523D02*
X101567580Y-99708142D01*
X138535180Y-70769789D02*
X139535180Y-70769789D01*
X139058990Y-70769789D02*
X139058990Y-71341217D01*
X138535180Y-71341217D02*
X139535180Y-71341217D01*
X138535180Y-72245979D02*
X139058990Y-72245979D01*
X139058990Y-72245979D02*
X139154228Y-72198360D01*
X139154228Y-72198360D02*
X139201847Y-72103122D01*
X139201847Y-72103122D02*
X139201847Y-71912646D01*
X139201847Y-71912646D02*
X139154228Y-71817408D01*
X138582800Y-72245979D02*
X138535180Y-72150741D01*
X138535180Y-72150741D02*
X138535180Y-71912646D01*
X138535180Y-71912646D02*
X138582800Y-71817408D01*
X138582800Y-71817408D02*
X138678038Y-71769789D01*
X138678038Y-71769789D02*
X138773276Y-71769789D01*
X138773276Y-71769789D02*
X138868514Y-71817408D01*
X138868514Y-71817408D02*
X138916133Y-71912646D01*
X138916133Y-71912646D02*
X138916133Y-72150741D01*
X138916133Y-72150741D02*
X138963752Y-72245979D01*
X138535180Y-72865027D02*
X138582800Y-72769789D01*
X138582800Y-72769789D02*
X138678038Y-72722170D01*
X138678038Y-72722170D02*
X139535180Y-72722170D01*
X138535180Y-73388837D02*
X138582800Y-73293599D01*
X138582800Y-73293599D02*
X138678038Y-73245980D01*
X138678038Y-73245980D02*
X139535180Y-73245980D01*
X138582800Y-74484076D02*
X138535180Y-74626933D01*
X138535180Y-74626933D02*
X138535180Y-74865028D01*
X138535180Y-74865028D02*
X138582800Y-74960266D01*
X138582800Y-74960266D02*
X138630419Y-75007885D01*
X138630419Y-75007885D02*
X138725657Y-75055504D01*
X138725657Y-75055504D02*
X138820895Y-75055504D01*
X138820895Y-75055504D02*
X138916133Y-75007885D01*
X138916133Y-75007885D02*
X138963752Y-74960266D01*
X138963752Y-74960266D02*
X139011371Y-74865028D01*
X139011371Y-74865028D02*
X139058990Y-74674552D01*
X139058990Y-74674552D02*
X139106609Y-74579314D01*
X139106609Y-74579314D02*
X139154228Y-74531695D01*
X139154228Y-74531695D02*
X139249466Y-74484076D01*
X139249466Y-74484076D02*
X139344704Y-74484076D01*
X139344704Y-74484076D02*
X139439942Y-74531695D01*
X139439942Y-74531695D02*
X139487561Y-74579314D01*
X139487561Y-74579314D02*
X139535180Y-74674552D01*
X139535180Y-74674552D02*
X139535180Y-74912647D01*
X139535180Y-74912647D02*
X139487561Y-75055504D01*
X138582800Y-75865028D02*
X138535180Y-75769790D01*
X138535180Y-75769790D02*
X138535180Y-75579314D01*
X138535180Y-75579314D02*
X138582800Y-75484076D01*
X138582800Y-75484076D02*
X138678038Y-75436457D01*
X138678038Y-75436457D02*
X139058990Y-75436457D01*
X139058990Y-75436457D02*
X139154228Y-75484076D01*
X139154228Y-75484076D02*
X139201847Y-75579314D01*
X139201847Y-75579314D02*
X139201847Y-75769790D01*
X139201847Y-75769790D02*
X139154228Y-75865028D01*
X139154228Y-75865028D02*
X139058990Y-75912647D01*
X139058990Y-75912647D02*
X138963752Y-75912647D01*
X138963752Y-75912647D02*
X138868514Y-75436457D01*
X139201847Y-76341219D02*
X138535180Y-76341219D01*
X139106609Y-76341219D02*
X139154228Y-76388838D01*
X139154228Y-76388838D02*
X139201847Y-76484076D01*
X139201847Y-76484076D02*
X139201847Y-76626933D01*
X139201847Y-76626933D02*
X139154228Y-76722171D01*
X139154228Y-76722171D02*
X139058990Y-76769790D01*
X139058990Y-76769790D02*
X138535180Y-76769790D01*
X138582800Y-77198362D02*
X138535180Y-77293600D01*
X138535180Y-77293600D02*
X138535180Y-77484076D01*
X138535180Y-77484076D02*
X138582800Y-77579314D01*
X138582800Y-77579314D02*
X138678038Y-77626933D01*
X138678038Y-77626933D02*
X138725657Y-77626933D01*
X138725657Y-77626933D02*
X138820895Y-77579314D01*
X138820895Y-77579314D02*
X138868514Y-77484076D01*
X138868514Y-77484076D02*
X138868514Y-77341219D01*
X138868514Y-77341219D02*
X138916133Y-77245981D01*
X138916133Y-77245981D02*
X139011371Y-77198362D01*
X139011371Y-77198362D02*
X139058990Y-77198362D01*
X139058990Y-77198362D02*
X139154228Y-77245981D01*
X139154228Y-77245981D02*
X139201847Y-77341219D01*
X139201847Y-77341219D02*
X139201847Y-77484076D01*
X139201847Y-77484076D02*
X139154228Y-77579314D01*
X138535180Y-78198362D02*
X138582800Y-78103124D01*
X138582800Y-78103124D02*
X138630419Y-78055505D01*
X138630419Y-78055505D02*
X138725657Y-78007886D01*
X138725657Y-78007886D02*
X139011371Y-78007886D01*
X139011371Y-78007886D02*
X139106609Y-78055505D01*
X139106609Y-78055505D02*
X139154228Y-78103124D01*
X139154228Y-78103124D02*
X139201847Y-78198362D01*
X139201847Y-78198362D02*
X139201847Y-78341219D01*
X139201847Y-78341219D02*
X139154228Y-78436457D01*
X139154228Y-78436457D02*
X139106609Y-78484076D01*
X139106609Y-78484076D02*
X139011371Y-78531695D01*
X139011371Y-78531695D02*
X138725657Y-78531695D01*
X138725657Y-78531695D02*
X138630419Y-78484076D01*
X138630419Y-78484076D02*
X138582800Y-78436457D01*
X138582800Y-78436457D02*
X138535180Y-78341219D01*
X138535180Y-78341219D02*
X138535180Y-78198362D01*
X138535180Y-78960267D02*
X139201847Y-78960267D01*
X139011371Y-78960267D02*
X139106609Y-79007886D01*
X139106609Y-79007886D02*
X139154228Y-79055505D01*
X139154228Y-79055505D02*
X139201847Y-79150743D01*
X139201847Y-79150743D02*
X139201847Y-79245981D01*
X138535180Y-80865029D02*
X138535180Y-80293601D01*
X138535180Y-80579315D02*
X139535180Y-80579315D01*
X139535180Y-80579315D02*
X139392323Y-80484077D01*
X139392323Y-80484077D02*
X139297085Y-80388839D01*
X139297085Y-80388839D02*
X139249466Y-80293601D01*
D15*
X117047231Y-97639856D02*
X116684374Y-97893856D01*
X117047231Y-98075285D02*
X116285231Y-98075285D01*
X116285231Y-98075285D02*
X116285231Y-97784999D01*
X116285231Y-97784999D02*
X116321517Y-97712428D01*
X116321517Y-97712428D02*
X116357803Y-97676142D01*
X116357803Y-97676142D02*
X116430374Y-97639856D01*
X116430374Y-97639856D02*
X116539231Y-97639856D01*
X116539231Y-97639856D02*
X116611803Y-97676142D01*
X116611803Y-97676142D02*
X116648088Y-97712428D01*
X116648088Y-97712428D02*
X116684374Y-97784999D01*
X116684374Y-97784999D02*
X116684374Y-98075285D01*
X117047231Y-96914142D02*
X117047231Y-97349571D01*
X117047231Y-97131856D02*
X116285231Y-97131856D01*
X116285231Y-97131856D02*
X116394088Y-97204428D01*
X116394088Y-97204428D02*
X116466660Y-97276999D01*
X116466660Y-97276999D02*
X116502946Y-97349571D01*
X116285231Y-96660142D02*
X116285231Y-96152142D01*
X116285231Y-96152142D02*
X117047231Y-96478714D01*
X116949660Y-95214856D02*
X116985946Y-95251142D01*
X116985946Y-95251142D02*
X117022231Y-95359999D01*
X117022231Y-95359999D02*
X117022231Y-95432571D01*
X117022231Y-95432571D02*
X116985946Y-95541428D01*
X116985946Y-95541428D02*
X116913374Y-95613999D01*
X116913374Y-95613999D02*
X116840803Y-95650285D01*
X116840803Y-95650285D02*
X116695660Y-95686571D01*
X116695660Y-95686571D02*
X116586803Y-95686571D01*
X116586803Y-95686571D02*
X116441660Y-95650285D01*
X116441660Y-95650285D02*
X116369088Y-95613999D01*
X116369088Y-95613999D02*
X116296517Y-95541428D01*
X116296517Y-95541428D02*
X116260231Y-95432571D01*
X116260231Y-95432571D02*
X116260231Y-95359999D01*
X116260231Y-95359999D02*
X116296517Y-95251142D01*
X116296517Y-95251142D02*
X116332803Y-95214856D01*
X117022231Y-94489142D02*
X117022231Y-94924571D01*
X117022231Y-94706856D02*
X116260231Y-94706856D01*
X116260231Y-94706856D02*
X116369088Y-94779428D01*
X116369088Y-94779428D02*
X116441660Y-94851999D01*
X116441660Y-94851999D02*
X116477946Y-94924571D01*
X117022231Y-93763428D02*
X117022231Y-94198857D01*
X117022231Y-93981142D02*
X116260231Y-93981142D01*
X116260231Y-93981142D02*
X116369088Y-94053714D01*
X116369088Y-94053714D02*
X116441660Y-94126285D01*
X116441660Y-94126285D02*
X116477946Y-94198857D01*
X106421282Y-102395724D02*
X106383303Y-102433704D01*
X106383303Y-102433704D02*
X106269366Y-102471683D01*
X106269366Y-102471683D02*
X106193408Y-102471683D01*
X106193408Y-102471683D02*
X106079471Y-102433704D01*
X106079471Y-102433704D02*
X106003513Y-102357745D01*
X106003513Y-102357745D02*
X105965534Y-102281787D01*
X105965534Y-102281787D02*
X105927555Y-102129871D01*
X105927555Y-102129871D02*
X105927555Y-102015934D01*
X105927555Y-102015934D02*
X105965534Y-101864018D01*
X105965534Y-101864018D02*
X106003513Y-101788060D01*
X106003513Y-101788060D02*
X106079471Y-101712102D01*
X106079471Y-101712102D02*
X106193408Y-101674123D01*
X106193408Y-101674123D02*
X106269366Y-101674123D01*
X106269366Y-101674123D02*
X106383303Y-101712102D01*
X106383303Y-101712102D02*
X106421282Y-101750081D01*
X107180863Y-102471683D02*
X106725115Y-102471683D01*
X106952989Y-102471683D02*
X106952989Y-101674123D01*
X106952989Y-101674123D02*
X106877031Y-101788060D01*
X106877031Y-101788060D02*
X106801073Y-101864018D01*
X106801073Y-101864018D02*
X106725115Y-101901997D01*
X107674591Y-101674123D02*
X107750549Y-101674123D01*
X107750549Y-101674123D02*
X107826507Y-101712102D01*
X107826507Y-101712102D02*
X107864486Y-101750081D01*
X107864486Y-101750081D02*
X107902465Y-101826039D01*
X107902465Y-101826039D02*
X107940444Y-101977955D01*
X107940444Y-101977955D02*
X107940444Y-102167850D01*
X107940444Y-102167850D02*
X107902465Y-102319766D01*
X107902465Y-102319766D02*
X107864486Y-102395724D01*
X107864486Y-102395724D02*
X107826507Y-102433704D01*
X107826507Y-102433704D02*
X107750549Y-102471683D01*
X107750549Y-102471683D02*
X107674591Y-102471683D01*
X107674591Y-102471683D02*
X107598633Y-102433704D01*
X107598633Y-102433704D02*
X107560654Y-102395724D01*
X107560654Y-102395724D02*
X107522675Y-102319766D01*
X107522675Y-102319766D02*
X107484696Y-102167850D01*
X107484696Y-102167850D02*
X107484696Y-101977955D01*
X107484696Y-101977955D02*
X107522675Y-101826039D01*
X107522675Y-101826039D02*
X107560654Y-101750081D01*
X107560654Y-101750081D02*
X107598633Y-101712102D01*
X107598633Y-101712102D02*
X107674591Y-101674123D01*
D11*
X126791906Y-111720279D02*
X126791906Y-110910756D01*
X126791906Y-110910756D02*
X126744287Y-110815518D01*
X126744287Y-110815518D02*
X126696668Y-110767899D01*
X126696668Y-110767899D02*
X126601430Y-110720279D01*
X126601430Y-110720279D02*
X126410954Y-110720279D01*
X126410954Y-110720279D02*
X126315716Y-110767899D01*
X126315716Y-110767899D02*
X126268097Y-110815518D01*
X126268097Y-110815518D02*
X126220478Y-110910756D01*
X126220478Y-110910756D02*
X126220478Y-111720279D01*
X125839525Y-111720279D02*
X125220478Y-111720279D01*
X125220478Y-111720279D02*
X125553811Y-111339327D01*
X125553811Y-111339327D02*
X125410954Y-111339327D01*
X125410954Y-111339327D02*
X125315716Y-111291708D01*
X125315716Y-111291708D02*
X125268097Y-111244089D01*
X125268097Y-111244089D02*
X125220478Y-111148851D01*
X125220478Y-111148851D02*
X125220478Y-110910756D01*
X125220478Y-110910756D02*
X125268097Y-110815518D01*
X125268097Y-110815518D02*
X125315716Y-110767899D01*
X125315716Y-110767899D02*
X125410954Y-110720279D01*
X125410954Y-110720279D02*
X125696668Y-110720279D01*
X125696668Y-110720279D02*
X125791906Y-110767899D01*
X125791906Y-110767899D02*
X125839525Y-110815518D01*
D10*
X149678200Y-96964667D02*
X149630580Y-97107524D01*
X149630580Y-97107524D02*
X149630580Y-97345619D01*
X149630580Y-97345619D02*
X149678200Y-97440857D01*
X149678200Y-97440857D02*
X149725819Y-97488476D01*
X149725819Y-97488476D02*
X149821057Y-97536095D01*
X149821057Y-97536095D02*
X149916295Y-97536095D01*
X149916295Y-97536095D02*
X150011533Y-97488476D01*
X150011533Y-97488476D02*
X150059152Y-97440857D01*
X150059152Y-97440857D02*
X150106771Y-97345619D01*
X150106771Y-97345619D02*
X150154390Y-97155143D01*
X150154390Y-97155143D02*
X150202009Y-97059905D01*
X150202009Y-97059905D02*
X150249628Y-97012286D01*
X150249628Y-97012286D02*
X150344866Y-96964667D01*
X150344866Y-96964667D02*
X150440104Y-96964667D01*
X150440104Y-96964667D02*
X150535342Y-97012286D01*
X150535342Y-97012286D02*
X150582961Y-97059905D01*
X150582961Y-97059905D02*
X150630580Y-97155143D01*
X150630580Y-97155143D02*
X150630580Y-97393238D01*
X150630580Y-97393238D02*
X150582961Y-97536095D01*
X150630580Y-97869429D02*
X149630580Y-98107524D01*
X149630580Y-98107524D02*
X150344866Y-98298000D01*
X150344866Y-98298000D02*
X149630580Y-98488476D01*
X149630580Y-98488476D02*
X150630580Y-98726572D01*
X149630580Y-99631333D02*
X149630580Y-99059905D01*
X149630580Y-99345619D02*
X150630580Y-99345619D01*
X150630580Y-99345619D02*
X150487723Y-99250381D01*
X150487723Y-99250381D02*
X150392485Y-99155143D01*
X150392485Y-99155143D02*
X150344866Y-99059905D01*
D11*
X130048095Y-80328419D02*
X130048095Y-81137942D01*
X130048095Y-81137942D02*
X130095714Y-81233180D01*
X130095714Y-81233180D02*
X130143333Y-81280800D01*
X130143333Y-81280800D02*
X130238571Y-81328419D01*
X130238571Y-81328419D02*
X130429047Y-81328419D01*
X130429047Y-81328419D02*
X130524285Y-81280800D01*
X130524285Y-81280800D02*
X130571904Y-81233180D01*
X130571904Y-81233180D02*
X130619523Y-81137942D01*
X130619523Y-81137942D02*
X130619523Y-80328419D01*
X131048095Y-80423657D02*
X131095714Y-80376038D01*
X131095714Y-80376038D02*
X131190952Y-80328419D01*
X131190952Y-80328419D02*
X131429047Y-80328419D01*
X131429047Y-80328419D02*
X131524285Y-80376038D01*
X131524285Y-80376038D02*
X131571904Y-80423657D01*
X131571904Y-80423657D02*
X131619523Y-80518895D01*
X131619523Y-80518895D02*
X131619523Y-80614133D01*
X131619523Y-80614133D02*
X131571904Y-80756990D01*
X131571904Y-80756990D02*
X131000476Y-81328419D01*
X131000476Y-81328419D02*
X131619523Y-81328419D01*
X127774700Y-79078104D02*
X127774700Y-79316199D01*
X127536605Y-79220961D02*
X127774700Y-79316199D01*
X127774700Y-79316199D02*
X128012795Y-79220961D01*
X127631843Y-79506675D02*
X127774700Y-79316199D01*
X127774700Y-79316199D02*
X127917557Y-79506675D01*
D10*
X144814704Y-103257332D02*
X144852800Y-103295428D01*
X144852800Y-103295428D02*
X144890895Y-103409713D01*
X144890895Y-103409713D02*
X144890895Y-103485904D01*
X144890895Y-103485904D02*
X144852800Y-103600190D01*
X144852800Y-103600190D02*
X144776609Y-103676380D01*
X144776609Y-103676380D02*
X144700419Y-103714475D01*
X144700419Y-103714475D02*
X144548038Y-103752571D01*
X144548038Y-103752571D02*
X144433752Y-103752571D01*
X144433752Y-103752571D02*
X144281371Y-103714475D01*
X144281371Y-103714475D02*
X144205180Y-103676380D01*
X144205180Y-103676380D02*
X144128990Y-103600190D01*
X144128990Y-103600190D02*
X144090895Y-103485904D01*
X144090895Y-103485904D02*
X144090895Y-103409713D01*
X144090895Y-103409713D02*
X144128990Y-103295428D01*
X144128990Y-103295428D02*
X144167085Y-103257332D01*
X144890895Y-102495428D02*
X144890895Y-102952571D01*
X144890895Y-102723999D02*
X144090895Y-102723999D01*
X144090895Y-102723999D02*
X144205180Y-102800190D01*
X144205180Y-102800190D02*
X144281371Y-102876380D01*
X144281371Y-102876380D02*
X144319466Y-102952571D01*
D11*
X109760475Y-51610419D02*
X109760475Y-50610419D01*
X109760475Y-50610419D02*
X110093808Y-51324704D01*
X110093808Y-51324704D02*
X110427141Y-50610419D01*
X110427141Y-50610419D02*
X110427141Y-51610419D01*
X111046189Y-51610419D02*
X110950951Y-51562800D01*
X110950951Y-51562800D02*
X110903332Y-51515180D01*
X110903332Y-51515180D02*
X110855713Y-51419942D01*
X110855713Y-51419942D02*
X110855713Y-51134228D01*
X110855713Y-51134228D02*
X110903332Y-51038990D01*
X110903332Y-51038990D02*
X110950951Y-50991371D01*
X110950951Y-50991371D02*
X111046189Y-50943752D01*
X111046189Y-50943752D02*
X111189046Y-50943752D01*
X111189046Y-50943752D02*
X111284284Y-50991371D01*
X111284284Y-50991371D02*
X111331903Y-51038990D01*
X111331903Y-51038990D02*
X111379522Y-51134228D01*
X111379522Y-51134228D02*
X111379522Y-51419942D01*
X111379522Y-51419942D02*
X111331903Y-51515180D01*
X111331903Y-51515180D02*
X111284284Y-51562800D01*
X111284284Y-51562800D02*
X111189046Y-51610419D01*
X111189046Y-51610419D02*
X111046189Y-51610419D01*
X111808094Y-51610419D02*
X111808094Y-50943752D01*
X111808094Y-50610419D02*
X111760475Y-50658038D01*
X111760475Y-50658038D02*
X111808094Y-50705657D01*
X111808094Y-50705657D02*
X111855713Y-50658038D01*
X111855713Y-50658038D02*
X111808094Y-50610419D01*
X111808094Y-50610419D02*
X111808094Y-50705657D01*
X112236665Y-51562800D02*
X112331903Y-51610419D01*
X112331903Y-51610419D02*
X112522379Y-51610419D01*
X112522379Y-51610419D02*
X112617617Y-51562800D01*
X112617617Y-51562800D02*
X112665236Y-51467561D01*
X112665236Y-51467561D02*
X112665236Y-51419942D01*
X112665236Y-51419942D02*
X112617617Y-51324704D01*
X112617617Y-51324704D02*
X112522379Y-51277085D01*
X112522379Y-51277085D02*
X112379522Y-51277085D01*
X112379522Y-51277085D02*
X112284284Y-51229466D01*
X112284284Y-51229466D02*
X112236665Y-51134228D01*
X112236665Y-51134228D02*
X112236665Y-51086609D01*
X112236665Y-51086609D02*
X112284284Y-50991371D01*
X112284284Y-50991371D02*
X112379522Y-50943752D01*
X112379522Y-50943752D02*
X112522379Y-50943752D01*
X112522379Y-50943752D02*
X112617617Y-50991371D01*
X112950951Y-50943752D02*
X113331903Y-50943752D01*
X113093808Y-50610419D02*
X113093808Y-51467561D01*
X113093808Y-51467561D02*
X113141427Y-51562800D01*
X113141427Y-51562800D02*
X113236665Y-51610419D01*
X113236665Y-51610419D02*
X113331903Y-51610419D01*
X114093808Y-50943752D02*
X114093808Y-51610419D01*
X113665237Y-50943752D02*
X113665237Y-51467561D01*
X113665237Y-51467561D02*
X113712856Y-51562800D01*
X113712856Y-51562800D02*
X113808094Y-51610419D01*
X113808094Y-51610419D02*
X113950951Y-51610419D01*
X113950951Y-51610419D02*
X114046189Y-51562800D01*
X114046189Y-51562800D02*
X114093808Y-51515180D01*
X114569999Y-51610419D02*
X114569999Y-50943752D01*
X114569999Y-51134228D02*
X114617618Y-51038990D01*
X114617618Y-51038990D02*
X114665237Y-50991371D01*
X114665237Y-50991371D02*
X114760475Y-50943752D01*
X114760475Y-50943752D02*
X114855713Y-50943752D01*
X115569999Y-51562800D02*
X115474761Y-51610419D01*
X115474761Y-51610419D02*
X115284285Y-51610419D01*
X115284285Y-51610419D02*
X115189047Y-51562800D01*
X115189047Y-51562800D02*
X115141428Y-51467561D01*
X115141428Y-51467561D02*
X115141428Y-51086609D01*
X115141428Y-51086609D02*
X115189047Y-50991371D01*
X115189047Y-50991371D02*
X115284285Y-50943752D01*
X115284285Y-50943752D02*
X115474761Y-50943752D01*
X115474761Y-50943752D02*
X115569999Y-50991371D01*
X115569999Y-50991371D02*
X115617618Y-51086609D01*
X115617618Y-51086609D02*
X115617618Y-51181847D01*
X115617618Y-51181847D02*
X115141428Y-51277085D01*
X116760476Y-51562800D02*
X116903333Y-51610419D01*
X116903333Y-51610419D02*
X117141428Y-51610419D01*
X117141428Y-51610419D02*
X117236666Y-51562800D01*
X117236666Y-51562800D02*
X117284285Y-51515180D01*
X117284285Y-51515180D02*
X117331904Y-51419942D01*
X117331904Y-51419942D02*
X117331904Y-51324704D01*
X117331904Y-51324704D02*
X117284285Y-51229466D01*
X117284285Y-51229466D02*
X117236666Y-51181847D01*
X117236666Y-51181847D02*
X117141428Y-51134228D01*
X117141428Y-51134228D02*
X116950952Y-51086609D01*
X116950952Y-51086609D02*
X116855714Y-51038990D01*
X116855714Y-51038990D02*
X116808095Y-50991371D01*
X116808095Y-50991371D02*
X116760476Y-50896133D01*
X116760476Y-50896133D02*
X116760476Y-50800895D01*
X116760476Y-50800895D02*
X116808095Y-50705657D01*
X116808095Y-50705657D02*
X116855714Y-50658038D01*
X116855714Y-50658038D02*
X116950952Y-50610419D01*
X116950952Y-50610419D02*
X117189047Y-50610419D01*
X117189047Y-50610419D02*
X117331904Y-50658038D01*
X118141428Y-51562800D02*
X118046190Y-51610419D01*
X118046190Y-51610419D02*
X117855714Y-51610419D01*
X117855714Y-51610419D02*
X117760476Y-51562800D01*
X117760476Y-51562800D02*
X117712857Y-51467561D01*
X117712857Y-51467561D02*
X117712857Y-51086609D01*
X117712857Y-51086609D02*
X117760476Y-50991371D01*
X117760476Y-50991371D02*
X117855714Y-50943752D01*
X117855714Y-50943752D02*
X118046190Y-50943752D01*
X118046190Y-50943752D02*
X118141428Y-50991371D01*
X118141428Y-50991371D02*
X118189047Y-51086609D01*
X118189047Y-51086609D02*
X118189047Y-51181847D01*
X118189047Y-51181847D02*
X117712857Y-51277085D01*
X118617619Y-50943752D02*
X118617619Y-51610419D01*
X118617619Y-51038990D02*
X118665238Y-50991371D01*
X118665238Y-50991371D02*
X118760476Y-50943752D01*
X118760476Y-50943752D02*
X118903333Y-50943752D01*
X118903333Y-50943752D02*
X118998571Y-50991371D01*
X118998571Y-50991371D02*
X119046190Y-51086609D01*
X119046190Y-51086609D02*
X119046190Y-51610419D01*
X119474762Y-51562800D02*
X119570000Y-51610419D01*
X119570000Y-51610419D02*
X119760476Y-51610419D01*
X119760476Y-51610419D02*
X119855714Y-51562800D01*
X119855714Y-51562800D02*
X119903333Y-51467561D01*
X119903333Y-51467561D02*
X119903333Y-51419942D01*
X119903333Y-51419942D02*
X119855714Y-51324704D01*
X119855714Y-51324704D02*
X119760476Y-51277085D01*
X119760476Y-51277085D02*
X119617619Y-51277085D01*
X119617619Y-51277085D02*
X119522381Y-51229466D01*
X119522381Y-51229466D02*
X119474762Y-51134228D01*
X119474762Y-51134228D02*
X119474762Y-51086609D01*
X119474762Y-51086609D02*
X119522381Y-50991371D01*
X119522381Y-50991371D02*
X119617619Y-50943752D01*
X119617619Y-50943752D02*
X119760476Y-50943752D01*
X119760476Y-50943752D02*
X119855714Y-50991371D01*
X120474762Y-51610419D02*
X120379524Y-51562800D01*
X120379524Y-51562800D02*
X120331905Y-51515180D01*
X120331905Y-51515180D02*
X120284286Y-51419942D01*
X120284286Y-51419942D02*
X120284286Y-51134228D01*
X120284286Y-51134228D02*
X120331905Y-51038990D01*
X120331905Y-51038990D02*
X120379524Y-50991371D01*
X120379524Y-50991371D02*
X120474762Y-50943752D01*
X120474762Y-50943752D02*
X120617619Y-50943752D01*
X120617619Y-50943752D02*
X120712857Y-50991371D01*
X120712857Y-50991371D02*
X120760476Y-51038990D01*
X120760476Y-51038990D02*
X120808095Y-51134228D01*
X120808095Y-51134228D02*
X120808095Y-51419942D01*
X120808095Y-51419942D02*
X120760476Y-51515180D01*
X120760476Y-51515180D02*
X120712857Y-51562800D01*
X120712857Y-51562800D02*
X120617619Y-51610419D01*
X120617619Y-51610419D02*
X120474762Y-51610419D01*
X121236667Y-51610419D02*
X121236667Y-50943752D01*
X121236667Y-51134228D02*
X121284286Y-51038990D01*
X121284286Y-51038990D02*
X121331905Y-50991371D01*
X121331905Y-50991371D02*
X121427143Y-50943752D01*
X121427143Y-50943752D02*
X121522381Y-50943752D01*
X134029819Y-96807619D02*
X133553628Y-97140952D01*
X134029819Y-97379047D02*
X133029819Y-97379047D01*
X133029819Y-97379047D02*
X133029819Y-96998095D01*
X133029819Y-96998095D02*
X133077438Y-96902857D01*
X133077438Y-96902857D02*
X133125057Y-96855238D01*
X133125057Y-96855238D02*
X133220295Y-96807619D01*
X133220295Y-96807619D02*
X133363152Y-96807619D01*
X133363152Y-96807619D02*
X133458390Y-96855238D01*
X133458390Y-96855238D02*
X133506009Y-96902857D01*
X133506009Y-96902857D02*
X133553628Y-96998095D01*
X133553628Y-96998095D02*
X133553628Y-97379047D01*
X133029819Y-96521904D02*
X133029819Y-95950476D01*
X134029819Y-96236190D02*
X133029819Y-96236190D01*
X133934580Y-95045714D02*
X133982200Y-95093333D01*
X133982200Y-95093333D02*
X134029819Y-95236190D01*
X134029819Y-95236190D02*
X134029819Y-95331428D01*
X134029819Y-95331428D02*
X133982200Y-95474285D01*
X133982200Y-95474285D02*
X133886961Y-95569523D01*
X133886961Y-95569523D02*
X133791723Y-95617142D01*
X133791723Y-95617142D02*
X133601247Y-95664761D01*
X133601247Y-95664761D02*
X133458390Y-95664761D01*
X133458390Y-95664761D02*
X133267914Y-95617142D01*
X133267914Y-95617142D02*
X133172676Y-95569523D01*
X133172676Y-95569523D02*
X133077438Y-95474285D01*
X133077438Y-95474285D02*
X133029819Y-95331428D01*
X133029819Y-95331428D02*
X133029819Y-95236190D01*
X133029819Y-95236190D02*
X133077438Y-95093333D01*
X133077438Y-95093333D02*
X133125057Y-95045714D01*
X134029819Y-94093333D02*
X134029819Y-94664761D01*
X134029819Y-94379047D02*
X133029819Y-94379047D01*
X133029819Y-94379047D02*
X133172676Y-94474285D01*
X133172676Y-94474285D02*
X133267914Y-94569523D01*
X133267914Y-94569523D02*
X133315533Y-94664761D01*
X128294133Y-59586019D02*
X127960800Y-59109828D01*
X127722705Y-59586019D02*
X127722705Y-58586019D01*
X127722705Y-58586019D02*
X128103657Y-58586019D01*
X128103657Y-58586019D02*
X128198895Y-58633638D01*
X128198895Y-58633638D02*
X128246514Y-58681257D01*
X128246514Y-58681257D02*
X128294133Y-58776495D01*
X128294133Y-58776495D02*
X128294133Y-58919352D01*
X128294133Y-58919352D02*
X128246514Y-59014590D01*
X128246514Y-59014590D02*
X128198895Y-59062209D01*
X128198895Y-59062209D02*
X128103657Y-59109828D01*
X128103657Y-59109828D02*
X127722705Y-59109828D01*
X128627467Y-58586019D02*
X129294133Y-58586019D01*
X129294133Y-58586019D02*
X128865562Y-59586019D01*
X135849580Y-86126666D02*
X135897200Y-86174285D01*
X135897200Y-86174285D02*
X135944819Y-86317142D01*
X135944819Y-86317142D02*
X135944819Y-86412380D01*
X135944819Y-86412380D02*
X135897200Y-86555237D01*
X135897200Y-86555237D02*
X135801961Y-86650475D01*
X135801961Y-86650475D02*
X135706723Y-86698094D01*
X135706723Y-86698094D02*
X135516247Y-86745713D01*
X135516247Y-86745713D02*
X135373390Y-86745713D01*
X135373390Y-86745713D02*
X135182914Y-86698094D01*
X135182914Y-86698094D02*
X135087676Y-86650475D01*
X135087676Y-86650475D02*
X134992438Y-86555237D01*
X134992438Y-86555237D02*
X134944819Y-86412380D01*
X134944819Y-86412380D02*
X134944819Y-86317142D01*
X134944819Y-86317142D02*
X134992438Y-86174285D01*
X134992438Y-86174285D02*
X135040057Y-86126666D01*
X134944819Y-85269523D02*
X134944819Y-85459999D01*
X134944819Y-85459999D02*
X134992438Y-85555237D01*
X134992438Y-85555237D02*
X135040057Y-85602856D01*
X135040057Y-85602856D02*
X135182914Y-85698094D01*
X135182914Y-85698094D02*
X135373390Y-85745713D01*
X135373390Y-85745713D02*
X135754342Y-85745713D01*
X135754342Y-85745713D02*
X135849580Y-85698094D01*
X135849580Y-85698094D02*
X135897200Y-85650475D01*
X135897200Y-85650475D02*
X135944819Y-85555237D01*
X135944819Y-85555237D02*
X135944819Y-85364761D01*
X135944819Y-85364761D02*
X135897200Y-85269523D01*
X135897200Y-85269523D02*
X135849580Y-85221904D01*
X135849580Y-85221904D02*
X135754342Y-85174285D01*
X135754342Y-85174285D02*
X135516247Y-85174285D01*
X135516247Y-85174285D02*
X135421009Y-85221904D01*
X135421009Y-85221904D02*
X135373390Y-85269523D01*
X135373390Y-85269523D02*
X135325771Y-85364761D01*
X135325771Y-85364761D02*
X135325771Y-85555237D01*
X135325771Y-85555237D02*
X135373390Y-85650475D01*
X135373390Y-85650475D02*
X135421009Y-85698094D01*
X135421009Y-85698094D02*
X135516247Y-85745713D01*
X100452819Y-85270933D02*
X101167104Y-85270933D01*
X101167104Y-85270933D02*
X101309961Y-85318552D01*
X101309961Y-85318552D02*
X101405200Y-85413790D01*
X101405200Y-85413790D02*
X101452819Y-85556647D01*
X101452819Y-85556647D02*
X101452819Y-85651885D01*
X100881390Y-84651885D02*
X100833771Y-84747123D01*
X100833771Y-84747123D02*
X100786152Y-84794742D01*
X100786152Y-84794742D02*
X100690914Y-84842361D01*
X100690914Y-84842361D02*
X100643295Y-84842361D01*
X100643295Y-84842361D02*
X100548057Y-84794742D01*
X100548057Y-84794742D02*
X100500438Y-84747123D01*
X100500438Y-84747123D02*
X100452819Y-84651885D01*
X100452819Y-84651885D02*
X100452819Y-84461409D01*
X100452819Y-84461409D02*
X100500438Y-84366171D01*
X100500438Y-84366171D02*
X100548057Y-84318552D01*
X100548057Y-84318552D02*
X100643295Y-84270933D01*
X100643295Y-84270933D02*
X100690914Y-84270933D01*
X100690914Y-84270933D02*
X100786152Y-84318552D01*
X100786152Y-84318552D02*
X100833771Y-84366171D01*
X100833771Y-84366171D02*
X100881390Y-84461409D01*
X100881390Y-84461409D02*
X100881390Y-84651885D01*
X100881390Y-84651885D02*
X100929009Y-84747123D01*
X100929009Y-84747123D02*
X100976628Y-84794742D01*
X100976628Y-84794742D02*
X101071866Y-84842361D01*
X101071866Y-84842361D02*
X101262342Y-84842361D01*
X101262342Y-84842361D02*
X101357580Y-84794742D01*
X101357580Y-84794742D02*
X101405200Y-84747123D01*
X101405200Y-84747123D02*
X101452819Y-84651885D01*
X101452819Y-84651885D02*
X101452819Y-84461409D01*
X101452819Y-84461409D02*
X101405200Y-84366171D01*
X101405200Y-84366171D02*
X101357580Y-84318552D01*
X101357580Y-84318552D02*
X101262342Y-84270933D01*
X101262342Y-84270933D02*
X101071866Y-84270933D01*
X101071866Y-84270933D02*
X100976628Y-84318552D01*
X100976628Y-84318552D02*
X100929009Y-84366171D01*
X100929009Y-84366171D02*
X100881390Y-84461409D01*
X135553675Y-51086609D02*
X135220342Y-51086609D01*
X135220342Y-51610419D02*
X135220342Y-50610419D01*
X135220342Y-50610419D02*
X135696532Y-50610419D01*
X136220342Y-51610419D02*
X136125104Y-51562800D01*
X136125104Y-51562800D02*
X136077485Y-51467561D01*
X136077485Y-51467561D02*
X136077485Y-50610419D01*
X136982247Y-51562800D02*
X136887009Y-51610419D01*
X136887009Y-51610419D02*
X136696533Y-51610419D01*
X136696533Y-51610419D02*
X136601295Y-51562800D01*
X136601295Y-51562800D02*
X136553676Y-51467561D01*
X136553676Y-51467561D02*
X136553676Y-51086609D01*
X136553676Y-51086609D02*
X136601295Y-50991371D01*
X136601295Y-50991371D02*
X136696533Y-50943752D01*
X136696533Y-50943752D02*
X136887009Y-50943752D01*
X136887009Y-50943752D02*
X136982247Y-50991371D01*
X136982247Y-50991371D02*
X137029866Y-51086609D01*
X137029866Y-51086609D02*
X137029866Y-51181847D01*
X137029866Y-51181847D02*
X136553676Y-51277085D01*
X137363200Y-51610419D02*
X137887009Y-50943752D01*
X137363200Y-50943752D02*
X137887009Y-51610419D01*
X139553676Y-51610419D02*
X138982248Y-51610419D01*
X139267962Y-51610419D02*
X139267962Y-50610419D01*
X139267962Y-50610419D02*
X139172724Y-50753276D01*
X139172724Y-50753276D02*
X139077486Y-50848514D01*
X139077486Y-50848514D02*
X138982248Y-50896133D01*
X98079819Y-110167857D02*
X97603628Y-110501190D01*
X98079819Y-110739285D02*
X97079819Y-110739285D01*
X97079819Y-110739285D02*
X97079819Y-110358333D01*
X97079819Y-110358333D02*
X97127438Y-110263095D01*
X97127438Y-110263095D02*
X97175057Y-110215476D01*
X97175057Y-110215476D02*
X97270295Y-110167857D01*
X97270295Y-110167857D02*
X97413152Y-110167857D01*
X97413152Y-110167857D02*
X97508390Y-110215476D01*
X97508390Y-110215476D02*
X97556009Y-110263095D01*
X97556009Y-110263095D02*
X97603628Y-110358333D01*
X97603628Y-110358333D02*
X97603628Y-110739285D01*
X98079819Y-109215476D02*
X98079819Y-109786904D01*
X98079819Y-109501190D02*
X97079819Y-109501190D01*
X97079819Y-109501190D02*
X97222676Y-109596428D01*
X97222676Y-109596428D02*
X97317914Y-109691666D01*
X97317914Y-109691666D02*
X97365533Y-109786904D01*
X98079819Y-108739285D02*
X98079819Y-108548809D01*
X98079819Y-108548809D02*
X98032200Y-108453571D01*
X98032200Y-108453571D02*
X97984580Y-108405952D01*
X97984580Y-108405952D02*
X97841723Y-108310714D01*
X97841723Y-108310714D02*
X97651247Y-108263095D01*
X97651247Y-108263095D02*
X97270295Y-108263095D01*
X97270295Y-108263095D02*
X97175057Y-108310714D01*
X97175057Y-108310714D02*
X97127438Y-108358333D01*
X97127438Y-108358333D02*
X97079819Y-108453571D01*
X97079819Y-108453571D02*
X97079819Y-108644047D01*
X97079819Y-108644047D02*
X97127438Y-108739285D01*
X97127438Y-108739285D02*
X97175057Y-108786904D01*
X97175057Y-108786904D02*
X97270295Y-108834523D01*
X97270295Y-108834523D02*
X97508390Y-108834523D01*
X97508390Y-108834523D02*
X97603628Y-108786904D01*
X97603628Y-108786904D02*
X97651247Y-108739285D01*
X97651247Y-108739285D02*
X97698866Y-108644047D01*
X97698866Y-108644047D02*
X97698866Y-108453571D01*
X97698866Y-108453571D02*
X97651247Y-108358333D01*
X97651247Y-108358333D02*
X97603628Y-108310714D01*
X97603628Y-108310714D02*
X97508390Y-108263095D01*
X130071905Y-53694819D02*
X130071905Y-52694819D01*
X130071905Y-52694819D02*
X130310000Y-52694819D01*
X130310000Y-52694819D02*
X130452857Y-52742438D01*
X130452857Y-52742438D02*
X130548095Y-52837676D01*
X130548095Y-52837676D02*
X130595714Y-52932914D01*
X130595714Y-52932914D02*
X130643333Y-53123390D01*
X130643333Y-53123390D02*
X130643333Y-53266247D01*
X130643333Y-53266247D02*
X130595714Y-53456723D01*
X130595714Y-53456723D02*
X130548095Y-53551961D01*
X130548095Y-53551961D02*
X130452857Y-53647200D01*
X130452857Y-53647200D02*
X130310000Y-53694819D01*
X130310000Y-53694819D02*
X130071905Y-53694819D01*
X131548095Y-52694819D02*
X131071905Y-52694819D01*
X131071905Y-52694819D02*
X131024286Y-53171009D01*
X131024286Y-53171009D02*
X131071905Y-53123390D01*
X131071905Y-53123390D02*
X131167143Y-53075771D01*
X131167143Y-53075771D02*
X131405238Y-53075771D01*
X131405238Y-53075771D02*
X131500476Y-53123390D01*
X131500476Y-53123390D02*
X131548095Y-53171009D01*
X131548095Y-53171009D02*
X131595714Y-53266247D01*
X131595714Y-53266247D02*
X131595714Y-53504342D01*
X131595714Y-53504342D02*
X131548095Y-53599580D01*
X131548095Y-53599580D02*
X131500476Y-53647200D01*
X131500476Y-53647200D02*
X131405238Y-53694819D01*
X131405238Y-53694819D02*
X131167143Y-53694819D01*
X131167143Y-53694819D02*
X131071905Y-53647200D01*
X131071905Y-53647200D02*
X131024286Y-53599580D01*
X124936475Y-51086609D02*
X124603142Y-51086609D01*
X124603142Y-51610419D02*
X124603142Y-50610419D01*
X124603142Y-50610419D02*
X125079332Y-50610419D01*
X125603142Y-51610419D02*
X125507904Y-51562800D01*
X125507904Y-51562800D02*
X125460285Y-51467561D01*
X125460285Y-51467561D02*
X125460285Y-50610419D01*
X126365047Y-51562800D02*
X126269809Y-51610419D01*
X126269809Y-51610419D02*
X126079333Y-51610419D01*
X126079333Y-51610419D02*
X125984095Y-51562800D01*
X125984095Y-51562800D02*
X125936476Y-51467561D01*
X125936476Y-51467561D02*
X125936476Y-51086609D01*
X125936476Y-51086609D02*
X125984095Y-50991371D01*
X125984095Y-50991371D02*
X126079333Y-50943752D01*
X126079333Y-50943752D02*
X126269809Y-50943752D01*
X126269809Y-50943752D02*
X126365047Y-50991371D01*
X126365047Y-50991371D02*
X126412666Y-51086609D01*
X126412666Y-51086609D02*
X126412666Y-51181847D01*
X126412666Y-51181847D02*
X125936476Y-51277085D01*
X126746000Y-51610419D02*
X127269809Y-50943752D01*
X126746000Y-50943752D02*
X127269809Y-51610419D01*
X128365048Y-50705657D02*
X128412667Y-50658038D01*
X128412667Y-50658038D02*
X128507905Y-50610419D01*
X128507905Y-50610419D02*
X128746000Y-50610419D01*
X128746000Y-50610419D02*
X128841238Y-50658038D01*
X128841238Y-50658038D02*
X128888857Y-50705657D01*
X128888857Y-50705657D02*
X128936476Y-50800895D01*
X128936476Y-50800895D02*
X128936476Y-50896133D01*
X128936476Y-50896133D02*
X128888857Y-51038990D01*
X128888857Y-51038990D02*
X128317429Y-51610419D01*
X128317429Y-51610419D02*
X128936476Y-51610419D01*
D10*
X144776204Y-105797332D02*
X144814300Y-105835428D01*
X144814300Y-105835428D02*
X144852395Y-105949713D01*
X144852395Y-105949713D02*
X144852395Y-106025904D01*
X144852395Y-106025904D02*
X144814300Y-106140190D01*
X144814300Y-106140190D02*
X144738109Y-106216380D01*
X144738109Y-106216380D02*
X144661919Y-106254475D01*
X144661919Y-106254475D02*
X144509538Y-106292571D01*
X144509538Y-106292571D02*
X144395252Y-106292571D01*
X144395252Y-106292571D02*
X144242871Y-106254475D01*
X144242871Y-106254475D02*
X144166680Y-106216380D01*
X144166680Y-106216380D02*
X144090490Y-106140190D01*
X144090490Y-106140190D02*
X144052395Y-106025904D01*
X144052395Y-106025904D02*
X144052395Y-105949713D01*
X144052395Y-105949713D02*
X144090490Y-105835428D01*
X144090490Y-105835428D02*
X144128585Y-105797332D01*
X144128585Y-105492571D02*
X144090490Y-105454475D01*
X144090490Y-105454475D02*
X144052395Y-105378285D01*
X144052395Y-105378285D02*
X144052395Y-105187809D01*
X144052395Y-105187809D02*
X144090490Y-105111618D01*
X144090490Y-105111618D02*
X144128585Y-105073523D01*
X144128585Y-105073523D02*
X144204776Y-105035428D01*
X144204776Y-105035428D02*
X144280966Y-105035428D01*
X144280966Y-105035428D02*
X144395252Y-105073523D01*
X144395252Y-105073523D02*
X144852395Y-105530666D01*
X144852395Y-105530666D02*
X144852395Y-105035428D01*
D11*
X110944819Y-95892857D02*
X110468628Y-96226190D01*
X110944819Y-96464285D02*
X109944819Y-96464285D01*
X109944819Y-96464285D02*
X109944819Y-96083333D01*
X109944819Y-96083333D02*
X109992438Y-95988095D01*
X109992438Y-95988095D02*
X110040057Y-95940476D01*
X110040057Y-95940476D02*
X110135295Y-95892857D01*
X110135295Y-95892857D02*
X110278152Y-95892857D01*
X110278152Y-95892857D02*
X110373390Y-95940476D01*
X110373390Y-95940476D02*
X110421009Y-95988095D01*
X110421009Y-95988095D02*
X110468628Y-96083333D01*
X110468628Y-96083333D02*
X110468628Y-96464285D01*
X110944819Y-94940476D02*
X110944819Y-95511904D01*
X110944819Y-95226190D02*
X109944819Y-95226190D01*
X109944819Y-95226190D02*
X110087676Y-95321428D01*
X110087676Y-95321428D02*
X110182914Y-95416666D01*
X110182914Y-95416666D02*
X110230533Y-95511904D01*
X110278152Y-94083333D02*
X110944819Y-94083333D01*
X109897200Y-94321428D02*
X110611485Y-94559523D01*
X110611485Y-94559523D02*
X110611485Y-93940476D01*
X94861142Y-83004819D02*
X94527809Y-82528628D01*
X94289714Y-83004819D02*
X94289714Y-82004819D01*
X94289714Y-82004819D02*
X94670666Y-82004819D01*
X94670666Y-82004819D02*
X94765904Y-82052438D01*
X94765904Y-82052438D02*
X94813523Y-82100057D01*
X94813523Y-82100057D02*
X94861142Y-82195295D01*
X94861142Y-82195295D02*
X94861142Y-82338152D01*
X94861142Y-82338152D02*
X94813523Y-82433390D01*
X94813523Y-82433390D02*
X94765904Y-82481009D01*
X94765904Y-82481009D02*
X94670666Y-82528628D01*
X94670666Y-82528628D02*
X94289714Y-82528628D01*
X95242095Y-82100057D02*
X95289714Y-82052438D01*
X95289714Y-82052438D02*
X95384952Y-82004819D01*
X95384952Y-82004819D02*
X95623047Y-82004819D01*
X95623047Y-82004819D02*
X95718285Y-82052438D01*
X95718285Y-82052438D02*
X95765904Y-82100057D01*
X95765904Y-82100057D02*
X95813523Y-82195295D01*
X95813523Y-82195295D02*
X95813523Y-82290533D01*
X95813523Y-82290533D02*
X95765904Y-82433390D01*
X95765904Y-82433390D02*
X95194476Y-83004819D01*
X95194476Y-83004819D02*
X95813523Y-83004819D01*
X96432571Y-82004819D02*
X96527809Y-82004819D01*
X96527809Y-82004819D02*
X96623047Y-82052438D01*
X96623047Y-82052438D02*
X96670666Y-82100057D01*
X96670666Y-82100057D02*
X96718285Y-82195295D01*
X96718285Y-82195295D02*
X96765904Y-82385771D01*
X96765904Y-82385771D02*
X96765904Y-82623866D01*
X96765904Y-82623866D02*
X96718285Y-82814342D01*
X96718285Y-82814342D02*
X96670666Y-82909580D01*
X96670666Y-82909580D02*
X96623047Y-82957200D01*
X96623047Y-82957200D02*
X96527809Y-83004819D01*
X96527809Y-83004819D02*
X96432571Y-83004819D01*
X96432571Y-83004819D02*
X96337333Y-82957200D01*
X96337333Y-82957200D02*
X96289714Y-82909580D01*
X96289714Y-82909580D02*
X96242095Y-82814342D01*
X96242095Y-82814342D02*
X96194476Y-82623866D01*
X96194476Y-82623866D02*
X96194476Y-82385771D01*
X96194476Y-82385771D02*
X96242095Y-82195295D01*
X96242095Y-82195295D02*
X96289714Y-82100057D01*
X96289714Y-82100057D02*
X96337333Y-82052438D01*
X96337333Y-82052438D02*
X96432571Y-82004819D01*
X129552343Y-86361566D02*
X129599963Y-86409185D01*
X129599963Y-86409185D02*
X129647582Y-86552042D01*
X129647582Y-86552042D02*
X129647582Y-86647280D01*
X129647582Y-86647280D02*
X129599963Y-86790137D01*
X129599963Y-86790137D02*
X129504724Y-86885375D01*
X129504724Y-86885375D02*
X129409486Y-86932994D01*
X129409486Y-86932994D02*
X129219010Y-86980613D01*
X129219010Y-86980613D02*
X129076153Y-86980613D01*
X129076153Y-86980613D02*
X128885677Y-86932994D01*
X128885677Y-86932994D02*
X128790439Y-86885375D01*
X128790439Y-86885375D02*
X128695201Y-86790137D01*
X128695201Y-86790137D02*
X128647582Y-86647280D01*
X128647582Y-86647280D02*
X128647582Y-86552042D01*
X128647582Y-86552042D02*
X128695201Y-86409185D01*
X128695201Y-86409185D02*
X128742820Y-86361566D01*
X128647582Y-85456804D02*
X128647582Y-85932994D01*
X128647582Y-85932994D02*
X129123772Y-85980613D01*
X129123772Y-85980613D02*
X129076153Y-85932994D01*
X129076153Y-85932994D02*
X129028534Y-85837756D01*
X129028534Y-85837756D02*
X129028534Y-85599661D01*
X129028534Y-85599661D02*
X129076153Y-85504423D01*
X129076153Y-85504423D02*
X129123772Y-85456804D01*
X129123772Y-85456804D02*
X129219010Y-85409185D01*
X129219010Y-85409185D02*
X129457105Y-85409185D01*
X129457105Y-85409185D02*
X129552343Y-85456804D01*
X129552343Y-85456804D02*
X129599963Y-85504423D01*
X129599963Y-85504423D02*
X129647582Y-85599661D01*
X129647582Y-85599661D02*
X129647582Y-85837756D01*
X129647582Y-85837756D02*
X129599963Y-85932994D01*
X129599963Y-85932994D02*
X129552343Y-85980613D01*
X130643333Y-62227619D02*
X130310000Y-61751428D01*
X130071905Y-62227619D02*
X130071905Y-61227619D01*
X130071905Y-61227619D02*
X130452857Y-61227619D01*
X130452857Y-61227619D02*
X130548095Y-61275238D01*
X130548095Y-61275238D02*
X130595714Y-61322857D01*
X130595714Y-61322857D02*
X130643333Y-61418095D01*
X130643333Y-61418095D02*
X130643333Y-61560952D01*
X130643333Y-61560952D02*
X130595714Y-61656190D01*
X130595714Y-61656190D02*
X130548095Y-61703809D01*
X130548095Y-61703809D02*
X130452857Y-61751428D01*
X130452857Y-61751428D02*
X130071905Y-61751428D01*
X131500476Y-61227619D02*
X131310000Y-61227619D01*
X131310000Y-61227619D02*
X131214762Y-61275238D01*
X131214762Y-61275238D02*
X131167143Y-61322857D01*
X131167143Y-61322857D02*
X131071905Y-61465714D01*
X131071905Y-61465714D02*
X131024286Y-61656190D01*
X131024286Y-61656190D02*
X131024286Y-62037142D01*
X131024286Y-62037142D02*
X131071905Y-62132380D01*
X131071905Y-62132380D02*
X131119524Y-62180000D01*
X131119524Y-62180000D02*
X131214762Y-62227619D01*
X131214762Y-62227619D02*
X131405238Y-62227619D01*
X131405238Y-62227619D02*
X131500476Y-62180000D01*
X131500476Y-62180000D02*
X131548095Y-62132380D01*
X131548095Y-62132380D02*
X131595714Y-62037142D01*
X131595714Y-62037142D02*
X131595714Y-61799047D01*
X131595714Y-61799047D02*
X131548095Y-61703809D01*
X131548095Y-61703809D02*
X131500476Y-61656190D01*
X131500476Y-61656190D02*
X131405238Y-61608571D01*
X131405238Y-61608571D02*
X131214762Y-61608571D01*
X131214762Y-61608571D02*
X131119524Y-61656190D01*
X131119524Y-61656190D02*
X131071905Y-61703809D01*
X131071905Y-61703809D02*
X131024286Y-61799047D01*
X95450684Y-51610419D02*
X94974494Y-51610419D01*
X94974494Y-51610419D02*
X94974494Y-50610419D01*
X96212589Y-51610419D02*
X96212589Y-51086609D01*
X96212589Y-51086609D02*
X96164970Y-50991371D01*
X96164970Y-50991371D02*
X96069732Y-50943752D01*
X96069732Y-50943752D02*
X95879256Y-50943752D01*
X95879256Y-50943752D02*
X95784018Y-50991371D01*
X96212589Y-51562800D02*
X96117351Y-51610419D01*
X96117351Y-51610419D02*
X95879256Y-51610419D01*
X95879256Y-51610419D02*
X95784018Y-51562800D01*
X95784018Y-51562800D02*
X95736399Y-51467561D01*
X95736399Y-51467561D02*
X95736399Y-51372323D01*
X95736399Y-51372323D02*
X95784018Y-51277085D01*
X95784018Y-51277085D02*
X95879256Y-51229466D01*
X95879256Y-51229466D02*
X96117351Y-51229466D01*
X96117351Y-51229466D02*
X96212589Y-51181847D01*
X96688780Y-50943752D02*
X96688780Y-51943752D01*
X96688780Y-50991371D02*
X96784018Y-50943752D01*
X96784018Y-50943752D02*
X96974494Y-50943752D01*
X96974494Y-50943752D02*
X97069732Y-50991371D01*
X97069732Y-50991371D02*
X97117351Y-51038990D01*
X97117351Y-51038990D02*
X97164970Y-51134228D01*
X97164970Y-51134228D02*
X97164970Y-51419942D01*
X97164970Y-51419942D02*
X97117351Y-51515180D01*
X97117351Y-51515180D02*
X97069732Y-51562800D01*
X97069732Y-51562800D02*
X96974494Y-51610419D01*
X96974494Y-51610419D02*
X96784018Y-51610419D01*
X96784018Y-51610419D02*
X96688780Y-51562800D01*
X97450685Y-50943752D02*
X97831637Y-50943752D01*
X97593542Y-50610419D02*
X97593542Y-51467561D01*
X97593542Y-51467561D02*
X97641161Y-51562800D01*
X97641161Y-51562800D02*
X97736399Y-51610419D01*
X97736399Y-51610419D02*
X97831637Y-51610419D01*
X98307828Y-51610419D02*
X98212590Y-51562800D01*
X98212590Y-51562800D02*
X98164971Y-51515180D01*
X98164971Y-51515180D02*
X98117352Y-51419942D01*
X98117352Y-51419942D02*
X98117352Y-51134228D01*
X98117352Y-51134228D02*
X98164971Y-51038990D01*
X98164971Y-51038990D02*
X98212590Y-50991371D01*
X98212590Y-50991371D02*
X98307828Y-50943752D01*
X98307828Y-50943752D02*
X98450685Y-50943752D01*
X98450685Y-50943752D02*
X98545923Y-50991371D01*
X98545923Y-50991371D02*
X98593542Y-51038990D01*
X98593542Y-51038990D02*
X98641161Y-51134228D01*
X98641161Y-51134228D02*
X98641161Y-51419942D01*
X98641161Y-51419942D02*
X98593542Y-51515180D01*
X98593542Y-51515180D02*
X98545923Y-51562800D01*
X98545923Y-51562800D02*
X98450685Y-51610419D01*
X98450685Y-51610419D02*
X98307828Y-51610419D01*
X99069733Y-50943752D02*
X99069733Y-51943752D01*
X99069733Y-50991371D02*
X99164971Y-50943752D01*
X99164971Y-50943752D02*
X99355447Y-50943752D01*
X99355447Y-50943752D02*
X99450685Y-50991371D01*
X99450685Y-50991371D02*
X99498304Y-51038990D01*
X99498304Y-51038990D02*
X99545923Y-51134228D01*
X99545923Y-51134228D02*
X99545923Y-51419942D01*
X99545923Y-51419942D02*
X99498304Y-51515180D01*
X99498304Y-51515180D02*
X99450685Y-51562800D01*
X99450685Y-51562800D02*
X99355447Y-51610419D01*
X99355447Y-51610419D02*
X99164971Y-51610419D01*
X99164971Y-51610419D02*
X99069733Y-51562800D01*
X100736400Y-51610419D02*
X100736400Y-50610419D01*
X100736400Y-50610419D02*
X100974495Y-50610419D01*
X100974495Y-50610419D02*
X101117352Y-50658038D01*
X101117352Y-50658038D02*
X101212590Y-50753276D01*
X101212590Y-50753276D02*
X101260209Y-50848514D01*
X101260209Y-50848514D02*
X101307828Y-51038990D01*
X101307828Y-51038990D02*
X101307828Y-51181847D01*
X101307828Y-51181847D02*
X101260209Y-51372323D01*
X101260209Y-51372323D02*
X101212590Y-51467561D01*
X101212590Y-51467561D02*
X101117352Y-51562800D01*
X101117352Y-51562800D02*
X100974495Y-51610419D01*
X100974495Y-51610419D02*
X100736400Y-51610419D01*
X102117352Y-51562800D02*
X102022114Y-51610419D01*
X102022114Y-51610419D02*
X101831638Y-51610419D01*
X101831638Y-51610419D02*
X101736400Y-51562800D01*
X101736400Y-51562800D02*
X101688781Y-51467561D01*
X101688781Y-51467561D02*
X101688781Y-51086609D01*
X101688781Y-51086609D02*
X101736400Y-50991371D01*
X101736400Y-50991371D02*
X101831638Y-50943752D01*
X101831638Y-50943752D02*
X102022114Y-50943752D01*
X102022114Y-50943752D02*
X102117352Y-50991371D01*
X102117352Y-50991371D02*
X102164971Y-51086609D01*
X102164971Y-51086609D02*
X102164971Y-51181847D01*
X102164971Y-51181847D02*
X101688781Y-51277085D01*
X102450686Y-50943752D02*
X102831638Y-50943752D01*
X102593543Y-50610419D02*
X102593543Y-51467561D01*
X102593543Y-51467561D02*
X102641162Y-51562800D01*
X102641162Y-51562800D02*
X102736400Y-51610419D01*
X102736400Y-51610419D02*
X102831638Y-51610419D01*
X103545924Y-51562800D02*
X103450686Y-51610419D01*
X103450686Y-51610419D02*
X103260210Y-51610419D01*
X103260210Y-51610419D02*
X103164972Y-51562800D01*
X103164972Y-51562800D02*
X103117353Y-51467561D01*
X103117353Y-51467561D02*
X103117353Y-51086609D01*
X103117353Y-51086609D02*
X103164972Y-50991371D01*
X103164972Y-50991371D02*
X103260210Y-50943752D01*
X103260210Y-50943752D02*
X103450686Y-50943752D01*
X103450686Y-50943752D02*
X103545924Y-50991371D01*
X103545924Y-50991371D02*
X103593543Y-51086609D01*
X103593543Y-51086609D02*
X103593543Y-51181847D01*
X103593543Y-51181847D02*
X103117353Y-51277085D01*
X104450686Y-51562800D02*
X104355448Y-51610419D01*
X104355448Y-51610419D02*
X104164972Y-51610419D01*
X104164972Y-51610419D02*
X104069734Y-51562800D01*
X104069734Y-51562800D02*
X104022115Y-51515180D01*
X104022115Y-51515180D02*
X103974496Y-51419942D01*
X103974496Y-51419942D02*
X103974496Y-51134228D01*
X103974496Y-51134228D02*
X104022115Y-51038990D01*
X104022115Y-51038990D02*
X104069734Y-50991371D01*
X104069734Y-50991371D02*
X104164972Y-50943752D01*
X104164972Y-50943752D02*
X104355448Y-50943752D01*
X104355448Y-50943752D02*
X104450686Y-50991371D01*
X104736401Y-50943752D02*
X105117353Y-50943752D01*
X104879258Y-50610419D02*
X104879258Y-51467561D01*
X104879258Y-51467561D02*
X104926877Y-51562800D01*
X104926877Y-51562800D02*
X105022115Y-51610419D01*
X105022115Y-51610419D02*
X105117353Y-51610419D01*
X105593544Y-51610419D02*
X105498306Y-51562800D01*
X105498306Y-51562800D02*
X105450687Y-51515180D01*
X105450687Y-51515180D02*
X105403068Y-51419942D01*
X105403068Y-51419942D02*
X105403068Y-51134228D01*
X105403068Y-51134228D02*
X105450687Y-51038990D01*
X105450687Y-51038990D02*
X105498306Y-50991371D01*
X105498306Y-50991371D02*
X105593544Y-50943752D01*
X105593544Y-50943752D02*
X105736401Y-50943752D01*
X105736401Y-50943752D02*
X105831639Y-50991371D01*
X105831639Y-50991371D02*
X105879258Y-51038990D01*
X105879258Y-51038990D02*
X105926877Y-51134228D01*
X105926877Y-51134228D02*
X105926877Y-51419942D01*
X105926877Y-51419942D02*
X105879258Y-51515180D01*
X105879258Y-51515180D02*
X105831639Y-51562800D01*
X105831639Y-51562800D02*
X105736401Y-51610419D01*
X105736401Y-51610419D02*
X105593544Y-51610419D01*
X106355449Y-51610419D02*
X106355449Y-50943752D01*
X106355449Y-51134228D02*
X106403068Y-51038990D01*
X106403068Y-51038990D02*
X106450687Y-50991371D01*
X106450687Y-50991371D02*
X106545925Y-50943752D01*
X106545925Y-50943752D02*
X106641163Y-50943752D01*
X98295619Y-71373524D02*
X97819428Y-71706857D01*
X98295619Y-71944952D02*
X97295619Y-71944952D01*
X97295619Y-71944952D02*
X97295619Y-71564000D01*
X97295619Y-71564000D02*
X97343238Y-71468762D01*
X97343238Y-71468762D02*
X97390857Y-71421143D01*
X97390857Y-71421143D02*
X97486095Y-71373524D01*
X97486095Y-71373524D02*
X97628952Y-71373524D01*
X97628952Y-71373524D02*
X97724190Y-71421143D01*
X97724190Y-71421143D02*
X97771809Y-71468762D01*
X97771809Y-71468762D02*
X97819428Y-71564000D01*
X97819428Y-71564000D02*
X97819428Y-71944952D01*
X97771809Y-70611619D02*
X97771809Y-70944952D01*
X98295619Y-70944952D02*
X97295619Y-70944952D01*
X97295619Y-70944952D02*
X97295619Y-70468762D01*
X98295619Y-70087809D02*
X97295619Y-70087809D01*
X98295619Y-69611619D02*
X97295619Y-69611619D01*
X97295619Y-69611619D02*
X97295619Y-69373524D01*
X97295619Y-69373524D02*
X97343238Y-69230667D01*
X97343238Y-69230667D02*
X97438476Y-69135429D01*
X97438476Y-69135429D02*
X97533714Y-69087810D01*
X97533714Y-69087810D02*
X97724190Y-69040191D01*
X97724190Y-69040191D02*
X97867047Y-69040191D01*
X97867047Y-69040191D02*
X98057523Y-69087810D01*
X98057523Y-69087810D02*
X98152761Y-69135429D01*
X98152761Y-69135429D02*
X98248000Y-69230667D01*
X98248000Y-69230667D02*
X98295619Y-69373524D01*
X98295619Y-69373524D02*
X98295619Y-69611619D01*
X98295619Y-67278286D02*
X97819428Y-67611619D01*
X98295619Y-67849714D02*
X97295619Y-67849714D01*
X97295619Y-67849714D02*
X97295619Y-67468762D01*
X97295619Y-67468762D02*
X97343238Y-67373524D01*
X97343238Y-67373524D02*
X97390857Y-67325905D01*
X97390857Y-67325905D02*
X97486095Y-67278286D01*
X97486095Y-67278286D02*
X97628952Y-67278286D01*
X97628952Y-67278286D02*
X97724190Y-67325905D01*
X97724190Y-67325905D02*
X97771809Y-67373524D01*
X97771809Y-67373524D02*
X97819428Y-67468762D01*
X97819428Y-67468762D02*
X97819428Y-67849714D01*
X98248000Y-66468762D02*
X98295619Y-66564000D01*
X98295619Y-66564000D02*
X98295619Y-66754476D01*
X98295619Y-66754476D02*
X98248000Y-66849714D01*
X98248000Y-66849714D02*
X98152761Y-66897333D01*
X98152761Y-66897333D02*
X97771809Y-66897333D01*
X97771809Y-66897333D02*
X97676571Y-66849714D01*
X97676571Y-66849714D02*
X97628952Y-66754476D01*
X97628952Y-66754476D02*
X97628952Y-66564000D01*
X97628952Y-66564000D02*
X97676571Y-66468762D01*
X97676571Y-66468762D02*
X97771809Y-66421143D01*
X97771809Y-66421143D02*
X97867047Y-66421143D01*
X97867047Y-66421143D02*
X97962285Y-66897333D01*
X98295619Y-65564000D02*
X97771809Y-65564000D01*
X97771809Y-65564000D02*
X97676571Y-65611619D01*
X97676571Y-65611619D02*
X97628952Y-65706857D01*
X97628952Y-65706857D02*
X97628952Y-65897333D01*
X97628952Y-65897333D02*
X97676571Y-65992571D01*
X98248000Y-65564000D02*
X98295619Y-65659238D01*
X98295619Y-65659238D02*
X98295619Y-65897333D01*
X98295619Y-65897333D02*
X98248000Y-65992571D01*
X98248000Y-65992571D02*
X98152761Y-66040190D01*
X98152761Y-66040190D02*
X98057523Y-66040190D01*
X98057523Y-66040190D02*
X97962285Y-65992571D01*
X97962285Y-65992571D02*
X97914666Y-65897333D01*
X97914666Y-65897333D02*
X97914666Y-65659238D01*
X97914666Y-65659238D02*
X97867047Y-65564000D01*
X98295619Y-64659238D02*
X97295619Y-64659238D01*
X98248000Y-64659238D02*
X98295619Y-64754476D01*
X98295619Y-64754476D02*
X98295619Y-64944952D01*
X98295619Y-64944952D02*
X98248000Y-65040190D01*
X98248000Y-65040190D02*
X98200380Y-65087809D01*
X98200380Y-65087809D02*
X98105142Y-65135428D01*
X98105142Y-65135428D02*
X97819428Y-65135428D01*
X97819428Y-65135428D02*
X97724190Y-65087809D01*
X97724190Y-65087809D02*
X97676571Y-65040190D01*
X97676571Y-65040190D02*
X97628952Y-64944952D01*
X97628952Y-64944952D02*
X97628952Y-64754476D01*
X97628952Y-64754476D02*
X97676571Y-64659238D01*
X98248000Y-63802095D02*
X98295619Y-63897333D01*
X98295619Y-63897333D02*
X98295619Y-64087809D01*
X98295619Y-64087809D02*
X98248000Y-64183047D01*
X98248000Y-64183047D02*
X98152761Y-64230666D01*
X98152761Y-64230666D02*
X97771809Y-64230666D01*
X97771809Y-64230666D02*
X97676571Y-64183047D01*
X97676571Y-64183047D02*
X97628952Y-64087809D01*
X97628952Y-64087809D02*
X97628952Y-63897333D01*
X97628952Y-63897333D02*
X97676571Y-63802095D01*
X97676571Y-63802095D02*
X97771809Y-63754476D01*
X97771809Y-63754476D02*
X97867047Y-63754476D01*
X97867047Y-63754476D02*
X97962285Y-64230666D01*
X98295619Y-63325904D02*
X97628952Y-63325904D01*
X97819428Y-63325904D02*
X97724190Y-63278285D01*
X97724190Y-63278285D02*
X97676571Y-63230666D01*
X97676571Y-63230666D02*
X97628952Y-63135428D01*
X97628952Y-63135428D02*
X97628952Y-63040190D01*
X90878819Y-85574094D02*
X89878819Y-85574094D01*
X89878819Y-85574094D02*
X89878819Y-85335999D01*
X89878819Y-85335999D02*
X89926438Y-85193142D01*
X89926438Y-85193142D02*
X90021676Y-85097904D01*
X90021676Y-85097904D02*
X90116914Y-85050285D01*
X90116914Y-85050285D02*
X90307390Y-85002666D01*
X90307390Y-85002666D02*
X90450247Y-85002666D01*
X90450247Y-85002666D02*
X90640723Y-85050285D01*
X90640723Y-85050285D02*
X90735961Y-85097904D01*
X90735961Y-85097904D02*
X90831200Y-85193142D01*
X90831200Y-85193142D02*
X90878819Y-85335999D01*
X90878819Y-85335999D02*
X90878819Y-85574094D01*
X89974057Y-84621713D02*
X89926438Y-84574094D01*
X89926438Y-84574094D02*
X89878819Y-84478856D01*
X89878819Y-84478856D02*
X89878819Y-84240761D01*
X89878819Y-84240761D02*
X89926438Y-84145523D01*
X89926438Y-84145523D02*
X89974057Y-84097904D01*
X89974057Y-84097904D02*
X90069295Y-84050285D01*
X90069295Y-84050285D02*
X90164533Y-84050285D01*
X90164533Y-84050285D02*
X90307390Y-84097904D01*
X90307390Y-84097904D02*
X90878819Y-84669332D01*
X90878819Y-84669332D02*
X90878819Y-84050285D01*
X138479999Y-92334819D02*
X138479999Y-91334819D01*
X138479999Y-91811009D02*
X139051427Y-91811009D01*
X139051427Y-92334819D02*
X139051427Y-91334819D01*
X139956189Y-92334819D02*
X139956189Y-91811009D01*
X139956189Y-91811009D02*
X139908570Y-91715771D01*
X139908570Y-91715771D02*
X139813332Y-91668152D01*
X139813332Y-91668152D02*
X139622856Y-91668152D01*
X139622856Y-91668152D02*
X139527618Y-91715771D01*
X139956189Y-92287200D02*
X139860951Y-92334819D01*
X139860951Y-92334819D02*
X139622856Y-92334819D01*
X139622856Y-92334819D02*
X139527618Y-92287200D01*
X139527618Y-92287200D02*
X139479999Y-92191961D01*
X139479999Y-92191961D02*
X139479999Y-92096723D01*
X139479999Y-92096723D02*
X139527618Y-92001485D01*
X139527618Y-92001485D02*
X139622856Y-91953866D01*
X139622856Y-91953866D02*
X139860951Y-91953866D01*
X139860951Y-91953866D02*
X139956189Y-91906247D01*
X140432380Y-91668152D02*
X140432380Y-92668152D01*
X140432380Y-91715771D02*
X140527618Y-91668152D01*
X140527618Y-91668152D02*
X140718094Y-91668152D01*
X140718094Y-91668152D02*
X140813332Y-91715771D01*
X140813332Y-91715771D02*
X140860951Y-91763390D01*
X140860951Y-91763390D02*
X140908570Y-91858628D01*
X140908570Y-91858628D02*
X140908570Y-92144342D01*
X140908570Y-92144342D02*
X140860951Y-92239580D01*
X140860951Y-92239580D02*
X140813332Y-92287200D01*
X140813332Y-92287200D02*
X140718094Y-92334819D01*
X140718094Y-92334819D02*
X140527618Y-92334819D01*
X140527618Y-92334819D02*
X140432380Y-92287200D01*
X141194285Y-91668152D02*
X141575237Y-91668152D01*
X141337142Y-91334819D02*
X141337142Y-92191961D01*
X141337142Y-92191961D02*
X141384761Y-92287200D01*
X141384761Y-92287200D02*
X141479999Y-92334819D01*
X141479999Y-92334819D02*
X141575237Y-92334819D01*
X141908571Y-92334819D02*
X141908571Y-91668152D01*
X141908571Y-91334819D02*
X141860952Y-91382438D01*
X141860952Y-91382438D02*
X141908571Y-91430057D01*
X141908571Y-91430057D02*
X141956190Y-91382438D01*
X141956190Y-91382438D02*
X141908571Y-91334819D01*
X141908571Y-91334819D02*
X141908571Y-91430057D01*
X142813332Y-92287200D02*
X142718094Y-92334819D01*
X142718094Y-92334819D02*
X142527618Y-92334819D01*
X142527618Y-92334819D02*
X142432380Y-92287200D01*
X142432380Y-92287200D02*
X142384761Y-92239580D01*
X142384761Y-92239580D02*
X142337142Y-92144342D01*
X142337142Y-92144342D02*
X142337142Y-91858628D01*
X142337142Y-91858628D02*
X142384761Y-91763390D01*
X142384761Y-91763390D02*
X142432380Y-91715771D01*
X142432380Y-91715771D02*
X142527618Y-91668152D01*
X142527618Y-91668152D02*
X142718094Y-91668152D01*
X142718094Y-91668152D02*
X142813332Y-91715771D01*
X144337142Y-91811009D02*
X144003809Y-91811009D01*
X144003809Y-92334819D02*
X144003809Y-91334819D01*
X144003809Y-91334819D02*
X144479999Y-91334819D01*
X145241904Y-92287200D02*
X145146666Y-92334819D01*
X145146666Y-92334819D02*
X144956190Y-92334819D01*
X144956190Y-92334819D02*
X144860952Y-92287200D01*
X144860952Y-92287200D02*
X144813333Y-92191961D01*
X144813333Y-92191961D02*
X144813333Y-91811009D01*
X144813333Y-91811009D02*
X144860952Y-91715771D01*
X144860952Y-91715771D02*
X144956190Y-91668152D01*
X144956190Y-91668152D02*
X145146666Y-91668152D01*
X145146666Y-91668152D02*
X145241904Y-91715771D01*
X145241904Y-91715771D02*
X145289523Y-91811009D01*
X145289523Y-91811009D02*
X145289523Y-91906247D01*
X145289523Y-91906247D02*
X144813333Y-92001485D01*
X146099047Y-92287200D02*
X146003809Y-92334819D01*
X146003809Y-92334819D02*
X145813333Y-92334819D01*
X145813333Y-92334819D02*
X145718095Y-92287200D01*
X145718095Y-92287200D02*
X145670476Y-92191961D01*
X145670476Y-92191961D02*
X145670476Y-91811009D01*
X145670476Y-91811009D02*
X145718095Y-91715771D01*
X145718095Y-91715771D02*
X145813333Y-91668152D01*
X145813333Y-91668152D02*
X146003809Y-91668152D01*
X146003809Y-91668152D02*
X146099047Y-91715771D01*
X146099047Y-91715771D02*
X146146666Y-91811009D01*
X146146666Y-91811009D02*
X146146666Y-91906247D01*
X146146666Y-91906247D02*
X145670476Y-92001485D01*
X147003809Y-92334819D02*
X147003809Y-91334819D01*
X147003809Y-92287200D02*
X146908571Y-92334819D01*
X146908571Y-92334819D02*
X146718095Y-92334819D01*
X146718095Y-92334819D02*
X146622857Y-92287200D01*
X146622857Y-92287200D02*
X146575238Y-92239580D01*
X146575238Y-92239580D02*
X146527619Y-92144342D01*
X146527619Y-92144342D02*
X146527619Y-91858628D01*
X146527619Y-91858628D02*
X146575238Y-91763390D01*
X146575238Y-91763390D02*
X146622857Y-91715771D01*
X146622857Y-91715771D02*
X146718095Y-91668152D01*
X146718095Y-91668152D02*
X146908571Y-91668152D01*
X146908571Y-91668152D02*
X147003809Y-91715771D01*
X147480000Y-92334819D02*
X147480000Y-91334819D01*
X147480000Y-91715771D02*
X147575238Y-91668152D01*
X147575238Y-91668152D02*
X147765714Y-91668152D01*
X147765714Y-91668152D02*
X147860952Y-91715771D01*
X147860952Y-91715771D02*
X147908571Y-91763390D01*
X147908571Y-91763390D02*
X147956190Y-91858628D01*
X147956190Y-91858628D02*
X147956190Y-92144342D01*
X147956190Y-92144342D02*
X147908571Y-92239580D01*
X147908571Y-92239580D02*
X147860952Y-92287200D01*
X147860952Y-92287200D02*
X147765714Y-92334819D01*
X147765714Y-92334819D02*
X147575238Y-92334819D01*
X147575238Y-92334819D02*
X147480000Y-92287200D01*
X148813333Y-92334819D02*
X148813333Y-91811009D01*
X148813333Y-91811009D02*
X148765714Y-91715771D01*
X148765714Y-91715771D02*
X148670476Y-91668152D01*
X148670476Y-91668152D02*
X148480000Y-91668152D01*
X148480000Y-91668152D02*
X148384762Y-91715771D01*
X148813333Y-92287200D02*
X148718095Y-92334819D01*
X148718095Y-92334819D02*
X148480000Y-92334819D01*
X148480000Y-92334819D02*
X148384762Y-92287200D01*
X148384762Y-92287200D02*
X148337143Y-92191961D01*
X148337143Y-92191961D02*
X148337143Y-92096723D01*
X148337143Y-92096723D02*
X148384762Y-92001485D01*
X148384762Y-92001485D02*
X148480000Y-91953866D01*
X148480000Y-91953866D02*
X148718095Y-91953866D01*
X148718095Y-91953866D02*
X148813333Y-91906247D01*
X149718095Y-92287200D02*
X149622857Y-92334819D01*
X149622857Y-92334819D02*
X149432381Y-92334819D01*
X149432381Y-92334819D02*
X149337143Y-92287200D01*
X149337143Y-92287200D02*
X149289524Y-92239580D01*
X149289524Y-92239580D02*
X149241905Y-92144342D01*
X149241905Y-92144342D02*
X149241905Y-91858628D01*
X149241905Y-91858628D02*
X149289524Y-91763390D01*
X149289524Y-91763390D02*
X149337143Y-91715771D01*
X149337143Y-91715771D02*
X149432381Y-91668152D01*
X149432381Y-91668152D02*
X149622857Y-91668152D01*
X149622857Y-91668152D02*
X149718095Y-91715771D01*
X150146667Y-92334819D02*
X150146667Y-91334819D01*
X150241905Y-91953866D02*
X150527619Y-92334819D01*
X150527619Y-91668152D02*
X150146667Y-92049104D01*
X94161905Y-105104819D02*
X94161905Y-104104819D01*
X94161905Y-104104819D02*
X94400000Y-104104819D01*
X94400000Y-104104819D02*
X94542857Y-104152438D01*
X94542857Y-104152438D02*
X94638095Y-104247676D01*
X94638095Y-104247676D02*
X94685714Y-104342914D01*
X94685714Y-104342914D02*
X94733333Y-104533390D01*
X94733333Y-104533390D02*
X94733333Y-104676247D01*
X94733333Y-104676247D02*
X94685714Y-104866723D01*
X94685714Y-104866723D02*
X94638095Y-104961961D01*
X94638095Y-104961961D02*
X94542857Y-105057200D01*
X94542857Y-105057200D02*
X94400000Y-105104819D01*
X94400000Y-105104819D02*
X94161905Y-105104819D01*
X95685714Y-105104819D02*
X95114286Y-105104819D01*
X95400000Y-105104819D02*
X95400000Y-104104819D01*
X95400000Y-104104819D02*
X95304762Y-104247676D01*
X95304762Y-104247676D02*
X95209524Y-104342914D01*
X95209524Y-104342914D02*
X95114286Y-104390533D01*
D10*
X141142667Y-99424895D02*
X140876000Y-99043942D01*
X140685524Y-99424895D02*
X140685524Y-98624895D01*
X140685524Y-98624895D02*
X140990286Y-98624895D01*
X140990286Y-98624895D02*
X141066476Y-98662990D01*
X141066476Y-98662990D02*
X141104571Y-98701085D01*
X141104571Y-98701085D02*
X141142667Y-98777276D01*
X141142667Y-98777276D02*
X141142667Y-98891561D01*
X141142667Y-98891561D02*
X141104571Y-98967752D01*
X141104571Y-98967752D02*
X141066476Y-99005847D01*
X141066476Y-99005847D02*
X140990286Y-99043942D01*
X140990286Y-99043942D02*
X140685524Y-99043942D01*
X141904571Y-99424895D02*
X141447428Y-99424895D01*
X141676000Y-99424895D02*
X141676000Y-98624895D01*
X141676000Y-98624895D02*
X141599809Y-98739180D01*
X141599809Y-98739180D02*
X141523619Y-98815371D01*
X141523619Y-98815371D02*
X141447428Y-98853466D01*
D11*
X105814019Y-55857904D02*
X104814019Y-55857904D01*
X105290209Y-55857904D02*
X105290209Y-55286476D01*
X105814019Y-55286476D02*
X104814019Y-55286476D01*
X105814019Y-54286476D02*
X105814019Y-54857904D01*
X105814019Y-54572190D02*
X104814019Y-54572190D01*
X104814019Y-54572190D02*
X104956876Y-54667428D01*
X104956876Y-54667428D02*
X105052114Y-54762666D01*
X105052114Y-54762666D02*
X105099733Y-54857904D01*
X126768933Y-71828819D02*
X126435600Y-71352628D01*
X126197505Y-71828819D02*
X126197505Y-70828819D01*
X126197505Y-70828819D02*
X126578457Y-70828819D01*
X126578457Y-70828819D02*
X126673695Y-70876438D01*
X126673695Y-70876438D02*
X126721314Y-70924057D01*
X126721314Y-70924057D02*
X126768933Y-71019295D01*
X126768933Y-71019295D02*
X126768933Y-71162152D01*
X126768933Y-71162152D02*
X126721314Y-71257390D01*
X126721314Y-71257390D02*
X126673695Y-71305009D01*
X126673695Y-71305009D02*
X126578457Y-71352628D01*
X126578457Y-71352628D02*
X126197505Y-71352628D01*
X127626076Y-71162152D02*
X127626076Y-71828819D01*
X127387981Y-70781200D02*
X127149886Y-71495485D01*
X127149886Y-71495485D02*
X127768933Y-71495485D01*
X110944819Y-97956666D02*
X110468628Y-98289999D01*
X110944819Y-98528094D02*
X109944819Y-98528094D01*
X109944819Y-98528094D02*
X109944819Y-98147142D01*
X109944819Y-98147142D02*
X109992438Y-98051904D01*
X109992438Y-98051904D02*
X110040057Y-98004285D01*
X110040057Y-98004285D02*
X110135295Y-97956666D01*
X110135295Y-97956666D02*
X110278152Y-97956666D01*
X110278152Y-97956666D02*
X110373390Y-98004285D01*
X110373390Y-98004285D02*
X110421009Y-98051904D01*
X110421009Y-98051904D02*
X110468628Y-98147142D01*
X110468628Y-98147142D02*
X110468628Y-98528094D01*
X109944819Y-97623332D02*
X109944819Y-97004285D01*
X109944819Y-97004285D02*
X110325771Y-97337618D01*
X110325771Y-97337618D02*
X110325771Y-97194761D01*
X110325771Y-97194761D02*
X110373390Y-97099523D01*
X110373390Y-97099523D02*
X110421009Y-97051904D01*
X110421009Y-97051904D02*
X110516247Y-97004285D01*
X110516247Y-97004285D02*
X110754342Y-97004285D01*
X110754342Y-97004285D02*
X110849580Y-97051904D01*
X110849580Y-97051904D02*
X110897200Y-97099523D01*
X110897200Y-97099523D02*
X110944819Y-97194761D01*
X110944819Y-97194761D02*
X110944819Y-97480475D01*
X110944819Y-97480475D02*
X110897200Y-97575713D01*
X110897200Y-97575713D02*
X110849580Y-97623332D01*
X137437905Y-69034819D02*
X137437905Y-68034819D01*
X137437905Y-68034819D02*
X137676000Y-68034819D01*
X137676000Y-68034819D02*
X137818857Y-68082438D01*
X137818857Y-68082438D02*
X137914095Y-68177676D01*
X137914095Y-68177676D02*
X137961714Y-68272914D01*
X137961714Y-68272914D02*
X138009333Y-68463390D01*
X138009333Y-68463390D02*
X138009333Y-68606247D01*
X138009333Y-68606247D02*
X137961714Y-68796723D01*
X137961714Y-68796723D02*
X137914095Y-68891961D01*
X137914095Y-68891961D02*
X137818857Y-68987200D01*
X137818857Y-68987200D02*
X137676000Y-69034819D01*
X137676000Y-69034819D02*
X137437905Y-69034819D01*
X138485524Y-69034819D02*
X138676000Y-69034819D01*
X138676000Y-69034819D02*
X138771238Y-68987200D01*
X138771238Y-68987200D02*
X138818857Y-68939580D01*
X138818857Y-68939580D02*
X138914095Y-68796723D01*
X138914095Y-68796723D02*
X138961714Y-68606247D01*
X138961714Y-68606247D02*
X138961714Y-68225295D01*
X138961714Y-68225295D02*
X138914095Y-68130057D01*
X138914095Y-68130057D02*
X138866476Y-68082438D01*
X138866476Y-68082438D02*
X138771238Y-68034819D01*
X138771238Y-68034819D02*
X138580762Y-68034819D01*
X138580762Y-68034819D02*
X138485524Y-68082438D01*
X138485524Y-68082438D02*
X138437905Y-68130057D01*
X138437905Y-68130057D02*
X138390286Y-68225295D01*
X138390286Y-68225295D02*
X138390286Y-68463390D01*
X138390286Y-68463390D02*
X138437905Y-68558628D01*
X138437905Y-68558628D02*
X138485524Y-68606247D01*
X138485524Y-68606247D02*
X138580762Y-68653866D01*
X138580762Y-68653866D02*
X138771238Y-68653866D01*
X138771238Y-68653866D02*
X138866476Y-68606247D01*
X138866476Y-68606247D02*
X138914095Y-68558628D01*
X138914095Y-68558628D02*
X138961714Y-68463390D01*
X106407142Y-88863819D02*
X106073809Y-88387628D01*
X105835714Y-88863819D02*
X105835714Y-87863819D01*
X105835714Y-87863819D02*
X106216666Y-87863819D01*
X106216666Y-87863819D02*
X106311904Y-87911438D01*
X106311904Y-87911438D02*
X106359523Y-87959057D01*
X106359523Y-87959057D02*
X106407142Y-88054295D01*
X106407142Y-88054295D02*
X106407142Y-88197152D01*
X106407142Y-88197152D02*
X106359523Y-88292390D01*
X106359523Y-88292390D02*
X106311904Y-88340009D01*
X106311904Y-88340009D02*
X106216666Y-88387628D01*
X106216666Y-88387628D02*
X105835714Y-88387628D01*
X107359523Y-88863819D02*
X106788095Y-88863819D01*
X107073809Y-88863819D02*
X107073809Y-87863819D01*
X107073809Y-87863819D02*
X106978571Y-88006676D01*
X106978571Y-88006676D02*
X106883333Y-88101914D01*
X106883333Y-88101914D02*
X106788095Y-88149533D01*
X108216666Y-87863819D02*
X108026190Y-87863819D01*
X108026190Y-87863819D02*
X107930952Y-87911438D01*
X107930952Y-87911438D02*
X107883333Y-87959057D01*
X107883333Y-87959057D02*
X107788095Y-88101914D01*
X107788095Y-88101914D02*
X107740476Y-88292390D01*
X107740476Y-88292390D02*
X107740476Y-88673342D01*
X107740476Y-88673342D02*
X107788095Y-88768580D01*
X107788095Y-88768580D02*
X107835714Y-88816200D01*
X107835714Y-88816200D02*
X107930952Y-88863819D01*
X107930952Y-88863819D02*
X108121428Y-88863819D01*
X108121428Y-88863819D02*
X108216666Y-88816200D01*
X108216666Y-88816200D02*
X108264285Y-88768580D01*
X108264285Y-88768580D02*
X108311904Y-88673342D01*
X108311904Y-88673342D02*
X108311904Y-88435247D01*
X108311904Y-88435247D02*
X108264285Y-88340009D01*
X108264285Y-88340009D02*
X108216666Y-88292390D01*
X108216666Y-88292390D02*
X108121428Y-88244771D01*
X108121428Y-88244771D02*
X107930952Y-88244771D01*
X107930952Y-88244771D02*
X107835714Y-88292390D01*
X107835714Y-88292390D02*
X107788095Y-88340009D01*
X107788095Y-88340009D02*
X107740476Y-88435247D01*
X125944933Y-56842819D02*
X125611600Y-56366628D01*
X125373505Y-56842819D02*
X125373505Y-55842819D01*
X125373505Y-55842819D02*
X125754457Y-55842819D01*
X125754457Y-55842819D02*
X125849695Y-55890438D01*
X125849695Y-55890438D02*
X125897314Y-55938057D01*
X125897314Y-55938057D02*
X125944933Y-56033295D01*
X125944933Y-56033295D02*
X125944933Y-56176152D01*
X125944933Y-56176152D02*
X125897314Y-56271390D01*
X125897314Y-56271390D02*
X125849695Y-56319009D01*
X125849695Y-56319009D02*
X125754457Y-56366628D01*
X125754457Y-56366628D02*
X125373505Y-56366628D01*
X126516362Y-56271390D02*
X126421124Y-56223771D01*
X126421124Y-56223771D02*
X126373505Y-56176152D01*
X126373505Y-56176152D02*
X126325886Y-56080914D01*
X126325886Y-56080914D02*
X126325886Y-56033295D01*
X126325886Y-56033295D02*
X126373505Y-55938057D01*
X126373505Y-55938057D02*
X126421124Y-55890438D01*
X126421124Y-55890438D02*
X126516362Y-55842819D01*
X126516362Y-55842819D02*
X126706838Y-55842819D01*
X126706838Y-55842819D02*
X126802076Y-55890438D01*
X126802076Y-55890438D02*
X126849695Y-55938057D01*
X126849695Y-55938057D02*
X126897314Y-56033295D01*
X126897314Y-56033295D02*
X126897314Y-56080914D01*
X126897314Y-56080914D02*
X126849695Y-56176152D01*
X126849695Y-56176152D02*
X126802076Y-56223771D01*
X126802076Y-56223771D02*
X126706838Y-56271390D01*
X126706838Y-56271390D02*
X126516362Y-56271390D01*
X126516362Y-56271390D02*
X126421124Y-56319009D01*
X126421124Y-56319009D02*
X126373505Y-56366628D01*
X126373505Y-56366628D02*
X126325886Y-56461866D01*
X126325886Y-56461866D02*
X126325886Y-56652342D01*
X126325886Y-56652342D02*
X126373505Y-56747580D01*
X126373505Y-56747580D02*
X126421124Y-56795200D01*
X126421124Y-56795200D02*
X126516362Y-56842819D01*
X126516362Y-56842819D02*
X126706838Y-56842819D01*
X126706838Y-56842819D02*
X126802076Y-56795200D01*
X126802076Y-56795200D02*
X126849695Y-56747580D01*
X126849695Y-56747580D02*
X126897314Y-56652342D01*
X126897314Y-56652342D02*
X126897314Y-56461866D01*
X126897314Y-56461866D02*
X126849695Y-56366628D01*
X126849695Y-56366628D02*
X126802076Y-56319009D01*
X126802076Y-56319009D02*
X126706838Y-56271390D01*
X98310095Y-90013819D02*
X98310095Y-90823342D01*
X98310095Y-90823342D02*
X98357714Y-90918580D01*
X98357714Y-90918580D02*
X98405333Y-90966200D01*
X98405333Y-90966200D02*
X98500571Y-91013819D01*
X98500571Y-91013819D02*
X98691047Y-91013819D01*
X98691047Y-91013819D02*
X98786285Y-90966200D01*
X98786285Y-90966200D02*
X98833904Y-90918580D01*
X98833904Y-90918580D02*
X98881523Y-90823342D01*
X98881523Y-90823342D02*
X98881523Y-90013819D01*
X99786285Y-90347152D02*
X99786285Y-91013819D01*
X99548190Y-89966200D02*
X99310095Y-90680485D01*
X99310095Y-90680485D02*
X99929142Y-90680485D01*
X132065733Y-71733580D02*
X132018114Y-71781200D01*
X132018114Y-71781200D02*
X131875257Y-71828819D01*
X131875257Y-71828819D02*
X131780019Y-71828819D01*
X131780019Y-71828819D02*
X131637162Y-71781200D01*
X131637162Y-71781200D02*
X131541924Y-71685961D01*
X131541924Y-71685961D02*
X131494305Y-71590723D01*
X131494305Y-71590723D02*
X131446686Y-71400247D01*
X131446686Y-71400247D02*
X131446686Y-71257390D01*
X131446686Y-71257390D02*
X131494305Y-71066914D01*
X131494305Y-71066914D02*
X131541924Y-70971676D01*
X131541924Y-70971676D02*
X131637162Y-70876438D01*
X131637162Y-70876438D02*
X131780019Y-70828819D01*
X131780019Y-70828819D02*
X131875257Y-70828819D01*
X131875257Y-70828819D02*
X132018114Y-70876438D01*
X132018114Y-70876438D02*
X132065733Y-70924057D01*
X132922876Y-71162152D02*
X132922876Y-71828819D01*
X132684781Y-70781200D02*
X132446686Y-71495485D01*
X132446686Y-71495485D02*
X133065733Y-71495485D01*
X129370133Y-71828819D02*
X129036800Y-71352628D01*
X128798705Y-71828819D02*
X128798705Y-70828819D01*
X128798705Y-70828819D02*
X129179657Y-70828819D01*
X129179657Y-70828819D02*
X129274895Y-70876438D01*
X129274895Y-70876438D02*
X129322514Y-70924057D01*
X129322514Y-70924057D02*
X129370133Y-71019295D01*
X129370133Y-71019295D02*
X129370133Y-71162152D01*
X129370133Y-71162152D02*
X129322514Y-71257390D01*
X129322514Y-71257390D02*
X129274895Y-71305009D01*
X129274895Y-71305009D02*
X129179657Y-71352628D01*
X129179657Y-71352628D02*
X128798705Y-71352628D01*
X130274895Y-70828819D02*
X129798705Y-70828819D01*
X129798705Y-70828819D02*
X129751086Y-71305009D01*
X129751086Y-71305009D02*
X129798705Y-71257390D01*
X129798705Y-71257390D02*
X129893943Y-71209771D01*
X129893943Y-71209771D02*
X130132038Y-71209771D01*
X130132038Y-71209771D02*
X130227276Y-71257390D01*
X130227276Y-71257390D02*
X130274895Y-71305009D01*
X130274895Y-71305009D02*
X130322514Y-71400247D01*
X130322514Y-71400247D02*
X130322514Y-71638342D01*
X130322514Y-71638342D02*
X130274895Y-71733580D01*
X130274895Y-71733580D02*
X130227276Y-71781200D01*
X130227276Y-71781200D02*
X130132038Y-71828819D01*
X130132038Y-71828819D02*
X129893943Y-71828819D01*
X129893943Y-71828819D02*
X129798705Y-71781200D01*
X129798705Y-71781200D02*
X129751086Y-71733580D01*
X88290666Y-88627819D02*
X88290666Y-89342104D01*
X88290666Y-89342104D02*
X88243047Y-89484961D01*
X88243047Y-89484961D02*
X88147809Y-89580200D01*
X88147809Y-89580200D02*
X88004952Y-89627819D01*
X88004952Y-89627819D02*
X87909714Y-89627819D01*
X88814476Y-89627819D02*
X89004952Y-89627819D01*
X89004952Y-89627819D02*
X89100190Y-89580200D01*
X89100190Y-89580200D02*
X89147809Y-89532580D01*
X89147809Y-89532580D02*
X89243047Y-89389723D01*
X89243047Y-89389723D02*
X89290666Y-89199247D01*
X89290666Y-89199247D02*
X89290666Y-88818295D01*
X89290666Y-88818295D02*
X89243047Y-88723057D01*
X89243047Y-88723057D02*
X89195428Y-88675438D01*
X89195428Y-88675438D02*
X89100190Y-88627819D01*
X89100190Y-88627819D02*
X88909714Y-88627819D01*
X88909714Y-88627819D02*
X88814476Y-88675438D01*
X88814476Y-88675438D02*
X88766857Y-88723057D01*
X88766857Y-88723057D02*
X88719238Y-88818295D01*
X88719238Y-88818295D02*
X88719238Y-89056390D01*
X88719238Y-89056390D02*
X88766857Y-89151628D01*
X88766857Y-89151628D02*
X88814476Y-89199247D01*
X88814476Y-89199247D02*
X88909714Y-89246866D01*
X88909714Y-89246866D02*
X89100190Y-89246866D01*
X89100190Y-89246866D02*
X89195428Y-89199247D01*
X89195428Y-89199247D02*
X89243047Y-89151628D01*
X89243047Y-89151628D02*
X89290666Y-89056390D01*
X100022819Y-89034857D02*
X99546628Y-89368190D01*
X100022819Y-89606285D02*
X99022819Y-89606285D01*
X99022819Y-89606285D02*
X99022819Y-89225333D01*
X99022819Y-89225333D02*
X99070438Y-89130095D01*
X99070438Y-89130095D02*
X99118057Y-89082476D01*
X99118057Y-89082476D02*
X99213295Y-89034857D01*
X99213295Y-89034857D02*
X99356152Y-89034857D01*
X99356152Y-89034857D02*
X99451390Y-89082476D01*
X99451390Y-89082476D02*
X99499009Y-89130095D01*
X99499009Y-89130095D02*
X99546628Y-89225333D01*
X99546628Y-89225333D02*
X99546628Y-89606285D01*
X100022819Y-88082476D02*
X100022819Y-88653904D01*
X100022819Y-88368190D02*
X99022819Y-88368190D01*
X99022819Y-88368190D02*
X99165676Y-88463428D01*
X99165676Y-88463428D02*
X99260914Y-88558666D01*
X99260914Y-88558666D02*
X99308533Y-88653904D01*
X99118057Y-87701523D02*
X99070438Y-87653904D01*
X99070438Y-87653904D02*
X99022819Y-87558666D01*
X99022819Y-87558666D02*
X99022819Y-87320571D01*
X99022819Y-87320571D02*
X99070438Y-87225333D01*
X99070438Y-87225333D02*
X99118057Y-87177714D01*
X99118057Y-87177714D02*
X99213295Y-87130095D01*
X99213295Y-87130095D02*
X99308533Y-87130095D01*
X99308533Y-87130095D02*
X99451390Y-87177714D01*
X99451390Y-87177714D02*
X100022819Y-87749142D01*
X100022819Y-87749142D02*
X100022819Y-87130095D01*
D14*
%TO.C,R21*%
X119122936Y-98740000D02*
X120577064Y-98740000D01*
X119122936Y-100560000D02*
X120577064Y-100560000D01*
%TO.C,J6*%
X140122000Y-64818400D02*
X140122000Y-66428400D01*
X140122000Y-66428400D02*
X141732000Y-66428400D01*
X145622000Y-54838400D02*
X149042000Y-54838400D01*
X145622000Y-66878400D02*
X145622000Y-54838400D01*
X149042000Y-54838400D02*
X149042000Y-55888400D01*
X149042000Y-55888400D02*
X155242000Y-55888400D01*
X149042000Y-65828400D02*
X149042000Y-66878400D01*
X149042000Y-66878400D02*
X145622000Y-66878400D01*
X155242000Y-55888400D02*
X155242000Y-65828400D01*
X155242000Y-57718400D02*
X156742000Y-57718400D01*
X155242000Y-61678400D02*
X156742000Y-61678400D01*
X155242000Y-65638400D02*
X156742000Y-65638400D01*
X155242000Y-65828400D02*
X149042000Y-65828400D01*
X156742000Y-56078400D02*
X155242000Y-56078400D01*
X156742000Y-57718400D02*
X156742000Y-56078400D01*
X156742000Y-60038400D02*
X155242000Y-60038400D01*
X156742000Y-61678400D02*
X156742000Y-60038400D01*
X156742000Y-63998400D02*
X155242000Y-63998400D01*
X156742000Y-65638400D02*
X156742000Y-63998400D01*
%TO.C,R2*%
X107799064Y-91829000D02*
X106344936Y-91829000D01*
X107799064Y-93649000D02*
X106344936Y-93649000D01*
%TO.C,SW2*%
D10*
X117856000Y-88646000D02*
X122428000Y-88646000D01*
X122428000Y-93218000D01*
X117856000Y-93218000D01*
X117856000Y-88646000D01*
D14*
%TO.C,R15*%
X87539000Y-103870064D02*
X87539000Y-102415936D01*
X89359000Y-103870064D02*
X89359000Y-102415936D01*
%TO.C,R13*%
X97178936Y-99441000D02*
X98633064Y-99441000D01*
X97178936Y-101261000D02*
X98633064Y-101261000D01*
%TO.C,J5*%
X140122000Y-79347200D02*
X140122000Y-80957200D01*
X140122000Y-80957200D02*
X141732000Y-80957200D01*
X145622000Y-69367200D02*
X149042000Y-69367200D01*
X145622000Y-81407200D02*
X145622000Y-69367200D01*
X149042000Y-69367200D02*
X149042000Y-70417200D01*
X149042000Y-70417200D02*
X155242000Y-70417200D01*
X149042000Y-80357200D02*
X149042000Y-81407200D01*
X149042000Y-81407200D02*
X145622000Y-81407200D01*
X155242000Y-70417200D02*
X155242000Y-80357200D01*
X155242000Y-72247200D02*
X156742000Y-72247200D01*
X155242000Y-76207200D02*
X156742000Y-76207200D01*
X155242000Y-80167200D02*
X156742000Y-80167200D01*
X155242000Y-80357200D02*
X149042000Y-80357200D01*
X156742000Y-70607200D02*
X155242000Y-70607200D01*
X156742000Y-72247200D02*
X156742000Y-70607200D01*
X156742000Y-74567200D02*
X155242000Y-74567200D01*
X156742000Y-76207200D02*
X156742000Y-74567200D01*
X156742000Y-78527200D02*
X155242000Y-78527200D01*
X156742000Y-80167200D02*
X156742000Y-78527200D01*
%TO.C,R17*%
X119134936Y-96372000D02*
X120589064Y-96372000D01*
X119134936Y-98192000D02*
X120589064Y-98192000D01*
%TO.C,C11*%
X119176748Y-93832000D02*
X120599252Y-93832000D01*
X119176748Y-95652000D02*
X120599252Y-95652000D01*
%TO.C,C10*%
X107761252Y-99329000D02*
X106338748Y-99329000D01*
X107761252Y-101149000D02*
X106338748Y-101149000D01*
D16*
%TO.C,U3*%
X119299002Y-102742299D02*
X132761002Y-102742299D01*
X119299002Y-119607899D02*
X119299002Y-102742299D01*
X132761002Y-102742299D02*
X132761002Y-119607899D01*
X132761002Y-119607899D02*
X119299002Y-119607899D01*
%TO.C,SW1*%
D10*
X149072000Y-96012000D02*
X144500000Y-96012000D01*
X144500000Y-100584000D01*
X149072000Y-100584000D01*
X149072000Y-96012000D01*
D16*
%TO.C,U2*%
X128638300Y-78701900D02*
X128638300Y-79163545D01*
X128638300Y-82583655D02*
X128638300Y-83045300D01*
X128638300Y-83045300D02*
X129099945Y-83045300D01*
X129099945Y-78701900D02*
X128638300Y-78701900D01*
X132520055Y-83045300D02*
X132981700Y-83045300D01*
X132981700Y-78701900D02*
X132520055Y-78701900D01*
X132981700Y-79163545D02*
X132981700Y-78701900D01*
X132981700Y-83045300D02*
X132981700Y-82583655D01*
D17*
G36*
X131250563Y-83629500D02*
G01*
X130869563Y-83629500D01*
X130869563Y-83375500D01*
X131250563Y-83375500D01*
X131250563Y-83629500D01*
G37*
G36*
X131750689Y-78371700D02*
G01*
X131369689Y-78371700D01*
X131369689Y-78117700D01*
X131750689Y-78117700D01*
X131750689Y-78371700D01*
G37*
D14*
%TO.C,C1*%
X140474248Y-102214000D02*
X141896752Y-102214000D01*
X140474248Y-104034000D02*
X141896752Y-104034000D01*
%TO.C,J4*%
X108924640Y-41254800D02*
X109974640Y-41254800D01*
X108924640Y-44674800D02*
X108924640Y-41254800D01*
X109974640Y-35054800D02*
X119914640Y-35054800D01*
X109974640Y-41254800D02*
X109974640Y-35054800D01*
X110164640Y-33554800D02*
X110164640Y-35054800D01*
X111804640Y-33554800D02*
X110164640Y-33554800D01*
X111804640Y-35054800D02*
X111804640Y-33554800D01*
X114124640Y-33554800D02*
X114124640Y-35054800D01*
X115764640Y-33554800D02*
X114124640Y-33554800D01*
X115764640Y-35054800D02*
X115764640Y-33554800D01*
X118084640Y-33554800D02*
X118084640Y-35054800D01*
X118904640Y-50174800D02*
X120514640Y-50174800D01*
X119724640Y-33554800D02*
X118084640Y-33554800D01*
X119724640Y-35054800D02*
X119724640Y-33554800D01*
X119914640Y-35054800D02*
X119914640Y-41254800D01*
X119914640Y-41254800D02*
X120964640Y-41254800D01*
X120514640Y-50174800D02*
X120514640Y-48564800D01*
X120964640Y-41254800D02*
X120964640Y-44674800D01*
X120964640Y-44674800D02*
X108924640Y-44674800D01*
D18*
%TO.C,RTC1*%
X128800000Y-91675000D02*
X132000000Y-91675000D01*
X128800000Y-99975000D02*
X128800000Y-91675000D01*
X132000000Y-91675000D02*
X132000000Y-99975000D01*
X132000000Y-99975000D02*
X128800000Y-99975000D01*
D14*
%TO.C,R7*%
X131378336Y-58221200D02*
X132832464Y-58221200D01*
X131378336Y-60041200D02*
X132832464Y-60041200D01*
%TO.C,C6*%
X132690063Y-85128048D02*
X132690063Y-86550552D01*
X134510063Y-85128048D02*
X134510063Y-86550552D01*
%TO.C,J8*%
X101998000Y-86317600D02*
X101998000Y-84937600D01*
X103378000Y-86317600D02*
X101998000Y-86317600D01*
X104648000Y-83557600D02*
X122538000Y-83557600D01*
X104648000Y-86317600D02*
X104648000Y-83557600D01*
X104648000Y-86317600D02*
X122538000Y-86317600D01*
X122538000Y-86317600D02*
X122538000Y-83557600D01*
%TO.C,J2*%
X133337760Y-41254800D02*
X134387760Y-41254800D01*
X133337760Y-44674800D02*
X133337760Y-41254800D01*
X134387760Y-35054800D02*
X140367760Y-35054800D01*
X134387760Y-41254800D02*
X134387760Y-35054800D01*
X134577760Y-33554800D02*
X134577760Y-35054800D01*
X136217760Y-33554800D02*
X134577760Y-33554800D01*
X136217760Y-35054800D02*
X136217760Y-33554800D01*
X138537760Y-33554800D02*
X138537760Y-35054800D01*
X139357760Y-50174800D02*
X140967760Y-50174800D01*
X140177760Y-33554800D02*
X138537760Y-33554800D01*
X140177760Y-35054800D02*
X140177760Y-33554800D01*
X140367760Y-35054800D02*
X140367760Y-41254800D01*
X140367760Y-41254800D02*
X141417760Y-41254800D01*
X140967760Y-50174800D02*
X140967760Y-48564800D01*
X141417760Y-41254800D02*
X141417760Y-44674800D01*
X141417760Y-44674800D02*
X133337760Y-44674800D01*
%TO.C,R19*%
X94840000Y-110277064D02*
X94840000Y-108822936D01*
X96660000Y-110277064D02*
X96660000Y-108822936D01*
D10*
%TO.C,D5*%
X131617000Y-52070000D02*
G75*
G02*
X131517000Y-52070000I-50000J0D01*
G01*
X131517000Y-52070000D02*
G75*
G02*
X131617000Y-52070000I50000J0D01*
G01*
D14*
%TO.C,J3*%
X123111200Y-41254800D02*
X124161200Y-41254800D01*
X123111200Y-44674800D02*
X123111200Y-41254800D01*
X124161200Y-35054800D02*
X130141200Y-35054800D01*
X124161200Y-41254800D02*
X124161200Y-35054800D01*
X124351200Y-33554800D02*
X124351200Y-35054800D01*
X125991200Y-33554800D02*
X124351200Y-33554800D01*
X125991200Y-35054800D02*
X125991200Y-33554800D01*
X128311200Y-33554800D02*
X128311200Y-35054800D01*
X129131200Y-50174800D02*
X130741200Y-50174800D01*
X129951200Y-33554800D02*
X128311200Y-33554800D01*
X129951200Y-35054800D02*
X129951200Y-33554800D01*
X130141200Y-35054800D02*
X130141200Y-41254800D01*
X130141200Y-41254800D02*
X131191200Y-41254800D01*
X130741200Y-50174800D02*
X130741200Y-48564800D01*
X131191200Y-41254800D02*
X131191200Y-44674800D01*
X131191200Y-44674800D02*
X123111200Y-44674800D01*
%TO.C,C2*%
X140474248Y-104754000D02*
X141896752Y-104754000D01*
X140474248Y-106574000D02*
X141896752Y-106574000D01*
%TO.C,R14*%
X107799064Y-94329000D02*
X106344936Y-94329000D01*
X107799064Y-96149000D02*
X106344936Y-96149000D01*
%TO.C,R20*%
X94594000Y-86325064D02*
X94594000Y-84870936D01*
X96414000Y-86325064D02*
X96414000Y-84870936D01*
%TO.C,C5*%
X130150063Y-85471348D02*
X130150063Y-86893852D01*
X131970063Y-85471348D02*
X131970063Y-86893852D01*
%TO.C,R6*%
X133740536Y-60862800D02*
X135194664Y-60862800D01*
X133740536Y-62682800D02*
X135194664Y-62682800D01*
%TO.C,J1*%
X94738080Y-41254800D02*
X95788080Y-41254800D01*
X94738080Y-44674800D02*
X94738080Y-41254800D01*
X95788080Y-35054800D02*
X105728080Y-35054800D01*
X95788080Y-41254800D02*
X95788080Y-35054800D01*
X95978080Y-33554800D02*
X95978080Y-35054800D01*
X97618080Y-33554800D02*
X95978080Y-33554800D01*
X97618080Y-35054800D02*
X97618080Y-33554800D01*
X99938080Y-33554800D02*
X99938080Y-35054800D01*
X101578080Y-33554800D02*
X99938080Y-33554800D01*
X101578080Y-35054800D02*
X101578080Y-33554800D01*
X103898080Y-33554800D02*
X103898080Y-35054800D01*
X104718080Y-50174800D02*
X106328080Y-50174800D01*
X105538080Y-33554800D02*
X103898080Y-33554800D01*
X105538080Y-35054800D02*
X105538080Y-33554800D01*
X105728080Y-35054800D02*
X105728080Y-41254800D01*
X105728080Y-41254800D02*
X106778080Y-41254800D01*
X106328080Y-50174800D02*
X106328080Y-48564800D01*
X106778080Y-41254800D02*
X106778080Y-44674800D01*
X106778080Y-44674800D02*
X94738080Y-44674800D01*
%TO.C,J7*%
X79935200Y-54300400D02*
X79935200Y-55940400D01*
X79935200Y-55940400D02*
X81435200Y-55940400D01*
X79935200Y-58260400D02*
X79935200Y-59900400D01*
X79935200Y-59900400D02*
X81435200Y-59900400D01*
X79935200Y-62220400D02*
X79935200Y-63860400D01*
X79935200Y-63860400D02*
X81435200Y-63860400D01*
X79935200Y-66180400D02*
X79935200Y-67820400D01*
X79935200Y-67820400D02*
X81435200Y-67820400D01*
X79935200Y-70140400D02*
X79935200Y-71780400D01*
X79935200Y-71780400D02*
X81435200Y-71780400D01*
X79935200Y-74100400D02*
X79935200Y-75740400D01*
X79935200Y-75740400D02*
X81435200Y-75740400D01*
X79935200Y-78060400D02*
X79935200Y-79700400D01*
X79935200Y-79700400D02*
X81435200Y-79700400D01*
X81435200Y-54110400D02*
X87635200Y-54110400D01*
X81435200Y-54300400D02*
X79935200Y-54300400D01*
X81435200Y-58260400D02*
X79935200Y-58260400D01*
X81435200Y-62220400D02*
X79935200Y-62220400D01*
X81435200Y-66180400D02*
X79935200Y-66180400D01*
X81435200Y-70140400D02*
X79935200Y-70140400D01*
X81435200Y-74100400D02*
X79935200Y-74100400D01*
X81435200Y-78060400D02*
X79935200Y-78060400D01*
X81435200Y-79890400D02*
X81435200Y-54110400D01*
X87635200Y-53060400D02*
X91055200Y-53060400D01*
X87635200Y-54110400D02*
X87635200Y-53060400D01*
X87635200Y-79890400D02*
X81435200Y-79890400D01*
X87635200Y-80940400D02*
X87635200Y-79890400D01*
X91055200Y-53060400D02*
X91055200Y-80940400D01*
X91055200Y-80940400D02*
X87635200Y-80940400D01*
X96555200Y-53510400D02*
X94945200Y-53510400D01*
X96555200Y-55120400D02*
X96555200Y-53510400D01*
%TO.C,D2*%
X92483000Y-84036000D02*
X92483000Y-86496000D01*
X92483000Y-86496000D02*
X93953000Y-86496000D01*
X93953000Y-86496000D02*
X93953000Y-84036000D01*
%TO.C,J10*%
X140205000Y-88594000D02*
X140205000Y-90204000D01*
X140205000Y-90204000D02*
X141815000Y-90204000D01*
X145705000Y-82574000D02*
X149125000Y-82574000D01*
X145705000Y-90654000D02*
X145705000Y-82574000D01*
X149125000Y-82574000D02*
X149125000Y-83624000D01*
X149125000Y-83624000D02*
X155325000Y-83624000D01*
X149125000Y-89604000D02*
X149125000Y-90654000D01*
X149125000Y-90654000D02*
X145705000Y-90654000D01*
X155325000Y-83624000D02*
X155325000Y-89604000D01*
X155325000Y-85454000D02*
X156825000Y-85454000D01*
X155325000Y-89414000D02*
X156825000Y-89414000D01*
X155325000Y-89604000D02*
X149125000Y-89604000D01*
X156825000Y-83814000D02*
X155325000Y-83814000D01*
X156825000Y-85454000D02*
X156825000Y-83814000D01*
X156825000Y-87774000D02*
X155325000Y-87774000D01*
X156825000Y-89414000D02*
X156825000Y-87774000D01*
%TO.C,D1*%
X93290000Y-105315000D02*
X93290000Y-106785000D01*
X93290000Y-106785000D02*
X95750000Y-106785000D01*
X95750000Y-105315000D02*
X93290000Y-105315000D01*
%TO.C,R1*%
X140522936Y-99674000D02*
X141977064Y-99674000D01*
X140522936Y-101494000D02*
X141977064Y-101494000D01*
%TO.C,R4*%
X126025600Y-73968936D02*
X126025600Y-75423064D01*
X127845600Y-73968936D02*
X127845600Y-75423064D01*
%TO.C,R3*%
X106322936Y-96829000D02*
X107777064Y-96829000D01*
X106322936Y-98649000D02*
X107777064Y-98649000D01*
D10*
%TO.C,D9*%
X136961000Y-67310000D02*
G75*
G02*
X136861000Y-67310000I-50000J0D01*
G01*
X136861000Y-67310000D02*
G75*
G02*
X136961000Y-67310000I50000J0D01*
G01*
D14*
%TO.C,R16*%
X106322936Y-89329000D02*
X107777064Y-89329000D01*
X106322936Y-91149000D02*
X107777064Y-91149000D01*
%TO.C,R8*%
X129016136Y-55579600D02*
X130470264Y-55579600D01*
X129016136Y-57399600D02*
X130470264Y-57399600D01*
%TO.C,U4*%
X96462000Y-91749000D02*
X97187000Y-91749000D01*
X96462000Y-92474000D02*
X96462000Y-91749000D01*
X96462000Y-96969000D02*
X96462000Y-96244000D01*
X97187000Y-96969000D02*
X96462000Y-96969000D01*
X100957000Y-91749000D02*
X101682000Y-91749000D01*
X101682000Y-91749000D02*
X101682000Y-92474000D01*
X101682000Y-96244000D02*
X101682000Y-96969000D01*
X101682000Y-96969000D02*
X100957000Y-96969000D01*
X95962000Y-92859000D02*
X95632000Y-93099000D01*
X95632000Y-92619000D01*
X95962000Y-92859000D01*
G36*
X95962000Y-92859000D02*
G01*
X95632000Y-93099000D01*
X95632000Y-92619000D01*
X95962000Y-92859000D01*
G37*
%TO.C,C4*%
X131220800Y-75450352D02*
X131220800Y-74027848D01*
X133040800Y-75450352D02*
X133040800Y-74027848D01*
%TO.C,R5*%
X128613200Y-73968936D02*
X128613200Y-75423064D01*
X130433200Y-73968936D02*
X130433200Y-75423064D01*
%TO.C,J9*%
X84390000Y-90437000D02*
X86095000Y-90437000D01*
X84390000Y-99597000D02*
X84390000Y-90437000D01*
X86095000Y-99597000D02*
X84390000Y-99597000D01*
X88105000Y-99597000D02*
X90025000Y-99597000D01*
X90025000Y-90437000D02*
X88105000Y-90437000D01*
%TO.C,R12*%
X96880000Y-88129064D02*
X96880000Y-86674936D01*
X98700000Y-88129064D02*
X98700000Y-86674936D01*
%TD*%
M02*
