M48
; DRILL file {KiCad 9.0.7} date 2026-03-13T11:40:46-0400
; FORMAT={-:-/ absolute / metric / decimal}
; #@! TF.CreationDate,2026-03-13T11:40:46-04:00
; #@! TF.GenerationSoftware,Kicad,Pcbnew,9.0.7
; #@! TF.FileFunction,Plated,1,2,PTH
FMAT,2
METRIC
; #@! TA.AperFunction,Plated,PTH,ViaDrill
T1C0.400
; #@! TA.AperFunction,Plated,PTH,ComponentDrill
T2C0.560
; #@! TA.AperFunction,Plated,PTH,ComponentDrill
T3C0.600
; #@! TA.AperFunction,Plated,PTH,ComponentDrill
T4C1.000
; #@! TA.AperFunction,Plated,PTH,ComponentDrill
T5C1.700
%
G90
G05
T1
X90.47Y-84.07
X90.47Y-85.42
X90.47Y-86.77
X90.551Y-94.8
X94.796Y-94.562
X94.858Y-95.963
X95.58Y-93.659
X97.7Y-112.48
X97.81Y-107.38
X97.98Y-99.96
X99.23Y-109.78
X100.85Y-90.425
X101.874Y-104.093
X102.616Y-88.9
X103.88Y-100.62
X105.03Y-112.725
X105.16Y-107.38
X108.33Y-58.37
X109.26Y-59.2
X109.814Y-70.29
X110.19Y-60.03
X110.34Y-56.3
X110.47Y-93.47
X110.49Y-90.678
X110.744Y-71.12
X111.27Y-57.13
X111.674Y-71.95
X111.76Y-77.216
X111.76Y-87.884
X112.2Y-57.96
X112.649Y-78.232
X113.538Y-79.248
X114.808Y-88.646
X115.4Y-95.6
X115.4Y-96.95
X115.4Y-98.3
X116.21Y-113.12
X116.587Y-99.488
X118.11Y-110.7
X118.136Y-112.5
X118.211Y-103.899
X118.532Y-107.268
X121.35Y-111.672
X121.98Y-90.76
X122.38Y-105.27
X123.3Y-95.5
X123.3Y-96.85
X123.3Y-98.2
X125.222Y-80.264
X126.2Y-104.63
X126.29Y-59.64
X126.29Y-60.99
X126.29Y-62.34
X126.695Y-77.826
X127.91Y-101.502
X128.49Y-51.37
X128.49Y-52.72
X128.49Y-54.07
X128.95Y-86.03
X129.388Y-77.673
X129.54Y-83.722
X130.14Y-109.44
X130.15Y-107.78
X130.399Y-110.922
X130.875Y-53.825
X133.54Y-102.53
X133.858Y-73.406
X133.92Y-112.34
X134.112Y-82.804
X134.25Y-52.52
X134.25Y-53.87
X134.25Y-55.22
X135.636Y-59.69
X138.96Y-87.39
X138.96Y-88.66
X138.96Y-89.93
X142.748Y-98.552
X142.77Y-68.4
X145.462Y-103.378
X146.1Y-68.43
X146.316Y-92.964
X146.812Y-103.378
X148.162Y-103.378
T2
X129.765Y-101.475
X131.035Y-101.475
T4
X103.378Y-84.938
X105.918Y-84.938
X108.458Y-84.938
X110.998Y-84.938
X113.538Y-84.938
X116.078Y-84.938
X118.618Y-84.938
X121.158Y-84.938
T5
X94.945Y-55.12
X94.945Y-59.08
X94.945Y-63.04
X94.945Y-67.0
X94.945Y-70.96
X94.945Y-74.92
X94.945Y-78.88
X96.798Y-48.565
X100.758Y-48.565
X104.718Y-48.565
X110.985Y-48.565
X114.945Y-48.565
X118.905Y-48.565
X125.171Y-48.565
X129.131Y-48.565
X135.398Y-48.565
X139.358Y-48.565
X141.732Y-56.898
X141.732Y-60.858
X141.732Y-64.818
X141.732Y-71.427
X141.732Y-75.387
X141.732Y-79.347
X141.815Y-84.634
X141.815Y-88.594
T3
X87.5Y-90.697G85X86.7Y-90.697
G05
X87.5Y-99.337G85X86.7Y-99.337
G05
X91.85Y-90.697G85X90.75Y-90.697
G05
X91.85Y-99.337G85X90.75Y-99.337
G05
M30
