G04 #@! TF.GenerationSoftware,KiCad,Pcbnew,9.0.7*
G04 #@! TF.CreationDate,2026-03-06T14:53:54-05:00*
G04 #@! TF.ProjectId,Smart_Backpack,536d6172-745f-4426-9163-6b7061636b2e,rev?*
G04 #@! TF.SameCoordinates,Original*
G04 #@! TF.FileFunction,Soldermask,Top*
G04 #@! TF.FilePolarity,Negative*
%FSLAX46Y46*%
G04 Gerber Fmt 4.6, Leading zero omitted, Abs format (unit mm)*
G04 Created by KiCad (PCBNEW 9.0.7) date 2026-03-06 14:53:54*
%MOMM*%
%LPD*%
G01*
G04 APERTURE LIST*
G04 Aperture macros list*
%AMRoundRect*
0 Rectangle with rounded corners*
0 $1 Rounding radius*
0 $2 $3 $4 $5 $6 $7 $8 $9 X,Y pos of 4 corners*
0 Add a 4 corners polygon primitive as box body*
4,1,4,$2,$3,$4,$5,$6,$7,$8,$9,$2,$3,0*
0 Add four circle primitives for the rounded corners*
1,1,$1+$1,$2,$3*
1,1,$1+$1,$4,$5*
1,1,$1+$1,$6,$7*
1,1,$1+$1,$8,$9*
0 Add four rect primitives between the rounded corners*
20,1,$1+$1,$2,$3,$4,$5,0*
20,1,$1+$1,$4,$5,$6,$7,0*
20,1,$1+$1,$6,$7,$8,$9,0*
20,1,$1+$1,$8,$9,$2,$3,0*%
%AMFreePoly0*
4,1,6,0.723900,-0.723900,-0.723900,-0.723900,-0.723900,0.114300,-0.114300,0.723900,0.723900,0.723900,0.723900,-0.723900,0.723900,-0.723900,$1*%
G04 Aperture macros list end*
%ADD10RoundRect,0.250001X1.099999X-1.099999X1.099999X1.099999X-1.099999X1.099999X-1.099999X-1.099999X0*%
%ADD11C,2.700000*%
%ADD12RoundRect,0.250000X0.625000X-0.400000X0.625000X0.400000X-0.625000X0.400000X-0.625000X-0.400000X0*%
%ADD13RoundRect,0.250000X0.400000X0.625000X-0.400000X0.625000X-0.400000X-0.625000X0.400000X-0.625000X0*%
%ADD14RoundRect,0.250000X-0.400000X-0.625000X0.400000X-0.625000X0.400000X0.625000X-0.400000X0.625000X0*%
%ADD15C,2.200000*%
%ADD16C,3.000000*%
%ADD17R,0.812800X0.406400*%
%ADD18R,0.406400X0.812800*%
%ADD19R,1.447800X1.447800*%
%ADD20R,0.711200X0.711200*%
%ADD21FreePoly0,180.000000*%
%ADD22RoundRect,0.095250X-0.222250X0.793750X-0.222250X-0.793750X0.222250X-0.793750X0.222250X0.793750X0*%
%ADD23RoundRect,0.250000X-0.650000X0.412500X-0.650000X-0.412500X0.650000X-0.412500X0.650000X0.412500X0*%
%ADD24R,0.609600X0.254000*%
%ADD25R,0.254000X0.609600*%
%ADD26R,2.743200X2.641600*%
%ADD27RoundRect,0.250001X1.099999X1.099999X-1.099999X1.099999X-1.099999X-1.099999X1.099999X-1.099999X0*%
%ADD28R,1.700000X1.700000*%
%ADD29C,1.700000*%
%ADD30RoundRect,0.250000X-0.625000X0.400000X-0.625000X-0.400000X0.625000X-0.400000X0.625000X0.400000X0*%
%ADD31RoundRect,0.250000X0.412500X0.650000X-0.412500X0.650000X-0.412500X-0.650000X0.412500X-0.650000X0*%
%ADD32RoundRect,0.250000X0.650000X-0.412500X0.650000X0.412500X-0.650000X0.412500X-0.650000X-0.412500X0*%
%ADD33RoundRect,0.062500X-0.337500X-0.062500X0.337500X-0.062500X0.337500X0.062500X-0.337500X0.062500X0*%
%ADD34RoundRect,0.062500X-0.062500X-0.337500X0.062500X-0.337500X0.062500X0.337500X-0.062500X0.337500X0*%
%ADD35R,3.350000X3.350000*%
%ADD36RoundRect,0.095250X-0.793750X-0.222250X0.793750X-0.222250X0.793750X0.222250X-0.793750X0.222250X0*%
%ADD37RoundRect,0.250001X-1.099999X1.099999X-1.099999X-1.099999X1.099999X-1.099999X1.099999X1.099999X0*%
%ADD38RoundRect,0.237500X0.237500X-0.287500X0.237500X0.287500X-0.237500X0.287500X-0.237500X-0.287500X0*%
%ADD39RoundRect,0.237500X-0.237500X0.287500X-0.237500X-0.287500X0.237500X-0.287500X0.237500X0.287500X0*%
%ADD40RoundRect,0.250000X-0.412500X-0.650000X0.412500X-0.650000X0.412500X0.650000X-0.412500X0.650000X0*%
%ADD41RoundRect,0.087500X-0.250000X-0.087500X0.250000X-0.087500X0.250000X0.087500X-0.250000X0.087500X0*%
%ADD42C,0.650000*%
%ADD43R,1.240000X0.600000*%
%ADD44R,1.240000X0.300000*%
%ADD45O,2.100000X1.000000*%
%ADD46O,1.800000X1.000000*%
%ADD47C,1.204050*%
%ADD48C,1.204450*%
G04 APERTURE END LIST*
D10*
X141732000Y-64818400D03*
D11*
X141732000Y-60858400D03*
X141732000Y-56898400D03*
D12*
X94908500Y-109992500D03*
X94908500Y-106892500D03*
D13*
X108622000Y-92739000D03*
X105522000Y-92739000D03*
D14*
X118312000Y-97282000D03*
X121412000Y-97282000D03*
D15*
X122428000Y-55197600D03*
D14*
X105500000Y-90239000D03*
X108600000Y-90239000D03*
D13*
X95430500Y-104415000D03*
X92330500Y-104415000D03*
D12*
X88449000Y-104693000D03*
X88449000Y-101593000D03*
D16*
X89814400Y-44145200D03*
D14*
X96356000Y-100351000D03*
X99456000Y-100351000D03*
D10*
X141732000Y-79347200D03*
D11*
X141732000Y-75387200D03*
X141732000Y-71427200D03*
D17*
X131930000Y-112469999D03*
X131930000Y-111669998D03*
X131930000Y-110869999D03*
X131930000Y-110069998D03*
X131930000Y-109270000D03*
X131930000Y-108469999D03*
X131930000Y-107669998D03*
X131930000Y-106870000D03*
X131930000Y-106069999D03*
X131930000Y-105270000D03*
X131930000Y-104469999D03*
D18*
X130830003Y-103569999D03*
X130030002Y-103569999D03*
X129230001Y-103569999D03*
X128430002Y-103569999D03*
X127630001Y-103569999D03*
X126830003Y-103569999D03*
X126030002Y-103569999D03*
X125230001Y-103569999D03*
X124430003Y-103569999D03*
X123630002Y-103569999D03*
X122830003Y-103569999D03*
X122030002Y-103569999D03*
X121230004Y-103569999D03*
D17*
X120130004Y-104469999D03*
X120130004Y-105270000D03*
X120130004Y-106069999D03*
X120130004Y-106870000D03*
X120130004Y-107669998D03*
X120130004Y-108469999D03*
X120130004Y-109270000D03*
X120130004Y-110069998D03*
X120130004Y-110869999D03*
X120130004Y-111669998D03*
X120130004Y-112469999D03*
D18*
X121230001Y-113369999D03*
X122030002Y-113369999D03*
X122830003Y-113369999D03*
X123630002Y-113369999D03*
X124430003Y-113369999D03*
X125230001Y-113369999D03*
X126030002Y-113369999D03*
X126830003Y-113369999D03*
X127630001Y-113369999D03*
X128430002Y-113369999D03*
X129230001Y-113369999D03*
X130030002Y-113369999D03*
X130830000Y-113369999D03*
D19*
X126030002Y-108469999D03*
D20*
X120080004Y-113419999D03*
X120080004Y-103519999D03*
X131980000Y-103519999D03*
X131980000Y-113419999D03*
D21*
X128005002Y-110444999D03*
D19*
X126030002Y-110444999D03*
X124055002Y-110444999D03*
X124055002Y-108469999D03*
X124055002Y-106494999D03*
X126030002Y-106494999D03*
X128005002Y-106494999D03*
X128005002Y-108469999D03*
D22*
X144233500Y-95875957D03*
X144243832Y-102302536D03*
X140172976Y-95824296D03*
X140172976Y-102302536D03*
D23*
X129135000Y-96687500D03*
X129135000Y-99812500D03*
D24*
X128866900Y-79623285D03*
X128866900Y-80123411D03*
X128866900Y-80623537D03*
X128866900Y-81123663D03*
X128866900Y-81623789D03*
X128866900Y-82123915D03*
D25*
X129559685Y-82816700D03*
X130059811Y-82816700D03*
X130559937Y-82816700D03*
X131060063Y-82816700D03*
X131560189Y-82816700D03*
X132060315Y-82816700D03*
D24*
X132753100Y-82123915D03*
X132753100Y-81623789D03*
X132753100Y-81123663D03*
X132753100Y-80623537D03*
X132753100Y-80123411D03*
X132753100Y-79623285D03*
D25*
X132060315Y-78930500D03*
X131560189Y-78930500D03*
X131060063Y-78930500D03*
X130559937Y-78930500D03*
X130059811Y-78930500D03*
X129559685Y-78930500D03*
D26*
X130810000Y-80873600D03*
D27*
X118904640Y-48564800D03*
D11*
X114944640Y-48564800D03*
X110984640Y-48564800D03*
D16*
X146507200Y-44145200D03*
D14*
X130555400Y-59131200D03*
X133655400Y-59131200D03*
D23*
X133600063Y-84276800D03*
X133600063Y-87401800D03*
D13*
X108622000Y-95239000D03*
X105522000Y-95239000D03*
D28*
X103378000Y-84937600D03*
D29*
X105918000Y-84937600D03*
X108458000Y-84937600D03*
X110998000Y-84937600D03*
X113538000Y-84937600D03*
X116078000Y-84937600D03*
X118618000Y-84937600D03*
X121158000Y-84937600D03*
D27*
X139357760Y-48564800D03*
D11*
X135397760Y-48564800D03*
D30*
X106580500Y-106929000D03*
X106580500Y-110029000D03*
D31*
X108612500Y-100239000D03*
X105487500Y-100239000D03*
D27*
X129131200Y-48564800D03*
D11*
X125171200Y-48564800D03*
D12*
X95504000Y-87148000D03*
X95504000Y-84048000D03*
D23*
X131060063Y-84620100D03*
X131060063Y-87745100D03*
D32*
X102703500Y-110005000D03*
X102703500Y-106880000D03*
D14*
X132917600Y-61772800D03*
X136017600Y-61772800D03*
D33*
X96622000Y-92859000D03*
X96622000Y-93359000D03*
X96622000Y-93859000D03*
X96622000Y-94359000D03*
X96622000Y-94859000D03*
X96622000Y-95359000D03*
X96622000Y-95859000D03*
D34*
X97572000Y-96809000D03*
X98072000Y-96809000D03*
X98572000Y-96809000D03*
X99072000Y-96809000D03*
X99572000Y-96809000D03*
X100072000Y-96809000D03*
X100572000Y-96809000D03*
D33*
X101522000Y-95859000D03*
X101522000Y-95359000D03*
X101522000Y-94859000D03*
X101522000Y-94359000D03*
X101522000Y-93859000D03*
X101522000Y-93359000D03*
X101522000Y-92859000D03*
D34*
X100572000Y-91909000D03*
X100072000Y-91909000D03*
X99572000Y-91909000D03*
X99072000Y-91909000D03*
X98572000Y-91909000D03*
X98072000Y-91909000D03*
X97572000Y-91909000D03*
D35*
X99072000Y-94359000D03*
D36*
X116957957Y-88900000D03*
X123384536Y-88889668D03*
X116906296Y-92960524D03*
X123384536Y-92960524D03*
D27*
X104718080Y-48564800D03*
D11*
X100758080Y-48564800D03*
X96798080Y-48564800D03*
D37*
X94945200Y-55120400D03*
D11*
X94945200Y-59080400D03*
X94945200Y-63040400D03*
X94945200Y-67000400D03*
X94945200Y-70960400D03*
X94945200Y-74920400D03*
X94945200Y-78880400D03*
D16*
X89814400Y-109524800D03*
D38*
X93218000Y-85711000D03*
X93218000Y-83961000D03*
D10*
X141815000Y-88594000D03*
D11*
X141815000Y-84634000D03*
D39*
X110300000Y-107385000D03*
X110300000Y-109135000D03*
D15*
X102108000Y-55197600D03*
D30*
X126935600Y-73146000D03*
X126935600Y-76246000D03*
D14*
X105500000Y-97739000D03*
X108600000Y-97739000D03*
D13*
X131925000Y-94502500D03*
X128825000Y-94502500D03*
D14*
X128193200Y-56489600D03*
X131293200Y-56489600D03*
D40*
X118325500Y-94742000D03*
X121450500Y-94742000D03*
D41*
X97535500Y-103915000D03*
X97535500Y-104415000D03*
X97535500Y-104915000D03*
X98960500Y-104915000D03*
X98960500Y-104415000D03*
X98960500Y-103915000D03*
D23*
X131635000Y-96687500D03*
X131635000Y-99812500D03*
D32*
X132130800Y-76301600D03*
X132130800Y-73176600D03*
D30*
X129523200Y-73146000D03*
X129523200Y-76246000D03*
D42*
X90780000Y-92127000D03*
X90780000Y-97907000D03*
D43*
X91900000Y-91817000D03*
X91900000Y-92617000D03*
D44*
X91900000Y-93767000D03*
X91900000Y-94767000D03*
X91900000Y-95267000D03*
X91900000Y-96267000D03*
D43*
X91900000Y-97417000D03*
X91900000Y-98217000D03*
X91900000Y-98217000D03*
X91900000Y-97417000D03*
D44*
X91900000Y-96767000D03*
X91900000Y-95767000D03*
X91900000Y-94267000D03*
X91900000Y-93267000D03*
D43*
X91900000Y-92617000D03*
X91900000Y-91817000D03*
D45*
X91300000Y-90697000D03*
D46*
X87100000Y-90697000D03*
D45*
X91300000Y-99337000D03*
D46*
X87100000Y-99337000D03*
D12*
X97790000Y-88952000D03*
X97790000Y-85852000D03*
D40*
X101208000Y-104415000D03*
X104333000Y-104415000D03*
D47*
X129765000Y-101475000D03*
D48*
X131035000Y-101475000D03*
M02*
