G04 #@! TF.GenerationSoftware,KiCad,Pcbnew,9.0.7*
G04 #@! TF.CreationDate,2026-03-06T14:53:54-05:00*
G04 #@! TF.ProjectId,Smart_Backpack,536d6172-745f-4426-9163-6b7061636b2e,rev?*
G04 #@! TF.SameCoordinates,Original*
G04 #@! TF.FileFunction,Legend,Top*
G04 #@! TF.FilePolarity,Positive*
%FSLAX46Y46*%
G04 Gerber Fmt 4.6, Leading zero omitted, Abs format (unit mm)*
G04 Created by KiCad (PCBNEW 9.0.7) date 2026-03-06 14:53:54*
%MOMM*%
%LPD*%
G01*
G04 APERTURE LIST*
G04 Aperture macros list*
%AMRoundRect*
0 Rectangle with rounded corners*
0 $1 Rounding radius*
0 $2 $3 $4 $5 $6 $7 $8 $9 X,Y pos of 4 corners*
0 Add a 4 corners polygon primitive as box body*
4,1,4,$2,$3,$4,$5,$6,$7,$8,$9,$2,$3,0*
0 Add four circle primitives for the rounded corners*
1,1,$1+$1,$2,$3*
1,1,$1+$1,$4,$5*
1,1,$1+$1,$6,$7*
1,1,$1+$1,$8,$9*
0 Add four rect primitives between the rounded corners*
20,1,$1+$1,$2,$3,$4,$5,0*
20,1,$1+$1,$4,$5,$6,$7,0*
20,1,$1+$1,$6,$7,$8,$9,0*
20,1,$1+$1,$8,$9,$2,$3,0*%
%AMFreePoly0*
4,1,6,0.723900,-0.723900,-0.723900,-0.723900,-0.723900,0.114300,-0.114300,0.723900,0.723900,0.723900,0.723900,-0.723900,0.723900,-0.723900,$1*%
G04 Aperture macros list end*
%ADD10C,0.100000*%
%ADD11C,0.150000*%
%ADD12C,0.200000*%
%ADD13C,0.040000*%
%ADD14C,0.120000*%
%ADD15C,0.152400*%
%ADD16C,0.000000*%
%ADD17RoundRect,0.250001X1.099999X-1.099999X1.099999X1.099999X-1.099999X1.099999X-1.099999X-1.099999X0*%
%ADD18C,2.700000*%
%ADD19RoundRect,0.250000X0.625000X-0.400000X0.625000X0.400000X-0.625000X0.400000X-0.625000X-0.400000X0*%
%ADD20RoundRect,0.250000X0.400000X0.625000X-0.400000X0.625000X-0.400000X-0.625000X0.400000X-0.625000X0*%
%ADD21RoundRect,0.250000X-0.400000X-0.625000X0.400000X-0.625000X0.400000X0.625000X-0.400000X0.625000X0*%
%ADD22C,2.200000*%
%ADD23C,3.000000*%
%ADD24R,0.812800X0.406400*%
%ADD25R,0.406400X0.812800*%
%ADD26R,1.447800X1.447800*%
%ADD27R,0.711200X0.711200*%
%ADD28FreePoly0,180.000000*%
%ADD29RoundRect,0.095250X-0.222250X0.793750X-0.222250X-0.793750X0.222250X-0.793750X0.222250X0.793750X0*%
%ADD30RoundRect,0.250000X-0.650000X0.412500X-0.650000X-0.412500X0.650000X-0.412500X0.650000X0.412500X0*%
%ADD31R,0.609600X0.254000*%
%ADD32R,0.254000X0.609600*%
%ADD33R,2.743200X2.641600*%
%ADD34RoundRect,0.250001X1.099999X1.099999X-1.099999X1.099999X-1.099999X-1.099999X1.099999X-1.099999X0*%
%ADD35R,1.700000X1.700000*%
%ADD36C,1.700000*%
%ADD37RoundRect,0.250000X-0.625000X0.400000X-0.625000X-0.400000X0.625000X-0.400000X0.625000X0.400000X0*%
%ADD38RoundRect,0.250000X0.412500X0.650000X-0.412500X0.650000X-0.412500X-0.650000X0.412500X-0.650000X0*%
%ADD39RoundRect,0.250000X0.650000X-0.412500X0.650000X0.412500X-0.650000X0.412500X-0.650000X-0.412500X0*%
%ADD40RoundRect,0.062500X-0.337500X-0.062500X0.337500X-0.062500X0.337500X0.062500X-0.337500X0.062500X0*%
%ADD41RoundRect,0.062500X-0.062500X-0.337500X0.062500X-0.337500X0.062500X0.337500X-0.062500X0.337500X0*%
%ADD42R,3.350000X3.350000*%
%ADD43RoundRect,0.095250X-0.793750X-0.222250X0.793750X-0.222250X0.793750X0.222250X-0.793750X0.222250X0*%
%ADD44RoundRect,0.250001X-1.099999X1.099999X-1.099999X-1.099999X1.099999X-1.099999X1.099999X1.099999X0*%
%ADD45RoundRect,0.237500X0.237500X-0.287500X0.237500X0.287500X-0.237500X0.287500X-0.237500X-0.287500X0*%
%ADD46RoundRect,0.237500X-0.237500X0.287500X-0.237500X-0.287500X0.237500X-0.287500X0.237500X0.287500X0*%
%ADD47RoundRect,0.250000X-0.412500X-0.650000X0.412500X-0.650000X0.412500X0.650000X-0.412500X0.650000X0*%
%ADD48RoundRect,0.087500X-0.250000X-0.087500X0.250000X-0.087500X0.250000X0.087500X-0.250000X0.087500X0*%
%ADD49C,0.650000*%
%ADD50R,1.240000X0.600000*%
%ADD51R,1.240000X0.300000*%
%ADD52O,2.100000X1.000000*%
%ADD53O,1.800000X1.000000*%
%ADD54C,1.204050*%
%ADD55C,1.204450*%
G04 APERTURE END LIST*
D10*
X99568000Y-52606800D02*
X124968000Y-52606800D01*
X124968000Y-86642800D01*
X99568000Y-86642800D01*
X99568000Y-52606800D01*
D11*
X109946779Y-110438866D02*
X110708684Y-110438866D01*
X110327731Y-110819819D02*
X110327731Y-110057914D01*
D12*
X112964019Y-110723564D02*
X112964019Y-110104517D01*
X112964019Y-110104517D02*
X113344971Y-110437850D01*
X113344971Y-110437850D02*
X113344971Y-110294993D01*
X113344971Y-110294993D02*
X113392590Y-110199755D01*
X113392590Y-110199755D02*
X113440209Y-110152136D01*
X113440209Y-110152136D02*
X113535447Y-110104517D01*
X113535447Y-110104517D02*
X113773542Y-110104517D01*
X113773542Y-110104517D02*
X113868780Y-110152136D01*
X113868780Y-110152136D02*
X113916400Y-110199755D01*
X113916400Y-110199755D02*
X113964019Y-110294993D01*
X113964019Y-110294993D02*
X113964019Y-110580707D01*
X113964019Y-110580707D02*
X113916400Y-110675945D01*
X113916400Y-110675945D02*
X113868780Y-110723564D01*
X113868780Y-109675945D02*
X113916400Y-109628326D01*
X113916400Y-109628326D02*
X113964019Y-109675945D01*
X113964019Y-109675945D02*
X113916400Y-109723564D01*
X113916400Y-109723564D02*
X113868780Y-109675945D01*
X113868780Y-109675945D02*
X113964019Y-109675945D01*
X112964019Y-109294993D02*
X112964019Y-108675946D01*
X112964019Y-108675946D02*
X113344971Y-109009279D01*
X113344971Y-109009279D02*
X113344971Y-108866422D01*
X113344971Y-108866422D02*
X113392590Y-108771184D01*
X113392590Y-108771184D02*
X113440209Y-108723565D01*
X113440209Y-108723565D02*
X113535447Y-108675946D01*
X113535447Y-108675946D02*
X113773542Y-108675946D01*
X113773542Y-108675946D02*
X113868780Y-108723565D01*
X113868780Y-108723565D02*
X113916400Y-108771184D01*
X113916400Y-108771184D02*
X113964019Y-108866422D01*
X113964019Y-108866422D02*
X113964019Y-109152136D01*
X113964019Y-109152136D02*
X113916400Y-109247374D01*
X113916400Y-109247374D02*
X113868780Y-109294993D01*
X112964019Y-108390231D02*
X113964019Y-108056898D01*
X113964019Y-108056898D02*
X112964019Y-107723565D01*
X113964019Y-106152136D02*
X113964019Y-106628326D01*
X113964019Y-106628326D02*
X112964019Y-106628326D01*
X113440209Y-105818802D02*
X113440209Y-105485469D01*
X113964019Y-105342612D02*
X113964019Y-105818802D01*
X113964019Y-105818802D02*
X112964019Y-105818802D01*
X112964019Y-105818802D02*
X112964019Y-105342612D01*
X113964019Y-104914040D02*
X112964019Y-104914040D01*
X112964019Y-104914040D02*
X112964019Y-104675945D01*
X112964019Y-104675945D02*
X113011638Y-104533088D01*
X113011638Y-104533088D02*
X113106876Y-104437850D01*
X113106876Y-104437850D02*
X113202114Y-104390231D01*
X113202114Y-104390231D02*
X113392590Y-104342612D01*
X113392590Y-104342612D02*
X113535447Y-104342612D01*
X113535447Y-104342612D02*
X113725923Y-104390231D01*
X113725923Y-104390231D02*
X113821161Y-104437850D01*
X113821161Y-104437850D02*
X113916400Y-104533088D01*
X113916400Y-104533088D02*
X113964019Y-104675945D01*
X113964019Y-104675945D02*
X113964019Y-104914040D01*
D13*
X102362886Y-89519465D02*
X102229553Y-89519465D01*
X102229553Y-89728989D02*
X102229553Y-89328989D01*
X102229553Y-89328989D02*
X102420029Y-89328989D01*
X102629552Y-89728989D02*
X102591457Y-89709942D01*
X102591457Y-89709942D02*
X102572410Y-89671846D01*
X102572410Y-89671846D02*
X102572410Y-89328989D01*
X102953362Y-89728989D02*
X102953362Y-89519465D01*
X102953362Y-89519465D02*
X102934315Y-89481370D01*
X102934315Y-89481370D02*
X102896219Y-89462322D01*
X102896219Y-89462322D02*
X102820029Y-89462322D01*
X102820029Y-89462322D02*
X102781934Y-89481370D01*
X102953362Y-89709942D02*
X102915267Y-89728989D01*
X102915267Y-89728989D02*
X102820029Y-89728989D01*
X102820029Y-89728989D02*
X102781934Y-89709942D01*
X102781934Y-89709942D02*
X102762886Y-89671846D01*
X102762886Y-89671846D02*
X102762886Y-89633751D01*
X102762886Y-89633751D02*
X102781934Y-89595656D01*
X102781934Y-89595656D02*
X102820029Y-89576608D01*
X102820029Y-89576608D02*
X102915267Y-89576608D01*
X102915267Y-89576608D02*
X102953362Y-89557561D01*
X103124791Y-89709942D02*
X103162886Y-89728989D01*
X103162886Y-89728989D02*
X103239077Y-89728989D01*
X103239077Y-89728989D02*
X103277172Y-89709942D01*
X103277172Y-89709942D02*
X103296220Y-89671846D01*
X103296220Y-89671846D02*
X103296220Y-89652799D01*
X103296220Y-89652799D02*
X103277172Y-89614703D01*
X103277172Y-89614703D02*
X103239077Y-89595656D01*
X103239077Y-89595656D02*
X103181934Y-89595656D01*
X103181934Y-89595656D02*
X103143839Y-89576608D01*
X103143839Y-89576608D02*
X103124791Y-89538513D01*
X103124791Y-89538513D02*
X103124791Y-89519465D01*
X103124791Y-89519465D02*
X103143839Y-89481370D01*
X103143839Y-89481370D02*
X103181934Y-89462322D01*
X103181934Y-89462322D02*
X103239077Y-89462322D01*
X103239077Y-89462322D02*
X103277172Y-89481370D01*
X103467649Y-89728989D02*
X103467649Y-89328989D01*
X103639077Y-89728989D02*
X103639077Y-89519465D01*
X103639077Y-89519465D02*
X103620030Y-89481370D01*
X103620030Y-89481370D02*
X103581934Y-89462322D01*
X103581934Y-89462322D02*
X103524791Y-89462322D01*
X103524791Y-89462322D02*
X103486696Y-89481370D01*
X103486696Y-89481370D02*
X103467649Y-89500418D01*
X102762886Y-90372967D02*
X102629553Y-90182491D01*
X102534315Y-90372967D02*
X102534315Y-89972967D01*
X102534315Y-89972967D02*
X102686696Y-89972967D01*
X102686696Y-89972967D02*
X102724791Y-89992015D01*
X102724791Y-89992015D02*
X102743838Y-90011062D01*
X102743838Y-90011062D02*
X102762886Y-90049158D01*
X102762886Y-90049158D02*
X102762886Y-90106300D01*
X102762886Y-90106300D02*
X102743838Y-90144396D01*
X102743838Y-90144396D02*
X102724791Y-90163443D01*
X102724791Y-90163443D02*
X102686696Y-90182491D01*
X102686696Y-90182491D02*
X102534315Y-90182491D01*
X102896219Y-89972967D02*
X103162886Y-90372967D01*
X103162886Y-89972967D02*
X102896219Y-90372967D01*
X116453553Y-110902967D02*
X116453553Y-110502967D01*
X116720219Y-110502967D02*
X116796410Y-110502967D01*
X116796410Y-110502967D02*
X116834505Y-110522015D01*
X116834505Y-110522015D02*
X116872600Y-110560110D01*
X116872600Y-110560110D02*
X116891648Y-110636300D01*
X116891648Y-110636300D02*
X116891648Y-110769634D01*
X116891648Y-110769634D02*
X116872600Y-110845824D01*
X116872600Y-110845824D02*
X116834505Y-110883920D01*
X116834505Y-110883920D02*
X116796410Y-110902967D01*
X116796410Y-110902967D02*
X116720219Y-110902967D01*
X116720219Y-110902967D02*
X116682124Y-110883920D01*
X116682124Y-110883920D02*
X116644029Y-110845824D01*
X116644029Y-110845824D02*
X116624981Y-110769634D01*
X116624981Y-110769634D02*
X116624981Y-110636300D01*
X116624981Y-110636300D02*
X116644029Y-110560110D01*
X116644029Y-110560110D02*
X116682124Y-110522015D01*
X116682124Y-110522015D02*
X116720219Y-110502967D01*
X117272600Y-110902967D02*
X117044029Y-110902967D01*
X117158315Y-110902967D02*
X117158315Y-110502967D01*
X117158315Y-110502967D02*
X117120219Y-110560110D01*
X117120219Y-110560110D02*
X117082124Y-110598205D01*
X117082124Y-110598205D02*
X117044029Y-110617253D01*
X117463076Y-110902967D02*
X117539267Y-110902967D01*
X117539267Y-110902967D02*
X117577362Y-110883920D01*
X117577362Y-110883920D02*
X117596410Y-110864872D01*
X117596410Y-110864872D02*
X117634505Y-110807729D01*
X117634505Y-110807729D02*
X117653552Y-110731539D01*
X117653552Y-110731539D02*
X117653552Y-110579158D01*
X117653552Y-110579158D02*
X117634505Y-110541062D01*
X117634505Y-110541062D02*
X117615457Y-110522015D01*
X117615457Y-110522015D02*
X117577362Y-110502967D01*
X117577362Y-110502967D02*
X117501171Y-110502967D01*
X117501171Y-110502967D02*
X117463076Y-110522015D01*
X117463076Y-110522015D02*
X117444029Y-110541062D01*
X117444029Y-110541062D02*
X117424981Y-110579158D01*
X117424981Y-110579158D02*
X117424981Y-110674396D01*
X117424981Y-110674396D02*
X117444029Y-110712491D01*
X117444029Y-110712491D02*
X117463076Y-110731539D01*
X117463076Y-110731539D02*
X117501171Y-110750586D01*
X117501171Y-110750586D02*
X117577362Y-110750586D01*
X117577362Y-110750586D02*
X117615457Y-110731539D01*
X117615457Y-110731539D02*
X117634505Y-110712491D01*
X117634505Y-110712491D02*
X117653552Y-110674396D01*
D11*
X103973922Y-61749987D02*
X104545350Y-61749987D01*
X104259636Y-62749987D02*
X104259636Y-61749987D01*
X104878684Y-62749987D02*
X104878684Y-61749987D01*
X105307255Y-62749987D02*
X105307255Y-62226177D01*
X105307255Y-62226177D02*
X105259636Y-62130939D01*
X105259636Y-62130939D02*
X105164398Y-62083320D01*
X105164398Y-62083320D02*
X105021541Y-62083320D01*
X105021541Y-62083320D02*
X104926303Y-62130939D01*
X104926303Y-62130939D02*
X104878684Y-62178558D01*
X105783446Y-62749987D02*
X105783446Y-62083320D01*
X105783446Y-61749987D02*
X105735827Y-61797606D01*
X105735827Y-61797606D02*
X105783446Y-61845225D01*
X105783446Y-61845225D02*
X105831065Y-61797606D01*
X105831065Y-61797606D02*
X105783446Y-61749987D01*
X105783446Y-61749987D02*
X105783446Y-61845225D01*
X106212017Y-62702368D02*
X106307255Y-62749987D01*
X106307255Y-62749987D02*
X106497731Y-62749987D01*
X106497731Y-62749987D02*
X106592969Y-62702368D01*
X106592969Y-62702368D02*
X106640588Y-62607129D01*
X106640588Y-62607129D02*
X106640588Y-62559510D01*
X106640588Y-62559510D02*
X106592969Y-62464272D01*
X106592969Y-62464272D02*
X106497731Y-62416653D01*
X106497731Y-62416653D02*
X106354874Y-62416653D01*
X106354874Y-62416653D02*
X106259636Y-62369034D01*
X106259636Y-62369034D02*
X106212017Y-62273796D01*
X106212017Y-62273796D02*
X106212017Y-62226177D01*
X106212017Y-62226177D02*
X106259636Y-62130939D01*
X106259636Y-62130939D02*
X106354874Y-62083320D01*
X106354874Y-62083320D02*
X106497731Y-62083320D01*
X106497731Y-62083320D02*
X106592969Y-62130939D01*
X108354874Y-61797606D02*
X108259636Y-61749987D01*
X108259636Y-61749987D02*
X108116779Y-61749987D01*
X108116779Y-61749987D02*
X107973922Y-61797606D01*
X107973922Y-61797606D02*
X107878684Y-61892844D01*
X107878684Y-61892844D02*
X107831065Y-61988082D01*
X107831065Y-61988082D02*
X107783446Y-62178558D01*
X107783446Y-62178558D02*
X107783446Y-62321415D01*
X107783446Y-62321415D02*
X107831065Y-62511891D01*
X107831065Y-62511891D02*
X107878684Y-62607129D01*
X107878684Y-62607129D02*
X107973922Y-62702368D01*
X107973922Y-62702368D02*
X108116779Y-62749987D01*
X108116779Y-62749987D02*
X108212017Y-62749987D01*
X108212017Y-62749987D02*
X108354874Y-62702368D01*
X108354874Y-62702368D02*
X108402493Y-62654748D01*
X108402493Y-62654748D02*
X108402493Y-62321415D01*
X108402493Y-62321415D02*
X108212017Y-62321415D01*
X108831065Y-62749987D02*
X108831065Y-61749987D01*
X108831065Y-61749987D02*
X109212017Y-61749987D01*
X109212017Y-61749987D02*
X109307255Y-61797606D01*
X109307255Y-61797606D02*
X109354874Y-61845225D01*
X109354874Y-61845225D02*
X109402493Y-61940463D01*
X109402493Y-61940463D02*
X109402493Y-62083320D01*
X109402493Y-62083320D02*
X109354874Y-62178558D01*
X109354874Y-62178558D02*
X109307255Y-62226177D01*
X109307255Y-62226177D02*
X109212017Y-62273796D01*
X109212017Y-62273796D02*
X108831065Y-62273796D01*
X109783446Y-62702368D02*
X109926303Y-62749987D01*
X109926303Y-62749987D02*
X110164398Y-62749987D01*
X110164398Y-62749987D02*
X110259636Y-62702368D01*
X110259636Y-62702368D02*
X110307255Y-62654748D01*
X110307255Y-62654748D02*
X110354874Y-62559510D01*
X110354874Y-62559510D02*
X110354874Y-62464272D01*
X110354874Y-62464272D02*
X110307255Y-62369034D01*
X110307255Y-62369034D02*
X110259636Y-62321415D01*
X110259636Y-62321415D02*
X110164398Y-62273796D01*
X110164398Y-62273796D02*
X109973922Y-62226177D01*
X109973922Y-62226177D02*
X109878684Y-62178558D01*
X109878684Y-62178558D02*
X109831065Y-62130939D01*
X109831065Y-62130939D02*
X109783446Y-62035701D01*
X109783446Y-62035701D02*
X109783446Y-61940463D01*
X109783446Y-61940463D02*
X109831065Y-61845225D01*
X109831065Y-61845225D02*
X109878684Y-61797606D01*
X109878684Y-61797606D02*
X109973922Y-61749987D01*
X109973922Y-61749987D02*
X110212017Y-61749987D01*
X110212017Y-61749987D02*
X110354874Y-61797606D01*
X111450113Y-62083320D02*
X111640589Y-62749987D01*
X111640589Y-62749987D02*
X111831065Y-62273796D01*
X111831065Y-62273796D02*
X112021541Y-62749987D01*
X112021541Y-62749987D02*
X112212017Y-62083320D01*
X112735827Y-62749987D02*
X112640589Y-62702368D01*
X112640589Y-62702368D02*
X112592970Y-62654748D01*
X112592970Y-62654748D02*
X112545351Y-62559510D01*
X112545351Y-62559510D02*
X112545351Y-62273796D01*
X112545351Y-62273796D02*
X112592970Y-62178558D01*
X112592970Y-62178558D02*
X112640589Y-62130939D01*
X112640589Y-62130939D02*
X112735827Y-62083320D01*
X112735827Y-62083320D02*
X112878684Y-62083320D01*
X112878684Y-62083320D02*
X112973922Y-62130939D01*
X112973922Y-62130939D02*
X113021541Y-62178558D01*
X113021541Y-62178558D02*
X113069160Y-62273796D01*
X113069160Y-62273796D02*
X113069160Y-62559510D01*
X113069160Y-62559510D02*
X113021541Y-62654748D01*
X113021541Y-62654748D02*
X112973922Y-62702368D01*
X112973922Y-62702368D02*
X112878684Y-62749987D01*
X112878684Y-62749987D02*
X112735827Y-62749987D01*
X113497732Y-62749987D02*
X113497732Y-62083320D01*
X113497732Y-62273796D02*
X113545351Y-62178558D01*
X113545351Y-62178558D02*
X113592970Y-62130939D01*
X113592970Y-62130939D02*
X113688208Y-62083320D01*
X113688208Y-62083320D02*
X113783446Y-62083320D01*
X114116780Y-62749987D02*
X114116780Y-61749987D01*
X114212018Y-62369034D02*
X114497732Y-62749987D01*
X114497732Y-62083320D02*
X114116780Y-62464272D01*
X114878685Y-62702368D02*
X114973923Y-62749987D01*
X114973923Y-62749987D02*
X115164399Y-62749987D01*
X115164399Y-62749987D02*
X115259637Y-62702368D01*
X115259637Y-62702368D02*
X115307256Y-62607129D01*
X115307256Y-62607129D02*
X115307256Y-62559510D01*
X115307256Y-62559510D02*
X115259637Y-62464272D01*
X115259637Y-62464272D02*
X115164399Y-62416653D01*
X115164399Y-62416653D02*
X115021542Y-62416653D01*
X115021542Y-62416653D02*
X114926304Y-62369034D01*
X114926304Y-62369034D02*
X114878685Y-62273796D01*
X114878685Y-62273796D02*
X114878685Y-62226177D01*
X114878685Y-62226177D02*
X114926304Y-62130939D01*
X114926304Y-62130939D02*
X115021542Y-62083320D01*
X115021542Y-62083320D02*
X115164399Y-62083320D01*
X115164399Y-62083320D02*
X115259637Y-62130939D01*
X116497733Y-62749987D02*
X116497733Y-61749987D01*
X116497733Y-62130939D02*
X116592971Y-62083320D01*
X116592971Y-62083320D02*
X116783447Y-62083320D01*
X116783447Y-62083320D02*
X116878685Y-62130939D01*
X116878685Y-62130939D02*
X116926304Y-62178558D01*
X116926304Y-62178558D02*
X116973923Y-62273796D01*
X116973923Y-62273796D02*
X116973923Y-62559510D01*
X116973923Y-62559510D02*
X116926304Y-62654748D01*
X116926304Y-62654748D02*
X116878685Y-62702368D01*
X116878685Y-62702368D02*
X116783447Y-62749987D01*
X116783447Y-62749987D02*
X116592971Y-62749987D01*
X116592971Y-62749987D02*
X116497733Y-62702368D01*
X117307257Y-62083320D02*
X117545352Y-62749987D01*
X117783447Y-62083320D02*
X117545352Y-62749987D01*
X117545352Y-62749987D02*
X117450114Y-62988082D01*
X117450114Y-62988082D02*
X117402495Y-63035701D01*
X117402495Y-63035701D02*
X117307257Y-63083320D01*
X104116779Y-64359931D02*
X104116779Y-63693264D01*
X104116779Y-63788502D02*
X104164398Y-63740883D01*
X104164398Y-63740883D02*
X104259636Y-63693264D01*
X104259636Y-63693264D02*
X104402493Y-63693264D01*
X104402493Y-63693264D02*
X104497731Y-63740883D01*
X104497731Y-63740883D02*
X104545350Y-63836121D01*
X104545350Y-63836121D02*
X104545350Y-64359931D01*
X104545350Y-63836121D02*
X104592969Y-63740883D01*
X104592969Y-63740883D02*
X104688207Y-63693264D01*
X104688207Y-63693264D02*
X104831064Y-63693264D01*
X104831064Y-63693264D02*
X104926303Y-63740883D01*
X104926303Y-63740883D02*
X104973922Y-63836121D01*
X104973922Y-63836121D02*
X104973922Y-64359931D01*
X105831064Y-64312312D02*
X105735826Y-64359931D01*
X105735826Y-64359931D02*
X105545350Y-64359931D01*
X105545350Y-64359931D02*
X105450112Y-64312312D01*
X105450112Y-64312312D02*
X105402493Y-64217073D01*
X105402493Y-64217073D02*
X105402493Y-63836121D01*
X105402493Y-63836121D02*
X105450112Y-63740883D01*
X105450112Y-63740883D02*
X105545350Y-63693264D01*
X105545350Y-63693264D02*
X105735826Y-63693264D01*
X105735826Y-63693264D02*
X105831064Y-63740883D01*
X105831064Y-63740883D02*
X105878683Y-63836121D01*
X105878683Y-63836121D02*
X105878683Y-63931359D01*
X105878683Y-63931359D02*
X105402493Y-64026597D01*
X106307255Y-64359931D02*
X106307255Y-63693264D01*
X106307255Y-63788502D02*
X106354874Y-63740883D01*
X106354874Y-63740883D02*
X106450112Y-63693264D01*
X106450112Y-63693264D02*
X106592969Y-63693264D01*
X106592969Y-63693264D02*
X106688207Y-63740883D01*
X106688207Y-63740883D02*
X106735826Y-63836121D01*
X106735826Y-63836121D02*
X106735826Y-64359931D01*
X106735826Y-63836121D02*
X106783445Y-63740883D01*
X106783445Y-63740883D02*
X106878683Y-63693264D01*
X106878683Y-63693264D02*
X107021540Y-63693264D01*
X107021540Y-63693264D02*
X107116779Y-63740883D01*
X107116779Y-63740883D02*
X107164398Y-63836121D01*
X107164398Y-63836121D02*
X107164398Y-64359931D01*
X107783445Y-64359931D02*
X107688207Y-64312312D01*
X107688207Y-64312312D02*
X107640588Y-64264692D01*
X107640588Y-64264692D02*
X107592969Y-64169454D01*
X107592969Y-64169454D02*
X107592969Y-63883740D01*
X107592969Y-63883740D02*
X107640588Y-63788502D01*
X107640588Y-63788502D02*
X107688207Y-63740883D01*
X107688207Y-63740883D02*
X107783445Y-63693264D01*
X107783445Y-63693264D02*
X107926302Y-63693264D01*
X107926302Y-63693264D02*
X108021540Y-63740883D01*
X108021540Y-63740883D02*
X108069159Y-63788502D01*
X108069159Y-63788502D02*
X108116778Y-63883740D01*
X108116778Y-63883740D02*
X108116778Y-64169454D01*
X108116778Y-64169454D02*
X108069159Y-64264692D01*
X108069159Y-64264692D02*
X108021540Y-64312312D01*
X108021540Y-64312312D02*
X107926302Y-64359931D01*
X107926302Y-64359931D02*
X107783445Y-64359931D01*
X108545350Y-64359931D02*
X108545350Y-63693264D01*
X108545350Y-63883740D02*
X108592969Y-63788502D01*
X108592969Y-63788502D02*
X108640588Y-63740883D01*
X108640588Y-63740883D02*
X108735826Y-63693264D01*
X108735826Y-63693264D02*
X108831064Y-63693264D01*
X109164398Y-64359931D02*
X109164398Y-63693264D01*
X109164398Y-63359931D02*
X109116779Y-63407550D01*
X109116779Y-63407550D02*
X109164398Y-63455169D01*
X109164398Y-63455169D02*
X109212017Y-63407550D01*
X109212017Y-63407550D02*
X109164398Y-63359931D01*
X109164398Y-63359931D02*
X109164398Y-63455169D01*
X109545350Y-63693264D02*
X110069159Y-63693264D01*
X110069159Y-63693264D02*
X109545350Y-64359931D01*
X109545350Y-64359931D02*
X110069159Y-64359931D01*
X110450112Y-64359931D02*
X110450112Y-63693264D01*
X110450112Y-63359931D02*
X110402493Y-63407550D01*
X110402493Y-63407550D02*
X110450112Y-63455169D01*
X110450112Y-63455169D02*
X110497731Y-63407550D01*
X110497731Y-63407550D02*
X110450112Y-63359931D01*
X110450112Y-63359931D02*
X110450112Y-63455169D01*
X110926302Y-63693264D02*
X110926302Y-64359931D01*
X110926302Y-63788502D02*
X110973921Y-63740883D01*
X110973921Y-63740883D02*
X111069159Y-63693264D01*
X111069159Y-63693264D02*
X111212016Y-63693264D01*
X111212016Y-63693264D02*
X111307254Y-63740883D01*
X111307254Y-63740883D02*
X111354873Y-63836121D01*
X111354873Y-63836121D02*
X111354873Y-64359931D01*
X112259635Y-63693264D02*
X112259635Y-64502788D01*
X112259635Y-64502788D02*
X112212016Y-64598026D01*
X112212016Y-64598026D02*
X112164397Y-64645645D01*
X112164397Y-64645645D02*
X112069159Y-64693264D01*
X112069159Y-64693264D02*
X111926302Y-64693264D01*
X111926302Y-64693264D02*
X111831064Y-64645645D01*
X112259635Y-64312312D02*
X112164397Y-64359931D01*
X112164397Y-64359931D02*
X111973921Y-64359931D01*
X111973921Y-64359931D02*
X111878683Y-64312312D01*
X111878683Y-64312312D02*
X111831064Y-64264692D01*
X111831064Y-64264692D02*
X111783445Y-64169454D01*
X111783445Y-64169454D02*
X111783445Y-63883740D01*
X111783445Y-63883740D02*
X111831064Y-63788502D01*
X111831064Y-63788502D02*
X111878683Y-63740883D01*
X111878683Y-63740883D02*
X111973921Y-63693264D01*
X111973921Y-63693264D02*
X112164397Y-63693264D01*
X112164397Y-63693264D02*
X112259635Y-63740883D01*
X113497731Y-64359931D02*
X113497731Y-63693264D01*
X113497731Y-63883740D02*
X113545350Y-63788502D01*
X113545350Y-63788502D02*
X113592969Y-63740883D01*
X113592969Y-63740883D02*
X113688207Y-63693264D01*
X113688207Y-63693264D02*
X113783445Y-63693264D01*
X114259636Y-64359931D02*
X114164398Y-64312312D01*
X114164398Y-64312312D02*
X114116779Y-64264692D01*
X114116779Y-64264692D02*
X114069160Y-64169454D01*
X114069160Y-64169454D02*
X114069160Y-63883740D01*
X114069160Y-63883740D02*
X114116779Y-63788502D01*
X114116779Y-63788502D02*
X114164398Y-63740883D01*
X114164398Y-63740883D02*
X114259636Y-63693264D01*
X114259636Y-63693264D02*
X114402493Y-63693264D01*
X114402493Y-63693264D02*
X114497731Y-63740883D01*
X114497731Y-63740883D02*
X114545350Y-63788502D01*
X114545350Y-63788502D02*
X114592969Y-63883740D01*
X114592969Y-63883740D02*
X114592969Y-64169454D01*
X114592969Y-64169454D02*
X114545350Y-64264692D01*
X114545350Y-64264692D02*
X114497731Y-64312312D01*
X114497731Y-64312312D02*
X114402493Y-64359931D01*
X114402493Y-64359931D02*
X114259636Y-64359931D01*
X115450112Y-64359931D02*
X115450112Y-63836121D01*
X115450112Y-63836121D02*
X115402493Y-63740883D01*
X115402493Y-63740883D02*
X115307255Y-63693264D01*
X115307255Y-63693264D02*
X115116779Y-63693264D01*
X115116779Y-63693264D02*
X115021541Y-63740883D01*
X115450112Y-64312312D02*
X115354874Y-64359931D01*
X115354874Y-64359931D02*
X115116779Y-64359931D01*
X115116779Y-64359931D02*
X115021541Y-64312312D01*
X115021541Y-64312312D02*
X114973922Y-64217073D01*
X114973922Y-64217073D02*
X114973922Y-64121835D01*
X114973922Y-64121835D02*
X115021541Y-64026597D01*
X115021541Y-64026597D02*
X115116779Y-63978978D01*
X115116779Y-63978978D02*
X115354874Y-63978978D01*
X115354874Y-63978978D02*
X115450112Y-63931359D01*
X116354874Y-64359931D02*
X116354874Y-63359931D01*
X116354874Y-64312312D02*
X116259636Y-64359931D01*
X116259636Y-64359931D02*
X116069160Y-64359931D01*
X116069160Y-64359931D02*
X115973922Y-64312312D01*
X115973922Y-64312312D02*
X115926303Y-64264692D01*
X115926303Y-64264692D02*
X115878684Y-64169454D01*
X115878684Y-64169454D02*
X115878684Y-63883740D01*
X115878684Y-63883740D02*
X115926303Y-63788502D01*
X115926303Y-63788502D02*
X115973922Y-63740883D01*
X115973922Y-63740883D02*
X116069160Y-63693264D01*
X116069160Y-63693264D02*
X116259636Y-63693264D01*
X116259636Y-63693264D02*
X116354874Y-63740883D01*
X104116779Y-65969875D02*
X104116779Y-65303208D01*
X104116779Y-64969875D02*
X104069160Y-65017494D01*
X104069160Y-65017494D02*
X104116779Y-65065113D01*
X104116779Y-65065113D02*
X104164398Y-65017494D01*
X104164398Y-65017494D02*
X104116779Y-64969875D01*
X104116779Y-64969875D02*
X104116779Y-65065113D01*
X104592969Y-65303208D02*
X104592969Y-65969875D01*
X104592969Y-65398446D02*
X104640588Y-65350827D01*
X104640588Y-65350827D02*
X104735826Y-65303208D01*
X104735826Y-65303208D02*
X104878683Y-65303208D01*
X104878683Y-65303208D02*
X104973921Y-65350827D01*
X104973921Y-65350827D02*
X105021540Y-65446065D01*
X105021540Y-65446065D02*
X105021540Y-65969875D01*
X105354874Y-65303208D02*
X105735826Y-65303208D01*
X105497731Y-65969875D02*
X105497731Y-65112732D01*
X105497731Y-65112732D02*
X105545350Y-65017494D01*
X105545350Y-65017494D02*
X105640588Y-64969875D01*
X105640588Y-64969875D02*
X105735826Y-64969875D01*
X106069160Y-65969875D02*
X106069160Y-65303208D01*
X106069160Y-65493684D02*
X106116779Y-65398446D01*
X106116779Y-65398446D02*
X106164398Y-65350827D01*
X106164398Y-65350827D02*
X106259636Y-65303208D01*
X106259636Y-65303208D02*
X106354874Y-65303208D01*
X107116779Y-65969875D02*
X107116779Y-65446065D01*
X107116779Y-65446065D02*
X107069160Y-65350827D01*
X107069160Y-65350827D02*
X106973922Y-65303208D01*
X106973922Y-65303208D02*
X106783446Y-65303208D01*
X106783446Y-65303208D02*
X106688208Y-65350827D01*
X107116779Y-65922256D02*
X107021541Y-65969875D01*
X107021541Y-65969875D02*
X106783446Y-65969875D01*
X106783446Y-65969875D02*
X106688208Y-65922256D01*
X106688208Y-65922256D02*
X106640589Y-65827017D01*
X106640589Y-65827017D02*
X106640589Y-65731779D01*
X106640589Y-65731779D02*
X106688208Y-65636541D01*
X106688208Y-65636541D02*
X106783446Y-65588922D01*
X106783446Y-65588922D02*
X107021541Y-65588922D01*
X107021541Y-65588922D02*
X107116779Y-65541303D01*
X107545351Y-65922256D02*
X107640589Y-65969875D01*
X107640589Y-65969875D02*
X107831065Y-65969875D01*
X107831065Y-65969875D02*
X107926303Y-65922256D01*
X107926303Y-65922256D02*
X107973922Y-65827017D01*
X107973922Y-65827017D02*
X107973922Y-65779398D01*
X107973922Y-65779398D02*
X107926303Y-65684160D01*
X107926303Y-65684160D02*
X107831065Y-65636541D01*
X107831065Y-65636541D02*
X107688208Y-65636541D01*
X107688208Y-65636541D02*
X107592970Y-65588922D01*
X107592970Y-65588922D02*
X107545351Y-65493684D01*
X107545351Y-65493684D02*
X107545351Y-65446065D01*
X107545351Y-65446065D02*
X107592970Y-65350827D01*
X107592970Y-65350827D02*
X107688208Y-65303208D01*
X107688208Y-65303208D02*
X107831065Y-65303208D01*
X107831065Y-65303208D02*
X107926303Y-65350827D01*
X108259637Y-65303208D02*
X108640589Y-65303208D01*
X108402494Y-64969875D02*
X108402494Y-65827017D01*
X108402494Y-65827017D02*
X108450113Y-65922256D01*
X108450113Y-65922256D02*
X108545351Y-65969875D01*
X108545351Y-65969875D02*
X108640589Y-65969875D01*
X108973923Y-65969875D02*
X108973923Y-65303208D01*
X108973923Y-65493684D02*
X109021542Y-65398446D01*
X109021542Y-65398446D02*
X109069161Y-65350827D01*
X109069161Y-65350827D02*
X109164399Y-65303208D01*
X109164399Y-65303208D02*
X109259637Y-65303208D01*
X110021542Y-65303208D02*
X110021542Y-65969875D01*
X109592971Y-65303208D02*
X109592971Y-65827017D01*
X109592971Y-65827017D02*
X109640590Y-65922256D01*
X109640590Y-65922256D02*
X109735828Y-65969875D01*
X109735828Y-65969875D02*
X109878685Y-65969875D01*
X109878685Y-65969875D02*
X109973923Y-65922256D01*
X109973923Y-65922256D02*
X110021542Y-65874636D01*
X110926304Y-65922256D02*
X110831066Y-65969875D01*
X110831066Y-65969875D02*
X110640590Y-65969875D01*
X110640590Y-65969875D02*
X110545352Y-65922256D01*
X110545352Y-65922256D02*
X110497733Y-65874636D01*
X110497733Y-65874636D02*
X110450114Y-65779398D01*
X110450114Y-65779398D02*
X110450114Y-65493684D01*
X110450114Y-65493684D02*
X110497733Y-65398446D01*
X110497733Y-65398446D02*
X110545352Y-65350827D01*
X110545352Y-65350827D02*
X110640590Y-65303208D01*
X110640590Y-65303208D02*
X110831066Y-65303208D01*
X110831066Y-65303208D02*
X110926304Y-65350827D01*
X111212019Y-65303208D02*
X111592971Y-65303208D01*
X111354876Y-64969875D02*
X111354876Y-65827017D01*
X111354876Y-65827017D02*
X111402495Y-65922256D01*
X111402495Y-65922256D02*
X111497733Y-65969875D01*
X111497733Y-65969875D02*
X111592971Y-65969875D01*
X112354876Y-65303208D02*
X112354876Y-65969875D01*
X111926305Y-65303208D02*
X111926305Y-65827017D01*
X111926305Y-65827017D02*
X111973924Y-65922256D01*
X111973924Y-65922256D02*
X112069162Y-65969875D01*
X112069162Y-65969875D02*
X112212019Y-65969875D01*
X112212019Y-65969875D02*
X112307257Y-65922256D01*
X112307257Y-65922256D02*
X112354876Y-65874636D01*
X112831067Y-65969875D02*
X112831067Y-65303208D01*
X112831067Y-65493684D02*
X112878686Y-65398446D01*
X112878686Y-65398446D02*
X112926305Y-65350827D01*
X112926305Y-65350827D02*
X113021543Y-65303208D01*
X113021543Y-65303208D02*
X113116781Y-65303208D01*
X113831067Y-65922256D02*
X113735829Y-65969875D01*
X113735829Y-65969875D02*
X113545353Y-65969875D01*
X113545353Y-65969875D02*
X113450115Y-65922256D01*
X113450115Y-65922256D02*
X113402496Y-65827017D01*
X113402496Y-65827017D02*
X113402496Y-65446065D01*
X113402496Y-65446065D02*
X113450115Y-65350827D01*
X113450115Y-65350827D02*
X113545353Y-65303208D01*
X113545353Y-65303208D02*
X113735829Y-65303208D01*
X113735829Y-65303208D02*
X113831067Y-65350827D01*
X113831067Y-65350827D02*
X113878686Y-65446065D01*
X113878686Y-65446065D02*
X113878686Y-65541303D01*
X113878686Y-65541303D02*
X113402496Y-65636541D01*
X104545350Y-67579819D02*
X104545350Y-67056009D01*
X104545350Y-67056009D02*
X104497731Y-66960771D01*
X104497731Y-66960771D02*
X104402493Y-66913152D01*
X104402493Y-66913152D02*
X104212017Y-66913152D01*
X104212017Y-66913152D02*
X104116779Y-66960771D01*
X104545350Y-67532200D02*
X104450112Y-67579819D01*
X104450112Y-67579819D02*
X104212017Y-67579819D01*
X104212017Y-67579819D02*
X104116779Y-67532200D01*
X104116779Y-67532200D02*
X104069160Y-67436961D01*
X104069160Y-67436961D02*
X104069160Y-67341723D01*
X104069160Y-67341723D02*
X104116779Y-67246485D01*
X104116779Y-67246485D02*
X104212017Y-67198866D01*
X104212017Y-67198866D02*
X104450112Y-67198866D01*
X104450112Y-67198866D02*
X104545350Y-67151247D01*
X105021541Y-66913152D02*
X105021541Y-67579819D01*
X105021541Y-67008390D02*
X105069160Y-66960771D01*
X105069160Y-66960771D02*
X105164398Y-66913152D01*
X105164398Y-66913152D02*
X105307255Y-66913152D01*
X105307255Y-66913152D02*
X105402493Y-66960771D01*
X105402493Y-66960771D02*
X105450112Y-67056009D01*
X105450112Y-67056009D02*
X105450112Y-67579819D01*
X106354874Y-67579819D02*
X106354874Y-66579819D01*
X106354874Y-67532200D02*
X106259636Y-67579819D01*
X106259636Y-67579819D02*
X106069160Y-67579819D01*
X106069160Y-67579819D02*
X105973922Y-67532200D01*
X105973922Y-67532200D02*
X105926303Y-67484580D01*
X105926303Y-67484580D02*
X105878684Y-67389342D01*
X105878684Y-67389342D02*
X105878684Y-67103628D01*
X105878684Y-67103628D02*
X105926303Y-67008390D01*
X105926303Y-67008390D02*
X105973922Y-66960771D01*
X105973922Y-66960771D02*
X106069160Y-66913152D01*
X106069160Y-66913152D02*
X106259636Y-66913152D01*
X106259636Y-66913152D02*
X106354874Y-66960771D01*
X107735827Y-67579819D02*
X107640589Y-67532200D01*
X107640589Y-67532200D02*
X107592970Y-67436961D01*
X107592970Y-67436961D02*
X107592970Y-66579819D01*
X108497732Y-67532200D02*
X108402494Y-67579819D01*
X108402494Y-67579819D02*
X108212018Y-67579819D01*
X108212018Y-67579819D02*
X108116780Y-67532200D01*
X108116780Y-67532200D02*
X108069161Y-67436961D01*
X108069161Y-67436961D02*
X108069161Y-67056009D01*
X108069161Y-67056009D02*
X108116780Y-66960771D01*
X108116780Y-66960771D02*
X108212018Y-66913152D01*
X108212018Y-66913152D02*
X108402494Y-66913152D01*
X108402494Y-66913152D02*
X108497732Y-66960771D01*
X108497732Y-66960771D02*
X108545351Y-67056009D01*
X108545351Y-67056009D02*
X108545351Y-67151247D01*
X108545351Y-67151247D02*
X108069161Y-67246485D01*
X109402494Y-67579819D02*
X109402494Y-67056009D01*
X109402494Y-67056009D02*
X109354875Y-66960771D01*
X109354875Y-66960771D02*
X109259637Y-66913152D01*
X109259637Y-66913152D02*
X109069161Y-66913152D01*
X109069161Y-66913152D02*
X108973923Y-66960771D01*
X109402494Y-67532200D02*
X109307256Y-67579819D01*
X109307256Y-67579819D02*
X109069161Y-67579819D01*
X109069161Y-67579819D02*
X108973923Y-67532200D01*
X108973923Y-67532200D02*
X108926304Y-67436961D01*
X108926304Y-67436961D02*
X108926304Y-67341723D01*
X108926304Y-67341723D02*
X108973923Y-67246485D01*
X108973923Y-67246485D02*
X109069161Y-67198866D01*
X109069161Y-67198866D02*
X109307256Y-67198866D01*
X109307256Y-67198866D02*
X109402494Y-67151247D01*
X109878685Y-67579819D02*
X109878685Y-66913152D01*
X109878685Y-67103628D02*
X109926304Y-67008390D01*
X109926304Y-67008390D02*
X109973923Y-66960771D01*
X109973923Y-66960771D02*
X110069161Y-66913152D01*
X110069161Y-66913152D02*
X110164399Y-66913152D01*
X110497733Y-66913152D02*
X110497733Y-67579819D01*
X110497733Y-67008390D02*
X110545352Y-66960771D01*
X110545352Y-66960771D02*
X110640590Y-66913152D01*
X110640590Y-66913152D02*
X110783447Y-66913152D01*
X110783447Y-66913152D02*
X110878685Y-66960771D01*
X110878685Y-66960771D02*
X110926304Y-67056009D01*
X110926304Y-67056009D02*
X110926304Y-67579819D01*
X111402495Y-67579819D02*
X111402495Y-66913152D01*
X111402495Y-66579819D02*
X111354876Y-66627438D01*
X111354876Y-66627438D02*
X111402495Y-66675057D01*
X111402495Y-66675057D02*
X111450114Y-66627438D01*
X111450114Y-66627438D02*
X111402495Y-66579819D01*
X111402495Y-66579819D02*
X111402495Y-66675057D01*
X111878685Y-66913152D02*
X111878685Y-67579819D01*
X111878685Y-67008390D02*
X111926304Y-66960771D01*
X111926304Y-66960771D02*
X112021542Y-66913152D01*
X112021542Y-66913152D02*
X112164399Y-66913152D01*
X112164399Y-66913152D02*
X112259637Y-66960771D01*
X112259637Y-66960771D02*
X112307256Y-67056009D01*
X112307256Y-67056009D02*
X112307256Y-67579819D01*
X113212018Y-66913152D02*
X113212018Y-67722676D01*
X113212018Y-67722676D02*
X113164399Y-67817914D01*
X113164399Y-67817914D02*
X113116780Y-67865533D01*
X113116780Y-67865533D02*
X113021542Y-67913152D01*
X113021542Y-67913152D02*
X112878685Y-67913152D01*
X112878685Y-67913152D02*
X112783447Y-67865533D01*
X113212018Y-67532200D02*
X113116780Y-67579819D01*
X113116780Y-67579819D02*
X112926304Y-67579819D01*
X112926304Y-67579819D02*
X112831066Y-67532200D01*
X112831066Y-67532200D02*
X112783447Y-67484580D01*
X112783447Y-67484580D02*
X112735828Y-67389342D01*
X112735828Y-67389342D02*
X112735828Y-67103628D01*
X112735828Y-67103628D02*
X112783447Y-67008390D01*
X112783447Y-67008390D02*
X112831066Y-66960771D01*
X112831066Y-66960771D02*
X112926304Y-66913152D01*
X112926304Y-66913152D02*
X113116780Y-66913152D01*
X113116780Y-66913152D02*
X113212018Y-66960771D01*
X114878685Y-67532200D02*
X114783447Y-67579819D01*
X114783447Y-67579819D02*
X114592971Y-67579819D01*
X114592971Y-67579819D02*
X114497733Y-67532200D01*
X114497733Y-67532200D02*
X114450114Y-67484580D01*
X114450114Y-67484580D02*
X114402495Y-67389342D01*
X114402495Y-67389342D02*
X114402495Y-67103628D01*
X114402495Y-67103628D02*
X114450114Y-67008390D01*
X114450114Y-67008390D02*
X114497733Y-66960771D01*
X114497733Y-66960771D02*
X114592971Y-66913152D01*
X114592971Y-66913152D02*
X114783447Y-66913152D01*
X114783447Y-66913152D02*
X114878685Y-66960771D01*
X115735828Y-67579819D02*
X115735828Y-67056009D01*
X115735828Y-67056009D02*
X115688209Y-66960771D01*
X115688209Y-66960771D02*
X115592971Y-66913152D01*
X115592971Y-66913152D02*
X115402495Y-66913152D01*
X115402495Y-66913152D02*
X115307257Y-66960771D01*
X115735828Y-67532200D02*
X115640590Y-67579819D01*
X115640590Y-67579819D02*
X115402495Y-67579819D01*
X115402495Y-67579819D02*
X115307257Y-67532200D01*
X115307257Y-67532200D02*
X115259638Y-67436961D01*
X115259638Y-67436961D02*
X115259638Y-67341723D01*
X115259638Y-67341723D02*
X115307257Y-67246485D01*
X115307257Y-67246485D02*
X115402495Y-67198866D01*
X115402495Y-67198866D02*
X115640590Y-67198866D01*
X115640590Y-67198866D02*
X115735828Y-67151247D01*
X116212019Y-67579819D02*
X116212019Y-66913152D01*
X116212019Y-67103628D02*
X116259638Y-67008390D01*
X116259638Y-67008390D02*
X116307257Y-66960771D01*
X116307257Y-66960771D02*
X116402495Y-66913152D01*
X116402495Y-66913152D02*
X116497733Y-66913152D01*
X117592972Y-67579819D02*
X117592972Y-66913152D01*
X117592972Y-67008390D02*
X117640591Y-66960771D01*
X117640591Y-66960771D02*
X117735829Y-66913152D01*
X117735829Y-66913152D02*
X117878686Y-66913152D01*
X117878686Y-66913152D02*
X117973924Y-66960771D01*
X117973924Y-66960771D02*
X118021543Y-67056009D01*
X118021543Y-67056009D02*
X118021543Y-67579819D01*
X118021543Y-67056009D02*
X118069162Y-66960771D01*
X118069162Y-66960771D02*
X118164400Y-66913152D01*
X118164400Y-66913152D02*
X118307257Y-66913152D01*
X118307257Y-66913152D02*
X118402496Y-66960771D01*
X118402496Y-66960771D02*
X118450115Y-67056009D01*
X118450115Y-67056009D02*
X118450115Y-67579819D01*
X119307257Y-67532200D02*
X119212019Y-67579819D01*
X119212019Y-67579819D02*
X119021543Y-67579819D01*
X119021543Y-67579819D02*
X118926305Y-67532200D01*
X118926305Y-67532200D02*
X118878686Y-67436961D01*
X118878686Y-67436961D02*
X118878686Y-67056009D01*
X118878686Y-67056009D02*
X118926305Y-66960771D01*
X118926305Y-66960771D02*
X119021543Y-66913152D01*
X119021543Y-66913152D02*
X119212019Y-66913152D01*
X119212019Y-66913152D02*
X119307257Y-66960771D01*
X119307257Y-66960771D02*
X119354876Y-67056009D01*
X119354876Y-67056009D02*
X119354876Y-67151247D01*
X119354876Y-67151247D02*
X118878686Y-67246485D01*
X119640591Y-66913152D02*
X120021543Y-66913152D01*
X119783448Y-66579819D02*
X119783448Y-67436961D01*
X119783448Y-67436961D02*
X119831067Y-67532200D01*
X119831067Y-67532200D02*
X119926305Y-67579819D01*
X119926305Y-67579819D02*
X120021543Y-67579819D01*
X120783448Y-67579819D02*
X120783448Y-67056009D01*
X120783448Y-67056009D02*
X120735829Y-66960771D01*
X120735829Y-66960771D02*
X120640591Y-66913152D01*
X120640591Y-66913152D02*
X120450115Y-66913152D01*
X120450115Y-66913152D02*
X120354877Y-66960771D01*
X120783448Y-67532200D02*
X120688210Y-67579819D01*
X120688210Y-67579819D02*
X120450115Y-67579819D01*
X120450115Y-67579819D02*
X120354877Y-67532200D01*
X120354877Y-67532200D02*
X120307258Y-67436961D01*
X120307258Y-67436961D02*
X120307258Y-67341723D01*
X120307258Y-67341723D02*
X120354877Y-67246485D01*
X120354877Y-67246485D02*
X120450115Y-67198866D01*
X120450115Y-67198866D02*
X120688210Y-67198866D01*
X120688210Y-67198866D02*
X120783448Y-67151247D01*
D13*
X116961553Y-106120967D02*
X116961553Y-105720967D01*
X117228219Y-105720967D02*
X117304410Y-105720967D01*
X117304410Y-105720967D02*
X117342505Y-105740015D01*
X117342505Y-105740015D02*
X117380600Y-105778110D01*
X117380600Y-105778110D02*
X117399648Y-105854300D01*
X117399648Y-105854300D02*
X117399648Y-105987634D01*
X117399648Y-105987634D02*
X117380600Y-106063824D01*
X117380600Y-106063824D02*
X117342505Y-106101920D01*
X117342505Y-106101920D02*
X117304410Y-106120967D01*
X117304410Y-106120967D02*
X117228219Y-106120967D01*
X117228219Y-106120967D02*
X117190124Y-106101920D01*
X117190124Y-106101920D02*
X117152029Y-106063824D01*
X117152029Y-106063824D02*
X117132981Y-105987634D01*
X117132981Y-105987634D02*
X117132981Y-105854300D01*
X117132981Y-105854300D02*
X117152029Y-105778110D01*
X117152029Y-105778110D02*
X117190124Y-105740015D01*
X117190124Y-105740015D02*
X117228219Y-105720967D01*
X117761553Y-105720967D02*
X117571077Y-105720967D01*
X117571077Y-105720967D02*
X117552029Y-105911443D01*
X117552029Y-105911443D02*
X117571077Y-105892396D01*
X117571077Y-105892396D02*
X117609172Y-105873348D01*
X117609172Y-105873348D02*
X117704410Y-105873348D01*
X117704410Y-105873348D02*
X117742505Y-105892396D01*
X117742505Y-105892396D02*
X117761553Y-105911443D01*
X117761553Y-105911443D02*
X117780600Y-105949539D01*
X117780600Y-105949539D02*
X117780600Y-106044777D01*
X117780600Y-106044777D02*
X117761553Y-106082872D01*
X117761553Y-106082872D02*
X117742505Y-106101920D01*
X117742505Y-106101920D02*
X117704410Y-106120967D01*
X117704410Y-106120967D02*
X117609172Y-106120967D01*
X117609172Y-106120967D02*
X117571077Y-106101920D01*
X117571077Y-106101920D02*
X117552029Y-106082872D01*
X116453553Y-112728966D02*
X116453553Y-112328966D01*
X116720219Y-112328966D02*
X116796410Y-112328966D01*
X116796410Y-112328966D02*
X116834505Y-112348014D01*
X116834505Y-112348014D02*
X116872600Y-112386109D01*
X116872600Y-112386109D02*
X116891648Y-112462299D01*
X116891648Y-112462299D02*
X116891648Y-112595633D01*
X116891648Y-112595633D02*
X116872600Y-112671823D01*
X116872600Y-112671823D02*
X116834505Y-112709919D01*
X116834505Y-112709919D02*
X116796410Y-112728966D01*
X116796410Y-112728966D02*
X116720219Y-112728966D01*
X116720219Y-112728966D02*
X116682124Y-112709919D01*
X116682124Y-112709919D02*
X116644029Y-112671823D01*
X116644029Y-112671823D02*
X116624981Y-112595633D01*
X116624981Y-112595633D02*
X116624981Y-112462299D01*
X116624981Y-112462299D02*
X116644029Y-112386109D01*
X116644029Y-112386109D02*
X116682124Y-112348014D01*
X116682124Y-112348014D02*
X116720219Y-112328966D01*
X117044029Y-112367061D02*
X117063077Y-112348014D01*
X117063077Y-112348014D02*
X117101172Y-112328966D01*
X117101172Y-112328966D02*
X117196410Y-112328966D01*
X117196410Y-112328966D02*
X117234505Y-112348014D01*
X117234505Y-112348014D02*
X117253553Y-112367061D01*
X117253553Y-112367061D02*
X117272600Y-112405157D01*
X117272600Y-112405157D02*
X117272600Y-112443252D01*
X117272600Y-112443252D02*
X117253553Y-112500395D01*
X117253553Y-112500395D02*
X117024981Y-112728966D01*
X117024981Y-112728966D02*
X117272600Y-112728966D01*
X117653552Y-112728966D02*
X117424981Y-112728966D01*
X117539267Y-112728966D02*
X117539267Y-112328966D01*
X117539267Y-112328966D02*
X117501171Y-112386109D01*
X117501171Y-112386109D02*
X117463076Y-112424204D01*
X117463076Y-112424204D02*
X117424981Y-112443252D01*
D14*
X91297855Y-86471624D02*
X91297855Y-86852576D01*
X91297855Y-86852576D02*
X91678807Y-86890672D01*
X91678807Y-86890672D02*
X91640712Y-86852576D01*
X91640712Y-86852576D02*
X91602617Y-86776386D01*
X91602617Y-86776386D02*
X91602617Y-86585910D01*
X91602617Y-86585910D02*
X91640712Y-86509719D01*
X91640712Y-86509719D02*
X91678807Y-86471624D01*
X91678807Y-86471624D02*
X91754998Y-86433529D01*
X91754998Y-86433529D02*
X91945474Y-86433529D01*
X91945474Y-86433529D02*
X92021664Y-86471624D01*
X92021664Y-86471624D02*
X92059760Y-86509719D01*
X92059760Y-86509719D02*
X92097855Y-86585910D01*
X92097855Y-86585910D02*
X92097855Y-86776386D01*
X92097855Y-86776386D02*
X92059760Y-86852576D01*
X92059760Y-86852576D02*
X92021664Y-86890672D01*
X91297855Y-86204957D02*
X92097855Y-85938290D01*
X92097855Y-85938290D02*
X91297855Y-85671624D01*
X92097855Y-84414481D02*
X92097855Y-84795433D01*
X92097855Y-84795433D02*
X91297855Y-84795433D01*
X91678807Y-84147814D02*
X91678807Y-83881148D01*
X92097855Y-83766862D02*
X92097855Y-84147814D01*
X92097855Y-84147814D02*
X91297855Y-84147814D01*
X91297855Y-84147814D02*
X91297855Y-83766862D01*
X92097855Y-83424004D02*
X91297855Y-83424004D01*
X91297855Y-83424004D02*
X91297855Y-83233528D01*
X91297855Y-83233528D02*
X91335950Y-83119242D01*
X91335950Y-83119242D02*
X91412140Y-83043052D01*
X91412140Y-83043052D02*
X91488331Y-83004957D01*
X91488331Y-83004957D02*
X91640712Y-82966861D01*
X91640712Y-82966861D02*
X91754998Y-82966861D01*
X91754998Y-82966861D02*
X91907379Y-83004957D01*
X91907379Y-83004957D02*
X91983569Y-83043052D01*
X91983569Y-83043052D02*
X92059760Y-83119242D01*
X92059760Y-83119242D02*
X92097855Y-83233528D01*
X92097855Y-83233528D02*
X92097855Y-83424004D01*
D13*
X110744886Y-87115443D02*
X110611553Y-87115443D01*
X110611553Y-87324967D02*
X110611553Y-86924967D01*
X110611553Y-86924967D02*
X110802029Y-86924967D01*
X111011552Y-87324967D02*
X110973457Y-87305920D01*
X110973457Y-87305920D02*
X110954410Y-87267824D01*
X110954410Y-87267824D02*
X110954410Y-86924967D01*
X111335362Y-87324967D02*
X111335362Y-87115443D01*
X111335362Y-87115443D02*
X111316315Y-87077348D01*
X111316315Y-87077348D02*
X111278219Y-87058300D01*
X111278219Y-87058300D02*
X111202029Y-87058300D01*
X111202029Y-87058300D02*
X111163934Y-87077348D01*
X111335362Y-87305920D02*
X111297267Y-87324967D01*
X111297267Y-87324967D02*
X111202029Y-87324967D01*
X111202029Y-87324967D02*
X111163934Y-87305920D01*
X111163934Y-87305920D02*
X111144886Y-87267824D01*
X111144886Y-87267824D02*
X111144886Y-87229729D01*
X111144886Y-87229729D02*
X111163934Y-87191634D01*
X111163934Y-87191634D02*
X111202029Y-87172586D01*
X111202029Y-87172586D02*
X111297267Y-87172586D01*
X111297267Y-87172586D02*
X111335362Y-87153539D01*
X111506791Y-87305920D02*
X111544886Y-87324967D01*
X111544886Y-87324967D02*
X111621077Y-87324967D01*
X111621077Y-87324967D02*
X111659172Y-87305920D01*
X111659172Y-87305920D02*
X111678220Y-87267824D01*
X111678220Y-87267824D02*
X111678220Y-87248777D01*
X111678220Y-87248777D02*
X111659172Y-87210681D01*
X111659172Y-87210681D02*
X111621077Y-87191634D01*
X111621077Y-87191634D02*
X111563934Y-87191634D01*
X111563934Y-87191634D02*
X111525839Y-87172586D01*
X111525839Y-87172586D02*
X111506791Y-87134491D01*
X111506791Y-87134491D02*
X111506791Y-87115443D01*
X111506791Y-87115443D02*
X111525839Y-87077348D01*
X111525839Y-87077348D02*
X111563934Y-87058300D01*
X111563934Y-87058300D02*
X111621077Y-87058300D01*
X111621077Y-87058300D02*
X111659172Y-87077348D01*
X111849649Y-87324967D02*
X111849649Y-86924967D01*
X112021077Y-87324967D02*
X112021077Y-87115443D01*
X112021077Y-87115443D02*
X112002030Y-87077348D01*
X112002030Y-87077348D02*
X111963934Y-87058300D01*
X111963934Y-87058300D02*
X111906791Y-87058300D01*
X111906791Y-87058300D02*
X111868696Y-87077348D01*
X111868696Y-87077348D02*
X111849649Y-87096396D01*
X112154411Y-86924967D02*
X112382982Y-86924967D01*
X112268696Y-87324967D02*
X112268696Y-86924967D01*
X112478220Y-86924967D02*
X112744887Y-87324967D01*
X112744887Y-86924967D02*
X112478220Y-87324967D01*
D11*
X92538779Y-82546866D02*
X93300684Y-82546866D01*
X92919731Y-82927819D02*
X92919731Y-82165914D01*
X138381580Y-56003889D02*
X139381580Y-56003889D01*
X138905390Y-56003889D02*
X138905390Y-56575317D01*
X138381580Y-56575317D02*
X139381580Y-56575317D01*
X138381580Y-57480079D02*
X138905390Y-57480079D01*
X138905390Y-57480079D02*
X139000628Y-57432460D01*
X139000628Y-57432460D02*
X139048247Y-57337222D01*
X139048247Y-57337222D02*
X139048247Y-57146746D01*
X139048247Y-57146746D02*
X139000628Y-57051508D01*
X138429200Y-57480079D02*
X138381580Y-57384841D01*
X138381580Y-57384841D02*
X138381580Y-57146746D01*
X138381580Y-57146746D02*
X138429200Y-57051508D01*
X138429200Y-57051508D02*
X138524438Y-57003889D01*
X138524438Y-57003889D02*
X138619676Y-57003889D01*
X138619676Y-57003889D02*
X138714914Y-57051508D01*
X138714914Y-57051508D02*
X138762533Y-57146746D01*
X138762533Y-57146746D02*
X138762533Y-57384841D01*
X138762533Y-57384841D02*
X138810152Y-57480079D01*
X138381580Y-58099127D02*
X138429200Y-58003889D01*
X138429200Y-58003889D02*
X138524438Y-57956270D01*
X138524438Y-57956270D02*
X139381580Y-57956270D01*
X138381580Y-58622937D02*
X138429200Y-58527699D01*
X138429200Y-58527699D02*
X138524438Y-58480080D01*
X138524438Y-58480080D02*
X139381580Y-58480080D01*
X138429200Y-59718176D02*
X138381580Y-59861033D01*
X138381580Y-59861033D02*
X138381580Y-60099128D01*
X138381580Y-60099128D02*
X138429200Y-60194366D01*
X138429200Y-60194366D02*
X138476819Y-60241985D01*
X138476819Y-60241985D02*
X138572057Y-60289604D01*
X138572057Y-60289604D02*
X138667295Y-60289604D01*
X138667295Y-60289604D02*
X138762533Y-60241985D01*
X138762533Y-60241985D02*
X138810152Y-60194366D01*
X138810152Y-60194366D02*
X138857771Y-60099128D01*
X138857771Y-60099128D02*
X138905390Y-59908652D01*
X138905390Y-59908652D02*
X138953009Y-59813414D01*
X138953009Y-59813414D02*
X139000628Y-59765795D01*
X139000628Y-59765795D02*
X139095866Y-59718176D01*
X139095866Y-59718176D02*
X139191104Y-59718176D01*
X139191104Y-59718176D02*
X139286342Y-59765795D01*
X139286342Y-59765795D02*
X139333961Y-59813414D01*
X139333961Y-59813414D02*
X139381580Y-59908652D01*
X139381580Y-59908652D02*
X139381580Y-60146747D01*
X139381580Y-60146747D02*
X139333961Y-60289604D01*
X138429200Y-61099128D02*
X138381580Y-61003890D01*
X138381580Y-61003890D02*
X138381580Y-60813414D01*
X138381580Y-60813414D02*
X138429200Y-60718176D01*
X138429200Y-60718176D02*
X138524438Y-60670557D01*
X138524438Y-60670557D02*
X138905390Y-60670557D01*
X138905390Y-60670557D02*
X139000628Y-60718176D01*
X139000628Y-60718176D02*
X139048247Y-60813414D01*
X139048247Y-60813414D02*
X139048247Y-61003890D01*
X139048247Y-61003890D02*
X139000628Y-61099128D01*
X139000628Y-61099128D02*
X138905390Y-61146747D01*
X138905390Y-61146747D02*
X138810152Y-61146747D01*
X138810152Y-61146747D02*
X138714914Y-60670557D01*
X139048247Y-61575319D02*
X138381580Y-61575319D01*
X138953009Y-61575319D02*
X139000628Y-61622938D01*
X139000628Y-61622938D02*
X139048247Y-61718176D01*
X139048247Y-61718176D02*
X139048247Y-61861033D01*
X139048247Y-61861033D02*
X139000628Y-61956271D01*
X139000628Y-61956271D02*
X138905390Y-62003890D01*
X138905390Y-62003890D02*
X138381580Y-62003890D01*
X138429200Y-62432462D02*
X138381580Y-62527700D01*
X138381580Y-62527700D02*
X138381580Y-62718176D01*
X138381580Y-62718176D02*
X138429200Y-62813414D01*
X138429200Y-62813414D02*
X138524438Y-62861033D01*
X138524438Y-62861033D02*
X138572057Y-62861033D01*
X138572057Y-62861033D02*
X138667295Y-62813414D01*
X138667295Y-62813414D02*
X138714914Y-62718176D01*
X138714914Y-62718176D02*
X138714914Y-62575319D01*
X138714914Y-62575319D02*
X138762533Y-62480081D01*
X138762533Y-62480081D02*
X138857771Y-62432462D01*
X138857771Y-62432462D02*
X138905390Y-62432462D01*
X138905390Y-62432462D02*
X139000628Y-62480081D01*
X139000628Y-62480081D02*
X139048247Y-62575319D01*
X139048247Y-62575319D02*
X139048247Y-62718176D01*
X139048247Y-62718176D02*
X139000628Y-62813414D01*
X138381580Y-63432462D02*
X138429200Y-63337224D01*
X138429200Y-63337224D02*
X138476819Y-63289605D01*
X138476819Y-63289605D02*
X138572057Y-63241986D01*
X138572057Y-63241986D02*
X138857771Y-63241986D01*
X138857771Y-63241986D02*
X138953009Y-63289605D01*
X138953009Y-63289605D02*
X139000628Y-63337224D01*
X139000628Y-63337224D02*
X139048247Y-63432462D01*
X139048247Y-63432462D02*
X139048247Y-63575319D01*
X139048247Y-63575319D02*
X139000628Y-63670557D01*
X139000628Y-63670557D02*
X138953009Y-63718176D01*
X138953009Y-63718176D02*
X138857771Y-63765795D01*
X138857771Y-63765795D02*
X138572057Y-63765795D01*
X138572057Y-63765795D02*
X138476819Y-63718176D01*
X138476819Y-63718176D02*
X138429200Y-63670557D01*
X138429200Y-63670557D02*
X138381580Y-63575319D01*
X138381580Y-63575319D02*
X138381580Y-63432462D01*
X138381580Y-64194367D02*
X139048247Y-64194367D01*
X138857771Y-64194367D02*
X138953009Y-64241986D01*
X138953009Y-64241986D02*
X139000628Y-64289605D01*
X139000628Y-64289605D02*
X139048247Y-64384843D01*
X139048247Y-64384843D02*
X139048247Y-64480081D01*
X139286342Y-65527701D02*
X139333961Y-65575320D01*
X139333961Y-65575320D02*
X139381580Y-65670558D01*
X139381580Y-65670558D02*
X139381580Y-65908653D01*
X139381580Y-65908653D02*
X139333961Y-66003891D01*
X139333961Y-66003891D02*
X139286342Y-66051510D01*
X139286342Y-66051510D02*
X139191104Y-66099129D01*
X139191104Y-66099129D02*
X139095866Y-66099129D01*
X139095866Y-66099129D02*
X138953009Y-66051510D01*
X138953009Y-66051510D02*
X138381580Y-65480082D01*
X138381580Y-65480082D02*
X138381580Y-66099129D01*
X97141319Y-108609166D02*
X96665128Y-108942499D01*
X97141319Y-109180594D02*
X96141319Y-109180594D01*
X96141319Y-109180594D02*
X96141319Y-108799642D01*
X96141319Y-108799642D02*
X96188938Y-108704404D01*
X96188938Y-108704404D02*
X96236557Y-108656785D01*
X96236557Y-108656785D02*
X96331795Y-108609166D01*
X96331795Y-108609166D02*
X96474652Y-108609166D01*
X96474652Y-108609166D02*
X96569890Y-108656785D01*
X96569890Y-108656785D02*
X96617509Y-108704404D01*
X96617509Y-108704404D02*
X96665128Y-108799642D01*
X96665128Y-108799642D02*
X96665128Y-109180594D01*
X97141319Y-108132975D02*
X97141319Y-107942499D01*
X97141319Y-107942499D02*
X97093700Y-107847261D01*
X97093700Y-107847261D02*
X97046080Y-107799642D01*
X97046080Y-107799642D02*
X96903223Y-107704404D01*
X96903223Y-107704404D02*
X96712747Y-107656785D01*
X96712747Y-107656785D02*
X96331795Y-107656785D01*
X96331795Y-107656785D02*
X96236557Y-107704404D01*
X96236557Y-107704404D02*
X96188938Y-107752023D01*
X96188938Y-107752023D02*
X96141319Y-107847261D01*
X96141319Y-107847261D02*
X96141319Y-108037737D01*
X96141319Y-108037737D02*
X96188938Y-108132975D01*
X96188938Y-108132975D02*
X96236557Y-108180594D01*
X96236557Y-108180594D02*
X96331795Y-108228213D01*
X96331795Y-108228213D02*
X96569890Y-108228213D01*
X96569890Y-108228213D02*
X96665128Y-108180594D01*
X96665128Y-108180594D02*
X96712747Y-108132975D01*
X96712747Y-108132975D02*
X96760366Y-108037737D01*
X96760366Y-108037737D02*
X96760366Y-107847261D01*
X96760366Y-107847261D02*
X96712747Y-107752023D01*
X96712747Y-107752023D02*
X96665128Y-107704404D01*
X96665128Y-107704404D02*
X96569890Y-107656785D01*
D10*
X110738895Y-92885665D02*
X110357942Y-93152332D01*
X110738895Y-93342808D02*
X109938895Y-93342808D01*
X109938895Y-93342808D02*
X109938895Y-93038046D01*
X109938895Y-93038046D02*
X109976990Y-92961856D01*
X109976990Y-92961856D02*
X110015085Y-92923761D01*
X110015085Y-92923761D02*
X110091276Y-92885665D01*
X110091276Y-92885665D02*
X110205561Y-92885665D01*
X110205561Y-92885665D02*
X110281752Y-92923761D01*
X110281752Y-92923761D02*
X110319847Y-92961856D01*
X110319847Y-92961856D02*
X110357942Y-93038046D01*
X110357942Y-93038046D02*
X110357942Y-93342808D01*
X110015085Y-92580904D02*
X109976990Y-92542808D01*
X109976990Y-92542808D02*
X109938895Y-92466618D01*
X109938895Y-92466618D02*
X109938895Y-92276142D01*
X109938895Y-92276142D02*
X109976990Y-92199951D01*
X109976990Y-92199951D02*
X110015085Y-92161856D01*
X110015085Y-92161856D02*
X110091276Y-92123761D01*
X110091276Y-92123761D02*
X110167466Y-92123761D01*
X110167466Y-92123761D02*
X110281752Y-92161856D01*
X110281752Y-92161856D02*
X110738895Y-92618999D01*
X110738895Y-92618999D02*
X110738895Y-92123761D01*
X117204895Y-97796285D02*
X116823942Y-98062952D01*
X117204895Y-98253428D02*
X116404895Y-98253428D01*
X116404895Y-98253428D02*
X116404895Y-97948666D01*
X116404895Y-97948666D02*
X116442990Y-97872476D01*
X116442990Y-97872476D02*
X116481085Y-97834381D01*
X116481085Y-97834381D02*
X116557276Y-97796285D01*
X116557276Y-97796285D02*
X116671561Y-97796285D01*
X116671561Y-97796285D02*
X116747752Y-97834381D01*
X116747752Y-97834381D02*
X116785847Y-97872476D01*
X116785847Y-97872476D02*
X116823942Y-97948666D01*
X116823942Y-97948666D02*
X116823942Y-98253428D01*
X117204895Y-97034381D02*
X117204895Y-97491524D01*
X117204895Y-97262952D02*
X116404895Y-97262952D01*
X116404895Y-97262952D02*
X116519180Y-97339143D01*
X116519180Y-97339143D02*
X116595371Y-97415333D01*
X116595371Y-97415333D02*
X116633466Y-97491524D01*
X116404895Y-96767714D02*
X116404895Y-96234380D01*
X116404895Y-96234380D02*
X117204895Y-96577238D01*
D11*
X119732819Y-55959504D02*
X118732819Y-55959504D01*
X119209009Y-55959504D02*
X119209009Y-55388076D01*
X119732819Y-55388076D02*
X118732819Y-55388076D01*
X118828057Y-54959504D02*
X118780438Y-54911885D01*
X118780438Y-54911885D02*
X118732819Y-54816647D01*
X118732819Y-54816647D02*
X118732819Y-54578552D01*
X118732819Y-54578552D02*
X118780438Y-54483314D01*
X118780438Y-54483314D02*
X118828057Y-54435695D01*
X118828057Y-54435695D02*
X118923295Y-54388076D01*
X118923295Y-54388076D02*
X119018533Y-54388076D01*
X119018533Y-54388076D02*
X119161390Y-54435695D01*
X119161390Y-54435695D02*
X119732819Y-55007123D01*
X119732819Y-55007123D02*
X119732819Y-54388076D01*
D10*
X110716895Y-90753285D02*
X110335942Y-91019952D01*
X110716895Y-91210428D02*
X109916895Y-91210428D01*
X109916895Y-91210428D02*
X109916895Y-90905666D01*
X109916895Y-90905666D02*
X109954990Y-90829476D01*
X109954990Y-90829476D02*
X109993085Y-90791381D01*
X109993085Y-90791381D02*
X110069276Y-90753285D01*
X110069276Y-90753285D02*
X110183561Y-90753285D01*
X110183561Y-90753285D02*
X110259752Y-90791381D01*
X110259752Y-90791381D02*
X110297847Y-90829476D01*
X110297847Y-90829476D02*
X110335942Y-90905666D01*
X110335942Y-90905666D02*
X110335942Y-91210428D01*
X110716895Y-89991381D02*
X110716895Y-90448524D01*
X110716895Y-90219952D02*
X109916895Y-90219952D01*
X109916895Y-90219952D02*
X110031180Y-90296143D01*
X110031180Y-90296143D02*
X110107371Y-90372333D01*
X110107371Y-90372333D02*
X110145466Y-90448524D01*
X109916895Y-89305666D02*
X109916895Y-89458047D01*
X109916895Y-89458047D02*
X109954990Y-89534238D01*
X109954990Y-89534238D02*
X109993085Y-89572333D01*
X109993085Y-89572333D02*
X110107371Y-89648523D01*
X110107371Y-89648523D02*
X110259752Y-89686619D01*
X110259752Y-89686619D02*
X110564514Y-89686619D01*
X110564514Y-89686619D02*
X110640704Y-89648523D01*
X110640704Y-89648523D02*
X110678800Y-89610428D01*
X110678800Y-89610428D02*
X110716895Y-89534238D01*
X110716895Y-89534238D02*
X110716895Y-89381857D01*
X110716895Y-89381857D02*
X110678800Y-89305666D01*
X110678800Y-89305666D02*
X110640704Y-89267571D01*
X110640704Y-89267571D02*
X110564514Y-89229476D01*
X110564514Y-89229476D02*
X110374038Y-89229476D01*
X110374038Y-89229476D02*
X110297847Y-89267571D01*
X110297847Y-89267571D02*
X110259752Y-89305666D01*
X110259752Y-89305666D02*
X110221657Y-89381857D01*
X110221657Y-89381857D02*
X110221657Y-89534238D01*
X110221657Y-89534238D02*
X110259752Y-89610428D01*
X110259752Y-89610428D02*
X110297847Y-89648523D01*
X110297847Y-89648523D02*
X110374038Y-89686619D01*
D11*
X91287319Y-105057857D02*
X90811128Y-105391190D01*
X91287319Y-105629285D02*
X90287319Y-105629285D01*
X90287319Y-105629285D02*
X90287319Y-105248333D01*
X90287319Y-105248333D02*
X90334938Y-105153095D01*
X90334938Y-105153095D02*
X90382557Y-105105476D01*
X90382557Y-105105476D02*
X90477795Y-105057857D01*
X90477795Y-105057857D02*
X90620652Y-105057857D01*
X90620652Y-105057857D02*
X90715890Y-105105476D01*
X90715890Y-105105476D02*
X90763509Y-105153095D01*
X90763509Y-105153095D02*
X90811128Y-105248333D01*
X90811128Y-105248333D02*
X90811128Y-105629285D01*
X91287319Y-104105476D02*
X91287319Y-104676904D01*
X91287319Y-104391190D02*
X90287319Y-104391190D01*
X90287319Y-104391190D02*
X90430176Y-104486428D01*
X90430176Y-104486428D02*
X90525414Y-104581666D01*
X90525414Y-104581666D02*
X90573033Y-104676904D01*
X90287319Y-103486428D02*
X90287319Y-103391190D01*
X90287319Y-103391190D02*
X90334938Y-103295952D01*
X90334938Y-103295952D02*
X90382557Y-103248333D01*
X90382557Y-103248333D02*
X90477795Y-103200714D01*
X90477795Y-103200714D02*
X90668271Y-103153095D01*
X90668271Y-103153095D02*
X90906366Y-103153095D01*
X90906366Y-103153095D02*
X91096842Y-103200714D01*
X91096842Y-103200714D02*
X91192080Y-103248333D01*
X91192080Y-103248333D02*
X91239700Y-103295952D01*
X91239700Y-103295952D02*
X91287319Y-103391190D01*
X91287319Y-103391190D02*
X91287319Y-103486428D01*
X91287319Y-103486428D02*
X91239700Y-103581666D01*
X91239700Y-103581666D02*
X91192080Y-103629285D01*
X91192080Y-103629285D02*
X91096842Y-103676904D01*
X91096842Y-103676904D02*
X90906366Y-103724523D01*
X90906366Y-103724523D02*
X90668271Y-103724523D01*
X90668271Y-103724523D02*
X90477795Y-103676904D01*
X90477795Y-103676904D02*
X90382557Y-103629285D01*
X90382557Y-103629285D02*
X90334938Y-103581666D01*
X90334938Y-103581666D02*
X90287319Y-103486428D01*
X87073819Y-103785857D02*
X86597628Y-104119190D01*
X87073819Y-104357285D02*
X86073819Y-104357285D01*
X86073819Y-104357285D02*
X86073819Y-103976333D01*
X86073819Y-103976333D02*
X86121438Y-103881095D01*
X86121438Y-103881095D02*
X86169057Y-103833476D01*
X86169057Y-103833476D02*
X86264295Y-103785857D01*
X86264295Y-103785857D02*
X86407152Y-103785857D01*
X86407152Y-103785857D02*
X86502390Y-103833476D01*
X86502390Y-103833476D02*
X86550009Y-103881095D01*
X86550009Y-103881095D02*
X86597628Y-103976333D01*
X86597628Y-103976333D02*
X86597628Y-104357285D01*
X87073819Y-102833476D02*
X87073819Y-103404904D01*
X87073819Y-103119190D02*
X86073819Y-103119190D01*
X86073819Y-103119190D02*
X86216676Y-103214428D01*
X86216676Y-103214428D02*
X86311914Y-103309666D01*
X86311914Y-103309666D02*
X86359533Y-103404904D01*
X86073819Y-101928714D02*
X86073819Y-102404904D01*
X86073819Y-102404904D02*
X86550009Y-102452523D01*
X86550009Y-102452523D02*
X86502390Y-102404904D01*
X86502390Y-102404904D02*
X86454771Y-102309666D01*
X86454771Y-102309666D02*
X86454771Y-102071571D01*
X86454771Y-102071571D02*
X86502390Y-101976333D01*
X86502390Y-101976333D02*
X86550009Y-101928714D01*
X86550009Y-101928714D02*
X86645247Y-101881095D01*
X86645247Y-101881095D02*
X86883342Y-101881095D01*
X86883342Y-101881095D02*
X86978580Y-101928714D01*
X86978580Y-101928714D02*
X87026200Y-101976333D01*
X87026200Y-101976333D02*
X87073819Y-102071571D01*
X87073819Y-102071571D02*
X87073819Y-102309666D01*
X87073819Y-102309666D02*
X87026200Y-102404904D01*
X87026200Y-102404904D02*
X86978580Y-102452523D01*
X101662819Y-100993857D02*
X101186628Y-101327190D01*
X101662819Y-101565285D02*
X100662819Y-101565285D01*
X100662819Y-101565285D02*
X100662819Y-101184333D01*
X100662819Y-101184333D02*
X100710438Y-101089095D01*
X100710438Y-101089095D02*
X100758057Y-101041476D01*
X100758057Y-101041476D02*
X100853295Y-100993857D01*
X100853295Y-100993857D02*
X100996152Y-100993857D01*
X100996152Y-100993857D02*
X101091390Y-101041476D01*
X101091390Y-101041476D02*
X101139009Y-101089095D01*
X101139009Y-101089095D02*
X101186628Y-101184333D01*
X101186628Y-101184333D02*
X101186628Y-101565285D01*
X101662819Y-100041476D02*
X101662819Y-100612904D01*
X101662819Y-100327190D02*
X100662819Y-100327190D01*
X100662819Y-100327190D02*
X100805676Y-100422428D01*
X100805676Y-100422428D02*
X100900914Y-100517666D01*
X100900914Y-100517666D02*
X100948533Y-100612904D01*
X100662819Y-99708142D02*
X100662819Y-99089095D01*
X100662819Y-99089095D02*
X101043771Y-99422428D01*
X101043771Y-99422428D02*
X101043771Y-99279571D01*
X101043771Y-99279571D02*
X101091390Y-99184333D01*
X101091390Y-99184333D02*
X101139009Y-99136714D01*
X101139009Y-99136714D02*
X101234247Y-99089095D01*
X101234247Y-99089095D02*
X101472342Y-99089095D01*
X101472342Y-99089095D02*
X101567580Y-99136714D01*
X101567580Y-99136714D02*
X101615200Y-99184333D01*
X101615200Y-99184333D02*
X101662819Y-99279571D01*
X101662819Y-99279571D02*
X101662819Y-99565285D01*
X101662819Y-99565285D02*
X101615200Y-99660523D01*
X101615200Y-99660523D02*
X101567580Y-99708142D01*
X138535180Y-70769789D02*
X139535180Y-70769789D01*
X139058990Y-70769789D02*
X139058990Y-71341217D01*
X138535180Y-71341217D02*
X139535180Y-71341217D01*
X138535180Y-72245979D02*
X139058990Y-72245979D01*
X139058990Y-72245979D02*
X139154228Y-72198360D01*
X139154228Y-72198360D02*
X139201847Y-72103122D01*
X139201847Y-72103122D02*
X139201847Y-71912646D01*
X139201847Y-71912646D02*
X139154228Y-71817408D01*
X138582800Y-72245979D02*
X138535180Y-72150741D01*
X138535180Y-72150741D02*
X138535180Y-71912646D01*
X138535180Y-71912646D02*
X138582800Y-71817408D01*
X138582800Y-71817408D02*
X138678038Y-71769789D01*
X138678038Y-71769789D02*
X138773276Y-71769789D01*
X138773276Y-71769789D02*
X138868514Y-71817408D01*
X138868514Y-71817408D02*
X138916133Y-71912646D01*
X138916133Y-71912646D02*
X138916133Y-72150741D01*
X138916133Y-72150741D02*
X138963752Y-72245979D01*
X138535180Y-72865027D02*
X138582800Y-72769789D01*
X138582800Y-72769789D02*
X138678038Y-72722170D01*
X138678038Y-72722170D02*
X139535180Y-72722170D01*
X138535180Y-73388837D02*
X138582800Y-73293599D01*
X138582800Y-73293599D02*
X138678038Y-73245980D01*
X138678038Y-73245980D02*
X139535180Y-73245980D01*
X138582800Y-74484076D02*
X138535180Y-74626933D01*
X138535180Y-74626933D02*
X138535180Y-74865028D01*
X138535180Y-74865028D02*
X138582800Y-74960266D01*
X138582800Y-74960266D02*
X138630419Y-75007885D01*
X138630419Y-75007885D02*
X138725657Y-75055504D01*
X138725657Y-75055504D02*
X138820895Y-75055504D01*
X138820895Y-75055504D02*
X138916133Y-75007885D01*
X138916133Y-75007885D02*
X138963752Y-74960266D01*
X138963752Y-74960266D02*
X139011371Y-74865028D01*
X139011371Y-74865028D02*
X139058990Y-74674552D01*
X139058990Y-74674552D02*
X139106609Y-74579314D01*
X139106609Y-74579314D02*
X139154228Y-74531695D01*
X139154228Y-74531695D02*
X139249466Y-74484076D01*
X139249466Y-74484076D02*
X139344704Y-74484076D01*
X139344704Y-74484076D02*
X139439942Y-74531695D01*
X139439942Y-74531695D02*
X139487561Y-74579314D01*
X139487561Y-74579314D02*
X139535180Y-74674552D01*
X139535180Y-74674552D02*
X139535180Y-74912647D01*
X139535180Y-74912647D02*
X139487561Y-75055504D01*
X138582800Y-75865028D02*
X138535180Y-75769790D01*
X138535180Y-75769790D02*
X138535180Y-75579314D01*
X138535180Y-75579314D02*
X138582800Y-75484076D01*
X138582800Y-75484076D02*
X138678038Y-75436457D01*
X138678038Y-75436457D02*
X139058990Y-75436457D01*
X139058990Y-75436457D02*
X139154228Y-75484076D01*
X139154228Y-75484076D02*
X139201847Y-75579314D01*
X139201847Y-75579314D02*
X139201847Y-75769790D01*
X139201847Y-75769790D02*
X139154228Y-75865028D01*
X139154228Y-75865028D02*
X139058990Y-75912647D01*
X139058990Y-75912647D02*
X138963752Y-75912647D01*
X138963752Y-75912647D02*
X138868514Y-75436457D01*
X139201847Y-76341219D02*
X138535180Y-76341219D01*
X139106609Y-76341219D02*
X139154228Y-76388838D01*
X139154228Y-76388838D02*
X139201847Y-76484076D01*
X139201847Y-76484076D02*
X139201847Y-76626933D01*
X139201847Y-76626933D02*
X139154228Y-76722171D01*
X139154228Y-76722171D02*
X139058990Y-76769790D01*
X139058990Y-76769790D02*
X138535180Y-76769790D01*
X138582800Y-77198362D02*
X138535180Y-77293600D01*
X138535180Y-77293600D02*
X138535180Y-77484076D01*
X138535180Y-77484076D02*
X138582800Y-77579314D01*
X138582800Y-77579314D02*
X138678038Y-77626933D01*
X138678038Y-77626933D02*
X138725657Y-77626933D01*
X138725657Y-77626933D02*
X138820895Y-77579314D01*
X138820895Y-77579314D02*
X138868514Y-77484076D01*
X138868514Y-77484076D02*
X138868514Y-77341219D01*
X138868514Y-77341219D02*
X138916133Y-77245981D01*
X138916133Y-77245981D02*
X139011371Y-77198362D01*
X139011371Y-77198362D02*
X139058990Y-77198362D01*
X139058990Y-77198362D02*
X139154228Y-77245981D01*
X139154228Y-77245981D02*
X139201847Y-77341219D01*
X139201847Y-77341219D02*
X139201847Y-77484076D01*
X139201847Y-77484076D02*
X139154228Y-77579314D01*
X138535180Y-78198362D02*
X138582800Y-78103124D01*
X138582800Y-78103124D02*
X138630419Y-78055505D01*
X138630419Y-78055505D02*
X138725657Y-78007886D01*
X138725657Y-78007886D02*
X139011371Y-78007886D01*
X139011371Y-78007886D02*
X139106609Y-78055505D01*
X139106609Y-78055505D02*
X139154228Y-78103124D01*
X139154228Y-78103124D02*
X139201847Y-78198362D01*
X139201847Y-78198362D02*
X139201847Y-78341219D01*
X139201847Y-78341219D02*
X139154228Y-78436457D01*
X139154228Y-78436457D02*
X139106609Y-78484076D01*
X139106609Y-78484076D02*
X139011371Y-78531695D01*
X139011371Y-78531695D02*
X138725657Y-78531695D01*
X138725657Y-78531695D02*
X138630419Y-78484076D01*
X138630419Y-78484076D02*
X138582800Y-78436457D01*
X138582800Y-78436457D02*
X138535180Y-78341219D01*
X138535180Y-78341219D02*
X138535180Y-78198362D01*
X138535180Y-78960267D02*
X139201847Y-78960267D01*
X139011371Y-78960267D02*
X139106609Y-79007886D01*
X139106609Y-79007886D02*
X139154228Y-79055505D01*
X139154228Y-79055505D02*
X139201847Y-79150743D01*
X139201847Y-79150743D02*
X139201847Y-79245981D01*
X138535180Y-80865029D02*
X138535180Y-80293601D01*
X138535180Y-80579315D02*
X139535180Y-80579315D01*
X139535180Y-80579315D02*
X139392323Y-80484077D01*
X139392323Y-80484077D02*
X139297085Y-80388839D01*
X139297085Y-80388839D02*
X139249466Y-80293601D01*
X126791906Y-111720279D02*
X126791906Y-110910756D01*
X126791906Y-110910756D02*
X126744287Y-110815518D01*
X126744287Y-110815518D02*
X126696668Y-110767899D01*
X126696668Y-110767899D02*
X126601430Y-110720279D01*
X126601430Y-110720279D02*
X126410954Y-110720279D01*
X126410954Y-110720279D02*
X126315716Y-110767899D01*
X126315716Y-110767899D02*
X126268097Y-110815518D01*
X126268097Y-110815518D02*
X126220478Y-110910756D01*
X126220478Y-110910756D02*
X126220478Y-111720279D01*
X125839525Y-111720279D02*
X125220478Y-111720279D01*
X125220478Y-111720279D02*
X125553811Y-111339327D01*
X125553811Y-111339327D02*
X125410954Y-111339327D01*
X125410954Y-111339327D02*
X125315716Y-111291708D01*
X125315716Y-111291708D02*
X125268097Y-111244089D01*
X125268097Y-111244089D02*
X125220478Y-111148851D01*
X125220478Y-111148851D02*
X125220478Y-110910756D01*
X125220478Y-110910756D02*
X125268097Y-110815518D01*
X125268097Y-110815518D02*
X125315716Y-110767899D01*
X125315716Y-110767899D02*
X125410954Y-110720279D01*
X125410954Y-110720279D02*
X125696668Y-110720279D01*
X125696668Y-110720279D02*
X125791906Y-110767899D01*
X125791906Y-110767899D02*
X125839525Y-110815518D01*
D10*
X145093700Y-97726667D02*
X145046080Y-97869524D01*
X145046080Y-97869524D02*
X145046080Y-98107619D01*
X145046080Y-98107619D02*
X145093700Y-98202857D01*
X145093700Y-98202857D02*
X145141319Y-98250476D01*
X145141319Y-98250476D02*
X145236557Y-98298095D01*
X145236557Y-98298095D02*
X145331795Y-98298095D01*
X145331795Y-98298095D02*
X145427033Y-98250476D01*
X145427033Y-98250476D02*
X145474652Y-98202857D01*
X145474652Y-98202857D02*
X145522271Y-98107619D01*
X145522271Y-98107619D02*
X145569890Y-97917143D01*
X145569890Y-97917143D02*
X145617509Y-97821905D01*
X145617509Y-97821905D02*
X145665128Y-97774286D01*
X145665128Y-97774286D02*
X145760366Y-97726667D01*
X145760366Y-97726667D02*
X145855604Y-97726667D01*
X145855604Y-97726667D02*
X145950842Y-97774286D01*
X145950842Y-97774286D02*
X145998461Y-97821905D01*
X145998461Y-97821905D02*
X146046080Y-97917143D01*
X146046080Y-97917143D02*
X146046080Y-98155238D01*
X146046080Y-98155238D02*
X145998461Y-98298095D01*
X146046080Y-98631429D02*
X145046080Y-98869524D01*
X145046080Y-98869524D02*
X145760366Y-99060000D01*
X145760366Y-99060000D02*
X145046080Y-99250476D01*
X145046080Y-99250476D02*
X146046080Y-99488572D01*
X145046080Y-100393333D02*
X145046080Y-99821905D01*
X145046080Y-100107619D02*
X146046080Y-100107619D01*
X146046080Y-100107619D02*
X145903223Y-100012381D01*
X145903223Y-100012381D02*
X145807985Y-99917143D01*
X145807985Y-99917143D02*
X145760366Y-99821905D01*
D11*
X127686104Y-100316785D02*
X127724200Y-100354881D01*
X127724200Y-100354881D02*
X127762295Y-100469166D01*
X127762295Y-100469166D02*
X127762295Y-100545357D01*
X127762295Y-100545357D02*
X127724200Y-100659643D01*
X127724200Y-100659643D02*
X127648009Y-100735833D01*
X127648009Y-100735833D02*
X127571819Y-100773928D01*
X127571819Y-100773928D02*
X127419438Y-100812024D01*
X127419438Y-100812024D02*
X127305152Y-100812024D01*
X127305152Y-100812024D02*
X127152771Y-100773928D01*
X127152771Y-100773928D02*
X127076580Y-100735833D01*
X127076580Y-100735833D02*
X127000390Y-100659643D01*
X127000390Y-100659643D02*
X126962295Y-100545357D01*
X126962295Y-100545357D02*
X126962295Y-100469166D01*
X126962295Y-100469166D02*
X127000390Y-100354881D01*
X127000390Y-100354881D02*
X127038485Y-100316785D01*
X127762295Y-99554881D02*
X127762295Y-100012024D01*
X127762295Y-99783452D02*
X126962295Y-99783452D01*
X126962295Y-99783452D02*
X127076580Y-99859643D01*
X127076580Y-99859643D02*
X127152771Y-99935833D01*
X127152771Y-99935833D02*
X127190866Y-100012024D01*
X126962295Y-99288214D02*
X126962295Y-98792976D01*
X126962295Y-98792976D02*
X127267057Y-99059642D01*
X127267057Y-99059642D02*
X127267057Y-98945357D01*
X127267057Y-98945357D02*
X127305152Y-98869166D01*
X127305152Y-98869166D02*
X127343247Y-98831071D01*
X127343247Y-98831071D02*
X127419438Y-98792976D01*
X127419438Y-98792976D02*
X127609914Y-98792976D01*
X127609914Y-98792976D02*
X127686104Y-98831071D01*
X127686104Y-98831071D02*
X127724200Y-98869166D01*
X127724200Y-98869166D02*
X127762295Y-98945357D01*
X127762295Y-98945357D02*
X127762295Y-99173928D01*
X127762295Y-99173928D02*
X127724200Y-99250119D01*
X127724200Y-99250119D02*
X127686104Y-99288214D01*
X130048095Y-80328419D02*
X130048095Y-81137942D01*
X130048095Y-81137942D02*
X130095714Y-81233180D01*
X130095714Y-81233180D02*
X130143333Y-81280800D01*
X130143333Y-81280800D02*
X130238571Y-81328419D01*
X130238571Y-81328419D02*
X130429047Y-81328419D01*
X130429047Y-81328419D02*
X130524285Y-81280800D01*
X130524285Y-81280800D02*
X130571904Y-81233180D01*
X130571904Y-81233180D02*
X130619523Y-81137942D01*
X130619523Y-81137942D02*
X130619523Y-80328419D01*
X131048095Y-80423657D02*
X131095714Y-80376038D01*
X131095714Y-80376038D02*
X131190952Y-80328419D01*
X131190952Y-80328419D02*
X131429047Y-80328419D01*
X131429047Y-80328419D02*
X131524285Y-80376038D01*
X131524285Y-80376038D02*
X131571904Y-80423657D01*
X131571904Y-80423657D02*
X131619523Y-80518895D01*
X131619523Y-80518895D02*
X131619523Y-80614133D01*
X131619523Y-80614133D02*
X131571904Y-80756990D01*
X131571904Y-80756990D02*
X131000476Y-81328419D01*
X131000476Y-81328419D02*
X131619523Y-81328419D01*
X127774700Y-79078104D02*
X127774700Y-79316199D01*
X127536605Y-79220961D02*
X127774700Y-79316199D01*
X127774700Y-79316199D02*
X128012795Y-79220961D01*
X127631843Y-79506675D02*
X127774700Y-79316199D01*
X127774700Y-79316199D02*
X127917557Y-79506675D01*
X109760475Y-51610419D02*
X109760475Y-50610419D01*
X109760475Y-50610419D02*
X110093808Y-51324704D01*
X110093808Y-51324704D02*
X110427141Y-50610419D01*
X110427141Y-50610419D02*
X110427141Y-51610419D01*
X111046189Y-51610419D02*
X110950951Y-51562800D01*
X110950951Y-51562800D02*
X110903332Y-51515180D01*
X110903332Y-51515180D02*
X110855713Y-51419942D01*
X110855713Y-51419942D02*
X110855713Y-51134228D01*
X110855713Y-51134228D02*
X110903332Y-51038990D01*
X110903332Y-51038990D02*
X110950951Y-50991371D01*
X110950951Y-50991371D02*
X111046189Y-50943752D01*
X111046189Y-50943752D02*
X111189046Y-50943752D01*
X111189046Y-50943752D02*
X111284284Y-50991371D01*
X111284284Y-50991371D02*
X111331903Y-51038990D01*
X111331903Y-51038990D02*
X111379522Y-51134228D01*
X111379522Y-51134228D02*
X111379522Y-51419942D01*
X111379522Y-51419942D02*
X111331903Y-51515180D01*
X111331903Y-51515180D02*
X111284284Y-51562800D01*
X111284284Y-51562800D02*
X111189046Y-51610419D01*
X111189046Y-51610419D02*
X111046189Y-51610419D01*
X111808094Y-51610419D02*
X111808094Y-50943752D01*
X111808094Y-50610419D02*
X111760475Y-50658038D01*
X111760475Y-50658038D02*
X111808094Y-50705657D01*
X111808094Y-50705657D02*
X111855713Y-50658038D01*
X111855713Y-50658038D02*
X111808094Y-50610419D01*
X111808094Y-50610419D02*
X111808094Y-50705657D01*
X112236665Y-51562800D02*
X112331903Y-51610419D01*
X112331903Y-51610419D02*
X112522379Y-51610419D01*
X112522379Y-51610419D02*
X112617617Y-51562800D01*
X112617617Y-51562800D02*
X112665236Y-51467561D01*
X112665236Y-51467561D02*
X112665236Y-51419942D01*
X112665236Y-51419942D02*
X112617617Y-51324704D01*
X112617617Y-51324704D02*
X112522379Y-51277085D01*
X112522379Y-51277085D02*
X112379522Y-51277085D01*
X112379522Y-51277085D02*
X112284284Y-51229466D01*
X112284284Y-51229466D02*
X112236665Y-51134228D01*
X112236665Y-51134228D02*
X112236665Y-51086609D01*
X112236665Y-51086609D02*
X112284284Y-50991371D01*
X112284284Y-50991371D02*
X112379522Y-50943752D01*
X112379522Y-50943752D02*
X112522379Y-50943752D01*
X112522379Y-50943752D02*
X112617617Y-50991371D01*
X112950951Y-50943752D02*
X113331903Y-50943752D01*
X113093808Y-50610419D02*
X113093808Y-51467561D01*
X113093808Y-51467561D02*
X113141427Y-51562800D01*
X113141427Y-51562800D02*
X113236665Y-51610419D01*
X113236665Y-51610419D02*
X113331903Y-51610419D01*
X114093808Y-50943752D02*
X114093808Y-51610419D01*
X113665237Y-50943752D02*
X113665237Y-51467561D01*
X113665237Y-51467561D02*
X113712856Y-51562800D01*
X113712856Y-51562800D02*
X113808094Y-51610419D01*
X113808094Y-51610419D02*
X113950951Y-51610419D01*
X113950951Y-51610419D02*
X114046189Y-51562800D01*
X114046189Y-51562800D02*
X114093808Y-51515180D01*
X114569999Y-51610419D02*
X114569999Y-50943752D01*
X114569999Y-51134228D02*
X114617618Y-51038990D01*
X114617618Y-51038990D02*
X114665237Y-50991371D01*
X114665237Y-50991371D02*
X114760475Y-50943752D01*
X114760475Y-50943752D02*
X114855713Y-50943752D01*
X115569999Y-51562800D02*
X115474761Y-51610419D01*
X115474761Y-51610419D02*
X115284285Y-51610419D01*
X115284285Y-51610419D02*
X115189047Y-51562800D01*
X115189047Y-51562800D02*
X115141428Y-51467561D01*
X115141428Y-51467561D02*
X115141428Y-51086609D01*
X115141428Y-51086609D02*
X115189047Y-50991371D01*
X115189047Y-50991371D02*
X115284285Y-50943752D01*
X115284285Y-50943752D02*
X115474761Y-50943752D01*
X115474761Y-50943752D02*
X115569999Y-50991371D01*
X115569999Y-50991371D02*
X115617618Y-51086609D01*
X115617618Y-51086609D02*
X115617618Y-51181847D01*
X115617618Y-51181847D02*
X115141428Y-51277085D01*
X116760476Y-51562800D02*
X116903333Y-51610419D01*
X116903333Y-51610419D02*
X117141428Y-51610419D01*
X117141428Y-51610419D02*
X117236666Y-51562800D01*
X117236666Y-51562800D02*
X117284285Y-51515180D01*
X117284285Y-51515180D02*
X117331904Y-51419942D01*
X117331904Y-51419942D02*
X117331904Y-51324704D01*
X117331904Y-51324704D02*
X117284285Y-51229466D01*
X117284285Y-51229466D02*
X117236666Y-51181847D01*
X117236666Y-51181847D02*
X117141428Y-51134228D01*
X117141428Y-51134228D02*
X116950952Y-51086609D01*
X116950952Y-51086609D02*
X116855714Y-51038990D01*
X116855714Y-51038990D02*
X116808095Y-50991371D01*
X116808095Y-50991371D02*
X116760476Y-50896133D01*
X116760476Y-50896133D02*
X116760476Y-50800895D01*
X116760476Y-50800895D02*
X116808095Y-50705657D01*
X116808095Y-50705657D02*
X116855714Y-50658038D01*
X116855714Y-50658038D02*
X116950952Y-50610419D01*
X116950952Y-50610419D02*
X117189047Y-50610419D01*
X117189047Y-50610419D02*
X117331904Y-50658038D01*
X118141428Y-51562800D02*
X118046190Y-51610419D01*
X118046190Y-51610419D02*
X117855714Y-51610419D01*
X117855714Y-51610419D02*
X117760476Y-51562800D01*
X117760476Y-51562800D02*
X117712857Y-51467561D01*
X117712857Y-51467561D02*
X117712857Y-51086609D01*
X117712857Y-51086609D02*
X117760476Y-50991371D01*
X117760476Y-50991371D02*
X117855714Y-50943752D01*
X117855714Y-50943752D02*
X118046190Y-50943752D01*
X118046190Y-50943752D02*
X118141428Y-50991371D01*
X118141428Y-50991371D02*
X118189047Y-51086609D01*
X118189047Y-51086609D02*
X118189047Y-51181847D01*
X118189047Y-51181847D02*
X117712857Y-51277085D01*
X118617619Y-50943752D02*
X118617619Y-51610419D01*
X118617619Y-51038990D02*
X118665238Y-50991371D01*
X118665238Y-50991371D02*
X118760476Y-50943752D01*
X118760476Y-50943752D02*
X118903333Y-50943752D01*
X118903333Y-50943752D02*
X118998571Y-50991371D01*
X118998571Y-50991371D02*
X119046190Y-51086609D01*
X119046190Y-51086609D02*
X119046190Y-51610419D01*
X119474762Y-51562800D02*
X119570000Y-51610419D01*
X119570000Y-51610419D02*
X119760476Y-51610419D01*
X119760476Y-51610419D02*
X119855714Y-51562800D01*
X119855714Y-51562800D02*
X119903333Y-51467561D01*
X119903333Y-51467561D02*
X119903333Y-51419942D01*
X119903333Y-51419942D02*
X119855714Y-51324704D01*
X119855714Y-51324704D02*
X119760476Y-51277085D01*
X119760476Y-51277085D02*
X119617619Y-51277085D01*
X119617619Y-51277085D02*
X119522381Y-51229466D01*
X119522381Y-51229466D02*
X119474762Y-51134228D01*
X119474762Y-51134228D02*
X119474762Y-51086609D01*
X119474762Y-51086609D02*
X119522381Y-50991371D01*
X119522381Y-50991371D02*
X119617619Y-50943752D01*
X119617619Y-50943752D02*
X119760476Y-50943752D01*
X119760476Y-50943752D02*
X119855714Y-50991371D01*
X120474762Y-51610419D02*
X120379524Y-51562800D01*
X120379524Y-51562800D02*
X120331905Y-51515180D01*
X120331905Y-51515180D02*
X120284286Y-51419942D01*
X120284286Y-51419942D02*
X120284286Y-51134228D01*
X120284286Y-51134228D02*
X120331905Y-51038990D01*
X120331905Y-51038990D02*
X120379524Y-50991371D01*
X120379524Y-50991371D02*
X120474762Y-50943752D01*
X120474762Y-50943752D02*
X120617619Y-50943752D01*
X120617619Y-50943752D02*
X120712857Y-50991371D01*
X120712857Y-50991371D02*
X120760476Y-51038990D01*
X120760476Y-51038990D02*
X120808095Y-51134228D01*
X120808095Y-51134228D02*
X120808095Y-51419942D01*
X120808095Y-51419942D02*
X120760476Y-51515180D01*
X120760476Y-51515180D02*
X120712857Y-51562800D01*
X120712857Y-51562800D02*
X120617619Y-51610419D01*
X120617619Y-51610419D02*
X120474762Y-51610419D01*
X121236667Y-51610419D02*
X121236667Y-50943752D01*
X121236667Y-51134228D02*
X121284286Y-51038990D01*
X121284286Y-51038990D02*
X121331905Y-50991371D01*
X121331905Y-50991371D02*
X121427143Y-50943752D01*
X121427143Y-50943752D02*
X121522381Y-50943752D01*
X128294133Y-59586019D02*
X127960800Y-59109828D01*
X127722705Y-59586019D02*
X127722705Y-58586019D01*
X127722705Y-58586019D02*
X128103657Y-58586019D01*
X128103657Y-58586019D02*
X128198895Y-58633638D01*
X128198895Y-58633638D02*
X128246514Y-58681257D01*
X128246514Y-58681257D02*
X128294133Y-58776495D01*
X128294133Y-58776495D02*
X128294133Y-58919352D01*
X128294133Y-58919352D02*
X128246514Y-59014590D01*
X128246514Y-59014590D02*
X128198895Y-59062209D01*
X128198895Y-59062209D02*
X128103657Y-59109828D01*
X128103657Y-59109828D02*
X127722705Y-59109828D01*
X128627467Y-58586019D02*
X129294133Y-58586019D01*
X129294133Y-58586019D02*
X128865562Y-59586019D01*
X135849580Y-86126666D02*
X135897200Y-86174285D01*
X135897200Y-86174285D02*
X135944819Y-86317142D01*
X135944819Y-86317142D02*
X135944819Y-86412380D01*
X135944819Y-86412380D02*
X135897200Y-86555237D01*
X135897200Y-86555237D02*
X135801961Y-86650475D01*
X135801961Y-86650475D02*
X135706723Y-86698094D01*
X135706723Y-86698094D02*
X135516247Y-86745713D01*
X135516247Y-86745713D02*
X135373390Y-86745713D01*
X135373390Y-86745713D02*
X135182914Y-86698094D01*
X135182914Y-86698094D02*
X135087676Y-86650475D01*
X135087676Y-86650475D02*
X134992438Y-86555237D01*
X134992438Y-86555237D02*
X134944819Y-86412380D01*
X134944819Y-86412380D02*
X134944819Y-86317142D01*
X134944819Y-86317142D02*
X134992438Y-86174285D01*
X134992438Y-86174285D02*
X135040057Y-86126666D01*
X134944819Y-85269523D02*
X134944819Y-85459999D01*
X134944819Y-85459999D02*
X134992438Y-85555237D01*
X134992438Y-85555237D02*
X135040057Y-85602856D01*
X135040057Y-85602856D02*
X135182914Y-85698094D01*
X135182914Y-85698094D02*
X135373390Y-85745713D01*
X135373390Y-85745713D02*
X135754342Y-85745713D01*
X135754342Y-85745713D02*
X135849580Y-85698094D01*
X135849580Y-85698094D02*
X135897200Y-85650475D01*
X135897200Y-85650475D02*
X135944819Y-85555237D01*
X135944819Y-85555237D02*
X135944819Y-85364761D01*
X135944819Y-85364761D02*
X135897200Y-85269523D01*
X135897200Y-85269523D02*
X135849580Y-85221904D01*
X135849580Y-85221904D02*
X135754342Y-85174285D01*
X135754342Y-85174285D02*
X135516247Y-85174285D01*
X135516247Y-85174285D02*
X135421009Y-85221904D01*
X135421009Y-85221904D02*
X135373390Y-85269523D01*
X135373390Y-85269523D02*
X135325771Y-85364761D01*
X135325771Y-85364761D02*
X135325771Y-85555237D01*
X135325771Y-85555237D02*
X135373390Y-85650475D01*
X135373390Y-85650475D02*
X135421009Y-85698094D01*
X135421009Y-85698094D02*
X135516247Y-85745713D01*
D10*
X110738895Y-95753285D02*
X110357942Y-96019952D01*
X110738895Y-96210428D02*
X109938895Y-96210428D01*
X109938895Y-96210428D02*
X109938895Y-95905666D01*
X109938895Y-95905666D02*
X109976990Y-95829476D01*
X109976990Y-95829476D02*
X110015085Y-95791381D01*
X110015085Y-95791381D02*
X110091276Y-95753285D01*
X110091276Y-95753285D02*
X110205561Y-95753285D01*
X110205561Y-95753285D02*
X110281752Y-95791381D01*
X110281752Y-95791381D02*
X110319847Y-95829476D01*
X110319847Y-95829476D02*
X110357942Y-95905666D01*
X110357942Y-95905666D02*
X110357942Y-96210428D01*
X110738895Y-94991381D02*
X110738895Y-95448524D01*
X110738895Y-95219952D02*
X109938895Y-95219952D01*
X109938895Y-95219952D02*
X110053180Y-95296143D01*
X110053180Y-95296143D02*
X110129371Y-95372333D01*
X110129371Y-95372333D02*
X110167466Y-95448524D01*
X110205561Y-94305666D02*
X110738895Y-94305666D01*
X109900800Y-94496142D02*
X110472228Y-94686619D01*
X110472228Y-94686619D02*
X110472228Y-94191380D01*
D11*
X100452819Y-85270933D02*
X101167104Y-85270933D01*
X101167104Y-85270933D02*
X101309961Y-85318552D01*
X101309961Y-85318552D02*
X101405200Y-85413790D01*
X101405200Y-85413790D02*
X101452819Y-85556647D01*
X101452819Y-85556647D02*
X101452819Y-85651885D01*
X100881390Y-84651885D02*
X100833771Y-84747123D01*
X100833771Y-84747123D02*
X100786152Y-84794742D01*
X100786152Y-84794742D02*
X100690914Y-84842361D01*
X100690914Y-84842361D02*
X100643295Y-84842361D01*
X100643295Y-84842361D02*
X100548057Y-84794742D01*
X100548057Y-84794742D02*
X100500438Y-84747123D01*
X100500438Y-84747123D02*
X100452819Y-84651885D01*
X100452819Y-84651885D02*
X100452819Y-84461409D01*
X100452819Y-84461409D02*
X100500438Y-84366171D01*
X100500438Y-84366171D02*
X100548057Y-84318552D01*
X100548057Y-84318552D02*
X100643295Y-84270933D01*
X100643295Y-84270933D02*
X100690914Y-84270933D01*
X100690914Y-84270933D02*
X100786152Y-84318552D01*
X100786152Y-84318552D02*
X100833771Y-84366171D01*
X100833771Y-84366171D02*
X100881390Y-84461409D01*
X100881390Y-84461409D02*
X100881390Y-84651885D01*
X100881390Y-84651885D02*
X100929009Y-84747123D01*
X100929009Y-84747123D02*
X100976628Y-84794742D01*
X100976628Y-84794742D02*
X101071866Y-84842361D01*
X101071866Y-84842361D02*
X101262342Y-84842361D01*
X101262342Y-84842361D02*
X101357580Y-84794742D01*
X101357580Y-84794742D02*
X101405200Y-84747123D01*
X101405200Y-84747123D02*
X101452819Y-84651885D01*
X101452819Y-84651885D02*
X101452819Y-84461409D01*
X101452819Y-84461409D02*
X101405200Y-84366171D01*
X101405200Y-84366171D02*
X101357580Y-84318552D01*
X101357580Y-84318552D02*
X101262342Y-84270933D01*
X101262342Y-84270933D02*
X101071866Y-84270933D01*
X101071866Y-84270933D02*
X100976628Y-84318552D01*
X100976628Y-84318552D02*
X100929009Y-84366171D01*
X100929009Y-84366171D02*
X100881390Y-84461409D01*
X135553675Y-51086609D02*
X135220342Y-51086609D01*
X135220342Y-51610419D02*
X135220342Y-50610419D01*
X135220342Y-50610419D02*
X135696532Y-50610419D01*
X136220342Y-51610419D02*
X136125104Y-51562800D01*
X136125104Y-51562800D02*
X136077485Y-51467561D01*
X136077485Y-51467561D02*
X136077485Y-50610419D01*
X136982247Y-51562800D02*
X136887009Y-51610419D01*
X136887009Y-51610419D02*
X136696533Y-51610419D01*
X136696533Y-51610419D02*
X136601295Y-51562800D01*
X136601295Y-51562800D02*
X136553676Y-51467561D01*
X136553676Y-51467561D02*
X136553676Y-51086609D01*
X136553676Y-51086609D02*
X136601295Y-50991371D01*
X136601295Y-50991371D02*
X136696533Y-50943752D01*
X136696533Y-50943752D02*
X136887009Y-50943752D01*
X136887009Y-50943752D02*
X136982247Y-50991371D01*
X136982247Y-50991371D02*
X137029866Y-51086609D01*
X137029866Y-51086609D02*
X137029866Y-51181847D01*
X137029866Y-51181847D02*
X136553676Y-51277085D01*
X137363200Y-51610419D02*
X137887009Y-50943752D01*
X137363200Y-50943752D02*
X137887009Y-51610419D01*
X139553676Y-51610419D02*
X138982248Y-51610419D01*
X139267962Y-51610419D02*
X139267962Y-50610419D01*
X139267962Y-50610419D02*
X139172724Y-50753276D01*
X139172724Y-50753276D02*
X139077486Y-50848514D01*
X139077486Y-50848514D02*
X138982248Y-50896133D01*
X109028819Y-109121857D02*
X108552628Y-109455190D01*
X109028819Y-109693285D02*
X108028819Y-109693285D01*
X108028819Y-109693285D02*
X108028819Y-109312333D01*
X108028819Y-109312333D02*
X108076438Y-109217095D01*
X108076438Y-109217095D02*
X108124057Y-109169476D01*
X108124057Y-109169476D02*
X108219295Y-109121857D01*
X108219295Y-109121857D02*
X108362152Y-109121857D01*
X108362152Y-109121857D02*
X108457390Y-109169476D01*
X108457390Y-109169476D02*
X108505009Y-109217095D01*
X108505009Y-109217095D02*
X108552628Y-109312333D01*
X108552628Y-109312333D02*
X108552628Y-109693285D01*
X109028819Y-108169476D02*
X109028819Y-108740904D01*
X109028819Y-108455190D02*
X108028819Y-108455190D01*
X108028819Y-108455190D02*
X108171676Y-108550428D01*
X108171676Y-108550428D02*
X108266914Y-108645666D01*
X108266914Y-108645666D02*
X108314533Y-108740904D01*
X109028819Y-107693285D02*
X109028819Y-107502809D01*
X109028819Y-107502809D02*
X108981200Y-107407571D01*
X108981200Y-107407571D02*
X108933580Y-107359952D01*
X108933580Y-107359952D02*
X108790723Y-107264714D01*
X108790723Y-107264714D02*
X108600247Y-107217095D01*
X108600247Y-107217095D02*
X108219295Y-107217095D01*
X108219295Y-107217095D02*
X108124057Y-107264714D01*
X108124057Y-107264714D02*
X108076438Y-107312333D01*
X108076438Y-107312333D02*
X108028819Y-107407571D01*
X108028819Y-107407571D02*
X108028819Y-107598047D01*
X108028819Y-107598047D02*
X108076438Y-107693285D01*
X108076438Y-107693285D02*
X108124057Y-107740904D01*
X108124057Y-107740904D02*
X108219295Y-107788523D01*
X108219295Y-107788523D02*
X108457390Y-107788523D01*
X108457390Y-107788523D02*
X108552628Y-107740904D01*
X108552628Y-107740904D02*
X108600247Y-107693285D01*
X108600247Y-107693285D02*
X108647866Y-107598047D01*
X108647866Y-107598047D02*
X108647866Y-107407571D01*
X108647866Y-107407571D02*
X108600247Y-107312333D01*
X108600247Y-107312333D02*
X108552628Y-107264714D01*
X108552628Y-107264714D02*
X108457390Y-107217095D01*
D10*
X110640704Y-100753285D02*
X110678800Y-100791381D01*
X110678800Y-100791381D02*
X110716895Y-100905666D01*
X110716895Y-100905666D02*
X110716895Y-100981857D01*
X110716895Y-100981857D02*
X110678800Y-101096143D01*
X110678800Y-101096143D02*
X110602609Y-101172333D01*
X110602609Y-101172333D02*
X110526419Y-101210428D01*
X110526419Y-101210428D02*
X110374038Y-101248524D01*
X110374038Y-101248524D02*
X110259752Y-101248524D01*
X110259752Y-101248524D02*
X110107371Y-101210428D01*
X110107371Y-101210428D02*
X110031180Y-101172333D01*
X110031180Y-101172333D02*
X109954990Y-101096143D01*
X109954990Y-101096143D02*
X109916895Y-100981857D01*
X109916895Y-100981857D02*
X109916895Y-100905666D01*
X109916895Y-100905666D02*
X109954990Y-100791381D01*
X109954990Y-100791381D02*
X109993085Y-100753285D01*
X110716895Y-99991381D02*
X110716895Y-100448524D01*
X110716895Y-100219952D02*
X109916895Y-100219952D01*
X109916895Y-100219952D02*
X110031180Y-100296143D01*
X110031180Y-100296143D02*
X110107371Y-100372333D01*
X110107371Y-100372333D02*
X110145466Y-100448524D01*
X109916895Y-99496142D02*
X109916895Y-99419952D01*
X109916895Y-99419952D02*
X109954990Y-99343761D01*
X109954990Y-99343761D02*
X109993085Y-99305666D01*
X109993085Y-99305666D02*
X110069276Y-99267571D01*
X110069276Y-99267571D02*
X110221657Y-99229476D01*
X110221657Y-99229476D02*
X110412133Y-99229476D01*
X110412133Y-99229476D02*
X110564514Y-99267571D01*
X110564514Y-99267571D02*
X110640704Y-99305666D01*
X110640704Y-99305666D02*
X110678800Y-99343761D01*
X110678800Y-99343761D02*
X110716895Y-99419952D01*
X110716895Y-99419952D02*
X110716895Y-99496142D01*
X110716895Y-99496142D02*
X110678800Y-99572333D01*
X110678800Y-99572333D02*
X110640704Y-99610428D01*
X110640704Y-99610428D02*
X110564514Y-99648523D01*
X110564514Y-99648523D02*
X110412133Y-99686619D01*
X110412133Y-99686619D02*
X110221657Y-99686619D01*
X110221657Y-99686619D02*
X110069276Y-99648523D01*
X110069276Y-99648523D02*
X109993085Y-99610428D01*
X109993085Y-99610428D02*
X109954990Y-99572333D01*
X109954990Y-99572333D02*
X109916895Y-99496142D01*
D11*
X124936475Y-51086609D02*
X124603142Y-51086609D01*
X124603142Y-51610419D02*
X124603142Y-50610419D01*
X124603142Y-50610419D02*
X125079332Y-50610419D01*
X125603142Y-51610419D02*
X125507904Y-51562800D01*
X125507904Y-51562800D02*
X125460285Y-51467561D01*
X125460285Y-51467561D02*
X125460285Y-50610419D01*
X126365047Y-51562800D02*
X126269809Y-51610419D01*
X126269809Y-51610419D02*
X126079333Y-51610419D01*
X126079333Y-51610419D02*
X125984095Y-51562800D01*
X125984095Y-51562800D02*
X125936476Y-51467561D01*
X125936476Y-51467561D02*
X125936476Y-51086609D01*
X125936476Y-51086609D02*
X125984095Y-50991371D01*
X125984095Y-50991371D02*
X126079333Y-50943752D01*
X126079333Y-50943752D02*
X126269809Y-50943752D01*
X126269809Y-50943752D02*
X126365047Y-50991371D01*
X126365047Y-50991371D02*
X126412666Y-51086609D01*
X126412666Y-51086609D02*
X126412666Y-51181847D01*
X126412666Y-51181847D02*
X125936476Y-51277085D01*
X126746000Y-51610419D02*
X127269809Y-50943752D01*
X126746000Y-50943752D02*
X127269809Y-51610419D01*
X128365048Y-50705657D02*
X128412667Y-50658038D01*
X128412667Y-50658038D02*
X128507905Y-50610419D01*
X128507905Y-50610419D02*
X128746000Y-50610419D01*
X128746000Y-50610419D02*
X128841238Y-50658038D01*
X128841238Y-50658038D02*
X128888857Y-50705657D01*
X128888857Y-50705657D02*
X128936476Y-50800895D01*
X128936476Y-50800895D02*
X128936476Y-50896133D01*
X128936476Y-50896133D02*
X128888857Y-51038990D01*
X128888857Y-51038990D02*
X128317429Y-51610419D01*
X128317429Y-51610419D02*
X128936476Y-51610419D01*
X94861142Y-83004819D02*
X94527809Y-82528628D01*
X94289714Y-83004819D02*
X94289714Y-82004819D01*
X94289714Y-82004819D02*
X94670666Y-82004819D01*
X94670666Y-82004819D02*
X94765904Y-82052438D01*
X94765904Y-82052438D02*
X94813523Y-82100057D01*
X94813523Y-82100057D02*
X94861142Y-82195295D01*
X94861142Y-82195295D02*
X94861142Y-82338152D01*
X94861142Y-82338152D02*
X94813523Y-82433390D01*
X94813523Y-82433390D02*
X94765904Y-82481009D01*
X94765904Y-82481009D02*
X94670666Y-82528628D01*
X94670666Y-82528628D02*
X94289714Y-82528628D01*
X95242095Y-82100057D02*
X95289714Y-82052438D01*
X95289714Y-82052438D02*
X95384952Y-82004819D01*
X95384952Y-82004819D02*
X95623047Y-82004819D01*
X95623047Y-82004819D02*
X95718285Y-82052438D01*
X95718285Y-82052438D02*
X95765904Y-82100057D01*
X95765904Y-82100057D02*
X95813523Y-82195295D01*
X95813523Y-82195295D02*
X95813523Y-82290533D01*
X95813523Y-82290533D02*
X95765904Y-82433390D01*
X95765904Y-82433390D02*
X95194476Y-83004819D01*
X95194476Y-83004819D02*
X95813523Y-83004819D01*
X96432571Y-82004819D02*
X96527809Y-82004819D01*
X96527809Y-82004819D02*
X96623047Y-82052438D01*
X96623047Y-82052438D02*
X96670666Y-82100057D01*
X96670666Y-82100057D02*
X96718285Y-82195295D01*
X96718285Y-82195295D02*
X96765904Y-82385771D01*
X96765904Y-82385771D02*
X96765904Y-82623866D01*
X96765904Y-82623866D02*
X96718285Y-82814342D01*
X96718285Y-82814342D02*
X96670666Y-82909580D01*
X96670666Y-82909580D02*
X96623047Y-82957200D01*
X96623047Y-82957200D02*
X96527809Y-83004819D01*
X96527809Y-83004819D02*
X96432571Y-83004819D01*
X96432571Y-83004819D02*
X96337333Y-82957200D01*
X96337333Y-82957200D02*
X96289714Y-82909580D01*
X96289714Y-82909580D02*
X96242095Y-82814342D01*
X96242095Y-82814342D02*
X96194476Y-82623866D01*
X96194476Y-82623866D02*
X96194476Y-82385771D01*
X96194476Y-82385771D02*
X96242095Y-82195295D01*
X96242095Y-82195295D02*
X96289714Y-82100057D01*
X96289714Y-82100057D02*
X96337333Y-82052438D01*
X96337333Y-82052438D02*
X96432571Y-82004819D01*
X129552343Y-86361566D02*
X129599963Y-86409185D01*
X129599963Y-86409185D02*
X129647582Y-86552042D01*
X129647582Y-86552042D02*
X129647582Y-86647280D01*
X129647582Y-86647280D02*
X129599963Y-86790137D01*
X129599963Y-86790137D02*
X129504724Y-86885375D01*
X129504724Y-86885375D02*
X129409486Y-86932994D01*
X129409486Y-86932994D02*
X129219010Y-86980613D01*
X129219010Y-86980613D02*
X129076153Y-86980613D01*
X129076153Y-86980613D02*
X128885677Y-86932994D01*
X128885677Y-86932994D02*
X128790439Y-86885375D01*
X128790439Y-86885375D02*
X128695201Y-86790137D01*
X128695201Y-86790137D02*
X128647582Y-86647280D01*
X128647582Y-86647280D02*
X128647582Y-86552042D01*
X128647582Y-86552042D02*
X128695201Y-86409185D01*
X128695201Y-86409185D02*
X128742820Y-86361566D01*
X128647582Y-85456804D02*
X128647582Y-85932994D01*
X128647582Y-85932994D02*
X129123772Y-85980613D01*
X129123772Y-85980613D02*
X129076153Y-85932994D01*
X129076153Y-85932994D02*
X129028534Y-85837756D01*
X129028534Y-85837756D02*
X129028534Y-85599661D01*
X129028534Y-85599661D02*
X129076153Y-85504423D01*
X129076153Y-85504423D02*
X129123772Y-85456804D01*
X129123772Y-85456804D02*
X129219010Y-85409185D01*
X129219010Y-85409185D02*
X129457105Y-85409185D01*
X129457105Y-85409185D02*
X129552343Y-85456804D01*
X129552343Y-85456804D02*
X129599963Y-85504423D01*
X129599963Y-85504423D02*
X129647582Y-85599661D01*
X129647582Y-85599661D02*
X129647582Y-85837756D01*
X129647582Y-85837756D02*
X129599963Y-85932994D01*
X129599963Y-85932994D02*
X129552343Y-85980613D01*
X104841080Y-108609166D02*
X104888700Y-108656785D01*
X104888700Y-108656785D02*
X104936319Y-108799642D01*
X104936319Y-108799642D02*
X104936319Y-108894880D01*
X104936319Y-108894880D02*
X104888700Y-109037737D01*
X104888700Y-109037737D02*
X104793461Y-109132975D01*
X104793461Y-109132975D02*
X104698223Y-109180594D01*
X104698223Y-109180594D02*
X104507747Y-109228213D01*
X104507747Y-109228213D02*
X104364890Y-109228213D01*
X104364890Y-109228213D02*
X104174414Y-109180594D01*
X104174414Y-109180594D02*
X104079176Y-109132975D01*
X104079176Y-109132975D02*
X103983938Y-109037737D01*
X103983938Y-109037737D02*
X103936319Y-108894880D01*
X103936319Y-108894880D02*
X103936319Y-108799642D01*
X103936319Y-108799642D02*
X103983938Y-108656785D01*
X103983938Y-108656785D02*
X104031557Y-108609166D01*
X104364890Y-108037737D02*
X104317271Y-108132975D01*
X104317271Y-108132975D02*
X104269652Y-108180594D01*
X104269652Y-108180594D02*
X104174414Y-108228213D01*
X104174414Y-108228213D02*
X104126795Y-108228213D01*
X104126795Y-108228213D02*
X104031557Y-108180594D01*
X104031557Y-108180594D02*
X103983938Y-108132975D01*
X103983938Y-108132975D02*
X103936319Y-108037737D01*
X103936319Y-108037737D02*
X103936319Y-107847261D01*
X103936319Y-107847261D02*
X103983938Y-107752023D01*
X103983938Y-107752023D02*
X104031557Y-107704404D01*
X104031557Y-107704404D02*
X104126795Y-107656785D01*
X104126795Y-107656785D02*
X104174414Y-107656785D01*
X104174414Y-107656785D02*
X104269652Y-107704404D01*
X104269652Y-107704404D02*
X104317271Y-107752023D01*
X104317271Y-107752023D02*
X104364890Y-107847261D01*
X104364890Y-107847261D02*
X104364890Y-108037737D01*
X104364890Y-108037737D02*
X104412509Y-108132975D01*
X104412509Y-108132975D02*
X104460128Y-108180594D01*
X104460128Y-108180594D02*
X104555366Y-108228213D01*
X104555366Y-108228213D02*
X104745842Y-108228213D01*
X104745842Y-108228213D02*
X104841080Y-108180594D01*
X104841080Y-108180594D02*
X104888700Y-108132975D01*
X104888700Y-108132975D02*
X104936319Y-108037737D01*
X104936319Y-108037737D02*
X104936319Y-107847261D01*
X104936319Y-107847261D02*
X104888700Y-107752023D01*
X104888700Y-107752023D02*
X104841080Y-107704404D01*
X104841080Y-107704404D02*
X104745842Y-107656785D01*
X104745842Y-107656785D02*
X104555366Y-107656785D01*
X104555366Y-107656785D02*
X104460128Y-107704404D01*
X104460128Y-107704404D02*
X104412509Y-107752023D01*
X104412509Y-107752023D02*
X104364890Y-107847261D01*
X130643333Y-62227619D02*
X130310000Y-61751428D01*
X130071905Y-62227619D02*
X130071905Y-61227619D01*
X130071905Y-61227619D02*
X130452857Y-61227619D01*
X130452857Y-61227619D02*
X130548095Y-61275238D01*
X130548095Y-61275238D02*
X130595714Y-61322857D01*
X130595714Y-61322857D02*
X130643333Y-61418095D01*
X130643333Y-61418095D02*
X130643333Y-61560952D01*
X130643333Y-61560952D02*
X130595714Y-61656190D01*
X130595714Y-61656190D02*
X130548095Y-61703809D01*
X130548095Y-61703809D02*
X130452857Y-61751428D01*
X130452857Y-61751428D02*
X130071905Y-61751428D01*
X131500476Y-61227619D02*
X131310000Y-61227619D01*
X131310000Y-61227619D02*
X131214762Y-61275238D01*
X131214762Y-61275238D02*
X131167143Y-61322857D01*
X131167143Y-61322857D02*
X131071905Y-61465714D01*
X131071905Y-61465714D02*
X131024286Y-61656190D01*
X131024286Y-61656190D02*
X131024286Y-62037142D01*
X131024286Y-62037142D02*
X131071905Y-62132380D01*
X131071905Y-62132380D02*
X131119524Y-62180000D01*
X131119524Y-62180000D02*
X131214762Y-62227619D01*
X131214762Y-62227619D02*
X131405238Y-62227619D01*
X131405238Y-62227619D02*
X131500476Y-62180000D01*
X131500476Y-62180000D02*
X131548095Y-62132380D01*
X131548095Y-62132380D02*
X131595714Y-62037142D01*
X131595714Y-62037142D02*
X131595714Y-61799047D01*
X131595714Y-61799047D02*
X131548095Y-61703809D01*
X131548095Y-61703809D02*
X131500476Y-61656190D01*
X131500476Y-61656190D02*
X131405238Y-61608571D01*
X131405238Y-61608571D02*
X131214762Y-61608571D01*
X131214762Y-61608571D02*
X131119524Y-61656190D01*
X131119524Y-61656190D02*
X131071905Y-61703809D01*
X131071905Y-61703809D02*
X131024286Y-61799047D01*
X99176095Y-90013819D02*
X99176095Y-90823342D01*
X99176095Y-90823342D02*
X99223714Y-90918580D01*
X99223714Y-90918580D02*
X99271333Y-90966200D01*
X99271333Y-90966200D02*
X99366571Y-91013819D01*
X99366571Y-91013819D02*
X99557047Y-91013819D01*
X99557047Y-91013819D02*
X99652285Y-90966200D01*
X99652285Y-90966200D02*
X99699904Y-90918580D01*
X99699904Y-90918580D02*
X99747523Y-90823342D01*
X99747523Y-90823342D02*
X99747523Y-90013819D01*
X100652285Y-90347152D02*
X100652285Y-91013819D01*
X100414190Y-89966200D02*
X100176095Y-90680485D01*
X100176095Y-90680485D02*
X100795142Y-90680485D01*
D10*
X118961067Y-88243000D02*
X119103924Y-88290619D01*
X119103924Y-88290619D02*
X119342019Y-88290619D01*
X119342019Y-88290619D02*
X119437257Y-88243000D01*
X119437257Y-88243000D02*
X119484876Y-88195380D01*
X119484876Y-88195380D02*
X119532495Y-88100142D01*
X119532495Y-88100142D02*
X119532495Y-88004904D01*
X119532495Y-88004904D02*
X119484876Y-87909666D01*
X119484876Y-87909666D02*
X119437257Y-87862047D01*
X119437257Y-87862047D02*
X119342019Y-87814428D01*
X119342019Y-87814428D02*
X119151543Y-87766809D01*
X119151543Y-87766809D02*
X119056305Y-87719190D01*
X119056305Y-87719190D02*
X119008686Y-87671571D01*
X119008686Y-87671571D02*
X118961067Y-87576333D01*
X118961067Y-87576333D02*
X118961067Y-87481095D01*
X118961067Y-87481095D02*
X119008686Y-87385857D01*
X119008686Y-87385857D02*
X119056305Y-87338238D01*
X119056305Y-87338238D02*
X119151543Y-87290619D01*
X119151543Y-87290619D02*
X119389638Y-87290619D01*
X119389638Y-87290619D02*
X119532495Y-87338238D01*
X119865829Y-87290619D02*
X120103924Y-88290619D01*
X120103924Y-88290619D02*
X120294400Y-87576333D01*
X120294400Y-87576333D02*
X120484876Y-88290619D01*
X120484876Y-88290619D02*
X120722972Y-87290619D01*
X121056305Y-87385857D02*
X121103924Y-87338238D01*
X121103924Y-87338238D02*
X121199162Y-87290619D01*
X121199162Y-87290619D02*
X121437257Y-87290619D01*
X121437257Y-87290619D02*
X121532495Y-87338238D01*
X121532495Y-87338238D02*
X121580114Y-87385857D01*
X121580114Y-87385857D02*
X121627733Y-87481095D01*
X121627733Y-87481095D02*
X121627733Y-87576333D01*
X121627733Y-87576333D02*
X121580114Y-87719190D01*
X121580114Y-87719190D02*
X121008686Y-88290619D01*
X121008686Y-88290619D02*
X121627733Y-88290619D01*
D11*
X95450684Y-51610419D02*
X94974494Y-51610419D01*
X94974494Y-51610419D02*
X94974494Y-50610419D01*
X96212589Y-51610419D02*
X96212589Y-51086609D01*
X96212589Y-51086609D02*
X96164970Y-50991371D01*
X96164970Y-50991371D02*
X96069732Y-50943752D01*
X96069732Y-50943752D02*
X95879256Y-50943752D01*
X95879256Y-50943752D02*
X95784018Y-50991371D01*
X96212589Y-51562800D02*
X96117351Y-51610419D01*
X96117351Y-51610419D02*
X95879256Y-51610419D01*
X95879256Y-51610419D02*
X95784018Y-51562800D01*
X95784018Y-51562800D02*
X95736399Y-51467561D01*
X95736399Y-51467561D02*
X95736399Y-51372323D01*
X95736399Y-51372323D02*
X95784018Y-51277085D01*
X95784018Y-51277085D02*
X95879256Y-51229466D01*
X95879256Y-51229466D02*
X96117351Y-51229466D01*
X96117351Y-51229466D02*
X96212589Y-51181847D01*
X96688780Y-50943752D02*
X96688780Y-51943752D01*
X96688780Y-50991371D02*
X96784018Y-50943752D01*
X96784018Y-50943752D02*
X96974494Y-50943752D01*
X96974494Y-50943752D02*
X97069732Y-50991371D01*
X97069732Y-50991371D02*
X97117351Y-51038990D01*
X97117351Y-51038990D02*
X97164970Y-51134228D01*
X97164970Y-51134228D02*
X97164970Y-51419942D01*
X97164970Y-51419942D02*
X97117351Y-51515180D01*
X97117351Y-51515180D02*
X97069732Y-51562800D01*
X97069732Y-51562800D02*
X96974494Y-51610419D01*
X96974494Y-51610419D02*
X96784018Y-51610419D01*
X96784018Y-51610419D02*
X96688780Y-51562800D01*
X97450685Y-50943752D02*
X97831637Y-50943752D01*
X97593542Y-50610419D02*
X97593542Y-51467561D01*
X97593542Y-51467561D02*
X97641161Y-51562800D01*
X97641161Y-51562800D02*
X97736399Y-51610419D01*
X97736399Y-51610419D02*
X97831637Y-51610419D01*
X98307828Y-51610419D02*
X98212590Y-51562800D01*
X98212590Y-51562800D02*
X98164971Y-51515180D01*
X98164971Y-51515180D02*
X98117352Y-51419942D01*
X98117352Y-51419942D02*
X98117352Y-51134228D01*
X98117352Y-51134228D02*
X98164971Y-51038990D01*
X98164971Y-51038990D02*
X98212590Y-50991371D01*
X98212590Y-50991371D02*
X98307828Y-50943752D01*
X98307828Y-50943752D02*
X98450685Y-50943752D01*
X98450685Y-50943752D02*
X98545923Y-50991371D01*
X98545923Y-50991371D02*
X98593542Y-51038990D01*
X98593542Y-51038990D02*
X98641161Y-51134228D01*
X98641161Y-51134228D02*
X98641161Y-51419942D01*
X98641161Y-51419942D02*
X98593542Y-51515180D01*
X98593542Y-51515180D02*
X98545923Y-51562800D01*
X98545923Y-51562800D02*
X98450685Y-51610419D01*
X98450685Y-51610419D02*
X98307828Y-51610419D01*
X99069733Y-50943752D02*
X99069733Y-51943752D01*
X99069733Y-50991371D02*
X99164971Y-50943752D01*
X99164971Y-50943752D02*
X99355447Y-50943752D01*
X99355447Y-50943752D02*
X99450685Y-50991371D01*
X99450685Y-50991371D02*
X99498304Y-51038990D01*
X99498304Y-51038990D02*
X99545923Y-51134228D01*
X99545923Y-51134228D02*
X99545923Y-51419942D01*
X99545923Y-51419942D02*
X99498304Y-51515180D01*
X99498304Y-51515180D02*
X99450685Y-51562800D01*
X99450685Y-51562800D02*
X99355447Y-51610419D01*
X99355447Y-51610419D02*
X99164971Y-51610419D01*
X99164971Y-51610419D02*
X99069733Y-51562800D01*
X100736400Y-51610419D02*
X100736400Y-50610419D01*
X100736400Y-50610419D02*
X100974495Y-50610419D01*
X100974495Y-50610419D02*
X101117352Y-50658038D01*
X101117352Y-50658038D02*
X101212590Y-50753276D01*
X101212590Y-50753276D02*
X101260209Y-50848514D01*
X101260209Y-50848514D02*
X101307828Y-51038990D01*
X101307828Y-51038990D02*
X101307828Y-51181847D01*
X101307828Y-51181847D02*
X101260209Y-51372323D01*
X101260209Y-51372323D02*
X101212590Y-51467561D01*
X101212590Y-51467561D02*
X101117352Y-51562800D01*
X101117352Y-51562800D02*
X100974495Y-51610419D01*
X100974495Y-51610419D02*
X100736400Y-51610419D01*
X102117352Y-51562800D02*
X102022114Y-51610419D01*
X102022114Y-51610419D02*
X101831638Y-51610419D01*
X101831638Y-51610419D02*
X101736400Y-51562800D01*
X101736400Y-51562800D02*
X101688781Y-51467561D01*
X101688781Y-51467561D02*
X101688781Y-51086609D01*
X101688781Y-51086609D02*
X101736400Y-50991371D01*
X101736400Y-50991371D02*
X101831638Y-50943752D01*
X101831638Y-50943752D02*
X102022114Y-50943752D01*
X102022114Y-50943752D02*
X102117352Y-50991371D01*
X102117352Y-50991371D02*
X102164971Y-51086609D01*
X102164971Y-51086609D02*
X102164971Y-51181847D01*
X102164971Y-51181847D02*
X101688781Y-51277085D01*
X102450686Y-50943752D02*
X102831638Y-50943752D01*
X102593543Y-50610419D02*
X102593543Y-51467561D01*
X102593543Y-51467561D02*
X102641162Y-51562800D01*
X102641162Y-51562800D02*
X102736400Y-51610419D01*
X102736400Y-51610419D02*
X102831638Y-51610419D01*
X103545924Y-51562800D02*
X103450686Y-51610419D01*
X103450686Y-51610419D02*
X103260210Y-51610419D01*
X103260210Y-51610419D02*
X103164972Y-51562800D01*
X103164972Y-51562800D02*
X103117353Y-51467561D01*
X103117353Y-51467561D02*
X103117353Y-51086609D01*
X103117353Y-51086609D02*
X103164972Y-50991371D01*
X103164972Y-50991371D02*
X103260210Y-50943752D01*
X103260210Y-50943752D02*
X103450686Y-50943752D01*
X103450686Y-50943752D02*
X103545924Y-50991371D01*
X103545924Y-50991371D02*
X103593543Y-51086609D01*
X103593543Y-51086609D02*
X103593543Y-51181847D01*
X103593543Y-51181847D02*
X103117353Y-51277085D01*
X104450686Y-51562800D02*
X104355448Y-51610419D01*
X104355448Y-51610419D02*
X104164972Y-51610419D01*
X104164972Y-51610419D02*
X104069734Y-51562800D01*
X104069734Y-51562800D02*
X104022115Y-51515180D01*
X104022115Y-51515180D02*
X103974496Y-51419942D01*
X103974496Y-51419942D02*
X103974496Y-51134228D01*
X103974496Y-51134228D02*
X104022115Y-51038990D01*
X104022115Y-51038990D02*
X104069734Y-50991371D01*
X104069734Y-50991371D02*
X104164972Y-50943752D01*
X104164972Y-50943752D02*
X104355448Y-50943752D01*
X104355448Y-50943752D02*
X104450686Y-50991371D01*
X104736401Y-50943752D02*
X105117353Y-50943752D01*
X104879258Y-50610419D02*
X104879258Y-51467561D01*
X104879258Y-51467561D02*
X104926877Y-51562800D01*
X104926877Y-51562800D02*
X105022115Y-51610419D01*
X105022115Y-51610419D02*
X105117353Y-51610419D01*
X105593544Y-51610419D02*
X105498306Y-51562800D01*
X105498306Y-51562800D02*
X105450687Y-51515180D01*
X105450687Y-51515180D02*
X105403068Y-51419942D01*
X105403068Y-51419942D02*
X105403068Y-51134228D01*
X105403068Y-51134228D02*
X105450687Y-51038990D01*
X105450687Y-51038990D02*
X105498306Y-50991371D01*
X105498306Y-50991371D02*
X105593544Y-50943752D01*
X105593544Y-50943752D02*
X105736401Y-50943752D01*
X105736401Y-50943752D02*
X105831639Y-50991371D01*
X105831639Y-50991371D02*
X105879258Y-51038990D01*
X105879258Y-51038990D02*
X105926877Y-51134228D01*
X105926877Y-51134228D02*
X105926877Y-51419942D01*
X105926877Y-51419942D02*
X105879258Y-51515180D01*
X105879258Y-51515180D02*
X105831639Y-51562800D01*
X105831639Y-51562800D02*
X105736401Y-51610419D01*
X105736401Y-51610419D02*
X105593544Y-51610419D01*
X106355449Y-51610419D02*
X106355449Y-50943752D01*
X106355449Y-51134228D02*
X106403068Y-51038990D01*
X106403068Y-51038990D02*
X106450687Y-50991371D01*
X106450687Y-50991371D02*
X106545925Y-50943752D01*
X106545925Y-50943752D02*
X106641163Y-50943752D01*
X98295619Y-71373524D02*
X97819428Y-71706857D01*
X98295619Y-71944952D02*
X97295619Y-71944952D01*
X97295619Y-71944952D02*
X97295619Y-71564000D01*
X97295619Y-71564000D02*
X97343238Y-71468762D01*
X97343238Y-71468762D02*
X97390857Y-71421143D01*
X97390857Y-71421143D02*
X97486095Y-71373524D01*
X97486095Y-71373524D02*
X97628952Y-71373524D01*
X97628952Y-71373524D02*
X97724190Y-71421143D01*
X97724190Y-71421143D02*
X97771809Y-71468762D01*
X97771809Y-71468762D02*
X97819428Y-71564000D01*
X97819428Y-71564000D02*
X97819428Y-71944952D01*
X97771809Y-70611619D02*
X97771809Y-70944952D01*
X98295619Y-70944952D02*
X97295619Y-70944952D01*
X97295619Y-70944952D02*
X97295619Y-70468762D01*
X98295619Y-70087809D02*
X97295619Y-70087809D01*
X98295619Y-69611619D02*
X97295619Y-69611619D01*
X97295619Y-69611619D02*
X97295619Y-69373524D01*
X97295619Y-69373524D02*
X97343238Y-69230667D01*
X97343238Y-69230667D02*
X97438476Y-69135429D01*
X97438476Y-69135429D02*
X97533714Y-69087810D01*
X97533714Y-69087810D02*
X97724190Y-69040191D01*
X97724190Y-69040191D02*
X97867047Y-69040191D01*
X97867047Y-69040191D02*
X98057523Y-69087810D01*
X98057523Y-69087810D02*
X98152761Y-69135429D01*
X98152761Y-69135429D02*
X98248000Y-69230667D01*
X98248000Y-69230667D02*
X98295619Y-69373524D01*
X98295619Y-69373524D02*
X98295619Y-69611619D01*
X98295619Y-67278286D02*
X97819428Y-67611619D01*
X98295619Y-67849714D02*
X97295619Y-67849714D01*
X97295619Y-67849714D02*
X97295619Y-67468762D01*
X97295619Y-67468762D02*
X97343238Y-67373524D01*
X97343238Y-67373524D02*
X97390857Y-67325905D01*
X97390857Y-67325905D02*
X97486095Y-67278286D01*
X97486095Y-67278286D02*
X97628952Y-67278286D01*
X97628952Y-67278286D02*
X97724190Y-67325905D01*
X97724190Y-67325905D02*
X97771809Y-67373524D01*
X97771809Y-67373524D02*
X97819428Y-67468762D01*
X97819428Y-67468762D02*
X97819428Y-67849714D01*
X98248000Y-66468762D02*
X98295619Y-66564000D01*
X98295619Y-66564000D02*
X98295619Y-66754476D01*
X98295619Y-66754476D02*
X98248000Y-66849714D01*
X98248000Y-66849714D02*
X98152761Y-66897333D01*
X98152761Y-66897333D02*
X97771809Y-66897333D01*
X97771809Y-66897333D02*
X97676571Y-66849714D01*
X97676571Y-66849714D02*
X97628952Y-66754476D01*
X97628952Y-66754476D02*
X97628952Y-66564000D01*
X97628952Y-66564000D02*
X97676571Y-66468762D01*
X97676571Y-66468762D02*
X97771809Y-66421143D01*
X97771809Y-66421143D02*
X97867047Y-66421143D01*
X97867047Y-66421143D02*
X97962285Y-66897333D01*
X98295619Y-65564000D02*
X97771809Y-65564000D01*
X97771809Y-65564000D02*
X97676571Y-65611619D01*
X97676571Y-65611619D02*
X97628952Y-65706857D01*
X97628952Y-65706857D02*
X97628952Y-65897333D01*
X97628952Y-65897333D02*
X97676571Y-65992571D01*
X98248000Y-65564000D02*
X98295619Y-65659238D01*
X98295619Y-65659238D02*
X98295619Y-65897333D01*
X98295619Y-65897333D02*
X98248000Y-65992571D01*
X98248000Y-65992571D02*
X98152761Y-66040190D01*
X98152761Y-66040190D02*
X98057523Y-66040190D01*
X98057523Y-66040190D02*
X97962285Y-65992571D01*
X97962285Y-65992571D02*
X97914666Y-65897333D01*
X97914666Y-65897333D02*
X97914666Y-65659238D01*
X97914666Y-65659238D02*
X97867047Y-65564000D01*
X98295619Y-64659238D02*
X97295619Y-64659238D01*
X98248000Y-64659238D02*
X98295619Y-64754476D01*
X98295619Y-64754476D02*
X98295619Y-64944952D01*
X98295619Y-64944952D02*
X98248000Y-65040190D01*
X98248000Y-65040190D02*
X98200380Y-65087809D01*
X98200380Y-65087809D02*
X98105142Y-65135428D01*
X98105142Y-65135428D02*
X97819428Y-65135428D01*
X97819428Y-65135428D02*
X97724190Y-65087809D01*
X97724190Y-65087809D02*
X97676571Y-65040190D01*
X97676571Y-65040190D02*
X97628952Y-64944952D01*
X97628952Y-64944952D02*
X97628952Y-64754476D01*
X97628952Y-64754476D02*
X97676571Y-64659238D01*
X98248000Y-63802095D02*
X98295619Y-63897333D01*
X98295619Y-63897333D02*
X98295619Y-64087809D01*
X98295619Y-64087809D02*
X98248000Y-64183047D01*
X98248000Y-64183047D02*
X98152761Y-64230666D01*
X98152761Y-64230666D02*
X97771809Y-64230666D01*
X97771809Y-64230666D02*
X97676571Y-64183047D01*
X97676571Y-64183047D02*
X97628952Y-64087809D01*
X97628952Y-64087809D02*
X97628952Y-63897333D01*
X97628952Y-63897333D02*
X97676571Y-63802095D01*
X97676571Y-63802095D02*
X97771809Y-63754476D01*
X97771809Y-63754476D02*
X97867047Y-63754476D01*
X97867047Y-63754476D02*
X97962285Y-64230666D01*
X98295619Y-63325904D02*
X97628952Y-63325904D01*
X97819428Y-63325904D02*
X97724190Y-63278285D01*
X97724190Y-63278285D02*
X97676571Y-63230666D01*
X97676571Y-63230666D02*
X97628952Y-63135428D01*
X97628952Y-63135428D02*
X97628952Y-63040190D01*
X90878819Y-85574094D02*
X89878819Y-85574094D01*
X89878819Y-85574094D02*
X89878819Y-85335999D01*
X89878819Y-85335999D02*
X89926438Y-85193142D01*
X89926438Y-85193142D02*
X90021676Y-85097904D01*
X90021676Y-85097904D02*
X90116914Y-85050285D01*
X90116914Y-85050285D02*
X90307390Y-85002666D01*
X90307390Y-85002666D02*
X90450247Y-85002666D01*
X90450247Y-85002666D02*
X90640723Y-85050285D01*
X90640723Y-85050285D02*
X90735961Y-85097904D01*
X90735961Y-85097904D02*
X90831200Y-85193142D01*
X90831200Y-85193142D02*
X90878819Y-85335999D01*
X90878819Y-85335999D02*
X90878819Y-85574094D01*
X89974057Y-84621713D02*
X89926438Y-84574094D01*
X89926438Y-84574094D02*
X89878819Y-84478856D01*
X89878819Y-84478856D02*
X89878819Y-84240761D01*
X89878819Y-84240761D02*
X89926438Y-84145523D01*
X89926438Y-84145523D02*
X89974057Y-84097904D01*
X89974057Y-84097904D02*
X90069295Y-84050285D01*
X90069295Y-84050285D02*
X90164533Y-84050285D01*
X90164533Y-84050285D02*
X90307390Y-84097904D01*
X90307390Y-84097904D02*
X90878819Y-84669332D01*
X90878819Y-84669332D02*
X90878819Y-84050285D01*
X138479999Y-92334819D02*
X138479999Y-91334819D01*
X138479999Y-91811009D02*
X139051427Y-91811009D01*
X139051427Y-92334819D02*
X139051427Y-91334819D01*
X139956189Y-92334819D02*
X139956189Y-91811009D01*
X139956189Y-91811009D02*
X139908570Y-91715771D01*
X139908570Y-91715771D02*
X139813332Y-91668152D01*
X139813332Y-91668152D02*
X139622856Y-91668152D01*
X139622856Y-91668152D02*
X139527618Y-91715771D01*
X139956189Y-92287200D02*
X139860951Y-92334819D01*
X139860951Y-92334819D02*
X139622856Y-92334819D01*
X139622856Y-92334819D02*
X139527618Y-92287200D01*
X139527618Y-92287200D02*
X139479999Y-92191961D01*
X139479999Y-92191961D02*
X139479999Y-92096723D01*
X139479999Y-92096723D02*
X139527618Y-92001485D01*
X139527618Y-92001485D02*
X139622856Y-91953866D01*
X139622856Y-91953866D02*
X139860951Y-91953866D01*
X139860951Y-91953866D02*
X139956189Y-91906247D01*
X140432380Y-91668152D02*
X140432380Y-92668152D01*
X140432380Y-91715771D02*
X140527618Y-91668152D01*
X140527618Y-91668152D02*
X140718094Y-91668152D01*
X140718094Y-91668152D02*
X140813332Y-91715771D01*
X140813332Y-91715771D02*
X140860951Y-91763390D01*
X140860951Y-91763390D02*
X140908570Y-91858628D01*
X140908570Y-91858628D02*
X140908570Y-92144342D01*
X140908570Y-92144342D02*
X140860951Y-92239580D01*
X140860951Y-92239580D02*
X140813332Y-92287200D01*
X140813332Y-92287200D02*
X140718094Y-92334819D01*
X140718094Y-92334819D02*
X140527618Y-92334819D01*
X140527618Y-92334819D02*
X140432380Y-92287200D01*
X141194285Y-91668152D02*
X141575237Y-91668152D01*
X141337142Y-91334819D02*
X141337142Y-92191961D01*
X141337142Y-92191961D02*
X141384761Y-92287200D01*
X141384761Y-92287200D02*
X141479999Y-92334819D01*
X141479999Y-92334819D02*
X141575237Y-92334819D01*
X141908571Y-92334819D02*
X141908571Y-91668152D01*
X141908571Y-91334819D02*
X141860952Y-91382438D01*
X141860952Y-91382438D02*
X141908571Y-91430057D01*
X141908571Y-91430057D02*
X141956190Y-91382438D01*
X141956190Y-91382438D02*
X141908571Y-91334819D01*
X141908571Y-91334819D02*
X141908571Y-91430057D01*
X142813332Y-92287200D02*
X142718094Y-92334819D01*
X142718094Y-92334819D02*
X142527618Y-92334819D01*
X142527618Y-92334819D02*
X142432380Y-92287200D01*
X142432380Y-92287200D02*
X142384761Y-92239580D01*
X142384761Y-92239580D02*
X142337142Y-92144342D01*
X142337142Y-92144342D02*
X142337142Y-91858628D01*
X142337142Y-91858628D02*
X142384761Y-91763390D01*
X142384761Y-91763390D02*
X142432380Y-91715771D01*
X142432380Y-91715771D02*
X142527618Y-91668152D01*
X142527618Y-91668152D02*
X142718094Y-91668152D01*
X142718094Y-91668152D02*
X142813332Y-91715771D01*
X144337142Y-91811009D02*
X144003809Y-91811009D01*
X144003809Y-92334819D02*
X144003809Y-91334819D01*
X144003809Y-91334819D02*
X144479999Y-91334819D01*
X145241904Y-92287200D02*
X145146666Y-92334819D01*
X145146666Y-92334819D02*
X144956190Y-92334819D01*
X144956190Y-92334819D02*
X144860952Y-92287200D01*
X144860952Y-92287200D02*
X144813333Y-92191961D01*
X144813333Y-92191961D02*
X144813333Y-91811009D01*
X144813333Y-91811009D02*
X144860952Y-91715771D01*
X144860952Y-91715771D02*
X144956190Y-91668152D01*
X144956190Y-91668152D02*
X145146666Y-91668152D01*
X145146666Y-91668152D02*
X145241904Y-91715771D01*
X145241904Y-91715771D02*
X145289523Y-91811009D01*
X145289523Y-91811009D02*
X145289523Y-91906247D01*
X145289523Y-91906247D02*
X144813333Y-92001485D01*
X146099047Y-92287200D02*
X146003809Y-92334819D01*
X146003809Y-92334819D02*
X145813333Y-92334819D01*
X145813333Y-92334819D02*
X145718095Y-92287200D01*
X145718095Y-92287200D02*
X145670476Y-92191961D01*
X145670476Y-92191961D02*
X145670476Y-91811009D01*
X145670476Y-91811009D02*
X145718095Y-91715771D01*
X145718095Y-91715771D02*
X145813333Y-91668152D01*
X145813333Y-91668152D02*
X146003809Y-91668152D01*
X146003809Y-91668152D02*
X146099047Y-91715771D01*
X146099047Y-91715771D02*
X146146666Y-91811009D01*
X146146666Y-91811009D02*
X146146666Y-91906247D01*
X146146666Y-91906247D02*
X145670476Y-92001485D01*
X147003809Y-92334819D02*
X147003809Y-91334819D01*
X147003809Y-92287200D02*
X146908571Y-92334819D01*
X146908571Y-92334819D02*
X146718095Y-92334819D01*
X146718095Y-92334819D02*
X146622857Y-92287200D01*
X146622857Y-92287200D02*
X146575238Y-92239580D01*
X146575238Y-92239580D02*
X146527619Y-92144342D01*
X146527619Y-92144342D02*
X146527619Y-91858628D01*
X146527619Y-91858628D02*
X146575238Y-91763390D01*
X146575238Y-91763390D02*
X146622857Y-91715771D01*
X146622857Y-91715771D02*
X146718095Y-91668152D01*
X146718095Y-91668152D02*
X146908571Y-91668152D01*
X146908571Y-91668152D02*
X147003809Y-91715771D01*
X147480000Y-92334819D02*
X147480000Y-91334819D01*
X147480000Y-91715771D02*
X147575238Y-91668152D01*
X147575238Y-91668152D02*
X147765714Y-91668152D01*
X147765714Y-91668152D02*
X147860952Y-91715771D01*
X147860952Y-91715771D02*
X147908571Y-91763390D01*
X147908571Y-91763390D02*
X147956190Y-91858628D01*
X147956190Y-91858628D02*
X147956190Y-92144342D01*
X147956190Y-92144342D02*
X147908571Y-92239580D01*
X147908571Y-92239580D02*
X147860952Y-92287200D01*
X147860952Y-92287200D02*
X147765714Y-92334819D01*
X147765714Y-92334819D02*
X147575238Y-92334819D01*
X147575238Y-92334819D02*
X147480000Y-92287200D01*
X148813333Y-92334819D02*
X148813333Y-91811009D01*
X148813333Y-91811009D02*
X148765714Y-91715771D01*
X148765714Y-91715771D02*
X148670476Y-91668152D01*
X148670476Y-91668152D02*
X148480000Y-91668152D01*
X148480000Y-91668152D02*
X148384762Y-91715771D01*
X148813333Y-92287200D02*
X148718095Y-92334819D01*
X148718095Y-92334819D02*
X148480000Y-92334819D01*
X148480000Y-92334819D02*
X148384762Y-92287200D01*
X148384762Y-92287200D02*
X148337143Y-92191961D01*
X148337143Y-92191961D02*
X148337143Y-92096723D01*
X148337143Y-92096723D02*
X148384762Y-92001485D01*
X148384762Y-92001485D02*
X148480000Y-91953866D01*
X148480000Y-91953866D02*
X148718095Y-91953866D01*
X148718095Y-91953866D02*
X148813333Y-91906247D01*
X149718095Y-92287200D02*
X149622857Y-92334819D01*
X149622857Y-92334819D02*
X149432381Y-92334819D01*
X149432381Y-92334819D02*
X149337143Y-92287200D01*
X149337143Y-92287200D02*
X149289524Y-92239580D01*
X149289524Y-92239580D02*
X149241905Y-92144342D01*
X149241905Y-92144342D02*
X149241905Y-91858628D01*
X149241905Y-91858628D02*
X149289524Y-91763390D01*
X149289524Y-91763390D02*
X149337143Y-91715771D01*
X149337143Y-91715771D02*
X149432381Y-91668152D01*
X149432381Y-91668152D02*
X149622857Y-91668152D01*
X149622857Y-91668152D02*
X149718095Y-91715771D01*
X150146667Y-92334819D02*
X150146667Y-91334819D01*
X150241905Y-91953866D02*
X150527619Y-92334819D01*
X150527619Y-91668152D02*
X150146667Y-92049104D01*
X112278819Y-108998094D02*
X111278819Y-108998094D01*
X111278819Y-108998094D02*
X111278819Y-108759999D01*
X111278819Y-108759999D02*
X111326438Y-108617142D01*
X111326438Y-108617142D02*
X111421676Y-108521904D01*
X111421676Y-108521904D02*
X111516914Y-108474285D01*
X111516914Y-108474285D02*
X111707390Y-108426666D01*
X111707390Y-108426666D02*
X111850247Y-108426666D01*
X111850247Y-108426666D02*
X112040723Y-108474285D01*
X112040723Y-108474285D02*
X112135961Y-108521904D01*
X112135961Y-108521904D02*
X112231200Y-108617142D01*
X112231200Y-108617142D02*
X112278819Y-108759999D01*
X112278819Y-108759999D02*
X112278819Y-108998094D01*
X112278819Y-107474285D02*
X112278819Y-108045713D01*
X112278819Y-107759999D02*
X111278819Y-107759999D01*
X111278819Y-107759999D02*
X111421676Y-107855237D01*
X111421676Y-107855237D02*
X111516914Y-107950475D01*
X111516914Y-107950475D02*
X111564533Y-108045713D01*
X105814019Y-55857904D02*
X104814019Y-55857904D01*
X105290209Y-55857904D02*
X105290209Y-55286476D01*
X105814019Y-55286476D02*
X104814019Y-55286476D01*
X105814019Y-54286476D02*
X105814019Y-54857904D01*
X105814019Y-54572190D02*
X104814019Y-54572190D01*
X104814019Y-54572190D02*
X104956876Y-54667428D01*
X104956876Y-54667428D02*
X105052114Y-54762666D01*
X105052114Y-54762666D02*
X105099733Y-54857904D01*
X126768933Y-71828819D02*
X126435600Y-71352628D01*
X126197505Y-71828819D02*
X126197505Y-70828819D01*
X126197505Y-70828819D02*
X126578457Y-70828819D01*
X126578457Y-70828819D02*
X126673695Y-70876438D01*
X126673695Y-70876438D02*
X126721314Y-70924057D01*
X126721314Y-70924057D02*
X126768933Y-71019295D01*
X126768933Y-71019295D02*
X126768933Y-71162152D01*
X126768933Y-71162152D02*
X126721314Y-71257390D01*
X126721314Y-71257390D02*
X126673695Y-71305009D01*
X126673695Y-71305009D02*
X126578457Y-71352628D01*
X126578457Y-71352628D02*
X126197505Y-71352628D01*
X127626076Y-71162152D02*
X127626076Y-71828819D01*
X127387981Y-70781200D02*
X127149886Y-71495485D01*
X127149886Y-71495485D02*
X127768933Y-71495485D01*
D10*
X110716895Y-97872332D02*
X110335942Y-98138999D01*
X110716895Y-98329475D02*
X109916895Y-98329475D01*
X109916895Y-98329475D02*
X109916895Y-98024713D01*
X109916895Y-98024713D02*
X109954990Y-97948523D01*
X109954990Y-97948523D02*
X109993085Y-97910428D01*
X109993085Y-97910428D02*
X110069276Y-97872332D01*
X110069276Y-97872332D02*
X110183561Y-97872332D01*
X110183561Y-97872332D02*
X110259752Y-97910428D01*
X110259752Y-97910428D02*
X110297847Y-97948523D01*
X110297847Y-97948523D02*
X110335942Y-98024713D01*
X110335942Y-98024713D02*
X110335942Y-98329475D01*
X109916895Y-97605666D02*
X109916895Y-97110428D01*
X109916895Y-97110428D02*
X110221657Y-97377094D01*
X110221657Y-97377094D02*
X110221657Y-97262809D01*
X110221657Y-97262809D02*
X110259752Y-97186618D01*
X110259752Y-97186618D02*
X110297847Y-97148523D01*
X110297847Y-97148523D02*
X110374038Y-97110428D01*
X110374038Y-97110428D02*
X110564514Y-97110428D01*
X110564514Y-97110428D02*
X110640704Y-97148523D01*
X110640704Y-97148523D02*
X110678800Y-97186618D01*
X110678800Y-97186618D02*
X110716895Y-97262809D01*
X110716895Y-97262809D02*
X110716895Y-97491380D01*
X110716895Y-97491380D02*
X110678800Y-97567571D01*
X110678800Y-97567571D02*
X110640704Y-97605666D01*
D11*
X129732142Y-93057319D02*
X129398809Y-92581128D01*
X129160714Y-93057319D02*
X129160714Y-92057319D01*
X129160714Y-92057319D02*
X129541666Y-92057319D01*
X129541666Y-92057319D02*
X129636904Y-92104938D01*
X129636904Y-92104938D02*
X129684523Y-92152557D01*
X129684523Y-92152557D02*
X129732142Y-92247795D01*
X129732142Y-92247795D02*
X129732142Y-92390652D01*
X129732142Y-92390652D02*
X129684523Y-92485890D01*
X129684523Y-92485890D02*
X129636904Y-92533509D01*
X129636904Y-92533509D02*
X129541666Y-92581128D01*
X129541666Y-92581128D02*
X129160714Y-92581128D01*
X130684523Y-93057319D02*
X130113095Y-93057319D01*
X130398809Y-93057319D02*
X130398809Y-92057319D01*
X130398809Y-92057319D02*
X130303571Y-92200176D01*
X130303571Y-92200176D02*
X130208333Y-92295414D01*
X130208333Y-92295414D02*
X130113095Y-92343033D01*
X131255952Y-92485890D02*
X131160714Y-92438271D01*
X131160714Y-92438271D02*
X131113095Y-92390652D01*
X131113095Y-92390652D02*
X131065476Y-92295414D01*
X131065476Y-92295414D02*
X131065476Y-92247795D01*
X131065476Y-92247795D02*
X131113095Y-92152557D01*
X131113095Y-92152557D02*
X131160714Y-92104938D01*
X131160714Y-92104938D02*
X131255952Y-92057319D01*
X131255952Y-92057319D02*
X131446428Y-92057319D01*
X131446428Y-92057319D02*
X131541666Y-92104938D01*
X131541666Y-92104938D02*
X131589285Y-92152557D01*
X131589285Y-92152557D02*
X131636904Y-92247795D01*
X131636904Y-92247795D02*
X131636904Y-92295414D01*
X131636904Y-92295414D02*
X131589285Y-92390652D01*
X131589285Y-92390652D02*
X131541666Y-92438271D01*
X131541666Y-92438271D02*
X131446428Y-92485890D01*
X131446428Y-92485890D02*
X131255952Y-92485890D01*
X131255952Y-92485890D02*
X131160714Y-92533509D01*
X131160714Y-92533509D02*
X131113095Y-92581128D01*
X131113095Y-92581128D02*
X131065476Y-92676366D01*
X131065476Y-92676366D02*
X131065476Y-92866842D01*
X131065476Y-92866842D02*
X131113095Y-92962080D01*
X131113095Y-92962080D02*
X131160714Y-93009700D01*
X131160714Y-93009700D02*
X131255952Y-93057319D01*
X131255952Y-93057319D02*
X131446428Y-93057319D01*
X131446428Y-93057319D02*
X131541666Y-93009700D01*
X131541666Y-93009700D02*
X131589285Y-92962080D01*
X131589285Y-92962080D02*
X131636904Y-92866842D01*
X131636904Y-92866842D02*
X131636904Y-92676366D01*
X131636904Y-92676366D02*
X131589285Y-92581128D01*
X131589285Y-92581128D02*
X131541666Y-92533509D01*
X131541666Y-92533509D02*
X131446428Y-92485890D01*
X125944933Y-56842819D02*
X125611600Y-56366628D01*
X125373505Y-56842819D02*
X125373505Y-55842819D01*
X125373505Y-55842819D02*
X125754457Y-55842819D01*
X125754457Y-55842819D02*
X125849695Y-55890438D01*
X125849695Y-55890438D02*
X125897314Y-55938057D01*
X125897314Y-55938057D02*
X125944933Y-56033295D01*
X125944933Y-56033295D02*
X125944933Y-56176152D01*
X125944933Y-56176152D02*
X125897314Y-56271390D01*
X125897314Y-56271390D02*
X125849695Y-56319009D01*
X125849695Y-56319009D02*
X125754457Y-56366628D01*
X125754457Y-56366628D02*
X125373505Y-56366628D01*
X126516362Y-56271390D02*
X126421124Y-56223771D01*
X126421124Y-56223771D02*
X126373505Y-56176152D01*
X126373505Y-56176152D02*
X126325886Y-56080914D01*
X126325886Y-56080914D02*
X126325886Y-56033295D01*
X126325886Y-56033295D02*
X126373505Y-55938057D01*
X126373505Y-55938057D02*
X126421124Y-55890438D01*
X126421124Y-55890438D02*
X126516362Y-55842819D01*
X126516362Y-55842819D02*
X126706838Y-55842819D01*
X126706838Y-55842819D02*
X126802076Y-55890438D01*
X126802076Y-55890438D02*
X126849695Y-55938057D01*
X126849695Y-55938057D02*
X126897314Y-56033295D01*
X126897314Y-56033295D02*
X126897314Y-56080914D01*
X126897314Y-56080914D02*
X126849695Y-56176152D01*
X126849695Y-56176152D02*
X126802076Y-56223771D01*
X126802076Y-56223771D02*
X126706838Y-56271390D01*
X126706838Y-56271390D02*
X126516362Y-56271390D01*
X126516362Y-56271390D02*
X126421124Y-56319009D01*
X126421124Y-56319009D02*
X126373505Y-56366628D01*
X126373505Y-56366628D02*
X126325886Y-56461866D01*
X126325886Y-56461866D02*
X126325886Y-56652342D01*
X126325886Y-56652342D02*
X126373505Y-56747580D01*
X126373505Y-56747580D02*
X126421124Y-56795200D01*
X126421124Y-56795200D02*
X126516362Y-56842819D01*
X126516362Y-56842819D02*
X126706838Y-56842819D01*
X126706838Y-56842819D02*
X126802076Y-56795200D01*
X126802076Y-56795200D02*
X126849695Y-56747580D01*
X126849695Y-56747580D02*
X126897314Y-56652342D01*
X126897314Y-56652342D02*
X126897314Y-56461866D01*
X126897314Y-56461866D02*
X126849695Y-56366628D01*
X126849695Y-56366628D02*
X126802076Y-56319009D01*
X126802076Y-56319009D02*
X126706838Y-56271390D01*
D10*
X116874704Y-95256285D02*
X116912800Y-95294381D01*
X116912800Y-95294381D02*
X116950895Y-95408666D01*
X116950895Y-95408666D02*
X116950895Y-95484857D01*
X116950895Y-95484857D02*
X116912800Y-95599143D01*
X116912800Y-95599143D02*
X116836609Y-95675333D01*
X116836609Y-95675333D02*
X116760419Y-95713428D01*
X116760419Y-95713428D02*
X116608038Y-95751524D01*
X116608038Y-95751524D02*
X116493752Y-95751524D01*
X116493752Y-95751524D02*
X116341371Y-95713428D01*
X116341371Y-95713428D02*
X116265180Y-95675333D01*
X116265180Y-95675333D02*
X116188990Y-95599143D01*
X116188990Y-95599143D02*
X116150895Y-95484857D01*
X116150895Y-95484857D02*
X116150895Y-95408666D01*
X116150895Y-95408666D02*
X116188990Y-95294381D01*
X116188990Y-95294381D02*
X116227085Y-95256285D01*
X116950895Y-94494381D02*
X116950895Y-94951524D01*
X116950895Y-94722952D02*
X116150895Y-94722952D01*
X116150895Y-94722952D02*
X116265180Y-94799143D01*
X116265180Y-94799143D02*
X116341371Y-94875333D01*
X116341371Y-94875333D02*
X116379466Y-94951524D01*
X116950895Y-93732476D02*
X116950895Y-94189619D01*
X116950895Y-93961047D02*
X116150895Y-93961047D01*
X116150895Y-93961047D02*
X116265180Y-94037238D01*
X116265180Y-94037238D02*
X116341371Y-94113428D01*
X116341371Y-94113428D02*
X116379466Y-94189619D01*
D11*
X97968095Y-102294819D02*
X97968095Y-103104342D01*
X97968095Y-103104342D02*
X98015714Y-103199580D01*
X98015714Y-103199580D02*
X98063333Y-103247200D01*
X98063333Y-103247200D02*
X98158571Y-103294819D01*
X98158571Y-103294819D02*
X98349047Y-103294819D01*
X98349047Y-103294819D02*
X98444285Y-103247200D01*
X98444285Y-103247200D02*
X98491904Y-103199580D01*
X98491904Y-103199580D02*
X98539523Y-103104342D01*
X98539523Y-103104342D02*
X98539523Y-102294819D01*
X99539523Y-103294819D02*
X98968095Y-103294819D01*
X99253809Y-103294819D02*
X99253809Y-102294819D01*
X99253809Y-102294819D02*
X99158571Y-102437676D01*
X99158571Y-102437676D02*
X99063333Y-102532914D01*
X99063333Y-102532914D02*
X98968095Y-102580533D01*
D10*
X133688704Y-100316785D02*
X133726800Y-100354881D01*
X133726800Y-100354881D02*
X133764895Y-100469166D01*
X133764895Y-100469166D02*
X133764895Y-100545357D01*
X133764895Y-100545357D02*
X133726800Y-100659643D01*
X133726800Y-100659643D02*
X133650609Y-100735833D01*
X133650609Y-100735833D02*
X133574419Y-100773928D01*
X133574419Y-100773928D02*
X133422038Y-100812024D01*
X133422038Y-100812024D02*
X133307752Y-100812024D01*
X133307752Y-100812024D02*
X133155371Y-100773928D01*
X133155371Y-100773928D02*
X133079180Y-100735833D01*
X133079180Y-100735833D02*
X133002990Y-100659643D01*
X133002990Y-100659643D02*
X132964895Y-100545357D01*
X132964895Y-100545357D02*
X132964895Y-100469166D01*
X132964895Y-100469166D02*
X133002990Y-100354881D01*
X133002990Y-100354881D02*
X133041085Y-100316785D01*
X133764895Y-99554881D02*
X133764895Y-100012024D01*
X133764895Y-99783452D02*
X132964895Y-99783452D01*
X132964895Y-99783452D02*
X133079180Y-99859643D01*
X133079180Y-99859643D02*
X133155371Y-99935833D01*
X133155371Y-99935833D02*
X133193466Y-100012024D01*
X133041085Y-99250119D02*
X133002990Y-99212023D01*
X133002990Y-99212023D02*
X132964895Y-99135833D01*
X132964895Y-99135833D02*
X132964895Y-98945357D01*
X132964895Y-98945357D02*
X133002990Y-98869166D01*
X133002990Y-98869166D02*
X133041085Y-98831071D01*
X133041085Y-98831071D02*
X133117276Y-98792976D01*
X133117276Y-98792976D02*
X133193466Y-98792976D01*
X133193466Y-98792976D02*
X133307752Y-98831071D01*
X133307752Y-98831071D02*
X133764895Y-99288214D01*
X133764895Y-99288214D02*
X133764895Y-98792976D01*
D11*
X132065733Y-71733580D02*
X132018114Y-71781200D01*
X132018114Y-71781200D02*
X131875257Y-71828819D01*
X131875257Y-71828819D02*
X131780019Y-71828819D01*
X131780019Y-71828819D02*
X131637162Y-71781200D01*
X131637162Y-71781200D02*
X131541924Y-71685961D01*
X131541924Y-71685961D02*
X131494305Y-71590723D01*
X131494305Y-71590723D02*
X131446686Y-71400247D01*
X131446686Y-71400247D02*
X131446686Y-71257390D01*
X131446686Y-71257390D02*
X131494305Y-71066914D01*
X131494305Y-71066914D02*
X131541924Y-70971676D01*
X131541924Y-70971676D02*
X131637162Y-70876438D01*
X131637162Y-70876438D02*
X131780019Y-70828819D01*
X131780019Y-70828819D02*
X131875257Y-70828819D01*
X131875257Y-70828819D02*
X132018114Y-70876438D01*
X132018114Y-70876438D02*
X132065733Y-70924057D01*
X132922876Y-71162152D02*
X132922876Y-71828819D01*
X132684781Y-70781200D02*
X132446686Y-71495485D01*
X132446686Y-71495485D02*
X133065733Y-71495485D01*
X129370133Y-71828819D02*
X129036800Y-71352628D01*
X128798705Y-71828819D02*
X128798705Y-70828819D01*
X128798705Y-70828819D02*
X129179657Y-70828819D01*
X129179657Y-70828819D02*
X129274895Y-70876438D01*
X129274895Y-70876438D02*
X129322514Y-70924057D01*
X129322514Y-70924057D02*
X129370133Y-71019295D01*
X129370133Y-71019295D02*
X129370133Y-71162152D01*
X129370133Y-71162152D02*
X129322514Y-71257390D01*
X129322514Y-71257390D02*
X129274895Y-71305009D01*
X129274895Y-71305009D02*
X129179657Y-71352628D01*
X129179657Y-71352628D02*
X128798705Y-71352628D01*
X130274895Y-70828819D02*
X129798705Y-70828819D01*
X129798705Y-70828819D02*
X129751086Y-71305009D01*
X129751086Y-71305009D02*
X129798705Y-71257390D01*
X129798705Y-71257390D02*
X129893943Y-71209771D01*
X129893943Y-71209771D02*
X130132038Y-71209771D01*
X130132038Y-71209771D02*
X130227276Y-71257390D01*
X130227276Y-71257390D02*
X130274895Y-71305009D01*
X130274895Y-71305009D02*
X130322514Y-71400247D01*
X130322514Y-71400247D02*
X130322514Y-71638342D01*
X130322514Y-71638342D02*
X130274895Y-71733580D01*
X130274895Y-71733580D02*
X130227276Y-71781200D01*
X130227276Y-71781200D02*
X130132038Y-71828819D01*
X130132038Y-71828819D02*
X129893943Y-71828819D01*
X129893943Y-71828819D02*
X129798705Y-71781200D01*
X129798705Y-71781200D02*
X129751086Y-71733580D01*
X88290666Y-88627819D02*
X88290666Y-89342104D01*
X88290666Y-89342104D02*
X88243047Y-89484961D01*
X88243047Y-89484961D02*
X88147809Y-89580200D01*
X88147809Y-89580200D02*
X88004952Y-89627819D01*
X88004952Y-89627819D02*
X87909714Y-89627819D01*
X88814476Y-89627819D02*
X89004952Y-89627819D01*
X89004952Y-89627819D02*
X89100190Y-89580200D01*
X89100190Y-89580200D02*
X89147809Y-89532580D01*
X89147809Y-89532580D02*
X89243047Y-89389723D01*
X89243047Y-89389723D02*
X89290666Y-89199247D01*
X89290666Y-89199247D02*
X89290666Y-88818295D01*
X89290666Y-88818295D02*
X89243047Y-88723057D01*
X89243047Y-88723057D02*
X89195428Y-88675438D01*
X89195428Y-88675438D02*
X89100190Y-88627819D01*
X89100190Y-88627819D02*
X88909714Y-88627819D01*
X88909714Y-88627819D02*
X88814476Y-88675438D01*
X88814476Y-88675438D02*
X88766857Y-88723057D01*
X88766857Y-88723057D02*
X88719238Y-88818295D01*
X88719238Y-88818295D02*
X88719238Y-89056390D01*
X88719238Y-89056390D02*
X88766857Y-89151628D01*
X88766857Y-89151628D02*
X88814476Y-89199247D01*
X88814476Y-89199247D02*
X88909714Y-89246866D01*
X88909714Y-89246866D02*
X89100190Y-89246866D01*
X89100190Y-89246866D02*
X89195428Y-89199247D01*
X89195428Y-89199247D02*
X89243047Y-89151628D01*
X89243047Y-89151628D02*
X89290666Y-89056390D01*
X100022819Y-89034857D02*
X99546628Y-89368190D01*
X100022819Y-89606285D02*
X99022819Y-89606285D01*
X99022819Y-89606285D02*
X99022819Y-89225333D01*
X99022819Y-89225333D02*
X99070438Y-89130095D01*
X99070438Y-89130095D02*
X99118057Y-89082476D01*
X99118057Y-89082476D02*
X99213295Y-89034857D01*
X99213295Y-89034857D02*
X99356152Y-89034857D01*
X99356152Y-89034857D02*
X99451390Y-89082476D01*
X99451390Y-89082476D02*
X99499009Y-89130095D01*
X99499009Y-89130095D02*
X99546628Y-89225333D01*
X99546628Y-89225333D02*
X99546628Y-89606285D01*
X100022819Y-88082476D02*
X100022819Y-88653904D01*
X100022819Y-88368190D02*
X99022819Y-88368190D01*
X99022819Y-88368190D02*
X99165676Y-88463428D01*
X99165676Y-88463428D02*
X99260914Y-88558666D01*
X99260914Y-88558666D02*
X99308533Y-88653904D01*
X99118057Y-87701523D02*
X99070438Y-87653904D01*
X99070438Y-87653904D02*
X99022819Y-87558666D01*
X99022819Y-87558666D02*
X99022819Y-87320571D01*
X99022819Y-87320571D02*
X99070438Y-87225333D01*
X99070438Y-87225333D02*
X99118057Y-87177714D01*
X99118057Y-87177714D02*
X99213295Y-87130095D01*
X99213295Y-87130095D02*
X99308533Y-87130095D01*
X99308533Y-87130095D02*
X99451390Y-87177714D01*
X99451390Y-87177714D02*
X100022819Y-87749142D01*
X100022819Y-87749142D02*
X100022819Y-87130095D01*
X102603833Y-102924580D02*
X102556214Y-102972200D01*
X102556214Y-102972200D02*
X102413357Y-103019819D01*
X102413357Y-103019819D02*
X102318119Y-103019819D01*
X102318119Y-103019819D02*
X102175262Y-102972200D01*
X102175262Y-102972200D02*
X102080024Y-102876961D01*
X102080024Y-102876961D02*
X102032405Y-102781723D01*
X102032405Y-102781723D02*
X101984786Y-102591247D01*
X101984786Y-102591247D02*
X101984786Y-102448390D01*
X101984786Y-102448390D02*
X102032405Y-102257914D01*
X102032405Y-102257914D02*
X102080024Y-102162676D01*
X102080024Y-102162676D02*
X102175262Y-102067438D01*
X102175262Y-102067438D02*
X102318119Y-102019819D01*
X102318119Y-102019819D02*
X102413357Y-102019819D01*
X102413357Y-102019819D02*
X102556214Y-102067438D01*
X102556214Y-102067438D02*
X102603833Y-102115057D01*
X102937167Y-102019819D02*
X103603833Y-102019819D01*
X103603833Y-102019819D02*
X103175262Y-103019819D01*
D14*
X140122000Y-64818400D02*
X140122000Y-66428400D01*
X140122000Y-66428400D02*
X141732000Y-66428400D01*
X145622000Y-54838400D02*
X149042000Y-54838400D01*
X145622000Y-66878400D02*
X145622000Y-54838400D01*
X149042000Y-54838400D02*
X149042000Y-55888400D01*
X149042000Y-55888400D02*
X155242000Y-55888400D01*
X149042000Y-65828400D02*
X149042000Y-66878400D01*
X149042000Y-66878400D02*
X145622000Y-66878400D01*
X155242000Y-55888400D02*
X155242000Y-65828400D01*
X155242000Y-57718400D02*
X156742000Y-57718400D01*
X155242000Y-61678400D02*
X156742000Y-61678400D01*
X155242000Y-65638400D02*
X156742000Y-65638400D01*
X155242000Y-65828400D02*
X149042000Y-65828400D01*
X156742000Y-56078400D02*
X155242000Y-56078400D01*
X156742000Y-57718400D02*
X156742000Y-56078400D01*
X156742000Y-60038400D02*
X155242000Y-60038400D01*
X156742000Y-61678400D02*
X156742000Y-60038400D01*
X156742000Y-63998400D02*
X155242000Y-63998400D01*
X156742000Y-65638400D02*
X156742000Y-63998400D01*
X93998500Y-109169564D02*
X93998500Y-107715436D01*
X95818500Y-109169564D02*
X95818500Y-107715436D01*
X107799064Y-91829000D02*
X106344936Y-91829000D01*
X107799064Y-93649000D02*
X106344936Y-93649000D01*
X119134936Y-96372000D02*
X120589064Y-96372000D01*
X119134936Y-98192000D02*
X120589064Y-98192000D01*
X106322936Y-89329000D02*
X107777064Y-89329000D01*
X106322936Y-91149000D02*
X107777064Y-91149000D01*
X94607564Y-103505000D02*
X93153436Y-103505000D01*
X94607564Y-105325000D02*
X93153436Y-105325000D01*
X87539000Y-103870064D02*
X87539000Y-102415936D01*
X89359000Y-103870064D02*
X89359000Y-102415936D01*
X97178936Y-99441000D02*
X98633064Y-99441000D01*
X97178936Y-101261000D02*
X98633064Y-101261000D01*
X140122000Y-79347200D02*
X140122000Y-80957200D01*
X140122000Y-80957200D02*
X141732000Y-80957200D01*
X145622000Y-69367200D02*
X149042000Y-69367200D01*
X145622000Y-81407200D02*
X145622000Y-69367200D01*
X149042000Y-69367200D02*
X149042000Y-70417200D01*
X149042000Y-70417200D02*
X155242000Y-70417200D01*
X149042000Y-80357200D02*
X149042000Y-81407200D01*
X149042000Y-81407200D02*
X145622000Y-81407200D01*
X155242000Y-70417200D02*
X155242000Y-80357200D01*
X155242000Y-72247200D02*
X156742000Y-72247200D01*
X155242000Y-76207200D02*
X156742000Y-76207200D01*
X155242000Y-80167200D02*
X156742000Y-80167200D01*
X155242000Y-80357200D02*
X149042000Y-80357200D01*
X156742000Y-70607200D02*
X155242000Y-70607200D01*
X156742000Y-72247200D02*
X156742000Y-70607200D01*
X156742000Y-74567200D02*
X155242000Y-74567200D01*
X156742000Y-76207200D02*
X156742000Y-74567200D01*
X156742000Y-78527200D02*
X155242000Y-78527200D01*
X156742000Y-80167200D02*
X156742000Y-78527200D01*
D15*
X119299002Y-102742299D02*
X132761002Y-102742299D01*
X119299002Y-119607899D02*
X119299002Y-102742299D01*
X132761002Y-102742299D02*
X132761002Y-119607899D01*
X132761002Y-119607899D02*
X119299002Y-119607899D01*
D10*
X144487500Y-96774000D02*
X139915500Y-96774000D01*
X139915500Y-101346000D01*
X144487500Y-101346000D01*
X144487500Y-96774000D01*
D14*
X128225000Y-97538748D02*
X128225000Y-98961252D01*
X130045000Y-97538748D02*
X130045000Y-98961252D01*
D15*
X128638300Y-78701900D02*
X128638300Y-79163545D01*
X128638300Y-82583655D02*
X128638300Y-83045300D01*
X128638300Y-83045300D02*
X129099945Y-83045300D01*
X129099945Y-78701900D02*
X128638300Y-78701900D01*
X132520055Y-83045300D02*
X132981700Y-83045300D01*
X132981700Y-78701900D02*
X132520055Y-78701900D01*
X132981700Y-79163545D02*
X132981700Y-78701900D01*
X132981700Y-83045300D02*
X132981700Y-82583655D01*
D16*
G36*
X131250563Y-83629500D02*
G01*
X130869563Y-83629500D01*
X130869563Y-83375500D01*
X131250563Y-83375500D01*
X131250563Y-83629500D01*
G37*
G36*
X131750689Y-78371700D02*
G01*
X131369689Y-78371700D01*
X131369689Y-78117700D01*
X131750689Y-78117700D01*
X131750689Y-78371700D01*
G37*
D14*
X108924640Y-41254800D02*
X109974640Y-41254800D01*
X108924640Y-44674800D02*
X108924640Y-41254800D01*
X109974640Y-35054800D02*
X119914640Y-35054800D01*
X109974640Y-41254800D02*
X109974640Y-35054800D01*
X110164640Y-33554800D02*
X110164640Y-35054800D01*
X111804640Y-33554800D02*
X110164640Y-33554800D01*
X111804640Y-35054800D02*
X111804640Y-33554800D01*
X114124640Y-33554800D02*
X114124640Y-35054800D01*
X115764640Y-33554800D02*
X114124640Y-33554800D01*
X115764640Y-35054800D02*
X115764640Y-33554800D01*
X118084640Y-33554800D02*
X118084640Y-35054800D01*
X118904640Y-50174800D02*
X120514640Y-50174800D01*
X119724640Y-33554800D02*
X118084640Y-33554800D01*
X119724640Y-35054800D02*
X119724640Y-33554800D01*
X119914640Y-35054800D02*
X119914640Y-41254800D01*
X119914640Y-41254800D02*
X120964640Y-41254800D01*
X120514640Y-50174800D02*
X120514640Y-48564800D01*
X120964640Y-41254800D02*
X120964640Y-44674800D01*
X120964640Y-44674800D02*
X108924640Y-44674800D01*
X131378336Y-58221200D02*
X132832464Y-58221200D01*
X131378336Y-60041200D02*
X132832464Y-60041200D01*
X132690063Y-85128048D02*
X132690063Y-86550552D01*
X134510063Y-85128048D02*
X134510063Y-86550552D01*
X107799064Y-94329000D02*
X106344936Y-94329000D01*
X107799064Y-96149000D02*
X106344936Y-96149000D01*
X101998000Y-86317600D02*
X101998000Y-84937600D01*
X103378000Y-86317600D02*
X101998000Y-86317600D01*
X104648000Y-83557600D02*
X122538000Y-83557600D01*
X104648000Y-86317600D02*
X104648000Y-83557600D01*
X104648000Y-86317600D02*
X122538000Y-86317600D01*
X122538000Y-86317600D02*
X122538000Y-83557600D01*
X133337760Y-41254800D02*
X134387760Y-41254800D01*
X133337760Y-44674800D02*
X133337760Y-41254800D01*
X134387760Y-35054800D02*
X140367760Y-35054800D01*
X134387760Y-41254800D02*
X134387760Y-35054800D01*
X134577760Y-33554800D02*
X134577760Y-35054800D01*
X136217760Y-33554800D02*
X134577760Y-33554800D01*
X136217760Y-35054800D02*
X136217760Y-33554800D01*
X138537760Y-33554800D02*
X138537760Y-35054800D01*
X139357760Y-50174800D02*
X140967760Y-50174800D01*
X140177760Y-33554800D02*
X138537760Y-33554800D01*
X140177760Y-35054800D02*
X140177760Y-33554800D01*
X140367760Y-35054800D02*
X140367760Y-41254800D01*
X140367760Y-41254800D02*
X141417760Y-41254800D01*
X140967760Y-50174800D02*
X140967760Y-48564800D01*
X141417760Y-41254800D02*
X141417760Y-44674800D01*
X141417760Y-44674800D02*
X133337760Y-44674800D01*
X105670500Y-107751936D02*
X105670500Y-109206064D01*
X107490500Y-107751936D02*
X107490500Y-109206064D01*
X107761252Y-99329000D02*
X106338748Y-99329000D01*
X107761252Y-101149000D02*
X106338748Y-101149000D01*
X123111200Y-41254800D02*
X124161200Y-41254800D01*
X123111200Y-44674800D02*
X123111200Y-41254800D01*
X124161200Y-35054800D02*
X130141200Y-35054800D01*
X124161200Y-41254800D02*
X124161200Y-35054800D01*
X124351200Y-33554800D02*
X124351200Y-35054800D01*
X125991200Y-33554800D02*
X124351200Y-33554800D01*
X125991200Y-35054800D02*
X125991200Y-33554800D01*
X128311200Y-33554800D02*
X128311200Y-35054800D01*
X129131200Y-50174800D02*
X130741200Y-50174800D01*
X129951200Y-33554800D02*
X128311200Y-33554800D01*
X129951200Y-35054800D02*
X129951200Y-33554800D01*
X130141200Y-35054800D02*
X130141200Y-41254800D01*
X130141200Y-41254800D02*
X131191200Y-41254800D01*
X130741200Y-50174800D02*
X130741200Y-48564800D01*
X131191200Y-41254800D02*
X131191200Y-44674800D01*
X131191200Y-44674800D02*
X123111200Y-44674800D01*
X94594000Y-86325064D02*
X94594000Y-84870936D01*
X96414000Y-86325064D02*
X96414000Y-84870936D01*
X130150063Y-85471348D02*
X130150063Y-86893852D01*
X131970063Y-85471348D02*
X131970063Y-86893852D01*
X101793500Y-109153752D02*
X101793500Y-107731248D01*
X103613500Y-109153752D02*
X103613500Y-107731248D01*
X133740536Y-60862800D02*
X135194664Y-60862800D01*
X133740536Y-62682800D02*
X135194664Y-62682800D01*
X96462000Y-91749000D02*
X97187000Y-91749000D01*
X96462000Y-92474000D02*
X96462000Y-91749000D01*
X96462000Y-96969000D02*
X96462000Y-96244000D01*
X97187000Y-96969000D02*
X96462000Y-96969000D01*
X100957000Y-91749000D02*
X101682000Y-91749000D01*
X101682000Y-91749000D02*
X101682000Y-92474000D01*
X101682000Y-96244000D02*
X101682000Y-96969000D01*
X101682000Y-96969000D02*
X100957000Y-96969000D01*
X95962000Y-92859000D02*
X95632000Y-93099000D01*
X95632000Y-92619000D01*
X95962000Y-92859000D01*
G36*
X95962000Y-92859000D02*
G01*
X95632000Y-93099000D01*
X95632000Y-92619000D01*
X95962000Y-92859000D01*
G37*
D10*
X117856000Y-88646000D02*
X122428000Y-88646000D01*
X122428000Y-93218000D01*
X117856000Y-93218000D01*
X117856000Y-88646000D01*
D14*
X94738080Y-41254800D02*
X95788080Y-41254800D01*
X94738080Y-44674800D02*
X94738080Y-41254800D01*
X95788080Y-35054800D02*
X105728080Y-35054800D01*
X95788080Y-41254800D02*
X95788080Y-35054800D01*
X95978080Y-33554800D02*
X95978080Y-35054800D01*
X97618080Y-33554800D02*
X95978080Y-33554800D01*
X97618080Y-35054800D02*
X97618080Y-33554800D01*
X99938080Y-33554800D02*
X99938080Y-35054800D01*
X101578080Y-33554800D02*
X99938080Y-33554800D01*
X101578080Y-35054800D02*
X101578080Y-33554800D01*
X103898080Y-33554800D02*
X103898080Y-35054800D01*
X104718080Y-50174800D02*
X106328080Y-50174800D01*
X105538080Y-33554800D02*
X103898080Y-33554800D01*
X105538080Y-35054800D02*
X105538080Y-33554800D01*
X105728080Y-35054800D02*
X105728080Y-41254800D01*
X105728080Y-41254800D02*
X106778080Y-41254800D01*
X106328080Y-50174800D02*
X106328080Y-48564800D01*
X106778080Y-41254800D02*
X106778080Y-44674800D01*
X106778080Y-44674800D02*
X94738080Y-44674800D01*
X79935200Y-54300400D02*
X79935200Y-55940400D01*
X79935200Y-55940400D02*
X81435200Y-55940400D01*
X79935200Y-58260400D02*
X79935200Y-59900400D01*
X79935200Y-59900400D02*
X81435200Y-59900400D01*
X79935200Y-62220400D02*
X79935200Y-63860400D01*
X79935200Y-63860400D02*
X81435200Y-63860400D01*
X79935200Y-66180400D02*
X79935200Y-67820400D01*
X79935200Y-67820400D02*
X81435200Y-67820400D01*
X79935200Y-70140400D02*
X79935200Y-71780400D01*
X79935200Y-71780400D02*
X81435200Y-71780400D01*
X79935200Y-74100400D02*
X79935200Y-75740400D01*
X79935200Y-75740400D02*
X81435200Y-75740400D01*
X79935200Y-78060400D02*
X79935200Y-79700400D01*
X79935200Y-79700400D02*
X81435200Y-79700400D01*
X81435200Y-54110400D02*
X87635200Y-54110400D01*
X81435200Y-54300400D02*
X79935200Y-54300400D01*
X81435200Y-58260400D02*
X79935200Y-58260400D01*
X81435200Y-62220400D02*
X79935200Y-62220400D01*
X81435200Y-66180400D02*
X79935200Y-66180400D01*
X81435200Y-70140400D02*
X79935200Y-70140400D01*
X81435200Y-74100400D02*
X79935200Y-74100400D01*
X81435200Y-78060400D02*
X79935200Y-78060400D01*
X81435200Y-79890400D02*
X81435200Y-54110400D01*
X87635200Y-53060400D02*
X91055200Y-53060400D01*
X87635200Y-54110400D02*
X87635200Y-53060400D01*
X87635200Y-79890400D02*
X81435200Y-79890400D01*
X87635200Y-80940400D02*
X87635200Y-79890400D01*
X91055200Y-53060400D02*
X91055200Y-80940400D01*
X91055200Y-80940400D02*
X87635200Y-80940400D01*
X96555200Y-53510400D02*
X94945200Y-53510400D01*
X96555200Y-55120400D02*
X96555200Y-53510400D01*
X92483000Y-84036000D02*
X92483000Y-86496000D01*
X92483000Y-86496000D02*
X93953000Y-86496000D01*
X93953000Y-86496000D02*
X93953000Y-84036000D01*
X140205000Y-88594000D02*
X140205000Y-90204000D01*
X140205000Y-90204000D02*
X141815000Y-90204000D01*
X145705000Y-82574000D02*
X149125000Y-82574000D01*
X145705000Y-90654000D02*
X145705000Y-82574000D01*
X149125000Y-82574000D02*
X149125000Y-83624000D01*
X149125000Y-83624000D02*
X155325000Y-83624000D01*
X149125000Y-89604000D02*
X149125000Y-90654000D01*
X149125000Y-90654000D02*
X145705000Y-90654000D01*
X155325000Y-83624000D02*
X155325000Y-89604000D01*
X155325000Y-85454000D02*
X156825000Y-85454000D01*
X155325000Y-89414000D02*
X156825000Y-89414000D01*
X155325000Y-89604000D02*
X149125000Y-89604000D01*
X156825000Y-83814000D02*
X155325000Y-83814000D01*
X156825000Y-85454000D02*
X156825000Y-83814000D01*
X156825000Y-87774000D02*
X155325000Y-87774000D01*
X156825000Y-89414000D02*
X156825000Y-87774000D01*
X109565000Y-106600000D02*
X109565000Y-109060000D01*
X111035000Y-106600000D02*
X109565000Y-106600000D01*
X111035000Y-109060000D02*
X111035000Y-106600000D01*
X126025600Y-73968936D02*
X126025600Y-75423064D01*
X127845600Y-73968936D02*
X127845600Y-75423064D01*
X106322936Y-96829000D02*
X107777064Y-96829000D01*
X106322936Y-98649000D02*
X107777064Y-98649000D01*
X131102064Y-93592500D02*
X129647936Y-93592500D01*
X131102064Y-95412500D02*
X129647936Y-95412500D01*
X129016136Y-55579600D02*
X130470264Y-55579600D01*
X129016136Y-57399600D02*
X130470264Y-57399600D01*
X119176748Y-93832000D02*
X120599252Y-93832000D01*
X119176748Y-95652000D02*
X120599252Y-95652000D01*
X97822432Y-103480000D02*
X98958000Y-103480000D01*
X98958000Y-105350000D02*
X97538000Y-105350000D01*
X97528000Y-103475000D02*
X97388000Y-103285000D01*
X97668000Y-103285000D01*
X97528000Y-103475000D01*
G36*
X97528000Y-103475000D02*
G01*
X97388000Y-103285000D01*
X97668000Y-103285000D01*
X97528000Y-103475000D01*
G37*
X130725000Y-97538748D02*
X130725000Y-98961252D01*
X132545000Y-97538748D02*
X132545000Y-98961252D01*
X131220800Y-75450352D02*
X131220800Y-74027848D01*
X133040800Y-75450352D02*
X133040800Y-74027848D01*
X128613200Y-73968936D02*
X128613200Y-75423064D01*
X130433200Y-73968936D02*
X130433200Y-75423064D01*
X84390000Y-90437000D02*
X86095000Y-90437000D01*
X84390000Y-99597000D02*
X84390000Y-90437000D01*
X86095000Y-99597000D02*
X84390000Y-99597000D01*
X88105000Y-99597000D02*
X90025000Y-99597000D01*
X90025000Y-90437000D02*
X88105000Y-90437000D01*
X96880000Y-88129064D02*
X96880000Y-86674936D01*
X98700000Y-88129064D02*
X98700000Y-86674936D01*
X102059248Y-103505000D02*
X103481752Y-103505000D01*
X102059248Y-105325000D02*
X103481752Y-105325000D01*
%LPC*%
D17*
X141732000Y-64818400D03*
D18*
X141732000Y-60858400D03*
X141732000Y-56898400D03*
D19*
X94908500Y-109992500D03*
X94908500Y-106892500D03*
D20*
X108622000Y-92739000D03*
X105522000Y-92739000D03*
D21*
X118312000Y-97282000D03*
X121412000Y-97282000D03*
D22*
X122428000Y-55197600D03*
D21*
X105500000Y-90239000D03*
X108600000Y-90239000D03*
D20*
X95430500Y-104415000D03*
X92330500Y-104415000D03*
D19*
X88449000Y-104693000D03*
X88449000Y-101593000D03*
D23*
X89814400Y-44145200D03*
D21*
X96356000Y-100351000D03*
X99456000Y-100351000D03*
D17*
X141732000Y-79347200D03*
D18*
X141732000Y-75387200D03*
X141732000Y-71427200D03*
D24*
X131930000Y-112469999D03*
X131930000Y-111669998D03*
X131930000Y-110869999D03*
X131930000Y-110069998D03*
X131930000Y-109270000D03*
X131930000Y-108469999D03*
X131930000Y-107669998D03*
X131930000Y-106870000D03*
X131930000Y-106069999D03*
X131930000Y-105270000D03*
X131930000Y-104469999D03*
D25*
X130830003Y-103569999D03*
X130030002Y-103569999D03*
X129230001Y-103569999D03*
X128430002Y-103569999D03*
X127630001Y-103569999D03*
X126830003Y-103569999D03*
X126030002Y-103569999D03*
X125230001Y-103569999D03*
X124430003Y-103569999D03*
X123630002Y-103569999D03*
X122830003Y-103569999D03*
X122030002Y-103569999D03*
X121230004Y-103569999D03*
D24*
X120130004Y-104469999D03*
X120130004Y-105270000D03*
X120130004Y-106069999D03*
X120130004Y-106870000D03*
X120130004Y-107669998D03*
X120130004Y-108469999D03*
X120130004Y-109270000D03*
X120130004Y-110069998D03*
X120130004Y-110869999D03*
X120130004Y-111669998D03*
X120130004Y-112469999D03*
D25*
X121230001Y-113369999D03*
X122030002Y-113369999D03*
X122830003Y-113369999D03*
X123630002Y-113369999D03*
X124430003Y-113369999D03*
X125230001Y-113369999D03*
X126030002Y-113369999D03*
X126830003Y-113369999D03*
X127630001Y-113369999D03*
X128430002Y-113369999D03*
X129230001Y-113369999D03*
X130030002Y-113369999D03*
X130830000Y-113369999D03*
D26*
X126030002Y-108469999D03*
D27*
X120080004Y-113419999D03*
X120080004Y-103519999D03*
X131980000Y-103519999D03*
X131980000Y-113419999D03*
D28*
X128005002Y-110444999D03*
D26*
X126030002Y-110444999D03*
X124055002Y-110444999D03*
X124055002Y-108469999D03*
X124055002Y-106494999D03*
X126030002Y-106494999D03*
X128005002Y-106494999D03*
X128005002Y-108469999D03*
D29*
X144233500Y-95875957D03*
X144243832Y-102302536D03*
X140172976Y-95824296D03*
X140172976Y-102302536D03*
D30*
X129135000Y-96687500D03*
X129135000Y-99812500D03*
D31*
X128866900Y-79623285D03*
X128866900Y-80123411D03*
X128866900Y-80623537D03*
X128866900Y-81123663D03*
X128866900Y-81623789D03*
X128866900Y-82123915D03*
D32*
X129559685Y-82816700D03*
X130059811Y-82816700D03*
X130559937Y-82816700D03*
X131060063Y-82816700D03*
X131560189Y-82816700D03*
X132060315Y-82816700D03*
D31*
X132753100Y-82123915D03*
X132753100Y-81623789D03*
X132753100Y-81123663D03*
X132753100Y-80623537D03*
X132753100Y-80123411D03*
X132753100Y-79623285D03*
D32*
X132060315Y-78930500D03*
X131560189Y-78930500D03*
X131060063Y-78930500D03*
X130559937Y-78930500D03*
X130059811Y-78930500D03*
X129559685Y-78930500D03*
D33*
X130810000Y-80873600D03*
D34*
X118904640Y-48564800D03*
D18*
X114944640Y-48564800D03*
X110984640Y-48564800D03*
D23*
X146507200Y-44145200D03*
D21*
X130555400Y-59131200D03*
X133655400Y-59131200D03*
D30*
X133600063Y-84276800D03*
X133600063Y-87401800D03*
D20*
X108622000Y-95239000D03*
X105522000Y-95239000D03*
D35*
X103378000Y-84937600D03*
D36*
X105918000Y-84937600D03*
X108458000Y-84937600D03*
X110998000Y-84937600D03*
X113538000Y-84937600D03*
X116078000Y-84937600D03*
X118618000Y-84937600D03*
X121158000Y-84937600D03*
D34*
X139357760Y-48564800D03*
D18*
X135397760Y-48564800D03*
D37*
X106580500Y-106929000D03*
X106580500Y-110029000D03*
D38*
X108612500Y-100239000D03*
X105487500Y-100239000D03*
D34*
X129131200Y-48564800D03*
D18*
X125171200Y-48564800D03*
D19*
X95504000Y-87148000D03*
X95504000Y-84048000D03*
D30*
X131060063Y-84620100D03*
X131060063Y-87745100D03*
D39*
X102703500Y-110005000D03*
X102703500Y-106880000D03*
D21*
X132917600Y-61772800D03*
X136017600Y-61772800D03*
D40*
X96622000Y-92859000D03*
X96622000Y-93359000D03*
X96622000Y-93859000D03*
X96622000Y-94359000D03*
X96622000Y-94859000D03*
X96622000Y-95359000D03*
X96622000Y-95859000D03*
D41*
X97572000Y-96809000D03*
X98072000Y-96809000D03*
X98572000Y-96809000D03*
X99072000Y-96809000D03*
X99572000Y-96809000D03*
X100072000Y-96809000D03*
X100572000Y-96809000D03*
D40*
X101522000Y-95859000D03*
X101522000Y-95359000D03*
X101522000Y-94859000D03*
X101522000Y-94359000D03*
X101522000Y-93859000D03*
X101522000Y-93359000D03*
X101522000Y-92859000D03*
D41*
X100572000Y-91909000D03*
X100072000Y-91909000D03*
X99572000Y-91909000D03*
X99072000Y-91909000D03*
X98572000Y-91909000D03*
X98072000Y-91909000D03*
X97572000Y-91909000D03*
D42*
X99072000Y-94359000D03*
D43*
X116957957Y-88900000D03*
X123384536Y-88889668D03*
X116906296Y-92960524D03*
X123384536Y-92960524D03*
D34*
X104718080Y-48564800D03*
D18*
X100758080Y-48564800D03*
X96798080Y-48564800D03*
D44*
X94945200Y-55120400D03*
D18*
X94945200Y-59080400D03*
X94945200Y-63040400D03*
X94945200Y-67000400D03*
X94945200Y-70960400D03*
X94945200Y-74920400D03*
X94945200Y-78880400D03*
D23*
X89814400Y-109524800D03*
D45*
X93218000Y-85711000D03*
X93218000Y-83961000D03*
D17*
X141815000Y-88594000D03*
D18*
X141815000Y-84634000D03*
D46*
X110300000Y-107385000D03*
X110300000Y-109135000D03*
D22*
X102108000Y-55197600D03*
D37*
X126935600Y-73146000D03*
X126935600Y-76246000D03*
D21*
X105500000Y-97739000D03*
X108600000Y-97739000D03*
D20*
X131925000Y-94502500D03*
X128825000Y-94502500D03*
D21*
X128193200Y-56489600D03*
X131293200Y-56489600D03*
D47*
X118325500Y-94742000D03*
X121450500Y-94742000D03*
D48*
X97535500Y-103915000D03*
X97535500Y-104415000D03*
X97535500Y-104915000D03*
X98960500Y-104915000D03*
X98960500Y-104415000D03*
X98960500Y-103915000D03*
D30*
X131635000Y-96687500D03*
X131635000Y-99812500D03*
D39*
X132130800Y-76301600D03*
X132130800Y-73176600D03*
D37*
X129523200Y-73146000D03*
X129523200Y-76246000D03*
D49*
X90780000Y-92127000D03*
X90780000Y-97907000D03*
D50*
X91900000Y-91817000D03*
X91900000Y-92617000D03*
D51*
X91900000Y-93767000D03*
X91900000Y-94767000D03*
X91900000Y-95267000D03*
X91900000Y-96267000D03*
D50*
X91900000Y-97417000D03*
X91900000Y-98217000D03*
X91900000Y-98217000D03*
X91900000Y-97417000D03*
D51*
X91900000Y-96767000D03*
X91900000Y-95767000D03*
X91900000Y-94267000D03*
X91900000Y-93267000D03*
D50*
X91900000Y-92617000D03*
X91900000Y-91817000D03*
D52*
X91300000Y-90697000D03*
D53*
X87100000Y-90697000D03*
D52*
X91300000Y-99337000D03*
D53*
X87100000Y-99337000D03*
D19*
X97790000Y-88952000D03*
X97790000Y-85852000D03*
D47*
X101208000Y-104415000D03*
X104333000Y-104415000D03*
D54*
X129765000Y-101475000D03*
D55*
X131035000Y-101475000D03*
%LPD*%
M02*
