G04 #@! TF.GenerationSoftware,KiCad,Pcbnew,9.0.7*
G04 #@! TF.CreationDate,2026-03-06T14:53:54-05:00*
G04 #@! TF.ProjectId,Smart_Backpack,536d6172-745f-4426-9163-6b7061636b2e,rev?*
G04 #@! TF.SameCoordinates,Original*
G04 #@! TF.FileFunction,Soldermask,Bot*
G04 #@! TF.FilePolarity,Negative*
%FSLAX46Y46*%
G04 Gerber Fmt 4.6, Leading zero omitted, Abs format (unit mm)*
G04 Created by KiCad (PCBNEW 9.0.7) date 2026-03-06 14:53:54*
%MOMM*%
%LPD*%
G01*
G04 APERTURE LIST*
G04 Aperture macros list*
%AMRoundRect*
0 Rectangle with rounded corners*
0 $1 Rounding radius*
0 $2 $3 $4 $5 $6 $7 $8 $9 X,Y pos of 4 corners*
0 Add a 4 corners polygon primitive as box body*
4,1,4,$2,$3,$4,$5,$6,$7,$8,$9,$2,$3,0*
0 Add four circle primitives for the rounded corners*
1,1,$1+$1,$2,$3*
1,1,$1+$1,$4,$5*
1,1,$1+$1,$6,$7*
1,1,$1+$1,$8,$9*
0 Add four rect primitives between the rounded corners*
20,1,$1+$1,$2,$3,$4,$5,0*
20,1,$1+$1,$4,$5,$6,$7,0*
20,1,$1+$1,$6,$7,$8,$9,0*
20,1,$1+$1,$8,$9,$2,$3,0*%
G04 Aperture macros list end*
%ADD10RoundRect,0.250001X1.099999X-1.099999X1.099999X1.099999X-1.099999X1.099999X-1.099999X-1.099999X0*%
%ADD11C,2.700000*%
%ADD12C,2.200000*%
%ADD13C,3.000000*%
%ADD14RoundRect,0.250001X1.099999X1.099999X-1.099999X1.099999X-1.099999X-1.099999X1.099999X-1.099999X0*%
%ADD15R,1.700000X1.700000*%
%ADD16C,1.700000*%
%ADD17RoundRect,0.250001X-1.099999X1.099999X-1.099999X-1.099999X1.099999X-1.099999X1.099999X1.099999X0*%
%ADD18C,0.650000*%
%ADD19O,2.100000X1.000000*%
%ADD20O,1.800000X1.000000*%
%ADD21RoundRect,0.250000X-0.412500X-0.650000X0.412500X-0.650000X0.412500X0.650000X-0.412500X0.650000X0*%
%ADD22R,2.209800X8.001000*%
%ADD23RoundRect,0.250000X0.412500X0.650000X-0.412500X0.650000X-0.412500X-0.650000X0.412500X-0.650000X0*%
%ADD24RoundRect,0.160000X-0.160000X0.222500X-0.160000X-0.222500X0.160000X-0.222500X0.160000X0.222500X0*%
%ADD25RoundRect,0.250000X0.400000X0.625000X-0.400000X0.625000X-0.400000X-0.625000X0.400000X-0.625000X0*%
%ADD26RoundRect,0.250000X0.650000X-0.412500X0.650000X0.412500X-0.650000X0.412500X-0.650000X-0.412500X0*%
%ADD27C,1.204050*%
%ADD28C,1.204450*%
%ADD29RoundRect,0.250000X0.625000X-0.400000X0.625000X0.400000X-0.625000X0.400000X-0.625000X-0.400000X0*%
G04 APERTURE END LIST*
D10*
X141732000Y-64818400D03*
D11*
X141732000Y-60858400D03*
X141732000Y-56898400D03*
D12*
X122428000Y-55197600D03*
D13*
X89814400Y-44145200D03*
D10*
X141732000Y-79347200D03*
D11*
X141732000Y-75387200D03*
X141732000Y-71427200D03*
D14*
X118904640Y-48564800D03*
D11*
X114944640Y-48564800D03*
X110984640Y-48564800D03*
D13*
X146507200Y-44145200D03*
D15*
X103378000Y-84937600D03*
D16*
X105918000Y-84937600D03*
X108458000Y-84937600D03*
X110998000Y-84937600D03*
X113538000Y-84937600D03*
X116078000Y-84937600D03*
X118618000Y-84937600D03*
X121158000Y-84937600D03*
D14*
X139357760Y-48564800D03*
D11*
X135397760Y-48564800D03*
D14*
X129131200Y-48564800D03*
D11*
X125171200Y-48564800D03*
D14*
X104718080Y-48564800D03*
D11*
X100758080Y-48564800D03*
X96798080Y-48564800D03*
D17*
X94945200Y-55120400D03*
D11*
X94945200Y-59080400D03*
X94945200Y-63040400D03*
X94945200Y-67000400D03*
X94945200Y-70960400D03*
X94945200Y-74920400D03*
X94945200Y-78880400D03*
D13*
X89814400Y-109524800D03*
D10*
X141815000Y-88594000D03*
D11*
X141815000Y-84634000D03*
D12*
X102108000Y-55197600D03*
D18*
X90780000Y-92127000D03*
X90780000Y-97907000D03*
D19*
X91300000Y-90697000D03*
D20*
X87100000Y-90697000D03*
D19*
X91300000Y-99337000D03*
D20*
X87100000Y-99337000D03*
D21*
X140677500Y-101600000D03*
X143802500Y-101600000D03*
D22*
X100393500Y-106680000D03*
X94678500Y-106680000D03*
D23*
X143802500Y-96266000D03*
X140677500Y-96266000D03*
D21*
X98337500Y-97350000D03*
X101462500Y-97350000D03*
D24*
X89651000Y-94527500D03*
X89651000Y-95672500D03*
D25*
X143751500Y-99060000D03*
X140651500Y-99060000D03*
D26*
X123247106Y-110907897D03*
X123247106Y-107782897D03*
D27*
X129765000Y-101475000D03*
D28*
X131035000Y-101475000D03*
D26*
X125787106Y-110907897D03*
X125787106Y-107782897D03*
D29*
X128327106Y-110895397D03*
X128327106Y-107795397D03*
D24*
X95910000Y-95947500D03*
X95910000Y-97092500D03*
D23*
X101462500Y-94000000D03*
X98337500Y-94000000D03*
M02*
