G04 #@! TF.GenerationSoftware,KiCad,Pcbnew,9.0.7*
G04 #@! TF.CreationDate,2026-03-06T14:53:54-05:00*
G04 #@! TF.ProjectId,Smart_Backpack,536d6172-745f-4426-9163-6b7061636b2e,rev?*
G04 #@! TF.SameCoordinates,Original*
G04 #@! TF.FileFunction,Legend,Bot*
G04 #@! TF.FilePolarity,Positive*
%FSLAX46Y46*%
G04 Gerber Fmt 4.6, Leading zero omitted, Abs format (unit mm)*
G04 Created by KiCad (PCBNEW 9.0.7) date 2026-03-06 14:53:54*
%MOMM*%
%LPD*%
G01*
G04 APERTURE LIST*
G04 Aperture macros list*
%AMRoundRect*
0 Rectangle with rounded corners*
0 $1 Rounding radius*
0 $2 $3 $4 $5 $6 $7 $8 $9 X,Y pos of 4 corners*
0 Add a 4 corners polygon primitive as box body*
4,1,4,$2,$3,$4,$5,$6,$7,$8,$9,$2,$3,0*
0 Add four circle primitives for the rounded corners*
1,1,$1+$1,$2,$3*
1,1,$1+$1,$4,$5*
1,1,$1+$1,$6,$7*
1,1,$1+$1,$8,$9*
0 Add four rect primitives between the rounded corners*
20,1,$1+$1,$2,$3,$4,$5,0*
20,1,$1+$1,$4,$5,$6,$7,0*
20,1,$1+$1,$6,$7,$8,$9,0*
20,1,$1+$1,$8,$9,$2,$3,0*%
G04 Aperture macros list end*
%ADD10C,0.150000*%
%ADD11C,0.228600*%
%ADD12C,0.100000*%
%ADD13C,0.120000*%
%ADD14C,0.152400*%
%ADD15C,0.127000*%
%ADD16RoundRect,0.250001X1.099999X-1.099999X1.099999X1.099999X-1.099999X1.099999X-1.099999X-1.099999X0*%
%ADD17C,2.700000*%
%ADD18C,2.200000*%
%ADD19C,3.000000*%
%ADD20RoundRect,0.250001X1.099999X1.099999X-1.099999X1.099999X-1.099999X-1.099999X1.099999X-1.099999X0*%
%ADD21R,1.700000X1.700000*%
%ADD22C,1.700000*%
%ADD23RoundRect,0.250001X-1.099999X1.099999X-1.099999X-1.099999X1.099999X-1.099999X1.099999X1.099999X0*%
%ADD24C,0.650000*%
%ADD25O,2.100000X1.000000*%
%ADD26O,1.800000X1.000000*%
%ADD27RoundRect,0.250000X-0.412500X-0.650000X0.412500X-0.650000X0.412500X0.650000X-0.412500X0.650000X0*%
%ADD28R,2.209800X8.001000*%
%ADD29RoundRect,0.250000X0.412500X0.650000X-0.412500X0.650000X-0.412500X-0.650000X0.412500X-0.650000X0*%
%ADD30RoundRect,0.160000X-0.160000X0.222500X-0.160000X-0.222500X0.160000X-0.222500X0.160000X0.222500X0*%
%ADD31RoundRect,0.250000X0.400000X0.625000X-0.400000X0.625000X-0.400000X-0.625000X0.400000X-0.625000X0*%
%ADD32RoundRect,0.250000X0.650000X-0.412500X0.650000X0.412500X-0.650000X0.412500X-0.650000X-0.412500X0*%
%ADD33C,1.204050*%
%ADD34C,1.204450*%
%ADD35RoundRect,0.250000X0.625000X-0.400000X0.625000X0.400000X-0.625000X0.400000X-0.625000X-0.400000X0*%
G04 APERTURE END LIST*
D10*
X89451000Y-95200000D02*
X89851000Y-95200000D01*
X89451000Y-94900000D02*
X89851000Y-94900000D01*
X95710000Y-96320000D02*
X96110000Y-96320000D01*
X89651000Y-95400000D02*
X89651000Y-95200000D01*
X95910000Y-96820000D02*
X95910000Y-96620000D01*
X96110000Y-96620000D02*
X95910000Y-96320000D01*
X95910000Y-96120000D02*
X95910000Y-96320000D01*
X89651000Y-94900000D02*
X89451000Y-95200000D01*
X95710000Y-96620000D02*
X96110000Y-96620000D01*
X89851000Y-95200000D02*
X89651000Y-94900000D01*
X89651000Y-94700000D02*
X89651000Y-94900000D01*
X95910000Y-96320000D02*
X95710000Y-96620000D01*
X123690363Y-62132424D02*
X123404649Y-62227662D01*
X123404649Y-62227662D02*
X122928458Y-62227662D01*
X122928458Y-62227662D02*
X122737982Y-62132424D01*
X122737982Y-62132424D02*
X122642744Y-62037185D01*
X122642744Y-62037185D02*
X122547506Y-61846709D01*
X122547506Y-61846709D02*
X122547506Y-61656233D01*
X122547506Y-61656233D02*
X122642744Y-61465757D01*
X122642744Y-61465757D02*
X122737982Y-61370519D01*
X122737982Y-61370519D02*
X122928458Y-61275281D01*
X122928458Y-61275281D02*
X123309411Y-61180043D01*
X123309411Y-61180043D02*
X123499887Y-61084804D01*
X123499887Y-61084804D02*
X123595125Y-60989566D01*
X123595125Y-60989566D02*
X123690363Y-60799090D01*
X123690363Y-60799090D02*
X123690363Y-60608614D01*
X123690363Y-60608614D02*
X123595125Y-60418138D01*
X123595125Y-60418138D02*
X123499887Y-60322900D01*
X123499887Y-60322900D02*
X123309411Y-60227662D01*
X123309411Y-60227662D02*
X122833220Y-60227662D01*
X122833220Y-60227662D02*
X122547506Y-60322900D01*
X121690363Y-62227662D02*
X121690363Y-60894328D01*
X121690363Y-61084804D02*
X121595125Y-60989566D01*
X121595125Y-60989566D02*
X121404649Y-60894328D01*
X121404649Y-60894328D02*
X121118934Y-60894328D01*
X121118934Y-60894328D02*
X120928458Y-60989566D01*
X120928458Y-60989566D02*
X120833220Y-61180043D01*
X120833220Y-61180043D02*
X120833220Y-62227662D01*
X120833220Y-61180043D02*
X120737982Y-60989566D01*
X120737982Y-60989566D02*
X120547506Y-60894328D01*
X120547506Y-60894328D02*
X120261792Y-60894328D01*
X120261792Y-60894328D02*
X120071315Y-60989566D01*
X120071315Y-60989566D02*
X119976077Y-61180043D01*
X119976077Y-61180043D02*
X119976077Y-62227662D01*
X118166553Y-62227662D02*
X118166553Y-61180043D01*
X118166553Y-61180043D02*
X118261791Y-60989566D01*
X118261791Y-60989566D02*
X118452267Y-60894328D01*
X118452267Y-60894328D02*
X118833220Y-60894328D01*
X118833220Y-60894328D02*
X119023696Y-60989566D01*
X118166553Y-62132424D02*
X118357029Y-62227662D01*
X118357029Y-62227662D02*
X118833220Y-62227662D01*
X118833220Y-62227662D02*
X119023696Y-62132424D01*
X119023696Y-62132424D02*
X119118934Y-61941947D01*
X119118934Y-61941947D02*
X119118934Y-61751471D01*
X119118934Y-61751471D02*
X119023696Y-61560995D01*
X119023696Y-61560995D02*
X118833220Y-61465757D01*
X118833220Y-61465757D02*
X118357029Y-61465757D01*
X118357029Y-61465757D02*
X118166553Y-61370519D01*
X117214172Y-62227662D02*
X117214172Y-60894328D01*
X117214172Y-61275281D02*
X117118934Y-61084804D01*
X117118934Y-61084804D02*
X117023696Y-60989566D01*
X117023696Y-60989566D02*
X116833220Y-60894328D01*
X116833220Y-60894328D02*
X116642743Y-60894328D01*
X116261791Y-60894328D02*
X115499887Y-60894328D01*
X115976077Y-60227662D02*
X115976077Y-61941947D01*
X115976077Y-61941947D02*
X115880839Y-62132424D01*
X115880839Y-62132424D02*
X115690363Y-62227662D01*
X115690363Y-62227662D02*
X115499887Y-62227662D01*
X112642743Y-61180043D02*
X112357029Y-61275281D01*
X112357029Y-61275281D02*
X112261791Y-61370519D01*
X112261791Y-61370519D02*
X112166553Y-61560995D01*
X112166553Y-61560995D02*
X112166553Y-61846709D01*
X112166553Y-61846709D02*
X112261791Y-62037185D01*
X112261791Y-62037185D02*
X112357029Y-62132424D01*
X112357029Y-62132424D02*
X112547505Y-62227662D01*
X112547505Y-62227662D02*
X113309410Y-62227662D01*
X113309410Y-62227662D02*
X113309410Y-60227662D01*
X113309410Y-60227662D02*
X112642743Y-60227662D01*
X112642743Y-60227662D02*
X112452267Y-60322900D01*
X112452267Y-60322900D02*
X112357029Y-60418138D01*
X112357029Y-60418138D02*
X112261791Y-60608614D01*
X112261791Y-60608614D02*
X112261791Y-60799090D01*
X112261791Y-60799090D02*
X112357029Y-60989566D01*
X112357029Y-60989566D02*
X112452267Y-61084804D01*
X112452267Y-61084804D02*
X112642743Y-61180043D01*
X112642743Y-61180043D02*
X113309410Y-61180043D01*
X110452267Y-62227662D02*
X110452267Y-61180043D01*
X110452267Y-61180043D02*
X110547505Y-60989566D01*
X110547505Y-60989566D02*
X110737981Y-60894328D01*
X110737981Y-60894328D02*
X111118934Y-60894328D01*
X111118934Y-60894328D02*
X111309410Y-60989566D01*
X110452267Y-62132424D02*
X110642743Y-62227662D01*
X110642743Y-62227662D02*
X111118934Y-62227662D01*
X111118934Y-62227662D02*
X111309410Y-62132424D01*
X111309410Y-62132424D02*
X111404648Y-61941947D01*
X111404648Y-61941947D02*
X111404648Y-61751471D01*
X111404648Y-61751471D02*
X111309410Y-61560995D01*
X111309410Y-61560995D02*
X111118934Y-61465757D01*
X111118934Y-61465757D02*
X110642743Y-61465757D01*
X110642743Y-61465757D02*
X110452267Y-61370519D01*
X108642743Y-62132424D02*
X108833219Y-62227662D01*
X108833219Y-62227662D02*
X109214172Y-62227662D01*
X109214172Y-62227662D02*
X109404648Y-62132424D01*
X109404648Y-62132424D02*
X109499886Y-62037185D01*
X109499886Y-62037185D02*
X109595124Y-61846709D01*
X109595124Y-61846709D02*
X109595124Y-61275281D01*
X109595124Y-61275281D02*
X109499886Y-61084804D01*
X109499886Y-61084804D02*
X109404648Y-60989566D01*
X109404648Y-60989566D02*
X109214172Y-60894328D01*
X109214172Y-60894328D02*
X108833219Y-60894328D01*
X108833219Y-60894328D02*
X108642743Y-60989566D01*
X107785600Y-62227662D02*
X107785600Y-60227662D01*
X107595124Y-61465757D02*
X107023695Y-62227662D01*
X107023695Y-60894328D02*
X107785600Y-61656233D01*
X106166552Y-60894328D02*
X106166552Y-62894328D01*
X106166552Y-60989566D02*
X105976076Y-60894328D01*
X105976076Y-60894328D02*
X105595123Y-60894328D01*
X105595123Y-60894328D02*
X105404647Y-60989566D01*
X105404647Y-60989566D02*
X105309409Y-61084804D01*
X105309409Y-61084804D02*
X105214171Y-61275281D01*
X105214171Y-61275281D02*
X105214171Y-61846709D01*
X105214171Y-61846709D02*
X105309409Y-62037185D01*
X105309409Y-62037185D02*
X105404647Y-62132424D01*
X105404647Y-62132424D02*
X105595123Y-62227662D01*
X105595123Y-62227662D02*
X105976076Y-62227662D01*
X105976076Y-62227662D02*
X106166552Y-62132424D01*
X103499885Y-62227662D02*
X103499885Y-61180043D01*
X103499885Y-61180043D02*
X103595123Y-60989566D01*
X103595123Y-60989566D02*
X103785599Y-60894328D01*
X103785599Y-60894328D02*
X104166552Y-60894328D01*
X104166552Y-60894328D02*
X104357028Y-60989566D01*
X103499885Y-62132424D02*
X103690361Y-62227662D01*
X103690361Y-62227662D02*
X104166552Y-62227662D01*
X104166552Y-62227662D02*
X104357028Y-62132424D01*
X104357028Y-62132424D02*
X104452266Y-61941947D01*
X104452266Y-61941947D02*
X104452266Y-61751471D01*
X104452266Y-61751471D02*
X104357028Y-61560995D01*
X104357028Y-61560995D02*
X104166552Y-61465757D01*
X104166552Y-61465757D02*
X103690361Y-61465757D01*
X103690361Y-61465757D02*
X103499885Y-61370519D01*
X101690361Y-62132424D02*
X101880837Y-62227662D01*
X101880837Y-62227662D02*
X102261790Y-62227662D01*
X102261790Y-62227662D02*
X102452266Y-62132424D01*
X102452266Y-62132424D02*
X102547504Y-62037185D01*
X102547504Y-62037185D02*
X102642742Y-61846709D01*
X102642742Y-61846709D02*
X102642742Y-61275281D01*
X102642742Y-61275281D02*
X102547504Y-61084804D01*
X102547504Y-61084804D02*
X102452266Y-60989566D01*
X102452266Y-60989566D02*
X102261790Y-60894328D01*
X102261790Y-60894328D02*
X101880837Y-60894328D01*
X101880837Y-60894328D02*
X101690361Y-60989566D01*
X100833218Y-62227662D02*
X100833218Y-60227662D01*
X100642742Y-61465757D02*
X100071313Y-62227662D01*
X100071313Y-60894328D02*
X100833218Y-61656233D01*
X123595125Y-65447550D02*
X123595125Y-63447550D01*
X123595125Y-63447550D02*
X122928458Y-64876121D01*
X122928458Y-64876121D02*
X122261792Y-63447550D01*
X122261792Y-63447550D02*
X122261792Y-65447550D01*
X120452268Y-65447550D02*
X120452268Y-64399931D01*
X120452268Y-64399931D02*
X120547506Y-64209454D01*
X120547506Y-64209454D02*
X120737982Y-64114216D01*
X120737982Y-64114216D02*
X121118935Y-64114216D01*
X121118935Y-64114216D02*
X121309411Y-64209454D01*
X120452268Y-65352312D02*
X120642744Y-65447550D01*
X120642744Y-65447550D02*
X121118935Y-65447550D01*
X121118935Y-65447550D02*
X121309411Y-65352312D01*
X121309411Y-65352312D02*
X121404649Y-65161835D01*
X121404649Y-65161835D02*
X121404649Y-64971359D01*
X121404649Y-64971359D02*
X121309411Y-64780883D01*
X121309411Y-64780883D02*
X121118935Y-64685645D01*
X121118935Y-64685645D02*
X120642744Y-64685645D01*
X120642744Y-64685645D02*
X120452268Y-64590407D01*
X119499887Y-65447550D02*
X119499887Y-64114216D01*
X119499887Y-63447550D02*
X119595125Y-63542788D01*
X119595125Y-63542788D02*
X119499887Y-63638026D01*
X119499887Y-63638026D02*
X119404649Y-63542788D01*
X119404649Y-63542788D02*
X119499887Y-63447550D01*
X119499887Y-63447550D02*
X119499887Y-63638026D01*
X118547506Y-64114216D02*
X118547506Y-65447550D01*
X118547506Y-64304692D02*
X118452268Y-64209454D01*
X118452268Y-64209454D02*
X118261792Y-64114216D01*
X118261792Y-64114216D02*
X117976077Y-64114216D01*
X117976077Y-64114216D02*
X117785601Y-64209454D01*
X117785601Y-64209454D02*
X117690363Y-64399931D01*
X117690363Y-64399931D02*
X117690363Y-65447550D01*
X114547505Y-64399931D02*
X114261791Y-64495169D01*
X114261791Y-64495169D02*
X114166553Y-64590407D01*
X114166553Y-64590407D02*
X114071315Y-64780883D01*
X114071315Y-64780883D02*
X114071315Y-65066597D01*
X114071315Y-65066597D02*
X114166553Y-65257073D01*
X114166553Y-65257073D02*
X114261791Y-65352312D01*
X114261791Y-65352312D02*
X114452267Y-65447550D01*
X114452267Y-65447550D02*
X115214172Y-65447550D01*
X115214172Y-65447550D02*
X115214172Y-63447550D01*
X115214172Y-63447550D02*
X114547505Y-63447550D01*
X114547505Y-63447550D02*
X114357029Y-63542788D01*
X114357029Y-63542788D02*
X114261791Y-63638026D01*
X114261791Y-63638026D02*
X114166553Y-63828502D01*
X114166553Y-63828502D02*
X114166553Y-64018978D01*
X114166553Y-64018978D02*
X114261791Y-64209454D01*
X114261791Y-64209454D02*
X114357029Y-64304692D01*
X114357029Y-64304692D02*
X114547505Y-64399931D01*
X114547505Y-64399931D02*
X115214172Y-64399931D01*
X112928458Y-65447550D02*
X113118934Y-65352312D01*
X113118934Y-65352312D02*
X113214172Y-65257073D01*
X113214172Y-65257073D02*
X113309410Y-65066597D01*
X113309410Y-65066597D02*
X113309410Y-64495169D01*
X113309410Y-64495169D02*
X113214172Y-64304692D01*
X113214172Y-64304692D02*
X113118934Y-64209454D01*
X113118934Y-64209454D02*
X112928458Y-64114216D01*
X112928458Y-64114216D02*
X112642743Y-64114216D01*
X112642743Y-64114216D02*
X112452267Y-64209454D01*
X112452267Y-64209454D02*
X112357029Y-64304692D01*
X112357029Y-64304692D02*
X112261791Y-64495169D01*
X112261791Y-64495169D02*
X112261791Y-65066597D01*
X112261791Y-65066597D02*
X112357029Y-65257073D01*
X112357029Y-65257073D02*
X112452267Y-65352312D01*
X112452267Y-65352312D02*
X112642743Y-65447550D01*
X112642743Y-65447550D02*
X112928458Y-65447550D01*
X110547505Y-65447550D02*
X110547505Y-64399931D01*
X110547505Y-64399931D02*
X110642743Y-64209454D01*
X110642743Y-64209454D02*
X110833219Y-64114216D01*
X110833219Y-64114216D02*
X111214172Y-64114216D01*
X111214172Y-64114216D02*
X111404648Y-64209454D01*
X110547505Y-65352312D02*
X110737981Y-65447550D01*
X110737981Y-65447550D02*
X111214172Y-65447550D01*
X111214172Y-65447550D02*
X111404648Y-65352312D01*
X111404648Y-65352312D02*
X111499886Y-65161835D01*
X111499886Y-65161835D02*
X111499886Y-64971359D01*
X111499886Y-64971359D02*
X111404648Y-64780883D01*
X111404648Y-64780883D02*
X111214172Y-64685645D01*
X111214172Y-64685645D02*
X110737981Y-64685645D01*
X110737981Y-64685645D02*
X110547505Y-64590407D01*
X109595124Y-65447550D02*
X109595124Y-64114216D01*
X109595124Y-64495169D02*
X109499886Y-64304692D01*
X109499886Y-64304692D02*
X109404648Y-64209454D01*
X109404648Y-64209454D02*
X109214172Y-64114216D01*
X109214172Y-64114216D02*
X109023695Y-64114216D01*
X107499886Y-65447550D02*
X107499886Y-63447550D01*
X107499886Y-65352312D02*
X107690362Y-65447550D01*
X107690362Y-65447550D02*
X108071315Y-65447550D01*
X108071315Y-65447550D02*
X108261791Y-65352312D01*
X108261791Y-65352312D02*
X108357029Y-65257073D01*
X108357029Y-65257073D02*
X108452267Y-65066597D01*
X108452267Y-65066597D02*
X108452267Y-64495169D01*
X108452267Y-64495169D02*
X108357029Y-64304692D01*
X108357029Y-64304692D02*
X108261791Y-64209454D01*
X108261791Y-64209454D02*
X108071315Y-64114216D01*
X108071315Y-64114216D02*
X107690362Y-64114216D01*
X107690362Y-64114216D02*
X107499886Y-64209454D01*
X122452268Y-68667438D02*
X123118935Y-67715057D01*
X123595125Y-68667438D02*
X123595125Y-66667438D01*
X123595125Y-66667438D02*
X122833220Y-66667438D01*
X122833220Y-66667438D02*
X122642744Y-66762676D01*
X122642744Y-66762676D02*
X122547506Y-66857914D01*
X122547506Y-66857914D02*
X122452268Y-67048390D01*
X122452268Y-67048390D02*
X122452268Y-67334104D01*
X122452268Y-67334104D02*
X122547506Y-67524580D01*
X122547506Y-67524580D02*
X122642744Y-67619819D01*
X122642744Y-67619819D02*
X122833220Y-67715057D01*
X122833220Y-67715057D02*
X123595125Y-67715057D01*
X120833220Y-68572200D02*
X121023696Y-68667438D01*
X121023696Y-68667438D02*
X121404649Y-68667438D01*
X121404649Y-68667438D02*
X121595125Y-68572200D01*
X121595125Y-68572200D02*
X121690363Y-68381723D01*
X121690363Y-68381723D02*
X121690363Y-67619819D01*
X121690363Y-67619819D02*
X121595125Y-67429342D01*
X121595125Y-67429342D02*
X121404649Y-67334104D01*
X121404649Y-67334104D02*
X121023696Y-67334104D01*
X121023696Y-67334104D02*
X120833220Y-67429342D01*
X120833220Y-67429342D02*
X120737982Y-67619819D01*
X120737982Y-67619819D02*
X120737982Y-67810295D01*
X120737982Y-67810295D02*
X121690363Y-68000771D01*
X120071315Y-67334104D02*
X119595125Y-68667438D01*
X119595125Y-68667438D02*
X119118934Y-67334104D01*
X118357029Y-68476961D02*
X118261791Y-68572200D01*
X118261791Y-68572200D02*
X118357029Y-68667438D01*
X118357029Y-68667438D02*
X118452267Y-68572200D01*
X118452267Y-68572200D02*
X118357029Y-68476961D01*
X118357029Y-68476961D02*
X118357029Y-68667438D01*
X114833219Y-68667438D02*
X115976076Y-68667438D01*
X115404648Y-68667438D02*
X115404648Y-66667438D01*
X115404648Y-66667438D02*
X115595124Y-66953152D01*
X115595124Y-66953152D02*
X115785600Y-67143628D01*
X115785600Y-67143628D02*
X115976076Y-67238866D01*
D11*
X123559701Y-70655067D02*
X123221034Y-70655067D01*
X123075891Y-71187257D02*
X123559701Y-71187257D01*
X123559701Y-71187257D02*
X123559701Y-70171257D01*
X123559701Y-70171257D02*
X123075891Y-70171257D01*
X122059891Y-71090496D02*
X122108272Y-71138877D01*
X122108272Y-71138877D02*
X122253415Y-71187257D01*
X122253415Y-71187257D02*
X122350177Y-71187257D01*
X122350177Y-71187257D02*
X122495320Y-71138877D01*
X122495320Y-71138877D02*
X122592082Y-71042115D01*
X122592082Y-71042115D02*
X122640463Y-70945353D01*
X122640463Y-70945353D02*
X122688844Y-70751829D01*
X122688844Y-70751829D02*
X122688844Y-70606686D01*
X122688844Y-70606686D02*
X122640463Y-70413162D01*
X122640463Y-70413162D02*
X122592082Y-70316400D01*
X122592082Y-70316400D02*
X122495320Y-70219638D01*
X122495320Y-70219638D02*
X122350177Y-70171257D01*
X122350177Y-70171257D02*
X122253415Y-70171257D01*
X122253415Y-70171257D02*
X122108272Y-70219638D01*
X122108272Y-70219638D02*
X122059891Y-70268019D01*
X121624463Y-70655067D02*
X121285796Y-70655067D01*
X121140653Y-71187257D02*
X121624463Y-71187257D01*
X121624463Y-71187257D02*
X121624463Y-70171257D01*
X121624463Y-70171257D02*
X121140653Y-70171257D01*
X120269796Y-70509924D02*
X120269796Y-71187257D01*
X120511701Y-70122877D02*
X120753606Y-70848591D01*
X120753606Y-70848591D02*
X120124653Y-70848591D01*
X119689225Y-71187257D02*
X119495701Y-71187257D01*
X119495701Y-71187257D02*
X119398939Y-71138877D01*
X119398939Y-71138877D02*
X119350558Y-71090496D01*
X119350558Y-71090496D02*
X119253796Y-70945353D01*
X119253796Y-70945353D02*
X119205415Y-70751829D01*
X119205415Y-70751829D02*
X119205415Y-70364781D01*
X119205415Y-70364781D02*
X119253796Y-70268019D01*
X119253796Y-70268019D02*
X119302177Y-70219638D01*
X119302177Y-70219638D02*
X119398939Y-70171257D01*
X119398939Y-70171257D02*
X119592463Y-70171257D01*
X119592463Y-70171257D02*
X119689225Y-70219638D01*
X119689225Y-70219638D02*
X119737606Y-70268019D01*
X119737606Y-70268019D02*
X119785987Y-70364781D01*
X119785987Y-70364781D02*
X119785987Y-70606686D01*
X119785987Y-70606686D02*
X119737606Y-70703448D01*
X119737606Y-70703448D02*
X119689225Y-70751829D01*
X119689225Y-70751829D02*
X119592463Y-70800210D01*
X119592463Y-70800210D02*
X119398939Y-70800210D01*
X119398939Y-70800210D02*
X119302177Y-70751829D01*
X119302177Y-70751829D02*
X119253796Y-70703448D01*
X119253796Y-70703448D02*
X119205415Y-70606686D01*
X118286177Y-70171257D02*
X118769987Y-70171257D01*
X118769987Y-70171257D02*
X118818368Y-70655067D01*
X118818368Y-70655067D02*
X118769987Y-70606686D01*
X118769987Y-70606686D02*
X118673225Y-70558305D01*
X118673225Y-70558305D02*
X118431320Y-70558305D01*
X118431320Y-70558305D02*
X118334558Y-70606686D01*
X118334558Y-70606686D02*
X118286177Y-70655067D01*
X118286177Y-70655067D02*
X118237796Y-70751829D01*
X118237796Y-70751829D02*
X118237796Y-70993734D01*
X118237796Y-70993734D02*
X118286177Y-71090496D01*
X118286177Y-71090496D02*
X118334558Y-71138877D01*
X118334558Y-71138877D02*
X118431320Y-71187257D01*
X118431320Y-71187257D02*
X118673225Y-71187257D01*
X118673225Y-71187257D02*
X118769987Y-71138877D01*
X118769987Y-71138877D02*
X118818368Y-71090496D01*
X117753987Y-71187257D02*
X117560463Y-71187257D01*
X117560463Y-71187257D02*
X117463701Y-71138877D01*
X117463701Y-71138877D02*
X117415320Y-71090496D01*
X117415320Y-71090496D02*
X117318558Y-70945353D01*
X117318558Y-70945353D02*
X117270177Y-70751829D01*
X117270177Y-70751829D02*
X117270177Y-70364781D01*
X117270177Y-70364781D02*
X117318558Y-70268019D01*
X117318558Y-70268019D02*
X117366939Y-70219638D01*
X117366939Y-70219638D02*
X117463701Y-70171257D01*
X117463701Y-70171257D02*
X117657225Y-70171257D01*
X117657225Y-70171257D02*
X117753987Y-70219638D01*
X117753987Y-70219638D02*
X117802368Y-70268019D01*
X117802368Y-70268019D02*
X117850749Y-70364781D01*
X117850749Y-70364781D02*
X117850749Y-70606686D01*
X117850749Y-70606686D02*
X117802368Y-70703448D01*
X117802368Y-70703448D02*
X117753987Y-70751829D01*
X117753987Y-70751829D02*
X117657225Y-70800210D01*
X117657225Y-70800210D02*
X117463701Y-70800210D01*
X117463701Y-70800210D02*
X117366939Y-70751829D01*
X117366939Y-70751829D02*
X117318558Y-70703448D01*
X117318558Y-70703448D02*
X117270177Y-70606686D01*
X116350939Y-70171257D02*
X116834749Y-70171257D01*
X116834749Y-70171257D02*
X116883130Y-70655067D01*
X116883130Y-70655067D02*
X116834749Y-70606686D01*
X116834749Y-70606686D02*
X116737987Y-70558305D01*
X116737987Y-70558305D02*
X116496082Y-70558305D01*
X116496082Y-70558305D02*
X116399320Y-70606686D01*
X116399320Y-70606686D02*
X116350939Y-70655067D01*
X116350939Y-70655067D02*
X116302558Y-70751829D01*
X116302558Y-70751829D02*
X116302558Y-70993734D01*
X116302558Y-70993734D02*
X116350939Y-71090496D01*
X116350939Y-71090496D02*
X116399320Y-71138877D01*
X116399320Y-71138877D02*
X116496082Y-71187257D01*
X116496082Y-71187257D02*
X116737987Y-71187257D01*
X116737987Y-71187257D02*
X116834749Y-71138877D01*
X116834749Y-71138877D02*
X116883130Y-71090496D01*
X123704844Y-71806960D02*
X123124272Y-71806960D01*
X123414558Y-72822960D02*
X123414558Y-71806960D01*
X122398558Y-72774580D02*
X122495320Y-72822960D01*
X122495320Y-72822960D02*
X122688844Y-72822960D01*
X122688844Y-72822960D02*
X122785606Y-72774580D01*
X122785606Y-72774580D02*
X122833987Y-72677818D01*
X122833987Y-72677818D02*
X122833987Y-72290770D01*
X122833987Y-72290770D02*
X122785606Y-72194008D01*
X122785606Y-72194008D02*
X122688844Y-72145627D01*
X122688844Y-72145627D02*
X122495320Y-72145627D01*
X122495320Y-72145627D02*
X122398558Y-72194008D01*
X122398558Y-72194008D02*
X122350177Y-72290770D01*
X122350177Y-72290770D02*
X122350177Y-72387532D01*
X122350177Y-72387532D02*
X122833987Y-72484294D01*
X121479320Y-72822960D02*
X121479320Y-72290770D01*
X121479320Y-72290770D02*
X121527701Y-72194008D01*
X121527701Y-72194008D02*
X121624463Y-72145627D01*
X121624463Y-72145627D02*
X121817987Y-72145627D01*
X121817987Y-72145627D02*
X121914749Y-72194008D01*
X121479320Y-72774580D02*
X121576082Y-72822960D01*
X121576082Y-72822960D02*
X121817987Y-72822960D01*
X121817987Y-72822960D02*
X121914749Y-72774580D01*
X121914749Y-72774580D02*
X121963130Y-72677818D01*
X121963130Y-72677818D02*
X121963130Y-72581056D01*
X121963130Y-72581056D02*
X121914749Y-72484294D01*
X121914749Y-72484294D02*
X121817987Y-72435913D01*
X121817987Y-72435913D02*
X121576082Y-72435913D01*
X121576082Y-72435913D02*
X121479320Y-72387532D01*
X120995511Y-72822960D02*
X120995511Y-72145627D01*
X120995511Y-72242389D02*
X120947130Y-72194008D01*
X120947130Y-72194008D02*
X120850368Y-72145627D01*
X120850368Y-72145627D02*
X120705225Y-72145627D01*
X120705225Y-72145627D02*
X120608463Y-72194008D01*
X120608463Y-72194008D02*
X120560082Y-72290770D01*
X120560082Y-72290770D02*
X120560082Y-72822960D01*
X120560082Y-72290770D02*
X120511701Y-72194008D01*
X120511701Y-72194008D02*
X120414939Y-72145627D01*
X120414939Y-72145627D02*
X120269796Y-72145627D01*
X120269796Y-72145627D02*
X120173035Y-72194008D01*
X120173035Y-72194008D02*
X120124654Y-72290770D01*
X120124654Y-72290770D02*
X120124654Y-72822960D01*
X118334558Y-72822960D02*
X118915130Y-72822960D01*
X118624844Y-72822960D02*
X118624844Y-71806960D01*
X118624844Y-71806960D02*
X118721606Y-71952103D01*
X118721606Y-71952103D02*
X118818368Y-72048865D01*
X118818368Y-72048865D02*
X118915130Y-72097246D01*
X117705606Y-71806960D02*
X117608844Y-71806960D01*
X117608844Y-71806960D02*
X117512082Y-71855341D01*
X117512082Y-71855341D02*
X117463701Y-71903722D01*
X117463701Y-71903722D02*
X117415320Y-72000484D01*
X117415320Y-72000484D02*
X117366939Y-72194008D01*
X117366939Y-72194008D02*
X117366939Y-72435913D01*
X117366939Y-72435913D02*
X117415320Y-72629437D01*
X117415320Y-72629437D02*
X117463701Y-72726199D01*
X117463701Y-72726199D02*
X117512082Y-72774580D01*
X117512082Y-72774580D02*
X117608844Y-72822960D01*
X117608844Y-72822960D02*
X117705606Y-72822960D01*
X117705606Y-72822960D02*
X117802368Y-72774580D01*
X117802368Y-72774580D02*
X117850749Y-72726199D01*
X117850749Y-72726199D02*
X117899130Y-72629437D01*
X117899130Y-72629437D02*
X117947511Y-72435913D01*
X117947511Y-72435913D02*
X117947511Y-72194008D01*
X117947511Y-72194008D02*
X117899130Y-72000484D01*
X117899130Y-72000484D02*
X117850749Y-71903722D01*
X117850749Y-71903722D02*
X117802368Y-71855341D01*
X117802368Y-71855341D02*
X117705606Y-71806960D01*
X122979129Y-74361902D02*
X123027510Y-74410283D01*
X123027510Y-74410283D02*
X123172653Y-74458663D01*
X123172653Y-74458663D02*
X123269415Y-74458663D01*
X123269415Y-74458663D02*
X123414558Y-74410283D01*
X123414558Y-74410283D02*
X123511320Y-74313521D01*
X123511320Y-74313521D02*
X123559701Y-74216759D01*
X123559701Y-74216759D02*
X123608082Y-74023235D01*
X123608082Y-74023235D02*
X123608082Y-73878092D01*
X123608082Y-73878092D02*
X123559701Y-73684568D01*
X123559701Y-73684568D02*
X123511320Y-73587806D01*
X123511320Y-73587806D02*
X123414558Y-73491044D01*
X123414558Y-73491044D02*
X123269415Y-73442663D01*
X123269415Y-73442663D02*
X123172653Y-73442663D01*
X123172653Y-73442663D02*
X123027510Y-73491044D01*
X123027510Y-73491044D02*
X122979129Y-73539425D01*
X122398558Y-74458663D02*
X122495320Y-74410283D01*
X122495320Y-74410283D02*
X122543701Y-74361902D01*
X122543701Y-74361902D02*
X122592082Y-74265140D01*
X122592082Y-74265140D02*
X122592082Y-73974854D01*
X122592082Y-73974854D02*
X122543701Y-73878092D01*
X122543701Y-73878092D02*
X122495320Y-73829711D01*
X122495320Y-73829711D02*
X122398558Y-73781330D01*
X122398558Y-73781330D02*
X122253415Y-73781330D01*
X122253415Y-73781330D02*
X122156653Y-73829711D01*
X122156653Y-73829711D02*
X122108272Y-73878092D01*
X122108272Y-73878092D02*
X122059891Y-73974854D01*
X122059891Y-73974854D02*
X122059891Y-74265140D01*
X122059891Y-74265140D02*
X122108272Y-74361902D01*
X122108272Y-74361902D02*
X122156653Y-74410283D01*
X122156653Y-74410283D02*
X122253415Y-74458663D01*
X122253415Y-74458663D02*
X122398558Y-74458663D01*
X121479320Y-74458663D02*
X121576082Y-74410283D01*
X121576082Y-74410283D02*
X121624463Y-74313521D01*
X121624463Y-74313521D02*
X121624463Y-73442663D01*
X121092273Y-74458663D02*
X121092273Y-73781330D01*
X121092273Y-73442663D02*
X121140654Y-73491044D01*
X121140654Y-73491044D02*
X121092273Y-73539425D01*
X121092273Y-73539425D02*
X121043892Y-73491044D01*
X121043892Y-73491044D02*
X121092273Y-73442663D01*
X121092273Y-73442663D02*
X121092273Y-73539425D01*
X120608463Y-73781330D02*
X120608463Y-74458663D01*
X120608463Y-73878092D02*
X120560082Y-73829711D01*
X120560082Y-73829711D02*
X120463320Y-73781330D01*
X120463320Y-73781330D02*
X120318177Y-73781330D01*
X120318177Y-73781330D02*
X120221415Y-73829711D01*
X120221415Y-73829711D02*
X120173034Y-73926473D01*
X120173034Y-73926473D02*
X120173034Y-74458663D01*
X118576463Y-73926473D02*
X118915130Y-73926473D01*
X118915130Y-74458663D02*
X118915130Y-73442663D01*
X118915130Y-73442663D02*
X118431320Y-73442663D01*
X117657225Y-74410283D02*
X117753987Y-74458663D01*
X117753987Y-74458663D02*
X117947511Y-74458663D01*
X117947511Y-74458663D02*
X118044273Y-74410283D01*
X118044273Y-74410283D02*
X118092654Y-74313521D01*
X118092654Y-74313521D02*
X118092654Y-73926473D01*
X118092654Y-73926473D02*
X118044273Y-73829711D01*
X118044273Y-73829711D02*
X117947511Y-73781330D01*
X117947511Y-73781330D02*
X117753987Y-73781330D01*
X117753987Y-73781330D02*
X117657225Y-73829711D01*
X117657225Y-73829711D02*
X117608844Y-73926473D01*
X117608844Y-73926473D02*
X117608844Y-74023235D01*
X117608844Y-74023235D02*
X118092654Y-74119997D01*
X117173416Y-73781330D02*
X117173416Y-74458663D01*
X117173416Y-73878092D02*
X117125035Y-73829711D01*
X117125035Y-73829711D02*
X117028273Y-73781330D01*
X117028273Y-73781330D02*
X116883130Y-73781330D01*
X116883130Y-73781330D02*
X116786368Y-73829711D01*
X116786368Y-73829711D02*
X116737987Y-73926473D01*
X116737987Y-73926473D02*
X116737987Y-74458663D01*
X116254178Y-73781330D02*
X116254178Y-74458663D01*
X116254178Y-73878092D02*
X116205797Y-73829711D01*
X116205797Y-73829711D02*
X116109035Y-73781330D01*
X116109035Y-73781330D02*
X115963892Y-73781330D01*
X115963892Y-73781330D02*
X115867130Y-73829711D01*
X115867130Y-73829711D02*
X115818749Y-73926473D01*
X115818749Y-73926473D02*
X115818749Y-74458663D01*
X114947892Y-74410283D02*
X115044654Y-74458663D01*
X115044654Y-74458663D02*
X115238178Y-74458663D01*
X115238178Y-74458663D02*
X115334940Y-74410283D01*
X115334940Y-74410283D02*
X115383321Y-74313521D01*
X115383321Y-74313521D02*
X115383321Y-73926473D01*
X115383321Y-73926473D02*
X115334940Y-73829711D01*
X115334940Y-73829711D02*
X115238178Y-73781330D01*
X115238178Y-73781330D02*
X115044654Y-73781330D01*
X115044654Y-73781330D02*
X114947892Y-73829711D01*
X114947892Y-73829711D02*
X114899511Y-73926473D01*
X114899511Y-73926473D02*
X114899511Y-74023235D01*
X114899511Y-74023235D02*
X115383321Y-74119997D01*
X114464083Y-73781330D02*
X114464083Y-74458663D01*
X114464083Y-73878092D02*
X114415702Y-73829711D01*
X114415702Y-73829711D02*
X114318940Y-73781330D01*
X114318940Y-73781330D02*
X114173797Y-73781330D01*
X114173797Y-73781330D02*
X114077035Y-73829711D01*
X114077035Y-73829711D02*
X114028654Y-73926473D01*
X114028654Y-73926473D02*
X114028654Y-74458663D01*
X123027510Y-75126747D02*
X123124272Y-75078366D01*
X123124272Y-75078366D02*
X123269415Y-75078366D01*
X123269415Y-75078366D02*
X123414558Y-75126747D01*
X123414558Y-75126747D02*
X123511320Y-75223509D01*
X123511320Y-75223509D02*
X123559701Y-75320271D01*
X123559701Y-75320271D02*
X123608082Y-75513795D01*
X123608082Y-75513795D02*
X123608082Y-75658938D01*
X123608082Y-75658938D02*
X123559701Y-75852462D01*
X123559701Y-75852462D02*
X123511320Y-75949224D01*
X123511320Y-75949224D02*
X123414558Y-76045986D01*
X123414558Y-76045986D02*
X123269415Y-76094366D01*
X123269415Y-76094366D02*
X123172653Y-76094366D01*
X123172653Y-76094366D02*
X123027510Y-76045986D01*
X123027510Y-76045986D02*
X122979129Y-75997605D01*
X122979129Y-75997605D02*
X122979129Y-75658938D01*
X122979129Y-75658938D02*
X123172653Y-75658938D01*
X122543701Y-76094366D02*
X122543701Y-75417033D01*
X122543701Y-75610557D02*
X122495320Y-75513795D01*
X122495320Y-75513795D02*
X122446939Y-75465414D01*
X122446939Y-75465414D02*
X122350177Y-75417033D01*
X122350177Y-75417033D02*
X122253415Y-75417033D01*
X121479320Y-76094366D02*
X121479320Y-75562176D01*
X121479320Y-75562176D02*
X121527701Y-75465414D01*
X121527701Y-75465414D02*
X121624463Y-75417033D01*
X121624463Y-75417033D02*
X121817987Y-75417033D01*
X121817987Y-75417033D02*
X121914749Y-75465414D01*
X121479320Y-76045986D02*
X121576082Y-76094366D01*
X121576082Y-76094366D02*
X121817987Y-76094366D01*
X121817987Y-76094366D02*
X121914749Y-76045986D01*
X121914749Y-76045986D02*
X121963130Y-75949224D01*
X121963130Y-75949224D02*
X121963130Y-75852462D01*
X121963130Y-75852462D02*
X121914749Y-75755700D01*
X121914749Y-75755700D02*
X121817987Y-75707319D01*
X121817987Y-75707319D02*
X121576082Y-75707319D01*
X121576082Y-75707319D02*
X121479320Y-75658938D01*
X120995511Y-75417033D02*
X120995511Y-76094366D01*
X120995511Y-75513795D02*
X120947130Y-75465414D01*
X120947130Y-75465414D02*
X120850368Y-75417033D01*
X120850368Y-75417033D02*
X120705225Y-75417033D01*
X120705225Y-75417033D02*
X120608463Y-75465414D01*
X120608463Y-75465414D02*
X120560082Y-75562176D01*
X120560082Y-75562176D02*
X120560082Y-76094366D01*
X120221416Y-75417033D02*
X119834368Y-75417033D01*
X120076273Y-75078366D02*
X120076273Y-75949224D01*
X120076273Y-75949224D02*
X120027892Y-76045986D01*
X120027892Y-76045986D02*
X119931130Y-76094366D01*
X119931130Y-76094366D02*
X119834368Y-76094366D01*
X118769988Y-76045986D02*
X118624845Y-76094366D01*
X118624845Y-76094366D02*
X118382940Y-76094366D01*
X118382940Y-76094366D02*
X118286178Y-76045986D01*
X118286178Y-76045986D02*
X118237797Y-75997605D01*
X118237797Y-75997605D02*
X118189416Y-75900843D01*
X118189416Y-75900843D02*
X118189416Y-75804081D01*
X118189416Y-75804081D02*
X118237797Y-75707319D01*
X118237797Y-75707319D02*
X118286178Y-75658938D01*
X118286178Y-75658938D02*
X118382940Y-75610557D01*
X118382940Y-75610557D02*
X118576464Y-75562176D01*
X118576464Y-75562176D02*
X118673226Y-75513795D01*
X118673226Y-75513795D02*
X118721607Y-75465414D01*
X118721607Y-75465414D02*
X118769988Y-75368652D01*
X118769988Y-75368652D02*
X118769988Y-75271890D01*
X118769988Y-75271890D02*
X118721607Y-75175128D01*
X118721607Y-75175128D02*
X118673226Y-75126747D01*
X118673226Y-75126747D02*
X118576464Y-75078366D01*
X118576464Y-75078366D02*
X118334559Y-75078366D01*
X118334559Y-75078366D02*
X118189416Y-75126747D01*
X117850750Y-75417033D02*
X117608845Y-76094366D01*
X117366940Y-75417033D02*
X117608845Y-76094366D01*
X117608845Y-76094366D02*
X117705607Y-76336271D01*
X117705607Y-76336271D02*
X117753988Y-76384652D01*
X117753988Y-76384652D02*
X117850750Y-76433033D01*
X116834750Y-76094366D02*
X116931512Y-76045986D01*
X116931512Y-76045986D02*
X116979893Y-75949224D01*
X116979893Y-75949224D02*
X116979893Y-75078366D01*
X116544465Y-75417033D02*
X116302560Y-76094366D01*
X116302560Y-76094366D02*
X116060655Y-75417033D01*
X115286560Y-76045986D02*
X115383322Y-76094366D01*
X115383322Y-76094366D02*
X115576846Y-76094366D01*
X115576846Y-76094366D02*
X115673608Y-76045986D01*
X115673608Y-76045986D02*
X115721989Y-75949224D01*
X115721989Y-75949224D02*
X115721989Y-75562176D01*
X115721989Y-75562176D02*
X115673608Y-75465414D01*
X115673608Y-75465414D02*
X115576846Y-75417033D01*
X115576846Y-75417033D02*
X115383322Y-75417033D01*
X115383322Y-75417033D02*
X115286560Y-75465414D01*
X115286560Y-75465414D02*
X115238179Y-75562176D01*
X115238179Y-75562176D02*
X115238179Y-75658938D01*
X115238179Y-75658938D02*
X115721989Y-75755700D01*
X114851132Y-76045986D02*
X114754370Y-76094366D01*
X114754370Y-76094366D02*
X114560846Y-76094366D01*
X114560846Y-76094366D02*
X114464084Y-76045986D01*
X114464084Y-76045986D02*
X114415703Y-75949224D01*
X114415703Y-75949224D02*
X114415703Y-75900843D01*
X114415703Y-75900843D02*
X114464084Y-75804081D01*
X114464084Y-75804081D02*
X114560846Y-75755700D01*
X114560846Y-75755700D02*
X114705989Y-75755700D01*
X114705989Y-75755700D02*
X114802751Y-75707319D01*
X114802751Y-75707319D02*
X114851132Y-75610557D01*
X114851132Y-75610557D02*
X114851132Y-75562176D01*
X114851132Y-75562176D02*
X114802751Y-75465414D01*
X114802751Y-75465414D02*
X114705989Y-75417033D01*
X114705989Y-75417033D02*
X114560846Y-75417033D01*
X114560846Y-75417033D02*
X114464084Y-75465414D01*
X114125418Y-75417033D02*
X113738370Y-75417033D01*
X113980275Y-75078366D02*
X113980275Y-75949224D01*
X113980275Y-75949224D02*
X113931894Y-76045986D01*
X113931894Y-76045986D02*
X113835132Y-76094366D01*
X113835132Y-76094366D02*
X113738370Y-76094366D01*
X113012656Y-76045986D02*
X113109418Y-76094366D01*
X113109418Y-76094366D02*
X113302942Y-76094366D01*
X113302942Y-76094366D02*
X113399704Y-76045986D01*
X113399704Y-76045986D02*
X113448085Y-75949224D01*
X113448085Y-75949224D02*
X113448085Y-75562176D01*
X113448085Y-75562176D02*
X113399704Y-75465414D01*
X113399704Y-75465414D02*
X113302942Y-75417033D01*
X113302942Y-75417033D02*
X113109418Y-75417033D01*
X113109418Y-75417033D02*
X113012656Y-75465414D01*
X113012656Y-75465414D02*
X112964275Y-75562176D01*
X112964275Y-75562176D02*
X112964275Y-75658938D01*
X112964275Y-75658938D02*
X113448085Y-75755700D01*
X112528847Y-76094366D02*
X112528847Y-75417033D01*
X112528847Y-75610557D02*
X112480466Y-75513795D01*
X112480466Y-75513795D02*
X112432085Y-75465414D01*
X112432085Y-75465414D02*
X112335323Y-75417033D01*
X112335323Y-75417033D02*
X112238561Y-75417033D01*
X123269415Y-76714069D02*
X123269415Y-77439784D01*
X123269415Y-77439784D02*
X123317796Y-77584927D01*
X123317796Y-77584927D02*
X123414558Y-77681689D01*
X123414558Y-77681689D02*
X123559701Y-77730069D01*
X123559701Y-77730069D02*
X123656463Y-77730069D01*
X122640463Y-77730069D02*
X122737225Y-77681689D01*
X122737225Y-77681689D02*
X122785606Y-77633308D01*
X122785606Y-77633308D02*
X122833987Y-77536546D01*
X122833987Y-77536546D02*
X122833987Y-77246260D01*
X122833987Y-77246260D02*
X122785606Y-77149498D01*
X122785606Y-77149498D02*
X122737225Y-77101117D01*
X122737225Y-77101117D02*
X122640463Y-77052736D01*
X122640463Y-77052736D02*
X122495320Y-77052736D01*
X122495320Y-77052736D02*
X122398558Y-77101117D01*
X122398558Y-77101117D02*
X122350177Y-77149498D01*
X122350177Y-77149498D02*
X122301796Y-77246260D01*
X122301796Y-77246260D02*
X122301796Y-77536546D01*
X122301796Y-77536546D02*
X122350177Y-77633308D01*
X122350177Y-77633308D02*
X122398558Y-77681689D01*
X122398558Y-77681689D02*
X122495320Y-77730069D01*
X122495320Y-77730069D02*
X122640463Y-77730069D01*
X121914749Y-77681689D02*
X121817987Y-77730069D01*
X121817987Y-77730069D02*
X121624463Y-77730069D01*
X121624463Y-77730069D02*
X121527701Y-77681689D01*
X121527701Y-77681689D02*
X121479320Y-77584927D01*
X121479320Y-77584927D02*
X121479320Y-77536546D01*
X121479320Y-77536546D02*
X121527701Y-77439784D01*
X121527701Y-77439784D02*
X121624463Y-77391403D01*
X121624463Y-77391403D02*
X121769606Y-77391403D01*
X121769606Y-77391403D02*
X121866368Y-77343022D01*
X121866368Y-77343022D02*
X121914749Y-77246260D01*
X121914749Y-77246260D02*
X121914749Y-77197879D01*
X121914749Y-77197879D02*
X121866368Y-77101117D01*
X121866368Y-77101117D02*
X121769606Y-77052736D01*
X121769606Y-77052736D02*
X121624463Y-77052736D01*
X121624463Y-77052736D02*
X121527701Y-77101117D01*
X121043892Y-77730069D02*
X121043892Y-77052736D01*
X121043892Y-76714069D02*
X121092273Y-76762450D01*
X121092273Y-76762450D02*
X121043892Y-76810831D01*
X121043892Y-76810831D02*
X120995511Y-76762450D01*
X120995511Y-76762450D02*
X121043892Y-76714069D01*
X121043892Y-76714069D02*
X121043892Y-76810831D01*
X120173034Y-77681689D02*
X120269796Y-77730069D01*
X120269796Y-77730069D02*
X120463320Y-77730069D01*
X120463320Y-77730069D02*
X120560082Y-77681689D01*
X120560082Y-77681689D02*
X120608463Y-77584927D01*
X120608463Y-77584927D02*
X120608463Y-77197879D01*
X120608463Y-77197879D02*
X120560082Y-77101117D01*
X120560082Y-77101117D02*
X120463320Y-77052736D01*
X120463320Y-77052736D02*
X120269796Y-77052736D01*
X120269796Y-77052736D02*
X120173034Y-77101117D01*
X120173034Y-77101117D02*
X120124653Y-77197879D01*
X120124653Y-77197879D02*
X120124653Y-77294641D01*
X120124653Y-77294641D02*
X120608463Y-77391403D01*
X119060273Y-76714069D02*
X118479701Y-76714069D01*
X118769987Y-77730069D02*
X118769987Y-76714069D01*
X118141035Y-77730069D02*
X118141035Y-76714069D01*
X117705606Y-77730069D02*
X117705606Y-77197879D01*
X117705606Y-77197879D02*
X117753987Y-77101117D01*
X117753987Y-77101117D02*
X117850749Y-77052736D01*
X117850749Y-77052736D02*
X117995892Y-77052736D01*
X117995892Y-77052736D02*
X118092654Y-77101117D01*
X118092654Y-77101117D02*
X118141035Y-77149498D01*
X117076654Y-77730069D02*
X117173416Y-77681689D01*
X117173416Y-77681689D02*
X117221797Y-77633308D01*
X117221797Y-77633308D02*
X117270178Y-77536546D01*
X117270178Y-77536546D02*
X117270178Y-77246260D01*
X117270178Y-77246260D02*
X117221797Y-77149498D01*
X117221797Y-77149498D02*
X117173416Y-77101117D01*
X117173416Y-77101117D02*
X117076654Y-77052736D01*
X117076654Y-77052736D02*
X116931511Y-77052736D01*
X116931511Y-77052736D02*
X116834749Y-77101117D01*
X116834749Y-77101117D02*
X116786368Y-77149498D01*
X116786368Y-77149498D02*
X116737987Y-77246260D01*
X116737987Y-77246260D02*
X116737987Y-77536546D01*
X116737987Y-77536546D02*
X116786368Y-77633308D01*
X116786368Y-77633308D02*
X116834749Y-77681689D01*
X116834749Y-77681689D02*
X116931511Y-77730069D01*
X116931511Y-77730069D02*
X117076654Y-77730069D01*
X116302559Y-77730069D02*
X116302559Y-77052736D01*
X116302559Y-77149498D02*
X116254178Y-77101117D01*
X116254178Y-77101117D02*
X116157416Y-77052736D01*
X116157416Y-77052736D02*
X116012273Y-77052736D01*
X116012273Y-77052736D02*
X115915511Y-77101117D01*
X115915511Y-77101117D02*
X115867130Y-77197879D01*
X115867130Y-77197879D02*
X115867130Y-77730069D01*
X115867130Y-77197879D02*
X115818749Y-77101117D01*
X115818749Y-77101117D02*
X115721987Y-77052736D01*
X115721987Y-77052736D02*
X115576844Y-77052736D01*
X115576844Y-77052736D02*
X115480083Y-77101117D01*
X115480083Y-77101117D02*
X115431702Y-77197879D01*
X115431702Y-77197879D02*
X115431702Y-77730069D01*
X114512463Y-77730069D02*
X114512463Y-77197879D01*
X114512463Y-77197879D02*
X114560844Y-77101117D01*
X114560844Y-77101117D02*
X114657606Y-77052736D01*
X114657606Y-77052736D02*
X114851130Y-77052736D01*
X114851130Y-77052736D02*
X114947892Y-77101117D01*
X114512463Y-77681689D02*
X114609225Y-77730069D01*
X114609225Y-77730069D02*
X114851130Y-77730069D01*
X114851130Y-77730069D02*
X114947892Y-77681689D01*
X114947892Y-77681689D02*
X114996273Y-77584927D01*
X114996273Y-77584927D02*
X114996273Y-77488165D01*
X114996273Y-77488165D02*
X114947892Y-77391403D01*
X114947892Y-77391403D02*
X114851130Y-77343022D01*
X114851130Y-77343022D02*
X114609225Y-77343022D01*
X114609225Y-77343022D02*
X114512463Y-77294641D01*
X114077035Y-77681689D02*
X113980273Y-77730069D01*
X113980273Y-77730069D02*
X113786749Y-77730069D01*
X113786749Y-77730069D02*
X113689987Y-77681689D01*
X113689987Y-77681689D02*
X113641606Y-77584927D01*
X113641606Y-77584927D02*
X113641606Y-77536546D01*
X113641606Y-77536546D02*
X113689987Y-77439784D01*
X113689987Y-77439784D02*
X113786749Y-77391403D01*
X113786749Y-77391403D02*
X113931892Y-77391403D01*
X113931892Y-77391403D02*
X114028654Y-77343022D01*
X114028654Y-77343022D02*
X114077035Y-77246260D01*
X114077035Y-77246260D02*
X114077035Y-77197879D01*
X114077035Y-77197879D02*
X114028654Y-77101117D01*
X114028654Y-77101117D02*
X113931892Y-77052736D01*
X113931892Y-77052736D02*
X113786749Y-77052736D01*
X113786749Y-77052736D02*
X113689987Y-77101117D01*
X123269415Y-78349772D02*
X123269415Y-79075487D01*
X123269415Y-79075487D02*
X123317796Y-79220630D01*
X123317796Y-79220630D02*
X123414558Y-79317392D01*
X123414558Y-79317392D02*
X123559701Y-79365772D01*
X123559701Y-79365772D02*
X123656463Y-79365772D01*
X122350177Y-79365772D02*
X122350177Y-78833582D01*
X122350177Y-78833582D02*
X122398558Y-78736820D01*
X122398558Y-78736820D02*
X122495320Y-78688439D01*
X122495320Y-78688439D02*
X122688844Y-78688439D01*
X122688844Y-78688439D02*
X122785606Y-78736820D01*
X122350177Y-79317392D02*
X122446939Y-79365772D01*
X122446939Y-79365772D02*
X122688844Y-79365772D01*
X122688844Y-79365772D02*
X122785606Y-79317392D01*
X122785606Y-79317392D02*
X122833987Y-79220630D01*
X122833987Y-79220630D02*
X122833987Y-79123868D01*
X122833987Y-79123868D02*
X122785606Y-79027106D01*
X122785606Y-79027106D02*
X122688844Y-78978725D01*
X122688844Y-78978725D02*
X122446939Y-78978725D01*
X122446939Y-78978725D02*
X122350177Y-78930344D01*
X121430939Y-79317392D02*
X121527701Y-79365772D01*
X121527701Y-79365772D02*
X121721225Y-79365772D01*
X121721225Y-79365772D02*
X121817987Y-79317392D01*
X121817987Y-79317392D02*
X121866368Y-79269011D01*
X121866368Y-79269011D02*
X121914749Y-79172249D01*
X121914749Y-79172249D02*
X121914749Y-78881963D01*
X121914749Y-78881963D02*
X121866368Y-78785201D01*
X121866368Y-78785201D02*
X121817987Y-78736820D01*
X121817987Y-78736820D02*
X121721225Y-78688439D01*
X121721225Y-78688439D02*
X121527701Y-78688439D01*
X121527701Y-78688439D02*
X121430939Y-78736820D01*
X120995511Y-79365772D02*
X120995511Y-78349772D01*
X120898749Y-78978725D02*
X120608463Y-79365772D01*
X120608463Y-78688439D02*
X120995511Y-79075487D01*
X119398940Y-79365772D02*
X119398940Y-78349772D01*
X119398940Y-78349772D02*
X119157035Y-78349772D01*
X119157035Y-78349772D02*
X119011892Y-78398153D01*
X119011892Y-78398153D02*
X118915130Y-78494915D01*
X118915130Y-78494915D02*
X118866749Y-78591677D01*
X118866749Y-78591677D02*
X118818368Y-78785201D01*
X118818368Y-78785201D02*
X118818368Y-78930344D01*
X118818368Y-78930344D02*
X118866749Y-79123868D01*
X118866749Y-79123868D02*
X118915130Y-79220630D01*
X118915130Y-79220630D02*
X119011892Y-79317392D01*
X119011892Y-79317392D02*
X119157035Y-79365772D01*
X119157035Y-79365772D02*
X119398940Y-79365772D01*
X118237797Y-79365772D02*
X118334559Y-79317392D01*
X118334559Y-79317392D02*
X118382940Y-79269011D01*
X118382940Y-79269011D02*
X118431321Y-79172249D01*
X118431321Y-79172249D02*
X118431321Y-78881963D01*
X118431321Y-78881963D02*
X118382940Y-78785201D01*
X118382940Y-78785201D02*
X118334559Y-78736820D01*
X118334559Y-78736820D02*
X118237797Y-78688439D01*
X118237797Y-78688439D02*
X118092654Y-78688439D01*
X118092654Y-78688439D02*
X117995892Y-78736820D01*
X117995892Y-78736820D02*
X117947511Y-78785201D01*
X117947511Y-78785201D02*
X117899130Y-78881963D01*
X117899130Y-78881963D02*
X117899130Y-79172249D01*
X117899130Y-79172249D02*
X117947511Y-79269011D01*
X117947511Y-79269011D02*
X117995892Y-79317392D01*
X117995892Y-79317392D02*
X118092654Y-79365772D01*
X118092654Y-79365772D02*
X118237797Y-79365772D01*
X117028273Y-78688439D02*
X117028273Y-79365772D01*
X117463702Y-78688439D02*
X117463702Y-79220630D01*
X117463702Y-79220630D02*
X117415321Y-79317392D01*
X117415321Y-79317392D02*
X117318559Y-79365772D01*
X117318559Y-79365772D02*
X117173416Y-79365772D01*
X117173416Y-79365772D02*
X117076654Y-79317392D01*
X117076654Y-79317392D02*
X117028273Y-79269011D01*
X116689607Y-78688439D02*
X116302559Y-78688439D01*
X116544464Y-78349772D02*
X116544464Y-79220630D01*
X116544464Y-79220630D02*
X116496083Y-79317392D01*
X116496083Y-79317392D02*
X116399321Y-79365772D01*
X116399321Y-79365772D02*
X116302559Y-79365772D01*
X115963893Y-79365772D02*
X115963893Y-78349772D01*
X115528464Y-79365772D02*
X115528464Y-78833582D01*
X115528464Y-78833582D02*
X115576845Y-78736820D01*
X115576845Y-78736820D02*
X115673607Y-78688439D01*
X115673607Y-78688439D02*
X115818750Y-78688439D01*
X115818750Y-78688439D02*
X115915512Y-78736820D01*
X115915512Y-78736820D02*
X115963893Y-78785201D01*
X115044655Y-79365772D02*
X115044655Y-78688439D01*
X115044655Y-78349772D02*
X115093036Y-78398153D01*
X115093036Y-78398153D02*
X115044655Y-78446534D01*
X115044655Y-78446534D02*
X114996274Y-78398153D01*
X114996274Y-78398153D02*
X115044655Y-78349772D01*
X115044655Y-78349772D02*
X115044655Y-78446534D01*
X114705988Y-78688439D02*
X114318940Y-78688439D01*
X114560845Y-78349772D02*
X114560845Y-79220630D01*
X114560845Y-79220630D02*
X114512464Y-79317392D01*
X114512464Y-79317392D02*
X114415702Y-79365772D01*
X114415702Y-79365772D02*
X114318940Y-79365772D01*
D12*
X139480704Y-101466667D02*
X139518800Y-101428571D01*
X139518800Y-101428571D02*
X139556895Y-101314286D01*
X139556895Y-101314286D02*
X139556895Y-101238095D01*
X139556895Y-101238095D02*
X139518800Y-101123809D01*
X139518800Y-101123809D02*
X139442609Y-101047619D01*
X139442609Y-101047619D02*
X139366419Y-101009524D01*
X139366419Y-101009524D02*
X139214038Y-100971428D01*
X139214038Y-100971428D02*
X139099752Y-100971428D01*
X139099752Y-100971428D02*
X138947371Y-101009524D01*
X138947371Y-101009524D02*
X138871180Y-101047619D01*
X138871180Y-101047619D02*
X138794990Y-101123809D01*
X138794990Y-101123809D02*
X138756895Y-101238095D01*
X138756895Y-101238095D02*
X138756895Y-101314286D01*
X138756895Y-101314286D02*
X138794990Y-101428571D01*
X138794990Y-101428571D02*
X138833085Y-101466667D01*
X138756895Y-101733333D02*
X138756895Y-102228571D01*
X138756895Y-102228571D02*
X139061657Y-101961905D01*
X139061657Y-101961905D02*
X139061657Y-102076190D01*
X139061657Y-102076190D02*
X139099752Y-102152381D01*
X139099752Y-102152381D02*
X139137847Y-102190476D01*
X139137847Y-102190476D02*
X139214038Y-102228571D01*
X139214038Y-102228571D02*
X139404514Y-102228571D01*
X139404514Y-102228571D02*
X139480704Y-102190476D01*
X139480704Y-102190476D02*
X139518800Y-102152381D01*
X139518800Y-102152381D02*
X139556895Y-102076190D01*
X139556895Y-102076190D02*
X139556895Y-101847619D01*
X139556895Y-101847619D02*
X139518800Y-101771428D01*
X139518800Y-101771428D02*
X139480704Y-101733333D01*
D10*
X97702666Y-107134819D02*
X98178856Y-107134819D01*
X98178856Y-107134819D02*
X98178856Y-106134819D01*
X96845523Y-107134819D02*
X97416951Y-107134819D01*
X97131237Y-107134819D02*
X97131237Y-106134819D01*
X97131237Y-106134819D02*
X97226475Y-106277676D01*
X97226475Y-106277676D02*
X97321713Y-106372914D01*
X97321713Y-106372914D02*
X97416951Y-106420533D01*
X102615999Y-106134819D02*
X102615999Y-106372914D01*
X102854094Y-106277676D02*
X102615999Y-106372914D01*
X102615999Y-106372914D02*
X102377904Y-106277676D01*
X102758856Y-106563390D02*
X102615999Y-106372914D01*
X102615999Y-106372914D02*
X102473142Y-106563390D01*
D12*
X139480704Y-96132667D02*
X139518800Y-96094571D01*
X139518800Y-96094571D02*
X139556895Y-95980286D01*
X139556895Y-95980286D02*
X139556895Y-95904095D01*
X139556895Y-95904095D02*
X139518800Y-95789809D01*
X139518800Y-95789809D02*
X139442609Y-95713619D01*
X139442609Y-95713619D02*
X139366419Y-95675524D01*
X139366419Y-95675524D02*
X139214038Y-95637428D01*
X139214038Y-95637428D02*
X139099752Y-95637428D01*
X139099752Y-95637428D02*
X138947371Y-95675524D01*
X138947371Y-95675524D02*
X138871180Y-95713619D01*
X138871180Y-95713619D02*
X138794990Y-95789809D01*
X138794990Y-95789809D02*
X138756895Y-95904095D01*
X138756895Y-95904095D02*
X138756895Y-95980286D01*
X138756895Y-95980286D02*
X138794990Y-96094571D01*
X138794990Y-96094571D02*
X138833085Y-96132667D01*
X139556895Y-96513619D02*
X139556895Y-96666000D01*
X139556895Y-96666000D02*
X139518800Y-96742190D01*
X139518800Y-96742190D02*
X139480704Y-96780286D01*
X139480704Y-96780286D02*
X139366419Y-96856476D01*
X139366419Y-96856476D02*
X139214038Y-96894571D01*
X139214038Y-96894571D02*
X138909276Y-96894571D01*
X138909276Y-96894571D02*
X138833085Y-96856476D01*
X138833085Y-96856476D02*
X138794990Y-96818381D01*
X138794990Y-96818381D02*
X138756895Y-96742190D01*
X138756895Y-96742190D02*
X138756895Y-96589809D01*
X138756895Y-96589809D02*
X138794990Y-96513619D01*
X138794990Y-96513619D02*
X138833085Y-96475524D01*
X138833085Y-96475524D02*
X138909276Y-96437428D01*
X138909276Y-96437428D02*
X139099752Y-96437428D01*
X139099752Y-96437428D02*
X139175942Y-96475524D01*
X139175942Y-96475524D02*
X139214038Y-96513619D01*
X139214038Y-96513619D02*
X139252133Y-96589809D01*
X139252133Y-96589809D02*
X139252133Y-96742190D01*
X139252133Y-96742190D02*
X139214038Y-96818381D01*
X139214038Y-96818381D02*
X139175942Y-96856476D01*
X139175942Y-96856476D02*
X139099752Y-96894571D01*
D10*
X100542857Y-99559580D02*
X100590476Y-99607200D01*
X100590476Y-99607200D02*
X100733333Y-99654819D01*
X100733333Y-99654819D02*
X100828571Y-99654819D01*
X100828571Y-99654819D02*
X100971428Y-99607200D01*
X100971428Y-99607200D02*
X101066666Y-99511961D01*
X101066666Y-99511961D02*
X101114285Y-99416723D01*
X101114285Y-99416723D02*
X101161904Y-99226247D01*
X101161904Y-99226247D02*
X101161904Y-99083390D01*
X101161904Y-99083390D02*
X101114285Y-98892914D01*
X101114285Y-98892914D02*
X101066666Y-98797676D01*
X101066666Y-98797676D02*
X100971428Y-98702438D01*
X100971428Y-98702438D02*
X100828571Y-98654819D01*
X100828571Y-98654819D02*
X100733333Y-98654819D01*
X100733333Y-98654819D02*
X100590476Y-98702438D01*
X100590476Y-98702438D02*
X100542857Y-98750057D01*
X99590476Y-99654819D02*
X100161904Y-99654819D01*
X99876190Y-99654819D02*
X99876190Y-98654819D01*
X99876190Y-98654819D02*
X99971428Y-98797676D01*
X99971428Y-98797676D02*
X100066666Y-98892914D01*
X100066666Y-98892914D02*
X100161904Y-98940533D01*
X98685714Y-98654819D02*
X99161904Y-98654819D01*
X99161904Y-98654819D02*
X99209523Y-99131009D01*
X99209523Y-99131009D02*
X99161904Y-99083390D01*
X99161904Y-99083390D02*
X99066666Y-99035771D01*
X99066666Y-99035771D02*
X98828571Y-99035771D01*
X98828571Y-99035771D02*
X98733333Y-99083390D01*
X98733333Y-99083390D02*
X98685714Y-99131009D01*
X98685714Y-99131009D02*
X98638095Y-99226247D01*
X98638095Y-99226247D02*
X98638095Y-99464342D01*
X98638095Y-99464342D02*
X98685714Y-99559580D01*
X98685714Y-99559580D02*
X98733333Y-99607200D01*
X98733333Y-99607200D02*
X98828571Y-99654819D01*
X98828571Y-99654819D02*
X99066666Y-99654819D01*
X99066666Y-99654819D02*
X99161904Y-99607200D01*
X99161904Y-99607200D02*
X99209523Y-99559580D01*
X88935819Y-94361905D02*
X87935819Y-94361905D01*
X87935819Y-94361905D02*
X87935819Y-94600000D01*
X87935819Y-94600000D02*
X87983438Y-94742857D01*
X87983438Y-94742857D02*
X88078676Y-94838095D01*
X88078676Y-94838095D02*
X88173914Y-94885714D01*
X88173914Y-94885714D02*
X88364390Y-94933333D01*
X88364390Y-94933333D02*
X88507247Y-94933333D01*
X88507247Y-94933333D02*
X88697723Y-94885714D01*
X88697723Y-94885714D02*
X88792961Y-94838095D01*
X88792961Y-94838095D02*
X88888200Y-94742857D01*
X88888200Y-94742857D02*
X88935819Y-94600000D01*
X88935819Y-94600000D02*
X88935819Y-94361905D01*
X87935819Y-95266667D02*
X87935819Y-95885714D01*
X87935819Y-95885714D02*
X88316771Y-95552381D01*
X88316771Y-95552381D02*
X88316771Y-95695238D01*
X88316771Y-95695238D02*
X88364390Y-95790476D01*
X88364390Y-95790476D02*
X88412009Y-95838095D01*
X88412009Y-95838095D02*
X88507247Y-95885714D01*
X88507247Y-95885714D02*
X88745342Y-95885714D01*
X88745342Y-95885714D02*
X88840580Y-95838095D01*
X88840580Y-95838095D02*
X88888200Y-95790476D01*
X88888200Y-95790476D02*
X88935819Y-95695238D01*
X88935819Y-95695238D02*
X88935819Y-95409524D01*
X88935819Y-95409524D02*
X88888200Y-95314286D01*
X88888200Y-95314286D02*
X88840580Y-95266667D01*
D12*
X139518395Y-98545714D02*
X139137442Y-98279047D01*
X139518395Y-98088571D02*
X138718395Y-98088571D01*
X138718395Y-98088571D02*
X138718395Y-98393333D01*
X138718395Y-98393333D02*
X138756490Y-98469523D01*
X138756490Y-98469523D02*
X138794585Y-98507618D01*
X138794585Y-98507618D02*
X138870776Y-98545714D01*
X138870776Y-98545714D02*
X138985061Y-98545714D01*
X138985061Y-98545714D02*
X139061252Y-98507618D01*
X139061252Y-98507618D02*
X139099347Y-98469523D01*
X139099347Y-98469523D02*
X139137442Y-98393333D01*
X139137442Y-98393333D02*
X139137442Y-98088571D01*
X139518395Y-99307618D02*
X139518395Y-98850475D01*
X139518395Y-99079047D02*
X138718395Y-99079047D01*
X138718395Y-99079047D02*
X138832680Y-99002856D01*
X138832680Y-99002856D02*
X138908871Y-98926666D01*
X138908871Y-98926666D02*
X138946966Y-98850475D01*
X139518395Y-100069523D02*
X139518395Y-99612380D01*
X139518395Y-99840952D02*
X138718395Y-99840952D01*
X138718395Y-99840952D02*
X138832680Y-99764761D01*
X138832680Y-99764761D02*
X138908871Y-99688571D01*
X138908871Y-99688571D02*
X138946966Y-99612380D01*
X123380438Y-106332101D02*
X123418534Y-106370197D01*
X123418534Y-106370197D02*
X123532819Y-106408292D01*
X123532819Y-106408292D02*
X123609010Y-106408292D01*
X123609010Y-106408292D02*
X123723296Y-106370197D01*
X123723296Y-106370197D02*
X123799486Y-106294006D01*
X123799486Y-106294006D02*
X123837581Y-106217816D01*
X123837581Y-106217816D02*
X123875677Y-106065435D01*
X123875677Y-106065435D02*
X123875677Y-105951149D01*
X123875677Y-105951149D02*
X123837581Y-105798768D01*
X123837581Y-105798768D02*
X123799486Y-105722577D01*
X123799486Y-105722577D02*
X123723296Y-105646387D01*
X123723296Y-105646387D02*
X123609010Y-105608292D01*
X123609010Y-105608292D02*
X123532819Y-105608292D01*
X123532819Y-105608292D02*
X123418534Y-105646387D01*
X123418534Y-105646387D02*
X123380438Y-105684482D01*
X122618534Y-106408292D02*
X123075677Y-106408292D01*
X122847105Y-106408292D02*
X122847105Y-105608292D01*
X122847105Y-105608292D02*
X122923296Y-105722577D01*
X122923296Y-105722577D02*
X122999486Y-105798768D01*
X122999486Y-105798768D02*
X123075677Y-105836863D01*
D10*
X127679819Y-94712380D02*
X127203628Y-94379047D01*
X127679819Y-94140952D02*
X126679819Y-94140952D01*
X126679819Y-94140952D02*
X126679819Y-94521904D01*
X126679819Y-94521904D02*
X126727438Y-94617142D01*
X126727438Y-94617142D02*
X126775057Y-94664761D01*
X126775057Y-94664761D02*
X126870295Y-94712380D01*
X126870295Y-94712380D02*
X127013152Y-94712380D01*
X127013152Y-94712380D02*
X127108390Y-94664761D01*
X127108390Y-94664761D02*
X127156009Y-94617142D01*
X127156009Y-94617142D02*
X127203628Y-94521904D01*
X127203628Y-94521904D02*
X127203628Y-94140952D01*
X126679819Y-94998095D02*
X126679819Y-95569523D01*
X127679819Y-95283809D02*
X126679819Y-95283809D01*
X127584580Y-96474285D02*
X127632200Y-96426666D01*
X127632200Y-96426666D02*
X127679819Y-96283809D01*
X127679819Y-96283809D02*
X127679819Y-96188571D01*
X127679819Y-96188571D02*
X127632200Y-96045714D01*
X127632200Y-96045714D02*
X127536961Y-95950476D01*
X127536961Y-95950476D02*
X127441723Y-95902857D01*
X127441723Y-95902857D02*
X127251247Y-95855238D01*
X127251247Y-95855238D02*
X127108390Y-95855238D01*
X127108390Y-95855238D02*
X126917914Y-95902857D01*
X126917914Y-95902857D02*
X126822676Y-95950476D01*
X126822676Y-95950476D02*
X126727438Y-96045714D01*
X126727438Y-96045714D02*
X126679819Y-96188571D01*
X126679819Y-96188571D02*
X126679819Y-96283809D01*
X126679819Y-96283809D02*
X126727438Y-96426666D01*
X126727438Y-96426666D02*
X126775057Y-96474285D01*
X127679819Y-97426666D02*
X127679819Y-96855238D01*
X127679819Y-97140952D02*
X126679819Y-97140952D01*
X126679819Y-97140952D02*
X126822676Y-97045714D01*
X126822676Y-97045714D02*
X126917914Y-96950476D01*
X126917914Y-96950476D02*
X126965533Y-96855238D01*
D12*
X125920438Y-106332101D02*
X125958534Y-106370197D01*
X125958534Y-106370197D02*
X126072819Y-106408292D01*
X126072819Y-106408292D02*
X126149010Y-106408292D01*
X126149010Y-106408292D02*
X126263296Y-106370197D01*
X126263296Y-106370197D02*
X126339486Y-106294006D01*
X126339486Y-106294006D02*
X126377581Y-106217816D01*
X126377581Y-106217816D02*
X126415677Y-106065435D01*
X126415677Y-106065435D02*
X126415677Y-105951149D01*
X126415677Y-105951149D02*
X126377581Y-105798768D01*
X126377581Y-105798768D02*
X126339486Y-105722577D01*
X126339486Y-105722577D02*
X126263296Y-105646387D01*
X126263296Y-105646387D02*
X126149010Y-105608292D01*
X126149010Y-105608292D02*
X126072819Y-105608292D01*
X126072819Y-105608292D02*
X125958534Y-105646387D01*
X125958534Y-105646387D02*
X125920438Y-105684482D01*
X125615677Y-105684482D02*
X125577581Y-105646387D01*
X125577581Y-105646387D02*
X125501391Y-105608292D01*
X125501391Y-105608292D02*
X125310915Y-105608292D01*
X125310915Y-105608292D02*
X125234724Y-105646387D01*
X125234724Y-105646387D02*
X125196629Y-105684482D01*
X125196629Y-105684482D02*
X125158534Y-105760673D01*
X125158534Y-105760673D02*
X125158534Y-105836863D01*
X125158534Y-105836863D02*
X125196629Y-105951149D01*
X125196629Y-105951149D02*
X125653772Y-106408292D01*
X125653772Y-106408292D02*
X125158534Y-106408292D01*
X128460438Y-113012292D02*
X128727105Y-112631339D01*
X128917581Y-113012292D02*
X128917581Y-112212292D01*
X128917581Y-112212292D02*
X128612819Y-112212292D01*
X128612819Y-112212292D02*
X128536629Y-112250387D01*
X128536629Y-112250387D02*
X128498534Y-112288482D01*
X128498534Y-112288482D02*
X128460438Y-112364673D01*
X128460438Y-112364673D02*
X128460438Y-112478958D01*
X128460438Y-112478958D02*
X128498534Y-112555149D01*
X128498534Y-112555149D02*
X128536629Y-112593244D01*
X128536629Y-112593244D02*
X128612819Y-112631339D01*
X128612819Y-112631339D02*
X128917581Y-112631339D01*
X127698534Y-113012292D02*
X128155677Y-113012292D01*
X127927105Y-113012292D02*
X127927105Y-112212292D01*
X127927105Y-112212292D02*
X128003296Y-112326577D01*
X128003296Y-112326577D02*
X128079486Y-112402768D01*
X128079486Y-112402768D02*
X128155677Y-112440863D01*
D10*
X95194819Y-95781905D02*
X94194819Y-95781905D01*
X94194819Y-95781905D02*
X94194819Y-96020000D01*
X94194819Y-96020000D02*
X94242438Y-96162857D01*
X94242438Y-96162857D02*
X94337676Y-96258095D01*
X94337676Y-96258095D02*
X94432914Y-96305714D01*
X94432914Y-96305714D02*
X94623390Y-96353333D01*
X94623390Y-96353333D02*
X94766247Y-96353333D01*
X94766247Y-96353333D02*
X94956723Y-96305714D01*
X94956723Y-96305714D02*
X95051961Y-96258095D01*
X95051961Y-96258095D02*
X95147200Y-96162857D01*
X95147200Y-96162857D02*
X95194819Y-96020000D01*
X95194819Y-96020000D02*
X95194819Y-95781905D01*
X94528152Y-97210476D02*
X95194819Y-97210476D01*
X94147200Y-96972381D02*
X94861485Y-96734286D01*
X94861485Y-96734286D02*
X94861485Y-97353333D01*
X100542857Y-92509580D02*
X100590476Y-92557200D01*
X100590476Y-92557200D02*
X100733333Y-92604819D01*
X100733333Y-92604819D02*
X100828571Y-92604819D01*
X100828571Y-92604819D02*
X100971428Y-92557200D01*
X100971428Y-92557200D02*
X101066666Y-92461961D01*
X101066666Y-92461961D02*
X101114285Y-92366723D01*
X101114285Y-92366723D02*
X101161904Y-92176247D01*
X101161904Y-92176247D02*
X101161904Y-92033390D01*
X101161904Y-92033390D02*
X101114285Y-91842914D01*
X101114285Y-91842914D02*
X101066666Y-91747676D01*
X101066666Y-91747676D02*
X100971428Y-91652438D01*
X100971428Y-91652438D02*
X100828571Y-91604819D01*
X100828571Y-91604819D02*
X100733333Y-91604819D01*
X100733333Y-91604819D02*
X100590476Y-91652438D01*
X100590476Y-91652438D02*
X100542857Y-91700057D01*
X99590476Y-92604819D02*
X100161904Y-92604819D01*
X99876190Y-92604819D02*
X99876190Y-91604819D01*
X99876190Y-91604819D02*
X99971428Y-91747676D01*
X99971428Y-91747676D02*
X100066666Y-91842914D01*
X100066666Y-91842914D02*
X100161904Y-91890533D01*
X98733333Y-91938152D02*
X98733333Y-92604819D01*
X98971428Y-91557200D02*
X99209523Y-92271485D01*
X99209523Y-92271485D02*
X98590476Y-92271485D01*
D13*
X141528748Y-100690000D02*
X142951252Y-100690000D01*
X141528748Y-102510000D02*
X142951252Y-102510000D01*
D14*
X95964097Y-102400100D02*
X99107903Y-102400100D01*
X99107903Y-110959900D02*
X95964097Y-110959900D01*
D13*
X142951252Y-95356000D02*
X141528748Y-95356000D01*
X142951252Y-97176000D02*
X141528748Y-97176000D01*
X99188748Y-96440000D02*
X100611252Y-96440000D01*
X99188748Y-98260000D02*
X100611252Y-98260000D01*
D12*
X89701000Y-93835000D02*
G75*
G02*
X89601000Y-93835000I-50000J0D01*
G01*
X89601000Y-93835000D02*
G75*
G02*
X89701000Y-93835000I50000J0D01*
G01*
D13*
X142928564Y-98150000D02*
X141474436Y-98150000D01*
X142928564Y-99970000D02*
X141474436Y-99970000D01*
X122337106Y-110056649D02*
X122337106Y-108634145D01*
X124157106Y-110056649D02*
X124157106Y-108634145D01*
D15*
X128800000Y-91675000D02*
X128800000Y-99975000D01*
X128800000Y-99975000D02*
X132000000Y-99975000D01*
X132000000Y-91675000D02*
X128800000Y-91675000D01*
X132000000Y-99975000D02*
X132000000Y-91675000D01*
D13*
X124877106Y-110056649D02*
X124877106Y-108634145D01*
X126697106Y-110056649D02*
X126697106Y-108634145D01*
X127417106Y-110072461D02*
X127417106Y-108618333D01*
X129237106Y-110072461D02*
X129237106Y-108618333D01*
D12*
X95960000Y-95255000D02*
G75*
G02*
X95860000Y-95255000I-50000J0D01*
G01*
X95860000Y-95255000D02*
G75*
G02*
X95960000Y-95255000I50000J0D01*
G01*
D13*
X100611252Y-93090000D02*
X99188748Y-93090000D01*
X100611252Y-94910000D02*
X99188748Y-94910000D01*
%LPC*%
D16*
X141732000Y-64818400D03*
D17*
X141732000Y-60858400D03*
X141732000Y-56898400D03*
D18*
X122428000Y-55197600D03*
D19*
X89814400Y-44145200D03*
D16*
X141732000Y-79347200D03*
D17*
X141732000Y-75387200D03*
X141732000Y-71427200D03*
D20*
X118904640Y-48564800D03*
D17*
X114944640Y-48564800D03*
X110984640Y-48564800D03*
D19*
X146507200Y-44145200D03*
D21*
X103378000Y-84937600D03*
D22*
X105918000Y-84937600D03*
X108458000Y-84937600D03*
X110998000Y-84937600D03*
X113538000Y-84937600D03*
X116078000Y-84937600D03*
X118618000Y-84937600D03*
X121158000Y-84937600D03*
D20*
X139357760Y-48564800D03*
D17*
X135397760Y-48564800D03*
D20*
X129131200Y-48564800D03*
D17*
X125171200Y-48564800D03*
D20*
X104718080Y-48564800D03*
D17*
X100758080Y-48564800D03*
X96798080Y-48564800D03*
D23*
X94945200Y-55120400D03*
D17*
X94945200Y-59080400D03*
X94945200Y-63040400D03*
X94945200Y-67000400D03*
X94945200Y-70960400D03*
X94945200Y-74920400D03*
X94945200Y-78880400D03*
D19*
X89814400Y-109524800D03*
D16*
X141815000Y-88594000D03*
D17*
X141815000Y-84634000D03*
D18*
X102108000Y-55197600D03*
D24*
X90780000Y-92127000D03*
X90780000Y-97907000D03*
D25*
X91300000Y-90697000D03*
D26*
X87100000Y-90697000D03*
D25*
X91300000Y-99337000D03*
D26*
X87100000Y-99337000D03*
D27*
X140677500Y-101600000D03*
X143802500Y-101600000D03*
D28*
X100393500Y-106680000D03*
X94678500Y-106680000D03*
D29*
X143802500Y-96266000D03*
X140677500Y-96266000D03*
D27*
X98337500Y-97350000D03*
X101462500Y-97350000D03*
D30*
X89651000Y-94527500D03*
X89651000Y-95672500D03*
D31*
X143751500Y-99060000D03*
X140651500Y-99060000D03*
D32*
X123247106Y-110907897D03*
X123247106Y-107782897D03*
D33*
X129765000Y-101475000D03*
D34*
X131035000Y-101475000D03*
D32*
X125787106Y-110907897D03*
X125787106Y-107782897D03*
D35*
X128327106Y-110895397D03*
X128327106Y-107795397D03*
D30*
X95910000Y-95947500D03*
X95910000Y-97092500D03*
D29*
X101462500Y-94000000D03*
X98337500Y-94000000D03*
%LPD*%
M02*
