%TF.GenerationSoftware,KiCad,Pcbnew,9.0.7*%
%TF.CreationDate,2026-03-06T14:55:03-05:00*%
%TF.ProjectId,Smart_Backpack,536d6172-745f-4426-9163-6b7061636b2e,rev?*%
%TF.SameCoordinates,Original*%
%TF.FileFunction,Drillmap*%
%TF.FilePolarity,Positive*%
%FSLAX45Y45*%
G04 Gerber Fmt 4.5, Leading zero omitted, Abs format (unit mm)*
G04 Created by KiCad (PCBNEW 9.0.7) date 2026-03-06 14:55:03*
%MOMM*%
%LPD*%
G01*
G04 APERTURE LIST*
%ADD10C,0.100000*%
%ADD11C,0.200000*%
%ADD12C,0.220000*%
%ADD13C,0.300000*%
G04 APERTURE END LIST*
D10*
X15103240Y-3962000D02*
X15104036Y-10774931D01*
X8528920Y-11405000D02*
X8528920Y-3962000D01*
X13512800Y-10775069D02*
X15104013Y-10774931D01*
X13512800Y-11181870D02*
X13512800Y-11405000D01*
X13512800Y-11181870D02*
X13512800Y-10775069D01*
X8528920Y-3962000D02*
X15103240Y-3962000D01*
X13512800Y-11405000D02*
X8528920Y-11405000D01*
D11*
D10*
X9045500Y-9180200D02*
X9110500Y-9245200D01*
X9110500Y-9180200D02*
X9045500Y-9245200D01*
X9045500Y-9758200D02*
X9110500Y-9823200D01*
X9110500Y-9758200D02*
X9045500Y-9823200D01*
D12*
X10320800Y-5519760D02*
G75*
G02*
X10100800Y-5519760I-110000J0D01*
G01*
X10100800Y-5519760D02*
G75*
G02*
X10320800Y-5519760I110000J0D01*
G01*
X12352800Y-5519760D02*
G75*
G02*
X12132800Y-5519760I-110000J0D01*
G01*
X12132800Y-5519760D02*
G75*
G02*
X12352800Y-5519760I110000J0D01*
G01*
D13*
X8981440Y-4264520D02*
X8981440Y-4564520D01*
X8831440Y-4414520D02*
X9131440Y-4414520D01*
X8981440Y-10802480D02*
X8981440Y-11102480D01*
X8831440Y-10952480D02*
X9131440Y-10952480D01*
X14650720Y-4264520D02*
X14650720Y-4564520D01*
X14500720Y-4414520D02*
X14800720Y-4414520D01*
D11*
X8784697Y-11721484D02*
X8784697Y-11521484D01*
X8784697Y-11521484D02*
X8832316Y-11521484D01*
X8832316Y-11521484D02*
X8860887Y-11531008D01*
X8860887Y-11531008D02*
X8879935Y-11550055D01*
X8879935Y-11550055D02*
X8889459Y-11569103D01*
X8889459Y-11569103D02*
X8898983Y-11607198D01*
X8898983Y-11607198D02*
X8898983Y-11635769D01*
X8898983Y-11635769D02*
X8889459Y-11673865D01*
X8889459Y-11673865D02*
X8879935Y-11692912D01*
X8879935Y-11692912D02*
X8860887Y-11711960D01*
X8860887Y-11711960D02*
X8832316Y-11721484D01*
X8832316Y-11721484D02*
X8784697Y-11721484D01*
X8984697Y-11721484D02*
X8984697Y-11588150D01*
X8984697Y-11626246D02*
X8994221Y-11607198D01*
X8994221Y-11607198D02*
X9003744Y-11597674D01*
X9003744Y-11597674D02*
X9022792Y-11588150D01*
X9022792Y-11588150D02*
X9041840Y-11588150D01*
X9108506Y-11721484D02*
X9108506Y-11588150D01*
X9108506Y-11521484D02*
X9098983Y-11531008D01*
X9098983Y-11531008D02*
X9108506Y-11540531D01*
X9108506Y-11540531D02*
X9118030Y-11531008D01*
X9118030Y-11531008D02*
X9108506Y-11521484D01*
X9108506Y-11521484D02*
X9108506Y-11540531D01*
X9232316Y-11721484D02*
X9213268Y-11711960D01*
X9213268Y-11711960D02*
X9203744Y-11692912D01*
X9203744Y-11692912D02*
X9203744Y-11521484D01*
X9337078Y-11721484D02*
X9318030Y-11711960D01*
X9318030Y-11711960D02*
X9308506Y-11692912D01*
X9308506Y-11692912D02*
X9308506Y-11521484D01*
X9565649Y-11721484D02*
X9565649Y-11521484D01*
X9565649Y-11521484D02*
X9632316Y-11664341D01*
X9632316Y-11664341D02*
X9698983Y-11521484D01*
X9698983Y-11521484D02*
X9698983Y-11721484D01*
X9879935Y-11721484D02*
X9879935Y-11616722D01*
X9879935Y-11616722D02*
X9870411Y-11597674D01*
X9870411Y-11597674D02*
X9851364Y-11588150D01*
X9851364Y-11588150D02*
X9813268Y-11588150D01*
X9813268Y-11588150D02*
X9794221Y-11597674D01*
X9879935Y-11711960D02*
X9860887Y-11721484D01*
X9860887Y-11721484D02*
X9813268Y-11721484D01*
X9813268Y-11721484D02*
X9794221Y-11711960D01*
X9794221Y-11711960D02*
X9784697Y-11692912D01*
X9784697Y-11692912D02*
X9784697Y-11673865D01*
X9784697Y-11673865D02*
X9794221Y-11654817D01*
X9794221Y-11654817D02*
X9813268Y-11645293D01*
X9813268Y-11645293D02*
X9860887Y-11645293D01*
X9860887Y-11645293D02*
X9879935Y-11635769D01*
X9975173Y-11588150D02*
X9975173Y-11788150D01*
X9975173Y-11597674D02*
X9994221Y-11588150D01*
X9994221Y-11588150D02*
X10032316Y-11588150D01*
X10032316Y-11588150D02*
X10051364Y-11597674D01*
X10051364Y-11597674D02*
X10060887Y-11607198D01*
X10060887Y-11607198D02*
X10070411Y-11626246D01*
X10070411Y-11626246D02*
X10070411Y-11683388D01*
X10070411Y-11683388D02*
X10060887Y-11702436D01*
X10060887Y-11702436D02*
X10051364Y-11711960D01*
X10051364Y-11711960D02*
X10032316Y-11721484D01*
X10032316Y-11721484D02*
X9994221Y-11721484D01*
X9994221Y-11721484D02*
X9975173Y-11711960D01*
X10156125Y-11702436D02*
X10165649Y-11711960D01*
X10165649Y-11711960D02*
X10156125Y-11721484D01*
X10156125Y-11721484D02*
X10146602Y-11711960D01*
X10146602Y-11711960D02*
X10156125Y-11702436D01*
X10156125Y-11702436D02*
X10156125Y-11721484D01*
X10156125Y-11597674D02*
X10165649Y-11607198D01*
X10165649Y-11607198D02*
X10156125Y-11616722D01*
X10156125Y-11616722D02*
X10146602Y-11607198D01*
X10146602Y-11607198D02*
X10156125Y-11597674D01*
X10156125Y-11597674D02*
X10156125Y-11616722D01*
D10*
X8458920Y-12017500D02*
X8523920Y-12082500D01*
X8523920Y-12017500D02*
X8458920Y-12082500D01*
D11*
X8822792Y-11941484D02*
X8841840Y-11941484D01*
X8841840Y-11941484D02*
X8860887Y-11951008D01*
X8860887Y-11951008D02*
X8870411Y-11960531D01*
X8870411Y-11960531D02*
X8879935Y-11979579D01*
X8879935Y-11979579D02*
X8889459Y-12017674D01*
X8889459Y-12017674D02*
X8889459Y-12065293D01*
X8889459Y-12065293D02*
X8879935Y-12103388D01*
X8879935Y-12103388D02*
X8870411Y-12122436D01*
X8870411Y-12122436D02*
X8860887Y-12131960D01*
X8860887Y-12131960D02*
X8841840Y-12141484D01*
X8841840Y-12141484D02*
X8822792Y-12141484D01*
X8822792Y-12141484D02*
X8803744Y-12131960D01*
X8803744Y-12131960D02*
X8794221Y-12122436D01*
X8794221Y-12122436D02*
X8784697Y-12103388D01*
X8784697Y-12103388D02*
X8775173Y-12065293D01*
X8775173Y-12065293D02*
X8775173Y-12017674D01*
X8775173Y-12017674D02*
X8784697Y-11979579D01*
X8784697Y-11979579D02*
X8794221Y-11960531D01*
X8794221Y-11960531D02*
X8803744Y-11951008D01*
X8803744Y-11951008D02*
X8822792Y-11941484D01*
X8975173Y-12122436D02*
X8984697Y-12131960D01*
X8984697Y-12131960D02*
X8975173Y-12141484D01*
X8975173Y-12141484D02*
X8965649Y-12131960D01*
X8965649Y-12131960D02*
X8975173Y-12122436D01*
X8975173Y-12122436D02*
X8975173Y-12141484D01*
X9156125Y-11941484D02*
X9118030Y-11941484D01*
X9118030Y-11941484D02*
X9098983Y-11951008D01*
X9098983Y-11951008D02*
X9089459Y-11960531D01*
X9089459Y-11960531D02*
X9070411Y-11989103D01*
X9070411Y-11989103D02*
X9060887Y-12027198D01*
X9060887Y-12027198D02*
X9060887Y-12103388D01*
X9060887Y-12103388D02*
X9070411Y-12122436D01*
X9070411Y-12122436D02*
X9079935Y-12131960D01*
X9079935Y-12131960D02*
X9098983Y-12141484D01*
X9098983Y-12141484D02*
X9137078Y-12141484D01*
X9137078Y-12141484D02*
X9156125Y-12131960D01*
X9156125Y-12131960D02*
X9165649Y-12122436D01*
X9165649Y-12122436D02*
X9175173Y-12103388D01*
X9175173Y-12103388D02*
X9175173Y-12055769D01*
X9175173Y-12055769D02*
X9165649Y-12036722D01*
X9165649Y-12036722D02*
X9156125Y-12027198D01*
X9156125Y-12027198D02*
X9137078Y-12017674D01*
X9137078Y-12017674D02*
X9098983Y-12017674D01*
X9098983Y-12017674D02*
X9079935Y-12027198D01*
X9079935Y-12027198D02*
X9070411Y-12036722D01*
X9070411Y-12036722D02*
X9060887Y-12055769D01*
X9356125Y-11941484D02*
X9260887Y-11941484D01*
X9260887Y-11941484D02*
X9251364Y-12036722D01*
X9251364Y-12036722D02*
X9260887Y-12027198D01*
X9260887Y-12027198D02*
X9279935Y-12017674D01*
X9279935Y-12017674D02*
X9327554Y-12017674D01*
X9327554Y-12017674D02*
X9346602Y-12027198D01*
X9346602Y-12027198D02*
X9356125Y-12036722D01*
X9356125Y-12036722D02*
X9365649Y-12055769D01*
X9365649Y-12055769D02*
X9365649Y-12103388D01*
X9365649Y-12103388D02*
X9356125Y-12122436D01*
X9356125Y-12122436D02*
X9346602Y-12131960D01*
X9346602Y-12131960D02*
X9327554Y-12141484D01*
X9327554Y-12141484D02*
X9279935Y-12141484D01*
X9279935Y-12141484D02*
X9260887Y-12131960D01*
X9260887Y-12131960D02*
X9251364Y-12122436D01*
X9489459Y-11941484D02*
X9508506Y-11941484D01*
X9508506Y-11941484D02*
X9527554Y-11951008D01*
X9527554Y-11951008D02*
X9537078Y-11960531D01*
X9537078Y-11960531D02*
X9546602Y-11979579D01*
X9546602Y-11979579D02*
X9556125Y-12017674D01*
X9556125Y-12017674D02*
X9556125Y-12065293D01*
X9556125Y-12065293D02*
X9546602Y-12103388D01*
X9546602Y-12103388D02*
X9537078Y-12122436D01*
X9537078Y-12122436D02*
X9527554Y-12131960D01*
X9527554Y-12131960D02*
X9508506Y-12141484D01*
X9508506Y-12141484D02*
X9489459Y-12141484D01*
X9489459Y-12141484D02*
X9470411Y-12131960D01*
X9470411Y-12131960D02*
X9460887Y-12122436D01*
X9460887Y-12122436D02*
X9451364Y-12103388D01*
X9451364Y-12103388D02*
X9441840Y-12065293D01*
X9441840Y-12065293D02*
X9441840Y-12017674D01*
X9441840Y-12017674D02*
X9451364Y-11979579D01*
X9451364Y-11979579D02*
X9460887Y-11960531D01*
X9460887Y-11960531D02*
X9470411Y-11951008D01*
X9470411Y-11951008D02*
X9489459Y-11941484D01*
X9641840Y-12141484D02*
X9641840Y-12008150D01*
X9641840Y-12027198D02*
X9651364Y-12017674D01*
X9651364Y-12017674D02*
X9670411Y-12008150D01*
X9670411Y-12008150D02*
X9698983Y-12008150D01*
X9698983Y-12008150D02*
X9718030Y-12017674D01*
X9718030Y-12017674D02*
X9727554Y-12036722D01*
X9727554Y-12036722D02*
X9727554Y-12141484D01*
X9727554Y-12036722D02*
X9737078Y-12017674D01*
X9737078Y-12017674D02*
X9756125Y-12008150D01*
X9756125Y-12008150D02*
X9784697Y-12008150D01*
X9784697Y-12008150D02*
X9803745Y-12017674D01*
X9803745Y-12017674D02*
X9813268Y-12036722D01*
X9813268Y-12036722D02*
X9813268Y-12141484D01*
X9908506Y-12141484D02*
X9908506Y-12008150D01*
X9908506Y-12027198D02*
X9918030Y-12017674D01*
X9918030Y-12017674D02*
X9937078Y-12008150D01*
X9937078Y-12008150D02*
X9965649Y-12008150D01*
X9965649Y-12008150D02*
X9984697Y-12017674D01*
X9984697Y-12017674D02*
X9994221Y-12036722D01*
X9994221Y-12036722D02*
X9994221Y-12141484D01*
X9994221Y-12036722D02*
X10003745Y-12017674D01*
X10003745Y-12017674D02*
X10022792Y-12008150D01*
X10022792Y-12008150D02*
X10051364Y-12008150D01*
X10051364Y-12008150D02*
X10070411Y-12017674D01*
X10070411Y-12017674D02*
X10079935Y-12036722D01*
X10079935Y-12036722D02*
X10079935Y-12141484D01*
X10470411Y-11931960D02*
X10298983Y-12189103D01*
X10727554Y-11941484D02*
X10746602Y-11941484D01*
X10746602Y-11941484D02*
X10765649Y-11951008D01*
X10765649Y-11951008D02*
X10775173Y-11960531D01*
X10775173Y-11960531D02*
X10784697Y-11979579D01*
X10784697Y-11979579D02*
X10794221Y-12017674D01*
X10794221Y-12017674D02*
X10794221Y-12065293D01*
X10794221Y-12065293D02*
X10784697Y-12103388D01*
X10784697Y-12103388D02*
X10775173Y-12122436D01*
X10775173Y-12122436D02*
X10765649Y-12131960D01*
X10765649Y-12131960D02*
X10746602Y-12141484D01*
X10746602Y-12141484D02*
X10727554Y-12141484D01*
X10727554Y-12141484D02*
X10708507Y-12131960D01*
X10708507Y-12131960D02*
X10698983Y-12122436D01*
X10698983Y-12122436D02*
X10689459Y-12103388D01*
X10689459Y-12103388D02*
X10679935Y-12065293D01*
X10679935Y-12065293D02*
X10679935Y-12017674D01*
X10679935Y-12017674D02*
X10689459Y-11979579D01*
X10689459Y-11979579D02*
X10698983Y-11960531D01*
X10698983Y-11960531D02*
X10708507Y-11951008D01*
X10708507Y-11951008D02*
X10727554Y-11941484D01*
X10879935Y-12122436D02*
X10889459Y-12131960D01*
X10889459Y-12131960D02*
X10879935Y-12141484D01*
X10879935Y-12141484D02*
X10870411Y-12131960D01*
X10870411Y-12131960D02*
X10879935Y-12122436D01*
X10879935Y-12122436D02*
X10879935Y-12141484D01*
X11013268Y-11941484D02*
X11032316Y-11941484D01*
X11032316Y-11941484D02*
X11051364Y-11951008D01*
X11051364Y-11951008D02*
X11060888Y-11960531D01*
X11060888Y-11960531D02*
X11070411Y-11979579D01*
X11070411Y-11979579D02*
X11079935Y-12017674D01*
X11079935Y-12017674D02*
X11079935Y-12065293D01*
X11079935Y-12065293D02*
X11070411Y-12103388D01*
X11070411Y-12103388D02*
X11060888Y-12122436D01*
X11060888Y-12122436D02*
X11051364Y-12131960D01*
X11051364Y-12131960D02*
X11032316Y-12141484D01*
X11032316Y-12141484D02*
X11013268Y-12141484D01*
X11013268Y-12141484D02*
X10994221Y-12131960D01*
X10994221Y-12131960D02*
X10984697Y-12122436D01*
X10984697Y-12122436D02*
X10975173Y-12103388D01*
X10975173Y-12103388D02*
X10965649Y-12065293D01*
X10965649Y-12065293D02*
X10965649Y-12017674D01*
X10965649Y-12017674D02*
X10975173Y-11979579D01*
X10975173Y-11979579D02*
X10984697Y-11960531D01*
X10984697Y-11960531D02*
X10994221Y-11951008D01*
X10994221Y-11951008D02*
X11013268Y-11941484D01*
X11156126Y-11960531D02*
X11165649Y-11951008D01*
X11165649Y-11951008D02*
X11184697Y-11941484D01*
X11184697Y-11941484D02*
X11232316Y-11941484D01*
X11232316Y-11941484D02*
X11251364Y-11951008D01*
X11251364Y-11951008D02*
X11260887Y-11960531D01*
X11260887Y-11960531D02*
X11270411Y-11979579D01*
X11270411Y-11979579D02*
X11270411Y-11998627D01*
X11270411Y-11998627D02*
X11260887Y-12027198D01*
X11260887Y-12027198D02*
X11146602Y-12141484D01*
X11146602Y-12141484D02*
X11270411Y-12141484D01*
X11451364Y-11941484D02*
X11356126Y-11941484D01*
X11356126Y-11941484D02*
X11346602Y-12036722D01*
X11346602Y-12036722D02*
X11356126Y-12027198D01*
X11356126Y-12027198D02*
X11375173Y-12017674D01*
X11375173Y-12017674D02*
X11422792Y-12017674D01*
X11422792Y-12017674D02*
X11441840Y-12027198D01*
X11441840Y-12027198D02*
X11451364Y-12036722D01*
X11451364Y-12036722D02*
X11460887Y-12055769D01*
X11460887Y-12055769D02*
X11460887Y-12103388D01*
X11460887Y-12103388D02*
X11451364Y-12122436D01*
X11451364Y-12122436D02*
X11441840Y-12131960D01*
X11441840Y-12131960D02*
X11422792Y-12141484D01*
X11422792Y-12141484D02*
X11375173Y-12141484D01*
X11375173Y-12141484D02*
X11356126Y-12131960D01*
X11356126Y-12131960D02*
X11346602Y-12122436D01*
X11632316Y-11941484D02*
X11594221Y-11941484D01*
X11594221Y-11941484D02*
X11575173Y-11951008D01*
X11575173Y-11951008D02*
X11565649Y-11960531D01*
X11565649Y-11960531D02*
X11546602Y-11989103D01*
X11546602Y-11989103D02*
X11537078Y-12027198D01*
X11537078Y-12027198D02*
X11537078Y-12103388D01*
X11537078Y-12103388D02*
X11546602Y-12122436D01*
X11546602Y-12122436D02*
X11556126Y-12131960D01*
X11556126Y-12131960D02*
X11575173Y-12141484D01*
X11575173Y-12141484D02*
X11613268Y-12141484D01*
X11613268Y-12141484D02*
X11632316Y-12131960D01*
X11632316Y-12131960D02*
X11641840Y-12122436D01*
X11641840Y-12122436D02*
X11651364Y-12103388D01*
X11651364Y-12103388D02*
X11651364Y-12055769D01*
X11651364Y-12055769D02*
X11641840Y-12036722D01*
X11641840Y-12036722D02*
X11632316Y-12027198D01*
X11632316Y-12027198D02*
X11613268Y-12017674D01*
X11613268Y-12017674D02*
X11575173Y-12017674D01*
X11575173Y-12017674D02*
X11556126Y-12027198D01*
X11556126Y-12027198D02*
X11546602Y-12036722D01*
X11546602Y-12036722D02*
X11537078Y-12055769D01*
X11727554Y-11941484D02*
X11727554Y-11979579D01*
X11803745Y-11941484D02*
X11803745Y-11979579D01*
X12098983Y-12217674D02*
X12089459Y-12208150D01*
X12089459Y-12208150D02*
X12070411Y-12179579D01*
X12070411Y-12179579D02*
X12060888Y-12160531D01*
X12060888Y-12160531D02*
X12051364Y-12131960D01*
X12051364Y-12131960D02*
X12041840Y-12084341D01*
X12041840Y-12084341D02*
X12041840Y-12046246D01*
X12041840Y-12046246D02*
X12051364Y-11998627D01*
X12051364Y-11998627D02*
X12060888Y-11970055D01*
X12060888Y-11970055D02*
X12070411Y-11951008D01*
X12070411Y-11951008D02*
X12089459Y-11922436D01*
X12089459Y-11922436D02*
X12098983Y-11912912D01*
X12165649Y-11960531D02*
X12175173Y-11951008D01*
X12175173Y-11951008D02*
X12194221Y-11941484D01*
X12194221Y-11941484D02*
X12241840Y-11941484D01*
X12241840Y-11941484D02*
X12260888Y-11951008D01*
X12260888Y-11951008D02*
X12270411Y-11960531D01*
X12270411Y-11960531D02*
X12279935Y-11979579D01*
X12279935Y-11979579D02*
X12279935Y-11998627D01*
X12279935Y-11998627D02*
X12270411Y-12027198D01*
X12270411Y-12027198D02*
X12156126Y-12141484D01*
X12156126Y-12141484D02*
X12279935Y-12141484D01*
X12518030Y-12141484D02*
X12518030Y-11941484D01*
X12603745Y-12141484D02*
X12603745Y-12036722D01*
X12603745Y-12036722D02*
X12594221Y-12017674D01*
X12594221Y-12017674D02*
X12575173Y-12008150D01*
X12575173Y-12008150D02*
X12546602Y-12008150D01*
X12546602Y-12008150D02*
X12527554Y-12017674D01*
X12527554Y-12017674D02*
X12518030Y-12027198D01*
X12727554Y-12141484D02*
X12708507Y-12131960D01*
X12708507Y-12131960D02*
X12698983Y-12122436D01*
X12698983Y-12122436D02*
X12689459Y-12103388D01*
X12689459Y-12103388D02*
X12689459Y-12046246D01*
X12689459Y-12046246D02*
X12698983Y-12027198D01*
X12698983Y-12027198D02*
X12708507Y-12017674D01*
X12708507Y-12017674D02*
X12727554Y-12008150D01*
X12727554Y-12008150D02*
X12756126Y-12008150D01*
X12756126Y-12008150D02*
X12775173Y-12017674D01*
X12775173Y-12017674D02*
X12784697Y-12027198D01*
X12784697Y-12027198D02*
X12794221Y-12046246D01*
X12794221Y-12046246D02*
X12794221Y-12103388D01*
X12794221Y-12103388D02*
X12784697Y-12122436D01*
X12784697Y-12122436D02*
X12775173Y-12131960D01*
X12775173Y-12131960D02*
X12756126Y-12141484D01*
X12756126Y-12141484D02*
X12727554Y-12141484D01*
X12908507Y-12141484D02*
X12889459Y-12131960D01*
X12889459Y-12131960D02*
X12879935Y-12112912D01*
X12879935Y-12112912D02*
X12879935Y-11941484D01*
X13060888Y-12131960D02*
X13041840Y-12141484D01*
X13041840Y-12141484D02*
X13003745Y-12141484D01*
X13003745Y-12141484D02*
X12984697Y-12131960D01*
X12984697Y-12131960D02*
X12975173Y-12112912D01*
X12975173Y-12112912D02*
X12975173Y-12036722D01*
X12975173Y-12036722D02*
X12984697Y-12017674D01*
X12984697Y-12017674D02*
X13003745Y-12008150D01*
X13003745Y-12008150D02*
X13041840Y-12008150D01*
X13041840Y-12008150D02*
X13060888Y-12017674D01*
X13060888Y-12017674D02*
X13070411Y-12036722D01*
X13070411Y-12036722D02*
X13070411Y-12055769D01*
X13070411Y-12055769D02*
X12975173Y-12074817D01*
X13146602Y-12131960D02*
X13165650Y-12141484D01*
X13165650Y-12141484D02*
X13203745Y-12141484D01*
X13203745Y-12141484D02*
X13222792Y-12131960D01*
X13222792Y-12131960D02*
X13232316Y-12112912D01*
X13232316Y-12112912D02*
X13232316Y-12103388D01*
X13232316Y-12103388D02*
X13222792Y-12084341D01*
X13222792Y-12084341D02*
X13203745Y-12074817D01*
X13203745Y-12074817D02*
X13175173Y-12074817D01*
X13175173Y-12074817D02*
X13156126Y-12065293D01*
X13156126Y-12065293D02*
X13146602Y-12046246D01*
X13146602Y-12046246D02*
X13146602Y-12036722D01*
X13146602Y-12036722D02*
X13156126Y-12017674D01*
X13156126Y-12017674D02*
X13175173Y-12008150D01*
X13175173Y-12008150D02*
X13203745Y-12008150D01*
X13203745Y-12008150D02*
X13222792Y-12017674D01*
X13298983Y-12217674D02*
X13308507Y-12208150D01*
X13308507Y-12208150D02*
X13327554Y-12179579D01*
X13327554Y-12179579D02*
X13337078Y-12160531D01*
X13337078Y-12160531D02*
X13346602Y-12131960D01*
X13346602Y-12131960D02*
X13356126Y-12084341D01*
X13356126Y-12084341D02*
X13356126Y-12046246D01*
X13356126Y-12046246D02*
X13346602Y-11998627D01*
X13346602Y-11998627D02*
X13337078Y-11970055D01*
X13337078Y-11970055D02*
X13327554Y-11951008D01*
X13327554Y-11951008D02*
X13308507Y-11922436D01*
X13308507Y-11922436D02*
X13298983Y-11912912D01*
X13660888Y-12217674D02*
X13651364Y-12208150D01*
X13651364Y-12208150D02*
X13632316Y-12179579D01*
X13632316Y-12179579D02*
X13622792Y-12160531D01*
X13622792Y-12160531D02*
X13613269Y-12131960D01*
X13613269Y-12131960D02*
X13603745Y-12084341D01*
X13603745Y-12084341D02*
X13603745Y-12046246D01*
X13603745Y-12046246D02*
X13613269Y-11998627D01*
X13613269Y-11998627D02*
X13622792Y-11970055D01*
X13622792Y-11970055D02*
X13632316Y-11951008D01*
X13632316Y-11951008D02*
X13651364Y-11922436D01*
X13651364Y-11922436D02*
X13660888Y-11912912D01*
X13737078Y-12008150D02*
X13737078Y-12141484D01*
X13737078Y-12027198D02*
X13746602Y-12017674D01*
X13746602Y-12017674D02*
X13765650Y-12008150D01*
X13765650Y-12008150D02*
X13794221Y-12008150D01*
X13794221Y-12008150D02*
X13813269Y-12017674D01*
X13813269Y-12017674D02*
X13822792Y-12036722D01*
X13822792Y-12036722D02*
X13822792Y-12141484D01*
X13946602Y-12141484D02*
X13927554Y-12131960D01*
X13927554Y-12131960D02*
X13918031Y-12122436D01*
X13918031Y-12122436D02*
X13908507Y-12103388D01*
X13908507Y-12103388D02*
X13908507Y-12046246D01*
X13908507Y-12046246D02*
X13918031Y-12027198D01*
X13918031Y-12027198D02*
X13927554Y-12017674D01*
X13927554Y-12017674D02*
X13946602Y-12008150D01*
X13946602Y-12008150D02*
X13975173Y-12008150D01*
X13975173Y-12008150D02*
X13994221Y-12017674D01*
X13994221Y-12017674D02*
X14003745Y-12027198D01*
X14003745Y-12027198D02*
X14013269Y-12046246D01*
X14013269Y-12046246D02*
X14013269Y-12103388D01*
X14013269Y-12103388D02*
X14003745Y-12122436D01*
X14003745Y-12122436D02*
X13994221Y-12131960D01*
X13994221Y-12131960D02*
X13975173Y-12141484D01*
X13975173Y-12141484D02*
X13946602Y-12141484D01*
X14070412Y-12008150D02*
X14146602Y-12008150D01*
X14098983Y-11941484D02*
X14098983Y-12112912D01*
X14098983Y-12112912D02*
X14108507Y-12131960D01*
X14108507Y-12131960D02*
X14127554Y-12141484D01*
X14127554Y-12141484D02*
X14146602Y-12141484D01*
X14365650Y-12008150D02*
X14365650Y-12208150D01*
X14365650Y-12017674D02*
X14384697Y-12008150D01*
X14384697Y-12008150D02*
X14422793Y-12008150D01*
X14422793Y-12008150D02*
X14441840Y-12017674D01*
X14441840Y-12017674D02*
X14451364Y-12027198D01*
X14451364Y-12027198D02*
X14460888Y-12046246D01*
X14460888Y-12046246D02*
X14460888Y-12103388D01*
X14460888Y-12103388D02*
X14451364Y-12122436D01*
X14451364Y-12122436D02*
X14441840Y-12131960D01*
X14441840Y-12131960D02*
X14422793Y-12141484D01*
X14422793Y-12141484D02*
X14384697Y-12141484D01*
X14384697Y-12141484D02*
X14365650Y-12131960D01*
X14575173Y-12141484D02*
X14556126Y-12131960D01*
X14556126Y-12131960D02*
X14546602Y-12112912D01*
X14546602Y-12112912D02*
X14546602Y-11941484D01*
X14737078Y-12141484D02*
X14737078Y-12036722D01*
X14737078Y-12036722D02*
X14727554Y-12017674D01*
X14727554Y-12017674D02*
X14708507Y-12008150D01*
X14708507Y-12008150D02*
X14670412Y-12008150D01*
X14670412Y-12008150D02*
X14651364Y-12017674D01*
X14737078Y-12131960D02*
X14718031Y-12141484D01*
X14718031Y-12141484D02*
X14670412Y-12141484D01*
X14670412Y-12141484D02*
X14651364Y-12131960D01*
X14651364Y-12131960D02*
X14641840Y-12112912D01*
X14641840Y-12112912D02*
X14641840Y-12093865D01*
X14641840Y-12093865D02*
X14651364Y-12074817D01*
X14651364Y-12074817D02*
X14670412Y-12065293D01*
X14670412Y-12065293D02*
X14718031Y-12065293D01*
X14718031Y-12065293D02*
X14737078Y-12055769D01*
X14803745Y-12008150D02*
X14879935Y-12008150D01*
X14832316Y-11941484D02*
X14832316Y-12112912D01*
X14832316Y-12112912D02*
X14841840Y-12131960D01*
X14841840Y-12131960D02*
X14860888Y-12141484D01*
X14860888Y-12141484D02*
X14879935Y-12141484D01*
X15022793Y-12131960D02*
X15003745Y-12141484D01*
X15003745Y-12141484D02*
X14965650Y-12141484D01*
X14965650Y-12141484D02*
X14946602Y-12131960D01*
X14946602Y-12131960D02*
X14937078Y-12112912D01*
X14937078Y-12112912D02*
X14937078Y-12036722D01*
X14937078Y-12036722D02*
X14946602Y-12017674D01*
X14946602Y-12017674D02*
X14965650Y-12008150D01*
X14965650Y-12008150D02*
X15003745Y-12008150D01*
X15003745Y-12008150D02*
X15022793Y-12017674D01*
X15022793Y-12017674D02*
X15032316Y-12036722D01*
X15032316Y-12036722D02*
X15032316Y-12055769D01*
X15032316Y-12055769D02*
X14937078Y-12074817D01*
X15203745Y-12141484D02*
X15203745Y-11941484D01*
X15203745Y-12131960D02*
X15184697Y-12141484D01*
X15184697Y-12141484D02*
X15146602Y-12141484D01*
X15146602Y-12141484D02*
X15127554Y-12131960D01*
X15127554Y-12131960D02*
X15118031Y-12122436D01*
X15118031Y-12122436D02*
X15108507Y-12103388D01*
X15108507Y-12103388D02*
X15108507Y-12046246D01*
X15108507Y-12046246D02*
X15118031Y-12027198D01*
X15118031Y-12027198D02*
X15127554Y-12017674D01*
X15127554Y-12017674D02*
X15146602Y-12008150D01*
X15146602Y-12008150D02*
X15184697Y-12008150D01*
X15184697Y-12008150D02*
X15203745Y-12017674D01*
X15279935Y-12217674D02*
X15289459Y-12208150D01*
X15289459Y-12208150D02*
X15308507Y-12179579D01*
X15308507Y-12179579D02*
X15318031Y-12160531D01*
X15318031Y-12160531D02*
X15327554Y-12131960D01*
X15327554Y-12131960D02*
X15337078Y-12084341D01*
X15337078Y-12084341D02*
X15337078Y-12046246D01*
X15337078Y-12046246D02*
X15327554Y-11998627D01*
X15327554Y-11998627D02*
X15318031Y-11970055D01*
X15318031Y-11970055D02*
X15308507Y-11951008D01*
X15308507Y-11951008D02*
X15289459Y-11922436D01*
X15289459Y-11922436D02*
X15279935Y-11912912D01*
X8523920Y-12314000D02*
G75*
G02*
X8323920Y-12314000I-100000J0D01*
G01*
X8323920Y-12314000D02*
G75*
G02*
X8523920Y-12314000I100000J0D01*
G01*
X8775173Y-12224531D02*
X8784697Y-12215008D01*
X8784697Y-12215008D02*
X8803744Y-12205484D01*
X8803744Y-12205484D02*
X8851364Y-12205484D01*
X8851364Y-12205484D02*
X8870411Y-12215008D01*
X8870411Y-12215008D02*
X8879935Y-12224531D01*
X8879935Y-12224531D02*
X8889459Y-12243579D01*
X8889459Y-12243579D02*
X8889459Y-12262627D01*
X8889459Y-12262627D02*
X8879935Y-12291198D01*
X8879935Y-12291198D02*
X8765649Y-12405484D01*
X8765649Y-12405484D02*
X8889459Y-12405484D01*
X8975173Y-12386436D02*
X8984697Y-12395960D01*
X8984697Y-12395960D02*
X8975173Y-12405484D01*
X8975173Y-12405484D02*
X8965649Y-12395960D01*
X8965649Y-12395960D02*
X8975173Y-12386436D01*
X8975173Y-12386436D02*
X8975173Y-12405484D01*
X9060887Y-12224531D02*
X9070411Y-12215008D01*
X9070411Y-12215008D02*
X9089459Y-12205484D01*
X9089459Y-12205484D02*
X9137078Y-12205484D01*
X9137078Y-12205484D02*
X9156125Y-12215008D01*
X9156125Y-12215008D02*
X9165649Y-12224531D01*
X9165649Y-12224531D02*
X9175173Y-12243579D01*
X9175173Y-12243579D02*
X9175173Y-12262627D01*
X9175173Y-12262627D02*
X9165649Y-12291198D01*
X9165649Y-12291198D02*
X9051364Y-12405484D01*
X9051364Y-12405484D02*
X9175173Y-12405484D01*
X9298983Y-12205484D02*
X9318030Y-12205484D01*
X9318030Y-12205484D02*
X9337078Y-12215008D01*
X9337078Y-12215008D02*
X9346602Y-12224531D01*
X9346602Y-12224531D02*
X9356125Y-12243579D01*
X9356125Y-12243579D02*
X9365649Y-12281674D01*
X9365649Y-12281674D02*
X9365649Y-12329293D01*
X9365649Y-12329293D02*
X9356125Y-12367388D01*
X9356125Y-12367388D02*
X9346602Y-12386436D01*
X9346602Y-12386436D02*
X9337078Y-12395960D01*
X9337078Y-12395960D02*
X9318030Y-12405484D01*
X9318030Y-12405484D02*
X9298983Y-12405484D01*
X9298983Y-12405484D02*
X9279935Y-12395960D01*
X9279935Y-12395960D02*
X9270411Y-12386436D01*
X9270411Y-12386436D02*
X9260887Y-12367388D01*
X9260887Y-12367388D02*
X9251364Y-12329293D01*
X9251364Y-12329293D02*
X9251364Y-12281674D01*
X9251364Y-12281674D02*
X9260887Y-12243579D01*
X9260887Y-12243579D02*
X9270411Y-12224531D01*
X9270411Y-12224531D02*
X9279935Y-12215008D01*
X9279935Y-12215008D02*
X9298983Y-12205484D01*
X9489459Y-12205484D02*
X9508506Y-12205484D01*
X9508506Y-12205484D02*
X9527554Y-12215008D01*
X9527554Y-12215008D02*
X9537078Y-12224531D01*
X9537078Y-12224531D02*
X9546602Y-12243579D01*
X9546602Y-12243579D02*
X9556125Y-12281674D01*
X9556125Y-12281674D02*
X9556125Y-12329293D01*
X9556125Y-12329293D02*
X9546602Y-12367388D01*
X9546602Y-12367388D02*
X9537078Y-12386436D01*
X9537078Y-12386436D02*
X9527554Y-12395960D01*
X9527554Y-12395960D02*
X9508506Y-12405484D01*
X9508506Y-12405484D02*
X9489459Y-12405484D01*
X9489459Y-12405484D02*
X9470411Y-12395960D01*
X9470411Y-12395960D02*
X9460887Y-12386436D01*
X9460887Y-12386436D02*
X9451364Y-12367388D01*
X9451364Y-12367388D02*
X9441840Y-12329293D01*
X9441840Y-12329293D02*
X9441840Y-12281674D01*
X9441840Y-12281674D02*
X9451364Y-12243579D01*
X9451364Y-12243579D02*
X9460887Y-12224531D01*
X9460887Y-12224531D02*
X9470411Y-12215008D01*
X9470411Y-12215008D02*
X9489459Y-12205484D01*
X9641840Y-12405484D02*
X9641840Y-12272150D01*
X9641840Y-12291198D02*
X9651364Y-12281674D01*
X9651364Y-12281674D02*
X9670411Y-12272150D01*
X9670411Y-12272150D02*
X9698983Y-12272150D01*
X9698983Y-12272150D02*
X9718030Y-12281674D01*
X9718030Y-12281674D02*
X9727554Y-12300722D01*
X9727554Y-12300722D02*
X9727554Y-12405484D01*
X9727554Y-12300722D02*
X9737078Y-12281674D01*
X9737078Y-12281674D02*
X9756125Y-12272150D01*
X9756125Y-12272150D02*
X9784697Y-12272150D01*
X9784697Y-12272150D02*
X9803745Y-12281674D01*
X9803745Y-12281674D02*
X9813268Y-12300722D01*
X9813268Y-12300722D02*
X9813268Y-12405484D01*
X9908506Y-12405484D02*
X9908506Y-12272150D01*
X9908506Y-12291198D02*
X9918030Y-12281674D01*
X9918030Y-12281674D02*
X9937078Y-12272150D01*
X9937078Y-12272150D02*
X9965649Y-12272150D01*
X9965649Y-12272150D02*
X9984697Y-12281674D01*
X9984697Y-12281674D02*
X9994221Y-12300722D01*
X9994221Y-12300722D02*
X9994221Y-12405484D01*
X9994221Y-12300722D02*
X10003745Y-12281674D01*
X10003745Y-12281674D02*
X10022792Y-12272150D01*
X10022792Y-12272150D02*
X10051364Y-12272150D01*
X10051364Y-12272150D02*
X10070411Y-12281674D01*
X10070411Y-12281674D02*
X10079935Y-12300722D01*
X10079935Y-12300722D02*
X10079935Y-12405484D01*
X10470411Y-12195960D02*
X10298983Y-12453103D01*
X10727554Y-12205484D02*
X10746602Y-12205484D01*
X10746602Y-12205484D02*
X10765649Y-12215008D01*
X10765649Y-12215008D02*
X10775173Y-12224531D01*
X10775173Y-12224531D02*
X10784697Y-12243579D01*
X10784697Y-12243579D02*
X10794221Y-12281674D01*
X10794221Y-12281674D02*
X10794221Y-12329293D01*
X10794221Y-12329293D02*
X10784697Y-12367388D01*
X10784697Y-12367388D02*
X10775173Y-12386436D01*
X10775173Y-12386436D02*
X10765649Y-12395960D01*
X10765649Y-12395960D02*
X10746602Y-12405484D01*
X10746602Y-12405484D02*
X10727554Y-12405484D01*
X10727554Y-12405484D02*
X10708507Y-12395960D01*
X10708507Y-12395960D02*
X10698983Y-12386436D01*
X10698983Y-12386436D02*
X10689459Y-12367388D01*
X10689459Y-12367388D02*
X10679935Y-12329293D01*
X10679935Y-12329293D02*
X10679935Y-12281674D01*
X10679935Y-12281674D02*
X10689459Y-12243579D01*
X10689459Y-12243579D02*
X10698983Y-12224531D01*
X10698983Y-12224531D02*
X10708507Y-12215008D01*
X10708507Y-12215008D02*
X10727554Y-12205484D01*
X10879935Y-12386436D02*
X10889459Y-12395960D01*
X10889459Y-12395960D02*
X10879935Y-12405484D01*
X10879935Y-12405484D02*
X10870411Y-12395960D01*
X10870411Y-12395960D02*
X10879935Y-12386436D01*
X10879935Y-12386436D02*
X10879935Y-12405484D01*
X11013268Y-12205484D02*
X11032316Y-12205484D01*
X11032316Y-12205484D02*
X11051364Y-12215008D01*
X11051364Y-12215008D02*
X11060888Y-12224531D01*
X11060888Y-12224531D02*
X11070411Y-12243579D01*
X11070411Y-12243579D02*
X11079935Y-12281674D01*
X11079935Y-12281674D02*
X11079935Y-12329293D01*
X11079935Y-12329293D02*
X11070411Y-12367388D01*
X11070411Y-12367388D02*
X11060888Y-12386436D01*
X11060888Y-12386436D02*
X11051364Y-12395960D01*
X11051364Y-12395960D02*
X11032316Y-12405484D01*
X11032316Y-12405484D02*
X11013268Y-12405484D01*
X11013268Y-12405484D02*
X10994221Y-12395960D01*
X10994221Y-12395960D02*
X10984697Y-12386436D01*
X10984697Y-12386436D02*
X10975173Y-12367388D01*
X10975173Y-12367388D02*
X10965649Y-12329293D01*
X10965649Y-12329293D02*
X10965649Y-12281674D01*
X10965649Y-12281674D02*
X10975173Y-12243579D01*
X10975173Y-12243579D02*
X10984697Y-12224531D01*
X10984697Y-12224531D02*
X10994221Y-12215008D01*
X10994221Y-12215008D02*
X11013268Y-12205484D01*
X11194221Y-12291198D02*
X11175173Y-12281674D01*
X11175173Y-12281674D02*
X11165649Y-12272150D01*
X11165649Y-12272150D02*
X11156126Y-12253103D01*
X11156126Y-12253103D02*
X11156126Y-12243579D01*
X11156126Y-12243579D02*
X11165649Y-12224531D01*
X11165649Y-12224531D02*
X11175173Y-12215008D01*
X11175173Y-12215008D02*
X11194221Y-12205484D01*
X11194221Y-12205484D02*
X11232316Y-12205484D01*
X11232316Y-12205484D02*
X11251364Y-12215008D01*
X11251364Y-12215008D02*
X11260887Y-12224531D01*
X11260887Y-12224531D02*
X11270411Y-12243579D01*
X11270411Y-12243579D02*
X11270411Y-12253103D01*
X11270411Y-12253103D02*
X11260887Y-12272150D01*
X11260887Y-12272150D02*
X11251364Y-12281674D01*
X11251364Y-12281674D02*
X11232316Y-12291198D01*
X11232316Y-12291198D02*
X11194221Y-12291198D01*
X11194221Y-12291198D02*
X11175173Y-12300722D01*
X11175173Y-12300722D02*
X11165649Y-12310246D01*
X11165649Y-12310246D02*
X11156126Y-12329293D01*
X11156126Y-12329293D02*
X11156126Y-12367388D01*
X11156126Y-12367388D02*
X11165649Y-12386436D01*
X11165649Y-12386436D02*
X11175173Y-12395960D01*
X11175173Y-12395960D02*
X11194221Y-12405484D01*
X11194221Y-12405484D02*
X11232316Y-12405484D01*
X11232316Y-12405484D02*
X11251364Y-12395960D01*
X11251364Y-12395960D02*
X11260887Y-12386436D01*
X11260887Y-12386436D02*
X11270411Y-12367388D01*
X11270411Y-12367388D02*
X11270411Y-12329293D01*
X11270411Y-12329293D02*
X11260887Y-12310246D01*
X11260887Y-12310246D02*
X11251364Y-12300722D01*
X11251364Y-12300722D02*
X11232316Y-12291198D01*
X11441840Y-12205484D02*
X11403745Y-12205484D01*
X11403745Y-12205484D02*
X11384697Y-12215008D01*
X11384697Y-12215008D02*
X11375173Y-12224531D01*
X11375173Y-12224531D02*
X11356126Y-12253103D01*
X11356126Y-12253103D02*
X11346602Y-12291198D01*
X11346602Y-12291198D02*
X11346602Y-12367388D01*
X11346602Y-12367388D02*
X11356126Y-12386436D01*
X11356126Y-12386436D02*
X11365649Y-12395960D01*
X11365649Y-12395960D02*
X11384697Y-12405484D01*
X11384697Y-12405484D02*
X11422792Y-12405484D01*
X11422792Y-12405484D02*
X11441840Y-12395960D01*
X11441840Y-12395960D02*
X11451364Y-12386436D01*
X11451364Y-12386436D02*
X11460887Y-12367388D01*
X11460887Y-12367388D02*
X11460887Y-12319769D01*
X11460887Y-12319769D02*
X11451364Y-12300722D01*
X11451364Y-12300722D02*
X11441840Y-12291198D01*
X11441840Y-12291198D02*
X11422792Y-12281674D01*
X11422792Y-12281674D02*
X11384697Y-12281674D01*
X11384697Y-12281674D02*
X11365649Y-12291198D01*
X11365649Y-12291198D02*
X11356126Y-12300722D01*
X11356126Y-12300722D02*
X11346602Y-12319769D01*
X11632316Y-12205484D02*
X11594221Y-12205484D01*
X11594221Y-12205484D02*
X11575173Y-12215008D01*
X11575173Y-12215008D02*
X11565649Y-12224531D01*
X11565649Y-12224531D02*
X11546602Y-12253103D01*
X11546602Y-12253103D02*
X11537078Y-12291198D01*
X11537078Y-12291198D02*
X11537078Y-12367388D01*
X11537078Y-12367388D02*
X11546602Y-12386436D01*
X11546602Y-12386436D02*
X11556126Y-12395960D01*
X11556126Y-12395960D02*
X11575173Y-12405484D01*
X11575173Y-12405484D02*
X11613268Y-12405484D01*
X11613268Y-12405484D02*
X11632316Y-12395960D01*
X11632316Y-12395960D02*
X11641840Y-12386436D01*
X11641840Y-12386436D02*
X11651364Y-12367388D01*
X11651364Y-12367388D02*
X11651364Y-12319769D01*
X11651364Y-12319769D02*
X11641840Y-12300722D01*
X11641840Y-12300722D02*
X11632316Y-12291198D01*
X11632316Y-12291198D02*
X11613268Y-12281674D01*
X11613268Y-12281674D02*
X11575173Y-12281674D01*
X11575173Y-12281674D02*
X11556126Y-12291198D01*
X11556126Y-12291198D02*
X11546602Y-12300722D01*
X11546602Y-12300722D02*
X11537078Y-12319769D01*
X11727554Y-12205484D02*
X11727554Y-12243579D01*
X11803745Y-12205484D02*
X11803745Y-12243579D01*
X12098983Y-12481674D02*
X12089459Y-12472150D01*
X12089459Y-12472150D02*
X12070411Y-12443579D01*
X12070411Y-12443579D02*
X12060888Y-12424531D01*
X12060888Y-12424531D02*
X12051364Y-12395960D01*
X12051364Y-12395960D02*
X12041840Y-12348341D01*
X12041840Y-12348341D02*
X12041840Y-12310246D01*
X12041840Y-12310246D02*
X12051364Y-12262627D01*
X12051364Y-12262627D02*
X12060888Y-12234055D01*
X12060888Y-12234055D02*
X12070411Y-12215008D01*
X12070411Y-12215008D02*
X12089459Y-12186436D01*
X12089459Y-12186436D02*
X12098983Y-12176912D01*
X12165649Y-12224531D02*
X12175173Y-12215008D01*
X12175173Y-12215008D02*
X12194221Y-12205484D01*
X12194221Y-12205484D02*
X12241840Y-12205484D01*
X12241840Y-12205484D02*
X12260888Y-12215008D01*
X12260888Y-12215008D02*
X12270411Y-12224531D01*
X12270411Y-12224531D02*
X12279935Y-12243579D01*
X12279935Y-12243579D02*
X12279935Y-12262627D01*
X12279935Y-12262627D02*
X12270411Y-12291198D01*
X12270411Y-12291198D02*
X12156126Y-12405484D01*
X12156126Y-12405484D02*
X12279935Y-12405484D01*
X12518030Y-12405484D02*
X12518030Y-12205484D01*
X12603745Y-12405484D02*
X12603745Y-12300722D01*
X12603745Y-12300722D02*
X12594221Y-12281674D01*
X12594221Y-12281674D02*
X12575173Y-12272150D01*
X12575173Y-12272150D02*
X12546602Y-12272150D01*
X12546602Y-12272150D02*
X12527554Y-12281674D01*
X12527554Y-12281674D02*
X12518030Y-12291198D01*
X12727554Y-12405484D02*
X12708507Y-12395960D01*
X12708507Y-12395960D02*
X12698983Y-12386436D01*
X12698983Y-12386436D02*
X12689459Y-12367388D01*
X12689459Y-12367388D02*
X12689459Y-12310246D01*
X12689459Y-12310246D02*
X12698983Y-12291198D01*
X12698983Y-12291198D02*
X12708507Y-12281674D01*
X12708507Y-12281674D02*
X12727554Y-12272150D01*
X12727554Y-12272150D02*
X12756126Y-12272150D01*
X12756126Y-12272150D02*
X12775173Y-12281674D01*
X12775173Y-12281674D02*
X12784697Y-12291198D01*
X12784697Y-12291198D02*
X12794221Y-12310246D01*
X12794221Y-12310246D02*
X12794221Y-12367388D01*
X12794221Y-12367388D02*
X12784697Y-12386436D01*
X12784697Y-12386436D02*
X12775173Y-12395960D01*
X12775173Y-12395960D02*
X12756126Y-12405484D01*
X12756126Y-12405484D02*
X12727554Y-12405484D01*
X12908507Y-12405484D02*
X12889459Y-12395960D01*
X12889459Y-12395960D02*
X12879935Y-12376912D01*
X12879935Y-12376912D02*
X12879935Y-12205484D01*
X13060888Y-12395960D02*
X13041840Y-12405484D01*
X13041840Y-12405484D02*
X13003745Y-12405484D01*
X13003745Y-12405484D02*
X12984697Y-12395960D01*
X12984697Y-12395960D02*
X12975173Y-12376912D01*
X12975173Y-12376912D02*
X12975173Y-12300722D01*
X12975173Y-12300722D02*
X12984697Y-12281674D01*
X12984697Y-12281674D02*
X13003745Y-12272150D01*
X13003745Y-12272150D02*
X13041840Y-12272150D01*
X13041840Y-12272150D02*
X13060888Y-12281674D01*
X13060888Y-12281674D02*
X13070411Y-12300722D01*
X13070411Y-12300722D02*
X13070411Y-12319769D01*
X13070411Y-12319769D02*
X12975173Y-12338817D01*
X13146602Y-12395960D02*
X13165650Y-12405484D01*
X13165650Y-12405484D02*
X13203745Y-12405484D01*
X13203745Y-12405484D02*
X13222792Y-12395960D01*
X13222792Y-12395960D02*
X13232316Y-12376912D01*
X13232316Y-12376912D02*
X13232316Y-12367388D01*
X13232316Y-12367388D02*
X13222792Y-12348341D01*
X13222792Y-12348341D02*
X13203745Y-12338817D01*
X13203745Y-12338817D02*
X13175173Y-12338817D01*
X13175173Y-12338817D02*
X13156126Y-12329293D01*
X13156126Y-12329293D02*
X13146602Y-12310246D01*
X13146602Y-12310246D02*
X13146602Y-12300722D01*
X13146602Y-12300722D02*
X13156126Y-12281674D01*
X13156126Y-12281674D02*
X13175173Y-12272150D01*
X13175173Y-12272150D02*
X13203745Y-12272150D01*
X13203745Y-12272150D02*
X13222792Y-12281674D01*
X13298983Y-12481674D02*
X13308507Y-12472150D01*
X13308507Y-12472150D02*
X13327554Y-12443579D01*
X13327554Y-12443579D02*
X13337078Y-12424531D01*
X13337078Y-12424531D02*
X13346602Y-12395960D01*
X13346602Y-12395960D02*
X13356126Y-12348341D01*
X13356126Y-12348341D02*
X13356126Y-12310246D01*
X13356126Y-12310246D02*
X13346602Y-12262627D01*
X13346602Y-12262627D02*
X13337078Y-12234055D01*
X13337078Y-12234055D02*
X13327554Y-12215008D01*
X13327554Y-12215008D02*
X13308507Y-12186436D01*
X13308507Y-12186436D02*
X13298983Y-12176912D01*
X13660888Y-12481674D02*
X13651364Y-12472150D01*
X13651364Y-12472150D02*
X13632316Y-12443579D01*
X13632316Y-12443579D02*
X13622792Y-12424531D01*
X13622792Y-12424531D02*
X13613269Y-12395960D01*
X13613269Y-12395960D02*
X13603745Y-12348341D01*
X13603745Y-12348341D02*
X13603745Y-12310246D01*
X13603745Y-12310246D02*
X13613269Y-12262627D01*
X13613269Y-12262627D02*
X13622792Y-12234055D01*
X13622792Y-12234055D02*
X13632316Y-12215008D01*
X13632316Y-12215008D02*
X13651364Y-12186436D01*
X13651364Y-12186436D02*
X13660888Y-12176912D01*
X13737078Y-12272150D02*
X13737078Y-12405484D01*
X13737078Y-12291198D02*
X13746602Y-12281674D01*
X13746602Y-12281674D02*
X13765650Y-12272150D01*
X13765650Y-12272150D02*
X13794221Y-12272150D01*
X13794221Y-12272150D02*
X13813269Y-12281674D01*
X13813269Y-12281674D02*
X13822792Y-12300722D01*
X13822792Y-12300722D02*
X13822792Y-12405484D01*
X13946602Y-12405484D02*
X13927554Y-12395960D01*
X13927554Y-12395960D02*
X13918031Y-12386436D01*
X13918031Y-12386436D02*
X13908507Y-12367388D01*
X13908507Y-12367388D02*
X13908507Y-12310246D01*
X13908507Y-12310246D02*
X13918031Y-12291198D01*
X13918031Y-12291198D02*
X13927554Y-12281674D01*
X13927554Y-12281674D02*
X13946602Y-12272150D01*
X13946602Y-12272150D02*
X13975173Y-12272150D01*
X13975173Y-12272150D02*
X13994221Y-12281674D01*
X13994221Y-12281674D02*
X14003745Y-12291198D01*
X14003745Y-12291198D02*
X14013269Y-12310246D01*
X14013269Y-12310246D02*
X14013269Y-12367388D01*
X14013269Y-12367388D02*
X14003745Y-12386436D01*
X14003745Y-12386436D02*
X13994221Y-12395960D01*
X13994221Y-12395960D02*
X13975173Y-12405484D01*
X13975173Y-12405484D02*
X13946602Y-12405484D01*
X14070412Y-12272150D02*
X14146602Y-12272150D01*
X14098983Y-12205484D02*
X14098983Y-12376912D01*
X14098983Y-12376912D02*
X14108507Y-12395960D01*
X14108507Y-12395960D02*
X14127554Y-12405484D01*
X14127554Y-12405484D02*
X14146602Y-12405484D01*
X14365650Y-12272150D02*
X14365650Y-12472150D01*
X14365650Y-12281674D02*
X14384697Y-12272150D01*
X14384697Y-12272150D02*
X14422793Y-12272150D01*
X14422793Y-12272150D02*
X14441840Y-12281674D01*
X14441840Y-12281674D02*
X14451364Y-12291198D01*
X14451364Y-12291198D02*
X14460888Y-12310246D01*
X14460888Y-12310246D02*
X14460888Y-12367388D01*
X14460888Y-12367388D02*
X14451364Y-12386436D01*
X14451364Y-12386436D02*
X14441840Y-12395960D01*
X14441840Y-12395960D02*
X14422793Y-12405484D01*
X14422793Y-12405484D02*
X14384697Y-12405484D01*
X14384697Y-12405484D02*
X14365650Y-12395960D01*
X14575173Y-12405484D02*
X14556126Y-12395960D01*
X14556126Y-12395960D02*
X14546602Y-12376912D01*
X14546602Y-12376912D02*
X14546602Y-12205484D01*
X14737078Y-12405484D02*
X14737078Y-12300722D01*
X14737078Y-12300722D02*
X14727554Y-12281674D01*
X14727554Y-12281674D02*
X14708507Y-12272150D01*
X14708507Y-12272150D02*
X14670412Y-12272150D01*
X14670412Y-12272150D02*
X14651364Y-12281674D01*
X14737078Y-12395960D02*
X14718031Y-12405484D01*
X14718031Y-12405484D02*
X14670412Y-12405484D01*
X14670412Y-12405484D02*
X14651364Y-12395960D01*
X14651364Y-12395960D02*
X14641840Y-12376912D01*
X14641840Y-12376912D02*
X14641840Y-12357865D01*
X14641840Y-12357865D02*
X14651364Y-12338817D01*
X14651364Y-12338817D02*
X14670412Y-12329293D01*
X14670412Y-12329293D02*
X14718031Y-12329293D01*
X14718031Y-12329293D02*
X14737078Y-12319769D01*
X14803745Y-12272150D02*
X14879935Y-12272150D01*
X14832316Y-12205484D02*
X14832316Y-12376912D01*
X14832316Y-12376912D02*
X14841840Y-12395960D01*
X14841840Y-12395960D02*
X14860888Y-12405484D01*
X14860888Y-12405484D02*
X14879935Y-12405484D01*
X15022793Y-12395960D02*
X15003745Y-12405484D01*
X15003745Y-12405484D02*
X14965650Y-12405484D01*
X14965650Y-12405484D02*
X14946602Y-12395960D01*
X14946602Y-12395960D02*
X14937078Y-12376912D01*
X14937078Y-12376912D02*
X14937078Y-12300722D01*
X14937078Y-12300722D02*
X14946602Y-12281674D01*
X14946602Y-12281674D02*
X14965650Y-12272150D01*
X14965650Y-12272150D02*
X15003745Y-12272150D01*
X15003745Y-12272150D02*
X15022793Y-12281674D01*
X15022793Y-12281674D02*
X15032316Y-12300722D01*
X15032316Y-12300722D02*
X15032316Y-12319769D01*
X15032316Y-12319769D02*
X14937078Y-12338817D01*
X15203745Y-12405484D02*
X15203745Y-12205484D01*
X15203745Y-12395960D02*
X15184697Y-12405484D01*
X15184697Y-12405484D02*
X15146602Y-12405484D01*
X15146602Y-12405484D02*
X15127554Y-12395960D01*
X15127554Y-12395960D02*
X15118031Y-12386436D01*
X15118031Y-12386436D02*
X15108507Y-12367388D01*
X15108507Y-12367388D02*
X15108507Y-12310246D01*
X15108507Y-12310246D02*
X15118031Y-12291198D01*
X15118031Y-12291198D02*
X15127554Y-12281674D01*
X15127554Y-12281674D02*
X15146602Y-12272150D01*
X15146602Y-12272150D02*
X15184697Y-12272150D01*
X15184697Y-12272150D02*
X15203745Y-12281674D01*
X15279935Y-12481674D02*
X15289459Y-12472150D01*
X15289459Y-12472150D02*
X15308507Y-12443579D01*
X15308507Y-12443579D02*
X15318031Y-12424531D01*
X15318031Y-12424531D02*
X15327554Y-12395960D01*
X15327554Y-12395960D02*
X15337078Y-12348341D01*
X15337078Y-12348341D02*
X15337078Y-12310246D01*
X15337078Y-12310246D02*
X15327554Y-12262627D01*
X15327554Y-12262627D02*
X15318031Y-12234055D01*
X15318031Y-12234055D02*
X15308507Y-12215008D01*
X15308507Y-12215008D02*
X15289459Y-12186436D01*
X15289459Y-12186436D02*
X15279935Y-12176912D01*
X8423920Y-12534000D02*
X8423920Y-12734000D01*
X8323920Y-12634000D02*
X8523920Y-12634000D01*
X8765649Y-12525484D02*
X8889459Y-12525484D01*
X8889459Y-12525484D02*
X8822792Y-12601674D01*
X8822792Y-12601674D02*
X8851364Y-12601674D01*
X8851364Y-12601674D02*
X8870411Y-12611198D01*
X8870411Y-12611198D02*
X8879935Y-12620722D01*
X8879935Y-12620722D02*
X8889459Y-12639769D01*
X8889459Y-12639769D02*
X8889459Y-12687388D01*
X8889459Y-12687388D02*
X8879935Y-12706436D01*
X8879935Y-12706436D02*
X8870411Y-12715960D01*
X8870411Y-12715960D02*
X8851364Y-12725484D01*
X8851364Y-12725484D02*
X8794221Y-12725484D01*
X8794221Y-12725484D02*
X8775173Y-12715960D01*
X8775173Y-12715960D02*
X8765649Y-12706436D01*
X8975173Y-12706436D02*
X8984697Y-12715960D01*
X8984697Y-12715960D02*
X8975173Y-12725484D01*
X8975173Y-12725484D02*
X8965649Y-12715960D01*
X8965649Y-12715960D02*
X8975173Y-12706436D01*
X8975173Y-12706436D02*
X8975173Y-12725484D01*
X9108506Y-12525484D02*
X9127554Y-12525484D01*
X9127554Y-12525484D02*
X9146602Y-12535008D01*
X9146602Y-12535008D02*
X9156125Y-12544531D01*
X9156125Y-12544531D02*
X9165649Y-12563579D01*
X9165649Y-12563579D02*
X9175173Y-12601674D01*
X9175173Y-12601674D02*
X9175173Y-12649293D01*
X9175173Y-12649293D02*
X9165649Y-12687388D01*
X9165649Y-12687388D02*
X9156125Y-12706436D01*
X9156125Y-12706436D02*
X9146602Y-12715960D01*
X9146602Y-12715960D02*
X9127554Y-12725484D01*
X9127554Y-12725484D02*
X9108506Y-12725484D01*
X9108506Y-12725484D02*
X9089459Y-12715960D01*
X9089459Y-12715960D02*
X9079935Y-12706436D01*
X9079935Y-12706436D02*
X9070411Y-12687388D01*
X9070411Y-12687388D02*
X9060887Y-12649293D01*
X9060887Y-12649293D02*
X9060887Y-12601674D01*
X9060887Y-12601674D02*
X9070411Y-12563579D01*
X9070411Y-12563579D02*
X9079935Y-12544531D01*
X9079935Y-12544531D02*
X9089459Y-12535008D01*
X9089459Y-12535008D02*
X9108506Y-12525484D01*
X9298983Y-12525484D02*
X9318030Y-12525484D01*
X9318030Y-12525484D02*
X9337078Y-12535008D01*
X9337078Y-12535008D02*
X9346602Y-12544531D01*
X9346602Y-12544531D02*
X9356125Y-12563579D01*
X9356125Y-12563579D02*
X9365649Y-12601674D01*
X9365649Y-12601674D02*
X9365649Y-12649293D01*
X9365649Y-12649293D02*
X9356125Y-12687388D01*
X9356125Y-12687388D02*
X9346602Y-12706436D01*
X9346602Y-12706436D02*
X9337078Y-12715960D01*
X9337078Y-12715960D02*
X9318030Y-12725484D01*
X9318030Y-12725484D02*
X9298983Y-12725484D01*
X9298983Y-12725484D02*
X9279935Y-12715960D01*
X9279935Y-12715960D02*
X9270411Y-12706436D01*
X9270411Y-12706436D02*
X9260887Y-12687388D01*
X9260887Y-12687388D02*
X9251364Y-12649293D01*
X9251364Y-12649293D02*
X9251364Y-12601674D01*
X9251364Y-12601674D02*
X9260887Y-12563579D01*
X9260887Y-12563579D02*
X9270411Y-12544531D01*
X9270411Y-12544531D02*
X9279935Y-12535008D01*
X9279935Y-12535008D02*
X9298983Y-12525484D01*
X9489459Y-12525484D02*
X9508506Y-12525484D01*
X9508506Y-12525484D02*
X9527554Y-12535008D01*
X9527554Y-12535008D02*
X9537078Y-12544531D01*
X9537078Y-12544531D02*
X9546602Y-12563579D01*
X9546602Y-12563579D02*
X9556125Y-12601674D01*
X9556125Y-12601674D02*
X9556125Y-12649293D01*
X9556125Y-12649293D02*
X9546602Y-12687388D01*
X9546602Y-12687388D02*
X9537078Y-12706436D01*
X9537078Y-12706436D02*
X9527554Y-12715960D01*
X9527554Y-12715960D02*
X9508506Y-12725484D01*
X9508506Y-12725484D02*
X9489459Y-12725484D01*
X9489459Y-12725484D02*
X9470411Y-12715960D01*
X9470411Y-12715960D02*
X9460887Y-12706436D01*
X9460887Y-12706436D02*
X9451364Y-12687388D01*
X9451364Y-12687388D02*
X9441840Y-12649293D01*
X9441840Y-12649293D02*
X9441840Y-12601674D01*
X9441840Y-12601674D02*
X9451364Y-12563579D01*
X9451364Y-12563579D02*
X9460887Y-12544531D01*
X9460887Y-12544531D02*
X9470411Y-12535008D01*
X9470411Y-12535008D02*
X9489459Y-12525484D01*
X9641840Y-12725484D02*
X9641840Y-12592150D01*
X9641840Y-12611198D02*
X9651364Y-12601674D01*
X9651364Y-12601674D02*
X9670411Y-12592150D01*
X9670411Y-12592150D02*
X9698983Y-12592150D01*
X9698983Y-12592150D02*
X9718030Y-12601674D01*
X9718030Y-12601674D02*
X9727554Y-12620722D01*
X9727554Y-12620722D02*
X9727554Y-12725484D01*
X9727554Y-12620722D02*
X9737078Y-12601674D01*
X9737078Y-12601674D02*
X9756125Y-12592150D01*
X9756125Y-12592150D02*
X9784697Y-12592150D01*
X9784697Y-12592150D02*
X9803745Y-12601674D01*
X9803745Y-12601674D02*
X9813268Y-12620722D01*
X9813268Y-12620722D02*
X9813268Y-12725484D01*
X9908506Y-12725484D02*
X9908506Y-12592150D01*
X9908506Y-12611198D02*
X9918030Y-12601674D01*
X9918030Y-12601674D02*
X9937078Y-12592150D01*
X9937078Y-12592150D02*
X9965649Y-12592150D01*
X9965649Y-12592150D02*
X9984697Y-12601674D01*
X9984697Y-12601674D02*
X9994221Y-12620722D01*
X9994221Y-12620722D02*
X9994221Y-12725484D01*
X9994221Y-12620722D02*
X10003745Y-12601674D01*
X10003745Y-12601674D02*
X10022792Y-12592150D01*
X10022792Y-12592150D02*
X10051364Y-12592150D01*
X10051364Y-12592150D02*
X10070411Y-12601674D01*
X10070411Y-12601674D02*
X10079935Y-12620722D01*
X10079935Y-12620722D02*
X10079935Y-12725484D01*
X10470411Y-12515960D02*
X10298983Y-12773103D01*
X10727554Y-12525484D02*
X10746602Y-12525484D01*
X10746602Y-12525484D02*
X10765649Y-12535008D01*
X10765649Y-12535008D02*
X10775173Y-12544531D01*
X10775173Y-12544531D02*
X10784697Y-12563579D01*
X10784697Y-12563579D02*
X10794221Y-12601674D01*
X10794221Y-12601674D02*
X10794221Y-12649293D01*
X10794221Y-12649293D02*
X10784697Y-12687388D01*
X10784697Y-12687388D02*
X10775173Y-12706436D01*
X10775173Y-12706436D02*
X10765649Y-12715960D01*
X10765649Y-12715960D02*
X10746602Y-12725484D01*
X10746602Y-12725484D02*
X10727554Y-12725484D01*
X10727554Y-12725484D02*
X10708507Y-12715960D01*
X10708507Y-12715960D02*
X10698983Y-12706436D01*
X10698983Y-12706436D02*
X10689459Y-12687388D01*
X10689459Y-12687388D02*
X10679935Y-12649293D01*
X10679935Y-12649293D02*
X10679935Y-12601674D01*
X10679935Y-12601674D02*
X10689459Y-12563579D01*
X10689459Y-12563579D02*
X10698983Y-12544531D01*
X10698983Y-12544531D02*
X10708507Y-12535008D01*
X10708507Y-12535008D02*
X10727554Y-12525484D01*
X10879935Y-12706436D02*
X10889459Y-12715960D01*
X10889459Y-12715960D02*
X10879935Y-12725484D01*
X10879935Y-12725484D02*
X10870411Y-12715960D01*
X10870411Y-12715960D02*
X10879935Y-12706436D01*
X10879935Y-12706436D02*
X10879935Y-12725484D01*
X11079935Y-12725484D02*
X10965649Y-12725484D01*
X11022792Y-12725484D02*
X11022792Y-12525484D01*
X11022792Y-12525484D02*
X11003745Y-12554055D01*
X11003745Y-12554055D02*
X10984697Y-12573103D01*
X10984697Y-12573103D02*
X10965649Y-12582627D01*
X11270411Y-12725484D02*
X11156126Y-12725484D01*
X11213268Y-12725484D02*
X11213268Y-12525484D01*
X11213268Y-12525484D02*
X11194221Y-12554055D01*
X11194221Y-12554055D02*
X11175173Y-12573103D01*
X11175173Y-12573103D02*
X11156126Y-12582627D01*
X11384697Y-12611198D02*
X11365649Y-12601674D01*
X11365649Y-12601674D02*
X11356126Y-12592150D01*
X11356126Y-12592150D02*
X11346602Y-12573103D01*
X11346602Y-12573103D02*
X11346602Y-12563579D01*
X11346602Y-12563579D02*
X11356126Y-12544531D01*
X11356126Y-12544531D02*
X11365649Y-12535008D01*
X11365649Y-12535008D02*
X11384697Y-12525484D01*
X11384697Y-12525484D02*
X11422792Y-12525484D01*
X11422792Y-12525484D02*
X11441840Y-12535008D01*
X11441840Y-12535008D02*
X11451364Y-12544531D01*
X11451364Y-12544531D02*
X11460887Y-12563579D01*
X11460887Y-12563579D02*
X11460887Y-12573103D01*
X11460887Y-12573103D02*
X11451364Y-12592150D01*
X11451364Y-12592150D02*
X11441840Y-12601674D01*
X11441840Y-12601674D02*
X11422792Y-12611198D01*
X11422792Y-12611198D02*
X11384697Y-12611198D01*
X11384697Y-12611198D02*
X11365649Y-12620722D01*
X11365649Y-12620722D02*
X11356126Y-12630246D01*
X11356126Y-12630246D02*
X11346602Y-12649293D01*
X11346602Y-12649293D02*
X11346602Y-12687388D01*
X11346602Y-12687388D02*
X11356126Y-12706436D01*
X11356126Y-12706436D02*
X11365649Y-12715960D01*
X11365649Y-12715960D02*
X11384697Y-12725484D01*
X11384697Y-12725484D02*
X11422792Y-12725484D01*
X11422792Y-12725484D02*
X11441840Y-12715960D01*
X11441840Y-12715960D02*
X11451364Y-12706436D01*
X11451364Y-12706436D02*
X11460887Y-12687388D01*
X11460887Y-12687388D02*
X11460887Y-12649293D01*
X11460887Y-12649293D02*
X11451364Y-12630246D01*
X11451364Y-12630246D02*
X11441840Y-12620722D01*
X11441840Y-12620722D02*
X11422792Y-12611198D01*
X11651364Y-12725484D02*
X11537078Y-12725484D01*
X11594221Y-12725484D02*
X11594221Y-12525484D01*
X11594221Y-12525484D02*
X11575173Y-12554055D01*
X11575173Y-12554055D02*
X11556126Y-12573103D01*
X11556126Y-12573103D02*
X11537078Y-12582627D01*
X11727554Y-12525484D02*
X11727554Y-12563579D01*
X11803745Y-12525484D02*
X11803745Y-12563579D01*
X12098983Y-12801674D02*
X12089459Y-12792150D01*
X12089459Y-12792150D02*
X12070411Y-12763579D01*
X12070411Y-12763579D02*
X12060888Y-12744531D01*
X12060888Y-12744531D02*
X12051364Y-12715960D01*
X12051364Y-12715960D02*
X12041840Y-12668341D01*
X12041840Y-12668341D02*
X12041840Y-12630246D01*
X12041840Y-12630246D02*
X12051364Y-12582627D01*
X12051364Y-12582627D02*
X12060888Y-12554055D01*
X12060888Y-12554055D02*
X12070411Y-12535008D01*
X12070411Y-12535008D02*
X12089459Y-12506436D01*
X12089459Y-12506436D02*
X12098983Y-12496912D01*
X12156126Y-12525484D02*
X12279935Y-12525484D01*
X12279935Y-12525484D02*
X12213268Y-12601674D01*
X12213268Y-12601674D02*
X12241840Y-12601674D01*
X12241840Y-12601674D02*
X12260888Y-12611198D01*
X12260888Y-12611198D02*
X12270411Y-12620722D01*
X12270411Y-12620722D02*
X12279935Y-12639769D01*
X12279935Y-12639769D02*
X12279935Y-12687388D01*
X12279935Y-12687388D02*
X12270411Y-12706436D01*
X12270411Y-12706436D02*
X12260888Y-12715960D01*
X12260888Y-12715960D02*
X12241840Y-12725484D01*
X12241840Y-12725484D02*
X12184697Y-12725484D01*
X12184697Y-12725484D02*
X12165649Y-12715960D01*
X12165649Y-12715960D02*
X12156126Y-12706436D01*
X12518030Y-12725484D02*
X12518030Y-12525484D01*
X12603745Y-12725484D02*
X12603745Y-12620722D01*
X12603745Y-12620722D02*
X12594221Y-12601674D01*
X12594221Y-12601674D02*
X12575173Y-12592150D01*
X12575173Y-12592150D02*
X12546602Y-12592150D01*
X12546602Y-12592150D02*
X12527554Y-12601674D01*
X12527554Y-12601674D02*
X12518030Y-12611198D01*
X12727554Y-12725484D02*
X12708507Y-12715960D01*
X12708507Y-12715960D02*
X12698983Y-12706436D01*
X12698983Y-12706436D02*
X12689459Y-12687388D01*
X12689459Y-12687388D02*
X12689459Y-12630246D01*
X12689459Y-12630246D02*
X12698983Y-12611198D01*
X12698983Y-12611198D02*
X12708507Y-12601674D01*
X12708507Y-12601674D02*
X12727554Y-12592150D01*
X12727554Y-12592150D02*
X12756126Y-12592150D01*
X12756126Y-12592150D02*
X12775173Y-12601674D01*
X12775173Y-12601674D02*
X12784697Y-12611198D01*
X12784697Y-12611198D02*
X12794221Y-12630246D01*
X12794221Y-12630246D02*
X12794221Y-12687388D01*
X12794221Y-12687388D02*
X12784697Y-12706436D01*
X12784697Y-12706436D02*
X12775173Y-12715960D01*
X12775173Y-12715960D02*
X12756126Y-12725484D01*
X12756126Y-12725484D02*
X12727554Y-12725484D01*
X12908507Y-12725484D02*
X12889459Y-12715960D01*
X12889459Y-12715960D02*
X12879935Y-12696912D01*
X12879935Y-12696912D02*
X12879935Y-12525484D01*
X13060888Y-12715960D02*
X13041840Y-12725484D01*
X13041840Y-12725484D02*
X13003745Y-12725484D01*
X13003745Y-12725484D02*
X12984697Y-12715960D01*
X12984697Y-12715960D02*
X12975173Y-12696912D01*
X12975173Y-12696912D02*
X12975173Y-12620722D01*
X12975173Y-12620722D02*
X12984697Y-12601674D01*
X12984697Y-12601674D02*
X13003745Y-12592150D01*
X13003745Y-12592150D02*
X13041840Y-12592150D01*
X13041840Y-12592150D02*
X13060888Y-12601674D01*
X13060888Y-12601674D02*
X13070411Y-12620722D01*
X13070411Y-12620722D02*
X13070411Y-12639769D01*
X13070411Y-12639769D02*
X12975173Y-12658817D01*
X13146602Y-12715960D02*
X13165650Y-12725484D01*
X13165650Y-12725484D02*
X13203745Y-12725484D01*
X13203745Y-12725484D02*
X13222792Y-12715960D01*
X13222792Y-12715960D02*
X13232316Y-12696912D01*
X13232316Y-12696912D02*
X13232316Y-12687388D01*
X13232316Y-12687388D02*
X13222792Y-12668341D01*
X13222792Y-12668341D02*
X13203745Y-12658817D01*
X13203745Y-12658817D02*
X13175173Y-12658817D01*
X13175173Y-12658817D02*
X13156126Y-12649293D01*
X13156126Y-12649293D02*
X13146602Y-12630246D01*
X13146602Y-12630246D02*
X13146602Y-12620722D01*
X13146602Y-12620722D02*
X13156126Y-12601674D01*
X13156126Y-12601674D02*
X13175173Y-12592150D01*
X13175173Y-12592150D02*
X13203745Y-12592150D01*
X13203745Y-12592150D02*
X13222792Y-12601674D01*
X13298983Y-12801674D02*
X13308507Y-12792150D01*
X13308507Y-12792150D02*
X13327554Y-12763579D01*
X13327554Y-12763579D02*
X13337078Y-12744531D01*
X13337078Y-12744531D02*
X13346602Y-12715960D01*
X13346602Y-12715960D02*
X13356126Y-12668341D01*
X13356126Y-12668341D02*
X13356126Y-12630246D01*
X13356126Y-12630246D02*
X13346602Y-12582627D01*
X13346602Y-12582627D02*
X13337078Y-12554055D01*
X13337078Y-12554055D02*
X13327554Y-12535008D01*
X13327554Y-12535008D02*
X13308507Y-12506436D01*
X13308507Y-12506436D02*
X13298983Y-12496912D01*
X13660888Y-12801674D02*
X13651364Y-12792150D01*
X13651364Y-12792150D02*
X13632316Y-12763579D01*
X13632316Y-12763579D02*
X13622792Y-12744531D01*
X13622792Y-12744531D02*
X13613269Y-12715960D01*
X13613269Y-12715960D02*
X13603745Y-12668341D01*
X13603745Y-12668341D02*
X13603745Y-12630246D01*
X13603745Y-12630246D02*
X13613269Y-12582627D01*
X13613269Y-12582627D02*
X13622792Y-12554055D01*
X13622792Y-12554055D02*
X13632316Y-12535008D01*
X13632316Y-12535008D02*
X13651364Y-12506436D01*
X13651364Y-12506436D02*
X13660888Y-12496912D01*
X13737078Y-12592150D02*
X13737078Y-12725484D01*
X13737078Y-12611198D02*
X13746602Y-12601674D01*
X13746602Y-12601674D02*
X13765650Y-12592150D01*
X13765650Y-12592150D02*
X13794221Y-12592150D01*
X13794221Y-12592150D02*
X13813269Y-12601674D01*
X13813269Y-12601674D02*
X13822792Y-12620722D01*
X13822792Y-12620722D02*
X13822792Y-12725484D01*
X13946602Y-12725484D02*
X13927554Y-12715960D01*
X13927554Y-12715960D02*
X13918031Y-12706436D01*
X13918031Y-12706436D02*
X13908507Y-12687388D01*
X13908507Y-12687388D02*
X13908507Y-12630246D01*
X13908507Y-12630246D02*
X13918031Y-12611198D01*
X13918031Y-12611198D02*
X13927554Y-12601674D01*
X13927554Y-12601674D02*
X13946602Y-12592150D01*
X13946602Y-12592150D02*
X13975173Y-12592150D01*
X13975173Y-12592150D02*
X13994221Y-12601674D01*
X13994221Y-12601674D02*
X14003745Y-12611198D01*
X14003745Y-12611198D02*
X14013269Y-12630246D01*
X14013269Y-12630246D02*
X14013269Y-12687388D01*
X14013269Y-12687388D02*
X14003745Y-12706436D01*
X14003745Y-12706436D02*
X13994221Y-12715960D01*
X13994221Y-12715960D02*
X13975173Y-12725484D01*
X13975173Y-12725484D02*
X13946602Y-12725484D01*
X14070412Y-12592150D02*
X14146602Y-12592150D01*
X14098983Y-12525484D02*
X14098983Y-12696912D01*
X14098983Y-12696912D02*
X14108507Y-12715960D01*
X14108507Y-12715960D02*
X14127554Y-12725484D01*
X14127554Y-12725484D02*
X14146602Y-12725484D01*
X14365650Y-12592150D02*
X14365650Y-12792150D01*
X14365650Y-12601674D02*
X14384697Y-12592150D01*
X14384697Y-12592150D02*
X14422793Y-12592150D01*
X14422793Y-12592150D02*
X14441840Y-12601674D01*
X14441840Y-12601674D02*
X14451364Y-12611198D01*
X14451364Y-12611198D02*
X14460888Y-12630246D01*
X14460888Y-12630246D02*
X14460888Y-12687388D01*
X14460888Y-12687388D02*
X14451364Y-12706436D01*
X14451364Y-12706436D02*
X14441840Y-12715960D01*
X14441840Y-12715960D02*
X14422793Y-12725484D01*
X14422793Y-12725484D02*
X14384697Y-12725484D01*
X14384697Y-12725484D02*
X14365650Y-12715960D01*
X14575173Y-12725484D02*
X14556126Y-12715960D01*
X14556126Y-12715960D02*
X14546602Y-12696912D01*
X14546602Y-12696912D02*
X14546602Y-12525484D01*
X14737078Y-12725484D02*
X14737078Y-12620722D01*
X14737078Y-12620722D02*
X14727554Y-12601674D01*
X14727554Y-12601674D02*
X14708507Y-12592150D01*
X14708507Y-12592150D02*
X14670412Y-12592150D01*
X14670412Y-12592150D02*
X14651364Y-12601674D01*
X14737078Y-12715960D02*
X14718031Y-12725484D01*
X14718031Y-12725484D02*
X14670412Y-12725484D01*
X14670412Y-12725484D02*
X14651364Y-12715960D01*
X14651364Y-12715960D02*
X14641840Y-12696912D01*
X14641840Y-12696912D02*
X14641840Y-12677865D01*
X14641840Y-12677865D02*
X14651364Y-12658817D01*
X14651364Y-12658817D02*
X14670412Y-12649293D01*
X14670412Y-12649293D02*
X14718031Y-12649293D01*
X14718031Y-12649293D02*
X14737078Y-12639769D01*
X14803745Y-12592150D02*
X14879935Y-12592150D01*
X14832316Y-12525484D02*
X14832316Y-12696912D01*
X14832316Y-12696912D02*
X14841840Y-12715960D01*
X14841840Y-12715960D02*
X14860888Y-12725484D01*
X14860888Y-12725484D02*
X14879935Y-12725484D01*
X15022793Y-12715960D02*
X15003745Y-12725484D01*
X15003745Y-12725484D02*
X14965650Y-12725484D01*
X14965650Y-12725484D02*
X14946602Y-12715960D01*
X14946602Y-12715960D02*
X14937078Y-12696912D01*
X14937078Y-12696912D02*
X14937078Y-12620722D01*
X14937078Y-12620722D02*
X14946602Y-12601674D01*
X14946602Y-12601674D02*
X14965650Y-12592150D01*
X14965650Y-12592150D02*
X15003745Y-12592150D01*
X15003745Y-12592150D02*
X15022793Y-12601674D01*
X15022793Y-12601674D02*
X15032316Y-12620722D01*
X15032316Y-12620722D02*
X15032316Y-12639769D01*
X15032316Y-12639769D02*
X14937078Y-12658817D01*
X15203745Y-12725484D02*
X15203745Y-12525484D01*
X15203745Y-12715960D02*
X15184697Y-12725484D01*
X15184697Y-12725484D02*
X15146602Y-12725484D01*
X15146602Y-12725484D02*
X15127554Y-12715960D01*
X15127554Y-12715960D02*
X15118031Y-12706436D01*
X15118031Y-12706436D02*
X15108507Y-12687388D01*
X15108507Y-12687388D02*
X15108507Y-12630246D01*
X15108507Y-12630246D02*
X15118031Y-12611198D01*
X15118031Y-12611198D02*
X15127554Y-12601674D01*
X15127554Y-12601674D02*
X15146602Y-12592150D01*
X15146602Y-12592150D02*
X15184697Y-12592150D01*
X15184697Y-12592150D02*
X15203745Y-12601674D01*
X15279935Y-12801674D02*
X15289459Y-12792150D01*
X15289459Y-12792150D02*
X15308507Y-12763579D01*
X15308507Y-12763579D02*
X15318031Y-12744531D01*
X15318031Y-12744531D02*
X15327554Y-12715960D01*
X15327554Y-12715960D02*
X15337078Y-12668341D01*
X15337078Y-12668341D02*
X15337078Y-12630246D01*
X15337078Y-12630246D02*
X15327554Y-12582627D01*
X15327554Y-12582627D02*
X15318031Y-12554055D01*
X15318031Y-12554055D02*
X15308507Y-12535008D01*
X15308507Y-12535008D02*
X15289459Y-12506436D01*
X15289459Y-12506436D02*
X15279935Y-12496912D01*
M02*
