%TF.GenerationSoftware,KiCad,Pcbnew,9.0.7*%
%TF.CreationDate,2026-03-13T11:38:06-04:00*%
%TF.ProjectId,Smart_Backpack,536d6172-745f-4426-9163-6b7061636b2e,rev?*%
%TF.SameCoordinates,Original*%
%TF.FileFunction,Soldermask,Bot*%
%TF.FilePolarity,Negative*%
%FSLAX46Y46*%
G04 Gerber Fmt 4.6, Leading zero omitted, Abs format (unit mm)*
G04 Created by KiCad (PCBNEW 9.0.7) date 2026-03-13 11:38:06*
%MOMM*%
%LPD*%
G01*
G04 APERTURE LIST*
G04 Aperture macros list*
%AMRoundRect*
0 Rectangle with rounded corners*
0 $1 Rounding radius*
0 $2 $3 $4 $5 $6 $7 $8 $9 X,Y pos of 4 corners*
0 Add a 4 corners polygon primitive as box body*
4,1,4,$2,$3,$4,$5,$6,$7,$8,$9,$2,$3,0*
0 Add four circle primitives for the rounded corners*
1,1,$1+$1,$2,$3*
1,1,$1+$1,$4,$5*
1,1,$1+$1,$6,$7*
1,1,$1+$1,$8,$9*
0 Add four rect primitives between the rounded corners*
20,1,$1+$1,$2,$3,$4,$5,0*
20,1,$1+$1,$4,$5,$6,$7,0*
20,1,$1+$1,$6,$7,$8,$9,0*
20,1,$1+$1,$8,$9,$2,$3,0*%
G04 Aperture macros list end*
%ADD10RoundRect,0.250001X1.099999X-1.099999X1.099999X1.099999X-1.099999X1.099999X-1.099999X-1.099999X0*%
%ADD11C,2.700000*%
%ADD12C,2.200000*%
%ADD13C,3.000000*%
%ADD14RoundRect,0.250001X1.099999X1.099999X-1.099999X1.099999X-1.099999X-1.099999X1.099999X-1.099999X0*%
%ADD15C,1.204050*%
%ADD16C,1.204450*%
%ADD17R,1.700000X1.700000*%
%ADD18C,1.700000*%
%ADD19RoundRect,0.250001X-1.099999X1.099999X-1.099999X-1.099999X1.099999X-1.099999X1.099999X1.099999X0*%
%ADD20C,0.650000*%
%ADD21O,2.100000X1.000000*%
%ADD22O,1.800000X1.000000*%
%ADD23RoundRect,0.160000X0.222500X0.160000X-0.222500X0.160000X-0.222500X-0.160000X0.222500X-0.160000X0*%
%ADD24RoundRect,0.250000X-0.412500X-0.650000X0.412500X-0.650000X0.412500X0.650000X-0.412500X0.650000X0*%
%ADD25RoundRect,0.250000X0.625000X-0.400000X0.625000X0.400000X-0.625000X0.400000X-0.625000X-0.400000X0*%
%ADD26R,8.001000X2.209800*%
%ADD27RoundRect,0.250000X-0.625000X0.400000X-0.625000X-0.400000X0.625000X-0.400000X0.625000X0.400000X0*%
%ADD28RoundRect,0.250000X0.412500X0.650000X-0.412500X0.650000X-0.412500X-0.650000X0.412500X-0.650000X0*%
%ADD29RoundRect,0.160000X-0.160000X0.222500X-0.160000X-0.222500X0.160000X-0.222500X0.160000X0.222500X0*%
%ADD30RoundRect,0.250000X-0.650000X0.412500X-0.650000X-0.412500X0.650000X-0.412500X0.650000X0.412500X0*%
%ADD31RoundRect,0.250000X0.400000X0.625000X-0.400000X0.625000X-0.400000X-0.625000X0.400000X-0.625000X0*%
%ADD32RoundRect,0.160000X-0.222500X-0.160000X0.222500X-0.160000X0.222500X0.160000X-0.222500X0.160000X0*%
%ADD33RoundRect,0.160000X0.160000X-0.222500X0.160000X0.222500X-0.160000X0.222500X-0.160000X-0.222500X0*%
%ADD34RoundRect,0.250000X-0.400000X-0.625000X0.400000X-0.625000X0.400000X0.625000X-0.400000X0.625000X0*%
%ADD35RoundRect,0.087500X-0.087500X0.250000X-0.087500X-0.250000X0.087500X-0.250000X0.087500X0.250000X0*%
G04 APERTURE END LIST*
D10*
%TO.C,J6*%
X141732000Y-64818400D03*
D11*
X141732000Y-60858400D03*
X141732000Y-56898400D03*
%TD*%
D12*
%TO.C,H2*%
X122428000Y-55197600D03*
%TD*%
D13*
%TO.C,H3*%
X89814400Y-44145200D03*
%TD*%
D10*
%TO.C,J5*%
X141732000Y-79347200D03*
D11*
X141732000Y-75387200D03*
X141732000Y-71427200D03*
%TD*%
D14*
%TO.C,J4*%
X118904640Y-48564800D03*
D11*
X114944640Y-48564800D03*
X110984640Y-48564800D03*
%TD*%
D15*
%TO.C,RTC1*%
X131035000Y-101475000D03*
D16*
X129765000Y-101475000D03*
%TD*%
D13*
%TO.C,H4*%
X146507200Y-44145200D03*
%TD*%
D17*
%TO.C,J8*%
X103378000Y-84937600D03*
D18*
X105918000Y-84937600D03*
X108458000Y-84937600D03*
X110998000Y-84937600D03*
X113538000Y-84937600D03*
X116078000Y-84937600D03*
X118618000Y-84937600D03*
X121158000Y-84937600D03*
%TD*%
D14*
%TO.C,J2*%
X139357760Y-48564800D03*
D11*
X135397760Y-48564800D03*
%TD*%
D14*
%TO.C,J3*%
X129131200Y-48564800D03*
D11*
X125171200Y-48564800D03*
%TD*%
D14*
%TO.C,J1*%
X104718080Y-48564800D03*
D11*
X100758080Y-48564800D03*
X96798080Y-48564800D03*
%TD*%
D19*
%TO.C,J7*%
X94945200Y-55120400D03*
D11*
X94945200Y-59080400D03*
X94945200Y-63040400D03*
X94945200Y-67000400D03*
X94945200Y-70960400D03*
X94945200Y-74920400D03*
X94945200Y-78880400D03*
%TD*%
D13*
%TO.C,H5*%
X89814400Y-109524800D03*
%TD*%
D10*
%TO.C,J10*%
X141815000Y-88594000D03*
D11*
X141815000Y-84634000D03*
%TD*%
D12*
%TO.C,H1*%
X102108000Y-55197600D03*
%TD*%
D20*
%TO.C,J9*%
X90780000Y-92127000D03*
X90780000Y-97907000D03*
D21*
X91300000Y-90697000D03*
D22*
X87100000Y-90697000D03*
D21*
X91300000Y-99337000D03*
D22*
X87100000Y-99337000D03*
%TD*%
D23*
%TO.C,D12*%
X106426000Y-51054000D03*
X105281000Y-51054000D03*
%TD*%
D24*
%TO.C,C3*%
X145262000Y-100838000D03*
X148387000Y-100838000D03*
%TD*%
D25*
%TO.C,R9*%
X97698814Y-105393034D03*
X97698814Y-102293034D03*
%TD*%
D26*
%TO.C,L1*%
X110680000Y-103380000D03*
X110680000Y-109095000D03*
%TD*%
D27*
%TO.C,R10*%
X100073814Y-102318034D03*
X100073814Y-105418034D03*
%TD*%
D28*
%TO.C,C9*%
X148387000Y-95504000D03*
X145262000Y-95504000D03*
%TD*%
D29*
%TO.C,D3*%
X89651000Y-94527500D03*
X89651000Y-95672500D03*
%TD*%
D30*
%TO.C,C13*%
X133604000Y-96481500D03*
X133604000Y-99606500D03*
%TD*%
D23*
%TO.C,D6*%
X140462000Y-53594000D03*
X139317000Y-53594000D03*
%TD*%
D31*
%TO.C,R11*%
X148336000Y-98298000D03*
X145236000Y-98298000D03*
%TD*%
D23*
%TO.C,D8*%
X141034500Y-92202000D03*
X139889500Y-92202000D03*
%TD*%
D32*
%TO.C,D13*%
X116013500Y-87376000D03*
X117158500Y-87376000D03*
%TD*%
D28*
%TO.C,C8*%
X105020000Y-109180000D03*
X101895000Y-109180000D03*
%TD*%
D23*
%TO.C,D11*%
X98616500Y-55118000D03*
X97471500Y-55118000D03*
%TD*%
D29*
%TO.C,D4*%
X95910000Y-95947500D03*
X95910000Y-97092500D03*
%TD*%
D33*
%TO.C,D7*%
X118618000Y-53404500D03*
X118618000Y-52259500D03*
%TD*%
%TO.C,D10*%
X137922000Y-80582500D03*
X137922000Y-79437500D03*
%TD*%
D34*
%TO.C,R18*%
X128740000Y-90260000D03*
X131840000Y-90260000D03*
%TD*%
D35*
%TO.C,U1*%
X103160814Y-102332034D03*
X103660814Y-102332034D03*
X104160814Y-102332034D03*
X104160814Y-103757034D03*
X103660814Y-103757034D03*
X103160814Y-103757034D03*
%TD*%
D30*
%TO.C,C12*%
X127254000Y-96443000D03*
X127254000Y-99568000D03*
%TD*%
D28*
%TO.C,C7*%
X103861314Y-98543034D03*
X100736314Y-98543034D03*
%TD*%
M02*
